<svg viewBox="0 0 127 158" fill="none" xmlns="http://www.w3.org/2000/svg"><path fill-rule="evenodd" clip-rule="evenodd" d="M63.5 0C98.5212 0 127 28.4788 127 63.5V129.566C127 145.216 114.428 157.788 98.7778 157.788H28.2222C12.5717 157.788 0 145.216 0 129.566V63.5C0 28.4788 28.4788 0 63.5 0Z" fill="#DB8E73"/><path d="M57.5991 80.1767H34.5082C32.9688 80.1767 31.6859 78.8939 31.6859 77.3545C31.6859 75.8151 32.9688 74.5323 34.5082 74.5323H49.1324L31.6859 61.1909C30.4031 60.1646 30.1465 58.3687 31.1728 57.0858C32.1991 55.803 33.995 55.5464 35.2779 56.5727L59.5233 75.0454C60.5496 75.8151 60.9344 77.098 60.5496 78.2525C60.0364 79.407 58.8819 80.1767 57.5991 80.1767Z" fill="#B4654A"/><path d="M92.1071 80.1767H69.0162C67.7333 80.1767 66.7071 79.407 66.3222 78.2525C65.9374 77.098 66.3222 75.8151 67.3485 75.0454L91.594 56.5727C92.8768 55.5464 94.6727 55.803 95.699 57.0858C96.7253 58.3687 96.4687 60.1646 95.1859 61.1909L77.4828 74.404H92.1071C93.6465 74.404 94.9293 75.6868 94.9293 77.2262C94.9293 78.7656 93.7748 80.1767 92.1071 80.1767Z" fill="#B4654A"/></svg>