<svg viewBox="0 0 127 158" fill="none" xmlns="http://www.w3.org/2000/svg"><path fill-rule="evenodd" clip-rule="evenodd" d="M63.5 0C98.5212 0 127 28.4788 127 63.5V129.566C127 145.216 114.428 157.788 98.7778 157.788H28.2222C12.5717 157.788 0 145.216 0 129.566V63.5C0 28.4788 28.4788 0 63.5 0Z" fill="#DB8E73"/><path d="M29.5049 73.5058C27.9655 73.5058 26.4261 72.7362 25.3998 71.325C23.9887 69.1442 24.6301 66.0654 26.8109 64.6543C36.6887 58.3685 46.9514 58.3685 56.316 64.6543C58.4968 66.1937 59.1382 69.1442 57.5988 71.325C56.0594 73.5058 53.1089 74.1473 50.9281 72.6079C44.6423 68.3745 38.613 68.3745 31.9423 72.6079C31.3008 73.3776 30.4029 73.5058 29.5049 73.5058Z" fill="#B4654A"/><path d="M74.6608 73.5058C73.1214 73.5058 71.582 72.7362 70.5557 71.325C69.1446 69.1442 69.786 66.0654 71.9668 64.6543C81.8446 58.3685 92.1072 58.3685 101.472 64.6543C103.653 66.1937 104.294 69.1442 102.755 71.325C101.215 73.5058 98.2648 74.1473 96.084 72.6079C89.7981 68.3745 83.7689 68.3745 77.0981 72.6079C76.4567 73.3776 75.5588 73.5058 74.6608 73.5058Z" fill="#B4654A"/></svg>