<svg viewBox="0 0 127 157" fill="none" xmlns="http://www.w3.org/2000/svg"><path fill-rule="evenodd" clip-rule="evenodd" d="M63.4993 0C98.3457 0 126.682 28.3366 126.682 63.1829V128.919C126.682 144.491 114.173 157 98.601 157H28.3977C12.8253 157 0.316406 144.491 0.316406 128.919V63.1829C0.316406 28.3366 28.653 0 63.4993 0Z" fill="#DB8E73"/><path fill-rule="evenodd" clip-rule="evenodd" d="M84.4327 52.3333C94.2611 52.3333 102.175 60.2471 102.175 70.0755V83.8609C102.175 93.6893 94.2611 101.603 84.4327 101.603C74.6042 101.603 66.6904 93.6893 66.6904 83.8609V70.0755C66.818 60.2471 74.7319 52.3333 84.4327 52.3333Z" fill="white"/><path fill-rule="evenodd" clip-rule="evenodd" d="M37.205 52.3333C27.3766 52.3333 19.4628 60.2471 19.4628 70.0755V83.8609C19.4628 93.6893 27.3766 101.603 37.205 101.603C47.0335 101.603 54.9473 93.6893 54.9473 83.8609V70.0755C54.9473 60.2471 47.0335 52.3333 37.205 52.3333Z" fill="white"/><path fill-rule="evenodd" clip-rule="evenodd" d="M40.3961 64.8423C36.3115 64.8423 32.8652 68.161 32.8652 72.3732V81.6911C32.8652 85.7756 36.1839 89.222 40.3961 89.222C44.4806 89.222 47.927 85.9033 47.927 81.6911V72.3732C47.7993 68.161 44.4806 64.8423 40.3961 64.8423Z" fill="#4C4B4C"/><path fill-rule="evenodd" clip-rule="evenodd" d="M80.6034 64.8423C76.5189 64.8423 73.0725 68.161 73.0725 72.3732V81.6911C73.0725 85.7756 76.3912 89.222 80.6034 89.222C84.8156 89.222 88.1343 85.9033 88.1343 81.6911V72.3732C88.0067 68.161 84.688 64.8423 80.6034 64.8423Z" fill="#4C4B4C"/><path d="M25.5896 55.0139C22.1432 55.0139 18.6969 53.0993 17.0376 49.7806C14.6124 45.0578 16.527 39.3139 21.2498 36.8887C30.0571 32.4212 39.7579 31.9107 49.3311 35.4846C54.3091 37.2716 56.8619 42.7603 54.9473 47.7383C53.1603 52.7164 47.6717 55.2692 42.6937 53.3546C37.9709 51.6952 34.014 51.8229 29.9294 53.8651C28.5254 54.631 27.1213 55.0139 25.5896 55.0139Z" fill="#8C432A"/><path d="M95.4102 43.6538C93.4955 43.6538 91.5809 43.1432 89.9216 41.8668C86.2199 39.314 82.263 38.5481 77.285 39.5693C72.1793 40.718 67.0736 37.3993 65.9248 32.2936C64.776 27.188 68.0947 22.0823 73.2004 20.9335C83.1565 18.7636 92.7297 20.5506 100.771 26.2945C105.111 29.3579 106.132 35.3571 103.069 39.5693C101.282 42.2497 98.346 43.6538 95.4102 43.6538Z" fill="#8C432A"/></svg>