<svg viewBox="0 0 127 158" fill="none" xmlns="http://www.w3.org/2000/svg"><path fill-rule="evenodd" clip-rule="evenodd" d="M63.5 0C98.5212 0 127 28.4788 127 63.5V129.566C127 145.216 114.428 157.788 98.7778 157.788H28.2222C12.5717 157.788 0 145.216 0 129.566V63.5C0 28.4788 28.4788 0 63.5 0Z" fill="#DB8E73"/><path fill-rule="evenodd" clip-rule="evenodd" d="M87.104 46.1816C96.9818 46.1816 104.935 54.1352 104.935 64.013V77.8675C104.935 87.7453 96.9818 95.6988 87.104 95.6988C77.2263 95.6988 69.2727 87.7453 69.2727 77.8675V64.013C69.401 54.1352 77.3546 46.1816 87.104 46.1816Z" fill="white"/><path fill-rule="evenodd" clip-rule="evenodd" d="M39.6394 46.1816C29.7616 46.1816 21.8081 54.1352 21.8081 64.013V77.8675C21.8081 87.7453 29.7616 95.6988 39.6394 95.6988C49.5172 95.6988 57.4707 87.7453 57.4707 77.8675V64.013C57.4707 54.1352 49.5172 46.1816 39.6394 46.1816Z" fill="white"/><path fill-rule="evenodd" clip-rule="evenodd" d="M42.8465 58.7534C38.7414 58.7534 35.2778 62.0888 35.2778 66.3221V75.6868C35.2778 79.7918 38.6131 83.2554 42.8465 83.2554C46.9515 83.2554 50.4151 79.9201 50.4151 75.6868V66.3221C50.2869 62.0888 46.9515 58.7534 42.8465 58.7534Z" fill="#4C4B4C"/><path fill-rule="evenodd" clip-rule="evenodd" d="M83.2556 58.7534C79.1505 58.7534 75.6869 62.0888 75.6869 66.3221V75.6868C75.6869 79.7918 79.0222 83.2554 83.2556 83.2554C87.3606 83.2554 90.8242 79.9201 90.8242 75.6868V66.3221C90.696 62.0888 87.3606 58.7534 83.2556 58.7534Z" fill="#4C4B4C"/></svg>