<svg viewBox="0 0 123 151" fill="none" xmlns="http://www.w3.org/2000/svg"><path fill-rule="evenodd" clip-rule="evenodd" d="M61.3925 0.861328C95.3018 0.861328 122.769 28.329 122.769 62.2383V123.615C122.769 138.443 110.859 150.354 96.031 150.354H26.7541C11.9264 150.354 0.015625 138.443 0.015625 123.615V62.2383C0.015625 28.329 27.4833 0.861328 61.3925 0.861328Z" fill="#DB8E73"/><path fill-rule="evenodd" clip-rule="evenodd" d="M84.971 39.7536C94.3295 39.7536 101.865 47.289 101.865 56.6475V69.7736C101.865 79.1321 94.3295 86.6675 84.971 86.6675C75.6125 86.6675 68.0772 79.1321 68.0772 69.7736V56.6475C68.1987 47.289 75.7341 39.7536 84.971 39.7536Z" fill="white"/><path fill-rule="evenodd" clip-rule="evenodd" d="M40.0018 39.7536C30.6433 39.7536 23.1079 47.289 23.1079 56.6475V69.7736C23.1079 79.1321 30.6433 86.6675 40.0018 86.6675C49.3602 86.6675 56.8956 79.1321 56.8956 69.7736V56.6475C56.8956 47.289 49.3602 39.7536 40.0018 39.7536Z" fill="white"/><path fill-rule="evenodd" clip-rule="evenodd" d="M43.0402 51.6646C39.151 51.6646 35.8695 54.8246 35.8695 58.8353V67.7076C35.8695 71.5969 39.0295 74.8784 43.0402 74.8784C46.9295 74.8784 50.211 71.7184 50.211 67.7076V58.8353C50.0895 54.8246 46.9295 51.6646 43.0402 51.6646Z" fill="#4C4B4C"/><path fill-rule="evenodd" clip-rule="evenodd" d="M81.3249 51.6646C77.4356 51.6646 74.1541 54.8246 74.1541 58.8353V67.7076C74.1541 71.5969 77.3141 74.8784 81.3249 74.8784C85.3356 74.8784 88.4956 71.7184 88.4956 67.7076V58.8353C88.3741 54.8246 85.2141 51.6646 81.3249 51.6646Z" fill="#4C4B4C"/><path d="M67.1049 117.66C66.6188 117.66 66.2542 117.538 65.768 117.295C64.4311 116.566 63.8234 114.864 64.5526 113.527C73.3034 96.6335 82.7834 90.5566 92.628 95.5397C93.9649 96.2689 94.5726 97.8489 93.8434 99.3074C93.1142 100.644 91.5342 101.252 90.0757 100.523C83.3911 97.1197 76.5849 102.224 69.4142 116.08C69.0496 117.052 68.0773 117.66 67.1049 117.66Z" fill="#B4654A"/><path d="M104.539 37.3229H21.8925V67.7075H104.539V37.3229Z" fill="#DB8E73"/></svg>