<svg viewBox="0 0 123 151" fill="none" xmlns="http://www.w3.org/2000/svg"><path fill-rule="evenodd" clip-rule="evenodd" d="M61.3925 0.861328C95.3018 0.861328 122.769 28.329 122.769 62.2383V123.615C122.769 138.443 110.859 150.354 96.031 150.354H26.7541C11.9264 150.354 0.015625 138.443 0.015625 123.615V62.2383C0.015625 28.329 27.4833 0.861328 61.3925 0.861328Z" fill="#DB8E73"/><path fill-rule="evenodd" clip-rule="evenodd" d="M84.8496 39.7536C94.208 39.7536 101.743 47.289 101.743 56.6475V69.5306C101.743 78.889 94.208 86.4244 84.8496 86.4244C75.4911 86.4244 67.9557 78.889 67.9557 69.5306V56.6475C68.0772 47.289 75.6126 39.7536 84.8496 39.7536Z" fill="white"/><path fill-rule="evenodd" clip-rule="evenodd" d="M38.7864 39.7536C29.4279 39.7536 21.8925 47.289 21.8925 56.6475V69.5306C21.8925 78.889 29.4279 86.4244 38.7864 86.4244C48.1449 86.4244 55.6802 78.889 55.6802 69.5306V56.6475C55.5587 47.289 48.0233 39.7536 38.7864 39.7536Z" fill="white"/><path fill-rule="evenodd" clip-rule="evenodd" d="M41.7034 51.5427C37.8142 51.5427 34.5326 54.7027 34.5326 58.7135V67.3427C34.5326 71.2319 37.6926 74.5135 41.7034 74.5135C45.5926 74.5135 48.8742 71.3535 48.8742 67.3427V58.7135C48.8742 54.7027 45.7142 51.5427 41.7034 51.5427Z" fill="#4C4B4C"/><path fill-rule="evenodd" clip-rule="evenodd" d="M81.2034 51.5427C77.3142 51.5427 74.0326 54.7027 74.0326 58.7135V67.3427C74.0326 71.2319 77.1926 74.5135 81.2034 74.5135C85.0926 74.5135 88.3742 71.3535 88.3742 67.3427V58.7135C88.2526 54.7027 85.0926 51.5427 81.2034 51.5427Z" fill="#4C4B4C"/><path fill-rule="evenodd" clip-rule="evenodd" d="M42.311 14.2305L99.7987 22.4951C101.622 22.7382 102.837 24.4398 102.594 26.2628C102.594 26.5059 102.473 26.6274 102.473 26.749L62.0002 58.2275L22.5002 28.8151C24.0802 19.3351 32.831 12.8936 42.311 14.2305Z" fill="#DB8E73"/><path d="M62.0004 108.423C61.1496 108.423 60.4204 108.058 59.8127 107.451C56.1665 103.44 50.5758 101.86 42.9188 102.468C41.2173 102.589 39.7588 101.374 39.6373 99.6722C39.5158 97.9706 40.7312 96.5122 42.4327 96.3906C52.0342 95.5399 59.4481 97.8491 64.4312 103.318C65.525 104.534 65.525 106.478 64.1881 107.572C63.4588 108.18 62.7296 108.423 62.0004 108.423Z" fill="#B4654A"/></svg>