<svg viewBox="0 0 127 158" fill="none" xmlns="http://www.w3.org/2000/svg"><path fill-rule="evenodd" clip-rule="evenodd" d="M63.5 0C98.5212 0 127 28.4788 127 63.5V129.566C127 145.216 114.428 157.788 98.7778 157.788H28.2222C12.5717 157.788 0 145.216 0 129.566V63.5C0 28.4788 28.4788 0 63.5 0Z" fill="#DB8E73"/><path fill-rule="evenodd" clip-rule="evenodd" d="M87.2322 46.1816C97.11 46.1816 105.064 54.1352 105.064 64.013V78.1241C105.064 88.0018 97.11 95.9554 87.2322 95.9554C77.3544 95.9554 69.4009 88.0018 69.4009 78.1241V64.013C69.4009 54.1352 77.3544 46.1816 87.2322 46.1816Z" fill="white"/><path fill-rule="evenodd" clip-rule="evenodd" d="M39.6394 46.1816C29.7616 46.1816 21.8081 54.1352 21.8081 64.013V78.1241C21.8081 88.0018 29.7616 95.9554 39.6394 95.9554C49.5172 95.9554 57.4707 88.0018 57.4707 78.1241V64.013C57.4707 54.1352 49.5172 46.1816 39.6394 46.1816Z" fill="white"/><path fill-rule="evenodd" clip-rule="evenodd" d="M42.8465 58.8818C38.7414 58.8818 35.2778 62.2172 35.2778 66.4505V75.9434C35.2778 80.0485 38.6131 83.5121 42.8465 83.5121C47.0798 83.5121 50.4151 80.1768 50.4151 75.9434V66.4505C50.4151 62.2172 46.9515 58.8818 42.8465 58.8818Z" fill="#4C4B4C"/><path fill-rule="evenodd" clip-rule="evenodd" d="M83.2556 58.8818C79.1505 58.8818 75.6869 62.2172 75.6869 66.4505V75.9434C75.6869 80.0485 79.0222 83.5121 83.2556 83.5121C87.4889 83.5121 90.8242 80.1768 90.8242 75.9434V66.4505C90.8242 62.2172 87.4889 58.8818 83.2556 58.8818Z" fill="#4C4B4C"/><path d="M77.8675 113.402L70.8119 93.7747C83.6402 89.1565 96.8533 85.6929 110.066 83.3838L113.658 103.909C101.728 106.09 89.6695 109.297 77.8675 113.402Z" fill="#DB8E73"/><path d="M50.6717 104.166C38.8697 99.9323 26.8111 96.7252 14.7525 94.6727L18.3444 74.1475C31.5576 76.5848 44.899 80.0485 57.7273 84.6667L50.6717 104.166Z" fill="#DB8E73"/></svg>