<svg viewBox="0 0 127 158" fill="none" xmlns="http://www.w3.org/2000/svg"><path fill-rule="evenodd" clip-rule="evenodd" d="M63.5 0C98.5212 0 127 28.4788 127 63.5V129.566C127 145.216 114.428 157.788 98.7778 157.788H28.2222C12.5717 157.788 0 145.216 0 129.566V63.5C0 28.4788 28.4788 0 63.5 0Z" fill="#DB8E73"/><path fill-rule="evenodd" clip-rule="evenodd" d="M38.6131 41.0505H38.4848C28.4788 41.0505 20.5253 49.0041 20.5253 58.8818V71.8384C20.5253 81.8445 28.4788 89.798 38.3566 89.798H38.4848C48.4909 89.798 56.4444 81.8445 56.4444 71.9667V58.8818C56.4444 49.0041 48.4909 41.0505 38.6131 41.0505Z" fill="white"/><path fill-rule="evenodd" clip-rule="evenodd" d="M39.2545 44.8989H37.5869C30.2747 44.8989 24.3737 50.7999 24.3737 58.1121V72.608C24.3737 80.0484 30.2747 85.9494 37.7151 85.9494H39.3828C46.6949 85.9494 52.596 80.0484 52.596 72.7363V58.1121C52.596 50.7999 46.6949 44.8989 39.2545 44.8989Z" fill="#4C4B4C"/><path d="M28.8636 61.5757C32.7603 61.5757 35.9192 58.4168 35.9192 54.5202C35.9192 50.6235 32.7603 47.4646 28.8636 47.4646C24.967 47.4646 21.8081 50.6235 21.8081 54.5202C21.8081 58.4168 24.967 61.5757 28.8636 61.5757Z" fill="white"/><path d="M41.0503 81.0746C39.6392 81.0746 38.3564 80.0483 38.2281 78.6372C37.9715 77.0978 39.1261 75.5584 40.6655 75.4302C41.5635 75.3019 42.0766 74.917 42.4614 74.2756C43.2311 72.8645 45.0271 72.4797 46.4382 73.2494C47.8493 74.0191 48.2342 75.815 47.4645 77.2261C46.1816 79.4069 44.1291 80.818 41.5635 81.2029C41.3069 81.0746 41.1786 81.0746 41.0503 81.0746Z" fill="white"/><path fill-rule="evenodd" clip-rule="evenodd" d="M87.3606 41.0505H87.2323C77.2263 41.0505 69.2727 49.0041 69.2727 58.8818V71.8384C69.2727 81.8445 77.2263 89.798 87.104 89.798H87.2323C97.2384 89.798 105.192 81.8445 105.192 71.9667V58.8818C105.192 49.0041 97.2384 41.0505 87.3606 41.0505Z" fill="white"/><path fill-rule="evenodd" clip-rule="evenodd" d="M88.002 44.8989H86.3343C79.0222 44.8989 73.1212 50.7999 73.1212 58.1121V72.608C73.1212 80.0484 79.0222 85.9494 86.4626 85.9494H88.1303C95.4424 85.9494 101.343 80.0484 101.343 72.7363V58.1121C101.343 50.7999 95.4424 44.8989 88.002 44.8989Z" fill="#4C4B4C"/><path d="M89.7978 81.0746C88.3867 81.0746 87.1039 80.0483 86.9756 78.6372C86.719 77.0978 87.8736 75.5584 89.413 75.4302C90.3109 75.3019 90.8241 74.917 91.2089 74.2756C91.9786 72.8645 93.7746 72.4797 95.1857 73.2494C96.5968 74.0191 96.9816 75.815 96.2119 77.2261C94.9291 79.4069 92.8766 80.818 90.3109 81.2029C90.0544 81.0746 89.9261 81.0746 89.7978 81.0746Z" fill="white"/><path d="M78.8939 60.293C82.7906 60.293 85.9495 57.1341 85.9495 53.2374C85.9495 49.3408 82.7906 46.1819 78.8939 46.1819C74.9973 46.1819 71.8384 49.3408 71.8384 53.2374C71.8384 57.1341 74.9973 60.293 78.8939 60.293Z" fill="white"/></svg>