<svg viewBox="0 0 123 151" fill="none" xmlns="http://www.w3.org/2000/svg"><path fill-rule="evenodd" clip-rule="evenodd" d="M61.3925 0.861328C95.3018 0.861328 122.769 28.329 122.769 62.2383V123.615C122.769 138.443 110.859 150.354 96.031 150.354H26.7541C11.9264 150.354 0.015625 138.443 0.015625 123.615V62.2383C0.015625 28.329 27.4833 0.861328 61.3925 0.861328Z" fill="#DB8E73"/><path fill-rule="evenodd" clip-rule="evenodd" d="M83.6342 37.3229C92.9926 37.3229 100.528 44.8583 100.528 54.2167V67.0998C100.528 76.4583 92.9926 83.9936 83.6342 83.9936C74.2757 83.9936 66.7403 76.4583 66.7403 67.0998V54.2167C66.8619 44.8583 74.3973 37.3229 83.6342 37.3229Z" fill="white"/><path fill-rule="evenodd" clip-rule="evenodd" d="M80.3525 49.4767H80.1095C76.2202 49.4767 72.9387 52.6367 72.9387 56.6475V65.3983C72.9387 69.2875 76.0987 72.569 80.1095 72.569H80.3525C84.2418 72.569 87.5233 69.409 87.5233 65.3983V56.6475C87.5233 52.6367 84.3633 49.4767 80.3525 49.4767Z" fill="#4C4B4C"/><path fill-rule="evenodd" clip-rule="evenodd" d="M38.7864 37.3229C29.4279 37.3229 21.8925 44.8583 21.8925 54.2167V67.0998C21.8925 76.4583 29.4279 83.9936 38.7864 83.9936C48.1449 83.9936 55.6802 76.4583 55.6802 67.0998V54.2167C55.5587 44.8583 48.0233 37.3229 38.7864 37.3229Z" fill="white"/><path fill-rule="evenodd" clip-rule="evenodd" d="M41.4602 49.4767H41.2172C37.3279 49.4767 34.0464 52.6367 34.0464 56.6475V65.3983C34.0464 69.2875 37.2064 72.569 41.2172 72.569H41.4602C45.3495 72.569 48.631 69.409 48.631 65.3983V56.6475C48.631 52.6367 45.471 49.4767 41.4602 49.4767Z" fill="#4C4B4C"/><path fill-rule="evenodd" clip-rule="evenodd" d="M18.0035 47.4106C34.7758 45.466 46.6866 42.1845 53.7358 37.566C60.6635 32.9476 59.8127 29.4229 51.0619 26.8706L31.0081 33.5553L18.0035 47.4106Z" fill="#DB8E73"/><path d="M48.9958 99.7936C37.8143 95.7829 26.3896 92.7444 14.965 90.7998L18.3681 71.3536C30.8866 73.5413 43.405 76.8229 55.5589 81.1983L48.9958 99.7936Z" fill="#DB8E73"/><path d="M35.6264 92.5014L56.2879 108.301C59.9341 111.097 62.1218 115.351 62.1218 119.969C62.1218 123.98 58.8402 127.261 54.8295 127.261H23.9587C19.4618 127.261 15.8156 123.615 15.8156 119.118V102.346C15.8156 95.5399 21.2849 90.0706 28.091 90.0706C30.8864 90.0706 33.4387 90.9214 35.6264 92.5014Z" fill="#AD1F24"/><path fill-rule="evenodd" clip-rule="evenodd" d="M61.6356 116.931C61.8787 117.903 62.0002 118.997 62.0002 120.091C62.0002 124.101 58.7187 127.383 54.7079 127.383H23.9587C19.4618 127.383 15.8156 123.737 15.8156 119.24V117.417C16.4233 117.174 17.1526 117.052 17.8818 117.052H61.6356V116.931Z" fill="white"/></svg>