<svg viewBox="0 0 123 151" fill="none" xmlns="http://www.w3.org/2000/svg"><path fill-rule="evenodd" clip-rule="evenodd" d="M61.3925 0.861328C95.3018 0.861328 122.769 28.329 122.769 62.2383V123.615C122.769 138.443 110.859 150.354 96.031 150.354H26.7541C11.9264 150.354 0.015625 138.443 0.015625 123.615V62.2383C0.015625 28.329 27.4833 0.861328 61.3925 0.861328Z" fill="#DB8E73"/><path fill-rule="evenodd" clip-rule="evenodd" d="M83.7556 42.1844C93.1141 42.1844 100.649 49.7198 100.649 59.0782V72.2044C100.649 81.5628 93.1141 89.0982 83.7556 89.0982C74.3972 89.0982 66.8618 81.5628 66.8618 72.2044V59.0782C66.9833 49.7198 74.5187 42.1844 83.7556 42.1844Z" fill="white"/><path fill-rule="evenodd" clip-rule="evenodd" d="M38.7864 42.1844C29.4279 42.1844 21.8925 49.7198 21.8925 59.0782V72.2044C21.8925 81.5628 29.4279 89.0982 38.7864 89.0982C48.1449 89.0982 55.6802 81.5628 55.6802 72.2044V59.0782C55.6802 49.7198 48.1449 42.1844 38.7864 42.1844Z" fill="white"/><path fill-rule="evenodd" clip-rule="evenodd" d="M41.8249 54.0953C37.9356 54.0953 34.6541 57.2553 34.6541 61.2661V70.1384C34.6541 74.0276 37.8141 77.3092 41.8249 77.3092C45.7141 77.3092 48.9956 74.1492 48.9956 70.1384V61.2661C48.8741 57.2553 45.7141 54.0953 41.8249 54.0953Z" fill="#4C4B4C"/><path fill-rule="evenodd" clip-rule="evenodd" d="M80.1095 54.0953C76.2202 54.0953 72.9387 57.2553 72.9387 61.2661V70.1384C72.9387 74.0276 76.0987 77.3092 80.1095 77.3092C83.9987 77.3092 87.2802 74.1492 87.2802 70.1384V61.2661C87.1587 57.2553 83.9987 54.0953 80.1095 54.0953Z" fill="#4C4B4C"/><path d="M91.8989 146.586C89.5897 146.586 87.2804 146.1 85.0927 145.006C69.0497 137.349 61.5143 135.769 57.9897 135.769C54.9512 135.769 49.2389 136.984 38.9081 142.94C31.8589 146.951 22.9866 144.398 18.9758 137.471C17.3958 134.675 16.7881 131.394 17.2743 128.234L19.5835 111.704C20.6774 103.804 28.0912 98.2136 36.1127 99.3075C36.4774 99.3075 36.9635 99.429 37.3281 99.5505C46.0789 101.617 52.7635 102.103 57.382 101.009C60.4204 100.28 66.862 97.6059 79.9881 88.7336C87.1589 83.8721 97.0035 85.8167 101.865 92.9875C103.324 95.1752 104.174 97.6059 104.539 100.28L107.456 129.206C108.307 137.835 101.987 145.614 93.3574 146.464C92.8712 146.586 92.385 146.586 91.8989 146.586ZM57.9897 123.737C65.0389 123.737 75.6127 127.14 90.3189 134.067C90.9266 134.311 91.5343 134.432 92.2635 134.432C94.2081 134.189 95.6666 132.487 95.545 130.421L92.6281 101.495C92.6281 100.887 92.385 100.28 92.0204 99.7936C90.9266 98.0921 88.6173 97.7275 86.9158 98.8213C75.005 106.843 66.2543 111.461 60.1774 112.798C53.6143 114.257 45.3497 113.771 34.6543 111.34C34.6543 111.34 34.5327 111.34 34.4112 111.34C33.0743 111.097 31.8589 112.069 31.6158 113.406L29.3066 129.935C29.1851 130.421 29.3066 131.029 29.5497 131.515C30.1574 132.731 31.7374 133.095 32.8312 132.487C43.2835 126.532 51.4266 123.737 57.9897 123.737Z" fill="#DB8E73"/><path d="M91.8989 146.586C89.5897 146.586 87.2804 146.1 85.0927 145.006C69.0497 137.349 61.5143 135.769 57.9897 135.769C54.9512 135.769 49.2389 136.984 38.9081 142.94C31.8589 146.951 22.9866 144.398 18.9758 137.471C17.3958 134.675 16.7881 131.394 17.2743 128.234L19.5835 111.704C20.6774 103.804 28.0912 98.2136 36.1127 99.3075C36.4774 99.3075 36.9635 99.429 37.3281 99.5505C46.0789 101.617 52.7635 102.103 57.382 101.009C60.4204 100.28 66.862 97.6059 79.9881 88.7336C87.1589 83.8721 97.0035 85.8167 101.865 92.9875C103.324 95.1752 104.174 97.6059 104.539 100.28L107.456 129.206C108.307 137.835 101.987 145.614 93.3574 146.464C92.8712 146.586 92.385 146.586 91.8989 146.586ZM57.9897 123.737C65.0389 123.737 75.6127 127.14 90.3189 134.067C90.9266 134.311 91.5343 134.432 92.2635 134.432C94.2081 134.189 95.6666 132.487 95.545 130.421L92.6281 101.495C92.6281 100.887 92.385 100.28 92.0204 99.7936C90.9266 98.0921 88.6173 97.7275 86.9158 98.8213C75.005 106.843 66.2543 111.461 60.1774 112.798C53.6143 114.257 45.3497 113.771 34.6543 111.34C34.6543 111.34 34.5327 111.34 34.4112 111.34C33.0743 111.097 31.8589 112.069 31.6158 113.406L29.3066 129.935C29.1851 130.421 29.3066 131.029 29.5497 131.515C30.1574 132.731 31.7374 133.095 32.8312 132.487C43.2835 126.532 51.4266 123.737 57.9897 123.737Z" fill="#DB8E73"/><path fill-rule="evenodd" clip-rule="evenodd" d="M35.991 105.506C45.5926 107.693 53.2495 108.18 58.8403 106.964C64.0664 105.749 72.331 101.373 83.5126 93.8381C88.0095 90.7996 93.9649 92.015 97.0033 96.5119C97.8541 97.8488 98.4618 99.4289 98.5833 101.009L101.5 129.935C101.986 135.283 98.0972 140.023 92.7495 140.63C90.9264 140.752 89.2249 140.509 87.6449 139.78C73.911 133.217 64.0664 129.935 57.9895 129.935C52.5203 129.935 45.228 132.609 35.8695 137.835C31.7372 140.144 26.6326 138.686 24.3233 134.675C23.351 133.095 22.9864 131.15 23.351 129.206L25.6603 112.677C26.268 108.058 30.6433 104.777 35.2618 105.506C35.5049 105.384 35.748 105.506 35.991 105.506Z" fill="#AD3B3B"/><path fill-rule="evenodd" clip-rule="evenodd" d="M40.6096 22.4953L51.305 20.0646L57.2604 46.0738L20.5558 54.5815C17.1527 40.24 26.1466 25.8984 40.6096 22.4953Z" fill="#DB8E73"/><path fill-rule="evenodd" clip-rule="evenodd" d="M79.7449 16.4184L69.0496 13.9877L63.0942 39.9969L99.7988 48.5046C103.202 34.1631 94.208 19.8215 79.7449 16.4184Z" fill="#DB8E73"/><path fill-rule="evenodd" clip-rule="evenodd" d="M98.5833 101.009C98.4618 99.4291 97.8541 97.8491 97.0033 96.5121C93.9649 92.0152 88.0095 90.9214 83.5125 93.8383C72.331 101.374 64.0664 105.749 58.8402 106.964C53.2495 108.18 45.7141 107.694 35.991 105.506C35.7479 105.506 35.5049 105.384 35.2618 105.384C30.6433 104.777 26.2679 107.937 25.6602 112.555L25.5387 113.528C26.2679 113.771 27.1187 113.892 27.9695 113.892H93.6002C96.1525 113.892 98.3402 112.677 99.6772 110.732L98.5833 101.009Z" fill="white"/></svg>