<?xml version="1.0" encoding="UTF-8" standalone="yes" ?>
<!DOCTYPE xmeml>
<xmeml version="4">

  <project>
    <name>Scene - LJ visemes</name>
    <children>
      <sequence MZ.Sequence.EditingModeGUID="35d109db-457b-43c1-9452-9cb7be9f121c" explodedTracks="true" id="sequence-1">
        <uuid>80e38b59-e9f2-4682-96a3-2f7a84aa96e6</uuid>
        <duration>672</duration>
        <rate>
          <timebase>24</timebase>
          <ntsc>FALSE</ntsc>
        </rate>
        <name>Scene - LJ visemes</name>
        <media>
          <video>
            <track>
              <clipitem frameBlend="FALSE" id="clipitem-675">
                <name>Scene - LJ visemes.000.png</name>
                <masterclipid>masterclip-2</masterclipid>
                <rate>
                  <timebase>24</timebase>
                  <ntsc>FALSE</ntsc>
                </rate>
                <duration>1</duration>
                <enabled>TRUE</enabled>
                <alphatype>straight</alphatype>
                <rate>
                  <timebase>24</timebase>
                  <ntsc>FALSE</ntsc>
                </rate>
                <enabled>TRUE</enabled>
                <start>0</start>
                <end>1</end>
                <file id="file-2"/>
              </clipitem>
              <clipitem frameBlend="FALSE" id="clipitem-676">
                <name>Scene - LJ visemes.001.png</name>
                <masterclipid>masterclip-3</masterclipid>
                <rate>
                  <timebase>24</timebase>
                  <ntsc>FALSE</ntsc>
                </rate>
                <duration>1</duration>
                <enabled>TRUE</enabled>
                <alphatype>straight</alphatype>
                <rate>
                  <timebase>24</timebase>
                  <ntsc>FALSE</ntsc>
                </rate>
                <enabled>TRUE</enabled>
                <start>1</start>
                <end>2</end>
                <file id="file-3"/>
              </clipitem>
              <clipitem frameBlend="FALSE" id="clipitem-677">
                <name>Scene - LJ visemes.002.png</name>
                <masterclipid>masterclip-4</masterclipid>
                <rate>
                  <timebase>24</timebase>
                  <ntsc>FALSE</ntsc>
                </rate>
                <duration>1</duration>
                <enabled>TRUE</enabled>
                <alphatype>straight</alphatype>
                <rate>
                  <timebase>24</timebase>
                  <ntsc>FALSE</ntsc>
                </rate>
                <enabled>TRUE</enabled>
                <start>2</start>
                <end>3</end>
                <file id="file-4"/>
              </clipitem>
              <clipitem frameBlend="FALSE" id="clipitem-678">
                <name>Scene - LJ visemes.003.png</name>
                <masterclipid>masterclip-5</masterclipid>
                <rate>
                  <timebase>24</timebase>
                  <ntsc>FALSE</ntsc>
                </rate>
                <duration>1</duration>
                <enabled>TRUE</enabled>
                <alphatype>straight</alphatype>
                <rate>
                  <timebase>24</timebase>
                  <ntsc>FALSE</ntsc>
                </rate>
                <enabled>TRUE</enabled>
                <start>3</start>
                <end>4</end>
                <file id="file-5"/>
              </clipitem>
              <clipitem frameBlend="FALSE" id="clipitem-679">
                <name>Scene - LJ visemes.004.png</name>
                <masterclipid>masterclip-6</masterclipid>
                <rate>
                  <timebase>24</timebase>
                  <ntsc>FALSE</ntsc>
                </rate>
                <duration>1</duration>
                <enabled>TRUE</enabled>
                <alphatype>straight</alphatype>
                <rate>
                  <timebase>24</timebase>
                  <ntsc>FALSE</ntsc>
                </rate>
                <enabled>TRUE</enabled>
                <start>4</start>
                <end>5</end>
                <file id="file-6"/>
              </clipitem>
              <clipitem frameBlend="FALSE" id="clipitem-680">
                <name>Scene - LJ visemes.005.png</name>
                <masterclipid>masterclip-7</masterclipid>
                <rate>
                  <timebase>24</timebase>
                  <ntsc>FALSE</ntsc>
                </rate>
                <duration>1</duration>
                <enabled>TRUE</enabled>
                <alphatype>straight</alphatype>
                <rate>
                  <timebase>24</timebase>
                  <ntsc>FALSE</ntsc>
                </rate>
                <enabled>TRUE</enabled>
                <start>5</start>
                <end>6</end>
                <file id="file-7"/>
              </clipitem>
              <clipitem frameBlend="FALSE" id="clipitem-681">
                <name>Scene - LJ visemes.006.png</name>
                <masterclipid>masterclip-8</masterclipid>
                <rate>
                  <timebase>24</timebase>
                  <ntsc>FALSE</ntsc>
                </rate>
                <duration>1</duration>
                <enabled>TRUE</enabled>
                <alphatype>straight</alphatype>
                <rate>
                  <timebase>24</timebase>
                  <ntsc>FALSE</ntsc>
                </rate>
                <enabled>TRUE</enabled>
                <start>6</start>
                <end>7</end>
                <file id="file-8"/>
              </clipitem>
              <clipitem frameBlend="FALSE" id="clipitem-682">
                <name>Scene - LJ visemes.007.png</name>
                <masterclipid>masterclip-9</masterclipid>
                <rate>
                  <timebase>24</timebase>
                  <ntsc>FALSE</ntsc>
                </rate>
                <duration>1</duration>
                <enabled>TRUE</enabled>
                <alphatype>straight</alphatype>
                <rate>
                  <timebase>24</timebase>
                  <ntsc>FALSE</ntsc>
                </rate>
                <enabled>TRUE</enabled>
                <start>7</start>
                <end>8</end>
                <file id="file-9"/>
              </clipitem>
              <clipitem frameBlend="FALSE" id="clipitem-683">
                <name>Scene - LJ visemes.008.png</name>
                <masterclipid>masterclip-10</masterclipid>
                <rate>
                  <timebase>24</timebase>
                  <ntsc>FALSE</ntsc>
                </rate>
                <duration>1</duration>
                <enabled>TRUE</enabled>
                <alphatype>straight</alphatype>
                <rate>
                  <timebase>24</timebase>
                  <ntsc>FALSE</ntsc>
                </rate>
                <enabled>TRUE</enabled>
                <start>8</start>
                <end>9</end>
                <file id="file-10"/>
              </clipitem>
              <clipitem frameBlend="FALSE" id="clipitem-684">
                <name>Scene - LJ visemes.009.png</name>
                <masterclipid>masterclip-11</masterclipid>
                <rate>
                  <timebase>24</timebase>
                  <ntsc>FALSE</ntsc>
                </rate>
                <duration>1</duration>
                <enabled>TRUE</enabled>
                <alphatype>straight</alphatype>
                <rate>
                  <timebase>24</timebase>
                  <ntsc>FALSE</ntsc>
                </rate>
                <enabled>TRUE</enabled>
                <start>9</start>
                <end>10</end>
                <file id="file-11"/>
              </clipitem>
              <clipitem frameBlend="FALSE" id="clipitem-685">
                <name>Scene - LJ visemes.010.png</name>
                <masterclipid>masterclip-12</masterclipid>
                <rate>
                  <timebase>24</timebase>
                  <ntsc>FALSE</ntsc>
                </rate>
                <duration>1</duration>
                <enabled>TRUE</enabled>
                <alphatype>straight</alphatype>
                <rate>
                  <timebase>24</timebase>
                  <ntsc>FALSE</ntsc>
                </rate>
                <enabled>TRUE</enabled>
                <start>10</start>
                <end>11</end>
                <file id="file-12"/>
              </clipitem>
              <clipitem frameBlend="FALSE" id="clipitem-686">
                <name>Scene - LJ visemes.011.png</name>
                <masterclipid>masterclip-13</masterclipid>
                <rate>
                  <timebase>24</timebase>
                  <ntsc>FALSE</ntsc>
                </rate>
                <duration>1</duration>
                <enabled>TRUE</enabled>
                <alphatype>straight</alphatype>
                <rate>
                  <timebase>24</timebase>
                  <ntsc>FALSE</ntsc>
                </rate>
                <enabled>TRUE</enabled>
                <start>11</start>
                <end>12</end>
                <file id="file-13"/>
              </clipitem>
              <clipitem frameBlend="FALSE" id="clipitem-687">
                <name>Scene - LJ visemes.012.png</name>
                <masterclipid>masterclip-14</masterclipid>
                <rate>
                  <timebase>24</timebase>
                  <ntsc>FALSE</ntsc>
                </rate>
                <duration>1</duration>
                <enabled>TRUE</enabled>
                <alphatype>straight</alphatype>
                <rate>
                  <timebase>24</timebase>
                  <ntsc>FALSE</ntsc>
                </rate>
                <enabled>TRUE</enabled>
                <start>12</start>
                <end>13</end>
                <file id="file-14"/>
              </clipitem>
              <clipitem frameBlend="FALSE" id="clipitem-688">
                <name>Scene - LJ visemes.013.png</name>
                <masterclipid>masterclip-15</masterclipid>
                <rate>
                  <timebase>24</timebase>
                  <ntsc>FALSE</ntsc>
                </rate>
                <duration>1</duration>
                <enabled>TRUE</enabled>
                <alphatype>straight</alphatype>
                <rate>
                  <timebase>24</timebase>
                  <ntsc>FALSE</ntsc>
                </rate>
                <enabled>TRUE</enabled>
                <start>13</start>
                <end>14</end>
                <file id="file-15"/>
              </clipitem>
              <clipitem frameBlend="FALSE" id="clipitem-689">
                <name>Scene - LJ visemes.014.png</name>
                <masterclipid>masterclip-16</masterclipid>
                <rate>
                  <timebase>24</timebase>
                  <ntsc>FALSE</ntsc>
                </rate>
                <duration>1</duration>
                <enabled>TRUE</enabled>
                <alphatype>straight</alphatype>
                <rate>
                  <timebase>24</timebase>
                  <ntsc>FALSE</ntsc>
                </rate>
                <enabled>TRUE</enabled>
                <start>14</start>
                <end>15</end>
                <file id="file-16"/>
              </clipitem>
              <clipitem frameBlend="FALSE" id="clipitem-690">
                <name>Scene - LJ visemes.015.png</name>
                <masterclipid>masterclip-17</masterclipid>
                <rate>
                  <timebase>24</timebase>
                  <ntsc>FALSE</ntsc>
                </rate>
                <duration>1</duration>
                <enabled>TRUE</enabled>
                <alphatype>straight</alphatype>
                <rate>
                  <timebase>24</timebase>
                  <ntsc>FALSE</ntsc>
                </rate>
                <enabled>TRUE</enabled>
                <start>15</start>
                <end>16</end>
                <file id="file-17"/>
              </clipitem>
              <clipitem frameBlend="FALSE" id="clipitem-691">
                <name>Scene - LJ visemes.016.png</name>
                <masterclipid>masterclip-18</masterclipid>
                <rate>
                  <timebase>24</timebase>
                  <ntsc>FALSE</ntsc>
                </rate>
                <duration>1</duration>
                <enabled>TRUE</enabled>
                <alphatype>straight</alphatype>
                <rate>
                  <timebase>24</timebase>
                  <ntsc>FALSE</ntsc>
                </rate>
                <enabled>TRUE</enabled>
                <start>16</start>
                <end>17</end>
                <file id="file-18"/>
              </clipitem>
              <clipitem frameBlend="FALSE" id="clipitem-692">
                <name>Scene - LJ visemes.017.png</name>
                <masterclipid>masterclip-19</masterclipid>
                <rate>
                  <timebase>24</timebase>
                  <ntsc>FALSE</ntsc>
                </rate>
                <duration>1</duration>
                <enabled>TRUE</enabled>
                <alphatype>straight</alphatype>
                <rate>
                  <timebase>24</timebase>
                  <ntsc>FALSE</ntsc>
                </rate>
                <enabled>TRUE</enabled>
                <start>17</start>
                <end>18</end>
                <file id="file-19"/>
              </clipitem>
              <clipitem frameBlend="FALSE" id="clipitem-693">
                <name>Scene - LJ visemes.018.png</name>
                <masterclipid>masterclip-20</masterclipid>
                <rate>
                  <timebase>24</timebase>
                  <ntsc>FALSE</ntsc>
                </rate>
                <duration>1</duration>
                <enabled>TRUE</enabled>
                <alphatype>straight</alphatype>
                <rate>
                  <timebase>24</timebase>
                  <ntsc>FALSE</ntsc>
                </rate>
                <enabled>TRUE</enabled>
                <start>18</start>
                <end>19</end>
                <file id="file-20"/>
              </clipitem>
              <clipitem frameBlend="FALSE" id="clipitem-694">
                <name>Scene - LJ visemes.019.png</name>
                <masterclipid>masterclip-21</masterclipid>
                <rate>
                  <timebase>24</timebase>
                  <ntsc>FALSE</ntsc>
                </rate>
                <duration>1</duration>
                <enabled>TRUE</enabled>
                <alphatype>straight</alphatype>
                <rate>
                  <timebase>24</timebase>
                  <ntsc>FALSE</ntsc>
                </rate>
                <enabled>TRUE</enabled>
                <start>19</start>
                <end>20</end>
                <file id="file-21"/>
              </clipitem>
              <clipitem frameBlend="FALSE" id="clipitem-695">
                <name>Scene - LJ visemes.020.png</name>
                <masterclipid>masterclip-22</masterclipid>
                <rate>
                  <timebase>24</timebase>
                  <ntsc>FALSE</ntsc>
                </rate>
                <duration>1</duration>
                <enabled>TRUE</enabled>
                <alphatype>straight</alphatype>
                <rate>
                  <timebase>24</timebase>
                  <ntsc>FALSE</ntsc>
                </rate>
                <enabled>TRUE</enabled>
                <start>20</start>
                <end>21</end>
                <file id="file-22"/>
              </clipitem>
              <clipitem frameBlend="FALSE" id="clipitem-696">
                <name>Scene - LJ visemes.021.png</name>
                <masterclipid>masterclip-23</masterclipid>
                <rate>
                  <timebase>24</timebase>
                  <ntsc>FALSE</ntsc>
                </rate>
                <duration>1</duration>
                <enabled>TRUE</enabled>
                <alphatype>straight</alphatype>
                <rate>
                  <timebase>24</timebase>
                  <ntsc>FALSE</ntsc>
                </rate>
                <enabled>TRUE</enabled>
                <start>21</start>
                <end>22</end>
                <file id="file-23"/>
              </clipitem>
              <clipitem frameBlend="FALSE" id="clipitem-697">
                <name>Scene - LJ visemes.022.png</name>
                <masterclipid>masterclip-24</masterclipid>
                <rate>
                  <timebase>24</timebase>
                  <ntsc>FALSE</ntsc>
                </rate>
                <duration>1</duration>
                <enabled>TRUE</enabled>
                <alphatype>straight</alphatype>
                <rate>
                  <timebase>24</timebase>
                  <ntsc>FALSE</ntsc>
                </rate>
                <enabled>TRUE</enabled>
                <start>22</start>
                <end>23</end>
                <file id="file-24"/>
              </clipitem>
              <clipitem frameBlend="FALSE" id="clipitem-698">
                <name>Scene - LJ visemes.023.png</name>
                <masterclipid>masterclip-25</masterclipid>
                <rate>
                  <timebase>24</timebase>
                  <ntsc>FALSE</ntsc>
                </rate>
                <duration>1</duration>
                <enabled>TRUE</enabled>
                <alphatype>straight</alphatype>
                <rate>
                  <timebase>24</timebase>
                  <ntsc>FALSE</ntsc>
                </rate>
                <enabled>TRUE</enabled>
                <start>23</start>
                <end>24</end>
                <file id="file-25"/>
              </clipitem>
              <clipitem frameBlend="FALSE" id="clipitem-699">
                <name>Scene - LJ visemes.024.png</name>
                <masterclipid>masterclip-26</masterclipid>
                <rate>
                  <timebase>24</timebase>
                  <ntsc>FALSE</ntsc>
                </rate>
                <duration>1</duration>
                <enabled>TRUE</enabled>
                <alphatype>straight</alphatype>
                <rate>
                  <timebase>24</timebase>
                  <ntsc>FALSE</ntsc>
                </rate>
                <enabled>TRUE</enabled>
                <start>24</start>
                <end>25</end>
                <file id="file-26"/>
              </clipitem>
              <clipitem frameBlend="FALSE" id="clipitem-700">
                <name>Scene - LJ visemes.025.png</name>
                <masterclipid>masterclip-27</masterclipid>
                <rate>
                  <timebase>24</timebase>
                  <ntsc>FALSE</ntsc>
                </rate>
                <duration>1</duration>
                <enabled>TRUE</enabled>
                <alphatype>straight</alphatype>
                <rate>
                  <timebase>24</timebase>
                  <ntsc>FALSE</ntsc>
                </rate>
                <enabled>TRUE</enabled>
                <start>25</start>
                <end>26</end>
                <file id="file-27"/>
              </clipitem>
              <clipitem frameBlend="FALSE" id="clipitem-701">
                <name>Scene - LJ visemes.026.png</name>
                <masterclipid>masterclip-28</masterclipid>
                <rate>
                  <timebase>24</timebase>
                  <ntsc>FALSE</ntsc>
                </rate>
                <duration>1</duration>
                <enabled>TRUE</enabled>
                <alphatype>straight</alphatype>
                <rate>
                  <timebase>24</timebase>
                  <ntsc>FALSE</ntsc>
                </rate>
                <enabled>TRUE</enabled>
                <start>26</start>
                <end>27</end>
                <file id="file-28"/>
              </clipitem>
              <clipitem frameBlend="FALSE" id="clipitem-702">
                <name>Scene - LJ visemes.027.png</name>
                <masterclipid>masterclip-29</masterclipid>
                <rate>
                  <timebase>24</timebase>
                  <ntsc>FALSE</ntsc>
                </rate>
                <duration>1</duration>
                <enabled>TRUE</enabled>
                <alphatype>straight</alphatype>
                <rate>
                  <timebase>24</timebase>
                  <ntsc>FALSE</ntsc>
                </rate>
                <enabled>TRUE</enabled>
                <start>27</start>
                <end>28</end>
                <file id="file-29"/>
              </clipitem>
              <clipitem frameBlend="FALSE" id="clipitem-703">
                <name>Scene - LJ visemes.028.png</name>
                <masterclipid>masterclip-30</masterclipid>
                <rate>
                  <timebase>24</timebase>
                  <ntsc>FALSE</ntsc>
                </rate>
                <duration>1</duration>
                <enabled>TRUE</enabled>
                <alphatype>straight</alphatype>
                <rate>
                  <timebase>24</timebase>
                  <ntsc>FALSE</ntsc>
                </rate>
                <enabled>TRUE</enabled>
                <start>28</start>
                <end>29</end>
                <file id="file-30"/>
              </clipitem>
              <clipitem frameBlend="FALSE" id="clipitem-704">
                <name>Scene - LJ visemes.029.png</name>
                <masterclipid>masterclip-31</masterclipid>
                <rate>
                  <timebase>24</timebase>
                  <ntsc>FALSE</ntsc>
                </rate>
                <duration>1</duration>
                <enabled>TRUE</enabled>
                <alphatype>straight</alphatype>
                <rate>
                  <timebase>24</timebase>
                  <ntsc>FALSE</ntsc>
                </rate>
                <enabled>TRUE</enabled>
                <start>29</start>
                <end>30</end>
                <file id="file-31"/>
              </clipitem>
              <clipitem frameBlend="FALSE" id="clipitem-705">
                <name>Scene - LJ visemes.030.png</name>
                <masterclipid>masterclip-32</masterclipid>
                <rate>
                  <timebase>24</timebase>
                  <ntsc>FALSE</ntsc>
                </rate>
                <duration>1</duration>
                <enabled>TRUE</enabled>
                <alphatype>straight</alphatype>
                <rate>
                  <timebase>24</timebase>
                  <ntsc>FALSE</ntsc>
                </rate>
                <enabled>TRUE</enabled>
                <start>30</start>
                <end>31</end>
                <file id="file-32"/>
              </clipitem>
              <clipitem frameBlend="FALSE" id="clipitem-706">
                <name>Scene - LJ visemes.031.png</name>
                <masterclipid>masterclip-33</masterclipid>
                <rate>
                  <timebase>24</timebase>
                  <ntsc>FALSE</ntsc>
                </rate>
                <duration>1</duration>
                <enabled>TRUE</enabled>
                <alphatype>straight</alphatype>
                <rate>
                  <timebase>24</timebase>
                  <ntsc>FALSE</ntsc>
                </rate>
                <enabled>TRUE</enabled>
                <start>31</start>
                <end>32</end>
                <file id="file-33"/>
              </clipitem>
              <clipitem frameBlend="FALSE" id="clipitem-707">
                <name>Scene - LJ visemes.032.png</name>
                <masterclipid>masterclip-34</masterclipid>
                <rate>
                  <timebase>24</timebase>
                  <ntsc>FALSE</ntsc>
                </rate>
                <duration>1</duration>
                <enabled>TRUE</enabled>
                <alphatype>straight</alphatype>
                <rate>
                  <timebase>24</timebase>
                  <ntsc>FALSE</ntsc>
                </rate>
                <enabled>TRUE</enabled>
                <start>32</start>
                <end>33</end>
                <file id="file-34"/>
              </clipitem>
              <clipitem frameBlend="FALSE" id="clipitem-708">
                <name>Scene - LJ visemes.033.png</name>
                <masterclipid>masterclip-35</masterclipid>
                <rate>
                  <timebase>24</timebase>
                  <ntsc>FALSE</ntsc>
                </rate>
                <duration>1</duration>
                <enabled>TRUE</enabled>
                <alphatype>straight</alphatype>
                <rate>
                  <timebase>24</timebase>
                  <ntsc>FALSE</ntsc>
                </rate>
                <enabled>TRUE</enabled>
                <start>33</start>
                <end>34</end>
                <file id="file-35"/>
              </clipitem>
              <clipitem frameBlend="FALSE" id="clipitem-709">
                <name>Scene - LJ visemes.034.png</name>
                <masterclipid>masterclip-36</masterclipid>
                <rate>
                  <timebase>24</timebase>
                  <ntsc>FALSE</ntsc>
                </rate>
                <duration>1</duration>
                <enabled>TRUE</enabled>
                <alphatype>straight</alphatype>
                <rate>
                  <timebase>24</timebase>
                  <ntsc>FALSE</ntsc>
                </rate>
                <enabled>TRUE</enabled>
                <start>34</start>
                <end>35</end>
                <file id="file-36"/>
              </clipitem>
              <clipitem frameBlend="FALSE" id="clipitem-710">
                <name>Scene - LJ visemes.035.png</name>
                <masterclipid>masterclip-37</masterclipid>
                <rate>
                  <timebase>24</timebase>
                  <ntsc>FALSE</ntsc>
                </rate>
                <duration>1</duration>
                <enabled>TRUE</enabled>
                <alphatype>straight</alphatype>
                <rate>
                  <timebase>24</timebase>
                  <ntsc>FALSE</ntsc>
                </rate>
                <enabled>TRUE</enabled>
                <start>35</start>
                <end>36</end>
                <file id="file-37"/>
              </clipitem>
              <clipitem frameBlend="FALSE" id="clipitem-711">
                <name>Scene - LJ visemes.036.png</name>
                <masterclipid>masterclip-38</masterclipid>
                <rate>
                  <timebase>24</timebase>
                  <ntsc>FALSE</ntsc>
                </rate>
                <duration>1</duration>
                <enabled>TRUE</enabled>
                <alphatype>straight</alphatype>
                <rate>
                  <timebase>24</timebase>
                  <ntsc>FALSE</ntsc>
                </rate>
                <enabled>TRUE</enabled>
                <start>36</start>
                <end>37</end>
                <file id="file-38"/>
              </clipitem>
              <clipitem frameBlend="FALSE" id="clipitem-712">
                <name>Scene - LJ visemes.037.png</name>
                <masterclipid>masterclip-39</masterclipid>
                <rate>
                  <timebase>24</timebase>
                  <ntsc>FALSE</ntsc>
                </rate>
                <duration>1</duration>
                <enabled>TRUE</enabled>
                <alphatype>straight</alphatype>
                <rate>
                  <timebase>24</timebase>
                  <ntsc>FALSE</ntsc>
                </rate>
                <enabled>TRUE</enabled>
                <start>37</start>
                <end>38</end>
                <file id="file-39"/>
              </clipitem>
              <clipitem frameBlend="FALSE" id="clipitem-713">
                <name>Scene - LJ visemes.038.png</name>
                <masterclipid>masterclip-40</masterclipid>
                <rate>
                  <timebase>24</timebase>
                  <ntsc>FALSE</ntsc>
                </rate>
                <duration>1</duration>
                <enabled>TRUE</enabled>
                <alphatype>straight</alphatype>
                <rate>
                  <timebase>24</timebase>
                  <ntsc>FALSE</ntsc>
                </rate>
                <enabled>TRUE</enabled>
                <start>38</start>
                <end>39</end>
                <file id="file-40"/>
              </clipitem>
              <clipitem frameBlend="FALSE" id="clipitem-714">
                <name>Scene - LJ visemes.039.png</name>
                <masterclipid>masterclip-41</masterclipid>
                <rate>
                  <timebase>24</timebase>
                  <ntsc>FALSE</ntsc>
                </rate>
                <duration>1</duration>
                <enabled>TRUE</enabled>
                <alphatype>straight</alphatype>
                <rate>
                  <timebase>24</timebase>
                  <ntsc>FALSE</ntsc>
                </rate>
                <enabled>TRUE</enabled>
                <start>39</start>
                <end>40</end>
                <file id="file-41"/>
              </clipitem>
              <clipitem frameBlend="FALSE" id="clipitem-715">
                <name>Scene - LJ visemes.040.png</name>
                <masterclipid>masterclip-42</masterclipid>
                <rate>
                  <timebase>24</timebase>
                  <ntsc>FALSE</ntsc>
                </rate>
                <duration>1</duration>
                <enabled>TRUE</enabled>
                <alphatype>straight</alphatype>
                <rate>
                  <timebase>24</timebase>
                  <ntsc>FALSE</ntsc>
                </rate>
                <enabled>TRUE</enabled>
                <start>40</start>
                <end>41</end>
                <file id="file-42"/>
              </clipitem>
              <clipitem frameBlend="FALSE" id="clipitem-716">
                <name>Scene - LJ visemes.041.png</name>
                <masterclipid>masterclip-43</masterclipid>
                <rate>
                  <timebase>24</timebase>
                  <ntsc>FALSE</ntsc>
                </rate>
                <duration>1</duration>
                <enabled>TRUE</enabled>
                <alphatype>straight</alphatype>
                <rate>
                  <timebase>24</timebase>
                  <ntsc>FALSE</ntsc>
                </rate>
                <enabled>TRUE</enabled>
                <start>41</start>
                <end>42</end>
                <file id="file-43"/>
              </clipitem>
              <clipitem frameBlend="FALSE" id="clipitem-717">
                <name>Scene - LJ visemes.042.png</name>
                <masterclipid>masterclip-44</masterclipid>
                <rate>
                  <timebase>24</timebase>
                  <ntsc>FALSE</ntsc>
                </rate>
                <duration>1</duration>
                <enabled>TRUE</enabled>
                <alphatype>straight</alphatype>
                <rate>
                  <timebase>24</timebase>
                  <ntsc>FALSE</ntsc>
                </rate>
                <enabled>TRUE</enabled>
                <start>42</start>
                <end>43</end>
                <file id="file-44"/>
              </clipitem>
              <clipitem frameBlend="FALSE" id="clipitem-718">
                <name>Scene - LJ visemes.043.png</name>
                <masterclipid>masterclip-45</masterclipid>
                <rate>
                  <timebase>24</timebase>
                  <ntsc>FALSE</ntsc>
                </rate>
                <duration>1</duration>
                <enabled>TRUE</enabled>
                <alphatype>straight</alphatype>
                <rate>
                  <timebase>24</timebase>
                  <ntsc>FALSE</ntsc>
                </rate>
                <enabled>TRUE</enabled>
                <start>43</start>
                <end>44</end>
                <file id="file-45"/>
              </clipitem>
              <clipitem frameBlend="FALSE" id="clipitem-719">
                <name>Scene - LJ visemes.044.png</name>
                <masterclipid>masterclip-46</masterclipid>
                <rate>
                  <timebase>24</timebase>
                  <ntsc>FALSE</ntsc>
                </rate>
                <duration>1</duration>
                <enabled>TRUE</enabled>
                <alphatype>straight</alphatype>
                <rate>
                  <timebase>24</timebase>
                  <ntsc>FALSE</ntsc>
                </rate>
                <enabled>TRUE</enabled>
                <start>44</start>
                <end>45</end>
                <file id="file-46"/>
              </clipitem>
              <clipitem frameBlend="FALSE" id="clipitem-720">
                <name>Scene - LJ visemes.045.png</name>
                <masterclipid>masterclip-47</masterclipid>
                <rate>
                  <timebase>24</timebase>
                  <ntsc>FALSE</ntsc>
                </rate>
                <duration>1</duration>
                <enabled>TRUE</enabled>
                <alphatype>straight</alphatype>
                <rate>
                  <timebase>24</timebase>
                  <ntsc>FALSE</ntsc>
                </rate>
                <enabled>TRUE</enabled>
                <start>45</start>
                <end>46</end>
                <file id="file-47"/>
              </clipitem>
              <clipitem frameBlend="FALSE" id="clipitem-721">
                <name>Scene - LJ visemes.046.png</name>
                <masterclipid>masterclip-48</masterclipid>
                <rate>
                  <timebase>24</timebase>
                  <ntsc>FALSE</ntsc>
                </rate>
                <duration>1</duration>
                <enabled>TRUE</enabled>
                <alphatype>straight</alphatype>
                <rate>
                  <timebase>24</timebase>
                  <ntsc>FALSE</ntsc>
                </rate>
                <enabled>TRUE</enabled>
                <start>46</start>
                <end>47</end>
                <file id="file-48"/>
              </clipitem>
              <clipitem frameBlend="FALSE" id="clipitem-722">
                <name>Scene - LJ visemes.047.png</name>
                <masterclipid>masterclip-49</masterclipid>
                <rate>
                  <timebase>24</timebase>
                  <ntsc>FALSE</ntsc>
                </rate>
                <duration>1</duration>
                <enabled>TRUE</enabled>
                <alphatype>straight</alphatype>
                <rate>
                  <timebase>24</timebase>
                  <ntsc>FALSE</ntsc>
                </rate>
                <enabled>TRUE</enabled>
                <start>47</start>
                <end>48</end>
                <file id="file-49"/>
              </clipitem>
              <clipitem frameBlend="FALSE" id="clipitem-723">
                <name>Scene - LJ visemes.048.png</name>
                <masterclipid>masterclip-50</masterclipid>
                <rate>
                  <timebase>24</timebase>
                  <ntsc>FALSE</ntsc>
                </rate>
                <duration>1</duration>
                <enabled>TRUE</enabled>
                <alphatype>straight</alphatype>
                <rate>
                  <timebase>24</timebase>
                  <ntsc>FALSE</ntsc>
                </rate>
                <enabled>TRUE</enabled>
                <start>48</start>
                <end>49</end>
                <file id="file-50"/>
              </clipitem>
              <clipitem frameBlend="FALSE" id="clipitem-724">
                <name>Scene - LJ visemes.049.png</name>
                <masterclipid>masterclip-51</masterclipid>
                <rate>
                  <timebase>24</timebase>
                  <ntsc>FALSE</ntsc>
                </rate>
                <duration>1</duration>
                <enabled>TRUE</enabled>
                <alphatype>straight</alphatype>
                <rate>
                  <timebase>24</timebase>
                  <ntsc>FALSE</ntsc>
                </rate>
                <enabled>TRUE</enabled>
                <start>49</start>
                <end>50</end>
                <file id="file-51"/>
              </clipitem>
              <clipitem frameBlend="FALSE" id="clipitem-725">
                <name>Scene - LJ visemes.050.png</name>
                <masterclipid>masterclip-52</masterclipid>
                <rate>
                  <timebase>24</timebase>
                  <ntsc>FALSE</ntsc>
                </rate>
                <duration>1</duration>
                <enabled>TRUE</enabled>
                <alphatype>straight</alphatype>
                <rate>
                  <timebase>24</timebase>
                  <ntsc>FALSE</ntsc>
                </rate>
                <enabled>TRUE</enabled>
                <start>50</start>
                <end>51</end>
                <file id="file-52"/>
              </clipitem>
              <clipitem frameBlend="FALSE" id="clipitem-726">
                <name>Scene - LJ visemes.051.png</name>
                <masterclipid>masterclip-53</masterclipid>
                <rate>
                  <timebase>24</timebase>
                  <ntsc>FALSE</ntsc>
                </rate>
                <duration>1</duration>
                <enabled>TRUE</enabled>
                <alphatype>straight</alphatype>
                <rate>
                  <timebase>24</timebase>
                  <ntsc>FALSE</ntsc>
                </rate>
                <enabled>TRUE</enabled>
                <start>51</start>
                <end>52</end>
                <file id="file-53"/>
              </clipitem>
              <clipitem frameBlend="FALSE" id="clipitem-727">
                <name>Scene - LJ visemes.052.png</name>
                <masterclipid>masterclip-54</masterclipid>
                <rate>
                  <timebase>24</timebase>
                  <ntsc>FALSE</ntsc>
                </rate>
                <duration>1</duration>
                <enabled>TRUE</enabled>
                <alphatype>straight</alphatype>
                <rate>
                  <timebase>24</timebase>
                  <ntsc>FALSE</ntsc>
                </rate>
                <enabled>TRUE</enabled>
                <start>52</start>
                <end>53</end>
                <file id="file-54"/>
              </clipitem>
              <clipitem frameBlend="FALSE" id="clipitem-728">
                <name>Scene - LJ visemes.053.png</name>
                <masterclipid>masterclip-55</masterclipid>
                <rate>
                  <timebase>24</timebase>
                  <ntsc>FALSE</ntsc>
                </rate>
                <duration>1</duration>
                <enabled>TRUE</enabled>
                <alphatype>straight</alphatype>
                <rate>
                  <timebase>24</timebase>
                  <ntsc>FALSE</ntsc>
                </rate>
                <enabled>TRUE</enabled>
                <start>53</start>
                <end>54</end>
                <file id="file-55"/>
              </clipitem>
              <clipitem frameBlend="FALSE" id="clipitem-729">
                <name>Scene - LJ visemes.054.png</name>
                <masterclipid>masterclip-56</masterclipid>
                <rate>
                  <timebase>24</timebase>
                  <ntsc>FALSE</ntsc>
                </rate>
                <duration>1</duration>
                <enabled>TRUE</enabled>
                <alphatype>straight</alphatype>
                <rate>
                  <timebase>24</timebase>
                  <ntsc>FALSE</ntsc>
                </rate>
                <enabled>TRUE</enabled>
                <start>54</start>
                <end>55</end>
                <file id="file-56"/>
              </clipitem>
              <clipitem frameBlend="FALSE" id="clipitem-730">
                <name>Scene - LJ visemes.055.png</name>
                <masterclipid>masterclip-57</masterclipid>
                <rate>
                  <timebase>24</timebase>
                  <ntsc>FALSE</ntsc>
                </rate>
                <duration>1</duration>
                <enabled>TRUE</enabled>
                <alphatype>straight</alphatype>
                <rate>
                  <timebase>24</timebase>
                  <ntsc>FALSE</ntsc>
                </rate>
                <enabled>TRUE</enabled>
                <start>55</start>
                <end>56</end>
                <file id="file-57"/>
              </clipitem>
              <clipitem frameBlend="FALSE" id="clipitem-731">
                <name>Scene - LJ visemes.056.png</name>
                <masterclipid>masterclip-58</masterclipid>
                <rate>
                  <timebase>24</timebase>
                  <ntsc>FALSE</ntsc>
                </rate>
                <duration>1</duration>
                <enabled>TRUE</enabled>
                <alphatype>straight</alphatype>
                <rate>
                  <timebase>24</timebase>
                  <ntsc>FALSE</ntsc>
                </rate>
                <enabled>TRUE</enabled>
                <start>56</start>
                <end>57</end>
                <file id="file-58"/>
              </clipitem>
              <clipitem frameBlend="FALSE" id="clipitem-732">
                <name>Scene - LJ visemes.057.png</name>
                <masterclipid>masterclip-59</masterclipid>
                <rate>
                  <timebase>24</timebase>
                  <ntsc>FALSE</ntsc>
                </rate>
                <duration>1</duration>
                <enabled>TRUE</enabled>
                <alphatype>straight</alphatype>
                <rate>
                  <timebase>24</timebase>
                  <ntsc>FALSE</ntsc>
                </rate>
                <enabled>TRUE</enabled>
                <start>57</start>
                <end>58</end>
                <file id="file-59"/>
              </clipitem>
              <clipitem frameBlend="FALSE" id="clipitem-733">
                <name>Scene - LJ visemes.058.png</name>
                <masterclipid>masterclip-60</masterclipid>
                <rate>
                  <timebase>24</timebase>
                  <ntsc>FALSE</ntsc>
                </rate>
                <duration>1</duration>
                <enabled>TRUE</enabled>
                <alphatype>straight</alphatype>
                <rate>
                  <timebase>24</timebase>
                  <ntsc>FALSE</ntsc>
                </rate>
                <enabled>TRUE</enabled>
                <start>58</start>
                <end>59</end>
                <file id="file-60"/>
              </clipitem>
              <clipitem frameBlend="FALSE" id="clipitem-734">
                <name>Scene - LJ visemes.059.png</name>
                <masterclipid>masterclip-61</masterclipid>
                <rate>
                  <timebase>24</timebase>
                  <ntsc>FALSE</ntsc>
                </rate>
                <duration>1</duration>
                <enabled>TRUE</enabled>
                <alphatype>straight</alphatype>
                <rate>
                  <timebase>24</timebase>
                  <ntsc>FALSE</ntsc>
                </rate>
                <enabled>TRUE</enabled>
                <start>59</start>
                <end>60</end>
                <file id="file-61"/>
              </clipitem>
              <clipitem frameBlend="FALSE" id="clipitem-735">
                <name>Scene - LJ visemes.060.png</name>
                <masterclipid>masterclip-62</masterclipid>
                <rate>
                  <timebase>24</timebase>
                  <ntsc>FALSE</ntsc>
                </rate>
                <duration>1</duration>
                <enabled>TRUE</enabled>
                <alphatype>straight</alphatype>
                <rate>
                  <timebase>24</timebase>
                  <ntsc>FALSE</ntsc>
                </rate>
                <enabled>TRUE</enabled>
                <start>60</start>
                <end>61</end>
                <file id="file-62"/>
              </clipitem>
              <clipitem frameBlend="FALSE" id="clipitem-736">
                <name>Scene - LJ visemes.061.png</name>
                <masterclipid>masterclip-63</masterclipid>
                <rate>
                  <timebase>24</timebase>
                  <ntsc>FALSE</ntsc>
                </rate>
                <duration>1</duration>
                <enabled>TRUE</enabled>
                <alphatype>straight</alphatype>
                <rate>
                  <timebase>24</timebase>
                  <ntsc>FALSE</ntsc>
                </rate>
                <enabled>TRUE</enabled>
                <start>61</start>
                <end>62</end>
                <file id="file-63"/>
              </clipitem>
              <clipitem frameBlend="FALSE" id="clipitem-737">
                <name>Scene - LJ visemes.062.png</name>
                <masterclipid>masterclip-64</masterclipid>
                <rate>
                  <timebase>24</timebase>
                  <ntsc>FALSE</ntsc>
                </rate>
                <duration>1</duration>
                <enabled>TRUE</enabled>
                <alphatype>straight</alphatype>
                <rate>
                  <timebase>24</timebase>
                  <ntsc>FALSE</ntsc>
                </rate>
                <enabled>TRUE</enabled>
                <start>62</start>
                <end>63</end>
                <file id="file-64"/>
              </clipitem>
              <clipitem frameBlend="FALSE" id="clipitem-738">
                <name>Scene - LJ visemes.063.png</name>
                <masterclipid>masterclip-65</masterclipid>
                <rate>
                  <timebase>24</timebase>
                  <ntsc>FALSE</ntsc>
                </rate>
                <duration>1</duration>
                <enabled>TRUE</enabled>
                <alphatype>straight</alphatype>
                <rate>
                  <timebase>24</timebase>
                  <ntsc>FALSE</ntsc>
                </rate>
                <enabled>TRUE</enabled>
                <start>63</start>
                <end>64</end>
                <file id="file-65"/>
              </clipitem>
              <clipitem frameBlend="FALSE" id="clipitem-739">
                <name>Scene - LJ visemes.064.png</name>
                <masterclipid>masterclip-66</masterclipid>
                <rate>
                  <timebase>24</timebase>
                  <ntsc>FALSE</ntsc>
                </rate>
                <duration>1</duration>
                <enabled>TRUE</enabled>
                <alphatype>straight</alphatype>
                <rate>
                  <timebase>24</timebase>
                  <ntsc>FALSE</ntsc>
                </rate>
                <enabled>TRUE</enabled>
                <start>64</start>
                <end>65</end>
                <file id="file-66"/>
              </clipitem>
              <clipitem frameBlend="FALSE" id="clipitem-740">
                <name>Scene - LJ visemes.065.png</name>
                <masterclipid>masterclip-67</masterclipid>
                <rate>
                  <timebase>24</timebase>
                  <ntsc>FALSE</ntsc>
                </rate>
                <duration>1</duration>
                <enabled>TRUE</enabled>
                <alphatype>straight</alphatype>
                <rate>
                  <timebase>24</timebase>
                  <ntsc>FALSE</ntsc>
                </rate>
                <enabled>TRUE</enabled>
                <start>65</start>
                <end>66</end>
                <file id="file-67"/>
              </clipitem>
              <clipitem frameBlend="FALSE" id="clipitem-741">
                <name>Scene - LJ visemes.066.png</name>
                <masterclipid>masterclip-68</masterclipid>
                <rate>
                  <timebase>24</timebase>
                  <ntsc>FALSE</ntsc>
                </rate>
                <duration>1</duration>
                <enabled>TRUE</enabled>
                <alphatype>straight</alphatype>
                <rate>
                  <timebase>24</timebase>
                  <ntsc>FALSE</ntsc>
                </rate>
                <enabled>TRUE</enabled>
                <start>66</start>
                <end>67</end>
                <file id="file-68"/>
              </clipitem>
              <clipitem frameBlend="FALSE" id="clipitem-742">
                <name>Scene - LJ visemes.067.png</name>
                <masterclipid>masterclip-69</masterclipid>
                <rate>
                  <timebase>24</timebase>
                  <ntsc>FALSE</ntsc>
                </rate>
                <duration>1</duration>
                <enabled>TRUE</enabled>
                <alphatype>straight</alphatype>
                <rate>
                  <timebase>24</timebase>
                  <ntsc>FALSE</ntsc>
                </rate>
                <enabled>TRUE</enabled>
                <start>67</start>
                <end>68</end>
                <file id="file-69"/>
              </clipitem>
              <clipitem frameBlend="FALSE" id="clipitem-743">
                <name>Scene - LJ visemes.068.png</name>
                <masterclipid>masterclip-70</masterclipid>
                <rate>
                  <timebase>24</timebase>
                  <ntsc>FALSE</ntsc>
                </rate>
                <duration>1</duration>
                <enabled>TRUE</enabled>
                <alphatype>straight</alphatype>
                <rate>
                  <timebase>24</timebase>
                  <ntsc>FALSE</ntsc>
                </rate>
                <enabled>TRUE</enabled>
                <start>68</start>
                <end>69</end>
                <file id="file-70"/>
              </clipitem>
              <clipitem frameBlend="FALSE" id="clipitem-744">
                <name>Scene - LJ visemes.069.png</name>
                <masterclipid>masterclip-71</masterclipid>
                <rate>
                  <timebase>24</timebase>
                  <ntsc>FALSE</ntsc>
                </rate>
                <duration>1</duration>
                <enabled>TRUE</enabled>
                <alphatype>straight</alphatype>
                <rate>
                  <timebase>24</timebase>
                  <ntsc>FALSE</ntsc>
                </rate>
                <enabled>TRUE</enabled>
                <start>69</start>
                <end>70</end>
                <file id="file-71"/>
              </clipitem>
              <clipitem frameBlend="FALSE" id="clipitem-745">
                <name>Scene - LJ visemes.070.png</name>
                <masterclipid>masterclip-72</masterclipid>
                <rate>
                  <timebase>24</timebase>
                  <ntsc>FALSE</ntsc>
                </rate>
                <duration>1</duration>
                <enabled>TRUE</enabled>
                <alphatype>straight</alphatype>
                <rate>
                  <timebase>24</timebase>
                  <ntsc>FALSE</ntsc>
                </rate>
                <enabled>TRUE</enabled>
                <start>70</start>
                <end>71</end>
                <file id="file-72"/>
              </clipitem>
              <clipitem frameBlend="FALSE" id="clipitem-746">
                <name>Scene - LJ visemes.071.png</name>
                <masterclipid>masterclip-73</masterclipid>
                <rate>
                  <timebase>24</timebase>
                  <ntsc>FALSE</ntsc>
                </rate>
                <duration>1</duration>
                <enabled>TRUE</enabled>
                <alphatype>straight</alphatype>
                <rate>
                  <timebase>24</timebase>
                  <ntsc>FALSE</ntsc>
                </rate>
                <enabled>TRUE</enabled>
                <start>71</start>
                <end>72</end>
                <file id="file-73"/>
              </clipitem>
              <clipitem frameBlend="FALSE" id="clipitem-747">
                <name>Scene - LJ visemes.072.png</name>
                <masterclipid>masterclip-74</masterclipid>
                <rate>
                  <timebase>24</timebase>
                  <ntsc>FALSE</ntsc>
                </rate>
                <duration>1</duration>
                <enabled>TRUE</enabled>
                <alphatype>straight</alphatype>
                <rate>
                  <timebase>24</timebase>
                  <ntsc>FALSE</ntsc>
                </rate>
                <enabled>TRUE</enabled>
                <start>72</start>
                <end>73</end>
                <file id="file-74"/>
              </clipitem>
              <clipitem frameBlend="FALSE" id="clipitem-748">
                <name>Scene - LJ visemes.073.png</name>
                <masterclipid>masterclip-75</masterclipid>
                <rate>
                  <timebase>24</timebase>
                  <ntsc>FALSE</ntsc>
                </rate>
                <duration>1</duration>
                <enabled>TRUE</enabled>
                <alphatype>straight</alphatype>
                <rate>
                  <timebase>24</timebase>
                  <ntsc>FALSE</ntsc>
                </rate>
                <enabled>TRUE</enabled>
                <start>73</start>
                <end>74</end>
                <file id="file-75"/>
              </clipitem>
              <clipitem frameBlend="FALSE" id="clipitem-749">
                <name>Scene - LJ visemes.074.png</name>
                <masterclipid>masterclip-76</masterclipid>
                <rate>
                  <timebase>24</timebase>
                  <ntsc>FALSE</ntsc>
                </rate>
                <duration>1</duration>
                <enabled>TRUE</enabled>
                <alphatype>straight</alphatype>
                <rate>
                  <timebase>24</timebase>
                  <ntsc>FALSE</ntsc>
                </rate>
                <enabled>TRUE</enabled>
                <start>74</start>
                <end>75</end>
                <file id="file-76"/>
              </clipitem>
              <clipitem frameBlend="FALSE" id="clipitem-750">
                <name>Scene - LJ visemes.075.png</name>
                <masterclipid>masterclip-77</masterclipid>
                <rate>
                  <timebase>24</timebase>
                  <ntsc>FALSE</ntsc>
                </rate>
                <duration>1</duration>
                <enabled>TRUE</enabled>
                <alphatype>straight</alphatype>
                <rate>
                  <timebase>24</timebase>
                  <ntsc>FALSE</ntsc>
                </rate>
                <enabled>TRUE</enabled>
                <start>75</start>
                <end>76</end>
                <file id="file-77"/>
              </clipitem>
              <clipitem frameBlend="FALSE" id="clipitem-751">
                <name>Scene - LJ visemes.076.png</name>
                <masterclipid>masterclip-78</masterclipid>
                <rate>
                  <timebase>24</timebase>
                  <ntsc>FALSE</ntsc>
                </rate>
                <duration>1</duration>
                <enabled>TRUE</enabled>
                <alphatype>straight</alphatype>
                <rate>
                  <timebase>24</timebase>
                  <ntsc>FALSE</ntsc>
                </rate>
                <enabled>TRUE</enabled>
                <start>76</start>
                <end>77</end>
                <file id="file-78"/>
              </clipitem>
              <clipitem frameBlend="FALSE" id="clipitem-752">
                <name>Scene - LJ visemes.077.png</name>
                <masterclipid>masterclip-79</masterclipid>
                <rate>
                  <timebase>24</timebase>
                  <ntsc>FALSE</ntsc>
                </rate>
                <duration>1</duration>
                <enabled>TRUE</enabled>
                <alphatype>straight</alphatype>
                <rate>
                  <timebase>24</timebase>
                  <ntsc>FALSE</ntsc>
                </rate>
                <enabled>TRUE</enabled>
                <start>77</start>
                <end>78</end>
                <file id="file-79"/>
              </clipitem>
              <clipitem frameBlend="FALSE" id="clipitem-753">
                <name>Scene - LJ visemes.078.png</name>
                <masterclipid>masterclip-80</masterclipid>
                <rate>
                  <timebase>24</timebase>
                  <ntsc>FALSE</ntsc>
                </rate>
                <duration>1</duration>
                <enabled>TRUE</enabled>
                <alphatype>straight</alphatype>
                <rate>
                  <timebase>24</timebase>
                  <ntsc>FALSE</ntsc>
                </rate>
                <enabled>TRUE</enabled>
                <start>78</start>
                <end>79</end>
                <file id="file-80"/>
              </clipitem>
              <clipitem frameBlend="FALSE" id="clipitem-754">
                <name>Scene - LJ visemes.079.png</name>
                <masterclipid>masterclip-81</masterclipid>
                <rate>
                  <timebase>24</timebase>
                  <ntsc>FALSE</ntsc>
                </rate>
                <duration>1</duration>
                <enabled>TRUE</enabled>
                <alphatype>straight</alphatype>
                <rate>
                  <timebase>24</timebase>
                  <ntsc>FALSE</ntsc>
                </rate>
                <enabled>TRUE</enabled>
                <start>79</start>
                <end>80</end>
                <file id="file-81"/>
              </clipitem>
              <clipitem frameBlend="FALSE" id="clipitem-755">
                <name>Scene - LJ visemes.080.png</name>
                <masterclipid>masterclip-82</masterclipid>
                <rate>
                  <timebase>24</timebase>
                  <ntsc>FALSE</ntsc>
                </rate>
                <duration>1</duration>
                <enabled>TRUE</enabled>
                <alphatype>straight</alphatype>
                <rate>
                  <timebase>24</timebase>
                  <ntsc>FALSE</ntsc>
                </rate>
                <enabled>TRUE</enabled>
                <start>80</start>
                <end>81</end>
                <file id="file-82"/>
              </clipitem>
              <clipitem frameBlend="FALSE" id="clipitem-756">
                <name>Scene - LJ visemes.081.png</name>
                <masterclipid>masterclip-83</masterclipid>
                <rate>
                  <timebase>24</timebase>
                  <ntsc>FALSE</ntsc>
                </rate>
                <duration>1</duration>
                <enabled>TRUE</enabled>
                <alphatype>straight</alphatype>
                <rate>
                  <timebase>24</timebase>
                  <ntsc>FALSE</ntsc>
                </rate>
                <enabled>TRUE</enabled>
                <start>81</start>
                <end>82</end>
                <file id="file-83"/>
              </clipitem>
              <clipitem frameBlend="FALSE" id="clipitem-757">
                <name>Scene - LJ visemes.082.png</name>
                <masterclipid>masterclip-84</masterclipid>
                <rate>
                  <timebase>24</timebase>
                  <ntsc>FALSE</ntsc>
                </rate>
                <duration>1</duration>
                <enabled>TRUE</enabled>
                <alphatype>straight</alphatype>
                <rate>
                  <timebase>24</timebase>
                  <ntsc>FALSE</ntsc>
                </rate>
                <enabled>TRUE</enabled>
                <start>82</start>
                <end>83</end>
                <file id="file-84"/>
              </clipitem>
              <clipitem frameBlend="FALSE" id="clipitem-758">
                <name>Scene - LJ visemes.083.png</name>
                <masterclipid>masterclip-85</masterclipid>
                <rate>
                  <timebase>24</timebase>
                  <ntsc>FALSE</ntsc>
                </rate>
                <duration>1</duration>
                <enabled>TRUE</enabled>
                <alphatype>straight</alphatype>
                <rate>
                  <timebase>24</timebase>
                  <ntsc>FALSE</ntsc>
                </rate>
                <enabled>TRUE</enabled>
                <start>83</start>
                <end>84</end>
                <file id="file-85"/>
              </clipitem>
              <clipitem frameBlend="FALSE" id="clipitem-759">
                <name>Scene - LJ visemes.084.png</name>
                <masterclipid>masterclip-86</masterclipid>
                <rate>
                  <timebase>24</timebase>
                  <ntsc>FALSE</ntsc>
                </rate>
                <duration>1</duration>
                <enabled>TRUE</enabled>
                <alphatype>straight</alphatype>
                <rate>
                  <timebase>24</timebase>
                  <ntsc>FALSE</ntsc>
                </rate>
                <enabled>TRUE</enabled>
                <start>84</start>
                <end>85</end>
                <file id="file-86"/>
              </clipitem>
              <clipitem frameBlend="FALSE" id="clipitem-760">
                <name>Scene - LJ visemes.085.png</name>
                <masterclipid>masterclip-87</masterclipid>
                <rate>
                  <timebase>24</timebase>
                  <ntsc>FALSE</ntsc>
                </rate>
                <duration>1</duration>
                <enabled>TRUE</enabled>
                <alphatype>straight</alphatype>
                <rate>
                  <timebase>24</timebase>
                  <ntsc>FALSE</ntsc>
                </rate>
                <enabled>TRUE</enabled>
                <start>85</start>
                <end>86</end>
                <file id="file-87"/>
              </clipitem>
              <clipitem frameBlend="FALSE" id="clipitem-761">
                <name>Scene - LJ visemes.086.png</name>
                <masterclipid>masterclip-88</masterclipid>
                <rate>
                  <timebase>24</timebase>
                  <ntsc>FALSE</ntsc>
                </rate>
                <duration>1</duration>
                <enabled>TRUE</enabled>
                <alphatype>straight</alphatype>
                <rate>
                  <timebase>24</timebase>
                  <ntsc>FALSE</ntsc>
                </rate>
                <enabled>TRUE</enabled>
                <start>86</start>
                <end>87</end>
                <file id="file-88"/>
              </clipitem>
              <clipitem frameBlend="FALSE" id="clipitem-762">
                <name>Scene - LJ visemes.087.png</name>
                <masterclipid>masterclip-89</masterclipid>
                <rate>
                  <timebase>24</timebase>
                  <ntsc>FALSE</ntsc>
                </rate>
                <duration>1</duration>
                <enabled>TRUE</enabled>
                <alphatype>straight</alphatype>
                <rate>
                  <timebase>24</timebase>
                  <ntsc>FALSE</ntsc>
                </rate>
                <enabled>TRUE</enabled>
                <start>87</start>
                <end>88</end>
                <file id="file-89"/>
              </clipitem>
              <clipitem frameBlend="FALSE" id="clipitem-763">
                <name>Scene - LJ visemes.088.png</name>
                <masterclipid>masterclip-90</masterclipid>
                <rate>
                  <timebase>24</timebase>
                  <ntsc>FALSE</ntsc>
                </rate>
                <duration>1</duration>
                <enabled>TRUE</enabled>
                <alphatype>straight</alphatype>
                <rate>
                  <timebase>24</timebase>
                  <ntsc>FALSE</ntsc>
                </rate>
                <enabled>TRUE</enabled>
                <start>88</start>
                <end>89</end>
                <file id="file-90"/>
              </clipitem>
              <clipitem frameBlend="FALSE" id="clipitem-764">
                <name>Scene - LJ visemes.089.png</name>
                <masterclipid>masterclip-91</masterclipid>
                <rate>
                  <timebase>24</timebase>
                  <ntsc>FALSE</ntsc>
                </rate>
                <duration>1</duration>
                <enabled>TRUE</enabled>
                <alphatype>straight</alphatype>
                <rate>
                  <timebase>24</timebase>
                  <ntsc>FALSE</ntsc>
                </rate>
                <enabled>TRUE</enabled>
                <start>89</start>
                <end>90</end>
                <file id="file-91"/>
              </clipitem>
              <clipitem frameBlend="FALSE" id="clipitem-765">
                <name>Scene - LJ visemes.090.png</name>
                <masterclipid>masterclip-92</masterclipid>
                <rate>
                  <timebase>24</timebase>
                  <ntsc>FALSE</ntsc>
                </rate>
                <duration>1</duration>
                <enabled>TRUE</enabled>
                <alphatype>straight</alphatype>
                <rate>
                  <timebase>24</timebase>
                  <ntsc>FALSE</ntsc>
                </rate>
                <enabled>TRUE</enabled>
                <start>90</start>
                <end>91</end>
                <file id="file-92"/>
              </clipitem>
              <clipitem frameBlend="FALSE" id="clipitem-766">
                <name>Scene - LJ visemes.091.png</name>
                <masterclipid>masterclip-93</masterclipid>
                <rate>
                  <timebase>24</timebase>
                  <ntsc>FALSE</ntsc>
                </rate>
                <duration>1</duration>
                <enabled>TRUE</enabled>
                <alphatype>straight</alphatype>
                <rate>
                  <timebase>24</timebase>
                  <ntsc>FALSE</ntsc>
                </rate>
                <enabled>TRUE</enabled>
                <start>91</start>
                <end>92</end>
                <file id="file-93"/>
              </clipitem>
              <clipitem frameBlend="FALSE" id="clipitem-767">
                <name>Scene - LJ visemes.092.png</name>
                <masterclipid>masterclip-94</masterclipid>
                <rate>
                  <timebase>24</timebase>
                  <ntsc>FALSE</ntsc>
                </rate>
                <duration>1</duration>
                <enabled>TRUE</enabled>
                <alphatype>straight</alphatype>
                <rate>
                  <timebase>24</timebase>
                  <ntsc>FALSE</ntsc>
                </rate>
                <enabled>TRUE</enabled>
                <start>92</start>
                <end>93</end>
                <file id="file-94"/>
              </clipitem>
              <clipitem frameBlend="FALSE" id="clipitem-768">
                <name>Scene - LJ visemes.093.png</name>
                <masterclipid>masterclip-95</masterclipid>
                <rate>
                  <timebase>24</timebase>
                  <ntsc>FALSE</ntsc>
                </rate>
                <duration>1</duration>
                <enabled>TRUE</enabled>
                <alphatype>straight</alphatype>
                <rate>
                  <timebase>24</timebase>
                  <ntsc>FALSE</ntsc>
                </rate>
                <enabled>TRUE</enabled>
                <start>93</start>
                <end>94</end>
                <file id="file-95"/>
              </clipitem>
              <clipitem frameBlend="FALSE" id="clipitem-769">
                <name>Scene - LJ visemes.094.png</name>
                <masterclipid>masterclip-96</masterclipid>
                <rate>
                  <timebase>24</timebase>
                  <ntsc>FALSE</ntsc>
                </rate>
                <duration>1</duration>
                <enabled>TRUE</enabled>
                <alphatype>straight</alphatype>
                <rate>
                  <timebase>24</timebase>
                  <ntsc>FALSE</ntsc>
                </rate>
                <enabled>TRUE</enabled>
                <start>94</start>
                <end>95</end>
                <file id="file-96"/>
              </clipitem>
              <clipitem frameBlend="FALSE" id="clipitem-770">
                <name>Scene - LJ visemes.095.png</name>
                <masterclipid>masterclip-97</masterclipid>
                <rate>
                  <timebase>24</timebase>
                  <ntsc>FALSE</ntsc>
                </rate>
                <duration>1</duration>
                <enabled>TRUE</enabled>
                <alphatype>straight</alphatype>
                <rate>
                  <timebase>24</timebase>
                  <ntsc>FALSE</ntsc>
                </rate>
                <enabled>TRUE</enabled>
                <start>95</start>
                <end>96</end>
                <file id="file-97"/>
              </clipitem>
              <clipitem frameBlend="FALSE" id="clipitem-771">
                <name>Scene - LJ visemes.096.png</name>
                <masterclipid>masterclip-98</masterclipid>
                <rate>
                  <timebase>24</timebase>
                  <ntsc>FALSE</ntsc>
                </rate>
                <duration>1</duration>
                <enabled>TRUE</enabled>
                <alphatype>straight</alphatype>
                <rate>
                  <timebase>24</timebase>
                  <ntsc>FALSE</ntsc>
                </rate>
                <enabled>TRUE</enabled>
                <start>96</start>
                <end>97</end>
                <file id="file-98"/>
              </clipitem>
              <clipitem frameBlend="FALSE" id="clipitem-772">
                <name>Scene - LJ visemes.097.png</name>
                <masterclipid>masterclip-99</masterclipid>
                <rate>
                  <timebase>24</timebase>
                  <ntsc>FALSE</ntsc>
                </rate>
                <duration>1</duration>
                <enabled>TRUE</enabled>
                <alphatype>straight</alphatype>
                <rate>
                  <timebase>24</timebase>
                  <ntsc>FALSE</ntsc>
                </rate>
                <enabled>TRUE</enabled>
                <start>97</start>
                <end>98</end>
                <file id="file-99"/>
              </clipitem>
              <clipitem frameBlend="FALSE" id="clipitem-773">
                <name>Scene - LJ visemes.098.png</name>
                <masterclipid>masterclip-100</masterclipid>
                <rate>
                  <timebase>24</timebase>
                  <ntsc>FALSE</ntsc>
                </rate>
                <duration>1</duration>
                <enabled>TRUE</enabled>
                <alphatype>straight</alphatype>
                <rate>
                  <timebase>24</timebase>
                  <ntsc>FALSE</ntsc>
                </rate>
                <enabled>TRUE</enabled>
                <start>98</start>
                <end>99</end>
                <file id="file-100"/>
              </clipitem>
              <clipitem frameBlend="FALSE" id="clipitem-774">
                <name>Scene - LJ visemes.099.png</name>
                <masterclipid>masterclip-101</masterclipid>
                <rate>
                  <timebase>24</timebase>
                  <ntsc>FALSE</ntsc>
                </rate>
                <duration>1</duration>
                <enabled>TRUE</enabled>
                <alphatype>straight</alphatype>
                <rate>
                  <timebase>24</timebase>
                  <ntsc>FALSE</ntsc>
                </rate>
                <enabled>TRUE</enabled>
                <start>99</start>
                <end>100</end>
                <file id="file-101"/>
              </clipitem>
              <clipitem frameBlend="FALSE" id="clipitem-775">
                <name>Scene - LJ visemes.100.png</name>
                <masterclipid>masterclip-102</masterclipid>
                <rate>
                  <timebase>24</timebase>
                  <ntsc>FALSE</ntsc>
                </rate>
                <duration>1</duration>
                <enabled>TRUE</enabled>
                <alphatype>straight</alphatype>
                <rate>
                  <timebase>24</timebase>
                  <ntsc>FALSE</ntsc>
                </rate>
                <enabled>TRUE</enabled>
                <start>100</start>
                <end>101</end>
                <file id="file-102"/>
              </clipitem>
              <clipitem frameBlend="FALSE" id="clipitem-776">
                <name>Scene - LJ visemes.101.png</name>
                <masterclipid>masterclip-103</masterclipid>
                <rate>
                  <timebase>24</timebase>
                  <ntsc>FALSE</ntsc>
                </rate>
                <duration>1</duration>
                <enabled>TRUE</enabled>
                <alphatype>straight</alphatype>
                <rate>
                  <timebase>24</timebase>
                  <ntsc>FALSE</ntsc>
                </rate>
                <enabled>TRUE</enabled>
                <start>101</start>
                <end>102</end>
                <file id="file-103"/>
              </clipitem>
              <clipitem frameBlend="FALSE" id="clipitem-777">
                <name>Scene - LJ visemes.102.png</name>
                <masterclipid>masterclip-104</masterclipid>
                <rate>
                  <timebase>24</timebase>
                  <ntsc>FALSE</ntsc>
                </rate>
                <duration>1</duration>
                <enabled>TRUE</enabled>
                <alphatype>straight</alphatype>
                <rate>
                  <timebase>24</timebase>
                  <ntsc>FALSE</ntsc>
                </rate>
                <enabled>TRUE</enabled>
                <start>102</start>
                <end>103</end>
                <file id="file-104"/>
              </clipitem>
              <clipitem frameBlend="FALSE" id="clipitem-778">
                <name>Scene - LJ visemes.103.png</name>
                <masterclipid>masterclip-105</masterclipid>
                <rate>
                  <timebase>24</timebase>
                  <ntsc>FALSE</ntsc>
                </rate>
                <duration>1</duration>
                <enabled>TRUE</enabled>
                <alphatype>straight</alphatype>
                <rate>
                  <timebase>24</timebase>
                  <ntsc>FALSE</ntsc>
                </rate>
                <enabled>TRUE</enabled>
                <start>103</start>
                <end>104</end>
                <file id="file-105"/>
              </clipitem>
              <clipitem frameBlend="FALSE" id="clipitem-779">
                <name>Scene - LJ visemes.104.png</name>
                <masterclipid>masterclip-106</masterclipid>
                <rate>
                  <timebase>24</timebase>
                  <ntsc>FALSE</ntsc>
                </rate>
                <duration>1</duration>
                <enabled>TRUE</enabled>
                <alphatype>straight</alphatype>
                <rate>
                  <timebase>24</timebase>
                  <ntsc>FALSE</ntsc>
                </rate>
                <enabled>TRUE</enabled>
                <start>104</start>
                <end>105</end>
                <file id="file-106"/>
              </clipitem>
              <clipitem frameBlend="FALSE" id="clipitem-780">
                <name>Scene - LJ visemes.105.png</name>
                <masterclipid>masterclip-107</masterclipid>
                <rate>
                  <timebase>24</timebase>
                  <ntsc>FALSE</ntsc>
                </rate>
                <duration>1</duration>
                <enabled>TRUE</enabled>
                <alphatype>straight</alphatype>
                <rate>
                  <timebase>24</timebase>
                  <ntsc>FALSE</ntsc>
                </rate>
                <enabled>TRUE</enabled>
                <start>105</start>
                <end>106</end>
                <file id="file-107"/>
              </clipitem>
              <clipitem frameBlend="FALSE" id="clipitem-781">
                <name>Scene - LJ visemes.106.png</name>
                <masterclipid>masterclip-108</masterclipid>
                <rate>
                  <timebase>24</timebase>
                  <ntsc>FALSE</ntsc>
                </rate>
                <duration>1</duration>
                <enabled>TRUE</enabled>
                <alphatype>straight</alphatype>
                <rate>
                  <timebase>24</timebase>
                  <ntsc>FALSE</ntsc>
                </rate>
                <enabled>TRUE</enabled>
                <start>106</start>
                <end>107</end>
                <file id="file-108"/>
              </clipitem>
              <clipitem frameBlend="FALSE" id="clipitem-782">
                <name>Scene - LJ visemes.107.png</name>
                <masterclipid>masterclip-109</masterclipid>
                <rate>
                  <timebase>24</timebase>
                  <ntsc>FALSE</ntsc>
                </rate>
                <duration>1</duration>
                <enabled>TRUE</enabled>
                <alphatype>straight</alphatype>
                <rate>
                  <timebase>24</timebase>
                  <ntsc>FALSE</ntsc>
                </rate>
                <enabled>TRUE</enabled>
                <start>107</start>
                <end>108</end>
                <file id="file-109"/>
              </clipitem>
              <clipitem frameBlend="FALSE" id="clipitem-783">
                <name>Scene - LJ visemes.108.png</name>
                <masterclipid>masterclip-110</masterclipid>
                <rate>
                  <timebase>24</timebase>
                  <ntsc>FALSE</ntsc>
                </rate>
                <duration>1</duration>
                <enabled>TRUE</enabled>
                <alphatype>straight</alphatype>
                <rate>
                  <timebase>24</timebase>
                  <ntsc>FALSE</ntsc>
                </rate>
                <enabled>TRUE</enabled>
                <start>108</start>
                <end>109</end>
                <file id="file-110"/>
              </clipitem>
              <clipitem frameBlend="FALSE" id="clipitem-784">
                <name>Scene - LJ visemes.109.png</name>
                <masterclipid>masterclip-111</masterclipid>
                <rate>
                  <timebase>24</timebase>
                  <ntsc>FALSE</ntsc>
                </rate>
                <duration>1</duration>
                <enabled>TRUE</enabled>
                <alphatype>straight</alphatype>
                <rate>
                  <timebase>24</timebase>
                  <ntsc>FALSE</ntsc>
                </rate>
                <enabled>TRUE</enabled>
                <start>109</start>
                <end>110</end>
                <file id="file-111"/>
              </clipitem>
              <clipitem frameBlend="FALSE" id="clipitem-785">
                <name>Scene - LJ visemes.110.png</name>
                <masterclipid>masterclip-112</masterclipid>
                <rate>
                  <timebase>24</timebase>
                  <ntsc>FALSE</ntsc>
                </rate>
                <duration>1</duration>
                <enabled>TRUE</enabled>
                <alphatype>straight</alphatype>
                <rate>
                  <timebase>24</timebase>
                  <ntsc>FALSE</ntsc>
                </rate>
                <enabled>TRUE</enabled>
                <start>110</start>
                <end>111</end>
                <file id="file-112"/>
              </clipitem>
              <clipitem frameBlend="FALSE" id="clipitem-786">
                <name>Scene - LJ visemes.111.png</name>
                <masterclipid>masterclip-113</masterclipid>
                <rate>
                  <timebase>24</timebase>
                  <ntsc>FALSE</ntsc>
                </rate>
                <duration>1</duration>
                <enabled>TRUE</enabled>
                <alphatype>straight</alphatype>
                <rate>
                  <timebase>24</timebase>
                  <ntsc>FALSE</ntsc>
                </rate>
                <enabled>TRUE</enabled>
                <start>111</start>
                <end>112</end>
                <file id="file-113"/>
              </clipitem>
              <clipitem frameBlend="FALSE" id="clipitem-787">
                <name>Scene - LJ visemes.112.png</name>
                <masterclipid>masterclip-114</masterclipid>
                <rate>
                  <timebase>24</timebase>
                  <ntsc>FALSE</ntsc>
                </rate>
                <duration>1</duration>
                <enabled>TRUE</enabled>
                <alphatype>straight</alphatype>
                <rate>
                  <timebase>24</timebase>
                  <ntsc>FALSE</ntsc>
                </rate>
                <enabled>TRUE</enabled>
                <start>112</start>
                <end>113</end>
                <file id="file-114"/>
              </clipitem>
              <clipitem frameBlend="FALSE" id="clipitem-788">
                <name>Scene - LJ visemes.113.png</name>
                <masterclipid>masterclip-115</masterclipid>
                <rate>
                  <timebase>24</timebase>
                  <ntsc>FALSE</ntsc>
                </rate>
                <duration>1</duration>
                <enabled>TRUE</enabled>
                <alphatype>straight</alphatype>
                <rate>
                  <timebase>24</timebase>
                  <ntsc>FALSE</ntsc>
                </rate>
                <enabled>TRUE</enabled>
                <start>113</start>
                <end>114</end>
                <file id="file-115"/>
              </clipitem>
              <clipitem frameBlend="FALSE" id="clipitem-789">
                <name>Scene - LJ visemes.114.png</name>
                <masterclipid>masterclip-116</masterclipid>
                <rate>
                  <timebase>24</timebase>
                  <ntsc>FALSE</ntsc>
                </rate>
                <duration>1</duration>
                <enabled>TRUE</enabled>
                <alphatype>straight</alphatype>
                <rate>
                  <timebase>24</timebase>
                  <ntsc>FALSE</ntsc>
                </rate>
                <enabled>TRUE</enabled>
                <start>114</start>
                <end>115</end>
                <file id="file-116"/>
              </clipitem>
              <clipitem frameBlend="FALSE" id="clipitem-790">
                <name>Scene - LJ visemes.115.png</name>
                <masterclipid>masterclip-117</masterclipid>
                <rate>
                  <timebase>24</timebase>
                  <ntsc>FALSE</ntsc>
                </rate>
                <duration>1</duration>
                <enabled>TRUE</enabled>
                <alphatype>straight</alphatype>
                <rate>
                  <timebase>24</timebase>
                  <ntsc>FALSE</ntsc>
                </rate>
                <enabled>TRUE</enabled>
                <start>115</start>
                <end>116</end>
                <file id="file-117"/>
              </clipitem>
              <clipitem frameBlend="FALSE" id="clipitem-791">
                <name>Scene - LJ visemes.116.png</name>
                <masterclipid>masterclip-118</masterclipid>
                <rate>
                  <timebase>24</timebase>
                  <ntsc>FALSE</ntsc>
                </rate>
                <duration>1</duration>
                <enabled>TRUE</enabled>
                <alphatype>straight</alphatype>
                <rate>
                  <timebase>24</timebase>
                  <ntsc>FALSE</ntsc>
                </rate>
                <enabled>TRUE</enabled>
                <start>116</start>
                <end>117</end>
                <file id="file-118"/>
              </clipitem>
              <clipitem frameBlend="FALSE" id="clipitem-792">
                <name>Scene - LJ visemes.117.png</name>
                <masterclipid>masterclip-119</masterclipid>
                <rate>
                  <timebase>24</timebase>
                  <ntsc>FALSE</ntsc>
                </rate>
                <duration>1</duration>
                <enabled>TRUE</enabled>
                <alphatype>straight</alphatype>
                <rate>
                  <timebase>24</timebase>
                  <ntsc>FALSE</ntsc>
                </rate>
                <enabled>TRUE</enabled>
                <start>117</start>
                <end>118</end>
                <file id="file-119"/>
              </clipitem>
              <clipitem frameBlend="FALSE" id="clipitem-793">
                <name>Scene - LJ visemes.118.png</name>
                <masterclipid>masterclip-120</masterclipid>
                <rate>
                  <timebase>24</timebase>
                  <ntsc>FALSE</ntsc>
                </rate>
                <duration>1</duration>
                <enabled>TRUE</enabled>
                <alphatype>straight</alphatype>
                <rate>
                  <timebase>24</timebase>
                  <ntsc>FALSE</ntsc>
                </rate>
                <enabled>TRUE</enabled>
                <start>118</start>
                <end>119</end>
                <file id="file-120"/>
              </clipitem>
              <clipitem frameBlend="FALSE" id="clipitem-794">
                <name>Scene - LJ visemes.119.png</name>
                <masterclipid>masterclip-121</masterclipid>
                <rate>
                  <timebase>24</timebase>
                  <ntsc>FALSE</ntsc>
                </rate>
                <duration>1</duration>
                <enabled>TRUE</enabled>
                <alphatype>straight</alphatype>
                <rate>
                  <timebase>24</timebase>
                  <ntsc>FALSE</ntsc>
                </rate>
                <enabled>TRUE</enabled>
                <start>119</start>
                <end>120</end>
                <file id="file-121"/>
              </clipitem>
              <clipitem frameBlend="FALSE" id="clipitem-795">
                <name>Scene - LJ visemes.120.png</name>
                <masterclipid>masterclip-122</masterclipid>
                <rate>
                  <timebase>24</timebase>
                  <ntsc>FALSE</ntsc>
                </rate>
                <duration>1</duration>
                <enabled>TRUE</enabled>
                <alphatype>straight</alphatype>
                <rate>
                  <timebase>24</timebase>
                  <ntsc>FALSE</ntsc>
                </rate>
                <enabled>TRUE</enabled>
                <start>120</start>
                <end>121</end>
                <file id="file-122"/>
              </clipitem>
              <clipitem frameBlend="FALSE" id="clipitem-796">
                <name>Scene - LJ visemes.121.png</name>
                <masterclipid>masterclip-123</masterclipid>
                <rate>
                  <timebase>24</timebase>
                  <ntsc>FALSE</ntsc>
                </rate>
                <duration>1</duration>
                <enabled>TRUE</enabled>
                <alphatype>straight</alphatype>
                <rate>
                  <timebase>24</timebase>
                  <ntsc>FALSE</ntsc>
                </rate>
                <enabled>TRUE</enabled>
                <start>121</start>
                <end>122</end>
                <file id="file-123"/>
              </clipitem>
              <clipitem frameBlend="FALSE" id="clipitem-797">
                <name>Scene - LJ visemes.122.png</name>
                <masterclipid>masterclip-124</masterclipid>
                <rate>
                  <timebase>24</timebase>
                  <ntsc>FALSE</ntsc>
                </rate>
                <duration>1</duration>
                <enabled>TRUE</enabled>
                <alphatype>straight</alphatype>
                <rate>
                  <timebase>24</timebase>
                  <ntsc>FALSE</ntsc>
                </rate>
                <enabled>TRUE</enabled>
                <start>122</start>
                <end>123</end>
                <file id="file-124"/>
              </clipitem>
              <clipitem frameBlend="FALSE" id="clipitem-798">
                <name>Scene - LJ visemes.123.png</name>
                <masterclipid>masterclip-125</masterclipid>
                <rate>
                  <timebase>24</timebase>
                  <ntsc>FALSE</ntsc>
                </rate>
                <duration>1</duration>
                <enabled>TRUE</enabled>
                <alphatype>straight</alphatype>
                <rate>
                  <timebase>24</timebase>
                  <ntsc>FALSE</ntsc>
                </rate>
                <enabled>TRUE</enabled>
                <start>123</start>
                <end>124</end>
                <file id="file-125"/>
              </clipitem>
              <clipitem frameBlend="FALSE" id="clipitem-799">
                <name>Scene - LJ visemes.124.png</name>
                <masterclipid>masterclip-126</masterclipid>
                <rate>
                  <timebase>24</timebase>
                  <ntsc>FALSE</ntsc>
                </rate>
                <duration>1</duration>
                <enabled>TRUE</enabled>
                <alphatype>straight</alphatype>
                <rate>
                  <timebase>24</timebase>
                  <ntsc>FALSE</ntsc>
                </rate>
                <enabled>TRUE</enabled>
                <start>124</start>
                <end>125</end>
                <file id="file-126"/>
              </clipitem>
              <clipitem frameBlend="FALSE" id="clipitem-800">
                <name>Scene - LJ visemes.125.png</name>
                <masterclipid>masterclip-127</masterclipid>
                <rate>
                  <timebase>24</timebase>
                  <ntsc>FALSE</ntsc>
                </rate>
                <duration>1</duration>
                <enabled>TRUE</enabled>
                <alphatype>straight</alphatype>
                <rate>
                  <timebase>24</timebase>
                  <ntsc>FALSE</ntsc>
                </rate>
                <enabled>TRUE</enabled>
                <start>125</start>
                <end>126</end>
                <file id="file-127"/>
              </clipitem>
              <clipitem frameBlend="FALSE" id="clipitem-801">
                <name>Scene - LJ visemes.126.png</name>
                <masterclipid>masterclip-128</masterclipid>
                <rate>
                  <timebase>24</timebase>
                  <ntsc>FALSE</ntsc>
                </rate>
                <duration>1</duration>
                <enabled>TRUE</enabled>
                <alphatype>straight</alphatype>
                <rate>
                  <timebase>24</timebase>
                  <ntsc>FALSE</ntsc>
                </rate>
                <enabled>TRUE</enabled>
                <start>126</start>
                <end>127</end>
                <file id="file-128"/>
              </clipitem>
              <clipitem frameBlend="FALSE" id="clipitem-802">
                <name>Scene - LJ visemes.127.png</name>
                <masterclipid>masterclip-129</masterclipid>
                <rate>
                  <timebase>24</timebase>
                  <ntsc>FALSE</ntsc>
                </rate>
                <duration>1</duration>
                <enabled>TRUE</enabled>
                <alphatype>straight</alphatype>
                <rate>
                  <timebase>24</timebase>
                  <ntsc>FALSE</ntsc>
                </rate>
                <enabled>TRUE</enabled>
                <start>127</start>
                <end>128</end>
                <file id="file-129"/>
              </clipitem>
              <clipitem frameBlend="FALSE" id="clipitem-803">
                <name>Scene - LJ visemes.128.png</name>
                <masterclipid>masterclip-130</masterclipid>
                <rate>
                  <timebase>24</timebase>
                  <ntsc>FALSE</ntsc>
                </rate>
                <duration>1</duration>
                <enabled>TRUE</enabled>
                <alphatype>straight</alphatype>
                <rate>
                  <timebase>24</timebase>
                  <ntsc>FALSE</ntsc>
                </rate>
                <enabled>TRUE</enabled>
                <start>128</start>
                <end>129</end>
                <file id="file-130"/>
              </clipitem>
              <clipitem frameBlend="FALSE" id="clipitem-804">
                <name>Scene - LJ visemes.129.png</name>
                <masterclipid>masterclip-131</masterclipid>
                <rate>
                  <timebase>24</timebase>
                  <ntsc>FALSE</ntsc>
                </rate>
                <duration>1</duration>
                <enabled>TRUE</enabled>
                <alphatype>straight</alphatype>
                <rate>
                  <timebase>24</timebase>
                  <ntsc>FALSE</ntsc>
                </rate>
                <enabled>TRUE</enabled>
                <start>129</start>
                <end>130</end>
                <file id="file-131"/>
              </clipitem>
              <clipitem frameBlend="FALSE" id="clipitem-805">
                <name>Scene - LJ visemes.130.png</name>
                <masterclipid>masterclip-132</masterclipid>
                <rate>
                  <timebase>24</timebase>
                  <ntsc>FALSE</ntsc>
                </rate>
                <duration>1</duration>
                <enabled>TRUE</enabled>
                <alphatype>straight</alphatype>
                <rate>
                  <timebase>24</timebase>
                  <ntsc>FALSE</ntsc>
                </rate>
                <enabled>TRUE</enabled>
                <start>130</start>
                <end>131</end>
                <file id="file-132"/>
              </clipitem>
              <clipitem frameBlend="FALSE" id="clipitem-806">
                <name>Scene - LJ visemes.131.png</name>
                <masterclipid>masterclip-133</masterclipid>
                <rate>
                  <timebase>24</timebase>
                  <ntsc>FALSE</ntsc>
                </rate>
                <duration>1</duration>
                <enabled>TRUE</enabled>
                <alphatype>straight</alphatype>
                <rate>
                  <timebase>24</timebase>
                  <ntsc>FALSE</ntsc>
                </rate>
                <enabled>TRUE</enabled>
                <start>131</start>
                <end>132</end>
                <file id="file-133"/>
              </clipitem>
              <clipitem frameBlend="FALSE" id="clipitem-807">
                <name>Scene - LJ visemes.132.png</name>
                <masterclipid>masterclip-134</masterclipid>
                <rate>
                  <timebase>24</timebase>
                  <ntsc>FALSE</ntsc>
                </rate>
                <duration>1</duration>
                <enabled>TRUE</enabled>
                <alphatype>straight</alphatype>
                <rate>
                  <timebase>24</timebase>
                  <ntsc>FALSE</ntsc>
                </rate>
                <enabled>TRUE</enabled>
                <start>132</start>
                <end>133</end>
                <file id="file-134"/>
              </clipitem>
              <clipitem frameBlend="FALSE" id="clipitem-808">
                <name>Scene - LJ visemes.133.png</name>
                <masterclipid>masterclip-135</masterclipid>
                <rate>
                  <timebase>24</timebase>
                  <ntsc>FALSE</ntsc>
                </rate>
                <duration>1</duration>
                <enabled>TRUE</enabled>
                <alphatype>straight</alphatype>
                <rate>
                  <timebase>24</timebase>
                  <ntsc>FALSE</ntsc>
                </rate>
                <enabled>TRUE</enabled>
                <start>133</start>
                <end>134</end>
                <file id="file-135"/>
              </clipitem>
              <clipitem frameBlend="FALSE" id="clipitem-809">
                <name>Scene - LJ visemes.134.png</name>
                <masterclipid>masterclip-136</masterclipid>
                <rate>
                  <timebase>24</timebase>
                  <ntsc>FALSE</ntsc>
                </rate>
                <duration>1</duration>
                <enabled>TRUE</enabled>
                <alphatype>straight</alphatype>
                <rate>
                  <timebase>24</timebase>
                  <ntsc>FALSE</ntsc>
                </rate>
                <enabled>TRUE</enabled>
                <start>134</start>
                <end>135</end>
                <file id="file-136"/>
              </clipitem>
              <clipitem frameBlend="FALSE" id="clipitem-810">
                <name>Scene - LJ visemes.135.png</name>
                <masterclipid>masterclip-137</masterclipid>
                <rate>
                  <timebase>24</timebase>
                  <ntsc>FALSE</ntsc>
                </rate>
                <duration>1</duration>
                <enabled>TRUE</enabled>
                <alphatype>straight</alphatype>
                <rate>
                  <timebase>24</timebase>
                  <ntsc>FALSE</ntsc>
                </rate>
                <enabled>TRUE</enabled>
                <start>135</start>
                <end>136</end>
                <file id="file-137"/>
              </clipitem>
              <clipitem frameBlend="FALSE" id="clipitem-811">
                <name>Scene - LJ visemes.136.png</name>
                <masterclipid>masterclip-138</masterclipid>
                <rate>
                  <timebase>24</timebase>
                  <ntsc>FALSE</ntsc>
                </rate>
                <duration>1</duration>
                <enabled>TRUE</enabled>
                <alphatype>straight</alphatype>
                <rate>
                  <timebase>24</timebase>
                  <ntsc>FALSE</ntsc>
                </rate>
                <enabled>TRUE</enabled>
                <start>136</start>
                <end>137</end>
                <file id="file-138"/>
              </clipitem>
              <clipitem frameBlend="FALSE" id="clipitem-812">
                <name>Scene - LJ visemes.137.png</name>
                <masterclipid>masterclip-139</masterclipid>
                <rate>
                  <timebase>24</timebase>
                  <ntsc>FALSE</ntsc>
                </rate>
                <duration>1</duration>
                <enabled>TRUE</enabled>
                <alphatype>straight</alphatype>
                <rate>
                  <timebase>24</timebase>
                  <ntsc>FALSE</ntsc>
                </rate>
                <enabled>TRUE</enabled>
                <start>137</start>
                <end>138</end>
                <file id="file-139"/>
              </clipitem>
              <clipitem frameBlend="FALSE" id="clipitem-813">
                <name>Scene - LJ visemes.138.png</name>
                <masterclipid>masterclip-140</masterclipid>
                <rate>
                  <timebase>24</timebase>
                  <ntsc>FALSE</ntsc>
                </rate>
                <duration>1</duration>
                <enabled>TRUE</enabled>
                <alphatype>straight</alphatype>
                <rate>
                  <timebase>24</timebase>
                  <ntsc>FALSE</ntsc>
                </rate>
                <enabled>TRUE</enabled>
                <start>138</start>
                <end>139</end>
                <file id="file-140"/>
              </clipitem>
              <clipitem frameBlend="FALSE" id="clipitem-814">
                <name>Scene - LJ visemes.139.png</name>
                <masterclipid>masterclip-141</masterclipid>
                <rate>
                  <timebase>24</timebase>
                  <ntsc>FALSE</ntsc>
                </rate>
                <duration>1</duration>
                <enabled>TRUE</enabled>
                <alphatype>straight</alphatype>
                <rate>
                  <timebase>24</timebase>
                  <ntsc>FALSE</ntsc>
                </rate>
                <enabled>TRUE</enabled>
                <start>139</start>
                <end>140</end>
                <file id="file-141"/>
              </clipitem>
              <clipitem frameBlend="FALSE" id="clipitem-815">
                <name>Scene - LJ visemes.140.png</name>
                <masterclipid>masterclip-142</masterclipid>
                <rate>
                  <timebase>24</timebase>
                  <ntsc>FALSE</ntsc>
                </rate>
                <duration>1</duration>
                <enabled>TRUE</enabled>
                <alphatype>straight</alphatype>
                <rate>
                  <timebase>24</timebase>
                  <ntsc>FALSE</ntsc>
                </rate>
                <enabled>TRUE</enabled>
                <start>140</start>
                <end>141</end>
                <file id="file-142"/>
              </clipitem>
              <clipitem frameBlend="FALSE" id="clipitem-816">
                <name>Scene - LJ visemes.141.png</name>
                <masterclipid>masterclip-143</masterclipid>
                <rate>
                  <timebase>24</timebase>
                  <ntsc>FALSE</ntsc>
                </rate>
                <duration>1</duration>
                <enabled>TRUE</enabled>
                <alphatype>straight</alphatype>
                <rate>
                  <timebase>24</timebase>
                  <ntsc>FALSE</ntsc>
                </rate>
                <enabled>TRUE</enabled>
                <start>141</start>
                <end>142</end>
                <file id="file-143"/>
              </clipitem>
              <clipitem frameBlend="FALSE" id="clipitem-817">
                <name>Scene - LJ visemes.142.png</name>
                <masterclipid>masterclip-144</masterclipid>
                <rate>
                  <timebase>24</timebase>
                  <ntsc>FALSE</ntsc>
                </rate>
                <duration>1</duration>
                <enabled>TRUE</enabled>
                <alphatype>straight</alphatype>
                <rate>
                  <timebase>24</timebase>
                  <ntsc>FALSE</ntsc>
                </rate>
                <enabled>TRUE</enabled>
                <start>142</start>
                <end>143</end>
                <file id="file-144"/>
              </clipitem>
              <clipitem frameBlend="FALSE" id="clipitem-818">
                <name>Scene - LJ visemes.143.png</name>
                <masterclipid>masterclip-145</masterclipid>
                <rate>
                  <timebase>24</timebase>
                  <ntsc>FALSE</ntsc>
                </rate>
                <duration>1</duration>
                <enabled>TRUE</enabled>
                <alphatype>straight</alphatype>
                <rate>
                  <timebase>24</timebase>
                  <ntsc>FALSE</ntsc>
                </rate>
                <enabled>TRUE</enabled>
                <start>143</start>
                <end>144</end>
                <file id="file-145"/>
              </clipitem>
              <clipitem frameBlend="FALSE" id="clipitem-819">
                <name>Scene - LJ visemes.144.png</name>
                <masterclipid>masterclip-146</masterclipid>
                <rate>
                  <timebase>24</timebase>
                  <ntsc>FALSE</ntsc>
                </rate>
                <duration>1</duration>
                <enabled>TRUE</enabled>
                <alphatype>straight</alphatype>
                <rate>
                  <timebase>24</timebase>
                  <ntsc>FALSE</ntsc>
                </rate>
                <enabled>TRUE</enabled>
                <start>144</start>
                <end>145</end>
                <file id="file-146"/>
              </clipitem>
              <clipitem frameBlend="FALSE" id="clipitem-820">
                <name>Scene - LJ visemes.145.png</name>
                <masterclipid>masterclip-147</masterclipid>
                <rate>
                  <timebase>24</timebase>
                  <ntsc>FALSE</ntsc>
                </rate>
                <duration>1</duration>
                <enabled>TRUE</enabled>
                <alphatype>straight</alphatype>
                <rate>
                  <timebase>24</timebase>
                  <ntsc>FALSE</ntsc>
                </rate>
                <enabled>TRUE</enabled>
                <start>145</start>
                <end>146</end>
                <file id="file-147"/>
              </clipitem>
              <clipitem frameBlend="FALSE" id="clipitem-821">
                <name>Scene - LJ visemes.146.png</name>
                <masterclipid>masterclip-148</masterclipid>
                <rate>
                  <timebase>24</timebase>
                  <ntsc>FALSE</ntsc>
                </rate>
                <duration>1</duration>
                <enabled>TRUE</enabled>
                <alphatype>straight</alphatype>
                <rate>
                  <timebase>24</timebase>
                  <ntsc>FALSE</ntsc>
                </rate>
                <enabled>TRUE</enabled>
                <start>146</start>
                <end>147</end>
                <file id="file-148"/>
              </clipitem>
              <clipitem frameBlend="FALSE" id="clipitem-822">
                <name>Scene - LJ visemes.147.png</name>
                <masterclipid>masterclip-149</masterclipid>
                <rate>
                  <timebase>24</timebase>
                  <ntsc>FALSE</ntsc>
                </rate>
                <duration>1</duration>
                <enabled>TRUE</enabled>
                <alphatype>straight</alphatype>
                <rate>
                  <timebase>24</timebase>
                  <ntsc>FALSE</ntsc>
                </rate>
                <enabled>TRUE</enabled>
                <start>147</start>
                <end>148</end>
                <file id="file-149"/>
              </clipitem>
              <clipitem frameBlend="FALSE" id="clipitem-823">
                <name>Scene - LJ visemes.148.png</name>
                <masterclipid>masterclip-150</masterclipid>
                <rate>
                  <timebase>24</timebase>
                  <ntsc>FALSE</ntsc>
                </rate>
                <duration>1</duration>
                <enabled>TRUE</enabled>
                <alphatype>straight</alphatype>
                <rate>
                  <timebase>24</timebase>
                  <ntsc>FALSE</ntsc>
                </rate>
                <enabled>TRUE</enabled>
                <start>148</start>
                <end>149</end>
                <file id="file-150"/>
              </clipitem>
              <clipitem frameBlend="FALSE" id="clipitem-824">
                <name>Scene - LJ visemes.149.png</name>
                <masterclipid>masterclip-151</masterclipid>
                <rate>
                  <timebase>24</timebase>
                  <ntsc>FALSE</ntsc>
                </rate>
                <duration>1</duration>
                <enabled>TRUE</enabled>
                <alphatype>straight</alphatype>
                <rate>
                  <timebase>24</timebase>
                  <ntsc>FALSE</ntsc>
                </rate>
                <enabled>TRUE</enabled>
                <start>149</start>
                <end>150</end>
                <file id="file-151"/>
              </clipitem>
              <clipitem frameBlend="FALSE" id="clipitem-825">
                <name>Scene - LJ visemes.150.png</name>
                <masterclipid>masterclip-152</masterclipid>
                <rate>
                  <timebase>24</timebase>
                  <ntsc>FALSE</ntsc>
                </rate>
                <duration>1</duration>
                <enabled>TRUE</enabled>
                <alphatype>straight</alphatype>
                <rate>
                  <timebase>24</timebase>
                  <ntsc>FALSE</ntsc>
                </rate>
                <enabled>TRUE</enabled>
                <start>150</start>
                <end>151</end>
                <file id="file-152"/>
              </clipitem>
              <clipitem frameBlend="FALSE" id="clipitem-826">
                <name>Scene - LJ visemes.151.png</name>
                <masterclipid>masterclip-153</masterclipid>
                <rate>
                  <timebase>24</timebase>
                  <ntsc>FALSE</ntsc>
                </rate>
                <duration>1</duration>
                <enabled>TRUE</enabled>
                <alphatype>straight</alphatype>
                <rate>
                  <timebase>24</timebase>
                  <ntsc>FALSE</ntsc>
                </rate>
                <enabled>TRUE</enabled>
                <start>151</start>
                <end>152</end>
                <file id="file-153"/>
              </clipitem>
              <clipitem frameBlend="FALSE" id="clipitem-827">
                <name>Scene - LJ visemes.152.png</name>
                <masterclipid>masterclip-154</masterclipid>
                <rate>
                  <timebase>24</timebase>
                  <ntsc>FALSE</ntsc>
                </rate>
                <duration>1</duration>
                <enabled>TRUE</enabled>
                <alphatype>straight</alphatype>
                <rate>
                  <timebase>24</timebase>
                  <ntsc>FALSE</ntsc>
                </rate>
                <enabled>TRUE</enabled>
                <start>152</start>
                <end>153</end>
                <file id="file-154"/>
              </clipitem>
              <clipitem frameBlend="FALSE" id="clipitem-828">
                <name>Scene - LJ visemes.153.png</name>
                <masterclipid>masterclip-155</masterclipid>
                <rate>
                  <timebase>24</timebase>
                  <ntsc>FALSE</ntsc>
                </rate>
                <duration>1</duration>
                <enabled>TRUE</enabled>
                <alphatype>straight</alphatype>
                <rate>
                  <timebase>24</timebase>
                  <ntsc>FALSE</ntsc>
                </rate>
                <enabled>TRUE</enabled>
                <start>153</start>
                <end>154</end>
                <file id="file-155"/>
              </clipitem>
              <clipitem frameBlend="FALSE" id="clipitem-829">
                <name>Scene - LJ visemes.154.png</name>
                <masterclipid>masterclip-156</masterclipid>
                <rate>
                  <timebase>24</timebase>
                  <ntsc>FALSE</ntsc>
                </rate>
                <duration>1</duration>
                <enabled>TRUE</enabled>
                <alphatype>straight</alphatype>
                <rate>
                  <timebase>24</timebase>
                  <ntsc>FALSE</ntsc>
                </rate>
                <enabled>TRUE</enabled>
                <start>154</start>
                <end>155</end>
                <file id="file-156"/>
              </clipitem>
              <clipitem frameBlend="FALSE" id="clipitem-830">
                <name>Scene - LJ visemes.155.png</name>
                <masterclipid>masterclip-157</masterclipid>
                <rate>
                  <timebase>24</timebase>
                  <ntsc>FALSE</ntsc>
                </rate>
                <duration>1</duration>
                <enabled>TRUE</enabled>
                <alphatype>straight</alphatype>
                <rate>
                  <timebase>24</timebase>
                  <ntsc>FALSE</ntsc>
                </rate>
                <enabled>TRUE</enabled>
                <start>155</start>
                <end>156</end>
                <file id="file-157"/>
              </clipitem>
              <clipitem frameBlend="FALSE" id="clipitem-831">
                <name>Scene - LJ visemes.156.png</name>
                <masterclipid>masterclip-158</masterclipid>
                <rate>
                  <timebase>24</timebase>
                  <ntsc>FALSE</ntsc>
                </rate>
                <duration>1</duration>
                <enabled>TRUE</enabled>
                <alphatype>straight</alphatype>
                <rate>
                  <timebase>24</timebase>
                  <ntsc>FALSE</ntsc>
                </rate>
                <enabled>TRUE</enabled>
                <start>156</start>
                <end>157</end>
                <file id="file-158"/>
              </clipitem>
              <clipitem frameBlend="FALSE" id="clipitem-832">
                <name>Scene - LJ visemes.157.png</name>
                <masterclipid>masterclip-159</masterclipid>
                <rate>
                  <timebase>24</timebase>
                  <ntsc>FALSE</ntsc>
                </rate>
                <duration>1</duration>
                <enabled>TRUE</enabled>
                <alphatype>straight</alphatype>
                <rate>
                  <timebase>24</timebase>
                  <ntsc>FALSE</ntsc>
                </rate>
                <enabled>TRUE</enabled>
                <start>157</start>
                <end>158</end>
                <file id="file-159"/>
              </clipitem>
              <clipitem frameBlend="FALSE" id="clipitem-833">
                <name>Scene - LJ visemes.158.png</name>
                <masterclipid>masterclip-160</masterclipid>
                <rate>
                  <timebase>24</timebase>
                  <ntsc>FALSE</ntsc>
                </rate>
                <duration>1</duration>
                <enabled>TRUE</enabled>
                <alphatype>straight</alphatype>
                <rate>
                  <timebase>24</timebase>
                  <ntsc>FALSE</ntsc>
                </rate>
                <enabled>TRUE</enabled>
                <start>158</start>
                <end>159</end>
                <file id="file-160"/>
              </clipitem>
              <clipitem frameBlend="FALSE" id="clipitem-834">
                <name>Scene - LJ visemes.159.png</name>
                <masterclipid>masterclip-161</masterclipid>
                <rate>
                  <timebase>24</timebase>
                  <ntsc>FALSE</ntsc>
                </rate>
                <duration>1</duration>
                <enabled>TRUE</enabled>
                <alphatype>straight</alphatype>
                <rate>
                  <timebase>24</timebase>
                  <ntsc>FALSE</ntsc>
                </rate>
                <enabled>TRUE</enabled>
                <start>159</start>
                <end>160</end>
                <file id="file-161"/>
              </clipitem>
              <clipitem frameBlend="FALSE" id="clipitem-835">
                <name>Scene - LJ visemes.160.png</name>
                <masterclipid>masterclip-162</masterclipid>
                <rate>
                  <timebase>24</timebase>
                  <ntsc>FALSE</ntsc>
                </rate>
                <duration>1</duration>
                <enabled>TRUE</enabled>
                <alphatype>straight</alphatype>
                <rate>
                  <timebase>24</timebase>
                  <ntsc>FALSE</ntsc>
                </rate>
                <enabled>TRUE</enabled>
                <start>160</start>
                <end>161</end>
                <file id="file-162"/>
              </clipitem>
              <clipitem frameBlend="FALSE" id="clipitem-836">
                <name>Scene - LJ visemes.161.png</name>
                <masterclipid>masterclip-163</masterclipid>
                <rate>
                  <timebase>24</timebase>
                  <ntsc>FALSE</ntsc>
                </rate>
                <duration>1</duration>
                <enabled>TRUE</enabled>
                <alphatype>straight</alphatype>
                <rate>
                  <timebase>24</timebase>
                  <ntsc>FALSE</ntsc>
                </rate>
                <enabled>TRUE</enabled>
                <start>161</start>
                <end>162</end>
                <file id="file-163"/>
              </clipitem>
              <clipitem frameBlend="FALSE" id="clipitem-837">
                <name>Scene - LJ visemes.162.png</name>
                <masterclipid>masterclip-164</masterclipid>
                <rate>
                  <timebase>24</timebase>
                  <ntsc>FALSE</ntsc>
                </rate>
                <duration>1</duration>
                <enabled>TRUE</enabled>
                <alphatype>straight</alphatype>
                <rate>
                  <timebase>24</timebase>
                  <ntsc>FALSE</ntsc>
                </rate>
                <enabled>TRUE</enabled>
                <start>162</start>
                <end>163</end>
                <file id="file-164"/>
              </clipitem>
              <clipitem frameBlend="FALSE" id="clipitem-838">
                <name>Scene - LJ visemes.163.png</name>
                <masterclipid>masterclip-165</masterclipid>
                <rate>
                  <timebase>24</timebase>
                  <ntsc>FALSE</ntsc>
                </rate>
                <duration>1</duration>
                <enabled>TRUE</enabled>
                <alphatype>straight</alphatype>
                <rate>
                  <timebase>24</timebase>
                  <ntsc>FALSE</ntsc>
                </rate>
                <enabled>TRUE</enabled>
                <start>163</start>
                <end>164</end>
                <file id="file-165"/>
              </clipitem>
              <clipitem frameBlend="FALSE" id="clipitem-839">
                <name>Scene - LJ visemes.164.png</name>
                <masterclipid>masterclip-166</masterclipid>
                <rate>
                  <timebase>24</timebase>
                  <ntsc>FALSE</ntsc>
                </rate>
                <duration>1</duration>
                <enabled>TRUE</enabled>
                <alphatype>straight</alphatype>
                <rate>
                  <timebase>24</timebase>
                  <ntsc>FALSE</ntsc>
                </rate>
                <enabled>TRUE</enabled>
                <start>164</start>
                <end>165</end>
                <file id="file-166"/>
              </clipitem>
              <clipitem frameBlend="FALSE" id="clipitem-840">
                <name>Scene - LJ visemes.165.png</name>
                <masterclipid>masterclip-167</masterclipid>
                <rate>
                  <timebase>24</timebase>
                  <ntsc>FALSE</ntsc>
                </rate>
                <duration>1</duration>
                <enabled>TRUE</enabled>
                <alphatype>straight</alphatype>
                <rate>
                  <timebase>24</timebase>
                  <ntsc>FALSE</ntsc>
                </rate>
                <enabled>TRUE</enabled>
                <start>165</start>
                <end>166</end>
                <file id="file-167"/>
              </clipitem>
              <clipitem frameBlend="FALSE" id="clipitem-841">
                <name>Scene - LJ visemes.166.png</name>
                <masterclipid>masterclip-168</masterclipid>
                <rate>
                  <timebase>24</timebase>
                  <ntsc>FALSE</ntsc>
                </rate>
                <duration>1</duration>
                <enabled>TRUE</enabled>
                <alphatype>straight</alphatype>
                <rate>
                  <timebase>24</timebase>
                  <ntsc>FALSE</ntsc>
                </rate>
                <enabled>TRUE</enabled>
                <start>166</start>
                <end>167</end>
                <file id="file-168"/>
              </clipitem>
              <clipitem frameBlend="FALSE" id="clipitem-842">
                <name>Scene - LJ visemes.167.png</name>
                <masterclipid>masterclip-169</masterclipid>
                <rate>
                  <timebase>24</timebase>
                  <ntsc>FALSE</ntsc>
                </rate>
                <duration>1</duration>
                <enabled>TRUE</enabled>
                <alphatype>straight</alphatype>
                <rate>
                  <timebase>24</timebase>
                  <ntsc>FALSE</ntsc>
                </rate>
                <enabled>TRUE</enabled>
                <start>167</start>
                <end>168</end>
                <file id="file-169"/>
              </clipitem>
              <clipitem frameBlend="FALSE" id="clipitem-843">
                <name>Scene - LJ visemes.168.png</name>
                <masterclipid>masterclip-170</masterclipid>
                <rate>
                  <timebase>24</timebase>
                  <ntsc>FALSE</ntsc>
                </rate>
                <duration>1</duration>
                <enabled>TRUE</enabled>
                <alphatype>straight</alphatype>
                <rate>
                  <timebase>24</timebase>
                  <ntsc>FALSE</ntsc>
                </rate>
                <enabled>TRUE</enabled>
                <start>168</start>
                <end>169</end>
                <file id="file-170"/>
              </clipitem>
              <clipitem frameBlend="FALSE" id="clipitem-844">
                <name>Scene - LJ visemes.169.png</name>
                <masterclipid>masterclip-171</masterclipid>
                <rate>
                  <timebase>24</timebase>
                  <ntsc>FALSE</ntsc>
                </rate>
                <duration>1</duration>
                <enabled>TRUE</enabled>
                <alphatype>straight</alphatype>
                <rate>
                  <timebase>24</timebase>
                  <ntsc>FALSE</ntsc>
                </rate>
                <enabled>TRUE</enabled>
                <start>169</start>
                <end>170</end>
                <file id="file-171"/>
              </clipitem>
              <clipitem frameBlend="FALSE" id="clipitem-845">
                <name>Scene - LJ visemes.170.png</name>
                <masterclipid>masterclip-172</masterclipid>
                <rate>
                  <timebase>24</timebase>
                  <ntsc>FALSE</ntsc>
                </rate>
                <duration>1</duration>
                <enabled>TRUE</enabled>
                <alphatype>straight</alphatype>
                <rate>
                  <timebase>24</timebase>
                  <ntsc>FALSE</ntsc>
                </rate>
                <enabled>TRUE</enabled>
                <start>170</start>
                <end>171</end>
                <file id="file-172"/>
              </clipitem>
              <clipitem frameBlend="FALSE" id="clipitem-846">
                <name>Scene - LJ visemes.171.png</name>
                <masterclipid>masterclip-173</masterclipid>
                <rate>
                  <timebase>24</timebase>
                  <ntsc>FALSE</ntsc>
                </rate>
                <duration>1</duration>
                <enabled>TRUE</enabled>
                <alphatype>straight</alphatype>
                <rate>
                  <timebase>24</timebase>
                  <ntsc>FALSE</ntsc>
                </rate>
                <enabled>TRUE</enabled>
                <start>171</start>
                <end>172</end>
                <file id="file-173"/>
              </clipitem>
              <clipitem frameBlend="FALSE" id="clipitem-847">
                <name>Scene - LJ visemes.172.png</name>
                <masterclipid>masterclip-174</masterclipid>
                <rate>
                  <timebase>24</timebase>
                  <ntsc>FALSE</ntsc>
                </rate>
                <duration>1</duration>
                <enabled>TRUE</enabled>
                <alphatype>straight</alphatype>
                <rate>
                  <timebase>24</timebase>
                  <ntsc>FALSE</ntsc>
                </rate>
                <enabled>TRUE</enabled>
                <start>172</start>
                <end>173</end>
                <file id="file-174"/>
              </clipitem>
              <clipitem frameBlend="FALSE" id="clipitem-848">
                <name>Scene - LJ visemes.173.png</name>
                <masterclipid>masterclip-175</masterclipid>
                <rate>
                  <timebase>24</timebase>
                  <ntsc>FALSE</ntsc>
                </rate>
                <duration>1</duration>
                <enabled>TRUE</enabled>
                <alphatype>straight</alphatype>
                <rate>
                  <timebase>24</timebase>
                  <ntsc>FALSE</ntsc>
                </rate>
                <enabled>TRUE</enabled>
                <start>173</start>
                <end>174</end>
                <file id="file-175"/>
              </clipitem>
              <clipitem frameBlend="FALSE" id="clipitem-849">
                <name>Scene - LJ visemes.174.png</name>
                <masterclipid>masterclip-176</masterclipid>
                <rate>
                  <timebase>24</timebase>
                  <ntsc>FALSE</ntsc>
                </rate>
                <duration>1</duration>
                <enabled>TRUE</enabled>
                <alphatype>straight</alphatype>
                <rate>
                  <timebase>24</timebase>
                  <ntsc>FALSE</ntsc>
                </rate>
                <enabled>TRUE</enabled>
                <start>174</start>
                <end>175</end>
                <file id="file-176"/>
              </clipitem>
              <clipitem frameBlend="FALSE" id="clipitem-850">
                <name>Scene - LJ visemes.175.png</name>
                <masterclipid>masterclip-177</masterclipid>
                <rate>
                  <timebase>24</timebase>
                  <ntsc>FALSE</ntsc>
                </rate>
                <duration>1</duration>
                <enabled>TRUE</enabled>
                <alphatype>straight</alphatype>
                <rate>
                  <timebase>24</timebase>
                  <ntsc>FALSE</ntsc>
                </rate>
                <enabled>TRUE</enabled>
                <start>175</start>
                <end>176</end>
                <file id="file-177"/>
              </clipitem>
              <clipitem frameBlend="FALSE" id="clipitem-851">
                <name>Scene - LJ visemes.176.png</name>
                <masterclipid>masterclip-178</masterclipid>
                <rate>
                  <timebase>24</timebase>
                  <ntsc>FALSE</ntsc>
                </rate>
                <duration>1</duration>
                <enabled>TRUE</enabled>
                <alphatype>straight</alphatype>
                <rate>
                  <timebase>24</timebase>
                  <ntsc>FALSE</ntsc>
                </rate>
                <enabled>TRUE</enabled>
                <start>176</start>
                <end>177</end>
                <file id="file-178"/>
              </clipitem>
              <clipitem frameBlend="FALSE" id="clipitem-852">
                <name>Scene - LJ visemes.177.png</name>
                <masterclipid>masterclip-179</masterclipid>
                <rate>
                  <timebase>24</timebase>
                  <ntsc>FALSE</ntsc>
                </rate>
                <duration>1</duration>
                <enabled>TRUE</enabled>
                <alphatype>straight</alphatype>
                <rate>
                  <timebase>24</timebase>
                  <ntsc>FALSE</ntsc>
                </rate>
                <enabled>TRUE</enabled>
                <start>177</start>
                <end>178</end>
                <file id="file-179"/>
              </clipitem>
              <clipitem frameBlend="FALSE" id="clipitem-853">
                <name>Scene - LJ visemes.178.png</name>
                <masterclipid>masterclip-180</masterclipid>
                <rate>
                  <timebase>24</timebase>
                  <ntsc>FALSE</ntsc>
                </rate>
                <duration>1</duration>
                <enabled>TRUE</enabled>
                <alphatype>straight</alphatype>
                <rate>
                  <timebase>24</timebase>
                  <ntsc>FALSE</ntsc>
                </rate>
                <enabled>TRUE</enabled>
                <start>178</start>
                <end>179</end>
                <file id="file-180"/>
              </clipitem>
              <clipitem frameBlend="FALSE" id="clipitem-854">
                <name>Scene - LJ visemes.179.png</name>
                <masterclipid>masterclip-181</masterclipid>
                <rate>
                  <timebase>24</timebase>
                  <ntsc>FALSE</ntsc>
                </rate>
                <duration>1</duration>
                <enabled>TRUE</enabled>
                <alphatype>straight</alphatype>
                <rate>
                  <timebase>24</timebase>
                  <ntsc>FALSE</ntsc>
                </rate>
                <enabled>TRUE</enabled>
                <start>179</start>
                <end>180</end>
                <file id="file-181"/>
              </clipitem>
              <clipitem frameBlend="FALSE" id="clipitem-855">
                <name>Scene - LJ visemes.180.png</name>
                <masterclipid>masterclip-182</masterclipid>
                <rate>
                  <timebase>24</timebase>
                  <ntsc>FALSE</ntsc>
                </rate>
                <duration>1</duration>
                <enabled>TRUE</enabled>
                <alphatype>straight</alphatype>
                <rate>
                  <timebase>24</timebase>
                  <ntsc>FALSE</ntsc>
                </rate>
                <enabled>TRUE</enabled>
                <start>180</start>
                <end>181</end>
                <file id="file-182"/>
              </clipitem>
              <clipitem frameBlend="FALSE" id="clipitem-856">
                <name>Scene - LJ visemes.181.png</name>
                <masterclipid>masterclip-183</masterclipid>
                <rate>
                  <timebase>24</timebase>
                  <ntsc>FALSE</ntsc>
                </rate>
                <duration>1</duration>
                <enabled>TRUE</enabled>
                <alphatype>straight</alphatype>
                <rate>
                  <timebase>24</timebase>
                  <ntsc>FALSE</ntsc>
                </rate>
                <enabled>TRUE</enabled>
                <start>181</start>
                <end>182</end>
                <file id="file-183"/>
              </clipitem>
              <clipitem frameBlend="FALSE" id="clipitem-857">
                <name>Scene - LJ visemes.182.png</name>
                <masterclipid>masterclip-184</masterclipid>
                <rate>
                  <timebase>24</timebase>
                  <ntsc>FALSE</ntsc>
                </rate>
                <duration>1</duration>
                <enabled>TRUE</enabled>
                <alphatype>straight</alphatype>
                <rate>
                  <timebase>24</timebase>
                  <ntsc>FALSE</ntsc>
                </rate>
                <enabled>TRUE</enabled>
                <start>182</start>
                <end>183</end>
                <file id="file-184"/>
              </clipitem>
              <clipitem frameBlend="FALSE" id="clipitem-858">
                <name>Scene - LJ visemes.183.png</name>
                <masterclipid>masterclip-185</masterclipid>
                <rate>
                  <timebase>24</timebase>
                  <ntsc>FALSE</ntsc>
                </rate>
                <duration>1</duration>
                <enabled>TRUE</enabled>
                <alphatype>straight</alphatype>
                <rate>
                  <timebase>24</timebase>
                  <ntsc>FALSE</ntsc>
                </rate>
                <enabled>TRUE</enabled>
                <start>183</start>
                <end>184</end>
                <file id="file-185"/>
              </clipitem>
              <clipitem frameBlend="FALSE" id="clipitem-859">
                <name>Scene - LJ visemes.184.png</name>
                <masterclipid>masterclip-186</masterclipid>
                <rate>
                  <timebase>24</timebase>
                  <ntsc>FALSE</ntsc>
                </rate>
                <duration>1</duration>
                <enabled>TRUE</enabled>
                <alphatype>straight</alphatype>
                <rate>
                  <timebase>24</timebase>
                  <ntsc>FALSE</ntsc>
                </rate>
                <enabled>TRUE</enabled>
                <start>184</start>
                <end>185</end>
                <file id="file-186"/>
              </clipitem>
              <clipitem frameBlend="FALSE" id="clipitem-860">
                <name>Scene - LJ visemes.185.png</name>
                <masterclipid>masterclip-187</masterclipid>
                <rate>
                  <timebase>24</timebase>
                  <ntsc>FALSE</ntsc>
                </rate>
                <duration>1</duration>
                <enabled>TRUE</enabled>
                <alphatype>straight</alphatype>
                <rate>
                  <timebase>24</timebase>
                  <ntsc>FALSE</ntsc>
                </rate>
                <enabled>TRUE</enabled>
                <start>185</start>
                <end>186</end>
                <file id="file-187"/>
              </clipitem>
              <clipitem frameBlend="FALSE" id="clipitem-861">
                <name>Scene - LJ visemes.186.png</name>
                <masterclipid>masterclip-188</masterclipid>
                <rate>
                  <timebase>24</timebase>
                  <ntsc>FALSE</ntsc>
                </rate>
                <duration>1</duration>
                <enabled>TRUE</enabled>
                <alphatype>straight</alphatype>
                <rate>
                  <timebase>24</timebase>
                  <ntsc>FALSE</ntsc>
                </rate>
                <enabled>TRUE</enabled>
                <start>186</start>
                <end>187</end>
                <file id="file-188"/>
              </clipitem>
              <clipitem frameBlend="FALSE" id="clipitem-862">
                <name>Scene - LJ visemes.187.png</name>
                <masterclipid>masterclip-189</masterclipid>
                <rate>
                  <timebase>24</timebase>
                  <ntsc>FALSE</ntsc>
                </rate>
                <duration>1</duration>
                <enabled>TRUE</enabled>
                <alphatype>straight</alphatype>
                <rate>
                  <timebase>24</timebase>
                  <ntsc>FALSE</ntsc>
                </rate>
                <enabled>TRUE</enabled>
                <start>187</start>
                <end>188</end>
                <file id="file-189"/>
              </clipitem>
              <clipitem frameBlend="FALSE" id="clipitem-863">
                <name>Scene - LJ visemes.188.png</name>
                <masterclipid>masterclip-190</masterclipid>
                <rate>
                  <timebase>24</timebase>
                  <ntsc>FALSE</ntsc>
                </rate>
                <duration>1</duration>
                <enabled>TRUE</enabled>
                <alphatype>straight</alphatype>
                <rate>
                  <timebase>24</timebase>
                  <ntsc>FALSE</ntsc>
                </rate>
                <enabled>TRUE</enabled>
                <start>188</start>
                <end>189</end>
                <file id="file-190"/>
              </clipitem>
              <clipitem frameBlend="FALSE" id="clipitem-864">
                <name>Scene - LJ visemes.189.png</name>
                <masterclipid>masterclip-191</masterclipid>
                <rate>
                  <timebase>24</timebase>
                  <ntsc>FALSE</ntsc>
                </rate>
                <duration>1</duration>
                <enabled>TRUE</enabled>
                <alphatype>straight</alphatype>
                <rate>
                  <timebase>24</timebase>
                  <ntsc>FALSE</ntsc>
                </rate>
                <enabled>TRUE</enabled>
                <start>189</start>
                <end>190</end>
                <file id="file-191"/>
              </clipitem>
              <clipitem frameBlend="FALSE" id="clipitem-865">
                <name>Scene - LJ visemes.190.png</name>
                <masterclipid>masterclip-192</masterclipid>
                <rate>
                  <timebase>24</timebase>
                  <ntsc>FALSE</ntsc>
                </rate>
                <duration>1</duration>
                <enabled>TRUE</enabled>
                <alphatype>straight</alphatype>
                <rate>
                  <timebase>24</timebase>
                  <ntsc>FALSE</ntsc>
                </rate>
                <enabled>TRUE</enabled>
                <start>190</start>
                <end>191</end>
                <file id="file-192"/>
              </clipitem>
              <clipitem frameBlend="FALSE" id="clipitem-866">
                <name>Scene - LJ visemes.191.png</name>
                <masterclipid>masterclip-193</masterclipid>
                <rate>
                  <timebase>24</timebase>
                  <ntsc>FALSE</ntsc>
                </rate>
                <duration>1</duration>
                <enabled>TRUE</enabled>
                <alphatype>straight</alphatype>
                <rate>
                  <timebase>24</timebase>
                  <ntsc>FALSE</ntsc>
                </rate>
                <enabled>TRUE</enabled>
                <start>191</start>
                <end>192</end>
                <file id="file-193"/>
              </clipitem>
              <clipitem frameBlend="FALSE" id="clipitem-867">
                <name>Scene - LJ visemes.192.png</name>
                <masterclipid>masterclip-194</masterclipid>
                <rate>
                  <timebase>24</timebase>
                  <ntsc>FALSE</ntsc>
                </rate>
                <duration>1</duration>
                <enabled>TRUE</enabled>
                <alphatype>straight</alphatype>
                <rate>
                  <timebase>24</timebase>
                  <ntsc>FALSE</ntsc>
                </rate>
                <enabled>TRUE</enabled>
                <start>192</start>
                <end>193</end>
                <file id="file-194"/>
              </clipitem>
              <clipitem frameBlend="FALSE" id="clipitem-868">
                <name>Scene - LJ visemes.193.png</name>
                <masterclipid>masterclip-195</masterclipid>
                <rate>
                  <timebase>24</timebase>
                  <ntsc>FALSE</ntsc>
                </rate>
                <duration>1</duration>
                <enabled>TRUE</enabled>
                <alphatype>straight</alphatype>
                <rate>
                  <timebase>24</timebase>
                  <ntsc>FALSE</ntsc>
                </rate>
                <enabled>TRUE</enabled>
                <start>193</start>
                <end>194</end>
                <file id="file-195"/>
              </clipitem>
              <clipitem frameBlend="FALSE" id="clipitem-869">
                <name>Scene - LJ visemes.194.png</name>
                <masterclipid>masterclip-196</masterclipid>
                <rate>
                  <timebase>24</timebase>
                  <ntsc>FALSE</ntsc>
                </rate>
                <duration>1</duration>
                <enabled>TRUE</enabled>
                <alphatype>straight</alphatype>
                <rate>
                  <timebase>24</timebase>
                  <ntsc>FALSE</ntsc>
                </rate>
                <enabled>TRUE</enabled>
                <start>194</start>
                <end>195</end>
                <file id="file-196"/>
              </clipitem>
              <clipitem frameBlend="FALSE" id="clipitem-870">
                <name>Scene - LJ visemes.195.png</name>
                <masterclipid>masterclip-197</masterclipid>
                <rate>
                  <timebase>24</timebase>
                  <ntsc>FALSE</ntsc>
                </rate>
                <duration>1</duration>
                <enabled>TRUE</enabled>
                <alphatype>straight</alphatype>
                <rate>
                  <timebase>24</timebase>
                  <ntsc>FALSE</ntsc>
                </rate>
                <enabled>TRUE</enabled>
                <start>195</start>
                <end>196</end>
                <file id="file-197"/>
              </clipitem>
              <clipitem frameBlend="FALSE" id="clipitem-871">
                <name>Scene - LJ visemes.196.png</name>
                <masterclipid>masterclip-198</masterclipid>
                <rate>
                  <timebase>24</timebase>
                  <ntsc>FALSE</ntsc>
                </rate>
                <duration>1</duration>
                <enabled>TRUE</enabled>
                <alphatype>straight</alphatype>
                <rate>
                  <timebase>24</timebase>
                  <ntsc>FALSE</ntsc>
                </rate>
                <enabled>TRUE</enabled>
                <start>196</start>
                <end>197</end>
                <file id="file-198"/>
              </clipitem>
              <clipitem frameBlend="FALSE" id="clipitem-872">
                <name>Scene - LJ visemes.197.png</name>
                <masterclipid>masterclip-199</masterclipid>
                <rate>
                  <timebase>24</timebase>
                  <ntsc>FALSE</ntsc>
                </rate>
                <duration>1</duration>
                <enabled>TRUE</enabled>
                <alphatype>straight</alphatype>
                <rate>
                  <timebase>24</timebase>
                  <ntsc>FALSE</ntsc>
                </rate>
                <enabled>TRUE</enabled>
                <start>197</start>
                <end>198</end>
                <file id="file-199"/>
              </clipitem>
              <clipitem frameBlend="FALSE" id="clipitem-873">
                <name>Scene - LJ visemes.198.png</name>
                <masterclipid>masterclip-200</masterclipid>
                <rate>
                  <timebase>24</timebase>
                  <ntsc>FALSE</ntsc>
                </rate>
                <duration>1</duration>
                <enabled>TRUE</enabled>
                <alphatype>straight</alphatype>
                <rate>
                  <timebase>24</timebase>
                  <ntsc>FALSE</ntsc>
                </rate>
                <enabled>TRUE</enabled>
                <start>198</start>
                <end>199</end>
                <file id="file-200"/>
              </clipitem>
              <clipitem frameBlend="FALSE" id="clipitem-874">
                <name>Scene - LJ visemes.199.png</name>
                <masterclipid>masterclip-201</masterclipid>
                <rate>
                  <timebase>24</timebase>
                  <ntsc>FALSE</ntsc>
                </rate>
                <duration>1</duration>
                <enabled>TRUE</enabled>
                <alphatype>straight</alphatype>
                <rate>
                  <timebase>24</timebase>
                  <ntsc>FALSE</ntsc>
                </rate>
                <enabled>TRUE</enabled>
                <start>199</start>
                <end>200</end>
                <file id="file-201"/>
              </clipitem>
              <clipitem frameBlend="FALSE" id="clipitem-875">
                <name>Scene - LJ visemes.200.png</name>
                <masterclipid>masterclip-202</masterclipid>
                <rate>
                  <timebase>24</timebase>
                  <ntsc>FALSE</ntsc>
                </rate>
                <duration>1</duration>
                <enabled>TRUE</enabled>
                <alphatype>straight</alphatype>
                <rate>
                  <timebase>24</timebase>
                  <ntsc>FALSE</ntsc>
                </rate>
                <enabled>TRUE</enabled>
                <start>200</start>
                <end>201</end>
                <file id="file-202"/>
              </clipitem>
              <clipitem frameBlend="FALSE" id="clipitem-876">
                <name>Scene - LJ visemes.201.png</name>
                <masterclipid>masterclip-203</masterclipid>
                <rate>
                  <timebase>24</timebase>
                  <ntsc>FALSE</ntsc>
                </rate>
                <duration>1</duration>
                <enabled>TRUE</enabled>
                <alphatype>straight</alphatype>
                <rate>
                  <timebase>24</timebase>
                  <ntsc>FALSE</ntsc>
                </rate>
                <enabled>TRUE</enabled>
                <start>201</start>
                <end>202</end>
                <file id="file-203"/>
              </clipitem>
              <clipitem frameBlend="FALSE" id="clipitem-877">
                <name>Scene - LJ visemes.202.png</name>
                <masterclipid>masterclip-204</masterclipid>
                <rate>
                  <timebase>24</timebase>
                  <ntsc>FALSE</ntsc>
                </rate>
                <duration>1</duration>
                <enabled>TRUE</enabled>
                <alphatype>straight</alphatype>
                <rate>
                  <timebase>24</timebase>
                  <ntsc>FALSE</ntsc>
                </rate>
                <enabled>TRUE</enabled>
                <start>202</start>
                <end>203</end>
                <file id="file-204"/>
              </clipitem>
              <clipitem frameBlend="FALSE" id="clipitem-878">
                <name>Scene - LJ visemes.203.png</name>
                <masterclipid>masterclip-205</masterclipid>
                <rate>
                  <timebase>24</timebase>
                  <ntsc>FALSE</ntsc>
                </rate>
                <duration>1</duration>
                <enabled>TRUE</enabled>
                <alphatype>straight</alphatype>
                <rate>
                  <timebase>24</timebase>
                  <ntsc>FALSE</ntsc>
                </rate>
                <enabled>TRUE</enabled>
                <start>203</start>
                <end>204</end>
                <file id="file-205"/>
              </clipitem>
              <clipitem frameBlend="FALSE" id="clipitem-879">
                <name>Scene - LJ visemes.204.png</name>
                <masterclipid>masterclip-206</masterclipid>
                <rate>
                  <timebase>24</timebase>
                  <ntsc>FALSE</ntsc>
                </rate>
                <duration>1</duration>
                <enabled>TRUE</enabled>
                <alphatype>straight</alphatype>
                <rate>
                  <timebase>24</timebase>
                  <ntsc>FALSE</ntsc>
                </rate>
                <enabled>TRUE</enabled>
                <start>204</start>
                <end>205</end>
                <file id="file-206"/>
              </clipitem>
              <clipitem frameBlend="FALSE" id="clipitem-880">
                <name>Scene - LJ visemes.205.png</name>
                <masterclipid>masterclip-207</masterclipid>
                <rate>
                  <timebase>24</timebase>
                  <ntsc>FALSE</ntsc>
                </rate>
                <duration>1</duration>
                <enabled>TRUE</enabled>
                <alphatype>straight</alphatype>
                <rate>
                  <timebase>24</timebase>
                  <ntsc>FALSE</ntsc>
                </rate>
                <enabled>TRUE</enabled>
                <start>205</start>
                <end>206</end>
                <file id="file-207"/>
              </clipitem>
              <clipitem frameBlend="FALSE" id="clipitem-881">
                <name>Scene - LJ visemes.206.png</name>
                <masterclipid>masterclip-208</masterclipid>
                <rate>
                  <timebase>24</timebase>
                  <ntsc>FALSE</ntsc>
                </rate>
                <duration>1</duration>
                <enabled>TRUE</enabled>
                <alphatype>straight</alphatype>
                <rate>
                  <timebase>24</timebase>
                  <ntsc>FALSE</ntsc>
                </rate>
                <enabled>TRUE</enabled>
                <start>206</start>
                <end>207</end>
                <file id="file-208"/>
              </clipitem>
              <clipitem frameBlend="FALSE" id="clipitem-882">
                <name>Scene - LJ visemes.207.png</name>
                <masterclipid>masterclip-209</masterclipid>
                <rate>
                  <timebase>24</timebase>
                  <ntsc>FALSE</ntsc>
                </rate>
                <duration>1</duration>
                <enabled>TRUE</enabled>
                <alphatype>straight</alphatype>
                <rate>
                  <timebase>24</timebase>
                  <ntsc>FALSE</ntsc>
                </rate>
                <enabled>TRUE</enabled>
                <start>207</start>
                <end>208</end>
                <file id="file-209"/>
              </clipitem>
              <clipitem frameBlend="FALSE" id="clipitem-883">
                <name>Scene - LJ visemes.208.png</name>
                <masterclipid>masterclip-210</masterclipid>
                <rate>
                  <timebase>24</timebase>
                  <ntsc>FALSE</ntsc>
                </rate>
                <duration>1</duration>
                <enabled>TRUE</enabled>
                <alphatype>straight</alphatype>
                <rate>
                  <timebase>24</timebase>
                  <ntsc>FALSE</ntsc>
                </rate>
                <enabled>TRUE</enabled>
                <start>208</start>
                <end>209</end>
                <file id="file-210"/>
              </clipitem>
              <clipitem frameBlend="FALSE" id="clipitem-884">
                <name>Scene - LJ visemes.209.png</name>
                <masterclipid>masterclip-211</masterclipid>
                <rate>
                  <timebase>24</timebase>
                  <ntsc>FALSE</ntsc>
                </rate>
                <duration>1</duration>
                <enabled>TRUE</enabled>
                <alphatype>straight</alphatype>
                <rate>
                  <timebase>24</timebase>
                  <ntsc>FALSE</ntsc>
                </rate>
                <enabled>TRUE</enabled>
                <start>209</start>
                <end>210</end>
                <file id="file-211"/>
              </clipitem>
              <clipitem frameBlend="FALSE" id="clipitem-885">
                <name>Scene - LJ visemes.210.png</name>
                <masterclipid>masterclip-212</masterclipid>
                <rate>
                  <timebase>24</timebase>
                  <ntsc>FALSE</ntsc>
                </rate>
                <duration>1</duration>
                <enabled>TRUE</enabled>
                <alphatype>straight</alphatype>
                <rate>
                  <timebase>24</timebase>
                  <ntsc>FALSE</ntsc>
                </rate>
                <enabled>TRUE</enabled>
                <start>210</start>
                <end>211</end>
                <file id="file-212"/>
              </clipitem>
              <clipitem frameBlend="FALSE" id="clipitem-886">
                <name>Scene - LJ visemes.211.png</name>
                <masterclipid>masterclip-213</masterclipid>
                <rate>
                  <timebase>24</timebase>
                  <ntsc>FALSE</ntsc>
                </rate>
                <duration>1</duration>
                <enabled>TRUE</enabled>
                <alphatype>straight</alphatype>
                <rate>
                  <timebase>24</timebase>
                  <ntsc>FALSE</ntsc>
                </rate>
                <enabled>TRUE</enabled>
                <start>211</start>
                <end>212</end>
                <file id="file-213"/>
              </clipitem>
              <clipitem frameBlend="FALSE" id="clipitem-887">
                <name>Scene - LJ visemes.212.png</name>
                <masterclipid>masterclip-214</masterclipid>
                <rate>
                  <timebase>24</timebase>
                  <ntsc>FALSE</ntsc>
                </rate>
                <duration>1</duration>
                <enabled>TRUE</enabled>
                <alphatype>straight</alphatype>
                <rate>
                  <timebase>24</timebase>
                  <ntsc>FALSE</ntsc>
                </rate>
                <enabled>TRUE</enabled>
                <start>212</start>
                <end>213</end>
                <file id="file-214"/>
              </clipitem>
              <clipitem frameBlend="FALSE" id="clipitem-888">
                <name>Scene - LJ visemes.213.png</name>
                <masterclipid>masterclip-215</masterclipid>
                <rate>
                  <timebase>24</timebase>
                  <ntsc>FALSE</ntsc>
                </rate>
                <duration>1</duration>
                <enabled>TRUE</enabled>
                <alphatype>straight</alphatype>
                <rate>
                  <timebase>24</timebase>
                  <ntsc>FALSE</ntsc>
                </rate>
                <enabled>TRUE</enabled>
                <start>213</start>
                <end>214</end>
                <file id="file-215"/>
              </clipitem>
              <clipitem frameBlend="FALSE" id="clipitem-889">
                <name>Scene - LJ visemes.214.png</name>
                <masterclipid>masterclip-216</masterclipid>
                <rate>
                  <timebase>24</timebase>
                  <ntsc>FALSE</ntsc>
                </rate>
                <duration>1</duration>
                <enabled>TRUE</enabled>
                <alphatype>straight</alphatype>
                <rate>
                  <timebase>24</timebase>
                  <ntsc>FALSE</ntsc>
                </rate>
                <enabled>TRUE</enabled>
                <start>214</start>
                <end>215</end>
                <file id="file-216"/>
              </clipitem>
              <clipitem frameBlend="FALSE" id="clipitem-890">
                <name>Scene - LJ visemes.215.png</name>
                <masterclipid>masterclip-217</masterclipid>
                <rate>
                  <timebase>24</timebase>
                  <ntsc>FALSE</ntsc>
                </rate>
                <duration>1</duration>
                <enabled>TRUE</enabled>
                <alphatype>straight</alphatype>
                <rate>
                  <timebase>24</timebase>
                  <ntsc>FALSE</ntsc>
                </rate>
                <enabled>TRUE</enabled>
                <start>215</start>
                <end>216</end>
                <file id="file-217"/>
              </clipitem>
              <clipitem frameBlend="FALSE" id="clipitem-891">
                <name>Scene - LJ visemes.216.png</name>
                <masterclipid>masterclip-218</masterclipid>
                <rate>
                  <timebase>24</timebase>
                  <ntsc>FALSE</ntsc>
                </rate>
                <duration>1</duration>
                <enabled>TRUE</enabled>
                <alphatype>straight</alphatype>
                <rate>
                  <timebase>24</timebase>
                  <ntsc>FALSE</ntsc>
                </rate>
                <enabled>TRUE</enabled>
                <start>216</start>
                <end>217</end>
                <file id="file-218"/>
              </clipitem>
              <clipitem frameBlend="FALSE" id="clipitem-892">
                <name>Scene - LJ visemes.217.png</name>
                <masterclipid>masterclip-219</masterclipid>
                <rate>
                  <timebase>24</timebase>
                  <ntsc>FALSE</ntsc>
                </rate>
                <duration>1</duration>
                <enabled>TRUE</enabled>
                <alphatype>straight</alphatype>
                <rate>
                  <timebase>24</timebase>
                  <ntsc>FALSE</ntsc>
                </rate>
                <enabled>TRUE</enabled>
                <start>217</start>
                <end>218</end>
                <file id="file-219"/>
              </clipitem>
              <clipitem frameBlend="FALSE" id="clipitem-893">
                <name>Scene - LJ visemes.218.png</name>
                <masterclipid>masterclip-220</masterclipid>
                <rate>
                  <timebase>24</timebase>
                  <ntsc>FALSE</ntsc>
                </rate>
                <duration>1</duration>
                <enabled>TRUE</enabled>
                <alphatype>straight</alphatype>
                <rate>
                  <timebase>24</timebase>
                  <ntsc>FALSE</ntsc>
                </rate>
                <enabled>TRUE</enabled>
                <start>218</start>
                <end>219</end>
                <file id="file-220"/>
              </clipitem>
              <clipitem frameBlend="FALSE" id="clipitem-894">
                <name>Scene - LJ visemes.219.png</name>
                <masterclipid>masterclip-221</masterclipid>
                <rate>
                  <timebase>24</timebase>
                  <ntsc>FALSE</ntsc>
                </rate>
                <duration>1</duration>
                <enabled>TRUE</enabled>
                <alphatype>straight</alphatype>
                <rate>
                  <timebase>24</timebase>
                  <ntsc>FALSE</ntsc>
                </rate>
                <enabled>TRUE</enabled>
                <start>219</start>
                <end>220</end>
                <file id="file-221"/>
              </clipitem>
              <clipitem frameBlend="FALSE" id="clipitem-895">
                <name>Scene - LJ visemes.220.png</name>
                <masterclipid>masterclip-222</masterclipid>
                <rate>
                  <timebase>24</timebase>
                  <ntsc>FALSE</ntsc>
                </rate>
                <duration>1</duration>
                <enabled>TRUE</enabled>
                <alphatype>straight</alphatype>
                <rate>
                  <timebase>24</timebase>
                  <ntsc>FALSE</ntsc>
                </rate>
                <enabled>TRUE</enabled>
                <start>220</start>
                <end>221</end>
                <file id="file-222"/>
              </clipitem>
              <clipitem frameBlend="FALSE" id="clipitem-896">
                <name>Scene - LJ visemes.221.png</name>
                <masterclipid>masterclip-223</masterclipid>
                <rate>
                  <timebase>24</timebase>
                  <ntsc>FALSE</ntsc>
                </rate>
                <duration>1</duration>
                <enabled>TRUE</enabled>
                <alphatype>straight</alphatype>
                <rate>
                  <timebase>24</timebase>
                  <ntsc>FALSE</ntsc>
                </rate>
                <enabled>TRUE</enabled>
                <start>221</start>
                <end>222</end>
                <file id="file-223"/>
              </clipitem>
              <clipitem frameBlend="FALSE" id="clipitem-897">
                <name>Scene - LJ visemes.222.png</name>
                <masterclipid>masterclip-224</masterclipid>
                <rate>
                  <timebase>24</timebase>
                  <ntsc>FALSE</ntsc>
                </rate>
                <duration>1</duration>
                <enabled>TRUE</enabled>
                <alphatype>straight</alphatype>
                <rate>
                  <timebase>24</timebase>
                  <ntsc>FALSE</ntsc>
                </rate>
                <enabled>TRUE</enabled>
                <start>222</start>
                <end>223</end>
                <file id="file-224"/>
              </clipitem>
              <clipitem frameBlend="FALSE" id="clipitem-898">
                <name>Scene - LJ visemes.223.png</name>
                <masterclipid>masterclip-225</masterclipid>
                <rate>
                  <timebase>24</timebase>
                  <ntsc>FALSE</ntsc>
                </rate>
                <duration>1</duration>
                <enabled>TRUE</enabled>
                <alphatype>straight</alphatype>
                <rate>
                  <timebase>24</timebase>
                  <ntsc>FALSE</ntsc>
                </rate>
                <enabled>TRUE</enabled>
                <start>223</start>
                <end>224</end>
                <file id="file-225"/>
              </clipitem>
              <clipitem frameBlend="FALSE" id="clipitem-899">
                <name>Scene - LJ visemes.224.png</name>
                <masterclipid>masterclip-226</masterclipid>
                <rate>
                  <timebase>24</timebase>
                  <ntsc>FALSE</ntsc>
                </rate>
                <duration>1</duration>
                <enabled>TRUE</enabled>
                <alphatype>straight</alphatype>
                <rate>
                  <timebase>24</timebase>
                  <ntsc>FALSE</ntsc>
                </rate>
                <enabled>TRUE</enabled>
                <start>224</start>
                <end>225</end>
                <file id="file-226"/>
              </clipitem>
              <clipitem frameBlend="FALSE" id="clipitem-900">
                <name>Scene - LJ visemes.225.png</name>
                <masterclipid>masterclip-227</masterclipid>
                <rate>
                  <timebase>24</timebase>
                  <ntsc>FALSE</ntsc>
                </rate>
                <duration>1</duration>
                <enabled>TRUE</enabled>
                <alphatype>straight</alphatype>
                <rate>
                  <timebase>24</timebase>
                  <ntsc>FALSE</ntsc>
                </rate>
                <enabled>TRUE</enabled>
                <start>225</start>
                <end>226</end>
                <file id="file-227"/>
              </clipitem>
              <clipitem frameBlend="FALSE" id="clipitem-901">
                <name>Scene - LJ visemes.226.png</name>
                <masterclipid>masterclip-228</masterclipid>
                <rate>
                  <timebase>24</timebase>
                  <ntsc>FALSE</ntsc>
                </rate>
                <duration>1</duration>
                <enabled>TRUE</enabled>
                <alphatype>straight</alphatype>
                <rate>
                  <timebase>24</timebase>
                  <ntsc>FALSE</ntsc>
                </rate>
                <enabled>TRUE</enabled>
                <start>226</start>
                <end>227</end>
                <file id="file-228"/>
              </clipitem>
              <clipitem frameBlend="FALSE" id="clipitem-902">
                <name>Scene - LJ visemes.227.png</name>
                <masterclipid>masterclip-229</masterclipid>
                <rate>
                  <timebase>24</timebase>
                  <ntsc>FALSE</ntsc>
                </rate>
                <duration>1</duration>
                <enabled>TRUE</enabled>
                <alphatype>straight</alphatype>
                <rate>
                  <timebase>24</timebase>
                  <ntsc>FALSE</ntsc>
                </rate>
                <enabled>TRUE</enabled>
                <start>227</start>
                <end>228</end>
                <file id="file-229"/>
              </clipitem>
              <clipitem frameBlend="FALSE" id="clipitem-903">
                <name>Scene - LJ visemes.228.png</name>
                <masterclipid>masterclip-230</masterclipid>
                <rate>
                  <timebase>24</timebase>
                  <ntsc>FALSE</ntsc>
                </rate>
                <duration>1</duration>
                <enabled>TRUE</enabled>
                <alphatype>straight</alphatype>
                <rate>
                  <timebase>24</timebase>
                  <ntsc>FALSE</ntsc>
                </rate>
                <enabled>TRUE</enabled>
                <start>228</start>
                <end>229</end>
                <file id="file-230"/>
              </clipitem>
              <clipitem frameBlend="FALSE" id="clipitem-904">
                <name>Scene - LJ visemes.229.png</name>
                <masterclipid>masterclip-231</masterclipid>
                <rate>
                  <timebase>24</timebase>
                  <ntsc>FALSE</ntsc>
                </rate>
                <duration>1</duration>
                <enabled>TRUE</enabled>
                <alphatype>straight</alphatype>
                <rate>
                  <timebase>24</timebase>
                  <ntsc>FALSE</ntsc>
                </rate>
                <enabled>TRUE</enabled>
                <start>229</start>
                <end>230</end>
                <file id="file-231"/>
              </clipitem>
              <clipitem frameBlend="FALSE" id="clipitem-905">
                <name>Scene - LJ visemes.230.png</name>
                <masterclipid>masterclip-232</masterclipid>
                <rate>
                  <timebase>24</timebase>
                  <ntsc>FALSE</ntsc>
                </rate>
                <duration>1</duration>
                <enabled>TRUE</enabled>
                <alphatype>straight</alphatype>
                <rate>
                  <timebase>24</timebase>
                  <ntsc>FALSE</ntsc>
                </rate>
                <enabled>TRUE</enabled>
                <start>230</start>
                <end>231</end>
                <file id="file-232"/>
              </clipitem>
              <clipitem frameBlend="FALSE" id="clipitem-906">
                <name>Scene - LJ visemes.231.png</name>
                <masterclipid>masterclip-233</masterclipid>
                <rate>
                  <timebase>24</timebase>
                  <ntsc>FALSE</ntsc>
                </rate>
                <duration>1</duration>
                <enabled>TRUE</enabled>
                <alphatype>straight</alphatype>
                <rate>
                  <timebase>24</timebase>
                  <ntsc>FALSE</ntsc>
                </rate>
                <enabled>TRUE</enabled>
                <start>231</start>
                <end>232</end>
                <file id="file-233"/>
              </clipitem>
              <clipitem frameBlend="FALSE" id="clipitem-907">
                <name>Scene - LJ visemes.232.png</name>
                <masterclipid>masterclip-234</masterclipid>
                <rate>
                  <timebase>24</timebase>
                  <ntsc>FALSE</ntsc>
                </rate>
                <duration>1</duration>
                <enabled>TRUE</enabled>
                <alphatype>straight</alphatype>
                <rate>
                  <timebase>24</timebase>
                  <ntsc>FALSE</ntsc>
                </rate>
                <enabled>TRUE</enabled>
                <start>232</start>
                <end>233</end>
                <file id="file-234"/>
              </clipitem>
              <clipitem frameBlend="FALSE" id="clipitem-908">
                <name>Scene - LJ visemes.233.png</name>
                <masterclipid>masterclip-235</masterclipid>
                <rate>
                  <timebase>24</timebase>
                  <ntsc>FALSE</ntsc>
                </rate>
                <duration>1</duration>
                <enabled>TRUE</enabled>
                <alphatype>straight</alphatype>
                <rate>
                  <timebase>24</timebase>
                  <ntsc>FALSE</ntsc>
                </rate>
                <enabled>TRUE</enabled>
                <start>233</start>
                <end>234</end>
                <file id="file-235"/>
              </clipitem>
              <clipitem frameBlend="FALSE" id="clipitem-909">
                <name>Scene - LJ visemes.234.png</name>
                <masterclipid>masterclip-236</masterclipid>
                <rate>
                  <timebase>24</timebase>
                  <ntsc>FALSE</ntsc>
                </rate>
                <duration>1</duration>
                <enabled>TRUE</enabled>
                <alphatype>straight</alphatype>
                <rate>
                  <timebase>24</timebase>
                  <ntsc>FALSE</ntsc>
                </rate>
                <enabled>TRUE</enabled>
                <start>234</start>
                <end>235</end>
                <file id="file-236"/>
              </clipitem>
              <clipitem frameBlend="FALSE" id="clipitem-910">
                <name>Scene - LJ visemes.235.png</name>
                <masterclipid>masterclip-237</masterclipid>
                <rate>
                  <timebase>24</timebase>
                  <ntsc>FALSE</ntsc>
                </rate>
                <duration>1</duration>
                <enabled>TRUE</enabled>
                <alphatype>straight</alphatype>
                <rate>
                  <timebase>24</timebase>
                  <ntsc>FALSE</ntsc>
                </rate>
                <enabled>TRUE</enabled>
                <start>235</start>
                <end>236</end>
                <file id="file-237"/>
              </clipitem>
              <clipitem frameBlend="FALSE" id="clipitem-911">
                <name>Scene - LJ visemes.236.png</name>
                <masterclipid>masterclip-238</masterclipid>
                <rate>
                  <timebase>24</timebase>
                  <ntsc>FALSE</ntsc>
                </rate>
                <duration>1</duration>
                <enabled>TRUE</enabled>
                <alphatype>straight</alphatype>
                <rate>
                  <timebase>24</timebase>
                  <ntsc>FALSE</ntsc>
                </rate>
                <enabled>TRUE</enabled>
                <start>236</start>
                <end>237</end>
                <file id="file-238"/>
              </clipitem>
              <clipitem frameBlend="FALSE" id="clipitem-912">
                <name>Scene - LJ visemes.237.png</name>
                <masterclipid>masterclip-239</masterclipid>
                <rate>
                  <timebase>24</timebase>
                  <ntsc>FALSE</ntsc>
                </rate>
                <duration>1</duration>
                <enabled>TRUE</enabled>
                <alphatype>straight</alphatype>
                <rate>
                  <timebase>24</timebase>
                  <ntsc>FALSE</ntsc>
                </rate>
                <enabled>TRUE</enabled>
                <start>237</start>
                <end>238</end>
                <file id="file-239"/>
              </clipitem>
              <clipitem frameBlend="FALSE" id="clipitem-913">
                <name>Scene - LJ visemes.238.png</name>
                <masterclipid>masterclip-240</masterclipid>
                <rate>
                  <timebase>24</timebase>
                  <ntsc>FALSE</ntsc>
                </rate>
                <duration>1</duration>
                <enabled>TRUE</enabled>
                <alphatype>straight</alphatype>
                <rate>
                  <timebase>24</timebase>
                  <ntsc>FALSE</ntsc>
                </rate>
                <enabled>TRUE</enabled>
                <start>238</start>
                <end>239</end>
                <file id="file-240"/>
              </clipitem>
              <clipitem frameBlend="FALSE" id="clipitem-914">
                <name>Scene - LJ visemes.239.png</name>
                <masterclipid>masterclip-241</masterclipid>
                <rate>
                  <timebase>24</timebase>
                  <ntsc>FALSE</ntsc>
                </rate>
                <duration>1</duration>
                <enabled>TRUE</enabled>
                <alphatype>straight</alphatype>
                <rate>
                  <timebase>24</timebase>
                  <ntsc>FALSE</ntsc>
                </rate>
                <enabled>TRUE</enabled>
                <start>239</start>
                <end>240</end>
                <file id="file-241"/>
              </clipitem>
              <clipitem frameBlend="FALSE" id="clipitem-915">
                <name>Scene - LJ visemes.240.png</name>
                <masterclipid>masterclip-242</masterclipid>
                <rate>
                  <timebase>24</timebase>
                  <ntsc>FALSE</ntsc>
                </rate>
                <duration>1</duration>
                <enabled>TRUE</enabled>
                <alphatype>straight</alphatype>
                <rate>
                  <timebase>24</timebase>
                  <ntsc>FALSE</ntsc>
                </rate>
                <enabled>TRUE</enabled>
                <start>240</start>
                <end>241</end>
                <file id="file-242"/>
              </clipitem>
              <clipitem frameBlend="FALSE" id="clipitem-916">
                <name>Scene - LJ visemes.241.png</name>
                <masterclipid>masterclip-243</masterclipid>
                <rate>
                  <timebase>24</timebase>
                  <ntsc>FALSE</ntsc>
                </rate>
                <duration>1</duration>
                <enabled>TRUE</enabled>
                <alphatype>straight</alphatype>
                <rate>
                  <timebase>24</timebase>
                  <ntsc>FALSE</ntsc>
                </rate>
                <enabled>TRUE</enabled>
                <start>241</start>
                <end>242</end>
                <file id="file-243"/>
              </clipitem>
              <clipitem frameBlend="FALSE" id="clipitem-917">
                <name>Scene - LJ visemes.242.png</name>
                <masterclipid>masterclip-244</masterclipid>
                <rate>
                  <timebase>24</timebase>
                  <ntsc>FALSE</ntsc>
                </rate>
                <duration>1</duration>
                <enabled>TRUE</enabled>
                <alphatype>straight</alphatype>
                <rate>
                  <timebase>24</timebase>
                  <ntsc>FALSE</ntsc>
                </rate>
                <enabled>TRUE</enabled>
                <start>242</start>
                <end>243</end>
                <file id="file-244"/>
              </clipitem>
              <clipitem frameBlend="FALSE" id="clipitem-918">
                <name>Scene - LJ visemes.243.png</name>
                <masterclipid>masterclip-245</masterclipid>
                <rate>
                  <timebase>24</timebase>
                  <ntsc>FALSE</ntsc>
                </rate>
                <duration>1</duration>
                <enabled>TRUE</enabled>
                <alphatype>straight</alphatype>
                <rate>
                  <timebase>24</timebase>
                  <ntsc>FALSE</ntsc>
                </rate>
                <enabled>TRUE</enabled>
                <start>243</start>
                <end>244</end>
                <file id="file-245"/>
              </clipitem>
              <clipitem frameBlend="FALSE" id="clipitem-919">
                <name>Scene - LJ visemes.244.png</name>
                <masterclipid>masterclip-246</masterclipid>
                <rate>
                  <timebase>24</timebase>
                  <ntsc>FALSE</ntsc>
                </rate>
                <duration>1</duration>
                <enabled>TRUE</enabled>
                <alphatype>straight</alphatype>
                <rate>
                  <timebase>24</timebase>
                  <ntsc>FALSE</ntsc>
                </rate>
                <enabled>TRUE</enabled>
                <start>244</start>
                <end>245</end>
                <file id="file-246"/>
              </clipitem>
              <clipitem frameBlend="FALSE" id="clipitem-920">
                <name>Scene - LJ visemes.245.png</name>
                <masterclipid>masterclip-247</masterclipid>
                <rate>
                  <timebase>24</timebase>
                  <ntsc>FALSE</ntsc>
                </rate>
                <duration>1</duration>
                <enabled>TRUE</enabled>
                <alphatype>straight</alphatype>
                <rate>
                  <timebase>24</timebase>
                  <ntsc>FALSE</ntsc>
                </rate>
                <enabled>TRUE</enabled>
                <start>245</start>
                <end>246</end>
                <file id="file-247"/>
              </clipitem>
              <clipitem frameBlend="FALSE" id="clipitem-921">
                <name>Scene - LJ visemes.246.png</name>
                <masterclipid>masterclip-248</masterclipid>
                <rate>
                  <timebase>24</timebase>
                  <ntsc>FALSE</ntsc>
                </rate>
                <duration>1</duration>
                <enabled>TRUE</enabled>
                <alphatype>straight</alphatype>
                <rate>
                  <timebase>24</timebase>
                  <ntsc>FALSE</ntsc>
                </rate>
                <enabled>TRUE</enabled>
                <start>246</start>
                <end>247</end>
                <file id="file-248"/>
              </clipitem>
              <clipitem frameBlend="FALSE" id="clipitem-922">
                <name>Scene - LJ visemes.247.png</name>
                <masterclipid>masterclip-249</masterclipid>
                <rate>
                  <timebase>24</timebase>
                  <ntsc>FALSE</ntsc>
                </rate>
                <duration>1</duration>
                <enabled>TRUE</enabled>
                <alphatype>straight</alphatype>
                <rate>
                  <timebase>24</timebase>
                  <ntsc>FALSE</ntsc>
                </rate>
                <enabled>TRUE</enabled>
                <start>247</start>
                <end>248</end>
                <file id="file-249"/>
              </clipitem>
              <clipitem frameBlend="FALSE" id="clipitem-923">
                <name>Scene - LJ visemes.248.png</name>
                <masterclipid>masterclip-250</masterclipid>
                <rate>
                  <timebase>24</timebase>
                  <ntsc>FALSE</ntsc>
                </rate>
                <duration>1</duration>
                <enabled>TRUE</enabled>
                <alphatype>straight</alphatype>
                <rate>
                  <timebase>24</timebase>
                  <ntsc>FALSE</ntsc>
                </rate>
                <enabled>TRUE</enabled>
                <start>248</start>
                <end>249</end>
                <file id="file-250"/>
              </clipitem>
              <clipitem frameBlend="FALSE" id="clipitem-924">
                <name>Scene - LJ visemes.249.png</name>
                <masterclipid>masterclip-251</masterclipid>
                <rate>
                  <timebase>24</timebase>
                  <ntsc>FALSE</ntsc>
                </rate>
                <duration>1</duration>
                <enabled>TRUE</enabled>
                <alphatype>straight</alphatype>
                <rate>
                  <timebase>24</timebase>
                  <ntsc>FALSE</ntsc>
                </rate>
                <enabled>TRUE</enabled>
                <start>249</start>
                <end>250</end>
                <file id="file-251"/>
              </clipitem>
              <clipitem frameBlend="FALSE" id="clipitem-925">
                <name>Scene - LJ visemes.250.png</name>
                <masterclipid>masterclip-252</masterclipid>
                <rate>
                  <timebase>24</timebase>
                  <ntsc>FALSE</ntsc>
                </rate>
                <duration>1</duration>
                <enabled>TRUE</enabled>
                <alphatype>straight</alphatype>
                <rate>
                  <timebase>24</timebase>
                  <ntsc>FALSE</ntsc>
                </rate>
                <enabled>TRUE</enabled>
                <start>250</start>
                <end>251</end>
                <file id="file-252"/>
              </clipitem>
              <clipitem frameBlend="FALSE" id="clipitem-926">
                <name>Scene - LJ visemes.251.png</name>
                <masterclipid>masterclip-253</masterclipid>
                <rate>
                  <timebase>24</timebase>
                  <ntsc>FALSE</ntsc>
                </rate>
                <duration>1</duration>
                <enabled>TRUE</enabled>
                <alphatype>straight</alphatype>
                <rate>
                  <timebase>24</timebase>
                  <ntsc>FALSE</ntsc>
                </rate>
                <enabled>TRUE</enabled>
                <start>251</start>
                <end>252</end>
                <file id="file-253"/>
              </clipitem>
              <clipitem frameBlend="FALSE" id="clipitem-927">
                <name>Scene - LJ visemes.252.png</name>
                <masterclipid>masterclip-254</masterclipid>
                <rate>
                  <timebase>24</timebase>
                  <ntsc>FALSE</ntsc>
                </rate>
                <duration>1</duration>
                <enabled>TRUE</enabled>
                <alphatype>straight</alphatype>
                <rate>
                  <timebase>24</timebase>
                  <ntsc>FALSE</ntsc>
                </rate>
                <enabled>TRUE</enabled>
                <start>252</start>
                <end>253</end>
                <file id="file-254"/>
              </clipitem>
              <clipitem frameBlend="FALSE" id="clipitem-928">
                <name>Scene - LJ visemes.253.png</name>
                <masterclipid>masterclip-255</masterclipid>
                <rate>
                  <timebase>24</timebase>
                  <ntsc>FALSE</ntsc>
                </rate>
                <duration>1</duration>
                <enabled>TRUE</enabled>
                <alphatype>straight</alphatype>
                <rate>
                  <timebase>24</timebase>
                  <ntsc>FALSE</ntsc>
                </rate>
                <enabled>TRUE</enabled>
                <start>253</start>
                <end>254</end>
                <file id="file-255"/>
              </clipitem>
              <clipitem frameBlend="FALSE" id="clipitem-929">
                <name>Scene - LJ visemes.254.png</name>
                <masterclipid>masterclip-256</masterclipid>
                <rate>
                  <timebase>24</timebase>
                  <ntsc>FALSE</ntsc>
                </rate>
                <duration>1</duration>
                <enabled>TRUE</enabled>
                <alphatype>straight</alphatype>
                <rate>
                  <timebase>24</timebase>
                  <ntsc>FALSE</ntsc>
                </rate>
                <enabled>TRUE</enabled>
                <start>254</start>
                <end>255</end>
                <file id="file-256"/>
              </clipitem>
              <clipitem frameBlend="FALSE" id="clipitem-930">
                <name>Scene - LJ visemes.255.png</name>
                <masterclipid>masterclip-257</masterclipid>
                <rate>
                  <timebase>24</timebase>
                  <ntsc>FALSE</ntsc>
                </rate>
                <duration>1</duration>
                <enabled>TRUE</enabled>
                <alphatype>straight</alphatype>
                <rate>
                  <timebase>24</timebase>
                  <ntsc>FALSE</ntsc>
                </rate>
                <enabled>TRUE</enabled>
                <start>255</start>
                <end>256</end>
                <file id="file-257"/>
              </clipitem>
              <clipitem frameBlend="FALSE" id="clipitem-931">
                <name>Scene - LJ visemes.256.png</name>
                <masterclipid>masterclip-258</masterclipid>
                <rate>
                  <timebase>24</timebase>
                  <ntsc>FALSE</ntsc>
                </rate>
                <duration>1</duration>
                <enabled>TRUE</enabled>
                <alphatype>straight</alphatype>
                <rate>
                  <timebase>24</timebase>
                  <ntsc>FALSE</ntsc>
                </rate>
                <enabled>TRUE</enabled>
                <start>256</start>
                <end>257</end>
                <file id="file-258"/>
              </clipitem>
              <clipitem frameBlend="FALSE" id="clipitem-932">
                <name>Scene - LJ visemes.257.png</name>
                <masterclipid>masterclip-259</masterclipid>
                <rate>
                  <timebase>24</timebase>
                  <ntsc>FALSE</ntsc>
                </rate>
                <duration>1</duration>
                <enabled>TRUE</enabled>
                <alphatype>straight</alphatype>
                <rate>
                  <timebase>24</timebase>
                  <ntsc>FALSE</ntsc>
                </rate>
                <enabled>TRUE</enabled>
                <start>257</start>
                <end>258</end>
                <file id="file-259"/>
              </clipitem>
              <clipitem frameBlend="FALSE" id="clipitem-933">
                <name>Scene - LJ visemes.258.png</name>
                <masterclipid>masterclip-260</masterclipid>
                <rate>
                  <timebase>24</timebase>
                  <ntsc>FALSE</ntsc>
                </rate>
                <duration>1</duration>
                <enabled>TRUE</enabled>
                <alphatype>straight</alphatype>
                <rate>
                  <timebase>24</timebase>
                  <ntsc>FALSE</ntsc>
                </rate>
                <enabled>TRUE</enabled>
                <start>258</start>
                <end>259</end>
                <file id="file-260"/>
              </clipitem>
              <clipitem frameBlend="FALSE" id="clipitem-934">
                <name>Scene - LJ visemes.259.png</name>
                <masterclipid>masterclip-261</masterclipid>
                <rate>
                  <timebase>24</timebase>
                  <ntsc>FALSE</ntsc>
                </rate>
                <duration>1</duration>
                <enabled>TRUE</enabled>
                <alphatype>straight</alphatype>
                <rate>
                  <timebase>24</timebase>
                  <ntsc>FALSE</ntsc>
                </rate>
                <enabled>TRUE</enabled>
                <start>259</start>
                <end>260</end>
                <file id="file-261"/>
              </clipitem>
              <clipitem frameBlend="FALSE" id="clipitem-935">
                <name>Scene - LJ visemes.260.png</name>
                <masterclipid>masterclip-262</masterclipid>
                <rate>
                  <timebase>24</timebase>
                  <ntsc>FALSE</ntsc>
                </rate>
                <duration>1</duration>
                <enabled>TRUE</enabled>
                <alphatype>straight</alphatype>
                <rate>
                  <timebase>24</timebase>
                  <ntsc>FALSE</ntsc>
                </rate>
                <enabled>TRUE</enabled>
                <start>260</start>
                <end>261</end>
                <file id="file-262"/>
              </clipitem>
              <clipitem frameBlend="FALSE" id="clipitem-936">
                <name>Scene - LJ visemes.261.png</name>
                <masterclipid>masterclip-263</masterclipid>
                <rate>
                  <timebase>24</timebase>
                  <ntsc>FALSE</ntsc>
                </rate>
                <duration>1</duration>
                <enabled>TRUE</enabled>
                <alphatype>straight</alphatype>
                <rate>
                  <timebase>24</timebase>
                  <ntsc>FALSE</ntsc>
                </rate>
                <enabled>TRUE</enabled>
                <start>261</start>
                <end>262</end>
                <file id="file-263"/>
              </clipitem>
              <clipitem frameBlend="FALSE" id="clipitem-937">
                <name>Scene - LJ visemes.262.png</name>
                <masterclipid>masterclip-264</masterclipid>
                <rate>
                  <timebase>24</timebase>
                  <ntsc>FALSE</ntsc>
                </rate>
                <duration>1</duration>
                <enabled>TRUE</enabled>
                <alphatype>straight</alphatype>
                <rate>
                  <timebase>24</timebase>
                  <ntsc>FALSE</ntsc>
                </rate>
                <enabled>TRUE</enabled>
                <start>262</start>
                <end>263</end>
                <file id="file-264"/>
              </clipitem>
              <clipitem frameBlend="FALSE" id="clipitem-938">
                <name>Scene - LJ visemes.263.png</name>
                <masterclipid>masterclip-265</masterclipid>
                <rate>
                  <timebase>24</timebase>
                  <ntsc>FALSE</ntsc>
                </rate>
                <duration>1</duration>
                <enabled>TRUE</enabled>
                <alphatype>straight</alphatype>
                <rate>
                  <timebase>24</timebase>
                  <ntsc>FALSE</ntsc>
                </rate>
                <enabled>TRUE</enabled>
                <start>263</start>
                <end>264</end>
                <file id="file-265"/>
              </clipitem>
              <clipitem frameBlend="FALSE" id="clipitem-939">
                <name>Scene - LJ visemes.264.png</name>
                <masterclipid>masterclip-266</masterclipid>
                <rate>
                  <timebase>24</timebase>
                  <ntsc>FALSE</ntsc>
                </rate>
                <duration>1</duration>
                <enabled>TRUE</enabled>
                <alphatype>straight</alphatype>
                <rate>
                  <timebase>24</timebase>
                  <ntsc>FALSE</ntsc>
                </rate>
                <enabled>TRUE</enabled>
                <start>264</start>
                <end>265</end>
                <file id="file-266"/>
              </clipitem>
              <clipitem frameBlend="FALSE" id="clipitem-940">
                <name>Scene - LJ visemes.265.png</name>
                <masterclipid>masterclip-267</masterclipid>
                <rate>
                  <timebase>24</timebase>
                  <ntsc>FALSE</ntsc>
                </rate>
                <duration>1</duration>
                <enabled>TRUE</enabled>
                <alphatype>straight</alphatype>
                <rate>
                  <timebase>24</timebase>
                  <ntsc>FALSE</ntsc>
                </rate>
                <enabled>TRUE</enabled>
                <start>265</start>
                <end>266</end>
                <file id="file-267"/>
              </clipitem>
              <clipitem frameBlend="FALSE" id="clipitem-941">
                <name>Scene - LJ visemes.266.png</name>
                <masterclipid>masterclip-268</masterclipid>
                <rate>
                  <timebase>24</timebase>
                  <ntsc>FALSE</ntsc>
                </rate>
                <duration>1</duration>
                <enabled>TRUE</enabled>
                <alphatype>straight</alphatype>
                <rate>
                  <timebase>24</timebase>
                  <ntsc>FALSE</ntsc>
                </rate>
                <enabled>TRUE</enabled>
                <start>266</start>
                <end>267</end>
                <file id="file-268"/>
              </clipitem>
              <clipitem frameBlend="FALSE" id="clipitem-942">
                <name>Scene - LJ visemes.267.png</name>
                <masterclipid>masterclip-269</masterclipid>
                <rate>
                  <timebase>24</timebase>
                  <ntsc>FALSE</ntsc>
                </rate>
                <duration>1</duration>
                <enabled>TRUE</enabled>
                <alphatype>straight</alphatype>
                <rate>
                  <timebase>24</timebase>
                  <ntsc>FALSE</ntsc>
                </rate>
                <enabled>TRUE</enabled>
                <start>267</start>
                <end>268</end>
                <file id="file-269"/>
              </clipitem>
              <clipitem frameBlend="FALSE" id="clipitem-943">
                <name>Scene - LJ visemes.268.png</name>
                <masterclipid>masterclip-270</masterclipid>
                <rate>
                  <timebase>24</timebase>
                  <ntsc>FALSE</ntsc>
                </rate>
                <duration>1</duration>
                <enabled>TRUE</enabled>
                <alphatype>straight</alphatype>
                <rate>
                  <timebase>24</timebase>
                  <ntsc>FALSE</ntsc>
                </rate>
                <enabled>TRUE</enabled>
                <start>268</start>
                <end>269</end>
                <file id="file-270"/>
              </clipitem>
              <clipitem frameBlend="FALSE" id="clipitem-944">
                <name>Scene - LJ visemes.269.png</name>
                <masterclipid>masterclip-271</masterclipid>
                <rate>
                  <timebase>24</timebase>
                  <ntsc>FALSE</ntsc>
                </rate>
                <duration>1</duration>
                <enabled>TRUE</enabled>
                <alphatype>straight</alphatype>
                <rate>
                  <timebase>24</timebase>
                  <ntsc>FALSE</ntsc>
                </rate>
                <enabled>TRUE</enabled>
                <start>269</start>
                <end>270</end>
                <file id="file-271"/>
              </clipitem>
              <clipitem frameBlend="FALSE" id="clipitem-945">
                <name>Scene - LJ visemes.270.png</name>
                <masterclipid>masterclip-272</masterclipid>
                <rate>
                  <timebase>24</timebase>
                  <ntsc>FALSE</ntsc>
                </rate>
                <duration>1</duration>
                <enabled>TRUE</enabled>
                <alphatype>straight</alphatype>
                <rate>
                  <timebase>24</timebase>
                  <ntsc>FALSE</ntsc>
                </rate>
                <enabled>TRUE</enabled>
                <start>270</start>
                <end>271</end>
                <file id="file-272"/>
              </clipitem>
              <clipitem frameBlend="FALSE" id="clipitem-946">
                <name>Scene - LJ visemes.271.png</name>
                <masterclipid>masterclip-273</masterclipid>
                <rate>
                  <timebase>24</timebase>
                  <ntsc>FALSE</ntsc>
                </rate>
                <duration>1</duration>
                <enabled>TRUE</enabled>
                <alphatype>straight</alphatype>
                <rate>
                  <timebase>24</timebase>
                  <ntsc>FALSE</ntsc>
                </rate>
                <enabled>TRUE</enabled>
                <start>271</start>
                <end>272</end>
                <file id="file-273"/>
              </clipitem>
              <clipitem frameBlend="FALSE" id="clipitem-947">
                <name>Scene - LJ visemes.272.png</name>
                <masterclipid>masterclip-274</masterclipid>
                <rate>
                  <timebase>24</timebase>
                  <ntsc>FALSE</ntsc>
                </rate>
                <duration>1</duration>
                <enabled>TRUE</enabled>
                <alphatype>straight</alphatype>
                <rate>
                  <timebase>24</timebase>
                  <ntsc>FALSE</ntsc>
                </rate>
                <enabled>TRUE</enabled>
                <start>272</start>
                <end>273</end>
                <file id="file-274"/>
              </clipitem>
              <clipitem frameBlend="FALSE" id="clipitem-948">
                <name>Scene - LJ visemes.273.png</name>
                <masterclipid>masterclip-275</masterclipid>
                <rate>
                  <timebase>24</timebase>
                  <ntsc>FALSE</ntsc>
                </rate>
                <duration>1</duration>
                <enabled>TRUE</enabled>
                <alphatype>straight</alphatype>
                <rate>
                  <timebase>24</timebase>
                  <ntsc>FALSE</ntsc>
                </rate>
                <enabled>TRUE</enabled>
                <start>273</start>
                <end>274</end>
                <file id="file-275"/>
              </clipitem>
              <clipitem frameBlend="FALSE" id="clipitem-949">
                <name>Scene - LJ visemes.274.png</name>
                <masterclipid>masterclip-276</masterclipid>
                <rate>
                  <timebase>24</timebase>
                  <ntsc>FALSE</ntsc>
                </rate>
                <duration>1</duration>
                <enabled>TRUE</enabled>
                <alphatype>straight</alphatype>
                <rate>
                  <timebase>24</timebase>
                  <ntsc>FALSE</ntsc>
                </rate>
                <enabled>TRUE</enabled>
                <start>274</start>
                <end>275</end>
                <file id="file-276"/>
              </clipitem>
              <clipitem frameBlend="FALSE" id="clipitem-950">
                <name>Scene - LJ visemes.275.png</name>
                <masterclipid>masterclip-277</masterclipid>
                <rate>
                  <timebase>24</timebase>
                  <ntsc>FALSE</ntsc>
                </rate>
                <duration>1</duration>
                <enabled>TRUE</enabled>
                <alphatype>straight</alphatype>
                <rate>
                  <timebase>24</timebase>
                  <ntsc>FALSE</ntsc>
                </rate>
                <enabled>TRUE</enabled>
                <start>275</start>
                <end>276</end>
                <file id="file-277"/>
              </clipitem>
              <clipitem frameBlend="FALSE" id="clipitem-951">
                <name>Scene - LJ visemes.276.png</name>
                <masterclipid>masterclip-278</masterclipid>
                <rate>
                  <timebase>24</timebase>
                  <ntsc>FALSE</ntsc>
                </rate>
                <duration>1</duration>
                <enabled>TRUE</enabled>
                <alphatype>straight</alphatype>
                <rate>
                  <timebase>24</timebase>
                  <ntsc>FALSE</ntsc>
                </rate>
                <enabled>TRUE</enabled>
                <start>276</start>
                <end>277</end>
                <file id="file-278"/>
              </clipitem>
              <clipitem frameBlend="FALSE" id="clipitem-952">
                <name>Scene - LJ visemes.277.png</name>
                <masterclipid>masterclip-279</masterclipid>
                <rate>
                  <timebase>24</timebase>
                  <ntsc>FALSE</ntsc>
                </rate>
                <duration>1</duration>
                <enabled>TRUE</enabled>
                <alphatype>straight</alphatype>
                <rate>
                  <timebase>24</timebase>
                  <ntsc>FALSE</ntsc>
                </rate>
                <enabled>TRUE</enabled>
                <start>277</start>
                <end>278</end>
                <file id="file-279"/>
              </clipitem>
              <clipitem frameBlend="FALSE" id="clipitem-953">
                <name>Scene - LJ visemes.278.png</name>
                <masterclipid>masterclip-280</masterclipid>
                <rate>
                  <timebase>24</timebase>
                  <ntsc>FALSE</ntsc>
                </rate>
                <duration>1</duration>
                <enabled>TRUE</enabled>
                <alphatype>straight</alphatype>
                <rate>
                  <timebase>24</timebase>
                  <ntsc>FALSE</ntsc>
                </rate>
                <enabled>TRUE</enabled>
                <start>278</start>
                <end>279</end>
                <file id="file-280"/>
              </clipitem>
              <clipitem frameBlend="FALSE" id="clipitem-954">
                <name>Scene - LJ visemes.279.png</name>
                <masterclipid>masterclip-281</masterclipid>
                <rate>
                  <timebase>24</timebase>
                  <ntsc>FALSE</ntsc>
                </rate>
                <duration>1</duration>
                <enabled>TRUE</enabled>
                <alphatype>straight</alphatype>
                <rate>
                  <timebase>24</timebase>
                  <ntsc>FALSE</ntsc>
                </rate>
                <enabled>TRUE</enabled>
                <start>279</start>
                <end>280</end>
                <file id="file-281"/>
              </clipitem>
              <clipitem frameBlend="FALSE" id="clipitem-955">
                <name>Scene - LJ visemes.280.png</name>
                <masterclipid>masterclip-282</masterclipid>
                <rate>
                  <timebase>24</timebase>
                  <ntsc>FALSE</ntsc>
                </rate>
                <duration>1</duration>
                <enabled>TRUE</enabled>
                <alphatype>straight</alphatype>
                <rate>
                  <timebase>24</timebase>
                  <ntsc>FALSE</ntsc>
                </rate>
                <enabled>TRUE</enabled>
                <start>280</start>
                <end>281</end>
                <file id="file-282"/>
              </clipitem>
              <clipitem frameBlend="FALSE" id="clipitem-956">
                <name>Scene - LJ visemes.281.png</name>
                <masterclipid>masterclip-283</masterclipid>
                <rate>
                  <timebase>24</timebase>
                  <ntsc>FALSE</ntsc>
                </rate>
                <duration>1</duration>
                <enabled>TRUE</enabled>
                <alphatype>straight</alphatype>
                <rate>
                  <timebase>24</timebase>
                  <ntsc>FALSE</ntsc>
                </rate>
                <enabled>TRUE</enabled>
                <start>281</start>
                <end>282</end>
                <file id="file-283"/>
              </clipitem>
              <clipitem frameBlend="FALSE" id="clipitem-957">
                <name>Scene - LJ visemes.282.png</name>
                <masterclipid>masterclip-284</masterclipid>
                <rate>
                  <timebase>24</timebase>
                  <ntsc>FALSE</ntsc>
                </rate>
                <duration>1</duration>
                <enabled>TRUE</enabled>
                <alphatype>straight</alphatype>
                <rate>
                  <timebase>24</timebase>
                  <ntsc>FALSE</ntsc>
                </rate>
                <enabled>TRUE</enabled>
                <start>282</start>
                <end>283</end>
                <file id="file-284"/>
              </clipitem>
              <clipitem frameBlend="FALSE" id="clipitem-958">
                <name>Scene - LJ visemes.283.png</name>
                <masterclipid>masterclip-285</masterclipid>
                <rate>
                  <timebase>24</timebase>
                  <ntsc>FALSE</ntsc>
                </rate>
                <duration>1</duration>
                <enabled>TRUE</enabled>
                <alphatype>straight</alphatype>
                <rate>
                  <timebase>24</timebase>
                  <ntsc>FALSE</ntsc>
                </rate>
                <enabled>TRUE</enabled>
                <start>283</start>
                <end>284</end>
                <file id="file-285"/>
              </clipitem>
              <clipitem frameBlend="FALSE" id="clipitem-959">
                <name>Scene - LJ visemes.284.png</name>
                <masterclipid>masterclip-286</masterclipid>
                <rate>
                  <timebase>24</timebase>
                  <ntsc>FALSE</ntsc>
                </rate>
                <duration>1</duration>
                <enabled>TRUE</enabled>
                <alphatype>straight</alphatype>
                <rate>
                  <timebase>24</timebase>
                  <ntsc>FALSE</ntsc>
                </rate>
                <enabled>TRUE</enabled>
                <start>284</start>
                <end>285</end>
                <file id="file-286"/>
              </clipitem>
              <clipitem frameBlend="FALSE" id="clipitem-960">
                <name>Scene - LJ visemes.285.png</name>
                <masterclipid>masterclip-287</masterclipid>
                <rate>
                  <timebase>24</timebase>
                  <ntsc>FALSE</ntsc>
                </rate>
                <duration>1</duration>
                <enabled>TRUE</enabled>
                <alphatype>straight</alphatype>
                <rate>
                  <timebase>24</timebase>
                  <ntsc>FALSE</ntsc>
                </rate>
                <enabled>TRUE</enabled>
                <start>285</start>
                <end>286</end>
                <file id="file-287"/>
              </clipitem>
              <clipitem frameBlend="FALSE" id="clipitem-961">
                <name>Scene - LJ visemes.286.png</name>
                <masterclipid>masterclip-288</masterclipid>
                <rate>
                  <timebase>24</timebase>
                  <ntsc>FALSE</ntsc>
                </rate>
                <duration>1</duration>
                <enabled>TRUE</enabled>
                <alphatype>straight</alphatype>
                <rate>
                  <timebase>24</timebase>
                  <ntsc>FALSE</ntsc>
                </rate>
                <enabled>TRUE</enabled>
                <start>286</start>
                <end>287</end>
                <file id="file-288"/>
              </clipitem>
              <clipitem frameBlend="FALSE" id="clipitem-962">
                <name>Scene - LJ visemes.287.png</name>
                <masterclipid>masterclip-289</masterclipid>
                <rate>
                  <timebase>24</timebase>
                  <ntsc>FALSE</ntsc>
                </rate>
                <duration>1</duration>
                <enabled>TRUE</enabled>
                <alphatype>straight</alphatype>
                <rate>
                  <timebase>24</timebase>
                  <ntsc>FALSE</ntsc>
                </rate>
                <enabled>TRUE</enabled>
                <start>287</start>
                <end>288</end>
                <file id="file-289"/>
              </clipitem>
              <clipitem frameBlend="FALSE" id="clipitem-963">
                <name>Scene - LJ visemes.288.png</name>
                <masterclipid>masterclip-290</masterclipid>
                <rate>
                  <timebase>24</timebase>
                  <ntsc>FALSE</ntsc>
                </rate>
                <duration>1</duration>
                <enabled>TRUE</enabled>
                <alphatype>straight</alphatype>
                <rate>
                  <timebase>24</timebase>
                  <ntsc>FALSE</ntsc>
                </rate>
                <enabled>TRUE</enabled>
                <start>288</start>
                <end>289</end>
                <file id="file-290"/>
              </clipitem>
              <clipitem frameBlend="FALSE" id="clipitem-964">
                <name>Scene - LJ visemes.289.png</name>
                <masterclipid>masterclip-291</masterclipid>
                <rate>
                  <timebase>24</timebase>
                  <ntsc>FALSE</ntsc>
                </rate>
                <duration>1</duration>
                <enabled>TRUE</enabled>
                <alphatype>straight</alphatype>
                <rate>
                  <timebase>24</timebase>
                  <ntsc>FALSE</ntsc>
                </rate>
                <enabled>TRUE</enabled>
                <start>289</start>
                <end>290</end>
                <file id="file-291"/>
              </clipitem>
              <clipitem frameBlend="FALSE" id="clipitem-965">
                <name>Scene - LJ visemes.290.png</name>
                <masterclipid>masterclip-292</masterclipid>
                <rate>
                  <timebase>24</timebase>
                  <ntsc>FALSE</ntsc>
                </rate>
                <duration>1</duration>
                <enabled>TRUE</enabled>
                <alphatype>straight</alphatype>
                <rate>
                  <timebase>24</timebase>
                  <ntsc>FALSE</ntsc>
                </rate>
                <enabled>TRUE</enabled>
                <start>290</start>
                <end>291</end>
                <file id="file-292"/>
              </clipitem>
              <clipitem frameBlend="FALSE" id="clipitem-966">
                <name>Scene - LJ visemes.291.png</name>
                <masterclipid>masterclip-293</masterclipid>
                <rate>
                  <timebase>24</timebase>
                  <ntsc>FALSE</ntsc>
                </rate>
                <duration>1</duration>
                <enabled>TRUE</enabled>
                <alphatype>straight</alphatype>
                <rate>
                  <timebase>24</timebase>
                  <ntsc>FALSE</ntsc>
                </rate>
                <enabled>TRUE</enabled>
                <start>291</start>
                <end>292</end>
                <file id="file-293"/>
              </clipitem>
              <clipitem frameBlend="FALSE" id="clipitem-967">
                <name>Scene - LJ visemes.292.png</name>
                <masterclipid>masterclip-294</masterclipid>
                <rate>
                  <timebase>24</timebase>
                  <ntsc>FALSE</ntsc>
                </rate>
                <duration>1</duration>
                <enabled>TRUE</enabled>
                <alphatype>straight</alphatype>
                <rate>
                  <timebase>24</timebase>
                  <ntsc>FALSE</ntsc>
                </rate>
                <enabled>TRUE</enabled>
                <start>292</start>
                <end>293</end>
                <file id="file-294"/>
              </clipitem>
              <clipitem frameBlend="FALSE" id="clipitem-968">
                <name>Scene - LJ visemes.293.png</name>
                <masterclipid>masterclip-295</masterclipid>
                <rate>
                  <timebase>24</timebase>
                  <ntsc>FALSE</ntsc>
                </rate>
                <duration>1</duration>
                <enabled>TRUE</enabled>
                <alphatype>straight</alphatype>
                <rate>
                  <timebase>24</timebase>
                  <ntsc>FALSE</ntsc>
                </rate>
                <enabled>TRUE</enabled>
                <start>293</start>
                <end>294</end>
                <file id="file-295"/>
              </clipitem>
              <clipitem frameBlend="FALSE" id="clipitem-969">
                <name>Scene - LJ visemes.294.png</name>
                <masterclipid>masterclip-296</masterclipid>
                <rate>
                  <timebase>24</timebase>
                  <ntsc>FALSE</ntsc>
                </rate>
                <duration>1</duration>
                <enabled>TRUE</enabled>
                <alphatype>straight</alphatype>
                <rate>
                  <timebase>24</timebase>
                  <ntsc>FALSE</ntsc>
                </rate>
                <enabled>TRUE</enabled>
                <start>294</start>
                <end>295</end>
                <file id="file-296"/>
              </clipitem>
              <clipitem frameBlend="FALSE" id="clipitem-970">
                <name>Scene - LJ visemes.295.png</name>
                <masterclipid>masterclip-297</masterclipid>
                <rate>
                  <timebase>24</timebase>
                  <ntsc>FALSE</ntsc>
                </rate>
                <duration>1</duration>
                <enabled>TRUE</enabled>
                <alphatype>straight</alphatype>
                <rate>
                  <timebase>24</timebase>
                  <ntsc>FALSE</ntsc>
                </rate>
                <enabled>TRUE</enabled>
                <start>295</start>
                <end>296</end>
                <file id="file-297"/>
              </clipitem>
              <clipitem frameBlend="FALSE" id="clipitem-971">
                <name>Scene - LJ visemes.296.png</name>
                <masterclipid>masterclip-298</masterclipid>
                <rate>
                  <timebase>24</timebase>
                  <ntsc>FALSE</ntsc>
                </rate>
                <duration>1</duration>
                <enabled>TRUE</enabled>
                <alphatype>straight</alphatype>
                <rate>
                  <timebase>24</timebase>
                  <ntsc>FALSE</ntsc>
                </rate>
                <enabled>TRUE</enabled>
                <start>296</start>
                <end>297</end>
                <file id="file-298"/>
              </clipitem>
              <clipitem frameBlend="FALSE" id="clipitem-972">
                <name>Scene - LJ visemes.297.png</name>
                <masterclipid>masterclip-299</masterclipid>
                <rate>
                  <timebase>24</timebase>
                  <ntsc>FALSE</ntsc>
                </rate>
                <duration>1</duration>
                <enabled>TRUE</enabled>
                <alphatype>straight</alphatype>
                <rate>
                  <timebase>24</timebase>
                  <ntsc>FALSE</ntsc>
                </rate>
                <enabled>TRUE</enabled>
                <start>297</start>
                <end>298</end>
                <file id="file-299"/>
              </clipitem>
              <clipitem frameBlend="FALSE" id="clipitem-973">
                <name>Scene - LJ visemes.298.png</name>
                <masterclipid>masterclip-300</masterclipid>
                <rate>
                  <timebase>24</timebase>
                  <ntsc>FALSE</ntsc>
                </rate>
                <duration>1</duration>
                <enabled>TRUE</enabled>
                <alphatype>straight</alphatype>
                <rate>
                  <timebase>24</timebase>
                  <ntsc>FALSE</ntsc>
                </rate>
                <enabled>TRUE</enabled>
                <start>298</start>
                <end>299</end>
                <file id="file-300"/>
              </clipitem>
              <clipitem frameBlend="FALSE" id="clipitem-974">
                <name>Scene - LJ visemes.299.png</name>
                <masterclipid>masterclip-301</masterclipid>
                <rate>
                  <timebase>24</timebase>
                  <ntsc>FALSE</ntsc>
                </rate>
                <duration>1</duration>
                <enabled>TRUE</enabled>
                <alphatype>straight</alphatype>
                <rate>
                  <timebase>24</timebase>
                  <ntsc>FALSE</ntsc>
                </rate>
                <enabled>TRUE</enabled>
                <start>299</start>
                <end>300</end>
                <file id="file-301"/>
              </clipitem>
              <clipitem frameBlend="FALSE" id="clipitem-975">
                <name>Scene - LJ visemes.300.png</name>
                <masterclipid>masterclip-302</masterclipid>
                <rate>
                  <timebase>24</timebase>
                  <ntsc>FALSE</ntsc>
                </rate>
                <duration>1</duration>
                <enabled>TRUE</enabled>
                <alphatype>straight</alphatype>
                <rate>
                  <timebase>24</timebase>
                  <ntsc>FALSE</ntsc>
                </rate>
                <enabled>TRUE</enabled>
                <start>300</start>
                <end>301</end>
                <file id="file-302"/>
              </clipitem>
              <clipitem frameBlend="FALSE" id="clipitem-976">
                <name>Scene - LJ visemes.301.png</name>
                <masterclipid>masterclip-303</masterclipid>
                <rate>
                  <timebase>24</timebase>
                  <ntsc>FALSE</ntsc>
                </rate>
                <duration>1</duration>
                <enabled>TRUE</enabled>
                <alphatype>straight</alphatype>
                <rate>
                  <timebase>24</timebase>
                  <ntsc>FALSE</ntsc>
                </rate>
                <enabled>TRUE</enabled>
                <start>301</start>
                <end>302</end>
                <file id="file-303"/>
              </clipitem>
              <clipitem frameBlend="FALSE" id="clipitem-977">
                <name>Scene - LJ visemes.302.png</name>
                <masterclipid>masterclip-304</masterclipid>
                <rate>
                  <timebase>24</timebase>
                  <ntsc>FALSE</ntsc>
                </rate>
                <duration>1</duration>
                <enabled>TRUE</enabled>
                <alphatype>straight</alphatype>
                <rate>
                  <timebase>24</timebase>
                  <ntsc>FALSE</ntsc>
                </rate>
                <enabled>TRUE</enabled>
                <start>302</start>
                <end>303</end>
                <file id="file-304"/>
              </clipitem>
              <clipitem frameBlend="FALSE" id="clipitem-978">
                <name>Scene - LJ visemes.303.png</name>
                <masterclipid>masterclip-305</masterclipid>
                <rate>
                  <timebase>24</timebase>
                  <ntsc>FALSE</ntsc>
                </rate>
                <duration>1</duration>
                <enabled>TRUE</enabled>
                <alphatype>straight</alphatype>
                <rate>
                  <timebase>24</timebase>
                  <ntsc>FALSE</ntsc>
                </rate>
                <enabled>TRUE</enabled>
                <start>303</start>
                <end>304</end>
                <file id="file-305"/>
              </clipitem>
              <clipitem frameBlend="FALSE" id="clipitem-979">
                <name>Scene - LJ visemes.304.png</name>
                <masterclipid>masterclip-306</masterclipid>
                <rate>
                  <timebase>24</timebase>
                  <ntsc>FALSE</ntsc>
                </rate>
                <duration>1</duration>
                <enabled>TRUE</enabled>
                <alphatype>straight</alphatype>
                <rate>
                  <timebase>24</timebase>
                  <ntsc>FALSE</ntsc>
                </rate>
                <enabled>TRUE</enabled>
                <start>304</start>
                <end>305</end>
                <file id="file-306"/>
              </clipitem>
              <clipitem frameBlend="FALSE" id="clipitem-980">
                <name>Scene - LJ visemes.305.png</name>
                <masterclipid>masterclip-307</masterclipid>
                <rate>
                  <timebase>24</timebase>
                  <ntsc>FALSE</ntsc>
                </rate>
                <duration>1</duration>
                <enabled>TRUE</enabled>
                <alphatype>straight</alphatype>
                <rate>
                  <timebase>24</timebase>
                  <ntsc>FALSE</ntsc>
                </rate>
                <enabled>TRUE</enabled>
                <start>305</start>
                <end>306</end>
                <file id="file-307"/>
              </clipitem>
              <clipitem frameBlend="FALSE" id="clipitem-981">
                <name>Scene - LJ visemes.306.png</name>
                <masterclipid>masterclip-308</masterclipid>
                <rate>
                  <timebase>24</timebase>
                  <ntsc>FALSE</ntsc>
                </rate>
                <duration>1</duration>
                <enabled>TRUE</enabled>
                <alphatype>straight</alphatype>
                <rate>
                  <timebase>24</timebase>
                  <ntsc>FALSE</ntsc>
                </rate>
                <enabled>TRUE</enabled>
                <start>306</start>
                <end>307</end>
                <file id="file-308"/>
              </clipitem>
              <clipitem frameBlend="FALSE" id="clipitem-982">
                <name>Scene - LJ visemes.307.png</name>
                <masterclipid>masterclip-309</masterclipid>
                <rate>
                  <timebase>24</timebase>
                  <ntsc>FALSE</ntsc>
                </rate>
                <duration>1</duration>
                <enabled>TRUE</enabled>
                <alphatype>straight</alphatype>
                <rate>
                  <timebase>24</timebase>
                  <ntsc>FALSE</ntsc>
                </rate>
                <enabled>TRUE</enabled>
                <start>307</start>
                <end>308</end>
                <file id="file-309"/>
              </clipitem>
              <clipitem frameBlend="FALSE" id="clipitem-983">
                <name>Scene - LJ visemes.308.png</name>
                <masterclipid>masterclip-310</masterclipid>
                <rate>
                  <timebase>24</timebase>
                  <ntsc>FALSE</ntsc>
                </rate>
                <duration>1</duration>
                <enabled>TRUE</enabled>
                <alphatype>straight</alphatype>
                <rate>
                  <timebase>24</timebase>
                  <ntsc>FALSE</ntsc>
                </rate>
                <enabled>TRUE</enabled>
                <start>308</start>
                <end>309</end>
                <file id="file-310"/>
              </clipitem>
              <clipitem frameBlend="FALSE" id="clipitem-984">
                <name>Scene - LJ visemes.309.png</name>
                <masterclipid>masterclip-311</masterclipid>
                <rate>
                  <timebase>24</timebase>
                  <ntsc>FALSE</ntsc>
                </rate>
                <duration>1</duration>
                <enabled>TRUE</enabled>
                <alphatype>straight</alphatype>
                <rate>
                  <timebase>24</timebase>
                  <ntsc>FALSE</ntsc>
                </rate>
                <enabled>TRUE</enabled>
                <start>309</start>
                <end>310</end>
                <file id="file-311"/>
              </clipitem>
              <clipitem frameBlend="FALSE" id="clipitem-985">
                <name>Scene - LJ visemes.310.png</name>
                <masterclipid>masterclip-312</masterclipid>
                <rate>
                  <timebase>24</timebase>
                  <ntsc>FALSE</ntsc>
                </rate>
                <duration>1</duration>
                <enabled>TRUE</enabled>
                <alphatype>straight</alphatype>
                <rate>
                  <timebase>24</timebase>
                  <ntsc>FALSE</ntsc>
                </rate>
                <enabled>TRUE</enabled>
                <start>310</start>
                <end>311</end>
                <file id="file-312"/>
              </clipitem>
              <clipitem frameBlend="FALSE" id="clipitem-986">
                <name>Scene - LJ visemes.311.png</name>
                <masterclipid>masterclip-313</masterclipid>
                <rate>
                  <timebase>24</timebase>
                  <ntsc>FALSE</ntsc>
                </rate>
                <duration>1</duration>
                <enabled>TRUE</enabled>
                <alphatype>straight</alphatype>
                <rate>
                  <timebase>24</timebase>
                  <ntsc>FALSE</ntsc>
                </rate>
                <enabled>TRUE</enabled>
                <start>311</start>
                <end>312</end>
                <file id="file-313"/>
              </clipitem>
              <clipitem frameBlend="FALSE" id="clipitem-987">
                <name>Scene - LJ visemes.312.png</name>
                <masterclipid>masterclip-314</masterclipid>
                <rate>
                  <timebase>24</timebase>
                  <ntsc>FALSE</ntsc>
                </rate>
                <duration>1</duration>
                <enabled>TRUE</enabled>
                <alphatype>straight</alphatype>
                <rate>
                  <timebase>24</timebase>
                  <ntsc>FALSE</ntsc>
                </rate>
                <enabled>TRUE</enabled>
                <start>312</start>
                <end>313</end>
                <file id="file-314"/>
              </clipitem>
              <clipitem frameBlend="FALSE" id="clipitem-988">
                <name>Scene - LJ visemes.313.png</name>
                <masterclipid>masterclip-315</masterclipid>
                <rate>
                  <timebase>24</timebase>
                  <ntsc>FALSE</ntsc>
                </rate>
                <duration>1</duration>
                <enabled>TRUE</enabled>
                <alphatype>straight</alphatype>
                <rate>
                  <timebase>24</timebase>
                  <ntsc>FALSE</ntsc>
                </rate>
                <enabled>TRUE</enabled>
                <start>313</start>
                <end>314</end>
                <file id="file-315"/>
              </clipitem>
              <clipitem frameBlend="FALSE" id="clipitem-989">
                <name>Scene - LJ visemes.314.png</name>
                <masterclipid>masterclip-316</masterclipid>
                <rate>
                  <timebase>24</timebase>
                  <ntsc>FALSE</ntsc>
                </rate>
                <duration>1</duration>
                <enabled>TRUE</enabled>
                <alphatype>straight</alphatype>
                <rate>
                  <timebase>24</timebase>
                  <ntsc>FALSE</ntsc>
                </rate>
                <enabled>TRUE</enabled>
                <start>314</start>
                <end>315</end>
                <file id="file-316"/>
              </clipitem>
              <clipitem frameBlend="FALSE" id="clipitem-990">
                <name>Scene - LJ visemes.315.png</name>
                <masterclipid>masterclip-317</masterclipid>
                <rate>
                  <timebase>24</timebase>
                  <ntsc>FALSE</ntsc>
                </rate>
                <duration>1</duration>
                <enabled>TRUE</enabled>
                <alphatype>straight</alphatype>
                <rate>
                  <timebase>24</timebase>
                  <ntsc>FALSE</ntsc>
                </rate>
                <enabled>TRUE</enabled>
                <start>315</start>
                <end>316</end>
                <file id="file-317"/>
              </clipitem>
              <clipitem frameBlend="FALSE" id="clipitem-991">
                <name>Scene - LJ visemes.316.png</name>
                <masterclipid>masterclip-318</masterclipid>
                <rate>
                  <timebase>24</timebase>
                  <ntsc>FALSE</ntsc>
                </rate>
                <duration>1</duration>
                <enabled>TRUE</enabled>
                <alphatype>straight</alphatype>
                <rate>
                  <timebase>24</timebase>
                  <ntsc>FALSE</ntsc>
                </rate>
                <enabled>TRUE</enabled>
                <start>316</start>
                <end>317</end>
                <file id="file-318"/>
              </clipitem>
              <clipitem frameBlend="FALSE" id="clipitem-992">
                <name>Scene - LJ visemes.317.png</name>
                <masterclipid>masterclip-319</masterclipid>
                <rate>
                  <timebase>24</timebase>
                  <ntsc>FALSE</ntsc>
                </rate>
                <duration>1</duration>
                <enabled>TRUE</enabled>
                <alphatype>straight</alphatype>
                <rate>
                  <timebase>24</timebase>
                  <ntsc>FALSE</ntsc>
                </rate>
                <enabled>TRUE</enabled>
                <start>317</start>
                <end>318</end>
                <file id="file-319"/>
              </clipitem>
              <clipitem frameBlend="FALSE" id="clipitem-993">
                <name>Scene - LJ visemes.318.png</name>
                <masterclipid>masterclip-320</masterclipid>
                <rate>
                  <timebase>24</timebase>
                  <ntsc>FALSE</ntsc>
                </rate>
                <duration>1</duration>
                <enabled>TRUE</enabled>
                <alphatype>straight</alphatype>
                <rate>
                  <timebase>24</timebase>
                  <ntsc>FALSE</ntsc>
                </rate>
                <enabled>TRUE</enabled>
                <start>318</start>
                <end>319</end>
                <file id="file-320"/>
              </clipitem>
              <clipitem frameBlend="FALSE" id="clipitem-994">
                <name>Scene - LJ visemes.319.png</name>
                <masterclipid>masterclip-321</masterclipid>
                <rate>
                  <timebase>24</timebase>
                  <ntsc>FALSE</ntsc>
                </rate>
                <duration>1</duration>
                <enabled>TRUE</enabled>
                <alphatype>straight</alphatype>
                <rate>
                  <timebase>24</timebase>
                  <ntsc>FALSE</ntsc>
                </rate>
                <enabled>TRUE</enabled>
                <start>319</start>
                <end>320</end>
                <file id="file-321"/>
              </clipitem>
              <clipitem frameBlend="FALSE" id="clipitem-995">
                <name>Scene - LJ visemes.320.png</name>
                <masterclipid>masterclip-322</masterclipid>
                <rate>
                  <timebase>24</timebase>
                  <ntsc>FALSE</ntsc>
                </rate>
                <duration>1</duration>
                <enabled>TRUE</enabled>
                <alphatype>straight</alphatype>
                <rate>
                  <timebase>24</timebase>
                  <ntsc>FALSE</ntsc>
                </rate>
                <enabled>TRUE</enabled>
                <start>320</start>
                <end>321</end>
                <file id="file-322"/>
              </clipitem>
              <clipitem frameBlend="FALSE" id="clipitem-996">
                <name>Scene - LJ visemes.321.png</name>
                <masterclipid>masterclip-323</masterclipid>
                <rate>
                  <timebase>24</timebase>
                  <ntsc>FALSE</ntsc>
                </rate>
                <duration>1</duration>
                <enabled>TRUE</enabled>
                <alphatype>straight</alphatype>
                <rate>
                  <timebase>24</timebase>
                  <ntsc>FALSE</ntsc>
                </rate>
                <enabled>TRUE</enabled>
                <start>321</start>
                <end>322</end>
                <file id="file-323"/>
              </clipitem>
              <clipitem frameBlend="FALSE" id="clipitem-997">
                <name>Scene - LJ visemes.322.png</name>
                <masterclipid>masterclip-324</masterclipid>
                <rate>
                  <timebase>24</timebase>
                  <ntsc>FALSE</ntsc>
                </rate>
                <duration>1</duration>
                <enabled>TRUE</enabled>
                <alphatype>straight</alphatype>
                <rate>
                  <timebase>24</timebase>
                  <ntsc>FALSE</ntsc>
                </rate>
                <enabled>TRUE</enabled>
                <start>322</start>
                <end>323</end>
                <file id="file-324"/>
              </clipitem>
              <clipitem frameBlend="FALSE" id="clipitem-998">
                <name>Scene - LJ visemes.323.png</name>
                <masterclipid>masterclip-325</masterclipid>
                <rate>
                  <timebase>24</timebase>
                  <ntsc>FALSE</ntsc>
                </rate>
                <duration>1</duration>
                <enabled>TRUE</enabled>
                <alphatype>straight</alphatype>
                <rate>
                  <timebase>24</timebase>
                  <ntsc>FALSE</ntsc>
                </rate>
                <enabled>TRUE</enabled>
                <start>323</start>
                <end>324</end>
                <file id="file-325"/>
              </clipitem>
              <clipitem frameBlend="FALSE" id="clipitem-999">
                <name>Scene - LJ visemes.324.png</name>
                <masterclipid>masterclip-326</masterclipid>
                <rate>
                  <timebase>24</timebase>
                  <ntsc>FALSE</ntsc>
                </rate>
                <duration>1</duration>
                <enabled>TRUE</enabled>
                <alphatype>straight</alphatype>
                <rate>
                  <timebase>24</timebase>
                  <ntsc>FALSE</ntsc>
                </rate>
                <enabled>TRUE</enabled>
                <start>324</start>
                <end>325</end>
                <file id="file-326"/>
              </clipitem>
              <clipitem frameBlend="FALSE" id="clipitem-1000">
                <name>Scene - LJ visemes.325.png</name>
                <masterclipid>masterclip-327</masterclipid>
                <rate>
                  <timebase>24</timebase>
                  <ntsc>FALSE</ntsc>
                </rate>
                <duration>1</duration>
                <enabled>TRUE</enabled>
                <alphatype>straight</alphatype>
                <rate>
                  <timebase>24</timebase>
                  <ntsc>FALSE</ntsc>
                </rate>
                <enabled>TRUE</enabled>
                <start>325</start>
                <end>326</end>
                <file id="file-327"/>
              </clipitem>
              <clipitem frameBlend="FALSE" id="clipitem-1001">
                <name>Scene - LJ visemes.326.png</name>
                <masterclipid>masterclip-328</masterclipid>
                <rate>
                  <timebase>24</timebase>
                  <ntsc>FALSE</ntsc>
                </rate>
                <duration>1</duration>
                <enabled>TRUE</enabled>
                <alphatype>straight</alphatype>
                <rate>
                  <timebase>24</timebase>
                  <ntsc>FALSE</ntsc>
                </rate>
                <enabled>TRUE</enabled>
                <start>326</start>
                <end>327</end>
                <file id="file-328"/>
              </clipitem>
              <clipitem frameBlend="FALSE" id="clipitem-1002">
                <name>Scene - LJ visemes.327.png</name>
                <masterclipid>masterclip-329</masterclipid>
                <rate>
                  <timebase>24</timebase>
                  <ntsc>FALSE</ntsc>
                </rate>
                <duration>1</duration>
                <enabled>TRUE</enabled>
                <alphatype>straight</alphatype>
                <rate>
                  <timebase>24</timebase>
                  <ntsc>FALSE</ntsc>
                </rate>
                <enabled>TRUE</enabled>
                <start>327</start>
                <end>328</end>
                <file id="file-329"/>
              </clipitem>
              <clipitem frameBlend="FALSE" id="clipitem-1003">
                <name>Scene - LJ visemes.328.png</name>
                <masterclipid>masterclip-330</masterclipid>
                <rate>
                  <timebase>24</timebase>
                  <ntsc>FALSE</ntsc>
                </rate>
                <duration>1</duration>
                <enabled>TRUE</enabled>
                <alphatype>straight</alphatype>
                <rate>
                  <timebase>24</timebase>
                  <ntsc>FALSE</ntsc>
                </rate>
                <enabled>TRUE</enabled>
                <start>328</start>
                <end>329</end>
                <file id="file-330"/>
              </clipitem>
              <clipitem frameBlend="FALSE" id="clipitem-1004">
                <name>Scene - LJ visemes.329.png</name>
                <masterclipid>masterclip-331</masterclipid>
                <rate>
                  <timebase>24</timebase>
                  <ntsc>FALSE</ntsc>
                </rate>
                <duration>1</duration>
                <enabled>TRUE</enabled>
                <alphatype>straight</alphatype>
                <rate>
                  <timebase>24</timebase>
                  <ntsc>FALSE</ntsc>
                </rate>
                <enabled>TRUE</enabled>
                <start>329</start>
                <end>330</end>
                <file id="file-331"/>
              </clipitem>
              <clipitem frameBlend="FALSE" id="clipitem-1005">
                <name>Scene - LJ visemes.330.png</name>
                <masterclipid>masterclip-332</masterclipid>
                <rate>
                  <timebase>24</timebase>
                  <ntsc>FALSE</ntsc>
                </rate>
                <duration>1</duration>
                <enabled>TRUE</enabled>
                <alphatype>straight</alphatype>
                <rate>
                  <timebase>24</timebase>
                  <ntsc>FALSE</ntsc>
                </rate>
                <enabled>TRUE</enabled>
                <start>330</start>
                <end>331</end>
                <file id="file-332"/>
              </clipitem>
              <clipitem frameBlend="FALSE" id="clipitem-1006">
                <name>Scene - LJ visemes.331.png</name>
                <masterclipid>masterclip-333</masterclipid>
                <rate>
                  <timebase>24</timebase>
                  <ntsc>FALSE</ntsc>
                </rate>
                <duration>1</duration>
                <enabled>TRUE</enabled>
                <alphatype>straight</alphatype>
                <rate>
                  <timebase>24</timebase>
                  <ntsc>FALSE</ntsc>
                </rate>
                <enabled>TRUE</enabled>
                <start>331</start>
                <end>332</end>
                <file id="file-333"/>
              </clipitem>
              <clipitem frameBlend="FALSE" id="clipitem-1007">
                <name>Scene - LJ visemes.332.png</name>
                <masterclipid>masterclip-334</masterclipid>
                <rate>
                  <timebase>24</timebase>
                  <ntsc>FALSE</ntsc>
                </rate>
                <duration>1</duration>
                <enabled>TRUE</enabled>
                <alphatype>straight</alphatype>
                <rate>
                  <timebase>24</timebase>
                  <ntsc>FALSE</ntsc>
                </rate>
                <enabled>TRUE</enabled>
                <start>332</start>
                <end>333</end>
                <file id="file-334"/>
              </clipitem>
              <clipitem frameBlend="FALSE" id="clipitem-1008">
                <name>Scene - LJ visemes.333.png</name>
                <masterclipid>masterclip-335</masterclipid>
                <rate>
                  <timebase>24</timebase>
                  <ntsc>FALSE</ntsc>
                </rate>
                <duration>1</duration>
                <enabled>TRUE</enabled>
                <alphatype>straight</alphatype>
                <rate>
                  <timebase>24</timebase>
                  <ntsc>FALSE</ntsc>
                </rate>
                <enabled>TRUE</enabled>
                <start>333</start>
                <end>334</end>
                <file id="file-335"/>
              </clipitem>
              <clipitem frameBlend="FALSE" id="clipitem-1009">
                <name>Scene - LJ visemes.334.png</name>
                <masterclipid>masterclip-336</masterclipid>
                <rate>
                  <timebase>24</timebase>
                  <ntsc>FALSE</ntsc>
                </rate>
                <duration>1</duration>
                <enabled>TRUE</enabled>
                <alphatype>straight</alphatype>
                <rate>
                  <timebase>24</timebase>
                  <ntsc>FALSE</ntsc>
                </rate>
                <enabled>TRUE</enabled>
                <start>334</start>
                <end>335</end>
                <file id="file-336"/>
              </clipitem>
              <clipitem frameBlend="FALSE" id="clipitem-1010">
                <name>Scene - LJ visemes.335.png</name>
                <masterclipid>masterclip-337</masterclipid>
                <rate>
                  <timebase>24</timebase>
                  <ntsc>FALSE</ntsc>
                </rate>
                <duration>1</duration>
                <enabled>TRUE</enabled>
                <alphatype>straight</alphatype>
                <rate>
                  <timebase>24</timebase>
                  <ntsc>FALSE</ntsc>
                </rate>
                <enabled>TRUE</enabled>
                <start>335</start>
                <end>336</end>
                <file id="file-337"/>
              </clipitem>
              <clipitem frameBlend="FALSE" id="clipitem-1011">
                <name>Scene - LJ visemes.336.png</name>
                <masterclipid>masterclip-338</masterclipid>
                <rate>
                  <timebase>24</timebase>
                  <ntsc>FALSE</ntsc>
                </rate>
                <duration>1</duration>
                <enabled>TRUE</enabled>
                <alphatype>straight</alphatype>
                <rate>
                  <timebase>24</timebase>
                  <ntsc>FALSE</ntsc>
                </rate>
                <enabled>TRUE</enabled>
                <start>336</start>
                <end>337</end>
                <file id="file-338"/>
              </clipitem>
              <clipitem frameBlend="FALSE" id="clipitem-1012">
                <name>Scene - LJ visemes.337.png</name>
                <masterclipid>masterclip-339</masterclipid>
                <rate>
                  <timebase>24</timebase>
                  <ntsc>FALSE</ntsc>
                </rate>
                <duration>1</duration>
                <enabled>TRUE</enabled>
                <alphatype>straight</alphatype>
                <rate>
                  <timebase>24</timebase>
                  <ntsc>FALSE</ntsc>
                </rate>
                <enabled>TRUE</enabled>
                <start>337</start>
                <end>338</end>
                <file id="file-339"/>
              </clipitem>
              <clipitem frameBlend="FALSE" id="clipitem-1013">
                <name>Scene - LJ visemes.338.png</name>
                <masterclipid>masterclip-340</masterclipid>
                <rate>
                  <timebase>24</timebase>
                  <ntsc>FALSE</ntsc>
                </rate>
                <duration>1</duration>
                <enabled>TRUE</enabled>
                <alphatype>straight</alphatype>
                <rate>
                  <timebase>24</timebase>
                  <ntsc>FALSE</ntsc>
                </rate>
                <enabled>TRUE</enabled>
                <start>338</start>
                <end>339</end>
                <file id="file-340"/>
              </clipitem>
              <clipitem frameBlend="FALSE" id="clipitem-1014">
                <name>Scene - LJ visemes.339.png</name>
                <masterclipid>masterclip-341</masterclipid>
                <rate>
                  <timebase>24</timebase>
                  <ntsc>FALSE</ntsc>
                </rate>
                <duration>1</duration>
                <enabled>TRUE</enabled>
                <alphatype>straight</alphatype>
                <rate>
                  <timebase>24</timebase>
                  <ntsc>FALSE</ntsc>
                </rate>
                <enabled>TRUE</enabled>
                <start>339</start>
                <end>340</end>
                <file id="file-341"/>
              </clipitem>
              <clipitem frameBlend="FALSE" id="clipitem-1015">
                <name>Scene - LJ visemes.340.png</name>
                <masterclipid>masterclip-342</masterclipid>
                <rate>
                  <timebase>24</timebase>
                  <ntsc>FALSE</ntsc>
                </rate>
                <duration>1</duration>
                <enabled>TRUE</enabled>
                <alphatype>straight</alphatype>
                <rate>
                  <timebase>24</timebase>
                  <ntsc>FALSE</ntsc>
                </rate>
                <enabled>TRUE</enabled>
                <start>340</start>
                <end>341</end>
                <file id="file-342"/>
              </clipitem>
              <clipitem frameBlend="FALSE" id="clipitem-1016">
                <name>Scene - LJ visemes.341.png</name>
                <masterclipid>masterclip-343</masterclipid>
                <rate>
                  <timebase>24</timebase>
                  <ntsc>FALSE</ntsc>
                </rate>
                <duration>1</duration>
                <enabled>TRUE</enabled>
                <alphatype>straight</alphatype>
                <rate>
                  <timebase>24</timebase>
                  <ntsc>FALSE</ntsc>
                </rate>
                <enabled>TRUE</enabled>
                <start>341</start>
                <end>342</end>
                <file id="file-343"/>
              </clipitem>
              <clipitem frameBlend="FALSE" id="clipitem-1017">
                <name>Scene - LJ visemes.342.png</name>
                <masterclipid>masterclip-344</masterclipid>
                <rate>
                  <timebase>24</timebase>
                  <ntsc>FALSE</ntsc>
                </rate>
                <duration>1</duration>
                <enabled>TRUE</enabled>
                <alphatype>straight</alphatype>
                <rate>
                  <timebase>24</timebase>
                  <ntsc>FALSE</ntsc>
                </rate>
                <enabled>TRUE</enabled>
                <start>342</start>
                <end>343</end>
                <file id="file-344"/>
              </clipitem>
              <clipitem frameBlend="FALSE" id="clipitem-1018">
                <name>Scene - LJ visemes.343.png</name>
                <masterclipid>masterclip-345</masterclipid>
                <rate>
                  <timebase>24</timebase>
                  <ntsc>FALSE</ntsc>
                </rate>
                <duration>1</duration>
                <enabled>TRUE</enabled>
                <alphatype>straight</alphatype>
                <rate>
                  <timebase>24</timebase>
                  <ntsc>FALSE</ntsc>
                </rate>
                <enabled>TRUE</enabled>
                <start>343</start>
                <end>344</end>
                <file id="file-345"/>
              </clipitem>
              <clipitem frameBlend="FALSE" id="clipitem-1019">
                <name>Scene - LJ visemes.344.png</name>
                <masterclipid>masterclip-346</masterclipid>
                <rate>
                  <timebase>24</timebase>
                  <ntsc>FALSE</ntsc>
                </rate>
                <duration>1</duration>
                <enabled>TRUE</enabled>
                <alphatype>straight</alphatype>
                <rate>
                  <timebase>24</timebase>
                  <ntsc>FALSE</ntsc>
                </rate>
                <enabled>TRUE</enabled>
                <start>344</start>
                <end>345</end>
                <file id="file-346"/>
              </clipitem>
              <clipitem frameBlend="FALSE" id="clipitem-1020">
                <name>Scene - LJ visemes.345.png</name>
                <masterclipid>masterclip-347</masterclipid>
                <rate>
                  <timebase>24</timebase>
                  <ntsc>FALSE</ntsc>
                </rate>
                <duration>1</duration>
                <enabled>TRUE</enabled>
                <alphatype>straight</alphatype>
                <rate>
                  <timebase>24</timebase>
                  <ntsc>FALSE</ntsc>
                </rate>
                <enabled>TRUE</enabled>
                <start>345</start>
                <end>346</end>
                <file id="file-347"/>
              </clipitem>
              <clipitem frameBlend="FALSE" id="clipitem-1021">
                <name>Scene - LJ visemes.346.png</name>
                <masterclipid>masterclip-348</masterclipid>
                <rate>
                  <timebase>24</timebase>
                  <ntsc>FALSE</ntsc>
                </rate>
                <duration>1</duration>
                <enabled>TRUE</enabled>
                <alphatype>straight</alphatype>
                <rate>
                  <timebase>24</timebase>
                  <ntsc>FALSE</ntsc>
                </rate>
                <enabled>TRUE</enabled>
                <start>346</start>
                <end>347</end>
                <file id="file-348"/>
              </clipitem>
              <clipitem frameBlend="FALSE" id="clipitem-1022">
                <name>Scene - LJ visemes.347.png</name>
                <masterclipid>masterclip-349</masterclipid>
                <rate>
                  <timebase>24</timebase>
                  <ntsc>FALSE</ntsc>
                </rate>
                <duration>1</duration>
                <enabled>TRUE</enabled>
                <alphatype>straight</alphatype>
                <rate>
                  <timebase>24</timebase>
                  <ntsc>FALSE</ntsc>
                </rate>
                <enabled>TRUE</enabled>
                <start>347</start>
                <end>348</end>
                <file id="file-349"/>
              </clipitem>
              <clipitem frameBlend="FALSE" id="clipitem-1023">
                <name>Scene - LJ visemes.348.png</name>
                <masterclipid>masterclip-350</masterclipid>
                <rate>
                  <timebase>24</timebase>
                  <ntsc>FALSE</ntsc>
                </rate>
                <duration>1</duration>
                <enabled>TRUE</enabled>
                <alphatype>straight</alphatype>
                <rate>
                  <timebase>24</timebase>
                  <ntsc>FALSE</ntsc>
                </rate>
                <enabled>TRUE</enabled>
                <start>348</start>
                <end>349</end>
                <file id="file-350"/>
              </clipitem>
              <clipitem frameBlend="FALSE" id="clipitem-1024">
                <name>Scene - LJ visemes.349.png</name>
                <masterclipid>masterclip-351</masterclipid>
                <rate>
                  <timebase>24</timebase>
                  <ntsc>FALSE</ntsc>
                </rate>
                <duration>1</duration>
                <enabled>TRUE</enabled>
                <alphatype>straight</alphatype>
                <rate>
                  <timebase>24</timebase>
                  <ntsc>FALSE</ntsc>
                </rate>
                <enabled>TRUE</enabled>
                <start>349</start>
                <end>350</end>
                <file id="file-351"/>
              </clipitem>
              <clipitem frameBlend="FALSE" id="clipitem-1025">
                <name>Scene - LJ visemes.350.png</name>
                <masterclipid>masterclip-352</masterclipid>
                <rate>
                  <timebase>24</timebase>
                  <ntsc>FALSE</ntsc>
                </rate>
                <duration>1</duration>
                <enabled>TRUE</enabled>
                <alphatype>straight</alphatype>
                <rate>
                  <timebase>24</timebase>
                  <ntsc>FALSE</ntsc>
                </rate>
                <enabled>TRUE</enabled>
                <start>350</start>
                <end>351</end>
                <file id="file-352"/>
              </clipitem>
              <clipitem frameBlend="FALSE" id="clipitem-1026">
                <name>Scene - LJ visemes.351.png</name>
                <masterclipid>masterclip-353</masterclipid>
                <rate>
                  <timebase>24</timebase>
                  <ntsc>FALSE</ntsc>
                </rate>
                <duration>1</duration>
                <enabled>TRUE</enabled>
                <alphatype>straight</alphatype>
                <rate>
                  <timebase>24</timebase>
                  <ntsc>FALSE</ntsc>
                </rate>
                <enabled>TRUE</enabled>
                <start>351</start>
                <end>352</end>
                <file id="file-353"/>
              </clipitem>
              <clipitem frameBlend="FALSE" id="clipitem-1027">
                <name>Scene - LJ visemes.352.png</name>
                <masterclipid>masterclip-354</masterclipid>
                <rate>
                  <timebase>24</timebase>
                  <ntsc>FALSE</ntsc>
                </rate>
                <duration>1</duration>
                <enabled>TRUE</enabled>
                <alphatype>straight</alphatype>
                <rate>
                  <timebase>24</timebase>
                  <ntsc>FALSE</ntsc>
                </rate>
                <enabled>TRUE</enabled>
                <start>352</start>
                <end>353</end>
                <file id="file-354"/>
              </clipitem>
              <clipitem frameBlend="FALSE" id="clipitem-1028">
                <name>Scene - LJ visemes.353.png</name>
                <masterclipid>masterclip-355</masterclipid>
                <rate>
                  <timebase>24</timebase>
                  <ntsc>FALSE</ntsc>
                </rate>
                <duration>1</duration>
                <enabled>TRUE</enabled>
                <alphatype>straight</alphatype>
                <rate>
                  <timebase>24</timebase>
                  <ntsc>FALSE</ntsc>
                </rate>
                <enabled>TRUE</enabled>
                <start>353</start>
                <end>354</end>
                <file id="file-355"/>
              </clipitem>
              <clipitem frameBlend="FALSE" id="clipitem-1029">
                <name>Scene - LJ visemes.354.png</name>
                <masterclipid>masterclip-356</masterclipid>
                <rate>
                  <timebase>24</timebase>
                  <ntsc>FALSE</ntsc>
                </rate>
                <duration>1</duration>
                <enabled>TRUE</enabled>
                <alphatype>straight</alphatype>
                <rate>
                  <timebase>24</timebase>
                  <ntsc>FALSE</ntsc>
                </rate>
                <enabled>TRUE</enabled>
                <start>354</start>
                <end>355</end>
                <file id="file-356"/>
              </clipitem>
              <clipitem frameBlend="FALSE" id="clipitem-1030">
                <name>Scene - LJ visemes.355.png</name>
                <masterclipid>masterclip-357</masterclipid>
                <rate>
                  <timebase>24</timebase>
                  <ntsc>FALSE</ntsc>
                </rate>
                <duration>1</duration>
                <enabled>TRUE</enabled>
                <alphatype>straight</alphatype>
                <rate>
                  <timebase>24</timebase>
                  <ntsc>FALSE</ntsc>
                </rate>
                <enabled>TRUE</enabled>
                <start>355</start>
                <end>356</end>
                <file id="file-357"/>
              </clipitem>
              <clipitem frameBlend="FALSE" id="clipitem-1031">
                <name>Scene - LJ visemes.356.png</name>
                <masterclipid>masterclip-358</masterclipid>
                <rate>
                  <timebase>24</timebase>
                  <ntsc>FALSE</ntsc>
                </rate>
                <duration>1</duration>
                <enabled>TRUE</enabled>
                <alphatype>straight</alphatype>
                <rate>
                  <timebase>24</timebase>
                  <ntsc>FALSE</ntsc>
                </rate>
                <enabled>TRUE</enabled>
                <start>356</start>
                <end>357</end>
                <file id="file-358"/>
              </clipitem>
              <clipitem frameBlend="FALSE" id="clipitem-1032">
                <name>Scene - LJ visemes.357.png</name>
                <masterclipid>masterclip-359</masterclipid>
                <rate>
                  <timebase>24</timebase>
                  <ntsc>FALSE</ntsc>
                </rate>
                <duration>1</duration>
                <enabled>TRUE</enabled>
                <alphatype>straight</alphatype>
                <rate>
                  <timebase>24</timebase>
                  <ntsc>FALSE</ntsc>
                </rate>
                <enabled>TRUE</enabled>
                <start>357</start>
                <end>358</end>
                <file id="file-359"/>
              </clipitem>
              <clipitem frameBlend="FALSE" id="clipitem-1033">
                <name>Scene - LJ visemes.358.png</name>
                <masterclipid>masterclip-360</masterclipid>
                <rate>
                  <timebase>24</timebase>
                  <ntsc>FALSE</ntsc>
                </rate>
                <duration>1</duration>
                <enabled>TRUE</enabled>
                <alphatype>straight</alphatype>
                <rate>
                  <timebase>24</timebase>
                  <ntsc>FALSE</ntsc>
                </rate>
                <enabled>TRUE</enabled>
                <start>358</start>
                <end>359</end>
                <file id="file-360"/>
              </clipitem>
              <clipitem frameBlend="FALSE" id="clipitem-1034">
                <name>Scene - LJ visemes.359.png</name>
                <masterclipid>masterclip-361</masterclipid>
                <rate>
                  <timebase>24</timebase>
                  <ntsc>FALSE</ntsc>
                </rate>
                <duration>1</duration>
                <enabled>TRUE</enabled>
                <alphatype>straight</alphatype>
                <rate>
                  <timebase>24</timebase>
                  <ntsc>FALSE</ntsc>
                </rate>
                <enabled>TRUE</enabled>
                <start>359</start>
                <end>360</end>
                <file id="file-361"/>
              </clipitem>
              <clipitem frameBlend="FALSE" id="clipitem-1035">
                <name>Scene - LJ visemes.360.png</name>
                <masterclipid>masterclip-362</masterclipid>
                <rate>
                  <timebase>24</timebase>
                  <ntsc>FALSE</ntsc>
                </rate>
                <duration>1</duration>
                <enabled>TRUE</enabled>
                <alphatype>straight</alphatype>
                <rate>
                  <timebase>24</timebase>
                  <ntsc>FALSE</ntsc>
                </rate>
                <enabled>TRUE</enabled>
                <start>360</start>
                <end>361</end>
                <file id="file-362"/>
              </clipitem>
              <clipitem frameBlend="FALSE" id="clipitem-1036">
                <name>Scene - LJ visemes.361.png</name>
                <masterclipid>masterclip-363</masterclipid>
                <rate>
                  <timebase>24</timebase>
                  <ntsc>FALSE</ntsc>
                </rate>
                <duration>1</duration>
                <enabled>TRUE</enabled>
                <alphatype>straight</alphatype>
                <rate>
                  <timebase>24</timebase>
                  <ntsc>FALSE</ntsc>
                </rate>
                <enabled>TRUE</enabled>
                <start>361</start>
                <end>362</end>
                <file id="file-363"/>
              </clipitem>
              <clipitem frameBlend="FALSE" id="clipitem-1037">
                <name>Scene - LJ visemes.362.png</name>
                <masterclipid>masterclip-364</masterclipid>
                <rate>
                  <timebase>24</timebase>
                  <ntsc>FALSE</ntsc>
                </rate>
                <duration>1</duration>
                <enabled>TRUE</enabled>
                <alphatype>straight</alphatype>
                <rate>
                  <timebase>24</timebase>
                  <ntsc>FALSE</ntsc>
                </rate>
                <enabled>TRUE</enabled>
                <start>362</start>
                <end>363</end>
                <file id="file-364"/>
              </clipitem>
              <clipitem frameBlend="FALSE" id="clipitem-1038">
                <name>Scene - LJ visemes.363.png</name>
                <masterclipid>masterclip-365</masterclipid>
                <rate>
                  <timebase>24</timebase>
                  <ntsc>FALSE</ntsc>
                </rate>
                <duration>1</duration>
                <enabled>TRUE</enabled>
                <alphatype>straight</alphatype>
                <rate>
                  <timebase>24</timebase>
                  <ntsc>FALSE</ntsc>
                </rate>
                <enabled>TRUE</enabled>
                <start>363</start>
                <end>364</end>
                <file id="file-365"/>
              </clipitem>
              <clipitem frameBlend="FALSE" id="clipitem-1039">
                <name>Scene - LJ visemes.364.png</name>
                <masterclipid>masterclip-366</masterclipid>
                <rate>
                  <timebase>24</timebase>
                  <ntsc>FALSE</ntsc>
                </rate>
                <duration>1</duration>
                <enabled>TRUE</enabled>
                <alphatype>straight</alphatype>
                <rate>
                  <timebase>24</timebase>
                  <ntsc>FALSE</ntsc>
                </rate>
                <enabled>TRUE</enabled>
                <start>364</start>
                <end>365</end>
                <file id="file-366"/>
              </clipitem>
              <clipitem frameBlend="FALSE" id="clipitem-1040">
                <name>Scene - LJ visemes.365.png</name>
                <masterclipid>masterclip-367</masterclipid>
                <rate>
                  <timebase>24</timebase>
                  <ntsc>FALSE</ntsc>
                </rate>
                <duration>1</duration>
                <enabled>TRUE</enabled>
                <alphatype>straight</alphatype>
                <rate>
                  <timebase>24</timebase>
                  <ntsc>FALSE</ntsc>
                </rate>
                <enabled>TRUE</enabled>
                <start>365</start>
                <end>366</end>
                <file id="file-367"/>
              </clipitem>
              <clipitem frameBlend="FALSE" id="clipitem-1041">
                <name>Scene - LJ visemes.366.png</name>
                <masterclipid>masterclip-368</masterclipid>
                <rate>
                  <timebase>24</timebase>
                  <ntsc>FALSE</ntsc>
                </rate>
                <duration>1</duration>
                <enabled>TRUE</enabled>
                <alphatype>straight</alphatype>
                <rate>
                  <timebase>24</timebase>
                  <ntsc>FALSE</ntsc>
                </rate>
                <enabled>TRUE</enabled>
                <start>366</start>
                <end>367</end>
                <file id="file-368"/>
              </clipitem>
              <clipitem frameBlend="FALSE" id="clipitem-1042">
                <name>Scene - LJ visemes.367.png</name>
                <masterclipid>masterclip-369</masterclipid>
                <rate>
                  <timebase>24</timebase>
                  <ntsc>FALSE</ntsc>
                </rate>
                <duration>1</duration>
                <enabled>TRUE</enabled>
                <alphatype>straight</alphatype>
                <rate>
                  <timebase>24</timebase>
                  <ntsc>FALSE</ntsc>
                </rate>
                <enabled>TRUE</enabled>
                <start>367</start>
                <end>368</end>
                <file id="file-369"/>
              </clipitem>
              <clipitem frameBlend="FALSE" id="clipitem-1043">
                <name>Scene - LJ visemes.368.png</name>
                <masterclipid>masterclip-370</masterclipid>
                <rate>
                  <timebase>24</timebase>
                  <ntsc>FALSE</ntsc>
                </rate>
                <duration>1</duration>
                <enabled>TRUE</enabled>
                <alphatype>straight</alphatype>
                <rate>
                  <timebase>24</timebase>
                  <ntsc>FALSE</ntsc>
                </rate>
                <enabled>TRUE</enabled>
                <start>368</start>
                <end>369</end>
                <file id="file-370"/>
              </clipitem>
              <clipitem frameBlend="FALSE" id="clipitem-1044">
                <name>Scene - LJ visemes.369.png</name>
                <masterclipid>masterclip-371</masterclipid>
                <rate>
                  <timebase>24</timebase>
                  <ntsc>FALSE</ntsc>
                </rate>
                <duration>1</duration>
                <enabled>TRUE</enabled>
                <alphatype>straight</alphatype>
                <rate>
                  <timebase>24</timebase>
                  <ntsc>FALSE</ntsc>
                </rate>
                <enabled>TRUE</enabled>
                <start>369</start>
                <end>370</end>
                <file id="file-371"/>
              </clipitem>
              <clipitem frameBlend="FALSE" id="clipitem-1045">
                <name>Scene - LJ visemes.370.png</name>
                <masterclipid>masterclip-372</masterclipid>
                <rate>
                  <timebase>24</timebase>
                  <ntsc>FALSE</ntsc>
                </rate>
                <duration>1</duration>
                <enabled>TRUE</enabled>
                <alphatype>straight</alphatype>
                <rate>
                  <timebase>24</timebase>
                  <ntsc>FALSE</ntsc>
                </rate>
                <enabled>TRUE</enabled>
                <start>370</start>
                <end>371</end>
                <file id="file-372"/>
              </clipitem>
              <clipitem frameBlend="FALSE" id="clipitem-1046">
                <name>Scene - LJ visemes.371.png</name>
                <masterclipid>masterclip-373</masterclipid>
                <rate>
                  <timebase>24</timebase>
                  <ntsc>FALSE</ntsc>
                </rate>
                <duration>1</duration>
                <enabled>TRUE</enabled>
                <alphatype>straight</alphatype>
                <rate>
                  <timebase>24</timebase>
                  <ntsc>FALSE</ntsc>
                </rate>
                <enabled>TRUE</enabled>
                <start>371</start>
                <end>372</end>
                <file id="file-373"/>
              </clipitem>
              <clipitem frameBlend="FALSE" id="clipitem-1047">
                <name>Scene - LJ visemes.372.png</name>
                <masterclipid>masterclip-374</masterclipid>
                <rate>
                  <timebase>24</timebase>
                  <ntsc>FALSE</ntsc>
                </rate>
                <duration>1</duration>
                <enabled>TRUE</enabled>
                <alphatype>straight</alphatype>
                <rate>
                  <timebase>24</timebase>
                  <ntsc>FALSE</ntsc>
                </rate>
                <enabled>TRUE</enabled>
                <start>372</start>
                <end>373</end>
                <file id="file-374"/>
              </clipitem>
              <clipitem frameBlend="FALSE" id="clipitem-1048">
                <name>Scene - LJ visemes.373.png</name>
                <masterclipid>masterclip-375</masterclipid>
                <rate>
                  <timebase>24</timebase>
                  <ntsc>FALSE</ntsc>
                </rate>
                <duration>1</duration>
                <enabled>TRUE</enabled>
                <alphatype>straight</alphatype>
                <rate>
                  <timebase>24</timebase>
                  <ntsc>FALSE</ntsc>
                </rate>
                <enabled>TRUE</enabled>
                <start>373</start>
                <end>374</end>
                <file id="file-375"/>
              </clipitem>
              <clipitem frameBlend="FALSE" id="clipitem-1049">
                <name>Scene - LJ visemes.374.png</name>
                <masterclipid>masterclip-376</masterclipid>
                <rate>
                  <timebase>24</timebase>
                  <ntsc>FALSE</ntsc>
                </rate>
                <duration>1</duration>
                <enabled>TRUE</enabled>
                <alphatype>straight</alphatype>
                <rate>
                  <timebase>24</timebase>
                  <ntsc>FALSE</ntsc>
                </rate>
                <enabled>TRUE</enabled>
                <start>374</start>
                <end>375</end>
                <file id="file-376"/>
              </clipitem>
              <clipitem frameBlend="FALSE" id="clipitem-1050">
                <name>Scene - LJ visemes.375.png</name>
                <masterclipid>masterclip-377</masterclipid>
                <rate>
                  <timebase>24</timebase>
                  <ntsc>FALSE</ntsc>
                </rate>
                <duration>1</duration>
                <enabled>TRUE</enabled>
                <alphatype>straight</alphatype>
                <rate>
                  <timebase>24</timebase>
                  <ntsc>FALSE</ntsc>
                </rate>
                <enabled>TRUE</enabled>
                <start>375</start>
                <end>376</end>
                <file id="file-377"/>
              </clipitem>
              <clipitem frameBlend="FALSE" id="clipitem-1051">
                <name>Scene - LJ visemes.376.png</name>
                <masterclipid>masterclip-378</masterclipid>
                <rate>
                  <timebase>24</timebase>
                  <ntsc>FALSE</ntsc>
                </rate>
                <duration>1</duration>
                <enabled>TRUE</enabled>
                <alphatype>straight</alphatype>
                <rate>
                  <timebase>24</timebase>
                  <ntsc>FALSE</ntsc>
                </rate>
                <enabled>TRUE</enabled>
                <start>376</start>
                <end>377</end>
                <file id="file-378"/>
              </clipitem>
              <clipitem frameBlend="FALSE" id="clipitem-1052">
                <name>Scene - LJ visemes.377.png</name>
                <masterclipid>masterclip-379</masterclipid>
                <rate>
                  <timebase>24</timebase>
                  <ntsc>FALSE</ntsc>
                </rate>
                <duration>1</duration>
                <enabled>TRUE</enabled>
                <alphatype>straight</alphatype>
                <rate>
                  <timebase>24</timebase>
                  <ntsc>FALSE</ntsc>
                </rate>
                <enabled>TRUE</enabled>
                <start>377</start>
                <end>378</end>
                <file id="file-379"/>
              </clipitem>
              <clipitem frameBlend="FALSE" id="clipitem-1053">
                <name>Scene - LJ visemes.378.png</name>
                <masterclipid>masterclip-380</masterclipid>
                <rate>
                  <timebase>24</timebase>
                  <ntsc>FALSE</ntsc>
                </rate>
                <duration>1</duration>
                <enabled>TRUE</enabled>
                <alphatype>straight</alphatype>
                <rate>
                  <timebase>24</timebase>
                  <ntsc>FALSE</ntsc>
                </rate>
                <enabled>TRUE</enabled>
                <start>378</start>
                <end>379</end>
                <file id="file-380"/>
              </clipitem>
              <clipitem frameBlend="FALSE" id="clipitem-1054">
                <name>Scene - LJ visemes.379.png</name>
                <masterclipid>masterclip-381</masterclipid>
                <rate>
                  <timebase>24</timebase>
                  <ntsc>FALSE</ntsc>
                </rate>
                <duration>1</duration>
                <enabled>TRUE</enabled>
                <alphatype>straight</alphatype>
                <rate>
                  <timebase>24</timebase>
                  <ntsc>FALSE</ntsc>
                </rate>
                <enabled>TRUE</enabled>
                <start>379</start>
                <end>380</end>
                <file id="file-381"/>
              </clipitem>
              <clipitem frameBlend="FALSE" id="clipitem-1055">
                <name>Scene - LJ visemes.380.png</name>
                <masterclipid>masterclip-382</masterclipid>
                <rate>
                  <timebase>24</timebase>
                  <ntsc>FALSE</ntsc>
                </rate>
                <duration>1</duration>
                <enabled>TRUE</enabled>
                <alphatype>straight</alphatype>
                <rate>
                  <timebase>24</timebase>
                  <ntsc>FALSE</ntsc>
                </rate>
                <enabled>TRUE</enabled>
                <start>380</start>
                <end>381</end>
                <file id="file-382"/>
              </clipitem>
              <clipitem frameBlend="FALSE" id="clipitem-1056">
                <name>Scene - LJ visemes.381.png</name>
                <masterclipid>masterclip-383</masterclipid>
                <rate>
                  <timebase>24</timebase>
                  <ntsc>FALSE</ntsc>
                </rate>
                <duration>1</duration>
                <enabled>TRUE</enabled>
                <alphatype>straight</alphatype>
                <rate>
                  <timebase>24</timebase>
                  <ntsc>FALSE</ntsc>
                </rate>
                <enabled>TRUE</enabled>
                <start>381</start>
                <end>382</end>
                <file id="file-383"/>
              </clipitem>
              <clipitem frameBlend="FALSE" id="clipitem-1057">
                <name>Scene - LJ visemes.382.png</name>
                <masterclipid>masterclip-384</masterclipid>
                <rate>
                  <timebase>24</timebase>
                  <ntsc>FALSE</ntsc>
                </rate>
                <duration>1</duration>
                <enabled>TRUE</enabled>
                <alphatype>straight</alphatype>
                <rate>
                  <timebase>24</timebase>
                  <ntsc>FALSE</ntsc>
                </rate>
                <enabled>TRUE</enabled>
                <start>382</start>
                <end>383</end>
                <file id="file-384"/>
              </clipitem>
              <clipitem frameBlend="FALSE" id="clipitem-1058">
                <name>Scene - LJ visemes.383.png</name>
                <masterclipid>masterclip-385</masterclipid>
                <rate>
                  <timebase>24</timebase>
                  <ntsc>FALSE</ntsc>
                </rate>
                <duration>1</duration>
                <enabled>TRUE</enabled>
                <alphatype>straight</alphatype>
                <rate>
                  <timebase>24</timebase>
                  <ntsc>FALSE</ntsc>
                </rate>
                <enabled>TRUE</enabled>
                <start>383</start>
                <end>384</end>
                <file id="file-385"/>
              </clipitem>
              <clipitem frameBlend="FALSE" id="clipitem-1059">
                <name>Scene - LJ visemes.384.png</name>
                <masterclipid>masterclip-386</masterclipid>
                <rate>
                  <timebase>24</timebase>
                  <ntsc>FALSE</ntsc>
                </rate>
                <duration>1</duration>
                <enabled>TRUE</enabled>
                <alphatype>straight</alphatype>
                <rate>
                  <timebase>24</timebase>
                  <ntsc>FALSE</ntsc>
                </rate>
                <enabled>TRUE</enabled>
                <start>384</start>
                <end>385</end>
                <file id="file-386"/>
              </clipitem>
              <clipitem frameBlend="FALSE" id="clipitem-1060">
                <name>Scene - LJ visemes.385.png</name>
                <masterclipid>masterclip-387</masterclipid>
                <rate>
                  <timebase>24</timebase>
                  <ntsc>FALSE</ntsc>
                </rate>
                <duration>1</duration>
                <enabled>TRUE</enabled>
                <alphatype>straight</alphatype>
                <rate>
                  <timebase>24</timebase>
                  <ntsc>FALSE</ntsc>
                </rate>
                <enabled>TRUE</enabled>
                <start>385</start>
                <end>386</end>
                <file id="file-387"/>
              </clipitem>
              <clipitem frameBlend="FALSE" id="clipitem-1061">
                <name>Scene - LJ visemes.386.png</name>
                <masterclipid>masterclip-388</masterclipid>
                <rate>
                  <timebase>24</timebase>
                  <ntsc>FALSE</ntsc>
                </rate>
                <duration>1</duration>
                <enabled>TRUE</enabled>
                <alphatype>straight</alphatype>
                <rate>
                  <timebase>24</timebase>
                  <ntsc>FALSE</ntsc>
                </rate>
                <enabled>TRUE</enabled>
                <start>386</start>
                <end>387</end>
                <file id="file-388"/>
              </clipitem>
              <clipitem frameBlend="FALSE" id="clipitem-1062">
                <name>Scene - LJ visemes.387.png</name>
                <masterclipid>masterclip-389</masterclipid>
                <rate>
                  <timebase>24</timebase>
                  <ntsc>FALSE</ntsc>
                </rate>
                <duration>1</duration>
                <enabled>TRUE</enabled>
                <alphatype>straight</alphatype>
                <rate>
                  <timebase>24</timebase>
                  <ntsc>FALSE</ntsc>
                </rate>
                <enabled>TRUE</enabled>
                <start>387</start>
                <end>388</end>
                <file id="file-389"/>
              </clipitem>
              <clipitem frameBlend="FALSE" id="clipitem-1063">
                <name>Scene - LJ visemes.388.png</name>
                <masterclipid>masterclip-390</masterclipid>
                <rate>
                  <timebase>24</timebase>
                  <ntsc>FALSE</ntsc>
                </rate>
                <duration>1</duration>
                <enabled>TRUE</enabled>
                <alphatype>straight</alphatype>
                <rate>
                  <timebase>24</timebase>
                  <ntsc>FALSE</ntsc>
                </rate>
                <enabled>TRUE</enabled>
                <start>388</start>
                <end>389</end>
                <file id="file-390"/>
              </clipitem>
              <clipitem frameBlend="FALSE" id="clipitem-1064">
                <name>Scene - LJ visemes.389.png</name>
                <masterclipid>masterclip-391</masterclipid>
                <rate>
                  <timebase>24</timebase>
                  <ntsc>FALSE</ntsc>
                </rate>
                <duration>1</duration>
                <enabled>TRUE</enabled>
                <alphatype>straight</alphatype>
                <rate>
                  <timebase>24</timebase>
                  <ntsc>FALSE</ntsc>
                </rate>
                <enabled>TRUE</enabled>
                <start>389</start>
                <end>390</end>
                <file id="file-391"/>
              </clipitem>
              <clipitem frameBlend="FALSE" id="clipitem-1065">
                <name>Scene - LJ visemes.390.png</name>
                <masterclipid>masterclip-392</masterclipid>
                <rate>
                  <timebase>24</timebase>
                  <ntsc>FALSE</ntsc>
                </rate>
                <duration>1</duration>
                <enabled>TRUE</enabled>
                <alphatype>straight</alphatype>
                <rate>
                  <timebase>24</timebase>
                  <ntsc>FALSE</ntsc>
                </rate>
                <enabled>TRUE</enabled>
                <start>390</start>
                <end>391</end>
                <file id="file-392"/>
              </clipitem>
              <clipitem frameBlend="FALSE" id="clipitem-1066">
                <name>Scene - LJ visemes.391.png</name>
                <masterclipid>masterclip-393</masterclipid>
                <rate>
                  <timebase>24</timebase>
                  <ntsc>FALSE</ntsc>
                </rate>
                <duration>1</duration>
                <enabled>TRUE</enabled>
                <alphatype>straight</alphatype>
                <rate>
                  <timebase>24</timebase>
                  <ntsc>FALSE</ntsc>
                </rate>
                <enabled>TRUE</enabled>
                <start>391</start>
                <end>392</end>
                <file id="file-393"/>
              </clipitem>
              <clipitem frameBlend="FALSE" id="clipitem-1067">
                <name>Scene - LJ visemes.392.png</name>
                <masterclipid>masterclip-394</masterclipid>
                <rate>
                  <timebase>24</timebase>
                  <ntsc>FALSE</ntsc>
                </rate>
                <duration>1</duration>
                <enabled>TRUE</enabled>
                <alphatype>straight</alphatype>
                <rate>
                  <timebase>24</timebase>
                  <ntsc>FALSE</ntsc>
                </rate>
                <enabled>TRUE</enabled>
                <start>392</start>
                <end>393</end>
                <file id="file-394"/>
              </clipitem>
              <clipitem frameBlend="FALSE" id="clipitem-1068">
                <name>Scene - LJ visemes.393.png</name>
                <masterclipid>masterclip-395</masterclipid>
                <rate>
                  <timebase>24</timebase>
                  <ntsc>FALSE</ntsc>
                </rate>
                <duration>1</duration>
                <enabled>TRUE</enabled>
                <alphatype>straight</alphatype>
                <rate>
                  <timebase>24</timebase>
                  <ntsc>FALSE</ntsc>
                </rate>
                <enabled>TRUE</enabled>
                <start>393</start>
                <end>394</end>
                <file id="file-395"/>
              </clipitem>
              <clipitem frameBlend="FALSE" id="clipitem-1069">
                <name>Scene - LJ visemes.394.png</name>
                <masterclipid>masterclip-396</masterclipid>
                <rate>
                  <timebase>24</timebase>
                  <ntsc>FALSE</ntsc>
                </rate>
                <duration>1</duration>
                <enabled>TRUE</enabled>
                <alphatype>straight</alphatype>
                <rate>
                  <timebase>24</timebase>
                  <ntsc>FALSE</ntsc>
                </rate>
                <enabled>TRUE</enabled>
                <start>394</start>
                <end>395</end>
                <file id="file-396"/>
              </clipitem>
              <clipitem frameBlend="FALSE" id="clipitem-1070">
                <name>Scene - LJ visemes.395.png</name>
                <masterclipid>masterclip-397</masterclipid>
                <rate>
                  <timebase>24</timebase>
                  <ntsc>FALSE</ntsc>
                </rate>
                <duration>1</duration>
                <enabled>TRUE</enabled>
                <alphatype>straight</alphatype>
                <rate>
                  <timebase>24</timebase>
                  <ntsc>FALSE</ntsc>
                </rate>
                <enabled>TRUE</enabled>
                <start>395</start>
                <end>396</end>
                <file id="file-397"/>
              </clipitem>
              <clipitem frameBlend="FALSE" id="clipitem-1071">
                <name>Scene - LJ visemes.396.png</name>
                <masterclipid>masterclip-398</masterclipid>
                <rate>
                  <timebase>24</timebase>
                  <ntsc>FALSE</ntsc>
                </rate>
                <duration>1</duration>
                <enabled>TRUE</enabled>
                <alphatype>straight</alphatype>
                <rate>
                  <timebase>24</timebase>
                  <ntsc>FALSE</ntsc>
                </rate>
                <enabled>TRUE</enabled>
                <start>396</start>
                <end>397</end>
                <file id="file-398"/>
              </clipitem>
              <clipitem frameBlend="FALSE" id="clipitem-1072">
                <name>Scene - LJ visemes.397.png</name>
                <masterclipid>masterclip-399</masterclipid>
                <rate>
                  <timebase>24</timebase>
                  <ntsc>FALSE</ntsc>
                </rate>
                <duration>1</duration>
                <enabled>TRUE</enabled>
                <alphatype>straight</alphatype>
                <rate>
                  <timebase>24</timebase>
                  <ntsc>FALSE</ntsc>
                </rate>
                <enabled>TRUE</enabled>
                <start>397</start>
                <end>398</end>
                <file id="file-399"/>
              </clipitem>
              <clipitem frameBlend="FALSE" id="clipitem-1073">
                <name>Scene - LJ visemes.398.png</name>
                <masterclipid>masterclip-400</masterclipid>
                <rate>
                  <timebase>24</timebase>
                  <ntsc>FALSE</ntsc>
                </rate>
                <duration>1</duration>
                <enabled>TRUE</enabled>
                <alphatype>straight</alphatype>
                <rate>
                  <timebase>24</timebase>
                  <ntsc>FALSE</ntsc>
                </rate>
                <enabled>TRUE</enabled>
                <start>398</start>
                <end>399</end>
                <file id="file-400"/>
              </clipitem>
              <clipitem frameBlend="FALSE" id="clipitem-1074">
                <name>Scene - LJ visemes.399.png</name>
                <masterclipid>masterclip-401</masterclipid>
                <rate>
                  <timebase>24</timebase>
                  <ntsc>FALSE</ntsc>
                </rate>
                <duration>1</duration>
                <enabled>TRUE</enabled>
                <alphatype>straight</alphatype>
                <rate>
                  <timebase>24</timebase>
                  <ntsc>FALSE</ntsc>
                </rate>
                <enabled>TRUE</enabled>
                <start>399</start>
                <end>400</end>
                <file id="file-401"/>
              </clipitem>
              <clipitem frameBlend="FALSE" id="clipitem-1075">
                <name>Scene - LJ visemes.400.png</name>
                <masterclipid>masterclip-402</masterclipid>
                <rate>
                  <timebase>24</timebase>
                  <ntsc>FALSE</ntsc>
                </rate>
                <duration>1</duration>
                <enabled>TRUE</enabled>
                <alphatype>straight</alphatype>
                <rate>
                  <timebase>24</timebase>
                  <ntsc>FALSE</ntsc>
                </rate>
                <enabled>TRUE</enabled>
                <start>400</start>
                <end>401</end>
                <file id="file-402"/>
              </clipitem>
              <clipitem frameBlend="FALSE" id="clipitem-1076">
                <name>Scene - LJ visemes.401.png</name>
                <masterclipid>masterclip-403</masterclipid>
                <rate>
                  <timebase>24</timebase>
                  <ntsc>FALSE</ntsc>
                </rate>
                <duration>1</duration>
                <enabled>TRUE</enabled>
                <alphatype>straight</alphatype>
                <rate>
                  <timebase>24</timebase>
                  <ntsc>FALSE</ntsc>
                </rate>
                <enabled>TRUE</enabled>
                <start>401</start>
                <end>402</end>
                <file id="file-403"/>
              </clipitem>
              <clipitem frameBlend="FALSE" id="clipitem-1077">
                <name>Scene - LJ visemes.402.png</name>
                <masterclipid>masterclip-404</masterclipid>
                <rate>
                  <timebase>24</timebase>
                  <ntsc>FALSE</ntsc>
                </rate>
                <duration>1</duration>
                <enabled>TRUE</enabled>
                <alphatype>straight</alphatype>
                <rate>
                  <timebase>24</timebase>
                  <ntsc>FALSE</ntsc>
                </rate>
                <enabled>TRUE</enabled>
                <start>402</start>
                <end>403</end>
                <file id="file-404"/>
              </clipitem>
              <clipitem frameBlend="FALSE" id="clipitem-1078">
                <name>Scene - LJ visemes.403.png</name>
                <masterclipid>masterclip-405</masterclipid>
                <rate>
                  <timebase>24</timebase>
                  <ntsc>FALSE</ntsc>
                </rate>
                <duration>1</duration>
                <enabled>TRUE</enabled>
                <alphatype>straight</alphatype>
                <rate>
                  <timebase>24</timebase>
                  <ntsc>FALSE</ntsc>
                </rate>
                <enabled>TRUE</enabled>
                <start>403</start>
                <end>404</end>
                <file id="file-405"/>
              </clipitem>
              <clipitem frameBlend="FALSE" id="clipitem-1079">
                <name>Scene - LJ visemes.404.png</name>
                <masterclipid>masterclip-406</masterclipid>
                <rate>
                  <timebase>24</timebase>
                  <ntsc>FALSE</ntsc>
                </rate>
                <duration>1</duration>
                <enabled>TRUE</enabled>
                <alphatype>straight</alphatype>
                <rate>
                  <timebase>24</timebase>
                  <ntsc>FALSE</ntsc>
                </rate>
                <enabled>TRUE</enabled>
                <start>404</start>
                <end>405</end>
                <file id="file-406"/>
              </clipitem>
              <clipitem frameBlend="FALSE" id="clipitem-1080">
                <name>Scene - LJ visemes.405.png</name>
                <masterclipid>masterclip-407</masterclipid>
                <rate>
                  <timebase>24</timebase>
                  <ntsc>FALSE</ntsc>
                </rate>
                <duration>1</duration>
                <enabled>TRUE</enabled>
                <alphatype>straight</alphatype>
                <rate>
                  <timebase>24</timebase>
                  <ntsc>FALSE</ntsc>
                </rate>
                <enabled>TRUE</enabled>
                <start>405</start>
                <end>406</end>
                <file id="file-407"/>
              </clipitem>
              <clipitem frameBlend="FALSE" id="clipitem-1081">
                <name>Scene - LJ visemes.406.png</name>
                <masterclipid>masterclip-408</masterclipid>
                <rate>
                  <timebase>24</timebase>
                  <ntsc>FALSE</ntsc>
                </rate>
                <duration>1</duration>
                <enabled>TRUE</enabled>
                <alphatype>straight</alphatype>
                <rate>
                  <timebase>24</timebase>
                  <ntsc>FALSE</ntsc>
                </rate>
                <enabled>TRUE</enabled>
                <start>406</start>
                <end>407</end>
                <file id="file-408"/>
              </clipitem>
              <clipitem frameBlend="FALSE" id="clipitem-1082">
                <name>Scene - LJ visemes.407.png</name>
                <masterclipid>masterclip-409</masterclipid>
                <rate>
                  <timebase>24</timebase>
                  <ntsc>FALSE</ntsc>
                </rate>
                <duration>1</duration>
                <enabled>TRUE</enabled>
                <alphatype>straight</alphatype>
                <rate>
                  <timebase>24</timebase>
                  <ntsc>FALSE</ntsc>
                </rate>
                <enabled>TRUE</enabled>
                <start>407</start>
                <end>408</end>
                <file id="file-409"/>
              </clipitem>
              <clipitem frameBlend="FALSE" id="clipitem-1083">
                <name>Scene - LJ visemes.408.png</name>
                <masterclipid>masterclip-410</masterclipid>
                <rate>
                  <timebase>24</timebase>
                  <ntsc>FALSE</ntsc>
                </rate>
                <duration>1</duration>
                <enabled>TRUE</enabled>
                <alphatype>straight</alphatype>
                <rate>
                  <timebase>24</timebase>
                  <ntsc>FALSE</ntsc>
                </rate>
                <enabled>TRUE</enabled>
                <start>408</start>
                <end>409</end>
                <file id="file-410"/>
              </clipitem>
              <clipitem frameBlend="FALSE" id="clipitem-1084">
                <name>Scene - LJ visemes.409.png</name>
                <masterclipid>masterclip-411</masterclipid>
                <rate>
                  <timebase>24</timebase>
                  <ntsc>FALSE</ntsc>
                </rate>
                <duration>1</duration>
                <enabled>TRUE</enabled>
                <alphatype>straight</alphatype>
                <rate>
                  <timebase>24</timebase>
                  <ntsc>FALSE</ntsc>
                </rate>
                <enabled>TRUE</enabled>
                <start>409</start>
                <end>410</end>
                <file id="file-411"/>
              </clipitem>
              <clipitem frameBlend="FALSE" id="clipitem-1085">
                <name>Scene - LJ visemes.410.png</name>
                <masterclipid>masterclip-412</masterclipid>
                <rate>
                  <timebase>24</timebase>
                  <ntsc>FALSE</ntsc>
                </rate>
                <duration>1</duration>
                <enabled>TRUE</enabled>
                <alphatype>straight</alphatype>
                <rate>
                  <timebase>24</timebase>
                  <ntsc>FALSE</ntsc>
                </rate>
                <enabled>TRUE</enabled>
                <start>410</start>
                <end>411</end>
                <file id="file-412"/>
              </clipitem>
              <clipitem frameBlend="FALSE" id="clipitem-1086">
                <name>Scene - LJ visemes.411.png</name>
                <masterclipid>masterclip-413</masterclipid>
                <rate>
                  <timebase>24</timebase>
                  <ntsc>FALSE</ntsc>
                </rate>
                <duration>1</duration>
                <enabled>TRUE</enabled>
                <alphatype>straight</alphatype>
                <rate>
                  <timebase>24</timebase>
                  <ntsc>FALSE</ntsc>
                </rate>
                <enabled>TRUE</enabled>
                <start>411</start>
                <end>412</end>
                <file id="file-413"/>
              </clipitem>
              <clipitem frameBlend="FALSE" id="clipitem-1087">
                <name>Scene - LJ visemes.412.png</name>
                <masterclipid>masterclip-414</masterclipid>
                <rate>
                  <timebase>24</timebase>
                  <ntsc>FALSE</ntsc>
                </rate>
                <duration>1</duration>
                <enabled>TRUE</enabled>
                <alphatype>straight</alphatype>
                <rate>
                  <timebase>24</timebase>
                  <ntsc>FALSE</ntsc>
                </rate>
                <enabled>TRUE</enabled>
                <start>412</start>
                <end>413</end>
                <file id="file-414"/>
              </clipitem>
              <clipitem frameBlend="FALSE" id="clipitem-1088">
                <name>Scene - LJ visemes.413.png</name>
                <masterclipid>masterclip-415</masterclipid>
                <rate>
                  <timebase>24</timebase>
                  <ntsc>FALSE</ntsc>
                </rate>
                <duration>1</duration>
                <enabled>TRUE</enabled>
                <alphatype>straight</alphatype>
                <rate>
                  <timebase>24</timebase>
                  <ntsc>FALSE</ntsc>
                </rate>
                <enabled>TRUE</enabled>
                <start>413</start>
                <end>414</end>
                <file id="file-415"/>
              </clipitem>
              <clipitem frameBlend="FALSE" id="clipitem-1089">
                <name>Scene - LJ visemes.414.png</name>
                <masterclipid>masterclip-416</masterclipid>
                <rate>
                  <timebase>24</timebase>
                  <ntsc>FALSE</ntsc>
                </rate>
                <duration>1</duration>
                <enabled>TRUE</enabled>
                <alphatype>straight</alphatype>
                <rate>
                  <timebase>24</timebase>
                  <ntsc>FALSE</ntsc>
                </rate>
                <enabled>TRUE</enabled>
                <start>414</start>
                <end>415</end>
                <file id="file-416"/>
              </clipitem>
              <clipitem frameBlend="FALSE" id="clipitem-1090">
                <name>Scene - LJ visemes.415.png</name>
                <masterclipid>masterclip-417</masterclipid>
                <rate>
                  <timebase>24</timebase>
                  <ntsc>FALSE</ntsc>
                </rate>
                <duration>1</duration>
                <enabled>TRUE</enabled>
                <alphatype>straight</alphatype>
                <rate>
                  <timebase>24</timebase>
                  <ntsc>FALSE</ntsc>
                </rate>
                <enabled>TRUE</enabled>
                <start>415</start>
                <end>416</end>
                <file id="file-417"/>
              </clipitem>
              <clipitem frameBlend="FALSE" id="clipitem-1091">
                <name>Scene - LJ visemes.416.png</name>
                <masterclipid>masterclip-418</masterclipid>
                <rate>
                  <timebase>24</timebase>
                  <ntsc>FALSE</ntsc>
                </rate>
                <duration>1</duration>
                <enabled>TRUE</enabled>
                <alphatype>straight</alphatype>
                <rate>
                  <timebase>24</timebase>
                  <ntsc>FALSE</ntsc>
                </rate>
                <enabled>TRUE</enabled>
                <start>416</start>
                <end>417</end>
                <file id="file-418"/>
              </clipitem>
              <clipitem frameBlend="FALSE" id="clipitem-1092">
                <name>Scene - LJ visemes.417.png</name>
                <masterclipid>masterclip-419</masterclipid>
                <rate>
                  <timebase>24</timebase>
                  <ntsc>FALSE</ntsc>
                </rate>
                <duration>1</duration>
                <enabled>TRUE</enabled>
                <alphatype>straight</alphatype>
                <rate>
                  <timebase>24</timebase>
                  <ntsc>FALSE</ntsc>
                </rate>
                <enabled>TRUE</enabled>
                <start>417</start>
                <end>418</end>
                <file id="file-419"/>
              </clipitem>
              <clipitem frameBlend="FALSE" id="clipitem-1093">
                <name>Scene - LJ visemes.418.png</name>
                <masterclipid>masterclip-420</masterclipid>
                <rate>
                  <timebase>24</timebase>
                  <ntsc>FALSE</ntsc>
                </rate>
                <duration>1</duration>
                <enabled>TRUE</enabled>
                <alphatype>straight</alphatype>
                <rate>
                  <timebase>24</timebase>
                  <ntsc>FALSE</ntsc>
                </rate>
                <enabled>TRUE</enabled>
                <start>418</start>
                <end>419</end>
                <file id="file-420"/>
              </clipitem>
              <clipitem frameBlend="FALSE" id="clipitem-1094">
                <name>Scene - LJ visemes.419.png</name>
                <masterclipid>masterclip-421</masterclipid>
                <rate>
                  <timebase>24</timebase>
                  <ntsc>FALSE</ntsc>
                </rate>
                <duration>1</duration>
                <enabled>TRUE</enabled>
                <alphatype>straight</alphatype>
                <rate>
                  <timebase>24</timebase>
                  <ntsc>FALSE</ntsc>
                </rate>
                <enabled>TRUE</enabled>
                <start>419</start>
                <end>420</end>
                <file id="file-421"/>
              </clipitem>
              <clipitem frameBlend="FALSE" id="clipitem-1095">
                <name>Scene - LJ visemes.420.png</name>
                <masterclipid>masterclip-422</masterclipid>
                <rate>
                  <timebase>24</timebase>
                  <ntsc>FALSE</ntsc>
                </rate>
                <duration>1</duration>
                <enabled>TRUE</enabled>
                <alphatype>straight</alphatype>
                <rate>
                  <timebase>24</timebase>
                  <ntsc>FALSE</ntsc>
                </rate>
                <enabled>TRUE</enabled>
                <start>420</start>
                <end>421</end>
                <file id="file-422"/>
              </clipitem>
              <clipitem frameBlend="FALSE" id="clipitem-1096">
                <name>Scene - LJ visemes.421.png</name>
                <masterclipid>masterclip-423</masterclipid>
                <rate>
                  <timebase>24</timebase>
                  <ntsc>FALSE</ntsc>
                </rate>
                <duration>1</duration>
                <enabled>TRUE</enabled>
                <alphatype>straight</alphatype>
                <rate>
                  <timebase>24</timebase>
                  <ntsc>FALSE</ntsc>
                </rate>
                <enabled>TRUE</enabled>
                <start>421</start>
                <end>422</end>
                <file id="file-423"/>
              </clipitem>
              <clipitem frameBlend="FALSE" id="clipitem-1097">
                <name>Scene - LJ visemes.422.png</name>
                <masterclipid>masterclip-424</masterclipid>
                <rate>
                  <timebase>24</timebase>
                  <ntsc>FALSE</ntsc>
                </rate>
                <duration>1</duration>
                <enabled>TRUE</enabled>
                <alphatype>straight</alphatype>
                <rate>
                  <timebase>24</timebase>
                  <ntsc>FALSE</ntsc>
                </rate>
                <enabled>TRUE</enabled>
                <start>422</start>
                <end>423</end>
                <file id="file-424"/>
              </clipitem>
              <clipitem frameBlend="FALSE" id="clipitem-1098">
                <name>Scene - LJ visemes.423.png</name>
                <masterclipid>masterclip-425</masterclipid>
                <rate>
                  <timebase>24</timebase>
                  <ntsc>FALSE</ntsc>
                </rate>
                <duration>1</duration>
                <enabled>TRUE</enabled>
                <alphatype>straight</alphatype>
                <rate>
                  <timebase>24</timebase>
                  <ntsc>FALSE</ntsc>
                </rate>
                <enabled>TRUE</enabled>
                <start>423</start>
                <end>424</end>
                <file id="file-425"/>
              </clipitem>
              <clipitem frameBlend="FALSE" id="clipitem-1099">
                <name>Scene - LJ visemes.424.png</name>
                <masterclipid>masterclip-426</masterclipid>
                <rate>
                  <timebase>24</timebase>
                  <ntsc>FALSE</ntsc>
                </rate>
                <duration>1</duration>
                <enabled>TRUE</enabled>
                <alphatype>straight</alphatype>
                <rate>
                  <timebase>24</timebase>
                  <ntsc>FALSE</ntsc>
                </rate>
                <enabled>TRUE</enabled>
                <start>424</start>
                <end>425</end>
                <file id="file-426"/>
              </clipitem>
              <clipitem frameBlend="FALSE" id="clipitem-1100">
                <name>Scene - LJ visemes.425.png</name>
                <masterclipid>masterclip-427</masterclipid>
                <rate>
                  <timebase>24</timebase>
                  <ntsc>FALSE</ntsc>
                </rate>
                <duration>1</duration>
                <enabled>TRUE</enabled>
                <alphatype>straight</alphatype>
                <rate>
                  <timebase>24</timebase>
                  <ntsc>FALSE</ntsc>
                </rate>
                <enabled>TRUE</enabled>
                <start>425</start>
                <end>426</end>
                <file id="file-427"/>
              </clipitem>
              <clipitem frameBlend="FALSE" id="clipitem-1101">
                <name>Scene - LJ visemes.426.png</name>
                <masterclipid>masterclip-428</masterclipid>
                <rate>
                  <timebase>24</timebase>
                  <ntsc>FALSE</ntsc>
                </rate>
                <duration>1</duration>
                <enabled>TRUE</enabled>
                <alphatype>straight</alphatype>
                <rate>
                  <timebase>24</timebase>
                  <ntsc>FALSE</ntsc>
                </rate>
                <enabled>TRUE</enabled>
                <start>426</start>
                <end>427</end>
                <file id="file-428"/>
              </clipitem>
              <clipitem frameBlend="FALSE" id="clipitem-1102">
                <name>Scene - LJ visemes.427.png</name>
                <masterclipid>masterclip-429</masterclipid>
                <rate>
                  <timebase>24</timebase>
                  <ntsc>FALSE</ntsc>
                </rate>
                <duration>1</duration>
                <enabled>TRUE</enabled>
                <alphatype>straight</alphatype>
                <rate>
                  <timebase>24</timebase>
                  <ntsc>FALSE</ntsc>
                </rate>
                <enabled>TRUE</enabled>
                <start>427</start>
                <end>428</end>
                <file id="file-429"/>
              </clipitem>
              <clipitem frameBlend="FALSE" id="clipitem-1103">
                <name>Scene - LJ visemes.428.png</name>
                <masterclipid>masterclip-430</masterclipid>
                <rate>
                  <timebase>24</timebase>
                  <ntsc>FALSE</ntsc>
                </rate>
                <duration>1</duration>
                <enabled>TRUE</enabled>
                <alphatype>straight</alphatype>
                <rate>
                  <timebase>24</timebase>
                  <ntsc>FALSE</ntsc>
                </rate>
                <enabled>TRUE</enabled>
                <start>428</start>
                <end>429</end>
                <file id="file-430"/>
              </clipitem>
              <clipitem frameBlend="FALSE" id="clipitem-1104">
                <name>Scene - LJ visemes.429.png</name>
                <masterclipid>masterclip-431</masterclipid>
                <rate>
                  <timebase>24</timebase>
                  <ntsc>FALSE</ntsc>
                </rate>
                <duration>1</duration>
                <enabled>TRUE</enabled>
                <alphatype>straight</alphatype>
                <rate>
                  <timebase>24</timebase>
                  <ntsc>FALSE</ntsc>
                </rate>
                <enabled>TRUE</enabled>
                <start>429</start>
                <end>430</end>
                <file id="file-431"/>
              </clipitem>
              <clipitem frameBlend="FALSE" id="clipitem-1105">
                <name>Scene - LJ visemes.430.png</name>
                <masterclipid>masterclip-432</masterclipid>
                <rate>
                  <timebase>24</timebase>
                  <ntsc>FALSE</ntsc>
                </rate>
                <duration>1</duration>
                <enabled>TRUE</enabled>
                <alphatype>straight</alphatype>
                <rate>
                  <timebase>24</timebase>
                  <ntsc>FALSE</ntsc>
                </rate>
                <enabled>TRUE</enabled>
                <start>430</start>
                <end>431</end>
                <file id="file-432"/>
              </clipitem>
              <clipitem frameBlend="FALSE" id="clipitem-1106">
                <name>Scene - LJ visemes.431.png</name>
                <masterclipid>masterclip-433</masterclipid>
                <rate>
                  <timebase>24</timebase>
                  <ntsc>FALSE</ntsc>
                </rate>
                <duration>1</duration>
                <enabled>TRUE</enabled>
                <alphatype>straight</alphatype>
                <rate>
                  <timebase>24</timebase>
                  <ntsc>FALSE</ntsc>
                </rate>
                <enabled>TRUE</enabled>
                <start>431</start>
                <end>432</end>
                <file id="file-433"/>
              </clipitem>
              <clipitem frameBlend="FALSE" id="clipitem-1107">
                <name>Scene - LJ visemes.432.png</name>
                <masterclipid>masterclip-434</masterclipid>
                <rate>
                  <timebase>24</timebase>
                  <ntsc>FALSE</ntsc>
                </rate>
                <duration>1</duration>
                <enabled>TRUE</enabled>
                <alphatype>straight</alphatype>
                <rate>
                  <timebase>24</timebase>
                  <ntsc>FALSE</ntsc>
                </rate>
                <enabled>TRUE</enabled>
                <start>432</start>
                <end>433</end>
                <file id="file-434"/>
              </clipitem>
              <clipitem frameBlend="FALSE" id="clipitem-1108">
                <name>Scene - LJ visemes.433.png</name>
                <masterclipid>masterclip-435</masterclipid>
                <rate>
                  <timebase>24</timebase>
                  <ntsc>FALSE</ntsc>
                </rate>
                <duration>1</duration>
                <enabled>TRUE</enabled>
                <alphatype>straight</alphatype>
                <rate>
                  <timebase>24</timebase>
                  <ntsc>FALSE</ntsc>
                </rate>
                <enabled>TRUE</enabled>
                <start>433</start>
                <end>434</end>
                <file id="file-435"/>
              </clipitem>
              <clipitem frameBlend="FALSE" id="clipitem-1109">
                <name>Scene - LJ visemes.434.png</name>
                <masterclipid>masterclip-436</masterclipid>
                <rate>
                  <timebase>24</timebase>
                  <ntsc>FALSE</ntsc>
                </rate>
                <duration>1</duration>
                <enabled>TRUE</enabled>
                <alphatype>straight</alphatype>
                <rate>
                  <timebase>24</timebase>
                  <ntsc>FALSE</ntsc>
                </rate>
                <enabled>TRUE</enabled>
                <start>434</start>
                <end>435</end>
                <file id="file-436"/>
              </clipitem>
              <clipitem frameBlend="FALSE" id="clipitem-1110">
                <name>Scene - LJ visemes.435.png</name>
                <masterclipid>masterclip-437</masterclipid>
                <rate>
                  <timebase>24</timebase>
                  <ntsc>FALSE</ntsc>
                </rate>
                <duration>1</duration>
                <enabled>TRUE</enabled>
                <alphatype>straight</alphatype>
                <rate>
                  <timebase>24</timebase>
                  <ntsc>FALSE</ntsc>
                </rate>
                <enabled>TRUE</enabled>
                <start>435</start>
                <end>436</end>
                <file id="file-437"/>
              </clipitem>
              <clipitem frameBlend="FALSE" id="clipitem-1111">
                <name>Scene - LJ visemes.436.png</name>
                <masterclipid>masterclip-438</masterclipid>
                <rate>
                  <timebase>24</timebase>
                  <ntsc>FALSE</ntsc>
                </rate>
                <duration>1</duration>
                <enabled>TRUE</enabled>
                <alphatype>straight</alphatype>
                <rate>
                  <timebase>24</timebase>
                  <ntsc>FALSE</ntsc>
                </rate>
                <enabled>TRUE</enabled>
                <start>436</start>
                <end>437</end>
                <file id="file-438"/>
              </clipitem>
              <clipitem frameBlend="FALSE" id="clipitem-1112">
                <name>Scene - LJ visemes.437.png</name>
                <masterclipid>masterclip-439</masterclipid>
                <rate>
                  <timebase>24</timebase>
                  <ntsc>FALSE</ntsc>
                </rate>
                <duration>1</duration>
                <enabled>TRUE</enabled>
                <alphatype>straight</alphatype>
                <rate>
                  <timebase>24</timebase>
                  <ntsc>FALSE</ntsc>
                </rate>
                <enabled>TRUE</enabled>
                <start>437</start>
                <end>438</end>
                <file id="file-439"/>
              </clipitem>
              <clipitem frameBlend="FALSE" id="clipitem-1113">
                <name>Scene - LJ visemes.438.png</name>
                <masterclipid>masterclip-440</masterclipid>
                <rate>
                  <timebase>24</timebase>
                  <ntsc>FALSE</ntsc>
                </rate>
                <duration>1</duration>
                <enabled>TRUE</enabled>
                <alphatype>straight</alphatype>
                <rate>
                  <timebase>24</timebase>
                  <ntsc>FALSE</ntsc>
                </rate>
                <enabled>TRUE</enabled>
                <start>438</start>
                <end>439</end>
                <file id="file-440"/>
              </clipitem>
              <clipitem frameBlend="FALSE" id="clipitem-1114">
                <name>Scene - LJ visemes.439.png</name>
                <masterclipid>masterclip-441</masterclipid>
                <rate>
                  <timebase>24</timebase>
                  <ntsc>FALSE</ntsc>
                </rate>
                <duration>1</duration>
                <enabled>TRUE</enabled>
                <alphatype>straight</alphatype>
                <rate>
                  <timebase>24</timebase>
                  <ntsc>FALSE</ntsc>
                </rate>
                <enabled>TRUE</enabled>
                <start>439</start>
                <end>440</end>
                <file id="file-441"/>
              </clipitem>
              <clipitem frameBlend="FALSE" id="clipitem-1115">
                <name>Scene - LJ visemes.440.png</name>
                <masterclipid>masterclip-442</masterclipid>
                <rate>
                  <timebase>24</timebase>
                  <ntsc>FALSE</ntsc>
                </rate>
                <duration>1</duration>
                <enabled>TRUE</enabled>
                <alphatype>straight</alphatype>
                <rate>
                  <timebase>24</timebase>
                  <ntsc>FALSE</ntsc>
                </rate>
                <enabled>TRUE</enabled>
                <start>440</start>
                <end>441</end>
                <file id="file-442"/>
              </clipitem>
              <clipitem frameBlend="FALSE" id="clipitem-1116">
                <name>Scene - LJ visemes.441.png</name>
                <masterclipid>masterclip-443</masterclipid>
                <rate>
                  <timebase>24</timebase>
                  <ntsc>FALSE</ntsc>
                </rate>
                <duration>1</duration>
                <enabled>TRUE</enabled>
                <alphatype>straight</alphatype>
                <rate>
                  <timebase>24</timebase>
                  <ntsc>FALSE</ntsc>
                </rate>
                <enabled>TRUE</enabled>
                <start>441</start>
                <end>442</end>
                <file id="file-443"/>
              </clipitem>
              <clipitem frameBlend="FALSE" id="clipitem-1117">
                <name>Scene - LJ visemes.442.png</name>
                <masterclipid>masterclip-444</masterclipid>
                <rate>
                  <timebase>24</timebase>
                  <ntsc>FALSE</ntsc>
                </rate>
                <duration>1</duration>
                <enabled>TRUE</enabled>
                <alphatype>straight</alphatype>
                <rate>
                  <timebase>24</timebase>
                  <ntsc>FALSE</ntsc>
                </rate>
                <enabled>TRUE</enabled>
                <start>442</start>
                <end>443</end>
                <file id="file-444"/>
              </clipitem>
              <clipitem frameBlend="FALSE" id="clipitem-1118">
                <name>Scene - LJ visemes.443.png</name>
                <masterclipid>masterclip-445</masterclipid>
                <rate>
                  <timebase>24</timebase>
                  <ntsc>FALSE</ntsc>
                </rate>
                <duration>1</duration>
                <enabled>TRUE</enabled>
                <alphatype>straight</alphatype>
                <rate>
                  <timebase>24</timebase>
                  <ntsc>FALSE</ntsc>
                </rate>
                <enabled>TRUE</enabled>
                <start>443</start>
                <end>444</end>
                <file id="file-445"/>
              </clipitem>
              <clipitem frameBlend="FALSE" id="clipitem-1119">
                <name>Scene - LJ visemes.444.png</name>
                <masterclipid>masterclip-446</masterclipid>
                <rate>
                  <timebase>24</timebase>
                  <ntsc>FALSE</ntsc>
                </rate>
                <duration>1</duration>
                <enabled>TRUE</enabled>
                <alphatype>straight</alphatype>
                <rate>
                  <timebase>24</timebase>
                  <ntsc>FALSE</ntsc>
                </rate>
                <enabled>TRUE</enabled>
                <start>444</start>
                <end>445</end>
                <file id="file-446"/>
              </clipitem>
              <clipitem frameBlend="FALSE" id="clipitem-1120">
                <name>Scene - LJ visemes.445.png</name>
                <masterclipid>masterclip-447</masterclipid>
                <rate>
                  <timebase>24</timebase>
                  <ntsc>FALSE</ntsc>
                </rate>
                <duration>1</duration>
                <enabled>TRUE</enabled>
                <alphatype>straight</alphatype>
                <rate>
                  <timebase>24</timebase>
                  <ntsc>FALSE</ntsc>
                </rate>
                <enabled>TRUE</enabled>
                <start>445</start>
                <end>446</end>
                <file id="file-447"/>
              </clipitem>
              <clipitem frameBlend="FALSE" id="clipitem-1121">
                <name>Scene - LJ visemes.446.png</name>
                <masterclipid>masterclip-448</masterclipid>
                <rate>
                  <timebase>24</timebase>
                  <ntsc>FALSE</ntsc>
                </rate>
                <duration>1</duration>
                <enabled>TRUE</enabled>
                <alphatype>straight</alphatype>
                <rate>
                  <timebase>24</timebase>
                  <ntsc>FALSE</ntsc>
                </rate>
                <enabled>TRUE</enabled>
                <start>446</start>
                <end>447</end>
                <file id="file-448"/>
              </clipitem>
              <clipitem frameBlend="FALSE" id="clipitem-1122">
                <name>Scene - LJ visemes.447.png</name>
                <masterclipid>masterclip-449</masterclipid>
                <rate>
                  <timebase>24</timebase>
                  <ntsc>FALSE</ntsc>
                </rate>
                <duration>1</duration>
                <enabled>TRUE</enabled>
                <alphatype>straight</alphatype>
                <rate>
                  <timebase>24</timebase>
                  <ntsc>FALSE</ntsc>
                </rate>
                <enabled>TRUE</enabled>
                <start>447</start>
                <end>448</end>
                <file id="file-449"/>
              </clipitem>
              <clipitem frameBlend="FALSE" id="clipitem-1123">
                <name>Scene - LJ visemes.448.png</name>
                <masterclipid>masterclip-450</masterclipid>
                <rate>
                  <timebase>24</timebase>
                  <ntsc>FALSE</ntsc>
                </rate>
                <duration>1</duration>
                <enabled>TRUE</enabled>
                <alphatype>straight</alphatype>
                <rate>
                  <timebase>24</timebase>
                  <ntsc>FALSE</ntsc>
                </rate>
                <enabled>TRUE</enabled>
                <start>448</start>
                <end>449</end>
                <file id="file-450"/>
              </clipitem>
              <clipitem frameBlend="FALSE" id="clipitem-1124">
                <name>Scene - LJ visemes.449.png</name>
                <masterclipid>masterclip-451</masterclipid>
                <rate>
                  <timebase>24</timebase>
                  <ntsc>FALSE</ntsc>
                </rate>
                <duration>1</duration>
                <enabled>TRUE</enabled>
                <alphatype>straight</alphatype>
                <rate>
                  <timebase>24</timebase>
                  <ntsc>FALSE</ntsc>
                </rate>
                <enabled>TRUE</enabled>
                <start>449</start>
                <end>450</end>
                <file id="file-451"/>
              </clipitem>
              <clipitem frameBlend="FALSE" id="clipitem-1125">
                <name>Scene - LJ visemes.450.png</name>
                <masterclipid>masterclip-452</masterclipid>
                <rate>
                  <timebase>24</timebase>
                  <ntsc>FALSE</ntsc>
                </rate>
                <duration>1</duration>
                <enabled>TRUE</enabled>
                <alphatype>straight</alphatype>
                <rate>
                  <timebase>24</timebase>
                  <ntsc>FALSE</ntsc>
                </rate>
                <enabled>TRUE</enabled>
                <start>450</start>
                <end>451</end>
                <file id="file-452"/>
              </clipitem>
              <clipitem frameBlend="FALSE" id="clipitem-1126">
                <name>Scene - LJ visemes.451.png</name>
                <masterclipid>masterclip-453</masterclipid>
                <rate>
                  <timebase>24</timebase>
                  <ntsc>FALSE</ntsc>
                </rate>
                <duration>1</duration>
                <enabled>TRUE</enabled>
                <alphatype>straight</alphatype>
                <rate>
                  <timebase>24</timebase>
                  <ntsc>FALSE</ntsc>
                </rate>
                <enabled>TRUE</enabled>
                <start>451</start>
                <end>452</end>
                <file id="file-453"/>
              </clipitem>
              <clipitem frameBlend="FALSE" id="clipitem-1127">
                <name>Scene - LJ visemes.452.png</name>
                <masterclipid>masterclip-454</masterclipid>
                <rate>
                  <timebase>24</timebase>
                  <ntsc>FALSE</ntsc>
                </rate>
                <duration>1</duration>
                <enabled>TRUE</enabled>
                <alphatype>straight</alphatype>
                <rate>
                  <timebase>24</timebase>
                  <ntsc>FALSE</ntsc>
                </rate>
                <enabled>TRUE</enabled>
                <start>452</start>
                <end>453</end>
                <file id="file-454"/>
              </clipitem>
              <clipitem frameBlend="FALSE" id="clipitem-1128">
                <name>Scene - LJ visemes.453.png</name>
                <masterclipid>masterclip-455</masterclipid>
                <rate>
                  <timebase>24</timebase>
                  <ntsc>FALSE</ntsc>
                </rate>
                <duration>1</duration>
                <enabled>TRUE</enabled>
                <alphatype>straight</alphatype>
                <rate>
                  <timebase>24</timebase>
                  <ntsc>FALSE</ntsc>
                </rate>
                <enabled>TRUE</enabled>
                <start>453</start>
                <end>454</end>
                <file id="file-455"/>
              </clipitem>
              <clipitem frameBlend="FALSE" id="clipitem-1129">
                <name>Scene - LJ visemes.454.png</name>
                <masterclipid>masterclip-456</masterclipid>
                <rate>
                  <timebase>24</timebase>
                  <ntsc>FALSE</ntsc>
                </rate>
                <duration>1</duration>
                <enabled>TRUE</enabled>
                <alphatype>straight</alphatype>
                <rate>
                  <timebase>24</timebase>
                  <ntsc>FALSE</ntsc>
                </rate>
                <enabled>TRUE</enabled>
                <start>454</start>
                <end>455</end>
                <file id="file-456"/>
              </clipitem>
              <clipitem frameBlend="FALSE" id="clipitem-1130">
                <name>Scene - LJ visemes.455.png</name>
                <masterclipid>masterclip-457</masterclipid>
                <rate>
                  <timebase>24</timebase>
                  <ntsc>FALSE</ntsc>
                </rate>
                <duration>1</duration>
                <enabled>TRUE</enabled>
                <alphatype>straight</alphatype>
                <rate>
                  <timebase>24</timebase>
                  <ntsc>FALSE</ntsc>
                </rate>
                <enabled>TRUE</enabled>
                <start>455</start>
                <end>456</end>
                <file id="file-457"/>
              </clipitem>
              <clipitem frameBlend="FALSE" id="clipitem-1131">
                <name>Scene - LJ visemes.456.png</name>
                <masterclipid>masterclip-458</masterclipid>
                <rate>
                  <timebase>24</timebase>
                  <ntsc>FALSE</ntsc>
                </rate>
                <duration>1</duration>
                <enabled>TRUE</enabled>
                <alphatype>straight</alphatype>
                <rate>
                  <timebase>24</timebase>
                  <ntsc>FALSE</ntsc>
                </rate>
                <enabled>TRUE</enabled>
                <start>456</start>
                <end>457</end>
                <file id="file-458"/>
              </clipitem>
              <clipitem frameBlend="FALSE" id="clipitem-1132">
                <name>Scene - LJ visemes.457.png</name>
                <masterclipid>masterclip-459</masterclipid>
                <rate>
                  <timebase>24</timebase>
                  <ntsc>FALSE</ntsc>
                </rate>
                <duration>1</duration>
                <enabled>TRUE</enabled>
                <alphatype>straight</alphatype>
                <rate>
                  <timebase>24</timebase>
                  <ntsc>FALSE</ntsc>
                </rate>
                <enabled>TRUE</enabled>
                <start>457</start>
                <end>458</end>
                <file id="file-459"/>
              </clipitem>
              <clipitem frameBlend="FALSE" id="clipitem-1133">
                <name>Scene - LJ visemes.458.png</name>
                <masterclipid>masterclip-460</masterclipid>
                <rate>
                  <timebase>24</timebase>
                  <ntsc>FALSE</ntsc>
                </rate>
                <duration>1</duration>
                <enabled>TRUE</enabled>
                <alphatype>straight</alphatype>
                <rate>
                  <timebase>24</timebase>
                  <ntsc>FALSE</ntsc>
                </rate>
                <enabled>TRUE</enabled>
                <start>458</start>
                <end>459</end>
                <file id="file-460"/>
              </clipitem>
              <clipitem frameBlend="FALSE" id="clipitem-1134">
                <name>Scene - LJ visemes.459.png</name>
                <masterclipid>masterclip-461</masterclipid>
                <rate>
                  <timebase>24</timebase>
                  <ntsc>FALSE</ntsc>
                </rate>
                <duration>1</duration>
                <enabled>TRUE</enabled>
                <alphatype>straight</alphatype>
                <rate>
                  <timebase>24</timebase>
                  <ntsc>FALSE</ntsc>
                </rate>
                <enabled>TRUE</enabled>
                <start>459</start>
                <end>460</end>
                <file id="file-461"/>
              </clipitem>
              <clipitem frameBlend="FALSE" id="clipitem-1135">
                <name>Scene - LJ visemes.460.png</name>
                <masterclipid>masterclip-462</masterclipid>
                <rate>
                  <timebase>24</timebase>
                  <ntsc>FALSE</ntsc>
                </rate>
                <duration>1</duration>
                <enabled>TRUE</enabled>
                <alphatype>straight</alphatype>
                <rate>
                  <timebase>24</timebase>
                  <ntsc>FALSE</ntsc>
                </rate>
                <enabled>TRUE</enabled>
                <start>460</start>
                <end>461</end>
                <file id="file-462"/>
              </clipitem>
              <clipitem frameBlend="FALSE" id="clipitem-1136">
                <name>Scene - LJ visemes.461.png</name>
                <masterclipid>masterclip-463</masterclipid>
                <rate>
                  <timebase>24</timebase>
                  <ntsc>FALSE</ntsc>
                </rate>
                <duration>1</duration>
                <enabled>TRUE</enabled>
                <alphatype>straight</alphatype>
                <rate>
                  <timebase>24</timebase>
                  <ntsc>FALSE</ntsc>
                </rate>
                <enabled>TRUE</enabled>
                <start>461</start>
                <end>462</end>
                <file id="file-463"/>
              </clipitem>
              <clipitem frameBlend="FALSE" id="clipitem-1137">
                <name>Scene - LJ visemes.462.png</name>
                <masterclipid>masterclip-464</masterclipid>
                <rate>
                  <timebase>24</timebase>
                  <ntsc>FALSE</ntsc>
                </rate>
                <duration>1</duration>
                <enabled>TRUE</enabled>
                <alphatype>straight</alphatype>
                <rate>
                  <timebase>24</timebase>
                  <ntsc>FALSE</ntsc>
                </rate>
                <enabled>TRUE</enabled>
                <start>462</start>
                <end>463</end>
                <file id="file-464"/>
              </clipitem>
              <clipitem frameBlend="FALSE" id="clipitem-1138">
                <name>Scene - LJ visemes.463.png</name>
                <masterclipid>masterclip-465</masterclipid>
                <rate>
                  <timebase>24</timebase>
                  <ntsc>FALSE</ntsc>
                </rate>
                <duration>1</duration>
                <enabled>TRUE</enabled>
                <alphatype>straight</alphatype>
                <rate>
                  <timebase>24</timebase>
                  <ntsc>FALSE</ntsc>
                </rate>
                <enabled>TRUE</enabled>
                <start>463</start>
                <end>464</end>
                <file id="file-465"/>
              </clipitem>
              <clipitem frameBlend="FALSE" id="clipitem-1139">
                <name>Scene - LJ visemes.464.png</name>
                <masterclipid>masterclip-466</masterclipid>
                <rate>
                  <timebase>24</timebase>
                  <ntsc>FALSE</ntsc>
                </rate>
                <duration>1</duration>
                <enabled>TRUE</enabled>
                <alphatype>straight</alphatype>
                <rate>
                  <timebase>24</timebase>
                  <ntsc>FALSE</ntsc>
                </rate>
                <enabled>TRUE</enabled>
                <start>464</start>
                <end>465</end>
                <file id="file-466"/>
              </clipitem>
              <clipitem frameBlend="FALSE" id="clipitem-1140">
                <name>Scene - LJ visemes.465.png</name>
                <masterclipid>masterclip-467</masterclipid>
                <rate>
                  <timebase>24</timebase>
                  <ntsc>FALSE</ntsc>
                </rate>
                <duration>1</duration>
                <enabled>TRUE</enabled>
                <alphatype>straight</alphatype>
                <rate>
                  <timebase>24</timebase>
                  <ntsc>FALSE</ntsc>
                </rate>
                <enabled>TRUE</enabled>
                <start>465</start>
                <end>466</end>
                <file id="file-467"/>
              </clipitem>
              <clipitem frameBlend="FALSE" id="clipitem-1141">
                <name>Scene - LJ visemes.466.png</name>
                <masterclipid>masterclip-468</masterclipid>
                <rate>
                  <timebase>24</timebase>
                  <ntsc>FALSE</ntsc>
                </rate>
                <duration>1</duration>
                <enabled>TRUE</enabled>
                <alphatype>straight</alphatype>
                <rate>
                  <timebase>24</timebase>
                  <ntsc>FALSE</ntsc>
                </rate>
                <enabled>TRUE</enabled>
                <start>466</start>
                <end>467</end>
                <file id="file-468"/>
              </clipitem>
              <clipitem frameBlend="FALSE" id="clipitem-1142">
                <name>Scene - LJ visemes.467.png</name>
                <masterclipid>masterclip-469</masterclipid>
                <rate>
                  <timebase>24</timebase>
                  <ntsc>FALSE</ntsc>
                </rate>
                <duration>1</duration>
                <enabled>TRUE</enabled>
                <alphatype>straight</alphatype>
                <rate>
                  <timebase>24</timebase>
                  <ntsc>FALSE</ntsc>
                </rate>
                <enabled>TRUE</enabled>
                <start>467</start>
                <end>468</end>
                <file id="file-469"/>
              </clipitem>
              <clipitem frameBlend="FALSE" id="clipitem-1143">
                <name>Scene - LJ visemes.468.png</name>
                <masterclipid>masterclip-470</masterclipid>
                <rate>
                  <timebase>24</timebase>
                  <ntsc>FALSE</ntsc>
                </rate>
                <duration>1</duration>
                <enabled>TRUE</enabled>
                <alphatype>straight</alphatype>
                <rate>
                  <timebase>24</timebase>
                  <ntsc>FALSE</ntsc>
                </rate>
                <enabled>TRUE</enabled>
                <start>468</start>
                <end>469</end>
                <file id="file-470"/>
              </clipitem>
              <clipitem frameBlend="FALSE" id="clipitem-1144">
                <name>Scene - LJ visemes.469.png</name>
                <masterclipid>masterclip-471</masterclipid>
                <rate>
                  <timebase>24</timebase>
                  <ntsc>FALSE</ntsc>
                </rate>
                <duration>1</duration>
                <enabled>TRUE</enabled>
                <alphatype>straight</alphatype>
                <rate>
                  <timebase>24</timebase>
                  <ntsc>FALSE</ntsc>
                </rate>
                <enabled>TRUE</enabled>
                <start>469</start>
                <end>470</end>
                <file id="file-471"/>
              </clipitem>
              <clipitem frameBlend="FALSE" id="clipitem-1145">
                <name>Scene - LJ visemes.470.png</name>
                <masterclipid>masterclip-472</masterclipid>
                <rate>
                  <timebase>24</timebase>
                  <ntsc>FALSE</ntsc>
                </rate>
                <duration>1</duration>
                <enabled>TRUE</enabled>
                <alphatype>straight</alphatype>
                <rate>
                  <timebase>24</timebase>
                  <ntsc>FALSE</ntsc>
                </rate>
                <enabled>TRUE</enabled>
                <start>470</start>
                <end>471</end>
                <file id="file-472"/>
              </clipitem>
              <clipitem frameBlend="FALSE" id="clipitem-1146">
                <name>Scene - LJ visemes.471.png</name>
                <masterclipid>masterclip-473</masterclipid>
                <rate>
                  <timebase>24</timebase>
                  <ntsc>FALSE</ntsc>
                </rate>
                <duration>1</duration>
                <enabled>TRUE</enabled>
                <alphatype>straight</alphatype>
                <rate>
                  <timebase>24</timebase>
                  <ntsc>FALSE</ntsc>
                </rate>
                <enabled>TRUE</enabled>
                <start>471</start>
                <end>472</end>
                <file id="file-473"/>
              </clipitem>
              <clipitem frameBlend="FALSE" id="clipitem-1147">
                <name>Scene - LJ visemes.472.png</name>
                <masterclipid>masterclip-474</masterclipid>
                <rate>
                  <timebase>24</timebase>
                  <ntsc>FALSE</ntsc>
                </rate>
                <duration>1</duration>
                <enabled>TRUE</enabled>
                <alphatype>straight</alphatype>
                <rate>
                  <timebase>24</timebase>
                  <ntsc>FALSE</ntsc>
                </rate>
                <enabled>TRUE</enabled>
                <start>472</start>
                <end>473</end>
                <file id="file-474"/>
              </clipitem>
              <clipitem frameBlend="FALSE" id="clipitem-1148">
                <name>Scene - LJ visemes.473.png</name>
                <masterclipid>masterclip-475</masterclipid>
                <rate>
                  <timebase>24</timebase>
                  <ntsc>FALSE</ntsc>
                </rate>
                <duration>1</duration>
                <enabled>TRUE</enabled>
                <alphatype>straight</alphatype>
                <rate>
                  <timebase>24</timebase>
                  <ntsc>FALSE</ntsc>
                </rate>
                <enabled>TRUE</enabled>
                <start>473</start>
                <end>474</end>
                <file id="file-475"/>
              </clipitem>
              <clipitem frameBlend="FALSE" id="clipitem-1149">
                <name>Scene - LJ visemes.474.png</name>
                <masterclipid>masterclip-476</masterclipid>
                <rate>
                  <timebase>24</timebase>
                  <ntsc>FALSE</ntsc>
                </rate>
                <duration>1</duration>
                <enabled>TRUE</enabled>
                <alphatype>straight</alphatype>
                <rate>
                  <timebase>24</timebase>
                  <ntsc>FALSE</ntsc>
                </rate>
                <enabled>TRUE</enabled>
                <start>474</start>
                <end>475</end>
                <file id="file-476"/>
              </clipitem>
              <clipitem frameBlend="FALSE" id="clipitem-1150">
                <name>Scene - LJ visemes.475.png</name>
                <masterclipid>masterclip-477</masterclipid>
                <rate>
                  <timebase>24</timebase>
                  <ntsc>FALSE</ntsc>
                </rate>
                <duration>1</duration>
                <enabled>TRUE</enabled>
                <alphatype>straight</alphatype>
                <rate>
                  <timebase>24</timebase>
                  <ntsc>FALSE</ntsc>
                </rate>
                <enabled>TRUE</enabled>
                <start>475</start>
                <end>476</end>
                <file id="file-477"/>
              </clipitem>
              <clipitem frameBlend="FALSE" id="clipitem-1151">
                <name>Scene - LJ visemes.476.png</name>
                <masterclipid>masterclip-478</masterclipid>
                <rate>
                  <timebase>24</timebase>
                  <ntsc>FALSE</ntsc>
                </rate>
                <duration>1</duration>
                <enabled>TRUE</enabled>
                <alphatype>straight</alphatype>
                <rate>
                  <timebase>24</timebase>
                  <ntsc>FALSE</ntsc>
                </rate>
                <enabled>TRUE</enabled>
                <start>476</start>
                <end>477</end>
                <file id="file-478"/>
              </clipitem>
              <clipitem frameBlend="FALSE" id="clipitem-1152">
                <name>Scene - LJ visemes.477.png</name>
                <masterclipid>masterclip-479</masterclipid>
                <rate>
                  <timebase>24</timebase>
                  <ntsc>FALSE</ntsc>
                </rate>
                <duration>1</duration>
                <enabled>TRUE</enabled>
                <alphatype>straight</alphatype>
                <rate>
                  <timebase>24</timebase>
                  <ntsc>FALSE</ntsc>
                </rate>
                <enabled>TRUE</enabled>
                <start>477</start>
                <end>478</end>
                <file id="file-479"/>
              </clipitem>
              <clipitem frameBlend="FALSE" id="clipitem-1153">
                <name>Scene - LJ visemes.478.png</name>
                <masterclipid>masterclip-480</masterclipid>
                <rate>
                  <timebase>24</timebase>
                  <ntsc>FALSE</ntsc>
                </rate>
                <duration>1</duration>
                <enabled>TRUE</enabled>
                <alphatype>straight</alphatype>
                <rate>
                  <timebase>24</timebase>
                  <ntsc>FALSE</ntsc>
                </rate>
                <enabled>TRUE</enabled>
                <start>478</start>
                <end>479</end>
                <file id="file-480"/>
              </clipitem>
              <clipitem frameBlend="FALSE" id="clipitem-1154">
                <name>Scene - LJ visemes.479.png</name>
                <masterclipid>masterclip-481</masterclipid>
                <rate>
                  <timebase>24</timebase>
                  <ntsc>FALSE</ntsc>
                </rate>
                <duration>1</duration>
                <enabled>TRUE</enabled>
                <alphatype>straight</alphatype>
                <rate>
                  <timebase>24</timebase>
                  <ntsc>FALSE</ntsc>
                </rate>
                <enabled>TRUE</enabled>
                <start>479</start>
                <end>480</end>
                <file id="file-481"/>
              </clipitem>
              <clipitem frameBlend="FALSE" id="clipitem-1155">
                <name>Scene - LJ visemes.480.png</name>
                <masterclipid>masterclip-482</masterclipid>
                <rate>
                  <timebase>24</timebase>
                  <ntsc>FALSE</ntsc>
                </rate>
                <duration>1</duration>
                <enabled>TRUE</enabled>
                <alphatype>straight</alphatype>
                <rate>
                  <timebase>24</timebase>
                  <ntsc>FALSE</ntsc>
                </rate>
                <enabled>TRUE</enabled>
                <start>480</start>
                <end>481</end>
                <file id="file-482"/>
              </clipitem>
              <clipitem frameBlend="FALSE" id="clipitem-1156">
                <name>Scene - LJ visemes.481.png</name>
                <masterclipid>masterclip-483</masterclipid>
                <rate>
                  <timebase>24</timebase>
                  <ntsc>FALSE</ntsc>
                </rate>
                <duration>1</duration>
                <enabled>TRUE</enabled>
                <alphatype>straight</alphatype>
                <rate>
                  <timebase>24</timebase>
                  <ntsc>FALSE</ntsc>
                </rate>
                <enabled>TRUE</enabled>
                <start>481</start>
                <end>482</end>
                <file id="file-483"/>
              </clipitem>
              <clipitem frameBlend="FALSE" id="clipitem-1157">
                <name>Scene - LJ visemes.482.png</name>
                <masterclipid>masterclip-484</masterclipid>
                <rate>
                  <timebase>24</timebase>
                  <ntsc>FALSE</ntsc>
                </rate>
                <duration>1</duration>
                <enabled>TRUE</enabled>
                <alphatype>straight</alphatype>
                <rate>
                  <timebase>24</timebase>
                  <ntsc>FALSE</ntsc>
                </rate>
                <enabled>TRUE</enabled>
                <start>482</start>
                <end>483</end>
                <file id="file-484"/>
              </clipitem>
              <clipitem frameBlend="FALSE" id="clipitem-1158">
                <name>Scene - LJ visemes.483.png</name>
                <masterclipid>masterclip-485</masterclipid>
                <rate>
                  <timebase>24</timebase>
                  <ntsc>FALSE</ntsc>
                </rate>
                <duration>1</duration>
                <enabled>TRUE</enabled>
                <alphatype>straight</alphatype>
                <rate>
                  <timebase>24</timebase>
                  <ntsc>FALSE</ntsc>
                </rate>
                <enabled>TRUE</enabled>
                <start>483</start>
                <end>484</end>
                <file id="file-485"/>
              </clipitem>
              <clipitem frameBlend="FALSE" id="clipitem-1159">
                <name>Scene - LJ visemes.484.png</name>
                <masterclipid>masterclip-486</masterclipid>
                <rate>
                  <timebase>24</timebase>
                  <ntsc>FALSE</ntsc>
                </rate>
                <duration>1</duration>
                <enabled>TRUE</enabled>
                <alphatype>straight</alphatype>
                <rate>
                  <timebase>24</timebase>
                  <ntsc>FALSE</ntsc>
                </rate>
                <enabled>TRUE</enabled>
                <start>484</start>
                <end>485</end>
                <file id="file-486"/>
              </clipitem>
              <clipitem frameBlend="FALSE" id="clipitem-1160">
                <name>Scene - LJ visemes.485.png</name>
                <masterclipid>masterclip-487</masterclipid>
                <rate>
                  <timebase>24</timebase>
                  <ntsc>FALSE</ntsc>
                </rate>
                <duration>1</duration>
                <enabled>TRUE</enabled>
                <alphatype>straight</alphatype>
                <rate>
                  <timebase>24</timebase>
                  <ntsc>FALSE</ntsc>
                </rate>
                <enabled>TRUE</enabled>
                <start>485</start>
                <end>486</end>
                <file id="file-487"/>
              </clipitem>
              <clipitem frameBlend="FALSE" id="clipitem-1161">
                <name>Scene - LJ visemes.486.png</name>
                <masterclipid>masterclip-488</masterclipid>
                <rate>
                  <timebase>24</timebase>
                  <ntsc>FALSE</ntsc>
                </rate>
                <duration>1</duration>
                <enabled>TRUE</enabled>
                <alphatype>straight</alphatype>
                <rate>
                  <timebase>24</timebase>
                  <ntsc>FALSE</ntsc>
                </rate>
                <enabled>TRUE</enabled>
                <start>486</start>
                <end>487</end>
                <file id="file-488"/>
              </clipitem>
              <clipitem frameBlend="FALSE" id="clipitem-1162">
                <name>Scene - LJ visemes.487.png</name>
                <masterclipid>masterclip-489</masterclipid>
                <rate>
                  <timebase>24</timebase>
                  <ntsc>FALSE</ntsc>
                </rate>
                <duration>1</duration>
                <enabled>TRUE</enabled>
                <alphatype>straight</alphatype>
                <rate>
                  <timebase>24</timebase>
                  <ntsc>FALSE</ntsc>
                </rate>
                <enabled>TRUE</enabled>
                <start>487</start>
                <end>488</end>
                <file id="file-489"/>
              </clipitem>
              <clipitem frameBlend="FALSE" id="clipitem-1163">
                <name>Scene - LJ visemes.488.png</name>
                <masterclipid>masterclip-490</masterclipid>
                <rate>
                  <timebase>24</timebase>
                  <ntsc>FALSE</ntsc>
                </rate>
                <duration>1</duration>
                <enabled>TRUE</enabled>
                <alphatype>straight</alphatype>
                <rate>
                  <timebase>24</timebase>
                  <ntsc>FALSE</ntsc>
                </rate>
                <enabled>TRUE</enabled>
                <start>488</start>
                <end>489</end>
                <file id="file-490"/>
              </clipitem>
              <clipitem frameBlend="FALSE" id="clipitem-1164">
                <name>Scene - LJ visemes.489.png</name>
                <masterclipid>masterclip-491</masterclipid>
                <rate>
                  <timebase>24</timebase>
                  <ntsc>FALSE</ntsc>
                </rate>
                <duration>1</duration>
                <enabled>TRUE</enabled>
                <alphatype>straight</alphatype>
                <rate>
                  <timebase>24</timebase>
                  <ntsc>FALSE</ntsc>
                </rate>
                <enabled>TRUE</enabled>
                <start>489</start>
                <end>490</end>
                <file id="file-491"/>
              </clipitem>
              <clipitem frameBlend="FALSE" id="clipitem-1165">
                <name>Scene - LJ visemes.490.png</name>
                <masterclipid>masterclip-492</masterclipid>
                <rate>
                  <timebase>24</timebase>
                  <ntsc>FALSE</ntsc>
                </rate>
                <duration>1</duration>
                <enabled>TRUE</enabled>
                <alphatype>straight</alphatype>
                <rate>
                  <timebase>24</timebase>
                  <ntsc>FALSE</ntsc>
                </rate>
                <enabled>TRUE</enabled>
                <start>490</start>
                <end>491</end>
                <file id="file-492"/>
              </clipitem>
              <clipitem frameBlend="FALSE" id="clipitem-1166">
                <name>Scene - LJ visemes.491.png</name>
                <masterclipid>masterclip-493</masterclipid>
                <rate>
                  <timebase>24</timebase>
                  <ntsc>FALSE</ntsc>
                </rate>
                <duration>1</duration>
                <enabled>TRUE</enabled>
                <alphatype>straight</alphatype>
                <rate>
                  <timebase>24</timebase>
                  <ntsc>FALSE</ntsc>
                </rate>
                <enabled>TRUE</enabled>
                <start>491</start>
                <end>492</end>
                <file id="file-493"/>
              </clipitem>
              <clipitem frameBlend="FALSE" id="clipitem-1167">
                <name>Scene - LJ visemes.492.png</name>
                <masterclipid>masterclip-494</masterclipid>
                <rate>
                  <timebase>24</timebase>
                  <ntsc>FALSE</ntsc>
                </rate>
                <duration>1</duration>
                <enabled>TRUE</enabled>
                <alphatype>straight</alphatype>
                <rate>
                  <timebase>24</timebase>
                  <ntsc>FALSE</ntsc>
                </rate>
                <enabled>TRUE</enabled>
                <start>492</start>
                <end>493</end>
                <file id="file-494"/>
              </clipitem>
              <clipitem frameBlend="FALSE" id="clipitem-1168">
                <name>Scene - LJ visemes.493.png</name>
                <masterclipid>masterclip-495</masterclipid>
                <rate>
                  <timebase>24</timebase>
                  <ntsc>FALSE</ntsc>
                </rate>
                <duration>1</duration>
                <enabled>TRUE</enabled>
                <alphatype>straight</alphatype>
                <rate>
                  <timebase>24</timebase>
                  <ntsc>FALSE</ntsc>
                </rate>
                <enabled>TRUE</enabled>
                <start>493</start>
                <end>494</end>
                <file id="file-495"/>
              </clipitem>
              <clipitem frameBlend="FALSE" id="clipitem-1169">
                <name>Scene - LJ visemes.494.png</name>
                <masterclipid>masterclip-496</masterclipid>
                <rate>
                  <timebase>24</timebase>
                  <ntsc>FALSE</ntsc>
                </rate>
                <duration>1</duration>
                <enabled>TRUE</enabled>
                <alphatype>straight</alphatype>
                <rate>
                  <timebase>24</timebase>
                  <ntsc>FALSE</ntsc>
                </rate>
                <enabled>TRUE</enabled>
                <start>494</start>
                <end>495</end>
                <file id="file-496"/>
              </clipitem>
              <clipitem frameBlend="FALSE" id="clipitem-1170">
                <name>Scene - LJ visemes.495.png</name>
                <masterclipid>masterclip-497</masterclipid>
                <rate>
                  <timebase>24</timebase>
                  <ntsc>FALSE</ntsc>
                </rate>
                <duration>1</duration>
                <enabled>TRUE</enabled>
                <alphatype>straight</alphatype>
                <rate>
                  <timebase>24</timebase>
                  <ntsc>FALSE</ntsc>
                </rate>
                <enabled>TRUE</enabled>
                <start>495</start>
                <end>496</end>
                <file id="file-497"/>
              </clipitem>
              <clipitem frameBlend="FALSE" id="clipitem-1171">
                <name>Scene - LJ visemes.496.png</name>
                <masterclipid>masterclip-498</masterclipid>
                <rate>
                  <timebase>24</timebase>
                  <ntsc>FALSE</ntsc>
                </rate>
                <duration>1</duration>
                <enabled>TRUE</enabled>
                <alphatype>straight</alphatype>
                <rate>
                  <timebase>24</timebase>
                  <ntsc>FALSE</ntsc>
                </rate>
                <enabled>TRUE</enabled>
                <start>496</start>
                <end>497</end>
                <file id="file-498"/>
              </clipitem>
              <clipitem frameBlend="FALSE" id="clipitem-1172">
                <name>Scene - LJ visemes.497.png</name>
                <masterclipid>masterclip-499</masterclipid>
                <rate>
                  <timebase>24</timebase>
                  <ntsc>FALSE</ntsc>
                </rate>
                <duration>1</duration>
                <enabled>TRUE</enabled>
                <alphatype>straight</alphatype>
                <rate>
                  <timebase>24</timebase>
                  <ntsc>FALSE</ntsc>
                </rate>
                <enabled>TRUE</enabled>
                <start>497</start>
                <end>498</end>
                <file id="file-499"/>
              </clipitem>
              <clipitem frameBlend="FALSE" id="clipitem-1173">
                <name>Scene - LJ visemes.498.png</name>
                <masterclipid>masterclip-500</masterclipid>
                <rate>
                  <timebase>24</timebase>
                  <ntsc>FALSE</ntsc>
                </rate>
                <duration>1</duration>
                <enabled>TRUE</enabled>
                <alphatype>straight</alphatype>
                <rate>
                  <timebase>24</timebase>
                  <ntsc>FALSE</ntsc>
                </rate>
                <enabled>TRUE</enabled>
                <start>498</start>
                <end>499</end>
                <file id="file-500"/>
              </clipitem>
              <clipitem frameBlend="FALSE" id="clipitem-1174">
                <name>Scene - LJ visemes.499.png</name>
                <masterclipid>masterclip-501</masterclipid>
                <rate>
                  <timebase>24</timebase>
                  <ntsc>FALSE</ntsc>
                </rate>
                <duration>1</duration>
                <enabled>TRUE</enabled>
                <alphatype>straight</alphatype>
                <rate>
                  <timebase>24</timebase>
                  <ntsc>FALSE</ntsc>
                </rate>
                <enabled>TRUE</enabled>
                <start>499</start>
                <end>500</end>
                <file id="file-501"/>
              </clipitem>
              <clipitem frameBlend="FALSE" id="clipitem-1175">
                <name>Scene - LJ visemes.500.png</name>
                <masterclipid>masterclip-502</masterclipid>
                <rate>
                  <timebase>24</timebase>
                  <ntsc>FALSE</ntsc>
                </rate>
                <duration>1</duration>
                <enabled>TRUE</enabled>
                <alphatype>straight</alphatype>
                <rate>
                  <timebase>24</timebase>
                  <ntsc>FALSE</ntsc>
                </rate>
                <enabled>TRUE</enabled>
                <start>500</start>
                <end>501</end>
                <file id="file-502"/>
              </clipitem>
              <clipitem frameBlend="FALSE" id="clipitem-1176">
                <name>Scene - LJ visemes.501.png</name>
                <masterclipid>masterclip-503</masterclipid>
                <rate>
                  <timebase>24</timebase>
                  <ntsc>FALSE</ntsc>
                </rate>
                <duration>1</duration>
                <enabled>TRUE</enabled>
                <alphatype>straight</alphatype>
                <rate>
                  <timebase>24</timebase>
                  <ntsc>FALSE</ntsc>
                </rate>
                <enabled>TRUE</enabled>
                <start>501</start>
                <end>502</end>
                <file id="file-503"/>
              </clipitem>
              <clipitem frameBlend="FALSE" id="clipitem-1177">
                <name>Scene - LJ visemes.502.png</name>
                <masterclipid>masterclip-504</masterclipid>
                <rate>
                  <timebase>24</timebase>
                  <ntsc>FALSE</ntsc>
                </rate>
                <duration>1</duration>
                <enabled>TRUE</enabled>
                <alphatype>straight</alphatype>
                <rate>
                  <timebase>24</timebase>
                  <ntsc>FALSE</ntsc>
                </rate>
                <enabled>TRUE</enabled>
                <start>502</start>
                <end>503</end>
                <file id="file-504"/>
              </clipitem>
              <clipitem frameBlend="FALSE" id="clipitem-1178">
                <name>Scene - LJ visemes.503.png</name>
                <masterclipid>masterclip-505</masterclipid>
                <rate>
                  <timebase>24</timebase>
                  <ntsc>FALSE</ntsc>
                </rate>
                <duration>1</duration>
                <enabled>TRUE</enabled>
                <alphatype>straight</alphatype>
                <rate>
                  <timebase>24</timebase>
                  <ntsc>FALSE</ntsc>
                </rate>
                <enabled>TRUE</enabled>
                <start>503</start>
                <end>504</end>
                <file id="file-505"/>
              </clipitem>
              <clipitem frameBlend="FALSE" id="clipitem-1179">
                <name>Scene - LJ visemes.504.png</name>
                <masterclipid>masterclip-506</masterclipid>
                <rate>
                  <timebase>24</timebase>
                  <ntsc>FALSE</ntsc>
                </rate>
                <duration>1</duration>
                <enabled>TRUE</enabled>
                <alphatype>straight</alphatype>
                <rate>
                  <timebase>24</timebase>
                  <ntsc>FALSE</ntsc>
                </rate>
                <enabled>TRUE</enabled>
                <start>504</start>
                <end>505</end>
                <file id="file-506"/>
              </clipitem>
              <clipitem frameBlend="FALSE" id="clipitem-1180">
                <name>Scene - LJ visemes.505.png</name>
                <masterclipid>masterclip-507</masterclipid>
                <rate>
                  <timebase>24</timebase>
                  <ntsc>FALSE</ntsc>
                </rate>
                <duration>1</duration>
                <enabled>TRUE</enabled>
                <alphatype>straight</alphatype>
                <rate>
                  <timebase>24</timebase>
                  <ntsc>FALSE</ntsc>
                </rate>
                <enabled>TRUE</enabled>
                <start>505</start>
                <end>506</end>
                <file id="file-507"/>
              </clipitem>
              <clipitem frameBlend="FALSE" id="clipitem-1181">
                <name>Scene - LJ visemes.506.png</name>
                <masterclipid>masterclip-508</masterclipid>
                <rate>
                  <timebase>24</timebase>
                  <ntsc>FALSE</ntsc>
                </rate>
                <duration>1</duration>
                <enabled>TRUE</enabled>
                <alphatype>straight</alphatype>
                <rate>
                  <timebase>24</timebase>
                  <ntsc>FALSE</ntsc>
                </rate>
                <enabled>TRUE</enabled>
                <start>506</start>
                <end>507</end>
                <file id="file-508"/>
              </clipitem>
              <clipitem frameBlend="FALSE" id="clipitem-1182">
                <name>Scene - LJ visemes.507.png</name>
                <masterclipid>masterclip-509</masterclipid>
                <rate>
                  <timebase>24</timebase>
                  <ntsc>FALSE</ntsc>
                </rate>
                <duration>1</duration>
                <enabled>TRUE</enabled>
                <alphatype>straight</alphatype>
                <rate>
                  <timebase>24</timebase>
                  <ntsc>FALSE</ntsc>
                </rate>
                <enabled>TRUE</enabled>
                <start>507</start>
                <end>508</end>
                <file id="file-509"/>
              </clipitem>
              <clipitem frameBlend="FALSE" id="clipitem-1183">
                <name>Scene - LJ visemes.508.png</name>
                <masterclipid>masterclip-510</masterclipid>
                <rate>
                  <timebase>24</timebase>
                  <ntsc>FALSE</ntsc>
                </rate>
                <duration>1</duration>
                <enabled>TRUE</enabled>
                <alphatype>straight</alphatype>
                <rate>
                  <timebase>24</timebase>
                  <ntsc>FALSE</ntsc>
                </rate>
                <enabled>TRUE</enabled>
                <start>508</start>
                <end>509</end>
                <file id="file-510"/>
              </clipitem>
              <clipitem frameBlend="FALSE" id="clipitem-1184">
                <name>Scene - LJ visemes.509.png</name>
                <masterclipid>masterclip-511</masterclipid>
                <rate>
                  <timebase>24</timebase>
                  <ntsc>FALSE</ntsc>
                </rate>
                <duration>1</duration>
                <enabled>TRUE</enabled>
                <alphatype>straight</alphatype>
                <rate>
                  <timebase>24</timebase>
                  <ntsc>FALSE</ntsc>
                </rate>
                <enabled>TRUE</enabled>
                <start>509</start>
                <end>510</end>
                <file id="file-511"/>
              </clipitem>
              <clipitem frameBlend="FALSE" id="clipitem-1185">
                <name>Scene - LJ visemes.510.png</name>
                <masterclipid>masterclip-512</masterclipid>
                <rate>
                  <timebase>24</timebase>
                  <ntsc>FALSE</ntsc>
                </rate>
                <duration>1</duration>
                <enabled>TRUE</enabled>
                <alphatype>straight</alphatype>
                <rate>
                  <timebase>24</timebase>
                  <ntsc>FALSE</ntsc>
                </rate>
                <enabled>TRUE</enabled>
                <start>510</start>
                <end>511</end>
                <file id="file-512"/>
              </clipitem>
              <clipitem frameBlend="FALSE" id="clipitem-1186">
                <name>Scene - LJ visemes.511.png</name>
                <masterclipid>masterclip-513</masterclipid>
                <rate>
                  <timebase>24</timebase>
                  <ntsc>FALSE</ntsc>
                </rate>
                <duration>1</duration>
                <enabled>TRUE</enabled>
                <alphatype>straight</alphatype>
                <rate>
                  <timebase>24</timebase>
                  <ntsc>FALSE</ntsc>
                </rate>
                <enabled>TRUE</enabled>
                <start>511</start>
                <end>512</end>
                <file id="file-513"/>
              </clipitem>
              <clipitem frameBlend="FALSE" id="clipitem-1187">
                <name>Scene - LJ visemes.512.png</name>
                <masterclipid>masterclip-514</masterclipid>
                <rate>
                  <timebase>24</timebase>
                  <ntsc>FALSE</ntsc>
                </rate>
                <duration>1</duration>
                <enabled>TRUE</enabled>
                <alphatype>straight</alphatype>
                <rate>
                  <timebase>24</timebase>
                  <ntsc>FALSE</ntsc>
                </rate>
                <enabled>TRUE</enabled>
                <start>512</start>
                <end>513</end>
                <file id="file-514"/>
              </clipitem>
              <clipitem frameBlend="FALSE" id="clipitem-1188">
                <name>Scene - LJ visemes.513.png</name>
                <masterclipid>masterclip-515</masterclipid>
                <rate>
                  <timebase>24</timebase>
                  <ntsc>FALSE</ntsc>
                </rate>
                <duration>1</duration>
                <enabled>TRUE</enabled>
                <alphatype>straight</alphatype>
                <rate>
                  <timebase>24</timebase>
                  <ntsc>FALSE</ntsc>
                </rate>
                <enabled>TRUE</enabled>
                <start>513</start>
                <end>514</end>
                <file id="file-515"/>
              </clipitem>
              <clipitem frameBlend="FALSE" id="clipitem-1189">
                <name>Scene - LJ visemes.514.png</name>
                <masterclipid>masterclip-516</masterclipid>
                <rate>
                  <timebase>24</timebase>
                  <ntsc>FALSE</ntsc>
                </rate>
                <duration>1</duration>
                <enabled>TRUE</enabled>
                <alphatype>straight</alphatype>
                <rate>
                  <timebase>24</timebase>
                  <ntsc>FALSE</ntsc>
                </rate>
                <enabled>TRUE</enabled>
                <start>514</start>
                <end>515</end>
                <file id="file-516"/>
              </clipitem>
              <clipitem frameBlend="FALSE" id="clipitem-1190">
                <name>Scene - LJ visemes.515.png</name>
                <masterclipid>masterclip-517</masterclipid>
                <rate>
                  <timebase>24</timebase>
                  <ntsc>FALSE</ntsc>
                </rate>
                <duration>1</duration>
                <enabled>TRUE</enabled>
                <alphatype>straight</alphatype>
                <rate>
                  <timebase>24</timebase>
                  <ntsc>FALSE</ntsc>
                </rate>
                <enabled>TRUE</enabled>
                <start>515</start>
                <end>516</end>
                <file id="file-517"/>
              </clipitem>
              <clipitem frameBlend="FALSE" id="clipitem-1191">
                <name>Scene - LJ visemes.516.png</name>
                <masterclipid>masterclip-518</masterclipid>
                <rate>
                  <timebase>24</timebase>
                  <ntsc>FALSE</ntsc>
                </rate>
                <duration>1</duration>
                <enabled>TRUE</enabled>
                <alphatype>straight</alphatype>
                <rate>
                  <timebase>24</timebase>
                  <ntsc>FALSE</ntsc>
                </rate>
                <enabled>TRUE</enabled>
                <start>516</start>
                <end>517</end>
                <file id="file-518"/>
              </clipitem>
              <clipitem frameBlend="FALSE" id="clipitem-1192">
                <name>Scene - LJ visemes.517.png</name>
                <masterclipid>masterclip-519</masterclipid>
                <rate>
                  <timebase>24</timebase>
                  <ntsc>FALSE</ntsc>
                </rate>
                <duration>1</duration>
                <enabled>TRUE</enabled>
                <alphatype>straight</alphatype>
                <rate>
                  <timebase>24</timebase>
                  <ntsc>FALSE</ntsc>
                </rate>
                <enabled>TRUE</enabled>
                <start>517</start>
                <end>518</end>
                <file id="file-519"/>
              </clipitem>
              <clipitem frameBlend="FALSE" id="clipitem-1193">
                <name>Scene - LJ visemes.518.png</name>
                <masterclipid>masterclip-520</masterclipid>
                <rate>
                  <timebase>24</timebase>
                  <ntsc>FALSE</ntsc>
                </rate>
                <duration>1</duration>
                <enabled>TRUE</enabled>
                <alphatype>straight</alphatype>
                <rate>
                  <timebase>24</timebase>
                  <ntsc>FALSE</ntsc>
                </rate>
                <enabled>TRUE</enabled>
                <start>518</start>
                <end>519</end>
                <file id="file-520"/>
              </clipitem>
              <clipitem frameBlend="FALSE" id="clipitem-1194">
                <name>Scene - LJ visemes.519.png</name>
                <masterclipid>masterclip-521</masterclipid>
                <rate>
                  <timebase>24</timebase>
                  <ntsc>FALSE</ntsc>
                </rate>
                <duration>1</duration>
                <enabled>TRUE</enabled>
                <alphatype>straight</alphatype>
                <rate>
                  <timebase>24</timebase>
                  <ntsc>FALSE</ntsc>
                </rate>
                <enabled>TRUE</enabled>
                <start>519</start>
                <end>520</end>
                <file id="file-521"/>
              </clipitem>
              <clipitem frameBlend="FALSE" id="clipitem-1195">
                <name>Scene - LJ visemes.520.png</name>
                <masterclipid>masterclip-522</masterclipid>
                <rate>
                  <timebase>24</timebase>
                  <ntsc>FALSE</ntsc>
                </rate>
                <duration>1</duration>
                <enabled>TRUE</enabled>
                <alphatype>straight</alphatype>
                <rate>
                  <timebase>24</timebase>
                  <ntsc>FALSE</ntsc>
                </rate>
                <enabled>TRUE</enabled>
                <start>520</start>
                <end>521</end>
                <file id="file-522"/>
              </clipitem>
              <clipitem frameBlend="FALSE" id="clipitem-1196">
                <name>Scene - LJ visemes.521.png</name>
                <masterclipid>masterclip-523</masterclipid>
                <rate>
                  <timebase>24</timebase>
                  <ntsc>FALSE</ntsc>
                </rate>
                <duration>1</duration>
                <enabled>TRUE</enabled>
                <alphatype>straight</alphatype>
                <rate>
                  <timebase>24</timebase>
                  <ntsc>FALSE</ntsc>
                </rate>
                <enabled>TRUE</enabled>
                <start>521</start>
                <end>522</end>
                <file id="file-523"/>
              </clipitem>
              <clipitem frameBlend="FALSE" id="clipitem-1197">
                <name>Scene - LJ visemes.522.png</name>
                <masterclipid>masterclip-524</masterclipid>
                <rate>
                  <timebase>24</timebase>
                  <ntsc>FALSE</ntsc>
                </rate>
                <duration>1</duration>
                <enabled>TRUE</enabled>
                <alphatype>straight</alphatype>
                <rate>
                  <timebase>24</timebase>
                  <ntsc>FALSE</ntsc>
                </rate>
                <enabled>TRUE</enabled>
                <start>522</start>
                <end>523</end>
                <file id="file-524"/>
              </clipitem>
              <clipitem frameBlend="FALSE" id="clipitem-1198">
                <name>Scene - LJ visemes.523.png</name>
                <masterclipid>masterclip-525</masterclipid>
                <rate>
                  <timebase>24</timebase>
                  <ntsc>FALSE</ntsc>
                </rate>
                <duration>1</duration>
                <enabled>TRUE</enabled>
                <alphatype>straight</alphatype>
                <rate>
                  <timebase>24</timebase>
                  <ntsc>FALSE</ntsc>
                </rate>
                <enabled>TRUE</enabled>
                <start>523</start>
                <end>524</end>
                <file id="file-525"/>
              </clipitem>
              <clipitem frameBlend="FALSE" id="clipitem-1199">
                <name>Scene - LJ visemes.524.png</name>
                <masterclipid>masterclip-526</masterclipid>
                <rate>
                  <timebase>24</timebase>
                  <ntsc>FALSE</ntsc>
                </rate>
                <duration>1</duration>
                <enabled>TRUE</enabled>
                <alphatype>straight</alphatype>
                <rate>
                  <timebase>24</timebase>
                  <ntsc>FALSE</ntsc>
                </rate>
                <enabled>TRUE</enabled>
                <start>524</start>
                <end>525</end>
                <file id="file-526"/>
              </clipitem>
              <clipitem frameBlend="FALSE" id="clipitem-1200">
                <name>Scene - LJ visemes.525.png</name>
                <masterclipid>masterclip-527</masterclipid>
                <rate>
                  <timebase>24</timebase>
                  <ntsc>FALSE</ntsc>
                </rate>
                <duration>1</duration>
                <enabled>TRUE</enabled>
                <alphatype>straight</alphatype>
                <rate>
                  <timebase>24</timebase>
                  <ntsc>FALSE</ntsc>
                </rate>
                <enabled>TRUE</enabled>
                <start>525</start>
                <end>526</end>
                <file id="file-527"/>
              </clipitem>
              <clipitem frameBlend="FALSE" id="clipitem-1201">
                <name>Scene - LJ visemes.526.png</name>
                <masterclipid>masterclip-528</masterclipid>
                <rate>
                  <timebase>24</timebase>
                  <ntsc>FALSE</ntsc>
                </rate>
                <duration>1</duration>
                <enabled>TRUE</enabled>
                <alphatype>straight</alphatype>
                <rate>
                  <timebase>24</timebase>
                  <ntsc>FALSE</ntsc>
                </rate>
                <enabled>TRUE</enabled>
                <start>526</start>
                <end>527</end>
                <file id="file-528"/>
              </clipitem>
              <clipitem frameBlend="FALSE" id="clipitem-1202">
                <name>Scene - LJ visemes.527.png</name>
                <masterclipid>masterclip-529</masterclipid>
                <rate>
                  <timebase>24</timebase>
                  <ntsc>FALSE</ntsc>
                </rate>
                <duration>1</duration>
                <enabled>TRUE</enabled>
                <alphatype>straight</alphatype>
                <rate>
                  <timebase>24</timebase>
                  <ntsc>FALSE</ntsc>
                </rate>
                <enabled>TRUE</enabled>
                <start>527</start>
                <end>528</end>
                <file id="file-529"/>
              </clipitem>
              <clipitem frameBlend="FALSE" id="clipitem-1203">
                <name>Scene - LJ visemes.528.png</name>
                <masterclipid>masterclip-530</masterclipid>
                <rate>
                  <timebase>24</timebase>
                  <ntsc>FALSE</ntsc>
                </rate>
                <duration>1</duration>
                <enabled>TRUE</enabled>
                <alphatype>straight</alphatype>
                <rate>
                  <timebase>24</timebase>
                  <ntsc>FALSE</ntsc>
                </rate>
                <enabled>TRUE</enabled>
                <start>528</start>
                <end>529</end>
                <file id="file-530"/>
              </clipitem>
              <clipitem frameBlend="FALSE" id="clipitem-1204">
                <name>Scene - LJ visemes.529.png</name>
                <masterclipid>masterclip-531</masterclipid>
                <rate>
                  <timebase>24</timebase>
                  <ntsc>FALSE</ntsc>
                </rate>
                <duration>1</duration>
                <enabled>TRUE</enabled>
                <alphatype>straight</alphatype>
                <rate>
                  <timebase>24</timebase>
                  <ntsc>FALSE</ntsc>
                </rate>
                <enabled>TRUE</enabled>
                <start>529</start>
                <end>530</end>
                <file id="file-531"/>
              </clipitem>
              <clipitem frameBlend="FALSE" id="clipitem-1205">
                <name>Scene - LJ visemes.530.png</name>
                <masterclipid>masterclip-532</masterclipid>
                <rate>
                  <timebase>24</timebase>
                  <ntsc>FALSE</ntsc>
                </rate>
                <duration>1</duration>
                <enabled>TRUE</enabled>
                <alphatype>straight</alphatype>
                <rate>
                  <timebase>24</timebase>
                  <ntsc>FALSE</ntsc>
                </rate>
                <enabled>TRUE</enabled>
                <start>530</start>
                <end>531</end>
                <file id="file-532"/>
              </clipitem>
              <clipitem frameBlend="FALSE" id="clipitem-1206">
                <name>Scene - LJ visemes.531.png</name>
                <masterclipid>masterclip-533</masterclipid>
                <rate>
                  <timebase>24</timebase>
                  <ntsc>FALSE</ntsc>
                </rate>
                <duration>1</duration>
                <enabled>TRUE</enabled>
                <alphatype>straight</alphatype>
                <rate>
                  <timebase>24</timebase>
                  <ntsc>FALSE</ntsc>
                </rate>
                <enabled>TRUE</enabled>
                <start>531</start>
                <end>532</end>
                <file id="file-533"/>
              </clipitem>
              <clipitem frameBlend="FALSE" id="clipitem-1207">
                <name>Scene - LJ visemes.532.png</name>
                <masterclipid>masterclip-534</masterclipid>
                <rate>
                  <timebase>24</timebase>
                  <ntsc>FALSE</ntsc>
                </rate>
                <duration>1</duration>
                <enabled>TRUE</enabled>
                <alphatype>straight</alphatype>
                <rate>
                  <timebase>24</timebase>
                  <ntsc>FALSE</ntsc>
                </rate>
                <enabled>TRUE</enabled>
                <start>532</start>
                <end>533</end>
                <file id="file-534"/>
              </clipitem>
              <clipitem frameBlend="FALSE" id="clipitem-1208">
                <name>Scene - LJ visemes.533.png</name>
                <masterclipid>masterclip-535</masterclipid>
                <rate>
                  <timebase>24</timebase>
                  <ntsc>FALSE</ntsc>
                </rate>
                <duration>1</duration>
                <enabled>TRUE</enabled>
                <alphatype>straight</alphatype>
                <rate>
                  <timebase>24</timebase>
                  <ntsc>FALSE</ntsc>
                </rate>
                <enabled>TRUE</enabled>
                <start>533</start>
                <end>534</end>
                <file id="file-535"/>
              </clipitem>
              <clipitem frameBlend="FALSE" id="clipitem-1209">
                <name>Scene - LJ visemes.534.png</name>
                <masterclipid>masterclip-536</masterclipid>
                <rate>
                  <timebase>24</timebase>
                  <ntsc>FALSE</ntsc>
                </rate>
                <duration>1</duration>
                <enabled>TRUE</enabled>
                <alphatype>straight</alphatype>
                <rate>
                  <timebase>24</timebase>
                  <ntsc>FALSE</ntsc>
                </rate>
                <enabled>TRUE</enabled>
                <start>534</start>
                <end>535</end>
                <file id="file-536"/>
              </clipitem>
              <clipitem frameBlend="FALSE" id="clipitem-1210">
                <name>Scene - LJ visemes.535.png</name>
                <masterclipid>masterclip-537</masterclipid>
                <rate>
                  <timebase>24</timebase>
                  <ntsc>FALSE</ntsc>
                </rate>
                <duration>1</duration>
                <enabled>TRUE</enabled>
                <alphatype>straight</alphatype>
                <rate>
                  <timebase>24</timebase>
                  <ntsc>FALSE</ntsc>
                </rate>
                <enabled>TRUE</enabled>
                <start>535</start>
                <end>536</end>
                <file id="file-537"/>
              </clipitem>
              <clipitem frameBlend="FALSE" id="clipitem-1211">
                <name>Scene - LJ visemes.536.png</name>
                <masterclipid>masterclip-538</masterclipid>
                <rate>
                  <timebase>24</timebase>
                  <ntsc>FALSE</ntsc>
                </rate>
                <duration>1</duration>
                <enabled>TRUE</enabled>
                <alphatype>straight</alphatype>
                <rate>
                  <timebase>24</timebase>
                  <ntsc>FALSE</ntsc>
                </rate>
                <enabled>TRUE</enabled>
                <start>536</start>
                <end>537</end>
                <file id="file-538"/>
              </clipitem>
              <clipitem frameBlend="FALSE" id="clipitem-1212">
                <name>Scene - LJ visemes.537.png</name>
                <masterclipid>masterclip-539</masterclipid>
                <rate>
                  <timebase>24</timebase>
                  <ntsc>FALSE</ntsc>
                </rate>
                <duration>1</duration>
                <enabled>TRUE</enabled>
                <alphatype>straight</alphatype>
                <rate>
                  <timebase>24</timebase>
                  <ntsc>FALSE</ntsc>
                </rate>
                <enabled>TRUE</enabled>
                <start>537</start>
                <end>538</end>
                <file id="file-539"/>
              </clipitem>
              <clipitem frameBlend="FALSE" id="clipitem-1213">
                <name>Scene - LJ visemes.538.png</name>
                <masterclipid>masterclip-540</masterclipid>
                <rate>
                  <timebase>24</timebase>
                  <ntsc>FALSE</ntsc>
                </rate>
                <duration>1</duration>
                <enabled>TRUE</enabled>
                <alphatype>straight</alphatype>
                <rate>
                  <timebase>24</timebase>
                  <ntsc>FALSE</ntsc>
                </rate>
                <enabled>TRUE</enabled>
                <start>538</start>
                <end>539</end>
                <file id="file-540"/>
              </clipitem>
              <clipitem frameBlend="FALSE" id="clipitem-1214">
                <name>Scene - LJ visemes.539.png</name>
                <masterclipid>masterclip-541</masterclipid>
                <rate>
                  <timebase>24</timebase>
                  <ntsc>FALSE</ntsc>
                </rate>
                <duration>1</duration>
                <enabled>TRUE</enabled>
                <alphatype>straight</alphatype>
                <rate>
                  <timebase>24</timebase>
                  <ntsc>FALSE</ntsc>
                </rate>
                <enabled>TRUE</enabled>
                <start>539</start>
                <end>540</end>
                <file id="file-541"/>
              </clipitem>
              <clipitem frameBlend="FALSE" id="clipitem-1215">
                <name>Scene - LJ visemes.540.png</name>
                <masterclipid>masterclip-542</masterclipid>
                <rate>
                  <timebase>24</timebase>
                  <ntsc>FALSE</ntsc>
                </rate>
                <duration>1</duration>
                <enabled>TRUE</enabled>
                <alphatype>straight</alphatype>
                <rate>
                  <timebase>24</timebase>
                  <ntsc>FALSE</ntsc>
                </rate>
                <enabled>TRUE</enabled>
                <start>540</start>
                <end>541</end>
                <file id="file-542"/>
              </clipitem>
              <clipitem frameBlend="FALSE" id="clipitem-1216">
                <name>Scene - LJ visemes.541.png</name>
                <masterclipid>masterclip-543</masterclipid>
                <rate>
                  <timebase>24</timebase>
                  <ntsc>FALSE</ntsc>
                </rate>
                <duration>1</duration>
                <enabled>TRUE</enabled>
                <alphatype>straight</alphatype>
                <rate>
                  <timebase>24</timebase>
                  <ntsc>FALSE</ntsc>
                </rate>
                <enabled>TRUE</enabled>
                <start>541</start>
                <end>542</end>
                <file id="file-543"/>
              </clipitem>
              <clipitem frameBlend="FALSE" id="clipitem-1217">
                <name>Scene - LJ visemes.542.png</name>
                <masterclipid>masterclip-544</masterclipid>
                <rate>
                  <timebase>24</timebase>
                  <ntsc>FALSE</ntsc>
                </rate>
                <duration>1</duration>
                <enabled>TRUE</enabled>
                <alphatype>straight</alphatype>
                <rate>
                  <timebase>24</timebase>
                  <ntsc>FALSE</ntsc>
                </rate>
                <enabled>TRUE</enabled>
                <start>542</start>
                <end>543</end>
                <file id="file-544"/>
              </clipitem>
              <clipitem frameBlend="FALSE" id="clipitem-1218">
                <name>Scene - LJ visemes.543.png</name>
                <masterclipid>masterclip-545</masterclipid>
                <rate>
                  <timebase>24</timebase>
                  <ntsc>FALSE</ntsc>
                </rate>
                <duration>1</duration>
                <enabled>TRUE</enabled>
                <alphatype>straight</alphatype>
                <rate>
                  <timebase>24</timebase>
                  <ntsc>FALSE</ntsc>
                </rate>
                <enabled>TRUE</enabled>
                <start>543</start>
                <end>544</end>
                <file id="file-545"/>
              </clipitem>
              <clipitem frameBlend="FALSE" id="clipitem-1219">
                <name>Scene - LJ visemes.544.png</name>
                <masterclipid>masterclip-546</masterclipid>
                <rate>
                  <timebase>24</timebase>
                  <ntsc>FALSE</ntsc>
                </rate>
                <duration>1</duration>
                <enabled>TRUE</enabled>
                <alphatype>straight</alphatype>
                <rate>
                  <timebase>24</timebase>
                  <ntsc>FALSE</ntsc>
                </rate>
                <enabled>TRUE</enabled>
                <start>544</start>
                <end>545</end>
                <file id="file-546"/>
              </clipitem>
              <clipitem frameBlend="FALSE" id="clipitem-1220">
                <name>Scene - LJ visemes.545.png</name>
                <masterclipid>masterclip-547</masterclipid>
                <rate>
                  <timebase>24</timebase>
                  <ntsc>FALSE</ntsc>
                </rate>
                <duration>1</duration>
                <enabled>TRUE</enabled>
                <alphatype>straight</alphatype>
                <rate>
                  <timebase>24</timebase>
                  <ntsc>FALSE</ntsc>
                </rate>
                <enabled>TRUE</enabled>
                <start>545</start>
                <end>546</end>
                <file id="file-547"/>
              </clipitem>
              <clipitem frameBlend="FALSE" id="clipitem-1221">
                <name>Scene - LJ visemes.546.png</name>
                <masterclipid>masterclip-548</masterclipid>
                <rate>
                  <timebase>24</timebase>
                  <ntsc>FALSE</ntsc>
                </rate>
                <duration>1</duration>
                <enabled>TRUE</enabled>
                <alphatype>straight</alphatype>
                <rate>
                  <timebase>24</timebase>
                  <ntsc>FALSE</ntsc>
                </rate>
                <enabled>TRUE</enabled>
                <start>546</start>
                <end>547</end>
                <file id="file-548"/>
              </clipitem>
              <clipitem frameBlend="FALSE" id="clipitem-1222">
                <name>Scene - LJ visemes.547.png</name>
                <masterclipid>masterclip-549</masterclipid>
                <rate>
                  <timebase>24</timebase>
                  <ntsc>FALSE</ntsc>
                </rate>
                <duration>1</duration>
                <enabled>TRUE</enabled>
                <alphatype>straight</alphatype>
                <rate>
                  <timebase>24</timebase>
                  <ntsc>FALSE</ntsc>
                </rate>
                <enabled>TRUE</enabled>
                <start>547</start>
                <end>548</end>
                <file id="file-549"/>
              </clipitem>
              <clipitem frameBlend="FALSE" id="clipitem-1223">
                <name>Scene - LJ visemes.548.png</name>
                <masterclipid>masterclip-550</masterclipid>
                <rate>
                  <timebase>24</timebase>
                  <ntsc>FALSE</ntsc>
                </rate>
                <duration>1</duration>
                <enabled>TRUE</enabled>
                <alphatype>straight</alphatype>
                <rate>
                  <timebase>24</timebase>
                  <ntsc>FALSE</ntsc>
                </rate>
                <enabled>TRUE</enabled>
                <start>548</start>
                <end>549</end>
                <file id="file-550"/>
              </clipitem>
              <clipitem frameBlend="FALSE" id="clipitem-1224">
                <name>Scene - LJ visemes.549.png</name>
                <masterclipid>masterclip-551</masterclipid>
                <rate>
                  <timebase>24</timebase>
                  <ntsc>FALSE</ntsc>
                </rate>
                <duration>1</duration>
                <enabled>TRUE</enabled>
                <alphatype>straight</alphatype>
                <rate>
                  <timebase>24</timebase>
                  <ntsc>FALSE</ntsc>
                </rate>
                <enabled>TRUE</enabled>
                <start>549</start>
                <end>550</end>
                <file id="file-551"/>
              </clipitem>
              <clipitem frameBlend="FALSE" id="clipitem-1225">
                <name>Scene - LJ visemes.550.png</name>
                <masterclipid>masterclip-552</masterclipid>
                <rate>
                  <timebase>24</timebase>
                  <ntsc>FALSE</ntsc>
                </rate>
                <duration>1</duration>
                <enabled>TRUE</enabled>
                <alphatype>straight</alphatype>
                <rate>
                  <timebase>24</timebase>
                  <ntsc>FALSE</ntsc>
                </rate>
                <enabled>TRUE</enabled>
                <start>550</start>
                <end>551</end>
                <file id="file-552"/>
              </clipitem>
              <clipitem frameBlend="FALSE" id="clipitem-1226">
                <name>Scene - LJ visemes.551.png</name>
                <masterclipid>masterclip-553</masterclipid>
                <rate>
                  <timebase>24</timebase>
                  <ntsc>FALSE</ntsc>
                </rate>
                <duration>1</duration>
                <enabled>TRUE</enabled>
                <alphatype>straight</alphatype>
                <rate>
                  <timebase>24</timebase>
                  <ntsc>FALSE</ntsc>
                </rate>
                <enabled>TRUE</enabled>
                <start>551</start>
                <end>552</end>
                <file id="file-553"/>
              </clipitem>
              <clipitem frameBlend="FALSE" id="clipitem-1227">
                <name>Scene - LJ visemes.552.png</name>
                <masterclipid>masterclip-554</masterclipid>
                <rate>
                  <timebase>24</timebase>
                  <ntsc>FALSE</ntsc>
                </rate>
                <duration>1</duration>
                <enabled>TRUE</enabled>
                <alphatype>straight</alphatype>
                <rate>
                  <timebase>24</timebase>
                  <ntsc>FALSE</ntsc>
                </rate>
                <enabled>TRUE</enabled>
                <start>552</start>
                <end>553</end>
                <file id="file-554"/>
              </clipitem>
              <clipitem frameBlend="FALSE" id="clipitem-1228">
                <name>Scene - LJ visemes.553.png</name>
                <masterclipid>masterclip-555</masterclipid>
                <rate>
                  <timebase>24</timebase>
                  <ntsc>FALSE</ntsc>
                </rate>
                <duration>1</duration>
                <enabled>TRUE</enabled>
                <alphatype>straight</alphatype>
                <rate>
                  <timebase>24</timebase>
                  <ntsc>FALSE</ntsc>
                </rate>
                <enabled>TRUE</enabled>
                <start>553</start>
                <end>554</end>
                <file id="file-555"/>
              </clipitem>
              <clipitem frameBlend="FALSE" id="clipitem-1229">
                <name>Scene - LJ visemes.554.png</name>
                <masterclipid>masterclip-556</masterclipid>
                <rate>
                  <timebase>24</timebase>
                  <ntsc>FALSE</ntsc>
                </rate>
                <duration>1</duration>
                <enabled>TRUE</enabled>
                <alphatype>straight</alphatype>
                <rate>
                  <timebase>24</timebase>
                  <ntsc>FALSE</ntsc>
                </rate>
                <enabled>TRUE</enabled>
                <start>554</start>
                <end>555</end>
                <file id="file-556"/>
              </clipitem>
              <clipitem frameBlend="FALSE" id="clipitem-1230">
                <name>Scene - LJ visemes.555.png</name>
                <masterclipid>masterclip-557</masterclipid>
                <rate>
                  <timebase>24</timebase>
                  <ntsc>FALSE</ntsc>
                </rate>
                <duration>1</duration>
                <enabled>TRUE</enabled>
                <alphatype>straight</alphatype>
                <rate>
                  <timebase>24</timebase>
                  <ntsc>FALSE</ntsc>
                </rate>
                <enabled>TRUE</enabled>
                <start>555</start>
                <end>556</end>
                <file id="file-557"/>
              </clipitem>
              <clipitem frameBlend="FALSE" id="clipitem-1231">
                <name>Scene - LJ visemes.556.png</name>
                <masterclipid>masterclip-558</masterclipid>
                <rate>
                  <timebase>24</timebase>
                  <ntsc>FALSE</ntsc>
                </rate>
                <duration>1</duration>
                <enabled>TRUE</enabled>
                <alphatype>straight</alphatype>
                <rate>
                  <timebase>24</timebase>
                  <ntsc>FALSE</ntsc>
                </rate>
                <enabled>TRUE</enabled>
                <start>556</start>
                <end>557</end>
                <file id="file-558"/>
              </clipitem>
              <clipitem frameBlend="FALSE" id="clipitem-1232">
                <name>Scene - LJ visemes.557.png</name>
                <masterclipid>masterclip-559</masterclipid>
                <rate>
                  <timebase>24</timebase>
                  <ntsc>FALSE</ntsc>
                </rate>
                <duration>1</duration>
                <enabled>TRUE</enabled>
                <alphatype>straight</alphatype>
                <rate>
                  <timebase>24</timebase>
                  <ntsc>FALSE</ntsc>
                </rate>
                <enabled>TRUE</enabled>
                <start>557</start>
                <end>558</end>
                <file id="file-559"/>
              </clipitem>
              <clipitem frameBlend="FALSE" id="clipitem-1233">
                <name>Scene - LJ visemes.558.png</name>
                <masterclipid>masterclip-560</masterclipid>
                <rate>
                  <timebase>24</timebase>
                  <ntsc>FALSE</ntsc>
                </rate>
                <duration>1</duration>
                <enabled>TRUE</enabled>
                <alphatype>straight</alphatype>
                <rate>
                  <timebase>24</timebase>
                  <ntsc>FALSE</ntsc>
                </rate>
                <enabled>TRUE</enabled>
                <start>558</start>
                <end>559</end>
                <file id="file-560"/>
              </clipitem>
              <clipitem frameBlend="FALSE" id="clipitem-1234">
                <name>Scene - LJ visemes.559.png</name>
                <masterclipid>masterclip-561</masterclipid>
                <rate>
                  <timebase>24</timebase>
                  <ntsc>FALSE</ntsc>
                </rate>
                <duration>1</duration>
                <enabled>TRUE</enabled>
                <alphatype>straight</alphatype>
                <rate>
                  <timebase>24</timebase>
                  <ntsc>FALSE</ntsc>
                </rate>
                <enabled>TRUE</enabled>
                <start>559</start>
                <end>560</end>
                <file id="file-561"/>
              </clipitem>
              <clipitem frameBlend="FALSE" id="clipitem-1235">
                <name>Scene - LJ visemes.560.png</name>
                <masterclipid>masterclip-562</masterclipid>
                <rate>
                  <timebase>24</timebase>
                  <ntsc>FALSE</ntsc>
                </rate>
                <duration>1</duration>
                <enabled>TRUE</enabled>
                <alphatype>straight</alphatype>
                <rate>
                  <timebase>24</timebase>
                  <ntsc>FALSE</ntsc>
                </rate>
                <enabled>TRUE</enabled>
                <start>560</start>
                <end>561</end>
                <file id="file-562"/>
              </clipitem>
              <clipitem frameBlend="FALSE" id="clipitem-1236">
                <name>Scene - LJ visemes.561.png</name>
                <masterclipid>masterclip-563</masterclipid>
                <rate>
                  <timebase>24</timebase>
                  <ntsc>FALSE</ntsc>
                </rate>
                <duration>1</duration>
                <enabled>TRUE</enabled>
                <alphatype>straight</alphatype>
                <rate>
                  <timebase>24</timebase>
                  <ntsc>FALSE</ntsc>
                </rate>
                <enabled>TRUE</enabled>
                <start>561</start>
                <end>562</end>
                <file id="file-563"/>
              </clipitem>
              <clipitem frameBlend="FALSE" id="clipitem-1237">
                <name>Scene - LJ visemes.562.png</name>
                <masterclipid>masterclip-564</masterclipid>
                <rate>
                  <timebase>24</timebase>
                  <ntsc>FALSE</ntsc>
                </rate>
                <duration>1</duration>
                <enabled>TRUE</enabled>
                <alphatype>straight</alphatype>
                <rate>
                  <timebase>24</timebase>
                  <ntsc>FALSE</ntsc>
                </rate>
                <enabled>TRUE</enabled>
                <start>562</start>
                <end>563</end>
                <file id="file-564"/>
              </clipitem>
              <clipitem frameBlend="FALSE" id="clipitem-1238">
                <name>Scene - LJ visemes.563.png</name>
                <masterclipid>masterclip-565</masterclipid>
                <rate>
                  <timebase>24</timebase>
                  <ntsc>FALSE</ntsc>
                </rate>
                <duration>1</duration>
                <enabled>TRUE</enabled>
                <alphatype>straight</alphatype>
                <rate>
                  <timebase>24</timebase>
                  <ntsc>FALSE</ntsc>
                </rate>
                <enabled>TRUE</enabled>
                <start>563</start>
                <end>564</end>
                <file id="file-565"/>
              </clipitem>
              <clipitem frameBlend="FALSE" id="clipitem-1239">
                <name>Scene - LJ visemes.564.png</name>
                <masterclipid>masterclip-566</masterclipid>
                <rate>
                  <timebase>24</timebase>
                  <ntsc>FALSE</ntsc>
                </rate>
                <duration>1</duration>
                <enabled>TRUE</enabled>
                <alphatype>straight</alphatype>
                <rate>
                  <timebase>24</timebase>
                  <ntsc>FALSE</ntsc>
                </rate>
                <enabled>TRUE</enabled>
                <start>564</start>
                <end>565</end>
                <file id="file-566"/>
              </clipitem>
              <clipitem frameBlend="FALSE" id="clipitem-1240">
                <name>Scene - LJ visemes.565.png</name>
                <masterclipid>masterclip-567</masterclipid>
                <rate>
                  <timebase>24</timebase>
                  <ntsc>FALSE</ntsc>
                </rate>
                <duration>1</duration>
                <enabled>TRUE</enabled>
                <alphatype>straight</alphatype>
                <rate>
                  <timebase>24</timebase>
                  <ntsc>FALSE</ntsc>
                </rate>
                <enabled>TRUE</enabled>
                <start>565</start>
                <end>566</end>
                <file id="file-567"/>
              </clipitem>
              <clipitem frameBlend="FALSE" id="clipitem-1241">
                <name>Scene - LJ visemes.566.png</name>
                <masterclipid>masterclip-568</masterclipid>
                <rate>
                  <timebase>24</timebase>
                  <ntsc>FALSE</ntsc>
                </rate>
                <duration>1</duration>
                <enabled>TRUE</enabled>
                <alphatype>straight</alphatype>
                <rate>
                  <timebase>24</timebase>
                  <ntsc>FALSE</ntsc>
                </rate>
                <enabled>TRUE</enabled>
                <start>566</start>
                <end>567</end>
                <file id="file-568"/>
              </clipitem>
              <clipitem frameBlend="FALSE" id="clipitem-1242">
                <name>Scene - LJ visemes.567.png</name>
                <masterclipid>masterclip-569</masterclipid>
                <rate>
                  <timebase>24</timebase>
                  <ntsc>FALSE</ntsc>
                </rate>
                <duration>1</duration>
                <enabled>TRUE</enabled>
                <alphatype>straight</alphatype>
                <rate>
                  <timebase>24</timebase>
                  <ntsc>FALSE</ntsc>
                </rate>
                <enabled>TRUE</enabled>
                <start>567</start>
                <end>568</end>
                <file id="file-569"/>
              </clipitem>
              <clipitem frameBlend="FALSE" id="clipitem-1243">
                <name>Scene - LJ visemes.568.png</name>
                <masterclipid>masterclip-570</masterclipid>
                <rate>
                  <timebase>24</timebase>
                  <ntsc>FALSE</ntsc>
                </rate>
                <duration>1</duration>
                <enabled>TRUE</enabled>
                <alphatype>straight</alphatype>
                <rate>
                  <timebase>24</timebase>
                  <ntsc>FALSE</ntsc>
                </rate>
                <enabled>TRUE</enabled>
                <start>568</start>
                <end>569</end>
                <file id="file-570"/>
              </clipitem>
              <clipitem frameBlend="FALSE" id="clipitem-1244">
                <name>Scene - LJ visemes.569.png</name>
                <masterclipid>masterclip-571</masterclipid>
                <rate>
                  <timebase>24</timebase>
                  <ntsc>FALSE</ntsc>
                </rate>
                <duration>1</duration>
                <enabled>TRUE</enabled>
                <alphatype>straight</alphatype>
                <rate>
                  <timebase>24</timebase>
                  <ntsc>FALSE</ntsc>
                </rate>
                <enabled>TRUE</enabled>
                <start>569</start>
                <end>570</end>
                <file id="file-571"/>
              </clipitem>
              <clipitem frameBlend="FALSE" id="clipitem-1245">
                <name>Scene - LJ visemes.570.png</name>
                <masterclipid>masterclip-572</masterclipid>
                <rate>
                  <timebase>24</timebase>
                  <ntsc>FALSE</ntsc>
                </rate>
                <duration>1</duration>
                <enabled>TRUE</enabled>
                <alphatype>straight</alphatype>
                <rate>
                  <timebase>24</timebase>
                  <ntsc>FALSE</ntsc>
                </rate>
                <enabled>TRUE</enabled>
                <start>570</start>
                <end>571</end>
                <file id="file-572"/>
              </clipitem>
              <clipitem frameBlend="FALSE" id="clipitem-1246">
                <name>Scene - LJ visemes.571.png</name>
                <masterclipid>masterclip-573</masterclipid>
                <rate>
                  <timebase>24</timebase>
                  <ntsc>FALSE</ntsc>
                </rate>
                <duration>1</duration>
                <enabled>TRUE</enabled>
                <alphatype>straight</alphatype>
                <rate>
                  <timebase>24</timebase>
                  <ntsc>FALSE</ntsc>
                </rate>
                <enabled>TRUE</enabled>
                <start>571</start>
                <end>572</end>
                <file id="file-573"/>
              </clipitem>
              <clipitem frameBlend="FALSE" id="clipitem-1247">
                <name>Scene - LJ visemes.572.png</name>
                <masterclipid>masterclip-574</masterclipid>
                <rate>
                  <timebase>24</timebase>
                  <ntsc>FALSE</ntsc>
                </rate>
                <duration>1</duration>
                <enabled>TRUE</enabled>
                <alphatype>straight</alphatype>
                <rate>
                  <timebase>24</timebase>
                  <ntsc>FALSE</ntsc>
                </rate>
                <enabled>TRUE</enabled>
                <start>572</start>
                <end>573</end>
                <file id="file-574"/>
              </clipitem>
              <clipitem frameBlend="FALSE" id="clipitem-1248">
                <name>Scene - LJ visemes.573.png</name>
                <masterclipid>masterclip-575</masterclipid>
                <rate>
                  <timebase>24</timebase>
                  <ntsc>FALSE</ntsc>
                </rate>
                <duration>1</duration>
                <enabled>TRUE</enabled>
                <alphatype>straight</alphatype>
                <rate>
                  <timebase>24</timebase>
                  <ntsc>FALSE</ntsc>
                </rate>
                <enabled>TRUE</enabled>
                <start>573</start>
                <end>574</end>
                <file id="file-575"/>
              </clipitem>
              <clipitem frameBlend="FALSE" id="clipitem-1249">
                <name>Scene - LJ visemes.574.png</name>
                <masterclipid>masterclip-576</masterclipid>
                <rate>
                  <timebase>24</timebase>
                  <ntsc>FALSE</ntsc>
                </rate>
                <duration>1</duration>
                <enabled>TRUE</enabled>
                <alphatype>straight</alphatype>
                <rate>
                  <timebase>24</timebase>
                  <ntsc>FALSE</ntsc>
                </rate>
                <enabled>TRUE</enabled>
                <start>574</start>
                <end>575</end>
                <file id="file-576"/>
              </clipitem>
              <clipitem frameBlend="FALSE" id="clipitem-1250">
                <name>Scene - LJ visemes.575.png</name>
                <masterclipid>masterclip-577</masterclipid>
                <rate>
                  <timebase>24</timebase>
                  <ntsc>FALSE</ntsc>
                </rate>
                <duration>1</duration>
                <enabled>TRUE</enabled>
                <alphatype>straight</alphatype>
                <rate>
                  <timebase>24</timebase>
                  <ntsc>FALSE</ntsc>
                </rate>
                <enabled>TRUE</enabled>
                <start>575</start>
                <end>576</end>
                <file id="file-577"/>
              </clipitem>
              <clipitem frameBlend="FALSE" id="clipitem-1251">
                <name>Scene - LJ visemes.576.png</name>
                <masterclipid>masterclip-578</masterclipid>
                <rate>
                  <timebase>24</timebase>
                  <ntsc>FALSE</ntsc>
                </rate>
                <duration>1</duration>
                <enabled>TRUE</enabled>
                <alphatype>straight</alphatype>
                <rate>
                  <timebase>24</timebase>
                  <ntsc>FALSE</ntsc>
                </rate>
                <enabled>TRUE</enabled>
                <start>576</start>
                <end>577</end>
                <file id="file-578"/>
              </clipitem>
              <clipitem frameBlend="FALSE" id="clipitem-1252">
                <name>Scene - LJ visemes.577.png</name>
                <masterclipid>masterclip-579</masterclipid>
                <rate>
                  <timebase>24</timebase>
                  <ntsc>FALSE</ntsc>
                </rate>
                <duration>1</duration>
                <enabled>TRUE</enabled>
                <alphatype>straight</alphatype>
                <rate>
                  <timebase>24</timebase>
                  <ntsc>FALSE</ntsc>
                </rate>
                <enabled>TRUE</enabled>
                <start>577</start>
                <end>578</end>
                <file id="file-579"/>
              </clipitem>
              <clipitem frameBlend="FALSE" id="clipitem-1253">
                <name>Scene - LJ visemes.578.png</name>
                <masterclipid>masterclip-580</masterclipid>
                <rate>
                  <timebase>24</timebase>
                  <ntsc>FALSE</ntsc>
                </rate>
                <duration>1</duration>
                <enabled>TRUE</enabled>
                <alphatype>straight</alphatype>
                <rate>
                  <timebase>24</timebase>
                  <ntsc>FALSE</ntsc>
                </rate>
                <enabled>TRUE</enabled>
                <start>578</start>
                <end>579</end>
                <file id="file-580"/>
              </clipitem>
              <clipitem frameBlend="FALSE" id="clipitem-1254">
                <name>Scene - LJ visemes.579.png</name>
                <masterclipid>masterclip-581</masterclipid>
                <rate>
                  <timebase>24</timebase>
                  <ntsc>FALSE</ntsc>
                </rate>
                <duration>1</duration>
                <enabled>TRUE</enabled>
                <alphatype>straight</alphatype>
                <rate>
                  <timebase>24</timebase>
                  <ntsc>FALSE</ntsc>
                </rate>
                <enabled>TRUE</enabled>
                <start>579</start>
                <end>580</end>
                <file id="file-581"/>
              </clipitem>
              <clipitem frameBlend="FALSE" id="clipitem-1255">
                <name>Scene - LJ visemes.580.png</name>
                <masterclipid>masterclip-582</masterclipid>
                <rate>
                  <timebase>24</timebase>
                  <ntsc>FALSE</ntsc>
                </rate>
                <duration>1</duration>
                <enabled>TRUE</enabled>
                <alphatype>straight</alphatype>
                <rate>
                  <timebase>24</timebase>
                  <ntsc>FALSE</ntsc>
                </rate>
                <enabled>TRUE</enabled>
                <start>580</start>
                <end>581</end>
                <file id="file-582"/>
              </clipitem>
              <clipitem frameBlend="FALSE" id="clipitem-1256">
                <name>Scene - LJ visemes.581.png</name>
                <masterclipid>masterclip-583</masterclipid>
                <rate>
                  <timebase>24</timebase>
                  <ntsc>FALSE</ntsc>
                </rate>
                <duration>1</duration>
                <enabled>TRUE</enabled>
                <alphatype>straight</alphatype>
                <rate>
                  <timebase>24</timebase>
                  <ntsc>FALSE</ntsc>
                </rate>
                <enabled>TRUE</enabled>
                <start>581</start>
                <end>582</end>
                <file id="file-583"/>
              </clipitem>
              <clipitem frameBlend="FALSE" id="clipitem-1257">
                <name>Scene - LJ visemes.582.png</name>
                <masterclipid>masterclip-584</masterclipid>
                <rate>
                  <timebase>24</timebase>
                  <ntsc>FALSE</ntsc>
                </rate>
                <duration>1</duration>
                <enabled>TRUE</enabled>
                <alphatype>straight</alphatype>
                <rate>
                  <timebase>24</timebase>
                  <ntsc>FALSE</ntsc>
                </rate>
                <enabled>TRUE</enabled>
                <start>582</start>
                <end>583</end>
                <file id="file-584"/>
              </clipitem>
              <clipitem frameBlend="FALSE" id="clipitem-1258">
                <name>Scene - LJ visemes.583.png</name>
                <masterclipid>masterclip-585</masterclipid>
                <rate>
                  <timebase>24</timebase>
                  <ntsc>FALSE</ntsc>
                </rate>
                <duration>1</duration>
                <enabled>TRUE</enabled>
                <alphatype>straight</alphatype>
                <rate>
                  <timebase>24</timebase>
                  <ntsc>FALSE</ntsc>
                </rate>
                <enabled>TRUE</enabled>
                <start>583</start>
                <end>584</end>
                <file id="file-585"/>
              </clipitem>
              <clipitem frameBlend="FALSE" id="clipitem-1259">
                <name>Scene - LJ visemes.584.png</name>
                <masterclipid>masterclip-586</masterclipid>
                <rate>
                  <timebase>24</timebase>
                  <ntsc>FALSE</ntsc>
                </rate>
                <duration>1</duration>
                <enabled>TRUE</enabled>
                <alphatype>straight</alphatype>
                <rate>
                  <timebase>24</timebase>
                  <ntsc>FALSE</ntsc>
                </rate>
                <enabled>TRUE</enabled>
                <start>584</start>
                <end>585</end>
                <file id="file-586"/>
              </clipitem>
              <clipitem frameBlend="FALSE" id="clipitem-1260">
                <name>Scene - LJ visemes.585.png</name>
                <masterclipid>masterclip-587</masterclipid>
                <rate>
                  <timebase>24</timebase>
                  <ntsc>FALSE</ntsc>
                </rate>
                <duration>1</duration>
                <enabled>TRUE</enabled>
                <alphatype>straight</alphatype>
                <rate>
                  <timebase>24</timebase>
                  <ntsc>FALSE</ntsc>
                </rate>
                <enabled>TRUE</enabled>
                <start>585</start>
                <end>586</end>
                <file id="file-587"/>
              </clipitem>
              <clipitem frameBlend="FALSE" id="clipitem-1261">
                <name>Scene - LJ visemes.586.png</name>
                <masterclipid>masterclip-588</masterclipid>
                <rate>
                  <timebase>24</timebase>
                  <ntsc>FALSE</ntsc>
                </rate>
                <duration>1</duration>
                <enabled>TRUE</enabled>
                <alphatype>straight</alphatype>
                <rate>
                  <timebase>24</timebase>
                  <ntsc>FALSE</ntsc>
                </rate>
                <enabled>TRUE</enabled>
                <start>586</start>
                <end>587</end>
                <file id="file-588"/>
              </clipitem>
              <clipitem frameBlend="FALSE" id="clipitem-1262">
                <name>Scene - LJ visemes.587.png</name>
                <masterclipid>masterclip-589</masterclipid>
                <rate>
                  <timebase>24</timebase>
                  <ntsc>FALSE</ntsc>
                </rate>
                <duration>1</duration>
                <enabled>TRUE</enabled>
                <alphatype>straight</alphatype>
                <rate>
                  <timebase>24</timebase>
                  <ntsc>FALSE</ntsc>
                </rate>
                <enabled>TRUE</enabled>
                <start>587</start>
                <end>588</end>
                <file id="file-589"/>
              </clipitem>
              <clipitem frameBlend="FALSE" id="clipitem-1263">
                <name>Scene - LJ visemes.588.png</name>
                <masterclipid>masterclip-590</masterclipid>
                <rate>
                  <timebase>24</timebase>
                  <ntsc>FALSE</ntsc>
                </rate>
                <duration>1</duration>
                <enabled>TRUE</enabled>
                <alphatype>straight</alphatype>
                <rate>
                  <timebase>24</timebase>
                  <ntsc>FALSE</ntsc>
                </rate>
                <enabled>TRUE</enabled>
                <start>588</start>
                <end>589</end>
                <file id="file-590"/>
              </clipitem>
              <clipitem frameBlend="FALSE" id="clipitem-1264">
                <name>Scene - LJ visemes.589.png</name>
                <masterclipid>masterclip-591</masterclipid>
                <rate>
                  <timebase>24</timebase>
                  <ntsc>FALSE</ntsc>
                </rate>
                <duration>1</duration>
                <enabled>TRUE</enabled>
                <alphatype>straight</alphatype>
                <rate>
                  <timebase>24</timebase>
                  <ntsc>FALSE</ntsc>
                </rate>
                <enabled>TRUE</enabled>
                <start>589</start>
                <end>590</end>
                <file id="file-591"/>
              </clipitem>
              <clipitem frameBlend="FALSE" id="clipitem-1265">
                <name>Scene - LJ visemes.590.png</name>
                <masterclipid>masterclip-592</masterclipid>
                <rate>
                  <timebase>24</timebase>
                  <ntsc>FALSE</ntsc>
                </rate>
                <duration>1</duration>
                <enabled>TRUE</enabled>
                <alphatype>straight</alphatype>
                <rate>
                  <timebase>24</timebase>
                  <ntsc>FALSE</ntsc>
                </rate>
                <enabled>TRUE</enabled>
                <start>590</start>
                <end>591</end>
                <file id="file-592"/>
              </clipitem>
              <clipitem frameBlend="FALSE" id="clipitem-1266">
                <name>Scene - LJ visemes.591.png</name>
                <masterclipid>masterclip-593</masterclipid>
                <rate>
                  <timebase>24</timebase>
                  <ntsc>FALSE</ntsc>
                </rate>
                <duration>1</duration>
                <enabled>TRUE</enabled>
                <alphatype>straight</alphatype>
                <rate>
                  <timebase>24</timebase>
                  <ntsc>FALSE</ntsc>
                </rate>
                <enabled>TRUE</enabled>
                <start>591</start>
                <end>592</end>
                <file id="file-593"/>
              </clipitem>
              <clipitem frameBlend="FALSE" id="clipitem-1267">
                <name>Scene - LJ visemes.592.png</name>
                <masterclipid>masterclip-594</masterclipid>
                <rate>
                  <timebase>24</timebase>
                  <ntsc>FALSE</ntsc>
                </rate>
                <duration>1</duration>
                <enabled>TRUE</enabled>
                <alphatype>straight</alphatype>
                <rate>
                  <timebase>24</timebase>
                  <ntsc>FALSE</ntsc>
                </rate>
                <enabled>TRUE</enabled>
                <start>592</start>
                <end>593</end>
                <file id="file-594"/>
              </clipitem>
              <clipitem frameBlend="FALSE" id="clipitem-1268">
                <name>Scene - LJ visemes.593.png</name>
                <masterclipid>masterclip-595</masterclipid>
                <rate>
                  <timebase>24</timebase>
                  <ntsc>FALSE</ntsc>
                </rate>
                <duration>1</duration>
                <enabled>TRUE</enabled>
                <alphatype>straight</alphatype>
                <rate>
                  <timebase>24</timebase>
                  <ntsc>FALSE</ntsc>
                </rate>
                <enabled>TRUE</enabled>
                <start>593</start>
                <end>594</end>
                <file id="file-595"/>
              </clipitem>
              <clipitem frameBlend="FALSE" id="clipitem-1269">
                <name>Scene - LJ visemes.594.png</name>
                <masterclipid>masterclip-596</masterclipid>
                <rate>
                  <timebase>24</timebase>
                  <ntsc>FALSE</ntsc>
                </rate>
                <duration>1</duration>
                <enabled>TRUE</enabled>
                <alphatype>straight</alphatype>
                <rate>
                  <timebase>24</timebase>
                  <ntsc>FALSE</ntsc>
                </rate>
                <enabled>TRUE</enabled>
                <start>594</start>
                <end>595</end>
                <file id="file-596"/>
              </clipitem>
              <clipitem frameBlend="FALSE" id="clipitem-1270">
                <name>Scene - LJ visemes.595.png</name>
                <masterclipid>masterclip-597</masterclipid>
                <rate>
                  <timebase>24</timebase>
                  <ntsc>FALSE</ntsc>
                </rate>
                <duration>1</duration>
                <enabled>TRUE</enabled>
                <alphatype>straight</alphatype>
                <rate>
                  <timebase>24</timebase>
                  <ntsc>FALSE</ntsc>
                </rate>
                <enabled>TRUE</enabled>
                <start>595</start>
                <end>596</end>
                <file id="file-597"/>
              </clipitem>
              <clipitem frameBlend="FALSE" id="clipitem-1271">
                <name>Scene - LJ visemes.596.png</name>
                <masterclipid>masterclip-598</masterclipid>
                <rate>
                  <timebase>24</timebase>
                  <ntsc>FALSE</ntsc>
                </rate>
                <duration>1</duration>
                <enabled>TRUE</enabled>
                <alphatype>straight</alphatype>
                <rate>
                  <timebase>24</timebase>
                  <ntsc>FALSE</ntsc>
                </rate>
                <enabled>TRUE</enabled>
                <start>596</start>
                <end>597</end>
                <file id="file-598"/>
              </clipitem>
              <clipitem frameBlend="FALSE" id="clipitem-1272">
                <name>Scene - LJ visemes.597.png</name>
                <masterclipid>masterclip-599</masterclipid>
                <rate>
                  <timebase>24</timebase>
                  <ntsc>FALSE</ntsc>
                </rate>
                <duration>1</duration>
                <enabled>TRUE</enabled>
                <alphatype>straight</alphatype>
                <rate>
                  <timebase>24</timebase>
                  <ntsc>FALSE</ntsc>
                </rate>
                <enabled>TRUE</enabled>
                <start>597</start>
                <end>598</end>
                <file id="file-599"/>
              </clipitem>
              <clipitem frameBlend="FALSE" id="clipitem-1273">
                <name>Scene - LJ visemes.598.png</name>
                <masterclipid>masterclip-600</masterclipid>
                <rate>
                  <timebase>24</timebase>
                  <ntsc>FALSE</ntsc>
                </rate>
                <duration>1</duration>
                <enabled>TRUE</enabled>
                <alphatype>straight</alphatype>
                <rate>
                  <timebase>24</timebase>
                  <ntsc>FALSE</ntsc>
                </rate>
                <enabled>TRUE</enabled>
                <start>598</start>
                <end>599</end>
                <file id="file-600"/>
              </clipitem>
              <clipitem frameBlend="FALSE" id="clipitem-1274">
                <name>Scene - LJ visemes.599.png</name>
                <masterclipid>masterclip-601</masterclipid>
                <rate>
                  <timebase>24</timebase>
                  <ntsc>FALSE</ntsc>
                </rate>
                <duration>1</duration>
                <enabled>TRUE</enabled>
                <alphatype>straight</alphatype>
                <rate>
                  <timebase>24</timebase>
                  <ntsc>FALSE</ntsc>
                </rate>
                <enabled>TRUE</enabled>
                <start>599</start>
                <end>600</end>
                <file id="file-601"/>
              </clipitem>
              <clipitem frameBlend="FALSE" id="clipitem-1275">
                <name>Scene - LJ visemes.600.png</name>
                <masterclipid>masterclip-602</masterclipid>
                <rate>
                  <timebase>24</timebase>
                  <ntsc>FALSE</ntsc>
                </rate>
                <duration>1</duration>
                <enabled>TRUE</enabled>
                <alphatype>straight</alphatype>
                <rate>
                  <timebase>24</timebase>
                  <ntsc>FALSE</ntsc>
                </rate>
                <enabled>TRUE</enabled>
                <start>600</start>
                <end>601</end>
                <file id="file-602"/>
              </clipitem>
              <clipitem frameBlend="FALSE" id="clipitem-1276">
                <name>Scene - LJ visemes.601.png</name>
                <masterclipid>masterclip-603</masterclipid>
                <rate>
                  <timebase>24</timebase>
                  <ntsc>FALSE</ntsc>
                </rate>
                <duration>1</duration>
                <enabled>TRUE</enabled>
                <alphatype>straight</alphatype>
                <rate>
                  <timebase>24</timebase>
                  <ntsc>FALSE</ntsc>
                </rate>
                <enabled>TRUE</enabled>
                <start>601</start>
                <end>602</end>
                <file id="file-603"/>
              </clipitem>
              <clipitem frameBlend="FALSE" id="clipitem-1277">
                <name>Scene - LJ visemes.602.png</name>
                <masterclipid>masterclip-604</masterclipid>
                <rate>
                  <timebase>24</timebase>
                  <ntsc>FALSE</ntsc>
                </rate>
                <duration>1</duration>
                <enabled>TRUE</enabled>
                <alphatype>straight</alphatype>
                <rate>
                  <timebase>24</timebase>
                  <ntsc>FALSE</ntsc>
                </rate>
                <enabled>TRUE</enabled>
                <start>602</start>
                <end>603</end>
                <file id="file-604"/>
              </clipitem>
              <clipitem frameBlend="FALSE" id="clipitem-1278">
                <name>Scene - LJ visemes.603.png</name>
                <masterclipid>masterclip-605</masterclipid>
                <rate>
                  <timebase>24</timebase>
                  <ntsc>FALSE</ntsc>
                </rate>
                <duration>1</duration>
                <enabled>TRUE</enabled>
                <alphatype>straight</alphatype>
                <rate>
                  <timebase>24</timebase>
                  <ntsc>FALSE</ntsc>
                </rate>
                <enabled>TRUE</enabled>
                <start>603</start>
                <end>604</end>
                <file id="file-605"/>
              </clipitem>
              <clipitem frameBlend="FALSE" id="clipitem-1279">
                <name>Scene - LJ visemes.604.png</name>
                <masterclipid>masterclip-606</masterclipid>
                <rate>
                  <timebase>24</timebase>
                  <ntsc>FALSE</ntsc>
                </rate>
                <duration>1</duration>
                <enabled>TRUE</enabled>
                <alphatype>straight</alphatype>
                <rate>
                  <timebase>24</timebase>
                  <ntsc>FALSE</ntsc>
                </rate>
                <enabled>TRUE</enabled>
                <start>604</start>
                <end>605</end>
                <file id="file-606"/>
              </clipitem>
              <clipitem frameBlend="FALSE" id="clipitem-1280">
                <name>Scene - LJ visemes.605.png</name>
                <masterclipid>masterclip-607</masterclipid>
                <rate>
                  <timebase>24</timebase>
                  <ntsc>FALSE</ntsc>
                </rate>
                <duration>1</duration>
                <enabled>TRUE</enabled>
                <alphatype>straight</alphatype>
                <rate>
                  <timebase>24</timebase>
                  <ntsc>FALSE</ntsc>
                </rate>
                <enabled>TRUE</enabled>
                <start>605</start>
                <end>606</end>
                <file id="file-607"/>
              </clipitem>
              <clipitem frameBlend="FALSE" id="clipitem-1281">
                <name>Scene - LJ visemes.606.png</name>
                <masterclipid>masterclip-608</masterclipid>
                <rate>
                  <timebase>24</timebase>
                  <ntsc>FALSE</ntsc>
                </rate>
                <duration>1</duration>
                <enabled>TRUE</enabled>
                <alphatype>straight</alphatype>
                <rate>
                  <timebase>24</timebase>
                  <ntsc>FALSE</ntsc>
                </rate>
                <enabled>TRUE</enabled>
                <start>606</start>
                <end>607</end>
                <file id="file-608"/>
              </clipitem>
              <clipitem frameBlend="FALSE" id="clipitem-1282">
                <name>Scene - LJ visemes.607.png</name>
                <masterclipid>masterclip-609</masterclipid>
                <rate>
                  <timebase>24</timebase>
                  <ntsc>FALSE</ntsc>
                </rate>
                <duration>1</duration>
                <enabled>TRUE</enabled>
                <alphatype>straight</alphatype>
                <rate>
                  <timebase>24</timebase>
                  <ntsc>FALSE</ntsc>
                </rate>
                <enabled>TRUE</enabled>
                <start>607</start>
                <end>608</end>
                <file id="file-609"/>
              </clipitem>
              <clipitem frameBlend="FALSE" id="clipitem-1283">
                <name>Scene - LJ visemes.608.png</name>
                <masterclipid>masterclip-610</masterclipid>
                <rate>
                  <timebase>24</timebase>
                  <ntsc>FALSE</ntsc>
                </rate>
                <duration>1</duration>
                <enabled>TRUE</enabled>
                <alphatype>straight</alphatype>
                <rate>
                  <timebase>24</timebase>
                  <ntsc>FALSE</ntsc>
                </rate>
                <enabled>TRUE</enabled>
                <start>608</start>
                <end>609</end>
                <file id="file-610"/>
              </clipitem>
              <clipitem frameBlend="FALSE" id="clipitem-1284">
                <name>Scene - LJ visemes.609.png</name>
                <masterclipid>masterclip-611</masterclipid>
                <rate>
                  <timebase>24</timebase>
                  <ntsc>FALSE</ntsc>
                </rate>
                <duration>1</duration>
                <enabled>TRUE</enabled>
                <alphatype>straight</alphatype>
                <rate>
                  <timebase>24</timebase>
                  <ntsc>FALSE</ntsc>
                </rate>
                <enabled>TRUE</enabled>
                <start>609</start>
                <end>610</end>
                <file id="file-611"/>
              </clipitem>
              <clipitem frameBlend="FALSE" id="clipitem-1285">
                <name>Scene - LJ visemes.610.png</name>
                <masterclipid>masterclip-612</masterclipid>
                <rate>
                  <timebase>24</timebase>
                  <ntsc>FALSE</ntsc>
                </rate>
                <duration>1</duration>
                <enabled>TRUE</enabled>
                <alphatype>straight</alphatype>
                <rate>
                  <timebase>24</timebase>
                  <ntsc>FALSE</ntsc>
                </rate>
                <enabled>TRUE</enabled>
                <start>610</start>
                <end>611</end>
                <file id="file-612"/>
              </clipitem>
              <clipitem frameBlend="FALSE" id="clipitem-1286">
                <name>Scene - LJ visemes.611.png</name>
                <masterclipid>masterclip-613</masterclipid>
                <rate>
                  <timebase>24</timebase>
                  <ntsc>FALSE</ntsc>
                </rate>
                <duration>1</duration>
                <enabled>TRUE</enabled>
                <alphatype>straight</alphatype>
                <rate>
                  <timebase>24</timebase>
                  <ntsc>FALSE</ntsc>
                </rate>
                <enabled>TRUE</enabled>
                <start>611</start>
                <end>612</end>
                <file id="file-613"/>
              </clipitem>
              <clipitem frameBlend="FALSE" id="clipitem-1287">
                <name>Scene - LJ visemes.612.png</name>
                <masterclipid>masterclip-614</masterclipid>
                <rate>
                  <timebase>24</timebase>
                  <ntsc>FALSE</ntsc>
                </rate>
                <duration>1</duration>
                <enabled>TRUE</enabled>
                <alphatype>straight</alphatype>
                <rate>
                  <timebase>24</timebase>
                  <ntsc>FALSE</ntsc>
                </rate>
                <enabled>TRUE</enabled>
                <start>612</start>
                <end>613</end>
                <file id="file-614"/>
              </clipitem>
              <clipitem frameBlend="FALSE" id="clipitem-1288">
                <name>Scene - LJ visemes.613.png</name>
                <masterclipid>masterclip-615</masterclipid>
                <rate>
                  <timebase>24</timebase>
                  <ntsc>FALSE</ntsc>
                </rate>
                <duration>1</duration>
                <enabled>TRUE</enabled>
                <alphatype>straight</alphatype>
                <rate>
                  <timebase>24</timebase>
                  <ntsc>FALSE</ntsc>
                </rate>
                <enabled>TRUE</enabled>
                <start>613</start>
                <end>614</end>
                <file id="file-615"/>
              </clipitem>
              <clipitem frameBlend="FALSE" id="clipitem-1289">
                <name>Scene - LJ visemes.614.png</name>
                <masterclipid>masterclip-616</masterclipid>
                <rate>
                  <timebase>24</timebase>
                  <ntsc>FALSE</ntsc>
                </rate>
                <duration>1</duration>
                <enabled>TRUE</enabled>
                <alphatype>straight</alphatype>
                <rate>
                  <timebase>24</timebase>
                  <ntsc>FALSE</ntsc>
                </rate>
                <enabled>TRUE</enabled>
                <start>614</start>
                <end>615</end>
                <file id="file-616"/>
              </clipitem>
              <clipitem frameBlend="FALSE" id="clipitem-1290">
                <name>Scene - LJ visemes.615.png</name>
                <masterclipid>masterclip-617</masterclipid>
                <rate>
                  <timebase>24</timebase>
                  <ntsc>FALSE</ntsc>
                </rate>
                <duration>1</duration>
                <enabled>TRUE</enabled>
                <alphatype>straight</alphatype>
                <rate>
                  <timebase>24</timebase>
                  <ntsc>FALSE</ntsc>
                </rate>
                <enabled>TRUE</enabled>
                <start>615</start>
                <end>616</end>
                <file id="file-617"/>
              </clipitem>
              <clipitem frameBlend="FALSE" id="clipitem-1291">
                <name>Scene - LJ visemes.616.png</name>
                <masterclipid>masterclip-618</masterclipid>
                <rate>
                  <timebase>24</timebase>
                  <ntsc>FALSE</ntsc>
                </rate>
                <duration>1</duration>
                <enabled>TRUE</enabled>
                <alphatype>straight</alphatype>
                <rate>
                  <timebase>24</timebase>
                  <ntsc>FALSE</ntsc>
                </rate>
                <enabled>TRUE</enabled>
                <start>616</start>
                <end>617</end>
                <file id="file-618"/>
              </clipitem>
              <clipitem frameBlend="FALSE" id="clipitem-1292">
                <name>Scene - LJ visemes.617.png</name>
                <masterclipid>masterclip-619</masterclipid>
                <rate>
                  <timebase>24</timebase>
                  <ntsc>FALSE</ntsc>
                </rate>
                <duration>1</duration>
                <enabled>TRUE</enabled>
                <alphatype>straight</alphatype>
                <rate>
                  <timebase>24</timebase>
                  <ntsc>FALSE</ntsc>
                </rate>
                <enabled>TRUE</enabled>
                <start>617</start>
                <end>618</end>
                <file id="file-619"/>
              </clipitem>
              <clipitem frameBlend="FALSE" id="clipitem-1293">
                <name>Scene - LJ visemes.618.png</name>
                <masterclipid>masterclip-620</masterclipid>
                <rate>
                  <timebase>24</timebase>
                  <ntsc>FALSE</ntsc>
                </rate>
                <duration>1</duration>
                <enabled>TRUE</enabled>
                <alphatype>straight</alphatype>
                <rate>
                  <timebase>24</timebase>
                  <ntsc>FALSE</ntsc>
                </rate>
                <enabled>TRUE</enabled>
                <start>618</start>
                <end>619</end>
                <file id="file-620"/>
              </clipitem>
              <clipitem frameBlend="FALSE" id="clipitem-1294">
                <name>Scene - LJ visemes.619.png</name>
                <masterclipid>masterclip-621</masterclipid>
                <rate>
                  <timebase>24</timebase>
                  <ntsc>FALSE</ntsc>
                </rate>
                <duration>1</duration>
                <enabled>TRUE</enabled>
                <alphatype>straight</alphatype>
                <rate>
                  <timebase>24</timebase>
                  <ntsc>FALSE</ntsc>
                </rate>
                <enabled>TRUE</enabled>
                <start>619</start>
                <end>620</end>
                <file id="file-621"/>
              </clipitem>
              <clipitem frameBlend="FALSE" id="clipitem-1295">
                <name>Scene - LJ visemes.620.png</name>
                <masterclipid>masterclip-622</masterclipid>
                <rate>
                  <timebase>24</timebase>
                  <ntsc>FALSE</ntsc>
                </rate>
                <duration>1</duration>
                <enabled>TRUE</enabled>
                <alphatype>straight</alphatype>
                <rate>
                  <timebase>24</timebase>
                  <ntsc>FALSE</ntsc>
                </rate>
                <enabled>TRUE</enabled>
                <start>620</start>
                <end>621</end>
                <file id="file-622"/>
              </clipitem>
              <clipitem frameBlend="FALSE" id="clipitem-1296">
                <name>Scene - LJ visemes.621.png</name>
                <masterclipid>masterclip-623</masterclipid>
                <rate>
                  <timebase>24</timebase>
                  <ntsc>FALSE</ntsc>
                </rate>
                <duration>1</duration>
                <enabled>TRUE</enabled>
                <alphatype>straight</alphatype>
                <rate>
                  <timebase>24</timebase>
                  <ntsc>FALSE</ntsc>
                </rate>
                <enabled>TRUE</enabled>
                <start>621</start>
                <end>622</end>
                <file id="file-623"/>
              </clipitem>
              <clipitem frameBlend="FALSE" id="clipitem-1297">
                <name>Scene - LJ visemes.622.png</name>
                <masterclipid>masterclip-624</masterclipid>
                <rate>
                  <timebase>24</timebase>
                  <ntsc>FALSE</ntsc>
                </rate>
                <duration>1</duration>
                <enabled>TRUE</enabled>
                <alphatype>straight</alphatype>
                <rate>
                  <timebase>24</timebase>
                  <ntsc>FALSE</ntsc>
                </rate>
                <enabled>TRUE</enabled>
                <start>622</start>
                <end>623</end>
                <file id="file-624"/>
              </clipitem>
              <clipitem frameBlend="FALSE" id="clipitem-1298">
                <name>Scene - LJ visemes.623.png</name>
                <masterclipid>masterclip-625</masterclipid>
                <rate>
                  <timebase>24</timebase>
                  <ntsc>FALSE</ntsc>
                </rate>
                <duration>1</duration>
                <enabled>TRUE</enabled>
                <alphatype>straight</alphatype>
                <rate>
                  <timebase>24</timebase>
                  <ntsc>FALSE</ntsc>
                </rate>
                <enabled>TRUE</enabled>
                <start>623</start>
                <end>624</end>
                <file id="file-625"/>
              </clipitem>
              <clipitem frameBlend="FALSE" id="clipitem-1299">
                <name>Scene - LJ visemes.624.png</name>
                <masterclipid>masterclip-626</masterclipid>
                <rate>
                  <timebase>24</timebase>
                  <ntsc>FALSE</ntsc>
                </rate>
                <duration>1</duration>
                <enabled>TRUE</enabled>
                <alphatype>straight</alphatype>
                <rate>
                  <timebase>24</timebase>
                  <ntsc>FALSE</ntsc>
                </rate>
                <enabled>TRUE</enabled>
                <start>624</start>
                <end>625</end>
                <file id="file-626"/>
              </clipitem>
              <clipitem frameBlend="FALSE" id="clipitem-1300">
                <name>Scene - LJ visemes.625.png</name>
                <masterclipid>masterclip-627</masterclipid>
                <rate>
                  <timebase>24</timebase>
                  <ntsc>FALSE</ntsc>
                </rate>
                <duration>1</duration>
                <enabled>TRUE</enabled>
                <alphatype>straight</alphatype>
                <rate>
                  <timebase>24</timebase>
                  <ntsc>FALSE</ntsc>
                </rate>
                <enabled>TRUE</enabled>
                <start>625</start>
                <end>626</end>
                <file id="file-627"/>
              </clipitem>
              <clipitem frameBlend="FALSE" id="clipitem-1301">
                <name>Scene - LJ visemes.626.png</name>
                <masterclipid>masterclip-628</masterclipid>
                <rate>
                  <timebase>24</timebase>
                  <ntsc>FALSE</ntsc>
                </rate>
                <duration>1</duration>
                <enabled>TRUE</enabled>
                <alphatype>straight</alphatype>
                <rate>
                  <timebase>24</timebase>
                  <ntsc>FALSE</ntsc>
                </rate>
                <enabled>TRUE</enabled>
                <start>626</start>
                <end>627</end>
                <file id="file-628"/>
              </clipitem>
              <clipitem frameBlend="FALSE" id="clipitem-1302">
                <name>Scene - LJ visemes.627.png</name>
                <masterclipid>masterclip-629</masterclipid>
                <rate>
                  <timebase>24</timebase>
                  <ntsc>FALSE</ntsc>
                </rate>
                <duration>1</duration>
                <enabled>TRUE</enabled>
                <alphatype>straight</alphatype>
                <rate>
                  <timebase>24</timebase>
                  <ntsc>FALSE</ntsc>
                </rate>
                <enabled>TRUE</enabled>
                <start>627</start>
                <end>628</end>
                <file id="file-629"/>
              </clipitem>
              <clipitem frameBlend="FALSE" id="clipitem-1303">
                <name>Scene - LJ visemes.628.png</name>
                <masterclipid>masterclip-630</masterclipid>
                <rate>
                  <timebase>24</timebase>
                  <ntsc>FALSE</ntsc>
                </rate>
                <duration>1</duration>
                <enabled>TRUE</enabled>
                <alphatype>straight</alphatype>
                <rate>
                  <timebase>24</timebase>
                  <ntsc>FALSE</ntsc>
                </rate>
                <enabled>TRUE</enabled>
                <start>628</start>
                <end>629</end>
                <file id="file-630"/>
              </clipitem>
              <clipitem frameBlend="FALSE" id="clipitem-1304">
                <name>Scene - LJ visemes.629.png</name>
                <masterclipid>masterclip-631</masterclipid>
                <rate>
                  <timebase>24</timebase>
                  <ntsc>FALSE</ntsc>
                </rate>
                <duration>1</duration>
                <enabled>TRUE</enabled>
                <alphatype>straight</alphatype>
                <rate>
                  <timebase>24</timebase>
                  <ntsc>FALSE</ntsc>
                </rate>
                <enabled>TRUE</enabled>
                <start>629</start>
                <end>630</end>
                <file id="file-631"/>
              </clipitem>
              <clipitem frameBlend="FALSE" id="clipitem-1305">
                <name>Scene - LJ visemes.630.png</name>
                <masterclipid>masterclip-632</masterclipid>
                <rate>
                  <timebase>24</timebase>
                  <ntsc>FALSE</ntsc>
                </rate>
                <duration>1</duration>
                <enabled>TRUE</enabled>
                <alphatype>straight</alphatype>
                <rate>
                  <timebase>24</timebase>
                  <ntsc>FALSE</ntsc>
                </rate>
                <enabled>TRUE</enabled>
                <start>630</start>
                <end>631</end>
                <file id="file-632"/>
              </clipitem>
              <clipitem frameBlend="FALSE" id="clipitem-1306">
                <name>Scene - LJ visemes.631.png</name>
                <masterclipid>masterclip-633</masterclipid>
                <rate>
                  <timebase>24</timebase>
                  <ntsc>FALSE</ntsc>
                </rate>
                <duration>1</duration>
                <enabled>TRUE</enabled>
                <alphatype>straight</alphatype>
                <rate>
                  <timebase>24</timebase>
                  <ntsc>FALSE</ntsc>
                </rate>
                <enabled>TRUE</enabled>
                <start>631</start>
                <end>632</end>
                <file id="file-633"/>
              </clipitem>
              <clipitem frameBlend="FALSE" id="clipitem-1307">
                <name>Scene - LJ visemes.632.png</name>
                <masterclipid>masterclip-634</masterclipid>
                <rate>
                  <timebase>24</timebase>
                  <ntsc>FALSE</ntsc>
                </rate>
                <duration>1</duration>
                <enabled>TRUE</enabled>
                <alphatype>straight</alphatype>
                <rate>
                  <timebase>24</timebase>
                  <ntsc>FALSE</ntsc>
                </rate>
                <enabled>TRUE</enabled>
                <start>632</start>
                <end>633</end>
                <file id="file-634"/>
              </clipitem>
              <clipitem frameBlend="FALSE" id="clipitem-1308">
                <name>Scene - LJ visemes.633.png</name>
                <masterclipid>masterclip-635</masterclipid>
                <rate>
                  <timebase>24</timebase>
                  <ntsc>FALSE</ntsc>
                </rate>
                <duration>1</duration>
                <enabled>TRUE</enabled>
                <alphatype>straight</alphatype>
                <rate>
                  <timebase>24</timebase>
                  <ntsc>FALSE</ntsc>
                </rate>
                <enabled>TRUE</enabled>
                <start>633</start>
                <end>634</end>
                <file id="file-635"/>
              </clipitem>
              <clipitem frameBlend="FALSE" id="clipitem-1309">
                <name>Scene - LJ visemes.634.png</name>
                <masterclipid>masterclip-636</masterclipid>
                <rate>
                  <timebase>24</timebase>
                  <ntsc>FALSE</ntsc>
                </rate>
                <duration>1</duration>
                <enabled>TRUE</enabled>
                <alphatype>straight</alphatype>
                <rate>
                  <timebase>24</timebase>
                  <ntsc>FALSE</ntsc>
                </rate>
                <enabled>TRUE</enabled>
                <start>634</start>
                <end>635</end>
                <file id="file-636"/>
              </clipitem>
              <clipitem frameBlend="FALSE" id="clipitem-1310">
                <name>Scene - LJ visemes.635.png</name>
                <masterclipid>masterclip-637</masterclipid>
                <rate>
                  <timebase>24</timebase>
                  <ntsc>FALSE</ntsc>
                </rate>
                <duration>1</duration>
                <enabled>TRUE</enabled>
                <alphatype>straight</alphatype>
                <rate>
                  <timebase>24</timebase>
                  <ntsc>FALSE</ntsc>
                </rate>
                <enabled>TRUE</enabled>
                <start>635</start>
                <end>636</end>
                <file id="file-637"/>
              </clipitem>
              <clipitem frameBlend="FALSE" id="clipitem-1311">
                <name>Scene - LJ visemes.636.png</name>
                <masterclipid>masterclip-638</masterclipid>
                <rate>
                  <timebase>24</timebase>
                  <ntsc>FALSE</ntsc>
                </rate>
                <duration>1</duration>
                <enabled>TRUE</enabled>
                <alphatype>straight</alphatype>
                <rate>
                  <timebase>24</timebase>
                  <ntsc>FALSE</ntsc>
                </rate>
                <enabled>TRUE</enabled>
                <start>636</start>
                <end>637</end>
                <file id="file-638"/>
              </clipitem>
              <clipitem frameBlend="FALSE" id="clipitem-1312">
                <name>Scene - LJ visemes.637.png</name>
                <masterclipid>masterclip-639</masterclipid>
                <rate>
                  <timebase>24</timebase>
                  <ntsc>FALSE</ntsc>
                </rate>
                <duration>1</duration>
                <enabled>TRUE</enabled>
                <alphatype>straight</alphatype>
                <rate>
                  <timebase>24</timebase>
                  <ntsc>FALSE</ntsc>
                </rate>
                <enabled>TRUE</enabled>
                <start>637</start>
                <end>638</end>
                <file id="file-639"/>
              </clipitem>
              <clipitem frameBlend="FALSE" id="clipitem-1313">
                <name>Scene - LJ visemes.638.png</name>
                <masterclipid>masterclip-640</masterclipid>
                <rate>
                  <timebase>24</timebase>
                  <ntsc>FALSE</ntsc>
                </rate>
                <duration>1</duration>
                <enabled>TRUE</enabled>
                <alphatype>straight</alphatype>
                <rate>
                  <timebase>24</timebase>
                  <ntsc>FALSE</ntsc>
                </rate>
                <enabled>TRUE</enabled>
                <start>638</start>
                <end>639</end>
                <file id="file-640"/>
              </clipitem>
              <clipitem frameBlend="FALSE" id="clipitem-1314">
                <name>Scene - LJ visemes.639.png</name>
                <masterclipid>masterclip-641</masterclipid>
                <rate>
                  <timebase>24</timebase>
                  <ntsc>FALSE</ntsc>
                </rate>
                <duration>1</duration>
                <enabled>TRUE</enabled>
                <alphatype>straight</alphatype>
                <rate>
                  <timebase>24</timebase>
                  <ntsc>FALSE</ntsc>
                </rate>
                <enabled>TRUE</enabled>
                <start>639</start>
                <end>640</end>
                <file id="file-641"/>
              </clipitem>
              <clipitem frameBlend="FALSE" id="clipitem-1315">
                <name>Scene - LJ visemes.640.png</name>
                <masterclipid>masterclip-642</masterclipid>
                <rate>
                  <timebase>24</timebase>
                  <ntsc>FALSE</ntsc>
                </rate>
                <duration>1</duration>
                <enabled>TRUE</enabled>
                <alphatype>straight</alphatype>
                <rate>
                  <timebase>24</timebase>
                  <ntsc>FALSE</ntsc>
                </rate>
                <enabled>TRUE</enabled>
                <start>640</start>
                <end>641</end>
                <file id="file-642"/>
              </clipitem>
              <clipitem frameBlend="FALSE" id="clipitem-1316">
                <name>Scene - LJ visemes.641.png</name>
                <masterclipid>masterclip-643</masterclipid>
                <rate>
                  <timebase>24</timebase>
                  <ntsc>FALSE</ntsc>
                </rate>
                <duration>1</duration>
                <enabled>TRUE</enabled>
                <alphatype>straight</alphatype>
                <rate>
                  <timebase>24</timebase>
                  <ntsc>FALSE</ntsc>
                </rate>
                <enabled>TRUE</enabled>
                <start>641</start>
                <end>642</end>
                <file id="file-643"/>
              </clipitem>
              <clipitem frameBlend="FALSE" id="clipitem-1317">
                <name>Scene - LJ visemes.642.png</name>
                <masterclipid>masterclip-644</masterclipid>
                <rate>
                  <timebase>24</timebase>
                  <ntsc>FALSE</ntsc>
                </rate>
                <duration>1</duration>
                <enabled>TRUE</enabled>
                <alphatype>straight</alphatype>
                <rate>
                  <timebase>24</timebase>
                  <ntsc>FALSE</ntsc>
                </rate>
                <enabled>TRUE</enabled>
                <start>642</start>
                <end>643</end>
                <file id="file-644"/>
              </clipitem>
              <clipitem frameBlend="FALSE" id="clipitem-1318">
                <name>Scene - LJ visemes.643.png</name>
                <masterclipid>masterclip-645</masterclipid>
                <rate>
                  <timebase>24</timebase>
                  <ntsc>FALSE</ntsc>
                </rate>
                <duration>1</duration>
                <enabled>TRUE</enabled>
                <alphatype>straight</alphatype>
                <rate>
                  <timebase>24</timebase>
                  <ntsc>FALSE</ntsc>
                </rate>
                <enabled>TRUE</enabled>
                <start>643</start>
                <end>644</end>
                <file id="file-645"/>
              </clipitem>
              <clipitem frameBlend="FALSE" id="clipitem-1319">
                <name>Scene - LJ visemes.644.png</name>
                <masterclipid>masterclip-646</masterclipid>
                <rate>
                  <timebase>24</timebase>
                  <ntsc>FALSE</ntsc>
                </rate>
                <duration>1</duration>
                <enabled>TRUE</enabled>
                <alphatype>straight</alphatype>
                <rate>
                  <timebase>24</timebase>
                  <ntsc>FALSE</ntsc>
                </rate>
                <enabled>TRUE</enabled>
                <start>644</start>
                <end>645</end>
                <file id="file-646"/>
              </clipitem>
              <clipitem frameBlend="FALSE" id="clipitem-1320">
                <name>Scene - LJ visemes.645.png</name>
                <masterclipid>masterclip-647</masterclipid>
                <rate>
                  <timebase>24</timebase>
                  <ntsc>FALSE</ntsc>
                </rate>
                <duration>1</duration>
                <enabled>TRUE</enabled>
                <alphatype>straight</alphatype>
                <rate>
                  <timebase>24</timebase>
                  <ntsc>FALSE</ntsc>
                </rate>
                <enabled>TRUE</enabled>
                <start>645</start>
                <end>646</end>
                <file id="file-647"/>
              </clipitem>
              <clipitem frameBlend="FALSE" id="clipitem-1321">
                <name>Scene - LJ visemes.646.png</name>
                <masterclipid>masterclip-648</masterclipid>
                <rate>
                  <timebase>24</timebase>
                  <ntsc>FALSE</ntsc>
                </rate>
                <duration>1</duration>
                <enabled>TRUE</enabled>
                <alphatype>straight</alphatype>
                <rate>
                  <timebase>24</timebase>
                  <ntsc>FALSE</ntsc>
                </rate>
                <enabled>TRUE</enabled>
                <start>646</start>
                <end>647</end>
                <file id="file-648"/>
              </clipitem>
              <clipitem frameBlend="FALSE" id="clipitem-1322">
                <name>Scene - LJ visemes.647.png</name>
                <masterclipid>masterclip-649</masterclipid>
                <rate>
                  <timebase>24</timebase>
                  <ntsc>FALSE</ntsc>
                </rate>
                <duration>1</duration>
                <enabled>TRUE</enabled>
                <alphatype>straight</alphatype>
                <rate>
                  <timebase>24</timebase>
                  <ntsc>FALSE</ntsc>
                </rate>
                <enabled>TRUE</enabled>
                <start>647</start>
                <end>648</end>
                <file id="file-649"/>
              </clipitem>
              <clipitem frameBlend="FALSE" id="clipitem-1323">
                <name>Scene - LJ visemes.648.png</name>
                <masterclipid>masterclip-650</masterclipid>
                <rate>
                  <timebase>24</timebase>
                  <ntsc>FALSE</ntsc>
                </rate>
                <duration>1</duration>
                <enabled>TRUE</enabled>
                <alphatype>straight</alphatype>
                <rate>
                  <timebase>24</timebase>
                  <ntsc>FALSE</ntsc>
                </rate>
                <enabled>TRUE</enabled>
                <start>648</start>
                <end>649</end>
                <file id="file-650"/>
              </clipitem>
              <clipitem frameBlend="FALSE" id="clipitem-1324">
                <name>Scene - LJ visemes.649.png</name>
                <masterclipid>masterclip-651</masterclipid>
                <rate>
                  <timebase>24</timebase>
                  <ntsc>FALSE</ntsc>
                </rate>
                <duration>1</duration>
                <enabled>TRUE</enabled>
                <alphatype>straight</alphatype>
                <rate>
                  <timebase>24</timebase>
                  <ntsc>FALSE</ntsc>
                </rate>
                <enabled>TRUE</enabled>
                <start>649</start>
                <end>650</end>
                <file id="file-651"/>
              </clipitem>
              <clipitem frameBlend="FALSE" id="clipitem-1325">
                <name>Scene - LJ visemes.650.png</name>
                <masterclipid>masterclip-652</masterclipid>
                <rate>
                  <timebase>24</timebase>
                  <ntsc>FALSE</ntsc>
                </rate>
                <duration>1</duration>
                <enabled>TRUE</enabled>
                <alphatype>straight</alphatype>
                <rate>
                  <timebase>24</timebase>
                  <ntsc>FALSE</ntsc>
                </rate>
                <enabled>TRUE</enabled>
                <start>650</start>
                <end>651</end>
                <file id="file-652"/>
              </clipitem>
              <clipitem frameBlend="FALSE" id="clipitem-1326">
                <name>Scene - LJ visemes.651.png</name>
                <masterclipid>masterclip-653</masterclipid>
                <rate>
                  <timebase>24</timebase>
                  <ntsc>FALSE</ntsc>
                </rate>
                <duration>1</duration>
                <enabled>TRUE</enabled>
                <alphatype>straight</alphatype>
                <rate>
                  <timebase>24</timebase>
                  <ntsc>FALSE</ntsc>
                </rate>
                <enabled>TRUE</enabled>
                <start>651</start>
                <end>652</end>
                <file id="file-653"/>
              </clipitem>
              <clipitem frameBlend="FALSE" id="clipitem-1327">
                <name>Scene - LJ visemes.652.png</name>
                <masterclipid>masterclip-654</masterclipid>
                <rate>
                  <timebase>24</timebase>
                  <ntsc>FALSE</ntsc>
                </rate>
                <duration>1</duration>
                <enabled>TRUE</enabled>
                <alphatype>straight</alphatype>
                <rate>
                  <timebase>24</timebase>
                  <ntsc>FALSE</ntsc>
                </rate>
                <enabled>TRUE</enabled>
                <start>652</start>
                <end>653</end>
                <file id="file-654"/>
              </clipitem>
              <clipitem frameBlend="FALSE" id="clipitem-1328">
                <name>Scene - LJ visemes.653.png</name>
                <masterclipid>masterclip-655</masterclipid>
                <rate>
                  <timebase>24</timebase>
                  <ntsc>FALSE</ntsc>
                </rate>
                <duration>1</duration>
                <enabled>TRUE</enabled>
                <alphatype>straight</alphatype>
                <rate>
                  <timebase>24</timebase>
                  <ntsc>FALSE</ntsc>
                </rate>
                <enabled>TRUE</enabled>
                <start>653</start>
                <end>654</end>
                <file id="file-655"/>
              </clipitem>
              <clipitem frameBlend="FALSE" id="clipitem-1329">
                <name>Scene - LJ visemes.654.png</name>
                <masterclipid>masterclip-656</masterclipid>
                <rate>
                  <timebase>24</timebase>
                  <ntsc>FALSE</ntsc>
                </rate>
                <duration>1</duration>
                <enabled>TRUE</enabled>
                <alphatype>straight</alphatype>
                <rate>
                  <timebase>24</timebase>
                  <ntsc>FALSE</ntsc>
                </rate>
                <enabled>TRUE</enabled>
                <start>654</start>
                <end>655</end>
                <file id="file-656"/>
              </clipitem>
              <clipitem frameBlend="FALSE" id="clipitem-1330">
                <name>Scene - LJ visemes.655.png</name>
                <masterclipid>masterclip-657</masterclipid>
                <rate>
                  <timebase>24</timebase>
                  <ntsc>FALSE</ntsc>
                </rate>
                <duration>1</duration>
                <enabled>TRUE</enabled>
                <alphatype>straight</alphatype>
                <rate>
                  <timebase>24</timebase>
                  <ntsc>FALSE</ntsc>
                </rate>
                <enabled>TRUE</enabled>
                <start>655</start>
                <end>656</end>
                <file id="file-657"/>
              </clipitem>
              <clipitem frameBlend="FALSE" id="clipitem-1331">
                <name>Scene - LJ visemes.656.png</name>
                <masterclipid>masterclip-658</masterclipid>
                <rate>
                  <timebase>24</timebase>
                  <ntsc>FALSE</ntsc>
                </rate>
                <duration>1</duration>
                <enabled>TRUE</enabled>
                <alphatype>straight</alphatype>
                <rate>
                  <timebase>24</timebase>
                  <ntsc>FALSE</ntsc>
                </rate>
                <enabled>TRUE</enabled>
                <start>656</start>
                <end>657</end>
                <file id="file-658"/>
              </clipitem>
              <clipitem frameBlend="FALSE" id="clipitem-1332">
                <name>Scene - LJ visemes.657.png</name>
                <masterclipid>masterclip-659</masterclipid>
                <rate>
                  <timebase>24</timebase>
                  <ntsc>FALSE</ntsc>
                </rate>
                <duration>1</duration>
                <enabled>TRUE</enabled>
                <alphatype>straight</alphatype>
                <rate>
                  <timebase>24</timebase>
                  <ntsc>FALSE</ntsc>
                </rate>
                <enabled>TRUE</enabled>
                <start>657</start>
                <end>658</end>
                <file id="file-659"/>
              </clipitem>
              <clipitem frameBlend="FALSE" id="clipitem-1333">
                <name>Scene - LJ visemes.658.png</name>
                <masterclipid>masterclip-660</masterclipid>
                <rate>
                  <timebase>24</timebase>
                  <ntsc>FALSE</ntsc>
                </rate>
                <duration>1</duration>
                <enabled>TRUE</enabled>
                <alphatype>straight</alphatype>
                <rate>
                  <timebase>24</timebase>
                  <ntsc>FALSE</ntsc>
                </rate>
                <enabled>TRUE</enabled>
                <start>658</start>
                <end>659</end>
                <file id="file-660"/>
              </clipitem>
              <clipitem frameBlend="FALSE" id="clipitem-1334">
                <name>Scene - LJ visemes.659.png</name>
                <masterclipid>masterclip-661</masterclipid>
                <rate>
                  <timebase>24</timebase>
                  <ntsc>FALSE</ntsc>
                </rate>
                <duration>1</duration>
                <enabled>TRUE</enabled>
                <alphatype>straight</alphatype>
                <rate>
                  <timebase>24</timebase>
                  <ntsc>FALSE</ntsc>
                </rate>
                <enabled>TRUE</enabled>
                <start>659</start>
                <end>660</end>
                <file id="file-661"/>
              </clipitem>
              <clipitem frameBlend="FALSE" id="clipitem-1335">
                <name>Scene - LJ visemes.660.png</name>
                <masterclipid>masterclip-662</masterclipid>
                <rate>
                  <timebase>24</timebase>
                  <ntsc>FALSE</ntsc>
                </rate>
                <duration>1</duration>
                <enabled>TRUE</enabled>
                <alphatype>straight</alphatype>
                <rate>
                  <timebase>24</timebase>
                  <ntsc>FALSE</ntsc>
                </rate>
                <enabled>TRUE</enabled>
                <start>660</start>
                <end>661</end>
                <file id="file-662"/>
              </clipitem>
              <clipitem frameBlend="FALSE" id="clipitem-1336">
                <name>Scene - LJ visemes.661.png</name>
                <masterclipid>masterclip-663</masterclipid>
                <rate>
                  <timebase>24</timebase>
                  <ntsc>FALSE</ntsc>
                </rate>
                <duration>1</duration>
                <enabled>TRUE</enabled>
                <alphatype>straight</alphatype>
                <rate>
                  <timebase>24</timebase>
                  <ntsc>FALSE</ntsc>
                </rate>
                <enabled>TRUE</enabled>
                <start>661</start>
                <end>662</end>
                <file id="file-663"/>
              </clipitem>
              <clipitem frameBlend="FALSE" id="clipitem-1337">
                <name>Scene - LJ visemes.662.png</name>
                <masterclipid>masterclip-664</masterclipid>
                <rate>
                  <timebase>24</timebase>
                  <ntsc>FALSE</ntsc>
                </rate>
                <duration>1</duration>
                <enabled>TRUE</enabled>
                <alphatype>straight</alphatype>
                <rate>
                  <timebase>24</timebase>
                  <ntsc>FALSE</ntsc>
                </rate>
                <enabled>TRUE</enabled>
                <start>662</start>
                <end>663</end>
                <file id="file-664"/>
              </clipitem>
              <clipitem frameBlend="FALSE" id="clipitem-1338">
                <name>Scene - LJ visemes.663.png</name>
                <masterclipid>masterclip-665</masterclipid>
                <rate>
                  <timebase>24</timebase>
                  <ntsc>FALSE</ntsc>
                </rate>
                <duration>1</duration>
                <enabled>TRUE</enabled>
                <alphatype>straight</alphatype>
                <rate>
                  <timebase>24</timebase>
                  <ntsc>FALSE</ntsc>
                </rate>
                <enabled>TRUE</enabled>
                <start>663</start>
                <end>664</end>
                <file id="file-665"/>
              </clipitem>
              <clipitem frameBlend="FALSE" id="clipitem-1339">
                <name>Scene - LJ visemes.664.png</name>
                <masterclipid>masterclip-666</masterclipid>
                <rate>
                  <timebase>24</timebase>
                  <ntsc>FALSE</ntsc>
                </rate>
                <duration>1</duration>
                <enabled>TRUE</enabled>
                <alphatype>straight</alphatype>
                <rate>
                  <timebase>24</timebase>
                  <ntsc>FALSE</ntsc>
                </rate>
                <enabled>TRUE</enabled>
                <start>664</start>
                <end>665</end>
                <file id="file-666"/>
              </clipitem>
              <clipitem frameBlend="FALSE" id="clipitem-1340">
                <name>Scene - LJ visemes.665.png</name>
                <masterclipid>masterclip-667</masterclipid>
                <rate>
                  <timebase>24</timebase>
                  <ntsc>FALSE</ntsc>
                </rate>
                <duration>1</duration>
                <enabled>TRUE</enabled>
                <alphatype>straight</alphatype>
                <rate>
                  <timebase>24</timebase>
                  <ntsc>FALSE</ntsc>
                </rate>
                <enabled>TRUE</enabled>
                <start>665</start>
                <end>666</end>
                <file id="file-667"/>
              </clipitem>
              <clipitem frameBlend="FALSE" id="clipitem-1341">
                <name>Scene - LJ visemes.666.png</name>
                <masterclipid>masterclip-668</masterclipid>
                <rate>
                  <timebase>24</timebase>
                  <ntsc>FALSE</ntsc>
                </rate>
                <duration>1</duration>
                <enabled>TRUE</enabled>
                <alphatype>straight</alphatype>
                <rate>
                  <timebase>24</timebase>
                  <ntsc>FALSE</ntsc>
                </rate>
                <enabled>TRUE</enabled>
                <start>666</start>
                <end>667</end>
                <file id="file-668"/>
              </clipitem>
              <clipitem frameBlend="FALSE" id="clipitem-1342">
                <name>Scene - LJ visemes.667.png</name>
                <masterclipid>masterclip-669</masterclipid>
                <rate>
                  <timebase>24</timebase>
                  <ntsc>FALSE</ntsc>
                </rate>
                <duration>1</duration>
                <enabled>TRUE</enabled>
                <alphatype>straight</alphatype>
                <rate>
                  <timebase>24</timebase>
                  <ntsc>FALSE</ntsc>
                </rate>
                <enabled>TRUE</enabled>
                <start>667</start>
                <end>668</end>
                <file id="file-669"/>
              </clipitem>
              <clipitem frameBlend="FALSE" id="clipitem-1343">
                <name>Scene - LJ visemes.668.png</name>
                <masterclipid>masterclip-670</masterclipid>
                <rate>
                  <timebase>24</timebase>
                  <ntsc>FALSE</ntsc>
                </rate>
                <duration>1</duration>
                <enabled>TRUE</enabled>
                <alphatype>straight</alphatype>
                <rate>
                  <timebase>24</timebase>
                  <ntsc>FALSE</ntsc>
                </rate>
                <enabled>TRUE</enabled>
                <start>668</start>
                <end>669</end>
                <file id="file-670"/>
              </clipitem>
              <clipitem frameBlend="FALSE" id="clipitem-1344">
                <name>Scene - LJ visemes.669.png</name>
                <masterclipid>masterclip-671</masterclipid>
                <rate>
                  <timebase>24</timebase>
                  <ntsc>FALSE</ntsc>
                </rate>
                <duration>1</duration>
                <enabled>TRUE</enabled>
                <alphatype>straight</alphatype>
                <rate>
                  <timebase>24</timebase>
                  <ntsc>FALSE</ntsc>
                </rate>
                <enabled>TRUE</enabled>
                <start>669</start>
                <end>670</end>
                <file id="file-671"/>
              </clipitem>
              <clipitem frameBlend="FALSE" id="clipitem-1345">
                <name>Scene - LJ visemes.670.png</name>
                <masterclipid>masterclip-672</masterclipid>
                <rate>
                  <timebase>24</timebase>
                  <ntsc>FALSE</ntsc>
                </rate>
                <duration>1</duration>
                <enabled>TRUE</enabled>
                <alphatype>straight</alphatype>
                <rate>
                  <timebase>24</timebase>
                  <ntsc>FALSE</ntsc>
                </rate>
                <enabled>TRUE</enabled>
                <start>670</start>
                <end>671</end>
                <file id="file-672"/>
              </clipitem>
              <clipitem frameBlend="FALSE" id="clipitem-1346">
                <name>Scene - LJ visemes.671.png</name>
                <masterclipid>masterclip-673</masterclipid>
                <rate>
                  <timebase>24</timebase>
                  <ntsc>FALSE</ntsc>
                </rate>
                <duration>1</duration>
                <enabled>TRUE</enabled>
                <alphatype>straight</alphatype>
                <rate>
                  <timebase>24</timebase>
                  <ntsc>FALSE</ntsc>
                </rate>
                <enabled>TRUE</enabled>
                <start>671</start>
                <end>672</end>
                <file id="file-673"/>
              </clipitem>
            </track>
            <format>
              <samplecharacteristics>
                <anamorphic>FALSE</anamorphic>
                <pixelaspectratio>square</pixelaspectratio>
                <fielddominance>none</fielddominance>
                <width>1920</width>
                <height>1080</height>
                <rate>
                  <timebase>24</timebase>
                  <ntsc>FALSE</ntsc>
                </rate>
              </samplecharacteristics>
            </format>
          </video>
          <audio>
            <numOutputChannels>2</numOutputChannels>
            <track frameBlend="FALSE" premiereChannelType="Stereo">
              <clipitem frameBlend="FALSE" id="clipitem-1" premiereChannelType="stereo">
                <name>Scene - LJ visemes.wav</name>
                <masterclipid>masterclip-1</masterclipid>
                <rate>
                  <timebase>24</timebase>
                  <ntsc>FALSE</ntsc>
                </rate>
                <start>0</start>
                <end>672</end>
                <in>0</in>
                <out>672</out>
                <sourcetrack>
                  <mediatype>audio</mediatype>
                  <trackindex>1</trackindex>
                </sourcetrack>
                <link>
                  <linkclipref>clipitem-1</linkclipref>
                  <mediatype>audio</mediatype>
                  <trackindex>1</trackindex>
                  <clipindex>1</clipindex>
                  <groupindex>1</groupindex>
                </link>
                <link>
                  <linkclipref>clipitem-2</linkclipref>
                  <mediatype>audio</mediatype>
                  <trackindex>2</trackindex>
                  <clipindex>1</clipindex>
                  <groupindex>1</groupindex>
                </link>
                <file id="file-1"/>
              </clipitem>
              <enabled>TRUE</enabled>
              <outputchannelindex>1</outputchannelindex>
            </track>
            <track frameBlend="FALSE" premiereChannelType="Stereo">
              <clipitem frameBlend="FALSE" id="clipitem-2" premiereChannelType="stereo">
                <name>Scene - LJ visemes.wav</name>
                <masterclipid>masterclip-1</masterclipid>
                <rate>
                  <timebase>24</timebase>
                  <ntsc>FALSE</ntsc>
                </rate>
                <start>0</start>
                <end>672</end>
                <in>0</in>
                <out>672</out>
                <sourcetrack>
                  <mediatype>audio</mediatype>
                  <trackindex>2</trackindex>
                </sourcetrack>
                <link>
                  <linkclipref>clipitem-1</linkclipref>
                  <mediatype>audio</mediatype>
                  <trackindex>1</trackindex>
                  <clipindex>1</clipindex>
                  <groupindex>1</groupindex>
                </link>
                <link>
                  <linkclipref>clipitem-2</linkclipref>
                  <mediatype>audio</mediatype>
                  <trackindex>2</trackindex>
                  <clipindex>1</clipindex>
                  <groupindex>1</groupindex>
                </link>
                <file id="file-1"/>
              </clipitem>
              <enabled>TRUE</enabled>
              <outputchannelindex>2</outputchannelindex>
            </track>
            <outputs>
              <group>
                <index>0</index>
                <numchannels>1</numchannels>
                <downmix>0</downmix>
                <group>
                  <index>0</index>
                </group>
              </group>
              <group>
                <index>1</index>
                <numchannels>1</numchannels>
                <downmix>0</downmix>
                <group>
                  <index>1</index>
                </group>
              </group>
            </outputs>
            <format>
              <samplecharacteristics>
                <samplerate>48000</samplerate>
                <depth>32</depth>
              </samplecharacteristics>
            </format>
          </audio>
        </media>
        <timecode>
          <rate>
            <timebase>24</timebase>
            <ntsc>FALSE</ntsc>
          </rate>
        </timecode>
      </sequence>
      <bin>
        <name>Scene - LJ visemes Bin</name>
        <children>
          <clip explodedTracks="true" frameBlend="FALSE" id="masterclip-1">
            <uuid>fed33c1c-69bb-4ccc-8360-f371978411c2</uuid>
            <masterclipid>masterclip-1</masterclipid>
            <ismasterclip>TRUE</ismasterclip>
            <duration>672</duration>
            <in>0</in>
            <out>672</out>
            <name>Scene - LJ visemes.wav</name>
            <rate>
              <timebase>24</timebase>
              <ntsc>FALSE</ntsc>
            </rate>
            <media>
              <audio>
                <track>
                  <clipitem frameBlend="FALSE" id="clipitem-1">
                    <name>Scene - LJ visemes.wav</name>
                    <masterclipid>masterclip-1</masterclipid>
                    <rate>
                      <timebase>24</timebase>
                      <ntsc>FALSE</ntsc>
                    </rate>
                    <file id="file-1">
                      <name>Scene - LJ visemes.wav</name>
                      <pathurl>file://localhost/Users/bot/Documents/CREATE/Character Animator/LJ visemes CH2AE/demo/Scene - LJ visemes/Scene - LJ visemes.wav</pathurl>
                      <rate>
                        <timebase>24</timebase>
                        <ntsc>FALSE</ntsc>
                      </rate>
                      <duration>672</duration>
                      <timecode>
                        <rate>
                          <timebase>24</timebase>
                          <ntsc>FALSE</ntsc>
                        </rate>
                      </timecode>
                      <media>
                        <audio>
                          <samplecharacteristics>
                            <samplerate>48000</samplerate>
                            <depth>32</depth>
                          </samplecharacteristics>
                          <channelcount>2</channelcount>
                        </audio>
                      </media>
                    </file>
                    <sourcetrack>
                      <mediatype>audio</mediatype>
                      <trackindex>1</trackindex>
                    </sourcetrack>
                    <link>
                      <linkclipref>clipitem-1</linkclipref>
                      <mediatype>audio</mediatype>
                      <trackindex>1</trackindex>
                      <clipindex>1</clipindex>
                      <groupindex>1</groupindex>
                    </link>
                    <link>
                      <linkclipref>clipitem-2</linkclipref>
                      <mediatype>audio</mediatype>
                      <trackindex>2</trackindex>
                      <clipindex>1</clipindex>
                      <groupindex>1</groupindex>
                    </link>
                  </clipitem>
                </track>
                <track>
                  <clipitem frameBlend="FALSE" id="clipitem-2">
                    <name>Scene - LJ visemes.wav</name>
                    <masterclipid>masterclip-1</masterclipid>
                    <rate>
                      <timebase>24</timebase>
                      <ntsc>FALSE</ntsc>
                    </rate>
                    <sourcetrack>
                      <mediatype>audio</mediatype>
                      <trackindex>2</trackindex>
                    </sourcetrack>
                    <link>
                      <linkclipref>clipitem-1</linkclipref>
                      <mediatype>audio</mediatype>
                      <trackindex>1</trackindex>
                      <clipindex>1</clipindex>
                      <groupindex>1</groupindex>
                    </link>
                    <link>
                      <linkclipref>clipitem-2</linkclipref>
                      <mediatype>audio</mediatype>
                      <trackindex>2</trackindex>
                      <clipindex>1</clipindex>
                      <groupindex>1</groupindex>
                    </link>
                  </clipitem>
                </track>
              </audio>
            </media>
          </clip>
          <clip explodedTracks="true" frameBlend="FALSE" id="masterclip-2">
            <uuid>d9b81367-0e28-4d5b-9307-cd3d1174cc61</uuid>
            <masterclipid>masterclip-2</masterclipid>
            <ismasterclip>TRUE</ismasterclip>
            <duration>672</duration>
            <in>0</in>
            <out>672</out>
            <name>Scene - LJ visemes.000.png</name>
            <rate>
              <timebase>24</timebase>
              <ntsc>FALSE</ntsc>
            </rate>
            <media>
              <video>
                <track>
                  <clipitem frameBlend="FALSE" id="clipitem-3">
                    <name>Scene - LJ visemes.000.png</name>
                    <masterclipid>masterclip-2</masterclipid>
                    <rate>
                      <timebase>24</timebase>
                      <ntsc>FALSE</ntsc>
                    </rate>
                    <alphatype>straight</alphatype>
                    <pixelaspectratio>square</pixelaspectratio>
                    <anamorphic>FALSE</anamorphic>
                    <file id="file-2">
                      <name>Scene - LJ visemes.000.png</name>
                      <pathurl>file://localhost/Users/bot/Documents/CREATE/Character Animator/LJ visemes CH2AE/demo/Scene - LJ visemes/Scene - LJ visemes.000.png</pathurl>
                      <rate>
                        <timebase>24</timebase>
                        <ntsc>FALSE</ntsc>
                      </rate>
                      <duration>672</duration>
                      <timecode>
                        <rate>
                          <timebase>24</timebase>
                          <ntsc>FALSE</ntsc>
                        </rate>
                      </timecode>
                      <media>
                        <video>
                          <duration>1</duration>
                          <samplecharacteristics>
                            <anamorphic>FALSE</anamorphic>
                            <pixelaspectratio>square</pixelaspectratio>
                            <fielddominance>none</fielddominance>
                            <width>1920</width>
                            <height>1080</height>
                          </samplecharacteristics>
                        </video>
                      </media>
                    </file>
                  </clipitem>
                </track>
              </video>
            </media>
          </clip>
          <clip explodedTracks="true" frameBlend="FALSE" id="masterclip-3">
            <uuid>7aed0d52-1b13-4734-8bfc-ca4240b740f1</uuid>
            <masterclipid>masterclip-3</masterclipid>
            <ismasterclip>TRUE</ismasterclip>
            <duration>672</duration>
            <in>0</in>
            <out>672</out>
            <name>Scene - LJ visemes.001.png</name>
            <rate>
              <timebase>24</timebase>
              <ntsc>FALSE</ntsc>
            </rate>
            <media>
              <video>
                <track>
                  <clipitem frameBlend="FALSE" id="clipitem-4">
                    <name>Scene - LJ visemes.001.png</name>
                    <masterclipid>masterclip-3</masterclipid>
                    <rate>
                      <timebase>24</timebase>
                      <ntsc>FALSE</ntsc>
                    </rate>
                    <alphatype>straight</alphatype>
                    <pixelaspectratio>square</pixelaspectratio>
                    <anamorphic>FALSE</anamorphic>
                    <file id="file-3">
                      <name>Scene - LJ visemes.001.png</name>
                      <pathurl>file://localhost/Users/bot/Documents/CREATE/Character Animator/LJ visemes CH2AE/demo/Scene - LJ visemes/Scene - LJ visemes.001.png</pathurl>
                      <rate>
                        <timebase>24</timebase>
                        <ntsc>FALSE</ntsc>
                      </rate>
                      <duration>672</duration>
                      <timecode>
                        <rate>
                          <timebase>24</timebase>
                          <ntsc>FALSE</ntsc>
                        </rate>
                      </timecode>
                      <media>
                        <video>
                          <duration>1</duration>
                          <samplecharacteristics>
                            <anamorphic>FALSE</anamorphic>
                            <pixelaspectratio>square</pixelaspectratio>
                            <fielddominance>none</fielddominance>
                            <width>1920</width>
                            <height>1080</height>
                          </samplecharacteristics>
                        </video>
                      </media>
                    </file>
                  </clipitem>
                </track>
              </video>
            </media>
          </clip>
          <clip explodedTracks="true" frameBlend="FALSE" id="masterclip-4">
            <uuid>584f6800-4ea6-44e5-9727-9b7dc46fad48</uuid>
            <masterclipid>masterclip-4</masterclipid>
            <ismasterclip>TRUE</ismasterclip>
            <duration>672</duration>
            <in>0</in>
            <out>672</out>
            <name>Scene - LJ visemes.002.png</name>
            <rate>
              <timebase>24</timebase>
              <ntsc>FALSE</ntsc>
            </rate>
            <media>
              <video>
                <track>
                  <clipitem frameBlend="FALSE" id="clipitem-5">
                    <name>Scene - LJ visemes.002.png</name>
                    <masterclipid>masterclip-4</masterclipid>
                    <rate>
                      <timebase>24</timebase>
                      <ntsc>FALSE</ntsc>
                    </rate>
                    <alphatype>straight</alphatype>
                    <pixelaspectratio>square</pixelaspectratio>
                    <anamorphic>FALSE</anamorphic>
                    <file id="file-4">
                      <name>Scene - LJ visemes.002.png</name>
                      <pathurl>file://localhost/Users/bot/Documents/CREATE/Character Animator/LJ visemes CH2AE/demo/Scene - LJ visemes/Scene - LJ visemes.002.png</pathurl>
                      <rate>
                        <timebase>24</timebase>
                        <ntsc>FALSE</ntsc>
                      </rate>
                      <duration>672</duration>
                      <timecode>
                        <rate>
                          <timebase>24</timebase>
                          <ntsc>FALSE</ntsc>
                        </rate>
                      </timecode>
                      <media>
                        <video>
                          <duration>1</duration>
                          <samplecharacteristics>
                            <anamorphic>FALSE</anamorphic>
                            <pixelaspectratio>square</pixelaspectratio>
                            <fielddominance>none</fielddominance>
                            <width>1920</width>
                            <height>1080</height>
                          </samplecharacteristics>
                        </video>
                      </media>
                    </file>
                  </clipitem>
                </track>
              </video>
            </media>
          </clip>
          <clip explodedTracks="true" frameBlend="FALSE" id="masterclip-5">
            <uuid>bb26f790-73fe-496e-8b1b-cd8b73726bc7</uuid>
            <masterclipid>masterclip-5</masterclipid>
            <ismasterclip>TRUE</ismasterclip>
            <duration>672</duration>
            <in>0</in>
            <out>672</out>
            <name>Scene - LJ visemes.003.png</name>
            <rate>
              <timebase>24</timebase>
              <ntsc>FALSE</ntsc>
            </rate>
            <media>
              <video>
                <track>
                  <clipitem frameBlend="FALSE" id="clipitem-6">
                    <name>Scene - LJ visemes.003.png</name>
                    <masterclipid>masterclip-5</masterclipid>
                    <rate>
                      <timebase>24</timebase>
                      <ntsc>FALSE</ntsc>
                    </rate>
                    <alphatype>straight</alphatype>
                    <pixelaspectratio>square</pixelaspectratio>
                    <anamorphic>FALSE</anamorphic>
                    <file id="file-5">
                      <name>Scene - LJ visemes.003.png</name>
                      <pathurl>file://localhost/Users/bot/Documents/CREATE/Character Animator/LJ visemes CH2AE/demo/Scene - LJ visemes/Scene - LJ visemes.003.png</pathurl>
                      <rate>
                        <timebase>24</timebase>
                        <ntsc>FALSE</ntsc>
                      </rate>
                      <duration>672</duration>
                      <timecode>
                        <rate>
                          <timebase>24</timebase>
                          <ntsc>FALSE</ntsc>
                        </rate>
                      </timecode>
                      <media>
                        <video>
                          <duration>1</duration>
                          <samplecharacteristics>
                            <anamorphic>FALSE</anamorphic>
                            <pixelaspectratio>square</pixelaspectratio>
                            <fielddominance>none</fielddominance>
                            <width>1920</width>
                            <height>1080</height>
                          </samplecharacteristics>
                        </video>
                      </media>
                    </file>
                  </clipitem>
                </track>
              </video>
            </media>
          </clip>
          <clip explodedTracks="true" frameBlend="FALSE" id="masterclip-6">
            <uuid>a2cebd88-1fa4-49ce-aeb8-0261ddf1808b</uuid>
            <masterclipid>masterclip-6</masterclipid>
            <ismasterclip>TRUE</ismasterclip>
            <duration>672</duration>
            <in>0</in>
            <out>672</out>
            <name>Scene - LJ visemes.004.png</name>
            <rate>
              <timebase>24</timebase>
              <ntsc>FALSE</ntsc>
            </rate>
            <media>
              <video>
                <track>
                  <clipitem frameBlend="FALSE" id="clipitem-7">
                    <name>Scene - LJ visemes.004.png</name>
                    <masterclipid>masterclip-6</masterclipid>
                    <rate>
                      <timebase>24</timebase>
                      <ntsc>FALSE</ntsc>
                    </rate>
                    <alphatype>straight</alphatype>
                    <pixelaspectratio>square</pixelaspectratio>
                    <anamorphic>FALSE</anamorphic>
                    <file id="file-6">
                      <name>Scene - LJ visemes.004.png</name>
                      <pathurl>file://localhost/Users/bot/Documents/CREATE/Character Animator/LJ visemes CH2AE/demo/Scene - LJ visemes/Scene - LJ visemes.004.png</pathurl>
                      <rate>
                        <timebase>24</timebase>
                        <ntsc>FALSE</ntsc>
                      </rate>
                      <duration>672</duration>
                      <timecode>
                        <rate>
                          <timebase>24</timebase>
                          <ntsc>FALSE</ntsc>
                        </rate>
                      </timecode>
                      <media>
                        <video>
                          <duration>1</duration>
                          <samplecharacteristics>
                            <anamorphic>FALSE</anamorphic>
                            <pixelaspectratio>square</pixelaspectratio>
                            <fielddominance>none</fielddominance>
                            <width>1920</width>
                            <height>1080</height>
                          </samplecharacteristics>
                        </video>
                      </media>
                    </file>
                  </clipitem>
                </track>
              </video>
            </media>
          </clip>
          <clip explodedTracks="true" frameBlend="FALSE" id="masterclip-7">
            <uuid>f6544534-a86b-4f9b-a5b8-5acc944264e6</uuid>
            <masterclipid>masterclip-7</masterclipid>
            <ismasterclip>TRUE</ismasterclip>
            <duration>672</duration>
            <in>0</in>
            <out>672</out>
            <name>Scene - LJ visemes.005.png</name>
            <rate>
              <timebase>24</timebase>
              <ntsc>FALSE</ntsc>
            </rate>
            <media>
              <video>
                <track>
                  <clipitem frameBlend="FALSE" id="clipitem-8">
                    <name>Scene - LJ visemes.005.png</name>
                    <masterclipid>masterclip-7</masterclipid>
                    <rate>
                      <timebase>24</timebase>
                      <ntsc>FALSE</ntsc>
                    </rate>
                    <alphatype>straight</alphatype>
                    <pixelaspectratio>square</pixelaspectratio>
                    <anamorphic>FALSE</anamorphic>
                    <file id="file-7">
                      <name>Scene - LJ visemes.005.png</name>
                      <pathurl>file://localhost/Users/bot/Documents/CREATE/Character Animator/LJ visemes CH2AE/demo/Scene - LJ visemes/Scene - LJ visemes.005.png</pathurl>
                      <rate>
                        <timebase>24</timebase>
                        <ntsc>FALSE</ntsc>
                      </rate>
                      <duration>672</duration>
                      <timecode>
                        <rate>
                          <timebase>24</timebase>
                          <ntsc>FALSE</ntsc>
                        </rate>
                      </timecode>
                      <media>
                        <video>
                          <duration>1</duration>
                          <samplecharacteristics>
                            <anamorphic>FALSE</anamorphic>
                            <pixelaspectratio>square</pixelaspectratio>
                            <fielddominance>none</fielddominance>
                            <width>1920</width>
                            <height>1080</height>
                          </samplecharacteristics>
                        </video>
                      </media>
                    </file>
                  </clipitem>
                </track>
              </video>
            </media>
          </clip>
          <clip explodedTracks="true" frameBlend="FALSE" id="masterclip-8">
            <uuid>a551bf2e-09fa-4be0-89af-e4530cae90a6</uuid>
            <masterclipid>masterclip-8</masterclipid>
            <ismasterclip>TRUE</ismasterclip>
            <duration>672</duration>
            <in>0</in>
            <out>672</out>
            <name>Scene - LJ visemes.006.png</name>
            <rate>
              <timebase>24</timebase>
              <ntsc>FALSE</ntsc>
            </rate>
            <media>
              <video>
                <track>
                  <clipitem frameBlend="FALSE" id="clipitem-9">
                    <name>Scene - LJ visemes.006.png</name>
                    <masterclipid>masterclip-8</masterclipid>
                    <rate>
                      <timebase>24</timebase>
                      <ntsc>FALSE</ntsc>
                    </rate>
                    <alphatype>straight</alphatype>
                    <pixelaspectratio>square</pixelaspectratio>
                    <anamorphic>FALSE</anamorphic>
                    <file id="file-8">
                      <name>Scene - LJ visemes.006.png</name>
                      <pathurl>file://localhost/Users/bot/Documents/CREATE/Character Animator/LJ visemes CH2AE/demo/Scene - LJ visemes/Scene - LJ visemes.006.png</pathurl>
                      <rate>
                        <timebase>24</timebase>
                        <ntsc>FALSE</ntsc>
                      </rate>
                      <duration>672</duration>
                      <timecode>
                        <rate>
                          <timebase>24</timebase>
                          <ntsc>FALSE</ntsc>
                        </rate>
                      </timecode>
                      <media>
                        <video>
                          <duration>1</duration>
                          <samplecharacteristics>
                            <anamorphic>FALSE</anamorphic>
                            <pixelaspectratio>square</pixelaspectratio>
                            <fielddominance>none</fielddominance>
                            <width>1920</width>
                            <height>1080</height>
                          </samplecharacteristics>
                        </video>
                      </media>
                    </file>
                  </clipitem>
                </track>
              </video>
            </media>
          </clip>
          <clip explodedTracks="true" frameBlend="FALSE" id="masterclip-9">
            <uuid>9b14769a-d6e6-4b51-8a8a-9dc63bcc4531</uuid>
            <masterclipid>masterclip-9</masterclipid>
            <ismasterclip>TRUE</ismasterclip>
            <duration>672</duration>
            <in>0</in>
            <out>672</out>
            <name>Scene - LJ visemes.007.png</name>
            <rate>
              <timebase>24</timebase>
              <ntsc>FALSE</ntsc>
            </rate>
            <media>
              <video>
                <track>
                  <clipitem frameBlend="FALSE" id="clipitem-10">
                    <name>Scene - LJ visemes.007.png</name>
                    <masterclipid>masterclip-9</masterclipid>
                    <rate>
                      <timebase>24</timebase>
                      <ntsc>FALSE</ntsc>
                    </rate>
                    <alphatype>straight</alphatype>
                    <pixelaspectratio>square</pixelaspectratio>
                    <anamorphic>FALSE</anamorphic>
                    <file id="file-9">
                      <name>Scene - LJ visemes.007.png</name>
                      <pathurl>file://localhost/Users/bot/Documents/CREATE/Character Animator/LJ visemes CH2AE/demo/Scene - LJ visemes/Scene - LJ visemes.007.png</pathurl>
                      <rate>
                        <timebase>24</timebase>
                        <ntsc>FALSE</ntsc>
                      </rate>
                      <duration>672</duration>
                      <timecode>
                        <rate>
                          <timebase>24</timebase>
                          <ntsc>FALSE</ntsc>
                        </rate>
                      </timecode>
                      <media>
                        <video>
                          <duration>1</duration>
                          <samplecharacteristics>
                            <anamorphic>FALSE</anamorphic>
                            <pixelaspectratio>square</pixelaspectratio>
                            <fielddominance>none</fielddominance>
                            <width>1920</width>
                            <height>1080</height>
                          </samplecharacteristics>
                        </video>
                      </media>
                    </file>
                  </clipitem>
                </track>
              </video>
            </media>
          </clip>
          <clip explodedTracks="true" frameBlend="FALSE" id="masterclip-10">
            <uuid>8c1d0707-60ce-4e56-9f5b-77405485eea6</uuid>
            <masterclipid>masterclip-10</masterclipid>
            <ismasterclip>TRUE</ismasterclip>
            <duration>672</duration>
            <in>0</in>
            <out>672</out>
            <name>Scene - LJ visemes.008.png</name>
            <rate>
              <timebase>24</timebase>
              <ntsc>FALSE</ntsc>
            </rate>
            <media>
              <video>
                <track>
                  <clipitem frameBlend="FALSE" id="clipitem-11">
                    <name>Scene - LJ visemes.008.png</name>
                    <masterclipid>masterclip-10</masterclipid>
                    <rate>
                      <timebase>24</timebase>
                      <ntsc>FALSE</ntsc>
                    </rate>
                    <alphatype>straight</alphatype>
                    <pixelaspectratio>square</pixelaspectratio>
                    <anamorphic>FALSE</anamorphic>
                    <file id="file-10">
                      <name>Scene - LJ visemes.008.png</name>
                      <pathurl>file://localhost/Users/bot/Documents/CREATE/Character Animator/LJ visemes CH2AE/demo/Scene - LJ visemes/Scene - LJ visemes.008.png</pathurl>
                      <rate>
                        <timebase>24</timebase>
                        <ntsc>FALSE</ntsc>
                      </rate>
                      <duration>672</duration>
                      <timecode>
                        <rate>
                          <timebase>24</timebase>
                          <ntsc>FALSE</ntsc>
                        </rate>
                      </timecode>
                      <media>
                        <video>
                          <duration>1</duration>
                          <samplecharacteristics>
                            <anamorphic>FALSE</anamorphic>
                            <pixelaspectratio>square</pixelaspectratio>
                            <fielddominance>none</fielddominance>
                            <width>1920</width>
                            <height>1080</height>
                          </samplecharacteristics>
                        </video>
                      </media>
                    </file>
                  </clipitem>
                </track>
              </video>
            </media>
          </clip>
          <clip explodedTracks="true" frameBlend="FALSE" id="masterclip-11">
            <uuid>63fa5296-114e-4eb2-a9f8-97d55123b4c0</uuid>
            <masterclipid>masterclip-11</masterclipid>
            <ismasterclip>TRUE</ismasterclip>
            <duration>672</duration>
            <in>0</in>
            <out>672</out>
            <name>Scene - LJ visemes.009.png</name>
            <rate>
              <timebase>24</timebase>
              <ntsc>FALSE</ntsc>
            </rate>
            <media>
              <video>
                <track>
                  <clipitem frameBlend="FALSE" id="clipitem-12">
                    <name>Scene - LJ visemes.009.png</name>
                    <masterclipid>masterclip-11</masterclipid>
                    <rate>
                      <timebase>24</timebase>
                      <ntsc>FALSE</ntsc>
                    </rate>
                    <alphatype>straight</alphatype>
                    <pixelaspectratio>square</pixelaspectratio>
                    <anamorphic>FALSE</anamorphic>
                    <file id="file-11">
                      <name>Scene - LJ visemes.009.png</name>
                      <pathurl>file://localhost/Users/bot/Documents/CREATE/Character Animator/LJ visemes CH2AE/demo/Scene - LJ visemes/Scene - LJ visemes.009.png</pathurl>
                      <rate>
                        <timebase>24</timebase>
                        <ntsc>FALSE</ntsc>
                      </rate>
                      <duration>672</duration>
                      <timecode>
                        <rate>
                          <timebase>24</timebase>
                          <ntsc>FALSE</ntsc>
                        </rate>
                      </timecode>
                      <media>
                        <video>
                          <duration>1</duration>
                          <samplecharacteristics>
                            <anamorphic>FALSE</anamorphic>
                            <pixelaspectratio>square</pixelaspectratio>
                            <fielddominance>none</fielddominance>
                            <width>1920</width>
                            <height>1080</height>
                          </samplecharacteristics>
                        </video>
                      </media>
                    </file>
                  </clipitem>
                </track>
              </video>
            </media>
          </clip>
          <clip explodedTracks="true" frameBlend="FALSE" id="masterclip-12">
            <uuid>5f04c87b-5dc9-4ab1-8d69-229d7095820d</uuid>
            <masterclipid>masterclip-12</masterclipid>
            <ismasterclip>TRUE</ismasterclip>
            <duration>672</duration>
            <in>0</in>
            <out>672</out>
            <name>Scene - LJ visemes.010.png</name>
            <rate>
              <timebase>24</timebase>
              <ntsc>FALSE</ntsc>
            </rate>
            <media>
              <video>
                <track>
                  <clipitem frameBlend="FALSE" id="clipitem-13">
                    <name>Scene - LJ visemes.010.png</name>
                    <masterclipid>masterclip-12</masterclipid>
                    <rate>
                      <timebase>24</timebase>
                      <ntsc>FALSE</ntsc>
                    </rate>
                    <alphatype>straight</alphatype>
                    <pixelaspectratio>square</pixelaspectratio>
                    <anamorphic>FALSE</anamorphic>
                    <file id="file-12">
                      <name>Scene - LJ visemes.010.png</name>
                      <pathurl>file://localhost/Users/bot/Documents/CREATE/Character Animator/LJ visemes CH2AE/demo/Scene - LJ visemes/Scene - LJ visemes.010.png</pathurl>
                      <rate>
                        <timebase>24</timebase>
                        <ntsc>FALSE</ntsc>
                      </rate>
                      <duration>672</duration>
                      <timecode>
                        <rate>
                          <timebase>24</timebase>
                          <ntsc>FALSE</ntsc>
                        </rate>
                      </timecode>
                      <media>
                        <video>
                          <duration>1</duration>
                          <samplecharacteristics>
                            <anamorphic>FALSE</anamorphic>
                            <pixelaspectratio>square</pixelaspectratio>
                            <fielddominance>none</fielddominance>
                            <width>1920</width>
                            <height>1080</height>
                          </samplecharacteristics>
                        </video>
                      </media>
                    </file>
                  </clipitem>
                </track>
              </video>
            </media>
          </clip>
          <clip explodedTracks="true" frameBlend="FALSE" id="masterclip-13">
            <uuid>4c0ccc60-1931-436e-9eb4-ad52f23b9f55</uuid>
            <masterclipid>masterclip-13</masterclipid>
            <ismasterclip>TRUE</ismasterclip>
            <duration>672</duration>
            <in>0</in>
            <out>672</out>
            <name>Scene - LJ visemes.011.png</name>
            <rate>
              <timebase>24</timebase>
              <ntsc>FALSE</ntsc>
            </rate>
            <media>
              <video>
                <track>
                  <clipitem frameBlend="FALSE" id="clipitem-14">
                    <name>Scene - LJ visemes.011.png</name>
                    <masterclipid>masterclip-13</masterclipid>
                    <rate>
                      <timebase>24</timebase>
                      <ntsc>FALSE</ntsc>
                    </rate>
                    <alphatype>straight</alphatype>
                    <pixelaspectratio>square</pixelaspectratio>
                    <anamorphic>FALSE</anamorphic>
                    <file id="file-13">
                      <name>Scene - LJ visemes.011.png</name>
                      <pathurl>file://localhost/Users/bot/Documents/CREATE/Character Animator/LJ visemes CH2AE/demo/Scene - LJ visemes/Scene - LJ visemes.011.png</pathurl>
                      <rate>
                        <timebase>24</timebase>
                        <ntsc>FALSE</ntsc>
                      </rate>
                      <duration>672</duration>
                      <timecode>
                        <rate>
                          <timebase>24</timebase>
                          <ntsc>FALSE</ntsc>
                        </rate>
                      </timecode>
                      <media>
                        <video>
                          <duration>1</duration>
                          <samplecharacteristics>
                            <anamorphic>FALSE</anamorphic>
                            <pixelaspectratio>square</pixelaspectratio>
                            <fielddominance>none</fielddominance>
                            <width>1920</width>
                            <height>1080</height>
                          </samplecharacteristics>
                        </video>
                      </media>
                    </file>
                  </clipitem>
                </track>
              </video>
            </media>
          </clip>
          <clip explodedTracks="true" frameBlend="FALSE" id="masterclip-14">
            <uuid>8824a6f6-1f71-4150-a078-964ae3dc71c2</uuid>
            <masterclipid>masterclip-14</masterclipid>
            <ismasterclip>TRUE</ismasterclip>
            <duration>672</duration>
            <in>0</in>
            <out>672</out>
            <name>Scene - LJ visemes.012.png</name>
            <rate>
              <timebase>24</timebase>
              <ntsc>FALSE</ntsc>
            </rate>
            <media>
              <video>
                <track>
                  <clipitem frameBlend="FALSE" id="clipitem-15">
                    <name>Scene - LJ visemes.012.png</name>
                    <masterclipid>masterclip-14</masterclipid>
                    <rate>
                      <timebase>24</timebase>
                      <ntsc>FALSE</ntsc>
                    </rate>
                    <alphatype>straight</alphatype>
                    <pixelaspectratio>square</pixelaspectratio>
                    <anamorphic>FALSE</anamorphic>
                    <file id="file-14">
                      <name>Scene - LJ visemes.012.png</name>
                      <pathurl>file://localhost/Users/bot/Documents/CREATE/Character Animator/LJ visemes CH2AE/demo/Scene - LJ visemes/Scene - LJ visemes.012.png</pathurl>
                      <rate>
                        <timebase>24</timebase>
                        <ntsc>FALSE</ntsc>
                      </rate>
                      <duration>672</duration>
                      <timecode>
                        <rate>
                          <timebase>24</timebase>
                          <ntsc>FALSE</ntsc>
                        </rate>
                      </timecode>
                      <media>
                        <video>
                          <duration>1</duration>
                          <samplecharacteristics>
                            <anamorphic>FALSE</anamorphic>
                            <pixelaspectratio>square</pixelaspectratio>
                            <fielddominance>none</fielddominance>
                            <width>1920</width>
                            <height>1080</height>
                          </samplecharacteristics>
                        </video>
                      </media>
                    </file>
                  </clipitem>
                </track>
              </video>
            </media>
          </clip>
          <clip explodedTracks="true" frameBlend="FALSE" id="masterclip-15">
            <uuid>68b4fa92-8d15-435b-9a67-f911e1522ab6</uuid>
            <masterclipid>masterclip-15</masterclipid>
            <ismasterclip>TRUE</ismasterclip>
            <duration>672</duration>
            <in>0</in>
            <out>672</out>
            <name>Scene - LJ visemes.013.png</name>
            <rate>
              <timebase>24</timebase>
              <ntsc>FALSE</ntsc>
            </rate>
            <media>
              <video>
                <track>
                  <clipitem frameBlend="FALSE" id="clipitem-16">
                    <name>Scene - LJ visemes.013.png</name>
                    <masterclipid>masterclip-15</masterclipid>
                    <rate>
                      <timebase>24</timebase>
                      <ntsc>FALSE</ntsc>
                    </rate>
                    <alphatype>straight</alphatype>
                    <pixelaspectratio>square</pixelaspectratio>
                    <anamorphic>FALSE</anamorphic>
                    <file id="file-15">
                      <name>Scene - LJ visemes.013.png</name>
                      <pathurl>file://localhost/Users/bot/Documents/CREATE/Character Animator/LJ visemes CH2AE/demo/Scene - LJ visemes/Scene - LJ visemes.013.png</pathurl>
                      <rate>
                        <timebase>24</timebase>
                        <ntsc>FALSE</ntsc>
                      </rate>
                      <duration>672</duration>
                      <timecode>
                        <rate>
                          <timebase>24</timebase>
                          <ntsc>FALSE</ntsc>
                        </rate>
                      </timecode>
                      <media>
                        <video>
                          <duration>1</duration>
                          <samplecharacteristics>
                            <anamorphic>FALSE</anamorphic>
                            <pixelaspectratio>square</pixelaspectratio>
                            <fielddominance>none</fielddominance>
                            <width>1920</width>
                            <height>1080</height>
                          </samplecharacteristics>
                        </video>
                      </media>
                    </file>
                  </clipitem>
                </track>
              </video>
            </media>
          </clip>
          <clip explodedTracks="true" frameBlend="FALSE" id="masterclip-16">
            <uuid>8eddbb68-76c5-4b8d-b8d4-f6c2b66c06e2</uuid>
            <masterclipid>masterclip-16</masterclipid>
            <ismasterclip>TRUE</ismasterclip>
            <duration>672</duration>
            <in>0</in>
            <out>672</out>
            <name>Scene - LJ visemes.014.png</name>
            <rate>
              <timebase>24</timebase>
              <ntsc>FALSE</ntsc>
            </rate>
            <media>
              <video>
                <track>
                  <clipitem frameBlend="FALSE" id="clipitem-17">
                    <name>Scene - LJ visemes.014.png</name>
                    <masterclipid>masterclip-16</masterclipid>
                    <rate>
                      <timebase>24</timebase>
                      <ntsc>FALSE</ntsc>
                    </rate>
                    <alphatype>straight</alphatype>
                    <pixelaspectratio>square</pixelaspectratio>
                    <anamorphic>FALSE</anamorphic>
                    <file id="file-16">
                      <name>Scene - LJ visemes.014.png</name>
                      <pathurl>file://localhost/Users/bot/Documents/CREATE/Character Animator/LJ visemes CH2AE/demo/Scene - LJ visemes/Scene - LJ visemes.014.png</pathurl>
                      <rate>
                        <timebase>24</timebase>
                        <ntsc>FALSE</ntsc>
                      </rate>
                      <duration>672</duration>
                      <timecode>
                        <rate>
                          <timebase>24</timebase>
                          <ntsc>FALSE</ntsc>
                        </rate>
                      </timecode>
                      <media>
                        <video>
                          <duration>1</duration>
                          <samplecharacteristics>
                            <anamorphic>FALSE</anamorphic>
                            <pixelaspectratio>square</pixelaspectratio>
                            <fielddominance>none</fielddominance>
                            <width>1920</width>
                            <height>1080</height>
                          </samplecharacteristics>
                        </video>
                      </media>
                    </file>
                  </clipitem>
                </track>
              </video>
            </media>
          </clip>
          <clip explodedTracks="true" frameBlend="FALSE" id="masterclip-17">
            <uuid>7e5b7e4b-3349-4e7c-b75a-1bc86aac9841</uuid>
            <masterclipid>masterclip-17</masterclipid>
            <ismasterclip>TRUE</ismasterclip>
            <duration>672</duration>
            <in>0</in>
            <out>672</out>
            <name>Scene - LJ visemes.015.png</name>
            <rate>
              <timebase>24</timebase>
              <ntsc>FALSE</ntsc>
            </rate>
            <media>
              <video>
                <track>
                  <clipitem frameBlend="FALSE" id="clipitem-18">
                    <name>Scene - LJ visemes.015.png</name>
                    <masterclipid>masterclip-17</masterclipid>
                    <rate>
                      <timebase>24</timebase>
                      <ntsc>FALSE</ntsc>
                    </rate>
                    <alphatype>straight</alphatype>
                    <pixelaspectratio>square</pixelaspectratio>
                    <anamorphic>FALSE</anamorphic>
                    <file id="file-17">
                      <name>Scene - LJ visemes.015.png</name>
                      <pathurl>file://localhost/Users/bot/Documents/CREATE/Character Animator/LJ visemes CH2AE/demo/Scene - LJ visemes/Scene - LJ visemes.015.png</pathurl>
                      <rate>
                        <timebase>24</timebase>
                        <ntsc>FALSE</ntsc>
                      </rate>
                      <duration>672</duration>
                      <timecode>
                        <rate>
                          <timebase>24</timebase>
                          <ntsc>FALSE</ntsc>
                        </rate>
                      </timecode>
                      <media>
                        <video>
                          <duration>1</duration>
                          <samplecharacteristics>
                            <anamorphic>FALSE</anamorphic>
                            <pixelaspectratio>square</pixelaspectratio>
                            <fielddominance>none</fielddominance>
                            <width>1920</width>
                            <height>1080</height>
                          </samplecharacteristics>
                        </video>
                      </media>
                    </file>
                  </clipitem>
                </track>
              </video>
            </media>
          </clip>
          <clip explodedTracks="true" frameBlend="FALSE" id="masterclip-18">
            <uuid>f4ba5c93-38db-413c-b74d-52dcd51f7f7b</uuid>
            <masterclipid>masterclip-18</masterclipid>
            <ismasterclip>TRUE</ismasterclip>
            <duration>672</duration>
            <in>0</in>
            <out>672</out>
            <name>Scene - LJ visemes.016.png</name>
            <rate>
              <timebase>24</timebase>
              <ntsc>FALSE</ntsc>
            </rate>
            <media>
              <video>
                <track>
                  <clipitem frameBlend="FALSE" id="clipitem-19">
                    <name>Scene - LJ visemes.016.png</name>
                    <masterclipid>masterclip-18</masterclipid>
                    <rate>
                      <timebase>24</timebase>
                      <ntsc>FALSE</ntsc>
                    </rate>
                    <alphatype>straight</alphatype>
                    <pixelaspectratio>square</pixelaspectratio>
                    <anamorphic>FALSE</anamorphic>
                    <file id="file-18">
                      <name>Scene - LJ visemes.016.png</name>
                      <pathurl>file://localhost/Users/bot/Documents/CREATE/Character Animator/LJ visemes CH2AE/demo/Scene - LJ visemes/Scene - LJ visemes.016.png</pathurl>
                      <rate>
                        <timebase>24</timebase>
                        <ntsc>FALSE</ntsc>
                      </rate>
                      <duration>672</duration>
                      <timecode>
                        <rate>
                          <timebase>24</timebase>
                          <ntsc>FALSE</ntsc>
                        </rate>
                      </timecode>
                      <media>
                        <video>
                          <duration>1</duration>
                          <samplecharacteristics>
                            <anamorphic>FALSE</anamorphic>
                            <pixelaspectratio>square</pixelaspectratio>
                            <fielddominance>none</fielddominance>
                            <width>1920</width>
                            <height>1080</height>
                          </samplecharacteristics>
                        </video>
                      </media>
                    </file>
                  </clipitem>
                </track>
              </video>
            </media>
          </clip>
          <clip explodedTracks="true" frameBlend="FALSE" id="masterclip-19">
            <uuid>04ce3d0c-2f0f-42b7-883b-cff94fa6389c</uuid>
            <masterclipid>masterclip-19</masterclipid>
            <ismasterclip>TRUE</ismasterclip>
            <duration>672</duration>
            <in>0</in>
            <out>672</out>
            <name>Scene - LJ visemes.017.png</name>
            <rate>
              <timebase>24</timebase>
              <ntsc>FALSE</ntsc>
            </rate>
            <media>
              <video>
                <track>
                  <clipitem frameBlend="FALSE" id="clipitem-20">
                    <name>Scene - LJ visemes.017.png</name>
                    <masterclipid>masterclip-19</masterclipid>
                    <rate>
                      <timebase>24</timebase>
                      <ntsc>FALSE</ntsc>
                    </rate>
                    <alphatype>straight</alphatype>
                    <pixelaspectratio>square</pixelaspectratio>
                    <anamorphic>FALSE</anamorphic>
                    <file id="file-19">
                      <name>Scene - LJ visemes.017.png</name>
                      <pathurl>file://localhost/Users/bot/Documents/CREATE/Character Animator/LJ visemes CH2AE/demo/Scene - LJ visemes/Scene - LJ visemes.017.png</pathurl>
                      <rate>
                        <timebase>24</timebase>
                        <ntsc>FALSE</ntsc>
                      </rate>
                      <duration>672</duration>
                      <timecode>
                        <rate>
                          <timebase>24</timebase>
                          <ntsc>FALSE</ntsc>
                        </rate>
                      </timecode>
                      <media>
                        <video>
                          <duration>1</duration>
                          <samplecharacteristics>
                            <anamorphic>FALSE</anamorphic>
                            <pixelaspectratio>square</pixelaspectratio>
                            <fielddominance>none</fielddominance>
                            <width>1920</width>
                            <height>1080</height>
                          </samplecharacteristics>
                        </video>
                      </media>
                    </file>
                  </clipitem>
                </track>
              </video>
            </media>
          </clip>
          <clip explodedTracks="true" frameBlend="FALSE" id="masterclip-20">
            <uuid>d61fc363-6e38-417a-b450-8d7f483f493e</uuid>
            <masterclipid>masterclip-20</masterclipid>
            <ismasterclip>TRUE</ismasterclip>
            <duration>672</duration>
            <in>0</in>
            <out>672</out>
            <name>Scene - LJ visemes.018.png</name>
            <rate>
              <timebase>24</timebase>
              <ntsc>FALSE</ntsc>
            </rate>
            <media>
              <video>
                <track>
                  <clipitem frameBlend="FALSE" id="clipitem-21">
                    <name>Scene - LJ visemes.018.png</name>
                    <masterclipid>masterclip-20</masterclipid>
                    <rate>
                      <timebase>24</timebase>
                      <ntsc>FALSE</ntsc>
                    </rate>
                    <alphatype>straight</alphatype>
                    <pixelaspectratio>square</pixelaspectratio>
                    <anamorphic>FALSE</anamorphic>
                    <file id="file-20">
                      <name>Scene - LJ visemes.018.png</name>
                      <pathurl>file://localhost/Users/bot/Documents/CREATE/Character Animator/LJ visemes CH2AE/demo/Scene - LJ visemes/Scene - LJ visemes.018.png</pathurl>
                      <rate>
                        <timebase>24</timebase>
                        <ntsc>FALSE</ntsc>
                      </rate>
                      <duration>672</duration>
                      <timecode>
                        <rate>
                          <timebase>24</timebase>
                          <ntsc>FALSE</ntsc>
                        </rate>
                      </timecode>
                      <media>
                        <video>
                          <duration>1</duration>
                          <samplecharacteristics>
                            <anamorphic>FALSE</anamorphic>
                            <pixelaspectratio>square</pixelaspectratio>
                            <fielddominance>none</fielddominance>
                            <width>1920</width>
                            <height>1080</height>
                          </samplecharacteristics>
                        </video>
                      </media>
                    </file>
                  </clipitem>
                </track>
              </video>
            </media>
          </clip>
          <clip explodedTracks="true" frameBlend="FALSE" id="masterclip-21">
            <uuid>63ee90a0-0130-49cf-ab39-459987cb6694</uuid>
            <masterclipid>masterclip-21</masterclipid>
            <ismasterclip>TRUE</ismasterclip>
            <duration>672</duration>
            <in>0</in>
            <out>672</out>
            <name>Scene - LJ visemes.019.png</name>
            <rate>
              <timebase>24</timebase>
              <ntsc>FALSE</ntsc>
            </rate>
            <media>
              <video>
                <track>
                  <clipitem frameBlend="FALSE" id="clipitem-22">
                    <name>Scene - LJ visemes.019.png</name>
                    <masterclipid>masterclip-21</masterclipid>
                    <rate>
                      <timebase>24</timebase>
                      <ntsc>FALSE</ntsc>
                    </rate>
                    <alphatype>straight</alphatype>
                    <pixelaspectratio>square</pixelaspectratio>
                    <anamorphic>FALSE</anamorphic>
                    <file id="file-21">
                      <name>Scene - LJ visemes.019.png</name>
                      <pathurl>file://localhost/Users/bot/Documents/CREATE/Character Animator/LJ visemes CH2AE/demo/Scene - LJ visemes/Scene - LJ visemes.019.png</pathurl>
                      <rate>
                        <timebase>24</timebase>
                        <ntsc>FALSE</ntsc>
                      </rate>
                      <duration>672</duration>
                      <timecode>
                        <rate>
                          <timebase>24</timebase>
                          <ntsc>FALSE</ntsc>
                        </rate>
                      </timecode>
                      <media>
                        <video>
                          <duration>1</duration>
                          <samplecharacteristics>
                            <anamorphic>FALSE</anamorphic>
                            <pixelaspectratio>square</pixelaspectratio>
                            <fielddominance>none</fielddominance>
                            <width>1920</width>
                            <height>1080</height>
                          </samplecharacteristics>
                        </video>
                      </media>
                    </file>
                  </clipitem>
                </track>
              </video>
            </media>
          </clip>
          <clip explodedTracks="true" frameBlend="FALSE" id="masterclip-22">
            <uuid>c775ad41-971e-44ed-88c2-4777fbd52bd9</uuid>
            <masterclipid>masterclip-22</masterclipid>
            <ismasterclip>TRUE</ismasterclip>
            <duration>672</duration>
            <in>0</in>
            <out>672</out>
            <name>Scene - LJ visemes.020.png</name>
            <rate>
              <timebase>24</timebase>
              <ntsc>FALSE</ntsc>
            </rate>
            <media>
              <video>
                <track>
                  <clipitem frameBlend="FALSE" id="clipitem-23">
                    <name>Scene - LJ visemes.020.png</name>
                    <masterclipid>masterclip-22</masterclipid>
                    <rate>
                      <timebase>24</timebase>
                      <ntsc>FALSE</ntsc>
                    </rate>
                    <alphatype>straight</alphatype>
                    <pixelaspectratio>square</pixelaspectratio>
                    <anamorphic>FALSE</anamorphic>
                    <file id="file-22">
                      <name>Scene - LJ visemes.020.png</name>
                      <pathurl>file://localhost/Users/bot/Documents/CREATE/Character Animator/LJ visemes CH2AE/demo/Scene - LJ visemes/Scene - LJ visemes.020.png</pathurl>
                      <rate>
                        <timebase>24</timebase>
                        <ntsc>FALSE</ntsc>
                      </rate>
                      <duration>672</duration>
                      <timecode>
                        <rate>
                          <timebase>24</timebase>
                          <ntsc>FALSE</ntsc>
                        </rate>
                      </timecode>
                      <media>
                        <video>
                          <duration>1</duration>
                          <samplecharacteristics>
                            <anamorphic>FALSE</anamorphic>
                            <pixelaspectratio>square</pixelaspectratio>
                            <fielddominance>none</fielddominance>
                            <width>1920</width>
                            <height>1080</height>
                          </samplecharacteristics>
                        </video>
                      </media>
                    </file>
                  </clipitem>
                </track>
              </video>
            </media>
          </clip>
          <clip explodedTracks="true" frameBlend="FALSE" id="masterclip-23">
            <uuid>8494a394-4087-4d02-b1f3-243d48d7fecc</uuid>
            <masterclipid>masterclip-23</masterclipid>
            <ismasterclip>TRUE</ismasterclip>
            <duration>672</duration>
            <in>0</in>
            <out>672</out>
            <name>Scene - LJ visemes.021.png</name>
            <rate>
              <timebase>24</timebase>
              <ntsc>FALSE</ntsc>
            </rate>
            <media>
              <video>
                <track>
                  <clipitem frameBlend="FALSE" id="clipitem-24">
                    <name>Scene - LJ visemes.021.png</name>
                    <masterclipid>masterclip-23</masterclipid>
                    <rate>
                      <timebase>24</timebase>
                      <ntsc>FALSE</ntsc>
                    </rate>
                    <alphatype>straight</alphatype>
                    <pixelaspectratio>square</pixelaspectratio>
                    <anamorphic>FALSE</anamorphic>
                    <file id="file-23">
                      <name>Scene - LJ visemes.021.png</name>
                      <pathurl>file://localhost/Users/bot/Documents/CREATE/Character Animator/LJ visemes CH2AE/demo/Scene - LJ visemes/Scene - LJ visemes.021.png</pathurl>
                      <rate>
                        <timebase>24</timebase>
                        <ntsc>FALSE</ntsc>
                      </rate>
                      <duration>672</duration>
                      <timecode>
                        <rate>
                          <timebase>24</timebase>
                          <ntsc>FALSE</ntsc>
                        </rate>
                      </timecode>
                      <media>
                        <video>
                          <duration>1</duration>
                          <samplecharacteristics>
                            <anamorphic>FALSE</anamorphic>
                            <pixelaspectratio>square</pixelaspectratio>
                            <fielddominance>none</fielddominance>
                            <width>1920</width>
                            <height>1080</height>
                          </samplecharacteristics>
                        </video>
                      </media>
                    </file>
                  </clipitem>
                </track>
              </video>
            </media>
          </clip>
          <clip explodedTracks="true" frameBlend="FALSE" id="masterclip-24">
            <uuid>8cce76f5-14ac-4511-9d10-289eaaeba5c2</uuid>
            <masterclipid>masterclip-24</masterclipid>
            <ismasterclip>TRUE</ismasterclip>
            <duration>672</duration>
            <in>0</in>
            <out>672</out>
            <name>Scene - LJ visemes.022.png</name>
            <rate>
              <timebase>24</timebase>
              <ntsc>FALSE</ntsc>
            </rate>
            <media>
              <video>
                <track>
                  <clipitem frameBlend="FALSE" id="clipitem-25">
                    <name>Scene - LJ visemes.022.png</name>
                    <masterclipid>masterclip-24</masterclipid>
                    <rate>
                      <timebase>24</timebase>
                      <ntsc>FALSE</ntsc>
                    </rate>
                    <alphatype>straight</alphatype>
                    <pixelaspectratio>square</pixelaspectratio>
                    <anamorphic>FALSE</anamorphic>
                    <file id="file-24">
                      <name>Scene - LJ visemes.022.png</name>
                      <pathurl>file://localhost/Users/bot/Documents/CREATE/Character Animator/LJ visemes CH2AE/demo/Scene - LJ visemes/Scene - LJ visemes.022.png</pathurl>
                      <rate>
                        <timebase>24</timebase>
                        <ntsc>FALSE</ntsc>
                      </rate>
                      <duration>672</duration>
                      <timecode>
                        <rate>
                          <timebase>24</timebase>
                          <ntsc>FALSE</ntsc>
                        </rate>
                      </timecode>
                      <media>
                        <video>
                          <duration>1</duration>
                          <samplecharacteristics>
                            <anamorphic>FALSE</anamorphic>
                            <pixelaspectratio>square</pixelaspectratio>
                            <fielddominance>none</fielddominance>
                            <width>1920</width>
                            <height>1080</height>
                          </samplecharacteristics>
                        </video>
                      </media>
                    </file>
                  </clipitem>
                </track>
              </video>
            </media>
          </clip>
          <clip explodedTracks="true" frameBlend="FALSE" id="masterclip-25">
            <uuid>ae8a14fa-ccb6-42a8-807a-3b6de1c0f980</uuid>
            <masterclipid>masterclip-25</masterclipid>
            <ismasterclip>TRUE</ismasterclip>
            <duration>672</duration>
            <in>0</in>
            <out>672</out>
            <name>Scene - LJ visemes.023.png</name>
            <rate>
              <timebase>24</timebase>
              <ntsc>FALSE</ntsc>
            </rate>
            <media>
              <video>
                <track>
                  <clipitem frameBlend="FALSE" id="clipitem-26">
                    <name>Scene - LJ visemes.023.png</name>
                    <masterclipid>masterclip-25</masterclipid>
                    <rate>
                      <timebase>24</timebase>
                      <ntsc>FALSE</ntsc>
                    </rate>
                    <alphatype>straight</alphatype>
                    <pixelaspectratio>square</pixelaspectratio>
                    <anamorphic>FALSE</anamorphic>
                    <file id="file-25">
                      <name>Scene - LJ visemes.023.png</name>
                      <pathurl>file://localhost/Users/bot/Documents/CREATE/Character Animator/LJ visemes CH2AE/demo/Scene - LJ visemes/Scene - LJ visemes.023.png</pathurl>
                      <rate>
                        <timebase>24</timebase>
                        <ntsc>FALSE</ntsc>
                      </rate>
                      <duration>672</duration>
                      <timecode>
                        <rate>
                          <timebase>24</timebase>
                          <ntsc>FALSE</ntsc>
                        </rate>
                      </timecode>
                      <media>
                        <video>
                          <duration>1</duration>
                          <samplecharacteristics>
                            <anamorphic>FALSE</anamorphic>
                            <pixelaspectratio>square</pixelaspectratio>
                            <fielddominance>none</fielddominance>
                            <width>1920</width>
                            <height>1080</height>
                          </samplecharacteristics>
                        </video>
                      </media>
                    </file>
                  </clipitem>
                </track>
              </video>
            </media>
          </clip>
          <clip explodedTracks="true" frameBlend="FALSE" id="masterclip-26">
            <uuid>abb3609f-1362-459c-b9ef-a8dc372c4b28</uuid>
            <masterclipid>masterclip-26</masterclipid>
            <ismasterclip>TRUE</ismasterclip>
            <duration>672</duration>
            <in>0</in>
            <out>672</out>
            <name>Scene - LJ visemes.024.png</name>
            <rate>
              <timebase>24</timebase>
              <ntsc>FALSE</ntsc>
            </rate>
            <media>
              <video>
                <track>
                  <clipitem frameBlend="FALSE" id="clipitem-27">
                    <name>Scene - LJ visemes.024.png</name>
                    <masterclipid>masterclip-26</masterclipid>
                    <rate>
                      <timebase>24</timebase>
                      <ntsc>FALSE</ntsc>
                    </rate>
                    <alphatype>straight</alphatype>
                    <pixelaspectratio>square</pixelaspectratio>
                    <anamorphic>FALSE</anamorphic>
                    <file id="file-26">
                      <name>Scene - LJ visemes.024.png</name>
                      <pathurl>file://localhost/Users/bot/Documents/CREATE/Character Animator/LJ visemes CH2AE/demo/Scene - LJ visemes/Scene - LJ visemes.024.png</pathurl>
                      <rate>
                        <timebase>24</timebase>
                        <ntsc>FALSE</ntsc>
                      </rate>
                      <duration>672</duration>
                      <timecode>
                        <rate>
                          <timebase>24</timebase>
                          <ntsc>FALSE</ntsc>
                        </rate>
                      </timecode>
                      <media>
                        <video>
                          <duration>1</duration>
                          <samplecharacteristics>
                            <anamorphic>FALSE</anamorphic>
                            <pixelaspectratio>square</pixelaspectratio>
                            <fielddominance>none</fielddominance>
                            <width>1920</width>
                            <height>1080</height>
                          </samplecharacteristics>
                        </video>
                      </media>
                    </file>
                  </clipitem>
                </track>
              </video>
            </media>
          </clip>
          <clip explodedTracks="true" frameBlend="FALSE" id="masterclip-27">
            <uuid>70925534-4942-4177-8bda-072d2993912e</uuid>
            <masterclipid>masterclip-27</masterclipid>
            <ismasterclip>TRUE</ismasterclip>
            <duration>672</duration>
            <in>0</in>
            <out>672</out>
            <name>Scene - LJ visemes.025.png</name>
            <rate>
              <timebase>24</timebase>
              <ntsc>FALSE</ntsc>
            </rate>
            <media>
              <video>
                <track>
                  <clipitem frameBlend="FALSE" id="clipitem-28">
                    <name>Scene - LJ visemes.025.png</name>
                    <masterclipid>masterclip-27</masterclipid>
                    <rate>
                      <timebase>24</timebase>
                      <ntsc>FALSE</ntsc>
                    </rate>
                    <alphatype>straight</alphatype>
                    <pixelaspectratio>square</pixelaspectratio>
                    <anamorphic>FALSE</anamorphic>
                    <file id="file-27">
                      <name>Scene - LJ visemes.025.png</name>
                      <pathurl>file://localhost/Users/bot/Documents/CREATE/Character Animator/LJ visemes CH2AE/demo/Scene - LJ visemes/Scene - LJ visemes.025.png</pathurl>
                      <rate>
                        <timebase>24</timebase>
                        <ntsc>FALSE</ntsc>
                      </rate>
                      <duration>672</duration>
                      <timecode>
                        <rate>
                          <timebase>24</timebase>
                          <ntsc>FALSE</ntsc>
                        </rate>
                      </timecode>
                      <media>
                        <video>
                          <duration>1</duration>
                          <samplecharacteristics>
                            <anamorphic>FALSE</anamorphic>
                            <pixelaspectratio>square</pixelaspectratio>
                            <fielddominance>none</fielddominance>
                            <width>1920</width>
                            <height>1080</height>
                          </samplecharacteristics>
                        </video>
                      </media>
                    </file>
                  </clipitem>
                </track>
              </video>
            </media>
          </clip>
          <clip explodedTracks="true" frameBlend="FALSE" id="masterclip-28">
            <uuid>ee73c670-0e18-4582-bac8-fb3ae7d40ab9</uuid>
            <masterclipid>masterclip-28</masterclipid>
            <ismasterclip>TRUE</ismasterclip>
            <duration>672</duration>
            <in>0</in>
            <out>672</out>
            <name>Scene - LJ visemes.026.png</name>
            <rate>
              <timebase>24</timebase>
              <ntsc>FALSE</ntsc>
            </rate>
            <media>
              <video>
                <track>
                  <clipitem frameBlend="FALSE" id="clipitem-29">
                    <name>Scene - LJ visemes.026.png</name>
                    <masterclipid>masterclip-28</masterclipid>
                    <rate>
                      <timebase>24</timebase>
                      <ntsc>FALSE</ntsc>
                    </rate>
                    <alphatype>straight</alphatype>
                    <pixelaspectratio>square</pixelaspectratio>
                    <anamorphic>FALSE</anamorphic>
                    <file id="file-28">
                      <name>Scene - LJ visemes.026.png</name>
                      <pathurl>file://localhost/Users/bot/Documents/CREATE/Character Animator/LJ visemes CH2AE/demo/Scene - LJ visemes/Scene - LJ visemes.026.png</pathurl>
                      <rate>
                        <timebase>24</timebase>
                        <ntsc>FALSE</ntsc>
                      </rate>
                      <duration>672</duration>
                      <timecode>
                        <rate>
                          <timebase>24</timebase>
                          <ntsc>FALSE</ntsc>
                        </rate>
                      </timecode>
                      <media>
                        <video>
                          <duration>1</duration>
                          <samplecharacteristics>
                            <anamorphic>FALSE</anamorphic>
                            <pixelaspectratio>square</pixelaspectratio>
                            <fielddominance>none</fielddominance>
                            <width>1920</width>
                            <height>1080</height>
                          </samplecharacteristics>
                        </video>
                      </media>
                    </file>
                  </clipitem>
                </track>
              </video>
            </media>
          </clip>
          <clip explodedTracks="true" frameBlend="FALSE" id="masterclip-29">
            <uuid>9175d885-0600-408a-b328-26782f6b7433</uuid>
            <masterclipid>masterclip-29</masterclipid>
            <ismasterclip>TRUE</ismasterclip>
            <duration>672</duration>
            <in>0</in>
            <out>672</out>
            <name>Scene - LJ visemes.027.png</name>
            <rate>
              <timebase>24</timebase>
              <ntsc>FALSE</ntsc>
            </rate>
            <media>
              <video>
                <track>
                  <clipitem frameBlend="FALSE" id="clipitem-30">
                    <name>Scene - LJ visemes.027.png</name>
                    <masterclipid>masterclip-29</masterclipid>
                    <rate>
                      <timebase>24</timebase>
                      <ntsc>FALSE</ntsc>
                    </rate>
                    <alphatype>straight</alphatype>
                    <pixelaspectratio>square</pixelaspectratio>
                    <anamorphic>FALSE</anamorphic>
                    <file id="file-29">
                      <name>Scene - LJ visemes.027.png</name>
                      <pathurl>file://localhost/Users/bot/Documents/CREATE/Character Animator/LJ visemes CH2AE/demo/Scene - LJ visemes/Scene - LJ visemes.027.png</pathurl>
                      <rate>
                        <timebase>24</timebase>
                        <ntsc>FALSE</ntsc>
                      </rate>
                      <duration>672</duration>
                      <timecode>
                        <rate>
                          <timebase>24</timebase>
                          <ntsc>FALSE</ntsc>
                        </rate>
                      </timecode>
                      <media>
                        <video>
                          <duration>1</duration>
                          <samplecharacteristics>
                            <anamorphic>FALSE</anamorphic>
                            <pixelaspectratio>square</pixelaspectratio>
                            <fielddominance>none</fielddominance>
                            <width>1920</width>
                            <height>1080</height>
                          </samplecharacteristics>
                        </video>
                      </media>
                    </file>
                  </clipitem>
                </track>
              </video>
            </media>
          </clip>
          <clip explodedTracks="true" frameBlend="FALSE" id="masterclip-30">
            <uuid>b6111596-d067-4a74-b9a9-43bbb818fb97</uuid>
            <masterclipid>masterclip-30</masterclipid>
            <ismasterclip>TRUE</ismasterclip>
            <duration>672</duration>
            <in>0</in>
            <out>672</out>
            <name>Scene - LJ visemes.028.png</name>
            <rate>
              <timebase>24</timebase>
              <ntsc>FALSE</ntsc>
            </rate>
            <media>
              <video>
                <track>
                  <clipitem frameBlend="FALSE" id="clipitem-31">
                    <name>Scene - LJ visemes.028.png</name>
                    <masterclipid>masterclip-30</masterclipid>
                    <rate>
                      <timebase>24</timebase>
                      <ntsc>FALSE</ntsc>
                    </rate>
                    <alphatype>straight</alphatype>
                    <pixelaspectratio>square</pixelaspectratio>
                    <anamorphic>FALSE</anamorphic>
                    <file id="file-30">
                      <name>Scene - LJ visemes.028.png</name>
                      <pathurl>file://localhost/Users/bot/Documents/CREATE/Character Animator/LJ visemes CH2AE/demo/Scene - LJ visemes/Scene - LJ visemes.028.png</pathurl>
                      <rate>
                        <timebase>24</timebase>
                        <ntsc>FALSE</ntsc>
                      </rate>
                      <duration>672</duration>
                      <timecode>
                        <rate>
                          <timebase>24</timebase>
                          <ntsc>FALSE</ntsc>
                        </rate>
                      </timecode>
                      <media>
                        <video>
                          <duration>1</duration>
                          <samplecharacteristics>
                            <anamorphic>FALSE</anamorphic>
                            <pixelaspectratio>square</pixelaspectratio>
                            <fielddominance>none</fielddominance>
                            <width>1920</width>
                            <height>1080</height>
                          </samplecharacteristics>
                        </video>
                      </media>
                    </file>
                  </clipitem>
                </track>
              </video>
            </media>
          </clip>
          <clip explodedTracks="true" frameBlend="FALSE" id="masterclip-31">
            <uuid>f0c82ed0-3912-4c03-9288-4cd5d228aedc</uuid>
            <masterclipid>masterclip-31</masterclipid>
            <ismasterclip>TRUE</ismasterclip>
            <duration>672</duration>
            <in>0</in>
            <out>672</out>
            <name>Scene - LJ visemes.029.png</name>
            <rate>
              <timebase>24</timebase>
              <ntsc>FALSE</ntsc>
            </rate>
            <media>
              <video>
                <track>
                  <clipitem frameBlend="FALSE" id="clipitem-32">
                    <name>Scene - LJ visemes.029.png</name>
                    <masterclipid>masterclip-31</masterclipid>
                    <rate>
                      <timebase>24</timebase>
                      <ntsc>FALSE</ntsc>
                    </rate>
                    <alphatype>straight</alphatype>
                    <pixelaspectratio>square</pixelaspectratio>
                    <anamorphic>FALSE</anamorphic>
                    <file id="file-31">
                      <name>Scene - LJ visemes.029.png</name>
                      <pathurl>file://localhost/Users/bot/Documents/CREATE/Character Animator/LJ visemes CH2AE/demo/Scene - LJ visemes/Scene - LJ visemes.029.png</pathurl>
                      <rate>
                        <timebase>24</timebase>
                        <ntsc>FALSE</ntsc>
                      </rate>
                      <duration>672</duration>
                      <timecode>
                        <rate>
                          <timebase>24</timebase>
                          <ntsc>FALSE</ntsc>
                        </rate>
                      </timecode>
                      <media>
                        <video>
                          <duration>1</duration>
                          <samplecharacteristics>
                            <anamorphic>FALSE</anamorphic>
                            <pixelaspectratio>square</pixelaspectratio>
                            <fielddominance>none</fielddominance>
                            <width>1920</width>
                            <height>1080</height>
                          </samplecharacteristics>
                        </video>
                      </media>
                    </file>
                  </clipitem>
                </track>
              </video>
            </media>
          </clip>
          <clip explodedTracks="true" frameBlend="FALSE" id="masterclip-32">
            <uuid>d54ce51f-1da4-4684-b11b-69e98b658616</uuid>
            <masterclipid>masterclip-32</masterclipid>
            <ismasterclip>TRUE</ismasterclip>
            <duration>672</duration>
            <in>0</in>
            <out>672</out>
            <name>Scene - LJ visemes.030.png</name>
            <rate>
              <timebase>24</timebase>
              <ntsc>FALSE</ntsc>
            </rate>
            <media>
              <video>
                <track>
                  <clipitem frameBlend="FALSE" id="clipitem-33">
                    <name>Scene - LJ visemes.030.png</name>
                    <masterclipid>masterclip-32</masterclipid>
                    <rate>
                      <timebase>24</timebase>
                      <ntsc>FALSE</ntsc>
                    </rate>
                    <alphatype>straight</alphatype>
                    <pixelaspectratio>square</pixelaspectratio>
                    <anamorphic>FALSE</anamorphic>
                    <file id="file-32">
                      <name>Scene - LJ visemes.030.png</name>
                      <pathurl>file://localhost/Users/bot/Documents/CREATE/Character Animator/LJ visemes CH2AE/demo/Scene - LJ visemes/Scene - LJ visemes.030.png</pathurl>
                      <rate>
                        <timebase>24</timebase>
                        <ntsc>FALSE</ntsc>
                      </rate>
                      <duration>672</duration>
                      <timecode>
                        <rate>
                          <timebase>24</timebase>
                          <ntsc>FALSE</ntsc>
                        </rate>
                      </timecode>
                      <media>
                        <video>
                          <duration>1</duration>
                          <samplecharacteristics>
                            <anamorphic>FALSE</anamorphic>
                            <pixelaspectratio>square</pixelaspectratio>
                            <fielddominance>none</fielddominance>
                            <width>1920</width>
                            <height>1080</height>
                          </samplecharacteristics>
                        </video>
                      </media>
                    </file>
                  </clipitem>
                </track>
              </video>
            </media>
          </clip>
          <clip explodedTracks="true" frameBlend="FALSE" id="masterclip-33">
            <uuid>90df2d10-0f5a-4a23-b619-477d51d173c5</uuid>
            <masterclipid>masterclip-33</masterclipid>
            <ismasterclip>TRUE</ismasterclip>
            <duration>672</duration>
            <in>0</in>
            <out>672</out>
            <name>Scene - LJ visemes.031.png</name>
            <rate>
              <timebase>24</timebase>
              <ntsc>FALSE</ntsc>
            </rate>
            <media>
              <video>
                <track>
                  <clipitem frameBlend="FALSE" id="clipitem-34">
                    <name>Scene - LJ visemes.031.png</name>
                    <masterclipid>masterclip-33</masterclipid>
                    <rate>
                      <timebase>24</timebase>
                      <ntsc>FALSE</ntsc>
                    </rate>
                    <alphatype>straight</alphatype>
                    <pixelaspectratio>square</pixelaspectratio>
                    <anamorphic>FALSE</anamorphic>
                    <file id="file-33">
                      <name>Scene - LJ visemes.031.png</name>
                      <pathurl>file://localhost/Users/bot/Documents/CREATE/Character Animator/LJ visemes CH2AE/demo/Scene - LJ visemes/Scene - LJ visemes.031.png</pathurl>
                      <rate>
                        <timebase>24</timebase>
                        <ntsc>FALSE</ntsc>
                      </rate>
                      <duration>672</duration>
                      <timecode>
                        <rate>
                          <timebase>24</timebase>
                          <ntsc>FALSE</ntsc>
                        </rate>
                      </timecode>
                      <media>
                        <video>
                          <duration>1</duration>
                          <samplecharacteristics>
                            <anamorphic>FALSE</anamorphic>
                            <pixelaspectratio>square</pixelaspectratio>
                            <fielddominance>none</fielddominance>
                            <width>1920</width>
                            <height>1080</height>
                          </samplecharacteristics>
                        </video>
                      </media>
                    </file>
                  </clipitem>
                </track>
              </video>
            </media>
          </clip>
          <clip explodedTracks="true" frameBlend="FALSE" id="masterclip-34">
            <uuid>ede17153-0719-41a0-b067-38187baf4f22</uuid>
            <masterclipid>masterclip-34</masterclipid>
            <ismasterclip>TRUE</ismasterclip>
            <duration>672</duration>
            <in>0</in>
            <out>672</out>
            <name>Scene - LJ visemes.032.png</name>
            <rate>
              <timebase>24</timebase>
              <ntsc>FALSE</ntsc>
            </rate>
            <media>
              <video>
                <track>
                  <clipitem frameBlend="FALSE" id="clipitem-35">
                    <name>Scene - LJ visemes.032.png</name>
                    <masterclipid>masterclip-34</masterclipid>
                    <rate>
                      <timebase>24</timebase>
                      <ntsc>FALSE</ntsc>
                    </rate>
                    <alphatype>straight</alphatype>
                    <pixelaspectratio>square</pixelaspectratio>
                    <anamorphic>FALSE</anamorphic>
                    <file id="file-34">
                      <name>Scene - LJ visemes.032.png</name>
                      <pathurl>file://localhost/Users/bot/Documents/CREATE/Character Animator/LJ visemes CH2AE/demo/Scene - LJ visemes/Scene - LJ visemes.032.png</pathurl>
                      <rate>
                        <timebase>24</timebase>
                        <ntsc>FALSE</ntsc>
                      </rate>
                      <duration>672</duration>
                      <timecode>
                        <rate>
                          <timebase>24</timebase>
                          <ntsc>FALSE</ntsc>
                        </rate>
                      </timecode>
                      <media>
                        <video>
                          <duration>1</duration>
                          <samplecharacteristics>
                            <anamorphic>FALSE</anamorphic>
                            <pixelaspectratio>square</pixelaspectratio>
                            <fielddominance>none</fielddominance>
                            <width>1920</width>
                            <height>1080</height>
                          </samplecharacteristics>
                        </video>
                      </media>
                    </file>
                  </clipitem>
                </track>
              </video>
            </media>
          </clip>
          <clip explodedTracks="true" frameBlend="FALSE" id="masterclip-35">
            <uuid>267ddd68-a768-4eb5-9f87-713909373df7</uuid>
            <masterclipid>masterclip-35</masterclipid>
            <ismasterclip>TRUE</ismasterclip>
            <duration>672</duration>
            <in>0</in>
            <out>672</out>
            <name>Scene - LJ visemes.033.png</name>
            <rate>
              <timebase>24</timebase>
              <ntsc>FALSE</ntsc>
            </rate>
            <media>
              <video>
                <track>
                  <clipitem frameBlend="FALSE" id="clipitem-36">
                    <name>Scene - LJ visemes.033.png</name>
                    <masterclipid>masterclip-35</masterclipid>
                    <rate>
                      <timebase>24</timebase>
                      <ntsc>FALSE</ntsc>
                    </rate>
                    <alphatype>straight</alphatype>
                    <pixelaspectratio>square</pixelaspectratio>
                    <anamorphic>FALSE</anamorphic>
                    <file id="file-35">
                      <name>Scene - LJ visemes.033.png</name>
                      <pathurl>file://localhost/Users/bot/Documents/CREATE/Character Animator/LJ visemes CH2AE/demo/Scene - LJ visemes/Scene - LJ visemes.033.png</pathurl>
                      <rate>
                        <timebase>24</timebase>
                        <ntsc>FALSE</ntsc>
                      </rate>
                      <duration>672</duration>
                      <timecode>
                        <rate>
                          <timebase>24</timebase>
                          <ntsc>FALSE</ntsc>
                        </rate>
                      </timecode>
                      <media>
                        <video>
                          <duration>1</duration>
                          <samplecharacteristics>
                            <anamorphic>FALSE</anamorphic>
                            <pixelaspectratio>square</pixelaspectratio>
                            <fielddominance>none</fielddominance>
                            <width>1920</width>
                            <height>1080</height>
                          </samplecharacteristics>
                        </video>
                      </media>
                    </file>
                  </clipitem>
                </track>
              </video>
            </media>
          </clip>
          <clip explodedTracks="true" frameBlend="FALSE" id="masterclip-36">
            <uuid>c778d62f-c167-428d-a157-a7834cd8cdf3</uuid>
            <masterclipid>masterclip-36</masterclipid>
            <ismasterclip>TRUE</ismasterclip>
            <duration>672</duration>
            <in>0</in>
            <out>672</out>
            <name>Scene - LJ visemes.034.png</name>
            <rate>
              <timebase>24</timebase>
              <ntsc>FALSE</ntsc>
            </rate>
            <media>
              <video>
                <track>
                  <clipitem frameBlend="FALSE" id="clipitem-37">
                    <name>Scene - LJ visemes.034.png</name>
                    <masterclipid>masterclip-36</masterclipid>
                    <rate>
                      <timebase>24</timebase>
                      <ntsc>FALSE</ntsc>
                    </rate>
                    <alphatype>straight</alphatype>
                    <pixelaspectratio>square</pixelaspectratio>
                    <anamorphic>FALSE</anamorphic>
                    <file id="file-36">
                      <name>Scene - LJ visemes.034.png</name>
                      <pathurl>file://localhost/Users/bot/Documents/CREATE/Character Animator/LJ visemes CH2AE/demo/Scene - LJ visemes/Scene - LJ visemes.034.png</pathurl>
                      <rate>
                        <timebase>24</timebase>
                        <ntsc>FALSE</ntsc>
                      </rate>
                      <duration>672</duration>
                      <timecode>
                        <rate>
                          <timebase>24</timebase>
                          <ntsc>FALSE</ntsc>
                        </rate>
                      </timecode>
                      <media>
                        <video>
                          <duration>1</duration>
                          <samplecharacteristics>
                            <anamorphic>FALSE</anamorphic>
                            <pixelaspectratio>square</pixelaspectratio>
                            <fielddominance>none</fielddominance>
                            <width>1920</width>
                            <height>1080</height>
                          </samplecharacteristics>
                        </video>
                      </media>
                    </file>
                  </clipitem>
                </track>
              </video>
            </media>
          </clip>
          <clip explodedTracks="true" frameBlend="FALSE" id="masterclip-37">
            <uuid>4bb841ef-e8fd-4790-a959-7bbf033fa1d0</uuid>
            <masterclipid>masterclip-37</masterclipid>
            <ismasterclip>TRUE</ismasterclip>
            <duration>672</duration>
            <in>0</in>
            <out>672</out>
            <name>Scene - LJ visemes.035.png</name>
            <rate>
              <timebase>24</timebase>
              <ntsc>FALSE</ntsc>
            </rate>
            <media>
              <video>
                <track>
                  <clipitem frameBlend="FALSE" id="clipitem-38">
                    <name>Scene - LJ visemes.035.png</name>
                    <masterclipid>masterclip-37</masterclipid>
                    <rate>
                      <timebase>24</timebase>
                      <ntsc>FALSE</ntsc>
                    </rate>
                    <alphatype>straight</alphatype>
                    <pixelaspectratio>square</pixelaspectratio>
                    <anamorphic>FALSE</anamorphic>
                    <file id="file-37">
                      <name>Scene - LJ visemes.035.png</name>
                      <pathurl>file://localhost/Users/bot/Documents/CREATE/Character Animator/LJ visemes CH2AE/demo/Scene - LJ visemes/Scene - LJ visemes.035.png</pathurl>
                      <rate>
                        <timebase>24</timebase>
                        <ntsc>FALSE</ntsc>
                      </rate>
                      <duration>672</duration>
                      <timecode>
                        <rate>
                          <timebase>24</timebase>
                          <ntsc>FALSE</ntsc>
                        </rate>
                      </timecode>
                      <media>
                        <video>
                          <duration>1</duration>
                          <samplecharacteristics>
                            <anamorphic>FALSE</anamorphic>
                            <pixelaspectratio>square</pixelaspectratio>
                            <fielddominance>none</fielddominance>
                            <width>1920</width>
                            <height>1080</height>
                          </samplecharacteristics>
                        </video>
                      </media>
                    </file>
                  </clipitem>
                </track>
              </video>
            </media>
          </clip>
          <clip explodedTracks="true" frameBlend="FALSE" id="masterclip-38">
            <uuid>3d9c1639-ad67-4e04-9041-753fb76164b3</uuid>
            <masterclipid>masterclip-38</masterclipid>
            <ismasterclip>TRUE</ismasterclip>
            <duration>672</duration>
            <in>0</in>
            <out>672</out>
            <name>Scene - LJ visemes.036.png</name>
            <rate>
              <timebase>24</timebase>
              <ntsc>FALSE</ntsc>
            </rate>
            <media>
              <video>
                <track>
                  <clipitem frameBlend="FALSE" id="clipitem-39">
                    <name>Scene - LJ visemes.036.png</name>
                    <masterclipid>masterclip-38</masterclipid>
                    <rate>
                      <timebase>24</timebase>
                      <ntsc>FALSE</ntsc>
                    </rate>
                    <alphatype>straight</alphatype>
                    <pixelaspectratio>square</pixelaspectratio>
                    <anamorphic>FALSE</anamorphic>
                    <file id="file-38">
                      <name>Scene - LJ visemes.036.png</name>
                      <pathurl>file://localhost/Users/bot/Documents/CREATE/Character Animator/LJ visemes CH2AE/demo/Scene - LJ visemes/Scene - LJ visemes.036.png</pathurl>
                      <rate>
                        <timebase>24</timebase>
                        <ntsc>FALSE</ntsc>
                      </rate>
                      <duration>672</duration>
                      <timecode>
                        <rate>
                          <timebase>24</timebase>
                          <ntsc>FALSE</ntsc>
                        </rate>
                      </timecode>
                      <media>
                        <video>
                          <duration>1</duration>
                          <samplecharacteristics>
                            <anamorphic>FALSE</anamorphic>
                            <pixelaspectratio>square</pixelaspectratio>
                            <fielddominance>none</fielddominance>
                            <width>1920</width>
                            <height>1080</height>
                          </samplecharacteristics>
                        </video>
                      </media>
                    </file>
                  </clipitem>
                </track>
              </video>
            </media>
          </clip>
          <clip explodedTracks="true" frameBlend="FALSE" id="masterclip-39">
            <uuid>585eff6f-a37c-4d83-a577-ca6077d06978</uuid>
            <masterclipid>masterclip-39</masterclipid>
            <ismasterclip>TRUE</ismasterclip>
            <duration>672</duration>
            <in>0</in>
            <out>672</out>
            <name>Scene - LJ visemes.037.png</name>
            <rate>
              <timebase>24</timebase>
              <ntsc>FALSE</ntsc>
            </rate>
            <media>
              <video>
                <track>
                  <clipitem frameBlend="FALSE" id="clipitem-40">
                    <name>Scene - LJ visemes.037.png</name>
                    <masterclipid>masterclip-39</masterclipid>
                    <rate>
                      <timebase>24</timebase>
                      <ntsc>FALSE</ntsc>
                    </rate>
                    <alphatype>straight</alphatype>
                    <pixelaspectratio>square</pixelaspectratio>
                    <anamorphic>FALSE</anamorphic>
                    <file id="file-39">
                      <name>Scene - LJ visemes.037.png</name>
                      <pathurl>file://localhost/Users/bot/Documents/CREATE/Character Animator/LJ visemes CH2AE/demo/Scene - LJ visemes/Scene - LJ visemes.037.png</pathurl>
                      <rate>
                        <timebase>24</timebase>
                        <ntsc>FALSE</ntsc>
                      </rate>
                      <duration>672</duration>
                      <timecode>
                        <rate>
                          <timebase>24</timebase>
                          <ntsc>FALSE</ntsc>
                        </rate>
                      </timecode>
                      <media>
                        <video>
                          <duration>1</duration>
                          <samplecharacteristics>
                            <anamorphic>FALSE</anamorphic>
                            <pixelaspectratio>square</pixelaspectratio>
                            <fielddominance>none</fielddominance>
                            <width>1920</width>
                            <height>1080</height>
                          </samplecharacteristics>
                        </video>
                      </media>
                    </file>
                  </clipitem>
                </track>
              </video>
            </media>
          </clip>
          <clip explodedTracks="true" frameBlend="FALSE" id="masterclip-40">
            <uuid>de22361c-0bf2-4f55-b971-0bb68e58523e</uuid>
            <masterclipid>masterclip-40</masterclipid>
            <ismasterclip>TRUE</ismasterclip>
            <duration>672</duration>
            <in>0</in>
            <out>672</out>
            <name>Scene - LJ visemes.038.png</name>
            <rate>
              <timebase>24</timebase>
              <ntsc>FALSE</ntsc>
            </rate>
            <media>
              <video>
                <track>
                  <clipitem frameBlend="FALSE" id="clipitem-41">
                    <name>Scene - LJ visemes.038.png</name>
                    <masterclipid>masterclip-40</masterclipid>
                    <rate>
                      <timebase>24</timebase>
                      <ntsc>FALSE</ntsc>
                    </rate>
                    <alphatype>straight</alphatype>
                    <pixelaspectratio>square</pixelaspectratio>
                    <anamorphic>FALSE</anamorphic>
                    <file id="file-40">
                      <name>Scene - LJ visemes.038.png</name>
                      <pathurl>file://localhost/Users/bot/Documents/CREATE/Character Animator/LJ visemes CH2AE/demo/Scene - LJ visemes/Scene - LJ visemes.038.png</pathurl>
                      <rate>
                        <timebase>24</timebase>
                        <ntsc>FALSE</ntsc>
                      </rate>
                      <duration>672</duration>
                      <timecode>
                        <rate>
                          <timebase>24</timebase>
                          <ntsc>FALSE</ntsc>
                        </rate>
                      </timecode>
                      <media>
                        <video>
                          <duration>1</duration>
                          <samplecharacteristics>
                            <anamorphic>FALSE</anamorphic>
                            <pixelaspectratio>square</pixelaspectratio>
                            <fielddominance>none</fielddominance>
                            <width>1920</width>
                            <height>1080</height>
                          </samplecharacteristics>
                        </video>
                      </media>
                    </file>
                  </clipitem>
                </track>
              </video>
            </media>
          </clip>
          <clip explodedTracks="true" frameBlend="FALSE" id="masterclip-41">
            <uuid>e3f7be98-cea5-4328-bec6-ce73a5366984</uuid>
            <masterclipid>masterclip-41</masterclipid>
            <ismasterclip>TRUE</ismasterclip>
            <duration>672</duration>
            <in>0</in>
            <out>672</out>
            <name>Scene - LJ visemes.039.png</name>
            <rate>
              <timebase>24</timebase>
              <ntsc>FALSE</ntsc>
            </rate>
            <media>
              <video>
                <track>
                  <clipitem frameBlend="FALSE" id="clipitem-42">
                    <name>Scene - LJ visemes.039.png</name>
                    <masterclipid>masterclip-41</masterclipid>
                    <rate>
                      <timebase>24</timebase>
                      <ntsc>FALSE</ntsc>
                    </rate>
                    <alphatype>straight</alphatype>
                    <pixelaspectratio>square</pixelaspectratio>
                    <anamorphic>FALSE</anamorphic>
                    <file id="file-41">
                      <name>Scene - LJ visemes.039.png</name>
                      <pathurl>file://localhost/Users/bot/Documents/CREATE/Character Animator/LJ visemes CH2AE/demo/Scene - LJ visemes/Scene - LJ visemes.039.png</pathurl>
                      <rate>
                        <timebase>24</timebase>
                        <ntsc>FALSE</ntsc>
                      </rate>
                      <duration>672</duration>
                      <timecode>
                        <rate>
                          <timebase>24</timebase>
                          <ntsc>FALSE</ntsc>
                        </rate>
                      </timecode>
                      <media>
                        <video>
                          <duration>1</duration>
                          <samplecharacteristics>
                            <anamorphic>FALSE</anamorphic>
                            <pixelaspectratio>square</pixelaspectratio>
                            <fielddominance>none</fielddominance>
                            <width>1920</width>
                            <height>1080</height>
                          </samplecharacteristics>
                        </video>
                      </media>
                    </file>
                  </clipitem>
                </track>
              </video>
            </media>
          </clip>
          <clip explodedTracks="true" frameBlend="FALSE" id="masterclip-42">
            <uuid>be6e3959-6a31-49f8-b84e-649a5ba14e04</uuid>
            <masterclipid>masterclip-42</masterclipid>
            <ismasterclip>TRUE</ismasterclip>
            <duration>672</duration>
            <in>0</in>
            <out>672</out>
            <name>Scene - LJ visemes.040.png</name>
            <rate>
              <timebase>24</timebase>
              <ntsc>FALSE</ntsc>
            </rate>
            <media>
              <video>
                <track>
                  <clipitem frameBlend="FALSE" id="clipitem-43">
                    <name>Scene - LJ visemes.040.png</name>
                    <masterclipid>masterclip-42</masterclipid>
                    <rate>
                      <timebase>24</timebase>
                      <ntsc>FALSE</ntsc>
                    </rate>
                    <alphatype>straight</alphatype>
                    <pixelaspectratio>square</pixelaspectratio>
                    <anamorphic>FALSE</anamorphic>
                    <file id="file-42">
                      <name>Scene - LJ visemes.040.png</name>
                      <pathurl>file://localhost/Users/bot/Documents/CREATE/Character Animator/LJ visemes CH2AE/demo/Scene - LJ visemes/Scene - LJ visemes.040.png</pathurl>
                      <rate>
                        <timebase>24</timebase>
                        <ntsc>FALSE</ntsc>
                      </rate>
                      <duration>672</duration>
                      <timecode>
                        <rate>
                          <timebase>24</timebase>
                          <ntsc>FALSE</ntsc>
                        </rate>
                      </timecode>
                      <media>
                        <video>
                          <duration>1</duration>
                          <samplecharacteristics>
                            <anamorphic>FALSE</anamorphic>
                            <pixelaspectratio>square</pixelaspectratio>
                            <fielddominance>none</fielddominance>
                            <width>1920</width>
                            <height>1080</height>
                          </samplecharacteristics>
                        </video>
                      </media>
                    </file>
                  </clipitem>
                </track>
              </video>
            </media>
          </clip>
          <clip explodedTracks="true" frameBlend="FALSE" id="masterclip-43">
            <uuid>1862b85e-039a-42a3-b350-023e53603e60</uuid>
            <masterclipid>masterclip-43</masterclipid>
            <ismasterclip>TRUE</ismasterclip>
            <duration>672</duration>
            <in>0</in>
            <out>672</out>
            <name>Scene - LJ visemes.041.png</name>
            <rate>
              <timebase>24</timebase>
              <ntsc>FALSE</ntsc>
            </rate>
            <media>
              <video>
                <track>
                  <clipitem frameBlend="FALSE" id="clipitem-44">
                    <name>Scene - LJ visemes.041.png</name>
                    <masterclipid>masterclip-43</masterclipid>
                    <rate>
                      <timebase>24</timebase>
                      <ntsc>FALSE</ntsc>
                    </rate>
                    <alphatype>straight</alphatype>
                    <pixelaspectratio>square</pixelaspectratio>
                    <anamorphic>FALSE</anamorphic>
                    <file id="file-43">
                      <name>Scene - LJ visemes.041.png</name>
                      <pathurl>file://localhost/Users/bot/Documents/CREATE/Character Animator/LJ visemes CH2AE/demo/Scene - LJ visemes/Scene - LJ visemes.041.png</pathurl>
                      <rate>
                        <timebase>24</timebase>
                        <ntsc>FALSE</ntsc>
                      </rate>
                      <duration>672</duration>
                      <timecode>
                        <rate>
                          <timebase>24</timebase>
                          <ntsc>FALSE</ntsc>
                        </rate>
                      </timecode>
                      <media>
                        <video>
                          <duration>1</duration>
                          <samplecharacteristics>
                            <anamorphic>FALSE</anamorphic>
                            <pixelaspectratio>square</pixelaspectratio>
                            <fielddominance>none</fielddominance>
                            <width>1920</width>
                            <height>1080</height>
                          </samplecharacteristics>
                        </video>
                      </media>
                    </file>
                  </clipitem>
                </track>
              </video>
            </media>
          </clip>
          <clip explodedTracks="true" frameBlend="FALSE" id="masterclip-44">
            <uuid>f977577a-ed0a-48b0-afa8-df98eb766287</uuid>
            <masterclipid>masterclip-44</masterclipid>
            <ismasterclip>TRUE</ismasterclip>
            <duration>672</duration>
            <in>0</in>
            <out>672</out>
            <name>Scene - LJ visemes.042.png</name>
            <rate>
              <timebase>24</timebase>
              <ntsc>FALSE</ntsc>
            </rate>
            <media>
              <video>
                <track>
                  <clipitem frameBlend="FALSE" id="clipitem-45">
                    <name>Scene - LJ visemes.042.png</name>
                    <masterclipid>masterclip-44</masterclipid>
                    <rate>
                      <timebase>24</timebase>
                      <ntsc>FALSE</ntsc>
                    </rate>
                    <alphatype>straight</alphatype>
                    <pixelaspectratio>square</pixelaspectratio>
                    <anamorphic>FALSE</anamorphic>
                    <file id="file-44">
                      <name>Scene - LJ visemes.042.png</name>
                      <pathurl>file://localhost/Users/bot/Documents/CREATE/Character Animator/LJ visemes CH2AE/demo/Scene - LJ visemes/Scene - LJ visemes.042.png</pathurl>
                      <rate>
                        <timebase>24</timebase>
                        <ntsc>FALSE</ntsc>
                      </rate>
                      <duration>672</duration>
                      <timecode>
                        <rate>
                          <timebase>24</timebase>
                          <ntsc>FALSE</ntsc>
                        </rate>
                      </timecode>
                      <media>
                        <video>
                          <duration>1</duration>
                          <samplecharacteristics>
                            <anamorphic>FALSE</anamorphic>
                            <pixelaspectratio>square</pixelaspectratio>
                            <fielddominance>none</fielddominance>
                            <width>1920</width>
                            <height>1080</height>
                          </samplecharacteristics>
                        </video>
                      </media>
                    </file>
                  </clipitem>
                </track>
              </video>
            </media>
          </clip>
          <clip explodedTracks="true" frameBlend="FALSE" id="masterclip-45">
            <uuid>93eb9692-357f-4afe-957b-f2b183fd6cd4</uuid>
            <masterclipid>masterclip-45</masterclipid>
            <ismasterclip>TRUE</ismasterclip>
            <duration>672</duration>
            <in>0</in>
            <out>672</out>
            <name>Scene - LJ visemes.043.png</name>
            <rate>
              <timebase>24</timebase>
              <ntsc>FALSE</ntsc>
            </rate>
            <media>
              <video>
                <track>
                  <clipitem frameBlend="FALSE" id="clipitem-46">
                    <name>Scene - LJ visemes.043.png</name>
                    <masterclipid>masterclip-45</masterclipid>
                    <rate>
                      <timebase>24</timebase>
                      <ntsc>FALSE</ntsc>
                    </rate>
                    <alphatype>straight</alphatype>
                    <pixelaspectratio>square</pixelaspectratio>
                    <anamorphic>FALSE</anamorphic>
                    <file id="file-45">
                      <name>Scene - LJ visemes.043.png</name>
                      <pathurl>file://localhost/Users/bot/Documents/CREATE/Character Animator/LJ visemes CH2AE/demo/Scene - LJ visemes/Scene - LJ visemes.043.png</pathurl>
                      <rate>
                        <timebase>24</timebase>
                        <ntsc>FALSE</ntsc>
                      </rate>
                      <duration>672</duration>
                      <timecode>
                        <rate>
                          <timebase>24</timebase>
                          <ntsc>FALSE</ntsc>
                        </rate>
                      </timecode>
                      <media>
                        <video>
                          <duration>1</duration>
                          <samplecharacteristics>
                            <anamorphic>FALSE</anamorphic>
                            <pixelaspectratio>square</pixelaspectratio>
                            <fielddominance>none</fielddominance>
                            <width>1920</width>
                            <height>1080</height>
                          </samplecharacteristics>
                        </video>
                      </media>
                    </file>
                  </clipitem>
                </track>
              </video>
            </media>
          </clip>
          <clip explodedTracks="true" frameBlend="FALSE" id="masterclip-46">
            <uuid>39634dc2-3a8d-4651-a719-39a7daa3130d</uuid>
            <masterclipid>masterclip-46</masterclipid>
            <ismasterclip>TRUE</ismasterclip>
            <duration>672</duration>
            <in>0</in>
            <out>672</out>
            <name>Scene - LJ visemes.044.png</name>
            <rate>
              <timebase>24</timebase>
              <ntsc>FALSE</ntsc>
            </rate>
            <media>
              <video>
                <track>
                  <clipitem frameBlend="FALSE" id="clipitem-47">
                    <name>Scene - LJ visemes.044.png</name>
                    <masterclipid>masterclip-46</masterclipid>
                    <rate>
                      <timebase>24</timebase>
                      <ntsc>FALSE</ntsc>
                    </rate>
                    <alphatype>straight</alphatype>
                    <pixelaspectratio>square</pixelaspectratio>
                    <anamorphic>FALSE</anamorphic>
                    <file id="file-46">
                      <name>Scene - LJ visemes.044.png</name>
                      <pathurl>file://localhost/Users/bot/Documents/CREATE/Character Animator/LJ visemes CH2AE/demo/Scene - LJ visemes/Scene - LJ visemes.044.png</pathurl>
                      <rate>
                        <timebase>24</timebase>
                        <ntsc>FALSE</ntsc>
                      </rate>
                      <duration>672</duration>
                      <timecode>
                        <rate>
                          <timebase>24</timebase>
                          <ntsc>FALSE</ntsc>
                        </rate>
                      </timecode>
                      <media>
                        <video>
                          <duration>1</duration>
                          <samplecharacteristics>
                            <anamorphic>FALSE</anamorphic>
                            <pixelaspectratio>square</pixelaspectratio>
                            <fielddominance>none</fielddominance>
                            <width>1920</width>
                            <height>1080</height>
                          </samplecharacteristics>
                        </video>
                      </media>
                    </file>
                  </clipitem>
                </track>
              </video>
            </media>
          </clip>
          <clip explodedTracks="true" frameBlend="FALSE" id="masterclip-47">
            <uuid>e4784d0e-7880-4c50-a8b0-7d92e9fedcf3</uuid>
            <masterclipid>masterclip-47</masterclipid>
            <ismasterclip>TRUE</ismasterclip>
            <duration>672</duration>
            <in>0</in>
            <out>672</out>
            <name>Scene - LJ visemes.045.png</name>
            <rate>
              <timebase>24</timebase>
              <ntsc>FALSE</ntsc>
            </rate>
            <media>
              <video>
                <track>
                  <clipitem frameBlend="FALSE" id="clipitem-48">
                    <name>Scene - LJ visemes.045.png</name>
                    <masterclipid>masterclip-47</masterclipid>
                    <rate>
                      <timebase>24</timebase>
                      <ntsc>FALSE</ntsc>
                    </rate>
                    <alphatype>straight</alphatype>
                    <pixelaspectratio>square</pixelaspectratio>
                    <anamorphic>FALSE</anamorphic>
                    <file id="file-47">
                      <name>Scene - LJ visemes.045.png</name>
                      <pathurl>file://localhost/Users/bot/Documents/CREATE/Character Animator/LJ visemes CH2AE/demo/Scene - LJ visemes/Scene - LJ visemes.045.png</pathurl>
                      <rate>
                        <timebase>24</timebase>
                        <ntsc>FALSE</ntsc>
                      </rate>
                      <duration>672</duration>
                      <timecode>
                        <rate>
                          <timebase>24</timebase>
                          <ntsc>FALSE</ntsc>
                        </rate>
                      </timecode>
                      <media>
                        <video>
                          <duration>1</duration>
                          <samplecharacteristics>
                            <anamorphic>FALSE</anamorphic>
                            <pixelaspectratio>square</pixelaspectratio>
                            <fielddominance>none</fielddominance>
                            <width>1920</width>
                            <height>1080</height>
                          </samplecharacteristics>
                        </video>
                      </media>
                    </file>
                  </clipitem>
                </track>
              </video>
            </media>
          </clip>
          <clip explodedTracks="true" frameBlend="FALSE" id="masterclip-48">
            <uuid>9f06600c-0415-4373-a8cc-005367cb1cbe</uuid>
            <masterclipid>masterclip-48</masterclipid>
            <ismasterclip>TRUE</ismasterclip>
            <duration>672</duration>
            <in>0</in>
            <out>672</out>
            <name>Scene - LJ visemes.046.png</name>
            <rate>
              <timebase>24</timebase>
              <ntsc>FALSE</ntsc>
            </rate>
            <media>
              <video>
                <track>
                  <clipitem frameBlend="FALSE" id="clipitem-49">
                    <name>Scene - LJ visemes.046.png</name>
                    <masterclipid>masterclip-48</masterclipid>
                    <rate>
                      <timebase>24</timebase>
                      <ntsc>FALSE</ntsc>
                    </rate>
                    <alphatype>straight</alphatype>
                    <pixelaspectratio>square</pixelaspectratio>
                    <anamorphic>FALSE</anamorphic>
                    <file id="file-48">
                      <name>Scene - LJ visemes.046.png</name>
                      <pathurl>file://localhost/Users/bot/Documents/CREATE/Character Animator/LJ visemes CH2AE/demo/Scene - LJ visemes/Scene - LJ visemes.046.png</pathurl>
                      <rate>
                        <timebase>24</timebase>
                        <ntsc>FALSE</ntsc>
                      </rate>
                      <duration>672</duration>
                      <timecode>
                        <rate>
                          <timebase>24</timebase>
                          <ntsc>FALSE</ntsc>
                        </rate>
                      </timecode>
                      <media>
                        <video>
                          <duration>1</duration>
                          <samplecharacteristics>
                            <anamorphic>FALSE</anamorphic>
                            <pixelaspectratio>square</pixelaspectratio>
                            <fielddominance>none</fielddominance>
                            <width>1920</width>
                            <height>1080</height>
                          </samplecharacteristics>
                        </video>
                      </media>
                    </file>
                  </clipitem>
                </track>
              </video>
            </media>
          </clip>
          <clip explodedTracks="true" frameBlend="FALSE" id="masterclip-49">
            <uuid>1059a696-3d63-4901-b749-6726a67edc53</uuid>
            <masterclipid>masterclip-49</masterclipid>
            <ismasterclip>TRUE</ismasterclip>
            <duration>672</duration>
            <in>0</in>
            <out>672</out>
            <name>Scene - LJ visemes.047.png</name>
            <rate>
              <timebase>24</timebase>
              <ntsc>FALSE</ntsc>
            </rate>
            <media>
              <video>
                <track>
                  <clipitem frameBlend="FALSE" id="clipitem-50">
                    <name>Scene - LJ visemes.047.png</name>
                    <masterclipid>masterclip-49</masterclipid>
                    <rate>
                      <timebase>24</timebase>
                      <ntsc>FALSE</ntsc>
                    </rate>
                    <alphatype>straight</alphatype>
                    <pixelaspectratio>square</pixelaspectratio>
                    <anamorphic>FALSE</anamorphic>
                    <file id="file-49">
                      <name>Scene - LJ visemes.047.png</name>
                      <pathurl>file://localhost/Users/bot/Documents/CREATE/Character Animator/LJ visemes CH2AE/demo/Scene - LJ visemes/Scene - LJ visemes.047.png</pathurl>
                      <rate>
                        <timebase>24</timebase>
                        <ntsc>FALSE</ntsc>
                      </rate>
                      <duration>672</duration>
                      <timecode>
                        <rate>
                          <timebase>24</timebase>
                          <ntsc>FALSE</ntsc>
                        </rate>
                      </timecode>
                      <media>
                        <video>
                          <duration>1</duration>
                          <samplecharacteristics>
                            <anamorphic>FALSE</anamorphic>
                            <pixelaspectratio>square</pixelaspectratio>
                            <fielddominance>none</fielddominance>
                            <width>1920</width>
                            <height>1080</height>
                          </samplecharacteristics>
                        </video>
                      </media>
                    </file>
                  </clipitem>
                </track>
              </video>
            </media>
          </clip>
          <clip explodedTracks="true" frameBlend="FALSE" id="masterclip-50">
            <uuid>3b17d8ef-2787-4d74-b8ed-1bcccbe5a780</uuid>
            <masterclipid>masterclip-50</masterclipid>
            <ismasterclip>TRUE</ismasterclip>
            <duration>672</duration>
            <in>0</in>
            <out>672</out>
            <name>Scene - LJ visemes.048.png</name>
            <rate>
              <timebase>24</timebase>
              <ntsc>FALSE</ntsc>
            </rate>
            <media>
              <video>
                <track>
                  <clipitem frameBlend="FALSE" id="clipitem-51">
                    <name>Scene - LJ visemes.048.png</name>
                    <masterclipid>masterclip-50</masterclipid>
                    <rate>
                      <timebase>24</timebase>
                      <ntsc>FALSE</ntsc>
                    </rate>
                    <alphatype>straight</alphatype>
                    <pixelaspectratio>square</pixelaspectratio>
                    <anamorphic>FALSE</anamorphic>
                    <file id="file-50">
                      <name>Scene - LJ visemes.048.png</name>
                      <pathurl>file://localhost/Users/bot/Documents/CREATE/Character Animator/LJ visemes CH2AE/demo/Scene - LJ visemes/Scene - LJ visemes.048.png</pathurl>
                      <rate>
                        <timebase>24</timebase>
                        <ntsc>FALSE</ntsc>
                      </rate>
                      <duration>672</duration>
                      <timecode>
                        <rate>
                          <timebase>24</timebase>
                          <ntsc>FALSE</ntsc>
                        </rate>
                      </timecode>
                      <media>
                        <video>
                          <duration>1</duration>
                          <samplecharacteristics>
                            <anamorphic>FALSE</anamorphic>
                            <pixelaspectratio>square</pixelaspectratio>
                            <fielddominance>none</fielddominance>
                            <width>1920</width>
                            <height>1080</height>
                          </samplecharacteristics>
                        </video>
                      </media>
                    </file>
                  </clipitem>
                </track>
              </video>
            </media>
          </clip>
          <clip explodedTracks="true" frameBlend="FALSE" id="masterclip-51">
            <uuid>b98a0f69-786e-4675-8cb7-afa7ad368723</uuid>
            <masterclipid>masterclip-51</masterclipid>
            <ismasterclip>TRUE</ismasterclip>
            <duration>672</duration>
            <in>0</in>
            <out>672</out>
            <name>Scene - LJ visemes.049.png</name>
            <rate>
              <timebase>24</timebase>
              <ntsc>FALSE</ntsc>
            </rate>
            <media>
              <video>
                <track>
                  <clipitem frameBlend="FALSE" id="clipitem-52">
                    <name>Scene - LJ visemes.049.png</name>
                    <masterclipid>masterclip-51</masterclipid>
                    <rate>
                      <timebase>24</timebase>
                      <ntsc>FALSE</ntsc>
                    </rate>
                    <alphatype>straight</alphatype>
                    <pixelaspectratio>square</pixelaspectratio>
                    <anamorphic>FALSE</anamorphic>
                    <file id="file-51">
                      <name>Scene - LJ visemes.049.png</name>
                      <pathurl>file://localhost/Users/bot/Documents/CREATE/Character Animator/LJ visemes CH2AE/demo/Scene - LJ visemes/Scene - LJ visemes.049.png</pathurl>
                      <rate>
                        <timebase>24</timebase>
                        <ntsc>FALSE</ntsc>
                      </rate>
                      <duration>672</duration>
                      <timecode>
                        <rate>
                          <timebase>24</timebase>
                          <ntsc>FALSE</ntsc>
                        </rate>
                      </timecode>
                      <media>
                        <video>
                          <duration>1</duration>
                          <samplecharacteristics>
                            <anamorphic>FALSE</anamorphic>
                            <pixelaspectratio>square</pixelaspectratio>
                            <fielddominance>none</fielddominance>
                            <width>1920</width>
                            <height>1080</height>
                          </samplecharacteristics>
                        </video>
                      </media>
                    </file>
                  </clipitem>
                </track>
              </video>
            </media>
          </clip>
          <clip explodedTracks="true" frameBlend="FALSE" id="masterclip-52">
            <uuid>bef579e2-16a5-415c-8b3a-e9d8016f1d55</uuid>
            <masterclipid>masterclip-52</masterclipid>
            <ismasterclip>TRUE</ismasterclip>
            <duration>672</duration>
            <in>0</in>
            <out>672</out>
            <name>Scene - LJ visemes.050.png</name>
            <rate>
              <timebase>24</timebase>
              <ntsc>FALSE</ntsc>
            </rate>
            <media>
              <video>
                <track>
                  <clipitem frameBlend="FALSE" id="clipitem-53">
                    <name>Scene - LJ visemes.050.png</name>
                    <masterclipid>masterclip-52</masterclipid>
                    <rate>
                      <timebase>24</timebase>
                      <ntsc>FALSE</ntsc>
                    </rate>
                    <alphatype>straight</alphatype>
                    <pixelaspectratio>square</pixelaspectratio>
                    <anamorphic>FALSE</anamorphic>
                    <file id="file-52">
                      <name>Scene - LJ visemes.050.png</name>
                      <pathurl>file://localhost/Users/bot/Documents/CREATE/Character Animator/LJ visemes CH2AE/demo/Scene - LJ visemes/Scene - LJ visemes.050.png</pathurl>
                      <rate>
                        <timebase>24</timebase>
                        <ntsc>FALSE</ntsc>
                      </rate>
                      <duration>672</duration>
                      <timecode>
                        <rate>
                          <timebase>24</timebase>
                          <ntsc>FALSE</ntsc>
                        </rate>
                      </timecode>
                      <media>
                        <video>
                          <duration>1</duration>
                          <samplecharacteristics>
                            <anamorphic>FALSE</anamorphic>
                            <pixelaspectratio>square</pixelaspectratio>
                            <fielddominance>none</fielddominance>
                            <width>1920</width>
                            <height>1080</height>
                          </samplecharacteristics>
                        </video>
                      </media>
                    </file>
                  </clipitem>
                </track>
              </video>
            </media>
          </clip>
          <clip explodedTracks="true" frameBlend="FALSE" id="masterclip-53">
            <uuid>921e5a17-4b90-46f7-a2ff-5b08a6fa2913</uuid>
            <masterclipid>masterclip-53</masterclipid>
            <ismasterclip>TRUE</ismasterclip>
            <duration>672</duration>
            <in>0</in>
            <out>672</out>
            <name>Scene - LJ visemes.051.png</name>
            <rate>
              <timebase>24</timebase>
              <ntsc>FALSE</ntsc>
            </rate>
            <media>
              <video>
                <track>
                  <clipitem frameBlend="FALSE" id="clipitem-54">
                    <name>Scene - LJ visemes.051.png</name>
                    <masterclipid>masterclip-53</masterclipid>
                    <rate>
                      <timebase>24</timebase>
                      <ntsc>FALSE</ntsc>
                    </rate>
                    <alphatype>straight</alphatype>
                    <pixelaspectratio>square</pixelaspectratio>
                    <anamorphic>FALSE</anamorphic>
                    <file id="file-53">
                      <name>Scene - LJ visemes.051.png</name>
                      <pathurl>file://localhost/Users/bot/Documents/CREATE/Character Animator/LJ visemes CH2AE/demo/Scene - LJ visemes/Scene - LJ visemes.051.png</pathurl>
                      <rate>
                        <timebase>24</timebase>
                        <ntsc>FALSE</ntsc>
                      </rate>
                      <duration>672</duration>
                      <timecode>
                        <rate>
                          <timebase>24</timebase>
                          <ntsc>FALSE</ntsc>
                        </rate>
                      </timecode>
                      <media>
                        <video>
                          <duration>1</duration>
                          <samplecharacteristics>
                            <anamorphic>FALSE</anamorphic>
                            <pixelaspectratio>square</pixelaspectratio>
                            <fielddominance>none</fielddominance>
                            <width>1920</width>
                            <height>1080</height>
                          </samplecharacteristics>
                        </video>
                      </media>
                    </file>
                  </clipitem>
                </track>
              </video>
            </media>
          </clip>
          <clip explodedTracks="true" frameBlend="FALSE" id="masterclip-54">
            <uuid>6a7505c8-9eeb-4f55-985c-6b3c4e95548f</uuid>
            <masterclipid>masterclip-54</masterclipid>
            <ismasterclip>TRUE</ismasterclip>
            <duration>672</duration>
            <in>0</in>
            <out>672</out>
            <name>Scene - LJ visemes.052.png</name>
            <rate>
              <timebase>24</timebase>
              <ntsc>FALSE</ntsc>
            </rate>
            <media>
              <video>
                <track>
                  <clipitem frameBlend="FALSE" id="clipitem-55">
                    <name>Scene - LJ visemes.052.png</name>
                    <masterclipid>masterclip-54</masterclipid>
                    <rate>
                      <timebase>24</timebase>
                      <ntsc>FALSE</ntsc>
                    </rate>
                    <alphatype>straight</alphatype>
                    <pixelaspectratio>square</pixelaspectratio>
                    <anamorphic>FALSE</anamorphic>
                    <file id="file-54">
                      <name>Scene - LJ visemes.052.png</name>
                      <pathurl>file://localhost/Users/bot/Documents/CREATE/Character Animator/LJ visemes CH2AE/demo/Scene - LJ visemes/Scene - LJ visemes.052.png</pathurl>
                      <rate>
                        <timebase>24</timebase>
                        <ntsc>FALSE</ntsc>
                      </rate>
                      <duration>672</duration>
                      <timecode>
                        <rate>
                          <timebase>24</timebase>
                          <ntsc>FALSE</ntsc>
                        </rate>
                      </timecode>
                      <media>
                        <video>
                          <duration>1</duration>
                          <samplecharacteristics>
                            <anamorphic>FALSE</anamorphic>
                            <pixelaspectratio>square</pixelaspectratio>
                            <fielddominance>none</fielddominance>
                            <width>1920</width>
                            <height>1080</height>
                          </samplecharacteristics>
                        </video>
                      </media>
                    </file>
                  </clipitem>
                </track>
              </video>
            </media>
          </clip>
          <clip explodedTracks="true" frameBlend="FALSE" id="masterclip-55">
            <uuid>f861986f-90c1-45fd-a1f3-23099209b2a2</uuid>
            <masterclipid>masterclip-55</masterclipid>
            <ismasterclip>TRUE</ismasterclip>
            <duration>672</duration>
            <in>0</in>
            <out>672</out>
            <name>Scene - LJ visemes.053.png</name>
            <rate>
              <timebase>24</timebase>
              <ntsc>FALSE</ntsc>
            </rate>
            <media>
              <video>
                <track>
                  <clipitem frameBlend="FALSE" id="clipitem-56">
                    <name>Scene - LJ visemes.053.png</name>
                    <masterclipid>masterclip-55</masterclipid>
                    <rate>
                      <timebase>24</timebase>
                      <ntsc>FALSE</ntsc>
                    </rate>
                    <alphatype>straight</alphatype>
                    <pixelaspectratio>square</pixelaspectratio>
                    <anamorphic>FALSE</anamorphic>
                    <file id="file-55">
                      <name>Scene - LJ visemes.053.png</name>
                      <pathurl>file://localhost/Users/bot/Documents/CREATE/Character Animator/LJ visemes CH2AE/demo/Scene - LJ visemes/Scene - LJ visemes.053.png</pathurl>
                      <rate>
                        <timebase>24</timebase>
                        <ntsc>FALSE</ntsc>
                      </rate>
                      <duration>672</duration>
                      <timecode>
                        <rate>
                          <timebase>24</timebase>
                          <ntsc>FALSE</ntsc>
                        </rate>
                      </timecode>
                      <media>
                        <video>
                          <duration>1</duration>
                          <samplecharacteristics>
                            <anamorphic>FALSE</anamorphic>
                            <pixelaspectratio>square</pixelaspectratio>
                            <fielddominance>none</fielddominance>
                            <width>1920</width>
                            <height>1080</height>
                          </samplecharacteristics>
                        </video>
                      </media>
                    </file>
                  </clipitem>
                </track>
              </video>
            </media>
          </clip>
          <clip explodedTracks="true" frameBlend="FALSE" id="masterclip-56">
            <uuid>05d69225-a24a-435e-b036-e1b7a2e4e570</uuid>
            <masterclipid>masterclip-56</masterclipid>
            <ismasterclip>TRUE</ismasterclip>
            <duration>672</duration>
            <in>0</in>
            <out>672</out>
            <name>Scene - LJ visemes.054.png</name>
            <rate>
              <timebase>24</timebase>
              <ntsc>FALSE</ntsc>
            </rate>
            <media>
              <video>
                <track>
                  <clipitem frameBlend="FALSE" id="clipitem-57">
                    <name>Scene - LJ visemes.054.png</name>
                    <masterclipid>masterclip-56</masterclipid>
                    <rate>
                      <timebase>24</timebase>
                      <ntsc>FALSE</ntsc>
                    </rate>
                    <alphatype>straight</alphatype>
                    <pixelaspectratio>square</pixelaspectratio>
                    <anamorphic>FALSE</anamorphic>
                    <file id="file-56">
                      <name>Scene - LJ visemes.054.png</name>
                      <pathurl>file://localhost/Users/bot/Documents/CREATE/Character Animator/LJ visemes CH2AE/demo/Scene - LJ visemes/Scene - LJ visemes.054.png</pathurl>
                      <rate>
                        <timebase>24</timebase>
                        <ntsc>FALSE</ntsc>
                      </rate>
                      <duration>672</duration>
                      <timecode>
                        <rate>
                          <timebase>24</timebase>
                          <ntsc>FALSE</ntsc>
                        </rate>
                      </timecode>
                      <media>
                        <video>
                          <duration>1</duration>
                          <samplecharacteristics>
                            <anamorphic>FALSE</anamorphic>
                            <pixelaspectratio>square</pixelaspectratio>
                            <fielddominance>none</fielddominance>
                            <width>1920</width>
                            <height>1080</height>
                          </samplecharacteristics>
                        </video>
                      </media>
                    </file>
                  </clipitem>
                </track>
              </video>
            </media>
          </clip>
          <clip explodedTracks="true" frameBlend="FALSE" id="masterclip-57">
            <uuid>5d9338a6-bcae-4a0a-8d98-d6f218f67ac2</uuid>
            <masterclipid>masterclip-57</masterclipid>
            <ismasterclip>TRUE</ismasterclip>
            <duration>672</duration>
            <in>0</in>
            <out>672</out>
            <name>Scene - LJ visemes.055.png</name>
            <rate>
              <timebase>24</timebase>
              <ntsc>FALSE</ntsc>
            </rate>
            <media>
              <video>
                <track>
                  <clipitem frameBlend="FALSE" id="clipitem-58">
                    <name>Scene - LJ visemes.055.png</name>
                    <masterclipid>masterclip-57</masterclipid>
                    <rate>
                      <timebase>24</timebase>
                      <ntsc>FALSE</ntsc>
                    </rate>
                    <alphatype>straight</alphatype>
                    <pixelaspectratio>square</pixelaspectratio>
                    <anamorphic>FALSE</anamorphic>
                    <file id="file-57">
                      <name>Scene - LJ visemes.055.png</name>
                      <pathurl>file://localhost/Users/bot/Documents/CREATE/Character Animator/LJ visemes CH2AE/demo/Scene - LJ visemes/Scene - LJ visemes.055.png</pathurl>
                      <rate>
                        <timebase>24</timebase>
                        <ntsc>FALSE</ntsc>
                      </rate>
                      <duration>672</duration>
                      <timecode>
                        <rate>
                          <timebase>24</timebase>
                          <ntsc>FALSE</ntsc>
                        </rate>
                      </timecode>
                      <media>
                        <video>
                          <duration>1</duration>
                          <samplecharacteristics>
                            <anamorphic>FALSE</anamorphic>
                            <pixelaspectratio>square</pixelaspectratio>
                            <fielddominance>none</fielddominance>
                            <width>1920</width>
                            <height>1080</height>
                          </samplecharacteristics>
                        </video>
                      </media>
                    </file>
                  </clipitem>
                </track>
              </video>
            </media>
          </clip>
          <clip explodedTracks="true" frameBlend="FALSE" id="masterclip-58">
            <uuid>d5e3a2db-c0f0-49cc-a7e4-addc1c7ea210</uuid>
            <masterclipid>masterclip-58</masterclipid>
            <ismasterclip>TRUE</ismasterclip>
            <duration>672</duration>
            <in>0</in>
            <out>672</out>
            <name>Scene - LJ visemes.056.png</name>
            <rate>
              <timebase>24</timebase>
              <ntsc>FALSE</ntsc>
            </rate>
            <media>
              <video>
                <track>
                  <clipitem frameBlend="FALSE" id="clipitem-59">
                    <name>Scene - LJ visemes.056.png</name>
                    <masterclipid>masterclip-58</masterclipid>
                    <rate>
                      <timebase>24</timebase>
                      <ntsc>FALSE</ntsc>
                    </rate>
                    <alphatype>straight</alphatype>
                    <pixelaspectratio>square</pixelaspectratio>
                    <anamorphic>FALSE</anamorphic>
                    <file id="file-58">
                      <name>Scene - LJ visemes.056.png</name>
                      <pathurl>file://localhost/Users/bot/Documents/CREATE/Character Animator/LJ visemes CH2AE/demo/Scene - LJ visemes/Scene - LJ visemes.056.png</pathurl>
                      <rate>
                        <timebase>24</timebase>
                        <ntsc>FALSE</ntsc>
                      </rate>
                      <duration>672</duration>
                      <timecode>
                        <rate>
                          <timebase>24</timebase>
                          <ntsc>FALSE</ntsc>
                        </rate>
                      </timecode>
                      <media>
                        <video>
                          <duration>1</duration>
                          <samplecharacteristics>
                            <anamorphic>FALSE</anamorphic>
                            <pixelaspectratio>square</pixelaspectratio>
                            <fielddominance>none</fielddominance>
                            <width>1920</width>
                            <height>1080</height>
                          </samplecharacteristics>
                        </video>
                      </media>
                    </file>
                  </clipitem>
                </track>
              </video>
            </media>
          </clip>
          <clip explodedTracks="true" frameBlend="FALSE" id="masterclip-59">
            <uuid>f9d1071e-a07a-45ee-a522-1cb383ab3b3b</uuid>
            <masterclipid>masterclip-59</masterclipid>
            <ismasterclip>TRUE</ismasterclip>
            <duration>672</duration>
            <in>0</in>
            <out>672</out>
            <name>Scene - LJ visemes.057.png</name>
            <rate>
              <timebase>24</timebase>
              <ntsc>FALSE</ntsc>
            </rate>
            <media>
              <video>
                <track>
                  <clipitem frameBlend="FALSE" id="clipitem-60">
                    <name>Scene - LJ visemes.057.png</name>
                    <masterclipid>masterclip-59</masterclipid>
                    <rate>
                      <timebase>24</timebase>
                      <ntsc>FALSE</ntsc>
                    </rate>
                    <alphatype>straight</alphatype>
                    <pixelaspectratio>square</pixelaspectratio>
                    <anamorphic>FALSE</anamorphic>
                    <file id="file-59">
                      <name>Scene - LJ visemes.057.png</name>
                      <pathurl>file://localhost/Users/bot/Documents/CREATE/Character Animator/LJ visemes CH2AE/demo/Scene - LJ visemes/Scene - LJ visemes.057.png</pathurl>
                      <rate>
                        <timebase>24</timebase>
                        <ntsc>FALSE</ntsc>
                      </rate>
                      <duration>672</duration>
                      <timecode>
                        <rate>
                          <timebase>24</timebase>
                          <ntsc>FALSE</ntsc>
                        </rate>
                      </timecode>
                      <media>
                        <video>
                          <duration>1</duration>
                          <samplecharacteristics>
                            <anamorphic>FALSE</anamorphic>
                            <pixelaspectratio>square</pixelaspectratio>
                            <fielddominance>none</fielddominance>
                            <width>1920</width>
                            <height>1080</height>
                          </samplecharacteristics>
                        </video>
                      </media>
                    </file>
                  </clipitem>
                </track>
              </video>
            </media>
          </clip>
          <clip explodedTracks="true" frameBlend="FALSE" id="masterclip-60">
            <uuid>af141576-3f0f-4617-a263-a122bcd75b68</uuid>
            <masterclipid>masterclip-60</masterclipid>
            <ismasterclip>TRUE</ismasterclip>
            <duration>672</duration>
            <in>0</in>
            <out>672</out>
            <name>Scene - LJ visemes.058.png</name>
            <rate>
              <timebase>24</timebase>
              <ntsc>FALSE</ntsc>
            </rate>
            <media>
              <video>
                <track>
                  <clipitem frameBlend="FALSE" id="clipitem-61">
                    <name>Scene - LJ visemes.058.png</name>
                    <masterclipid>masterclip-60</masterclipid>
                    <rate>
                      <timebase>24</timebase>
                      <ntsc>FALSE</ntsc>
                    </rate>
                    <alphatype>straight</alphatype>
                    <pixelaspectratio>square</pixelaspectratio>
                    <anamorphic>FALSE</anamorphic>
                    <file id="file-60">
                      <name>Scene - LJ visemes.058.png</name>
                      <pathurl>file://localhost/Users/bot/Documents/CREATE/Character Animator/LJ visemes CH2AE/demo/Scene - LJ visemes/Scene - LJ visemes.058.png</pathurl>
                      <rate>
                        <timebase>24</timebase>
                        <ntsc>FALSE</ntsc>
                      </rate>
                      <duration>672</duration>
                      <timecode>
                        <rate>
                          <timebase>24</timebase>
                          <ntsc>FALSE</ntsc>
                        </rate>
                      </timecode>
                      <media>
                        <video>
                          <duration>1</duration>
                          <samplecharacteristics>
                            <anamorphic>FALSE</anamorphic>
                            <pixelaspectratio>square</pixelaspectratio>
                            <fielddominance>none</fielddominance>
                            <width>1920</width>
                            <height>1080</height>
                          </samplecharacteristics>
                        </video>
                      </media>
                    </file>
                  </clipitem>
                </track>
              </video>
            </media>
          </clip>
          <clip explodedTracks="true" frameBlend="FALSE" id="masterclip-61">
            <uuid>bd77a694-93a5-4349-aafb-f4435715d0e7</uuid>
            <masterclipid>masterclip-61</masterclipid>
            <ismasterclip>TRUE</ismasterclip>
            <duration>672</duration>
            <in>0</in>
            <out>672</out>
            <name>Scene - LJ visemes.059.png</name>
            <rate>
              <timebase>24</timebase>
              <ntsc>FALSE</ntsc>
            </rate>
            <media>
              <video>
                <track>
                  <clipitem frameBlend="FALSE" id="clipitem-62">
                    <name>Scene - LJ visemes.059.png</name>
                    <masterclipid>masterclip-61</masterclipid>
                    <rate>
                      <timebase>24</timebase>
                      <ntsc>FALSE</ntsc>
                    </rate>
                    <alphatype>straight</alphatype>
                    <pixelaspectratio>square</pixelaspectratio>
                    <anamorphic>FALSE</anamorphic>
                    <file id="file-61">
                      <name>Scene - LJ visemes.059.png</name>
                      <pathurl>file://localhost/Users/bot/Documents/CREATE/Character Animator/LJ visemes CH2AE/demo/Scene - LJ visemes/Scene - LJ visemes.059.png</pathurl>
                      <rate>
                        <timebase>24</timebase>
                        <ntsc>FALSE</ntsc>
                      </rate>
                      <duration>672</duration>
                      <timecode>
                        <rate>
                          <timebase>24</timebase>
                          <ntsc>FALSE</ntsc>
                        </rate>
                      </timecode>
                      <media>
                        <video>
                          <duration>1</duration>
                          <samplecharacteristics>
                            <anamorphic>FALSE</anamorphic>
                            <pixelaspectratio>square</pixelaspectratio>
                            <fielddominance>none</fielddominance>
                            <width>1920</width>
                            <height>1080</height>
                          </samplecharacteristics>
                        </video>
                      </media>
                    </file>
                  </clipitem>
                </track>
              </video>
            </media>
          </clip>
          <clip explodedTracks="true" frameBlend="FALSE" id="masterclip-62">
            <uuid>ff4714ed-2a3d-4b6d-a167-00de854358a9</uuid>
            <masterclipid>masterclip-62</masterclipid>
            <ismasterclip>TRUE</ismasterclip>
            <duration>672</duration>
            <in>0</in>
            <out>672</out>
            <name>Scene - LJ visemes.060.png</name>
            <rate>
              <timebase>24</timebase>
              <ntsc>FALSE</ntsc>
            </rate>
            <media>
              <video>
                <track>
                  <clipitem frameBlend="FALSE" id="clipitem-63">
                    <name>Scene - LJ visemes.060.png</name>
                    <masterclipid>masterclip-62</masterclipid>
                    <rate>
                      <timebase>24</timebase>
                      <ntsc>FALSE</ntsc>
                    </rate>
                    <alphatype>straight</alphatype>
                    <pixelaspectratio>square</pixelaspectratio>
                    <anamorphic>FALSE</anamorphic>
                    <file id="file-62">
                      <name>Scene - LJ visemes.060.png</name>
                      <pathurl>file://localhost/Users/bot/Documents/CREATE/Character Animator/LJ visemes CH2AE/demo/Scene - LJ visemes/Scene - LJ visemes.060.png</pathurl>
                      <rate>
                        <timebase>24</timebase>
                        <ntsc>FALSE</ntsc>
                      </rate>
                      <duration>672</duration>
                      <timecode>
                        <rate>
                          <timebase>24</timebase>
                          <ntsc>FALSE</ntsc>
                        </rate>
                      </timecode>
                      <media>
                        <video>
                          <duration>1</duration>
                          <samplecharacteristics>
                            <anamorphic>FALSE</anamorphic>
                            <pixelaspectratio>square</pixelaspectratio>
                            <fielddominance>none</fielddominance>
                            <width>1920</width>
                            <height>1080</height>
                          </samplecharacteristics>
                        </video>
                      </media>
                    </file>
                  </clipitem>
                </track>
              </video>
            </media>
          </clip>
          <clip explodedTracks="true" frameBlend="FALSE" id="masterclip-63">
            <uuid>aa67258d-edff-42b6-a138-c7f43e6d9cab</uuid>
            <masterclipid>masterclip-63</masterclipid>
            <ismasterclip>TRUE</ismasterclip>
            <duration>672</duration>
            <in>0</in>
            <out>672</out>
            <name>Scene - LJ visemes.061.png</name>
            <rate>
              <timebase>24</timebase>
              <ntsc>FALSE</ntsc>
            </rate>
            <media>
              <video>
                <track>
                  <clipitem frameBlend="FALSE" id="clipitem-64">
                    <name>Scene - LJ visemes.061.png</name>
                    <masterclipid>masterclip-63</masterclipid>
                    <rate>
                      <timebase>24</timebase>
                      <ntsc>FALSE</ntsc>
                    </rate>
                    <alphatype>straight</alphatype>
                    <pixelaspectratio>square</pixelaspectratio>
                    <anamorphic>FALSE</anamorphic>
                    <file id="file-63">
                      <name>Scene - LJ visemes.061.png</name>
                      <pathurl>file://localhost/Users/bot/Documents/CREATE/Character Animator/LJ visemes CH2AE/demo/Scene - LJ visemes/Scene - LJ visemes.061.png</pathurl>
                      <rate>
                        <timebase>24</timebase>
                        <ntsc>FALSE</ntsc>
                      </rate>
                      <duration>672</duration>
                      <timecode>
                        <rate>
                          <timebase>24</timebase>
                          <ntsc>FALSE</ntsc>
                        </rate>
                      </timecode>
                      <media>
                        <video>
                          <duration>1</duration>
                          <samplecharacteristics>
                            <anamorphic>FALSE</anamorphic>
                            <pixelaspectratio>square</pixelaspectratio>
                            <fielddominance>none</fielddominance>
                            <width>1920</width>
                            <height>1080</height>
                          </samplecharacteristics>
                        </video>
                      </media>
                    </file>
                  </clipitem>
                </track>
              </video>
            </media>
          </clip>
          <clip explodedTracks="true" frameBlend="FALSE" id="masterclip-64">
            <uuid>45f4f8ba-309c-430d-b1e7-0049e72e61f6</uuid>
            <masterclipid>masterclip-64</masterclipid>
            <ismasterclip>TRUE</ismasterclip>
            <duration>672</duration>
            <in>0</in>
            <out>672</out>
            <name>Scene - LJ visemes.062.png</name>
            <rate>
              <timebase>24</timebase>
              <ntsc>FALSE</ntsc>
            </rate>
            <media>
              <video>
                <track>
                  <clipitem frameBlend="FALSE" id="clipitem-65">
                    <name>Scene - LJ visemes.062.png</name>
                    <masterclipid>masterclip-64</masterclipid>
                    <rate>
                      <timebase>24</timebase>
                      <ntsc>FALSE</ntsc>
                    </rate>
                    <alphatype>straight</alphatype>
                    <pixelaspectratio>square</pixelaspectratio>
                    <anamorphic>FALSE</anamorphic>
                    <file id="file-64">
                      <name>Scene - LJ visemes.062.png</name>
                      <pathurl>file://localhost/Users/bot/Documents/CREATE/Character Animator/LJ visemes CH2AE/demo/Scene - LJ visemes/Scene - LJ visemes.062.png</pathurl>
                      <rate>
                        <timebase>24</timebase>
                        <ntsc>FALSE</ntsc>
                      </rate>
                      <duration>672</duration>
                      <timecode>
                        <rate>
                          <timebase>24</timebase>
                          <ntsc>FALSE</ntsc>
                        </rate>
                      </timecode>
                      <media>
                        <video>
                          <duration>1</duration>
                          <samplecharacteristics>
                            <anamorphic>FALSE</anamorphic>
                            <pixelaspectratio>square</pixelaspectratio>
                            <fielddominance>none</fielddominance>
                            <width>1920</width>
                            <height>1080</height>
                          </samplecharacteristics>
                        </video>
                      </media>
                    </file>
                  </clipitem>
                </track>
              </video>
            </media>
          </clip>
          <clip explodedTracks="true" frameBlend="FALSE" id="masterclip-65">
            <uuid>c18b8c32-c9d6-4ed7-9913-35bbfc90f2fb</uuid>
            <masterclipid>masterclip-65</masterclipid>
            <ismasterclip>TRUE</ismasterclip>
            <duration>672</duration>
            <in>0</in>
            <out>672</out>
            <name>Scene - LJ visemes.063.png</name>
            <rate>
              <timebase>24</timebase>
              <ntsc>FALSE</ntsc>
            </rate>
            <media>
              <video>
                <track>
                  <clipitem frameBlend="FALSE" id="clipitem-66">
                    <name>Scene - LJ visemes.063.png</name>
                    <masterclipid>masterclip-65</masterclipid>
                    <rate>
                      <timebase>24</timebase>
                      <ntsc>FALSE</ntsc>
                    </rate>
                    <alphatype>straight</alphatype>
                    <pixelaspectratio>square</pixelaspectratio>
                    <anamorphic>FALSE</anamorphic>
                    <file id="file-65">
                      <name>Scene - LJ visemes.063.png</name>
                      <pathurl>file://localhost/Users/bot/Documents/CREATE/Character Animator/LJ visemes CH2AE/demo/Scene - LJ visemes/Scene - LJ visemes.063.png</pathurl>
                      <rate>
                        <timebase>24</timebase>
                        <ntsc>FALSE</ntsc>
                      </rate>
                      <duration>672</duration>
                      <timecode>
                        <rate>
                          <timebase>24</timebase>
                          <ntsc>FALSE</ntsc>
                        </rate>
                      </timecode>
                      <media>
                        <video>
                          <duration>1</duration>
                          <samplecharacteristics>
                            <anamorphic>FALSE</anamorphic>
                            <pixelaspectratio>square</pixelaspectratio>
                            <fielddominance>none</fielddominance>
                            <width>1920</width>
                            <height>1080</height>
                          </samplecharacteristics>
                        </video>
                      </media>
                    </file>
                  </clipitem>
                </track>
              </video>
            </media>
          </clip>
          <clip explodedTracks="true" frameBlend="FALSE" id="masterclip-66">
            <uuid>033449f5-ee86-496f-af41-7c3bf47367b4</uuid>
            <masterclipid>masterclip-66</masterclipid>
            <ismasterclip>TRUE</ismasterclip>
            <duration>672</duration>
            <in>0</in>
            <out>672</out>
            <name>Scene - LJ visemes.064.png</name>
            <rate>
              <timebase>24</timebase>
              <ntsc>FALSE</ntsc>
            </rate>
            <media>
              <video>
                <track>
                  <clipitem frameBlend="FALSE" id="clipitem-67">
                    <name>Scene - LJ visemes.064.png</name>
                    <masterclipid>masterclip-66</masterclipid>
                    <rate>
                      <timebase>24</timebase>
                      <ntsc>FALSE</ntsc>
                    </rate>
                    <alphatype>straight</alphatype>
                    <pixelaspectratio>square</pixelaspectratio>
                    <anamorphic>FALSE</anamorphic>
                    <file id="file-66">
                      <name>Scene - LJ visemes.064.png</name>
                      <pathurl>file://localhost/Users/bot/Documents/CREATE/Character Animator/LJ visemes CH2AE/demo/Scene - LJ visemes/Scene - LJ visemes.064.png</pathurl>
                      <rate>
                        <timebase>24</timebase>
                        <ntsc>FALSE</ntsc>
                      </rate>
                      <duration>672</duration>
                      <timecode>
                        <rate>
                          <timebase>24</timebase>
                          <ntsc>FALSE</ntsc>
                        </rate>
                      </timecode>
                      <media>
                        <video>
                          <duration>1</duration>
                          <samplecharacteristics>
                            <anamorphic>FALSE</anamorphic>
                            <pixelaspectratio>square</pixelaspectratio>
                            <fielddominance>none</fielddominance>
                            <width>1920</width>
                            <height>1080</height>
                          </samplecharacteristics>
                        </video>
                      </media>
                    </file>
                  </clipitem>
                </track>
              </video>
            </media>
          </clip>
          <clip explodedTracks="true" frameBlend="FALSE" id="masterclip-67">
            <uuid>03d55d7a-25cb-499a-b3ca-887a01d8e2fd</uuid>
            <masterclipid>masterclip-67</masterclipid>
            <ismasterclip>TRUE</ismasterclip>
            <duration>672</duration>
            <in>0</in>
            <out>672</out>
            <name>Scene - LJ visemes.065.png</name>
            <rate>
              <timebase>24</timebase>
              <ntsc>FALSE</ntsc>
            </rate>
            <media>
              <video>
                <track>
                  <clipitem frameBlend="FALSE" id="clipitem-68">
                    <name>Scene - LJ visemes.065.png</name>
                    <masterclipid>masterclip-67</masterclipid>
                    <rate>
                      <timebase>24</timebase>
                      <ntsc>FALSE</ntsc>
                    </rate>
                    <alphatype>straight</alphatype>
                    <pixelaspectratio>square</pixelaspectratio>
                    <anamorphic>FALSE</anamorphic>
                    <file id="file-67">
                      <name>Scene - LJ visemes.065.png</name>
                      <pathurl>file://localhost/Users/bot/Documents/CREATE/Character Animator/LJ visemes CH2AE/demo/Scene - LJ visemes/Scene - LJ visemes.065.png</pathurl>
                      <rate>
                        <timebase>24</timebase>
                        <ntsc>FALSE</ntsc>
                      </rate>
                      <duration>672</duration>
                      <timecode>
                        <rate>
                          <timebase>24</timebase>
                          <ntsc>FALSE</ntsc>
                        </rate>
                      </timecode>
                      <media>
                        <video>
                          <duration>1</duration>
                          <samplecharacteristics>
                            <anamorphic>FALSE</anamorphic>
                            <pixelaspectratio>square</pixelaspectratio>
                            <fielddominance>none</fielddominance>
                            <width>1920</width>
                            <height>1080</height>
                          </samplecharacteristics>
                        </video>
                      </media>
                    </file>
                  </clipitem>
                </track>
              </video>
            </media>
          </clip>
          <clip explodedTracks="true" frameBlend="FALSE" id="masterclip-68">
            <uuid>f0eeaef2-3972-4e98-9b14-c0d4ca116bce</uuid>
            <masterclipid>masterclip-68</masterclipid>
            <ismasterclip>TRUE</ismasterclip>
            <duration>672</duration>
            <in>0</in>
            <out>672</out>
            <name>Scene - LJ visemes.066.png</name>
            <rate>
              <timebase>24</timebase>
              <ntsc>FALSE</ntsc>
            </rate>
            <media>
              <video>
                <track>
                  <clipitem frameBlend="FALSE" id="clipitem-69">
                    <name>Scene - LJ visemes.066.png</name>
                    <masterclipid>masterclip-68</masterclipid>
                    <rate>
                      <timebase>24</timebase>
                      <ntsc>FALSE</ntsc>
                    </rate>
                    <alphatype>straight</alphatype>
                    <pixelaspectratio>square</pixelaspectratio>
                    <anamorphic>FALSE</anamorphic>
                    <file id="file-68">
                      <name>Scene - LJ visemes.066.png</name>
                      <pathurl>file://localhost/Users/bot/Documents/CREATE/Character Animator/LJ visemes CH2AE/demo/Scene - LJ visemes/Scene - LJ visemes.066.png</pathurl>
                      <rate>
                        <timebase>24</timebase>
                        <ntsc>FALSE</ntsc>
                      </rate>
                      <duration>672</duration>
                      <timecode>
                        <rate>
                          <timebase>24</timebase>
                          <ntsc>FALSE</ntsc>
                        </rate>
                      </timecode>
                      <media>
                        <video>
                          <duration>1</duration>
                          <samplecharacteristics>
                            <anamorphic>FALSE</anamorphic>
                            <pixelaspectratio>square</pixelaspectratio>
                            <fielddominance>none</fielddominance>
                            <width>1920</width>
                            <height>1080</height>
                          </samplecharacteristics>
                        </video>
                      </media>
                    </file>
                  </clipitem>
                </track>
              </video>
            </media>
          </clip>
          <clip explodedTracks="true" frameBlend="FALSE" id="masterclip-69">
            <uuid>f8bf6f7e-629c-4ef9-b686-01bef166b5e0</uuid>
            <masterclipid>masterclip-69</masterclipid>
            <ismasterclip>TRUE</ismasterclip>
            <duration>672</duration>
            <in>0</in>
            <out>672</out>
            <name>Scene - LJ visemes.067.png</name>
            <rate>
              <timebase>24</timebase>
              <ntsc>FALSE</ntsc>
            </rate>
            <media>
              <video>
                <track>
                  <clipitem frameBlend="FALSE" id="clipitem-70">
                    <name>Scene - LJ visemes.067.png</name>
                    <masterclipid>masterclip-69</masterclipid>
                    <rate>
                      <timebase>24</timebase>
                      <ntsc>FALSE</ntsc>
                    </rate>
                    <alphatype>straight</alphatype>
                    <pixelaspectratio>square</pixelaspectratio>
                    <anamorphic>FALSE</anamorphic>
                    <file id="file-69">
                      <name>Scene - LJ visemes.067.png</name>
                      <pathurl>file://localhost/Users/bot/Documents/CREATE/Character Animator/LJ visemes CH2AE/demo/Scene - LJ visemes/Scene - LJ visemes.067.png</pathurl>
                      <rate>
                        <timebase>24</timebase>
                        <ntsc>FALSE</ntsc>
                      </rate>
                      <duration>672</duration>
                      <timecode>
                        <rate>
                          <timebase>24</timebase>
                          <ntsc>FALSE</ntsc>
                        </rate>
                      </timecode>
                      <media>
                        <video>
                          <duration>1</duration>
                          <samplecharacteristics>
                            <anamorphic>FALSE</anamorphic>
                            <pixelaspectratio>square</pixelaspectratio>
                            <fielddominance>none</fielddominance>
                            <width>1920</width>
                            <height>1080</height>
                          </samplecharacteristics>
                        </video>
                      </media>
                    </file>
                  </clipitem>
                </track>
              </video>
            </media>
          </clip>
          <clip explodedTracks="true" frameBlend="FALSE" id="masterclip-70">
            <uuid>da3c1b05-55c0-4dcb-8ee4-2c5040293e1a</uuid>
            <masterclipid>masterclip-70</masterclipid>
            <ismasterclip>TRUE</ismasterclip>
            <duration>672</duration>
            <in>0</in>
            <out>672</out>
            <name>Scene - LJ visemes.068.png</name>
            <rate>
              <timebase>24</timebase>
              <ntsc>FALSE</ntsc>
            </rate>
            <media>
              <video>
                <track>
                  <clipitem frameBlend="FALSE" id="clipitem-71">
                    <name>Scene - LJ visemes.068.png</name>
                    <masterclipid>masterclip-70</masterclipid>
                    <rate>
                      <timebase>24</timebase>
                      <ntsc>FALSE</ntsc>
                    </rate>
                    <alphatype>straight</alphatype>
                    <pixelaspectratio>square</pixelaspectratio>
                    <anamorphic>FALSE</anamorphic>
                    <file id="file-70">
                      <name>Scene - LJ visemes.068.png</name>
                      <pathurl>file://localhost/Users/bot/Documents/CREATE/Character Animator/LJ visemes CH2AE/demo/Scene - LJ visemes/Scene - LJ visemes.068.png</pathurl>
                      <rate>
                        <timebase>24</timebase>
                        <ntsc>FALSE</ntsc>
                      </rate>
                      <duration>672</duration>
                      <timecode>
                        <rate>
                          <timebase>24</timebase>
                          <ntsc>FALSE</ntsc>
                        </rate>
                      </timecode>
                      <media>
                        <video>
                          <duration>1</duration>
                          <samplecharacteristics>
                            <anamorphic>FALSE</anamorphic>
                            <pixelaspectratio>square</pixelaspectratio>
                            <fielddominance>none</fielddominance>
                            <width>1920</width>
                            <height>1080</height>
                          </samplecharacteristics>
                        </video>
                      </media>
                    </file>
                  </clipitem>
                </track>
              </video>
            </media>
          </clip>
          <clip explodedTracks="true" frameBlend="FALSE" id="masterclip-71">
            <uuid>162b7070-8292-4e8f-8567-ad94c7ddb11d</uuid>
            <masterclipid>masterclip-71</masterclipid>
            <ismasterclip>TRUE</ismasterclip>
            <duration>672</duration>
            <in>0</in>
            <out>672</out>
            <name>Scene - LJ visemes.069.png</name>
            <rate>
              <timebase>24</timebase>
              <ntsc>FALSE</ntsc>
            </rate>
            <media>
              <video>
                <track>
                  <clipitem frameBlend="FALSE" id="clipitem-72">
                    <name>Scene - LJ visemes.069.png</name>
                    <masterclipid>masterclip-71</masterclipid>
                    <rate>
                      <timebase>24</timebase>
                      <ntsc>FALSE</ntsc>
                    </rate>
                    <alphatype>straight</alphatype>
                    <pixelaspectratio>square</pixelaspectratio>
                    <anamorphic>FALSE</anamorphic>
                    <file id="file-71">
                      <name>Scene - LJ visemes.069.png</name>
                      <pathurl>file://localhost/Users/bot/Documents/CREATE/Character Animator/LJ visemes CH2AE/demo/Scene - LJ visemes/Scene - LJ visemes.069.png</pathurl>
                      <rate>
                        <timebase>24</timebase>
                        <ntsc>FALSE</ntsc>
                      </rate>
                      <duration>672</duration>
                      <timecode>
                        <rate>
                          <timebase>24</timebase>
                          <ntsc>FALSE</ntsc>
                        </rate>
                      </timecode>
                      <media>
                        <video>
                          <duration>1</duration>
                          <samplecharacteristics>
                            <anamorphic>FALSE</anamorphic>
                            <pixelaspectratio>square</pixelaspectratio>
                            <fielddominance>none</fielddominance>
                            <width>1920</width>
                            <height>1080</height>
                          </samplecharacteristics>
                        </video>
                      </media>
                    </file>
                  </clipitem>
                </track>
              </video>
            </media>
          </clip>
          <clip explodedTracks="true" frameBlend="FALSE" id="masterclip-72">
            <uuid>be3b994e-2b85-4fa1-983c-fcaeb1c5a1f4</uuid>
            <masterclipid>masterclip-72</masterclipid>
            <ismasterclip>TRUE</ismasterclip>
            <duration>672</duration>
            <in>0</in>
            <out>672</out>
            <name>Scene - LJ visemes.070.png</name>
            <rate>
              <timebase>24</timebase>
              <ntsc>FALSE</ntsc>
            </rate>
            <media>
              <video>
                <track>
                  <clipitem frameBlend="FALSE" id="clipitem-73">
                    <name>Scene - LJ visemes.070.png</name>
                    <masterclipid>masterclip-72</masterclipid>
                    <rate>
                      <timebase>24</timebase>
                      <ntsc>FALSE</ntsc>
                    </rate>
                    <alphatype>straight</alphatype>
                    <pixelaspectratio>square</pixelaspectratio>
                    <anamorphic>FALSE</anamorphic>
                    <file id="file-72">
                      <name>Scene - LJ visemes.070.png</name>
                      <pathurl>file://localhost/Users/bot/Documents/CREATE/Character Animator/LJ visemes CH2AE/demo/Scene - LJ visemes/Scene - LJ visemes.070.png</pathurl>
                      <rate>
                        <timebase>24</timebase>
                        <ntsc>FALSE</ntsc>
                      </rate>
                      <duration>672</duration>
                      <timecode>
                        <rate>
                          <timebase>24</timebase>
                          <ntsc>FALSE</ntsc>
                        </rate>
                      </timecode>
                      <media>
                        <video>
                          <duration>1</duration>
                          <samplecharacteristics>
                            <anamorphic>FALSE</anamorphic>
                            <pixelaspectratio>square</pixelaspectratio>
                            <fielddominance>none</fielddominance>
                            <width>1920</width>
                            <height>1080</height>
                          </samplecharacteristics>
                        </video>
                      </media>
                    </file>
                  </clipitem>
                </track>
              </video>
            </media>
          </clip>
          <clip explodedTracks="true" frameBlend="FALSE" id="masterclip-73">
            <uuid>7971d147-da53-4919-8acf-396a4ff1a750</uuid>
            <masterclipid>masterclip-73</masterclipid>
            <ismasterclip>TRUE</ismasterclip>
            <duration>672</duration>
            <in>0</in>
            <out>672</out>
            <name>Scene - LJ visemes.071.png</name>
            <rate>
              <timebase>24</timebase>
              <ntsc>FALSE</ntsc>
            </rate>
            <media>
              <video>
                <track>
                  <clipitem frameBlend="FALSE" id="clipitem-74">
                    <name>Scene - LJ visemes.071.png</name>
                    <masterclipid>masterclip-73</masterclipid>
                    <rate>
                      <timebase>24</timebase>
                      <ntsc>FALSE</ntsc>
                    </rate>
                    <alphatype>straight</alphatype>
                    <pixelaspectratio>square</pixelaspectratio>
                    <anamorphic>FALSE</anamorphic>
                    <file id="file-73">
                      <name>Scene - LJ visemes.071.png</name>
                      <pathurl>file://localhost/Users/bot/Documents/CREATE/Character Animator/LJ visemes CH2AE/demo/Scene - LJ visemes/Scene - LJ visemes.071.png</pathurl>
                      <rate>
                        <timebase>24</timebase>
                        <ntsc>FALSE</ntsc>
                      </rate>
                      <duration>672</duration>
                      <timecode>
                        <rate>
                          <timebase>24</timebase>
                          <ntsc>FALSE</ntsc>
                        </rate>
                      </timecode>
                      <media>
                        <video>
                          <duration>1</duration>
                          <samplecharacteristics>
                            <anamorphic>FALSE</anamorphic>
                            <pixelaspectratio>square</pixelaspectratio>
                            <fielddominance>none</fielddominance>
                            <width>1920</width>
                            <height>1080</height>
                          </samplecharacteristics>
                        </video>
                      </media>
                    </file>
                  </clipitem>
                </track>
              </video>
            </media>
          </clip>
          <clip explodedTracks="true" frameBlend="FALSE" id="masterclip-74">
            <uuid>b3d2b8da-a2af-43ab-ae92-d0bb3db5e75e</uuid>
            <masterclipid>masterclip-74</masterclipid>
            <ismasterclip>TRUE</ismasterclip>
            <duration>672</duration>
            <in>0</in>
            <out>672</out>
            <name>Scene - LJ visemes.072.png</name>
            <rate>
              <timebase>24</timebase>
              <ntsc>FALSE</ntsc>
            </rate>
            <media>
              <video>
                <track>
                  <clipitem frameBlend="FALSE" id="clipitem-75">
                    <name>Scene - LJ visemes.072.png</name>
                    <masterclipid>masterclip-74</masterclipid>
                    <rate>
                      <timebase>24</timebase>
                      <ntsc>FALSE</ntsc>
                    </rate>
                    <alphatype>straight</alphatype>
                    <pixelaspectratio>square</pixelaspectratio>
                    <anamorphic>FALSE</anamorphic>
                    <file id="file-74">
                      <name>Scene - LJ visemes.072.png</name>
                      <pathurl>file://localhost/Users/bot/Documents/CREATE/Character Animator/LJ visemes CH2AE/demo/Scene - LJ visemes/Scene - LJ visemes.072.png</pathurl>
                      <rate>
                        <timebase>24</timebase>
                        <ntsc>FALSE</ntsc>
                      </rate>
                      <duration>672</duration>
                      <timecode>
                        <rate>
                          <timebase>24</timebase>
                          <ntsc>FALSE</ntsc>
                        </rate>
                      </timecode>
                      <media>
                        <video>
                          <duration>1</duration>
                          <samplecharacteristics>
                            <anamorphic>FALSE</anamorphic>
                            <pixelaspectratio>square</pixelaspectratio>
                            <fielddominance>none</fielddominance>
                            <width>1920</width>
                            <height>1080</height>
                          </samplecharacteristics>
                        </video>
                      </media>
                    </file>
                  </clipitem>
                </track>
              </video>
            </media>
          </clip>
          <clip explodedTracks="true" frameBlend="FALSE" id="masterclip-75">
            <uuid>4b6a76d7-7dac-448e-8f91-d899542f1fce</uuid>
            <masterclipid>masterclip-75</masterclipid>
            <ismasterclip>TRUE</ismasterclip>
            <duration>672</duration>
            <in>0</in>
            <out>672</out>
            <name>Scene - LJ visemes.073.png</name>
            <rate>
              <timebase>24</timebase>
              <ntsc>FALSE</ntsc>
            </rate>
            <media>
              <video>
                <track>
                  <clipitem frameBlend="FALSE" id="clipitem-76">
                    <name>Scene - LJ visemes.073.png</name>
                    <masterclipid>masterclip-75</masterclipid>
                    <rate>
                      <timebase>24</timebase>
                      <ntsc>FALSE</ntsc>
                    </rate>
                    <alphatype>straight</alphatype>
                    <pixelaspectratio>square</pixelaspectratio>
                    <anamorphic>FALSE</anamorphic>
                    <file id="file-75">
                      <name>Scene - LJ visemes.073.png</name>
                      <pathurl>file://localhost/Users/bot/Documents/CREATE/Character Animator/LJ visemes CH2AE/demo/Scene - LJ visemes/Scene - LJ visemes.073.png</pathurl>
                      <rate>
                        <timebase>24</timebase>
                        <ntsc>FALSE</ntsc>
                      </rate>
                      <duration>672</duration>
                      <timecode>
                        <rate>
                          <timebase>24</timebase>
                          <ntsc>FALSE</ntsc>
                        </rate>
                      </timecode>
                      <media>
                        <video>
                          <duration>1</duration>
                          <samplecharacteristics>
                            <anamorphic>FALSE</anamorphic>
                            <pixelaspectratio>square</pixelaspectratio>
                            <fielddominance>none</fielddominance>
                            <width>1920</width>
                            <height>1080</height>
                          </samplecharacteristics>
                        </video>
                      </media>
                    </file>
                  </clipitem>
                </track>
              </video>
            </media>
          </clip>
          <clip explodedTracks="true" frameBlend="FALSE" id="masterclip-76">
            <uuid>406e6ccc-d128-4eb0-b250-25058513b52a</uuid>
            <masterclipid>masterclip-76</masterclipid>
            <ismasterclip>TRUE</ismasterclip>
            <duration>672</duration>
            <in>0</in>
            <out>672</out>
            <name>Scene - LJ visemes.074.png</name>
            <rate>
              <timebase>24</timebase>
              <ntsc>FALSE</ntsc>
            </rate>
            <media>
              <video>
                <track>
                  <clipitem frameBlend="FALSE" id="clipitem-77">
                    <name>Scene - LJ visemes.074.png</name>
                    <masterclipid>masterclip-76</masterclipid>
                    <rate>
                      <timebase>24</timebase>
                      <ntsc>FALSE</ntsc>
                    </rate>
                    <alphatype>straight</alphatype>
                    <pixelaspectratio>square</pixelaspectratio>
                    <anamorphic>FALSE</anamorphic>
                    <file id="file-76">
                      <name>Scene - LJ visemes.074.png</name>
                      <pathurl>file://localhost/Users/bot/Documents/CREATE/Character Animator/LJ visemes CH2AE/demo/Scene - LJ visemes/Scene - LJ visemes.074.png</pathurl>
                      <rate>
                        <timebase>24</timebase>
                        <ntsc>FALSE</ntsc>
                      </rate>
                      <duration>672</duration>
                      <timecode>
                        <rate>
                          <timebase>24</timebase>
                          <ntsc>FALSE</ntsc>
                        </rate>
                      </timecode>
                      <media>
                        <video>
                          <duration>1</duration>
                          <samplecharacteristics>
                            <anamorphic>FALSE</anamorphic>
                            <pixelaspectratio>square</pixelaspectratio>
                            <fielddominance>none</fielddominance>
                            <width>1920</width>
                            <height>1080</height>
                          </samplecharacteristics>
                        </video>
                      </media>
                    </file>
                  </clipitem>
                </track>
              </video>
            </media>
          </clip>
          <clip explodedTracks="true" frameBlend="FALSE" id="masterclip-77">
            <uuid>c0766b80-c666-4089-8f81-c5e476733338</uuid>
            <masterclipid>masterclip-77</masterclipid>
            <ismasterclip>TRUE</ismasterclip>
            <duration>672</duration>
            <in>0</in>
            <out>672</out>
            <name>Scene - LJ visemes.075.png</name>
            <rate>
              <timebase>24</timebase>
              <ntsc>FALSE</ntsc>
            </rate>
            <media>
              <video>
                <track>
                  <clipitem frameBlend="FALSE" id="clipitem-78">
                    <name>Scene - LJ visemes.075.png</name>
                    <masterclipid>masterclip-77</masterclipid>
                    <rate>
                      <timebase>24</timebase>
                      <ntsc>FALSE</ntsc>
                    </rate>
                    <alphatype>straight</alphatype>
                    <pixelaspectratio>square</pixelaspectratio>
                    <anamorphic>FALSE</anamorphic>
                    <file id="file-77">
                      <name>Scene - LJ visemes.075.png</name>
                      <pathurl>file://localhost/Users/bot/Documents/CREATE/Character Animator/LJ visemes CH2AE/demo/Scene - LJ visemes/Scene - LJ visemes.075.png</pathurl>
                      <rate>
                        <timebase>24</timebase>
                        <ntsc>FALSE</ntsc>
                      </rate>
                      <duration>672</duration>
                      <timecode>
                        <rate>
                          <timebase>24</timebase>
                          <ntsc>FALSE</ntsc>
                        </rate>
                      </timecode>
                      <media>
                        <video>
                          <duration>1</duration>
                          <samplecharacteristics>
                            <anamorphic>FALSE</anamorphic>
                            <pixelaspectratio>square</pixelaspectratio>
                            <fielddominance>none</fielddominance>
                            <width>1920</width>
                            <height>1080</height>
                          </samplecharacteristics>
                        </video>
                      </media>
                    </file>
                  </clipitem>
                </track>
              </video>
            </media>
          </clip>
          <clip explodedTracks="true" frameBlend="FALSE" id="masterclip-78">
            <uuid>9a863b6b-0b56-4dd3-8704-8458518ef1e6</uuid>
            <masterclipid>masterclip-78</masterclipid>
            <ismasterclip>TRUE</ismasterclip>
            <duration>672</duration>
            <in>0</in>
            <out>672</out>
            <name>Scene - LJ visemes.076.png</name>
            <rate>
              <timebase>24</timebase>
              <ntsc>FALSE</ntsc>
            </rate>
            <media>
              <video>
                <track>
                  <clipitem frameBlend="FALSE" id="clipitem-79">
                    <name>Scene - LJ visemes.076.png</name>
                    <masterclipid>masterclip-78</masterclipid>
                    <rate>
                      <timebase>24</timebase>
                      <ntsc>FALSE</ntsc>
                    </rate>
                    <alphatype>straight</alphatype>
                    <pixelaspectratio>square</pixelaspectratio>
                    <anamorphic>FALSE</anamorphic>
                    <file id="file-78">
                      <name>Scene - LJ visemes.076.png</name>
                      <pathurl>file://localhost/Users/bot/Documents/CREATE/Character Animator/LJ visemes CH2AE/demo/Scene - LJ visemes/Scene - LJ visemes.076.png</pathurl>
                      <rate>
                        <timebase>24</timebase>
                        <ntsc>FALSE</ntsc>
                      </rate>
                      <duration>672</duration>
                      <timecode>
                        <rate>
                          <timebase>24</timebase>
                          <ntsc>FALSE</ntsc>
                        </rate>
                      </timecode>
                      <media>
                        <video>
                          <duration>1</duration>
                          <samplecharacteristics>
                            <anamorphic>FALSE</anamorphic>
                            <pixelaspectratio>square</pixelaspectratio>
                            <fielddominance>none</fielddominance>
                            <width>1920</width>
                            <height>1080</height>
                          </samplecharacteristics>
                        </video>
                      </media>
                    </file>
                  </clipitem>
                </track>
              </video>
            </media>
          </clip>
          <clip explodedTracks="true" frameBlend="FALSE" id="masterclip-79">
            <uuid>68269ccb-7fc7-4f99-92b7-70d77edb8ce4</uuid>
            <masterclipid>masterclip-79</masterclipid>
            <ismasterclip>TRUE</ismasterclip>
            <duration>672</duration>
            <in>0</in>
            <out>672</out>
            <name>Scene - LJ visemes.077.png</name>
            <rate>
              <timebase>24</timebase>
              <ntsc>FALSE</ntsc>
            </rate>
            <media>
              <video>
                <track>
                  <clipitem frameBlend="FALSE" id="clipitem-80">
                    <name>Scene - LJ visemes.077.png</name>
                    <masterclipid>masterclip-79</masterclipid>
                    <rate>
                      <timebase>24</timebase>
                      <ntsc>FALSE</ntsc>
                    </rate>
                    <alphatype>straight</alphatype>
                    <pixelaspectratio>square</pixelaspectratio>
                    <anamorphic>FALSE</anamorphic>
                    <file id="file-79">
                      <name>Scene - LJ visemes.077.png</name>
                      <pathurl>file://localhost/Users/bot/Documents/CREATE/Character Animator/LJ visemes CH2AE/demo/Scene - LJ visemes/Scene - LJ visemes.077.png</pathurl>
                      <rate>
                        <timebase>24</timebase>
                        <ntsc>FALSE</ntsc>
                      </rate>
                      <duration>672</duration>
                      <timecode>
                        <rate>
                          <timebase>24</timebase>
                          <ntsc>FALSE</ntsc>
                        </rate>
                      </timecode>
                      <media>
                        <video>
                          <duration>1</duration>
                          <samplecharacteristics>
                            <anamorphic>FALSE</anamorphic>
                            <pixelaspectratio>square</pixelaspectratio>
                            <fielddominance>none</fielddominance>
                            <width>1920</width>
                            <height>1080</height>
                          </samplecharacteristics>
                        </video>
                      </media>
                    </file>
                  </clipitem>
                </track>
              </video>
            </media>
          </clip>
          <clip explodedTracks="true" frameBlend="FALSE" id="masterclip-80">
            <uuid>435813ed-3fc5-4e5f-802d-f950e00fe566</uuid>
            <masterclipid>masterclip-80</masterclipid>
            <ismasterclip>TRUE</ismasterclip>
            <duration>672</duration>
            <in>0</in>
            <out>672</out>
            <name>Scene - LJ visemes.078.png</name>
            <rate>
              <timebase>24</timebase>
              <ntsc>FALSE</ntsc>
            </rate>
            <media>
              <video>
                <track>
                  <clipitem frameBlend="FALSE" id="clipitem-81">
                    <name>Scene - LJ visemes.078.png</name>
                    <masterclipid>masterclip-80</masterclipid>
                    <rate>
                      <timebase>24</timebase>
                      <ntsc>FALSE</ntsc>
                    </rate>
                    <alphatype>straight</alphatype>
                    <pixelaspectratio>square</pixelaspectratio>
                    <anamorphic>FALSE</anamorphic>
                    <file id="file-80">
                      <name>Scene - LJ visemes.078.png</name>
                      <pathurl>file://localhost/Users/bot/Documents/CREATE/Character Animator/LJ visemes CH2AE/demo/Scene - LJ visemes/Scene - LJ visemes.078.png</pathurl>
                      <rate>
                        <timebase>24</timebase>
                        <ntsc>FALSE</ntsc>
                      </rate>
                      <duration>672</duration>
                      <timecode>
                        <rate>
                          <timebase>24</timebase>
                          <ntsc>FALSE</ntsc>
                        </rate>
                      </timecode>
                      <media>
                        <video>
                          <duration>1</duration>
                          <samplecharacteristics>
                            <anamorphic>FALSE</anamorphic>
                            <pixelaspectratio>square</pixelaspectratio>
                            <fielddominance>none</fielddominance>
                            <width>1920</width>
                            <height>1080</height>
                          </samplecharacteristics>
                        </video>
                      </media>
                    </file>
                  </clipitem>
                </track>
              </video>
            </media>
          </clip>
          <clip explodedTracks="true" frameBlend="FALSE" id="masterclip-81">
            <uuid>e4fdff89-b148-453b-a525-ae3d57412f55</uuid>
            <masterclipid>masterclip-81</masterclipid>
            <ismasterclip>TRUE</ismasterclip>
            <duration>672</duration>
            <in>0</in>
            <out>672</out>
            <name>Scene - LJ visemes.079.png</name>
            <rate>
              <timebase>24</timebase>
              <ntsc>FALSE</ntsc>
            </rate>
            <media>
              <video>
                <track>
                  <clipitem frameBlend="FALSE" id="clipitem-82">
                    <name>Scene - LJ visemes.079.png</name>
                    <masterclipid>masterclip-81</masterclipid>
                    <rate>
                      <timebase>24</timebase>
                      <ntsc>FALSE</ntsc>
                    </rate>
                    <alphatype>straight</alphatype>
                    <pixelaspectratio>square</pixelaspectratio>
                    <anamorphic>FALSE</anamorphic>
                    <file id="file-81">
                      <name>Scene - LJ visemes.079.png</name>
                      <pathurl>file://localhost/Users/bot/Documents/CREATE/Character Animator/LJ visemes CH2AE/demo/Scene - LJ visemes/Scene - LJ visemes.079.png</pathurl>
                      <rate>
                        <timebase>24</timebase>
                        <ntsc>FALSE</ntsc>
                      </rate>
                      <duration>672</duration>
                      <timecode>
                        <rate>
                          <timebase>24</timebase>
                          <ntsc>FALSE</ntsc>
                        </rate>
                      </timecode>
                      <media>
                        <video>
                          <duration>1</duration>
                          <samplecharacteristics>
                            <anamorphic>FALSE</anamorphic>
                            <pixelaspectratio>square</pixelaspectratio>
                            <fielddominance>none</fielddominance>
                            <width>1920</width>
                            <height>1080</height>
                          </samplecharacteristics>
                        </video>
                      </media>
                    </file>
                  </clipitem>
                </track>
              </video>
            </media>
          </clip>
          <clip explodedTracks="true" frameBlend="FALSE" id="masterclip-82">
            <uuid>090af4fe-2624-4dc3-97fc-03c718b3b741</uuid>
            <masterclipid>masterclip-82</masterclipid>
            <ismasterclip>TRUE</ismasterclip>
            <duration>672</duration>
            <in>0</in>
            <out>672</out>
            <name>Scene - LJ visemes.080.png</name>
            <rate>
              <timebase>24</timebase>
              <ntsc>FALSE</ntsc>
            </rate>
            <media>
              <video>
                <track>
                  <clipitem frameBlend="FALSE" id="clipitem-83">
                    <name>Scene - LJ visemes.080.png</name>
                    <masterclipid>masterclip-82</masterclipid>
                    <rate>
                      <timebase>24</timebase>
                      <ntsc>FALSE</ntsc>
                    </rate>
                    <alphatype>straight</alphatype>
                    <pixelaspectratio>square</pixelaspectratio>
                    <anamorphic>FALSE</anamorphic>
                    <file id="file-82">
                      <name>Scene - LJ visemes.080.png</name>
                      <pathurl>file://localhost/Users/bot/Documents/CREATE/Character Animator/LJ visemes CH2AE/demo/Scene - LJ visemes/Scene - LJ visemes.080.png</pathurl>
                      <rate>
                        <timebase>24</timebase>
                        <ntsc>FALSE</ntsc>
                      </rate>
                      <duration>672</duration>
                      <timecode>
                        <rate>
                          <timebase>24</timebase>
                          <ntsc>FALSE</ntsc>
                        </rate>
                      </timecode>
                      <media>
                        <video>
                          <duration>1</duration>
                          <samplecharacteristics>
                            <anamorphic>FALSE</anamorphic>
                            <pixelaspectratio>square</pixelaspectratio>
                            <fielddominance>none</fielddominance>
                            <width>1920</width>
                            <height>1080</height>
                          </samplecharacteristics>
                        </video>
                      </media>
                    </file>
                  </clipitem>
                </track>
              </video>
            </media>
          </clip>
          <clip explodedTracks="true" frameBlend="FALSE" id="masterclip-83">
            <uuid>0d3767e5-413c-481a-af06-96e79bb5dd7f</uuid>
            <masterclipid>masterclip-83</masterclipid>
            <ismasterclip>TRUE</ismasterclip>
            <duration>672</duration>
            <in>0</in>
            <out>672</out>
            <name>Scene - LJ visemes.081.png</name>
            <rate>
              <timebase>24</timebase>
              <ntsc>FALSE</ntsc>
            </rate>
            <media>
              <video>
                <track>
                  <clipitem frameBlend="FALSE" id="clipitem-84">
                    <name>Scene - LJ visemes.081.png</name>
                    <masterclipid>masterclip-83</masterclipid>
                    <rate>
                      <timebase>24</timebase>
                      <ntsc>FALSE</ntsc>
                    </rate>
                    <alphatype>straight</alphatype>
                    <pixelaspectratio>square</pixelaspectratio>
                    <anamorphic>FALSE</anamorphic>
                    <file id="file-83">
                      <name>Scene - LJ visemes.081.png</name>
                      <pathurl>file://localhost/Users/bot/Documents/CREATE/Character Animator/LJ visemes CH2AE/demo/Scene - LJ visemes/Scene - LJ visemes.081.png</pathurl>
                      <rate>
                        <timebase>24</timebase>
                        <ntsc>FALSE</ntsc>
                      </rate>
                      <duration>672</duration>
                      <timecode>
                        <rate>
                          <timebase>24</timebase>
                          <ntsc>FALSE</ntsc>
                        </rate>
                      </timecode>
                      <media>
                        <video>
                          <duration>1</duration>
                          <samplecharacteristics>
                            <anamorphic>FALSE</anamorphic>
                            <pixelaspectratio>square</pixelaspectratio>
                            <fielddominance>none</fielddominance>
                            <width>1920</width>
                            <height>1080</height>
                          </samplecharacteristics>
                        </video>
                      </media>
                    </file>
                  </clipitem>
                </track>
              </video>
            </media>
          </clip>
          <clip explodedTracks="true" frameBlend="FALSE" id="masterclip-84">
            <uuid>6690cb21-7ea2-4fbc-a037-1c0b1b82d553</uuid>
            <masterclipid>masterclip-84</masterclipid>
            <ismasterclip>TRUE</ismasterclip>
            <duration>672</duration>
            <in>0</in>
            <out>672</out>
            <name>Scene - LJ visemes.082.png</name>
            <rate>
              <timebase>24</timebase>
              <ntsc>FALSE</ntsc>
            </rate>
            <media>
              <video>
                <track>
                  <clipitem frameBlend="FALSE" id="clipitem-85">
                    <name>Scene - LJ visemes.082.png</name>
                    <masterclipid>masterclip-84</masterclipid>
                    <rate>
                      <timebase>24</timebase>
                      <ntsc>FALSE</ntsc>
                    </rate>
                    <alphatype>straight</alphatype>
                    <pixelaspectratio>square</pixelaspectratio>
                    <anamorphic>FALSE</anamorphic>
                    <file id="file-84">
                      <name>Scene - LJ visemes.082.png</name>
                      <pathurl>file://localhost/Users/bot/Documents/CREATE/Character Animator/LJ visemes CH2AE/demo/Scene - LJ visemes/Scene - LJ visemes.082.png</pathurl>
                      <rate>
                        <timebase>24</timebase>
                        <ntsc>FALSE</ntsc>
                      </rate>
                      <duration>672</duration>
                      <timecode>
                        <rate>
                          <timebase>24</timebase>
                          <ntsc>FALSE</ntsc>
                        </rate>
                      </timecode>
                      <media>
                        <video>
                          <duration>1</duration>
                          <samplecharacteristics>
                            <anamorphic>FALSE</anamorphic>
                            <pixelaspectratio>square</pixelaspectratio>
                            <fielddominance>none</fielddominance>
                            <width>1920</width>
                            <height>1080</height>
                          </samplecharacteristics>
                        </video>
                      </media>
                    </file>
                  </clipitem>
                </track>
              </video>
            </media>
          </clip>
          <clip explodedTracks="true" frameBlend="FALSE" id="masterclip-85">
            <uuid>c8af3b3a-5413-43c9-b3ee-f15c0fa4b462</uuid>
            <masterclipid>masterclip-85</masterclipid>
            <ismasterclip>TRUE</ismasterclip>
            <duration>672</duration>
            <in>0</in>
            <out>672</out>
            <name>Scene - LJ visemes.083.png</name>
            <rate>
              <timebase>24</timebase>
              <ntsc>FALSE</ntsc>
            </rate>
            <media>
              <video>
                <track>
                  <clipitem frameBlend="FALSE" id="clipitem-86">
                    <name>Scene - LJ visemes.083.png</name>
                    <masterclipid>masterclip-85</masterclipid>
                    <rate>
                      <timebase>24</timebase>
                      <ntsc>FALSE</ntsc>
                    </rate>
                    <alphatype>straight</alphatype>
                    <pixelaspectratio>square</pixelaspectratio>
                    <anamorphic>FALSE</anamorphic>
                    <file id="file-85">
                      <name>Scene - LJ visemes.083.png</name>
                      <pathurl>file://localhost/Users/bot/Documents/CREATE/Character Animator/LJ visemes CH2AE/demo/Scene - LJ visemes/Scene - LJ visemes.083.png</pathurl>
                      <rate>
                        <timebase>24</timebase>
                        <ntsc>FALSE</ntsc>
                      </rate>
                      <duration>672</duration>
                      <timecode>
                        <rate>
                          <timebase>24</timebase>
                          <ntsc>FALSE</ntsc>
                        </rate>
                      </timecode>
                      <media>
                        <video>
                          <duration>1</duration>
                          <samplecharacteristics>
                            <anamorphic>FALSE</anamorphic>
                            <pixelaspectratio>square</pixelaspectratio>
                            <fielddominance>none</fielddominance>
                            <width>1920</width>
                            <height>1080</height>
                          </samplecharacteristics>
                        </video>
                      </media>
                    </file>
                  </clipitem>
                </track>
              </video>
            </media>
          </clip>
          <clip explodedTracks="true" frameBlend="FALSE" id="masterclip-86">
            <uuid>44401993-e9bc-4b72-9a8a-4f2c52408192</uuid>
            <masterclipid>masterclip-86</masterclipid>
            <ismasterclip>TRUE</ismasterclip>
            <duration>672</duration>
            <in>0</in>
            <out>672</out>
            <name>Scene - LJ visemes.084.png</name>
            <rate>
              <timebase>24</timebase>
              <ntsc>FALSE</ntsc>
            </rate>
            <media>
              <video>
                <track>
                  <clipitem frameBlend="FALSE" id="clipitem-87">
                    <name>Scene - LJ visemes.084.png</name>
                    <masterclipid>masterclip-86</masterclipid>
                    <rate>
                      <timebase>24</timebase>
                      <ntsc>FALSE</ntsc>
                    </rate>
                    <alphatype>straight</alphatype>
                    <pixelaspectratio>square</pixelaspectratio>
                    <anamorphic>FALSE</anamorphic>
                    <file id="file-86">
                      <name>Scene - LJ visemes.084.png</name>
                      <pathurl>file://localhost/Users/bot/Documents/CREATE/Character Animator/LJ visemes CH2AE/demo/Scene - LJ visemes/Scene - LJ visemes.084.png</pathurl>
                      <rate>
                        <timebase>24</timebase>
                        <ntsc>FALSE</ntsc>
                      </rate>
                      <duration>672</duration>
                      <timecode>
                        <rate>
                          <timebase>24</timebase>
                          <ntsc>FALSE</ntsc>
                        </rate>
                      </timecode>
                      <media>
                        <video>
                          <duration>1</duration>
                          <samplecharacteristics>
                            <anamorphic>FALSE</anamorphic>
                            <pixelaspectratio>square</pixelaspectratio>
                            <fielddominance>none</fielddominance>
                            <width>1920</width>
                            <height>1080</height>
                          </samplecharacteristics>
                        </video>
                      </media>
                    </file>
                  </clipitem>
                </track>
              </video>
            </media>
          </clip>
          <clip explodedTracks="true" frameBlend="FALSE" id="masterclip-87">
            <uuid>9799da31-7b6d-4560-a424-76003dae31dc</uuid>
            <masterclipid>masterclip-87</masterclipid>
            <ismasterclip>TRUE</ismasterclip>
            <duration>672</duration>
            <in>0</in>
            <out>672</out>
            <name>Scene - LJ visemes.085.png</name>
            <rate>
              <timebase>24</timebase>
              <ntsc>FALSE</ntsc>
            </rate>
            <media>
              <video>
                <track>
                  <clipitem frameBlend="FALSE" id="clipitem-88">
                    <name>Scene - LJ visemes.085.png</name>
                    <masterclipid>masterclip-87</masterclipid>
                    <rate>
                      <timebase>24</timebase>
                      <ntsc>FALSE</ntsc>
                    </rate>
                    <alphatype>straight</alphatype>
                    <pixelaspectratio>square</pixelaspectratio>
                    <anamorphic>FALSE</anamorphic>
                    <file id="file-87">
                      <name>Scene - LJ visemes.085.png</name>
                      <pathurl>file://localhost/Users/bot/Documents/CREATE/Character Animator/LJ visemes CH2AE/demo/Scene - LJ visemes/Scene - LJ visemes.085.png</pathurl>
                      <rate>
                        <timebase>24</timebase>
                        <ntsc>FALSE</ntsc>
                      </rate>
                      <duration>672</duration>
                      <timecode>
                        <rate>
                          <timebase>24</timebase>
                          <ntsc>FALSE</ntsc>
                        </rate>
                      </timecode>
                      <media>
                        <video>
                          <duration>1</duration>
                          <samplecharacteristics>
                            <anamorphic>FALSE</anamorphic>
                            <pixelaspectratio>square</pixelaspectratio>
                            <fielddominance>none</fielddominance>
                            <width>1920</width>
                            <height>1080</height>
                          </samplecharacteristics>
                        </video>
                      </media>
                    </file>
                  </clipitem>
                </track>
              </video>
            </media>
          </clip>
          <clip explodedTracks="true" frameBlend="FALSE" id="masterclip-88">
            <uuid>0f10a021-49d9-40ab-ab04-4fec791c7cd3</uuid>
            <masterclipid>masterclip-88</masterclipid>
            <ismasterclip>TRUE</ismasterclip>
            <duration>672</duration>
            <in>0</in>
            <out>672</out>
            <name>Scene - LJ visemes.086.png</name>
            <rate>
              <timebase>24</timebase>
              <ntsc>FALSE</ntsc>
            </rate>
            <media>
              <video>
                <track>
                  <clipitem frameBlend="FALSE" id="clipitem-89">
                    <name>Scene - LJ visemes.086.png</name>
                    <masterclipid>masterclip-88</masterclipid>
                    <rate>
                      <timebase>24</timebase>
                      <ntsc>FALSE</ntsc>
                    </rate>
                    <alphatype>straight</alphatype>
                    <pixelaspectratio>square</pixelaspectratio>
                    <anamorphic>FALSE</anamorphic>
                    <file id="file-88">
                      <name>Scene - LJ visemes.086.png</name>
                      <pathurl>file://localhost/Users/bot/Documents/CREATE/Character Animator/LJ visemes CH2AE/demo/Scene - LJ visemes/Scene - LJ visemes.086.png</pathurl>
                      <rate>
                        <timebase>24</timebase>
                        <ntsc>FALSE</ntsc>
                      </rate>
                      <duration>672</duration>
                      <timecode>
                        <rate>
                          <timebase>24</timebase>
                          <ntsc>FALSE</ntsc>
                        </rate>
                      </timecode>
                      <media>
                        <video>
                          <duration>1</duration>
                          <samplecharacteristics>
                            <anamorphic>FALSE</anamorphic>
                            <pixelaspectratio>square</pixelaspectratio>
                            <fielddominance>none</fielddominance>
                            <width>1920</width>
                            <height>1080</height>
                          </samplecharacteristics>
                        </video>
                      </media>
                    </file>
                  </clipitem>
                </track>
              </video>
            </media>
          </clip>
          <clip explodedTracks="true" frameBlend="FALSE" id="masterclip-89">
            <uuid>fb75643f-7e3d-46dd-a654-2a29b0d944cd</uuid>
            <masterclipid>masterclip-89</masterclipid>
            <ismasterclip>TRUE</ismasterclip>
            <duration>672</duration>
            <in>0</in>
            <out>672</out>
            <name>Scene - LJ visemes.087.png</name>
            <rate>
              <timebase>24</timebase>
              <ntsc>FALSE</ntsc>
            </rate>
            <media>
              <video>
                <track>
                  <clipitem frameBlend="FALSE" id="clipitem-90">
                    <name>Scene - LJ visemes.087.png</name>
                    <masterclipid>masterclip-89</masterclipid>
                    <rate>
                      <timebase>24</timebase>
                      <ntsc>FALSE</ntsc>
                    </rate>
                    <alphatype>straight</alphatype>
                    <pixelaspectratio>square</pixelaspectratio>
                    <anamorphic>FALSE</anamorphic>
                    <file id="file-89">
                      <name>Scene - LJ visemes.087.png</name>
                      <pathurl>file://localhost/Users/bot/Documents/CREATE/Character Animator/LJ visemes CH2AE/demo/Scene - LJ visemes/Scene - LJ visemes.087.png</pathurl>
                      <rate>
                        <timebase>24</timebase>
                        <ntsc>FALSE</ntsc>
                      </rate>
                      <duration>672</duration>
                      <timecode>
                        <rate>
                          <timebase>24</timebase>
                          <ntsc>FALSE</ntsc>
                        </rate>
                      </timecode>
                      <media>
                        <video>
                          <duration>1</duration>
                          <samplecharacteristics>
                            <anamorphic>FALSE</anamorphic>
                            <pixelaspectratio>square</pixelaspectratio>
                            <fielddominance>none</fielddominance>
                            <width>1920</width>
                            <height>1080</height>
                          </samplecharacteristics>
                        </video>
                      </media>
                    </file>
                  </clipitem>
                </track>
              </video>
            </media>
          </clip>
          <clip explodedTracks="true" frameBlend="FALSE" id="masterclip-90">
            <uuid>c6e832d1-b3f2-4659-8c1f-901d0f0de51d</uuid>
            <masterclipid>masterclip-90</masterclipid>
            <ismasterclip>TRUE</ismasterclip>
            <duration>672</duration>
            <in>0</in>
            <out>672</out>
            <name>Scene - LJ visemes.088.png</name>
            <rate>
              <timebase>24</timebase>
              <ntsc>FALSE</ntsc>
            </rate>
            <media>
              <video>
                <track>
                  <clipitem frameBlend="FALSE" id="clipitem-91">
                    <name>Scene - LJ visemes.088.png</name>
                    <masterclipid>masterclip-90</masterclipid>
                    <rate>
                      <timebase>24</timebase>
                      <ntsc>FALSE</ntsc>
                    </rate>
                    <alphatype>straight</alphatype>
                    <pixelaspectratio>square</pixelaspectratio>
                    <anamorphic>FALSE</anamorphic>
                    <file id="file-90">
                      <name>Scene - LJ visemes.088.png</name>
                      <pathurl>file://localhost/Users/bot/Documents/CREATE/Character Animator/LJ visemes CH2AE/demo/Scene - LJ visemes/Scene - LJ visemes.088.png</pathurl>
                      <rate>
                        <timebase>24</timebase>
                        <ntsc>FALSE</ntsc>
                      </rate>
                      <duration>672</duration>
                      <timecode>
                        <rate>
                          <timebase>24</timebase>
                          <ntsc>FALSE</ntsc>
                        </rate>
                      </timecode>
                      <media>
                        <video>
                          <duration>1</duration>
                          <samplecharacteristics>
                            <anamorphic>FALSE</anamorphic>
                            <pixelaspectratio>square</pixelaspectratio>
                            <fielddominance>none</fielddominance>
                            <width>1920</width>
                            <height>1080</height>
                          </samplecharacteristics>
                        </video>
                      </media>
                    </file>
                  </clipitem>
                </track>
              </video>
            </media>
          </clip>
          <clip explodedTracks="true" frameBlend="FALSE" id="masterclip-91">
            <uuid>2a6ff3b0-97b2-4ebc-bd8d-e1ae3a32831a</uuid>
            <masterclipid>masterclip-91</masterclipid>
            <ismasterclip>TRUE</ismasterclip>
            <duration>672</duration>
            <in>0</in>
            <out>672</out>
            <name>Scene - LJ visemes.089.png</name>
            <rate>
              <timebase>24</timebase>
              <ntsc>FALSE</ntsc>
            </rate>
            <media>
              <video>
                <track>
                  <clipitem frameBlend="FALSE" id="clipitem-92">
                    <name>Scene - LJ visemes.089.png</name>
                    <masterclipid>masterclip-91</masterclipid>
                    <rate>
                      <timebase>24</timebase>
                      <ntsc>FALSE</ntsc>
                    </rate>
                    <alphatype>straight</alphatype>
                    <pixelaspectratio>square</pixelaspectratio>
                    <anamorphic>FALSE</anamorphic>
                    <file id="file-91">
                      <name>Scene - LJ visemes.089.png</name>
                      <pathurl>file://localhost/Users/bot/Documents/CREATE/Character Animator/LJ visemes CH2AE/demo/Scene - LJ visemes/Scene - LJ visemes.089.png</pathurl>
                      <rate>
                        <timebase>24</timebase>
                        <ntsc>FALSE</ntsc>
                      </rate>
                      <duration>672</duration>
                      <timecode>
                        <rate>
                          <timebase>24</timebase>
                          <ntsc>FALSE</ntsc>
                        </rate>
                      </timecode>
                      <media>
                        <video>
                          <duration>1</duration>
                          <samplecharacteristics>
                            <anamorphic>FALSE</anamorphic>
                            <pixelaspectratio>square</pixelaspectratio>
                            <fielddominance>none</fielddominance>
                            <width>1920</width>
                            <height>1080</height>
                          </samplecharacteristics>
                        </video>
                      </media>
                    </file>
                  </clipitem>
                </track>
              </video>
            </media>
          </clip>
          <clip explodedTracks="true" frameBlend="FALSE" id="masterclip-92">
            <uuid>51109846-43da-4941-8a00-fb51db7c321b</uuid>
            <masterclipid>masterclip-92</masterclipid>
            <ismasterclip>TRUE</ismasterclip>
            <duration>672</duration>
            <in>0</in>
            <out>672</out>
            <name>Scene - LJ visemes.090.png</name>
            <rate>
              <timebase>24</timebase>
              <ntsc>FALSE</ntsc>
            </rate>
            <media>
              <video>
                <track>
                  <clipitem frameBlend="FALSE" id="clipitem-93">
                    <name>Scene - LJ visemes.090.png</name>
                    <masterclipid>masterclip-92</masterclipid>
                    <rate>
                      <timebase>24</timebase>
                      <ntsc>FALSE</ntsc>
                    </rate>
                    <alphatype>straight</alphatype>
                    <pixelaspectratio>square</pixelaspectratio>
                    <anamorphic>FALSE</anamorphic>
                    <file id="file-92">
                      <name>Scene - LJ visemes.090.png</name>
                      <pathurl>file://localhost/Users/bot/Documents/CREATE/Character Animator/LJ visemes CH2AE/demo/Scene - LJ visemes/Scene - LJ visemes.090.png</pathurl>
                      <rate>
                        <timebase>24</timebase>
                        <ntsc>FALSE</ntsc>
                      </rate>
                      <duration>672</duration>
                      <timecode>
                        <rate>
                          <timebase>24</timebase>
                          <ntsc>FALSE</ntsc>
                        </rate>
                      </timecode>
                      <media>
                        <video>
                          <duration>1</duration>
                          <samplecharacteristics>
                            <anamorphic>FALSE</anamorphic>
                            <pixelaspectratio>square</pixelaspectratio>
                            <fielddominance>none</fielddominance>
                            <width>1920</width>
                            <height>1080</height>
                          </samplecharacteristics>
                        </video>
                      </media>
                    </file>
                  </clipitem>
                </track>
              </video>
            </media>
          </clip>
          <clip explodedTracks="true" frameBlend="FALSE" id="masterclip-93">
            <uuid>a061350d-8fc5-493b-b8c1-8fee41280314</uuid>
            <masterclipid>masterclip-93</masterclipid>
            <ismasterclip>TRUE</ismasterclip>
            <duration>672</duration>
            <in>0</in>
            <out>672</out>
            <name>Scene - LJ visemes.091.png</name>
            <rate>
              <timebase>24</timebase>
              <ntsc>FALSE</ntsc>
            </rate>
            <media>
              <video>
                <track>
                  <clipitem frameBlend="FALSE" id="clipitem-94">
                    <name>Scene - LJ visemes.091.png</name>
                    <masterclipid>masterclip-93</masterclipid>
                    <rate>
                      <timebase>24</timebase>
                      <ntsc>FALSE</ntsc>
                    </rate>
                    <alphatype>straight</alphatype>
                    <pixelaspectratio>square</pixelaspectratio>
                    <anamorphic>FALSE</anamorphic>
                    <file id="file-93">
                      <name>Scene - LJ visemes.091.png</name>
                      <pathurl>file://localhost/Users/bot/Documents/CREATE/Character Animator/LJ visemes CH2AE/demo/Scene - LJ visemes/Scene - LJ visemes.091.png</pathurl>
                      <rate>
                        <timebase>24</timebase>
                        <ntsc>FALSE</ntsc>
                      </rate>
                      <duration>672</duration>
                      <timecode>
                        <rate>
                          <timebase>24</timebase>
                          <ntsc>FALSE</ntsc>
                        </rate>
                      </timecode>
                      <media>
                        <video>
                          <duration>1</duration>
                          <samplecharacteristics>
                            <anamorphic>FALSE</anamorphic>
                            <pixelaspectratio>square</pixelaspectratio>
                            <fielddominance>none</fielddominance>
                            <width>1920</width>
                            <height>1080</height>
                          </samplecharacteristics>
                        </video>
                      </media>
                    </file>
                  </clipitem>
                </track>
              </video>
            </media>
          </clip>
          <clip explodedTracks="true" frameBlend="FALSE" id="masterclip-94">
            <uuid>881ad758-4354-4f8c-8089-c9d3278e32c8</uuid>
            <masterclipid>masterclip-94</masterclipid>
            <ismasterclip>TRUE</ismasterclip>
            <duration>672</duration>
            <in>0</in>
            <out>672</out>
            <name>Scene - LJ visemes.092.png</name>
            <rate>
              <timebase>24</timebase>
              <ntsc>FALSE</ntsc>
            </rate>
            <media>
              <video>
                <track>
                  <clipitem frameBlend="FALSE" id="clipitem-95">
                    <name>Scene - LJ visemes.092.png</name>
                    <masterclipid>masterclip-94</masterclipid>
                    <rate>
                      <timebase>24</timebase>
                      <ntsc>FALSE</ntsc>
                    </rate>
                    <alphatype>straight</alphatype>
                    <pixelaspectratio>square</pixelaspectratio>
                    <anamorphic>FALSE</anamorphic>
                    <file id="file-94">
                      <name>Scene - LJ visemes.092.png</name>
                      <pathurl>file://localhost/Users/bot/Documents/CREATE/Character Animator/LJ visemes CH2AE/demo/Scene - LJ visemes/Scene - LJ visemes.092.png</pathurl>
                      <rate>
                        <timebase>24</timebase>
                        <ntsc>FALSE</ntsc>
                      </rate>
                      <duration>672</duration>
                      <timecode>
                        <rate>
                          <timebase>24</timebase>
                          <ntsc>FALSE</ntsc>
                        </rate>
                      </timecode>
                      <media>
                        <video>
                          <duration>1</duration>
                          <samplecharacteristics>
                            <anamorphic>FALSE</anamorphic>
                            <pixelaspectratio>square</pixelaspectratio>
                            <fielddominance>none</fielddominance>
                            <width>1920</width>
                            <height>1080</height>
                          </samplecharacteristics>
                        </video>
                      </media>
                    </file>
                  </clipitem>
                </track>
              </video>
            </media>
          </clip>
          <clip explodedTracks="true" frameBlend="FALSE" id="masterclip-95">
            <uuid>698ad496-f5dc-4925-abff-5e41389a4dde</uuid>
            <masterclipid>masterclip-95</masterclipid>
            <ismasterclip>TRUE</ismasterclip>
            <duration>672</duration>
            <in>0</in>
            <out>672</out>
            <name>Scene - LJ visemes.093.png</name>
            <rate>
              <timebase>24</timebase>
              <ntsc>FALSE</ntsc>
            </rate>
            <media>
              <video>
                <track>
                  <clipitem frameBlend="FALSE" id="clipitem-96">
                    <name>Scene - LJ visemes.093.png</name>
                    <masterclipid>masterclip-95</masterclipid>
                    <rate>
                      <timebase>24</timebase>
                      <ntsc>FALSE</ntsc>
                    </rate>
                    <alphatype>straight</alphatype>
                    <pixelaspectratio>square</pixelaspectratio>
                    <anamorphic>FALSE</anamorphic>
                    <file id="file-95">
                      <name>Scene - LJ visemes.093.png</name>
                      <pathurl>file://localhost/Users/bot/Documents/CREATE/Character Animator/LJ visemes CH2AE/demo/Scene - LJ visemes/Scene - LJ visemes.093.png</pathurl>
                      <rate>
                        <timebase>24</timebase>
                        <ntsc>FALSE</ntsc>
                      </rate>
                      <duration>672</duration>
                      <timecode>
                        <rate>
                          <timebase>24</timebase>
                          <ntsc>FALSE</ntsc>
                        </rate>
                      </timecode>
                      <media>
                        <video>
                          <duration>1</duration>
                          <samplecharacteristics>
                            <anamorphic>FALSE</anamorphic>
                            <pixelaspectratio>square</pixelaspectratio>
                            <fielddominance>none</fielddominance>
                            <width>1920</width>
                            <height>1080</height>
                          </samplecharacteristics>
                        </video>
                      </media>
                    </file>
                  </clipitem>
                </track>
              </video>
            </media>
          </clip>
          <clip explodedTracks="true" frameBlend="FALSE" id="masterclip-96">
            <uuid>d462d777-ad95-478a-a6cd-d535d344f983</uuid>
            <masterclipid>masterclip-96</masterclipid>
            <ismasterclip>TRUE</ismasterclip>
            <duration>672</duration>
            <in>0</in>
            <out>672</out>
            <name>Scene - LJ visemes.094.png</name>
            <rate>
              <timebase>24</timebase>
              <ntsc>FALSE</ntsc>
            </rate>
            <media>
              <video>
                <track>
                  <clipitem frameBlend="FALSE" id="clipitem-97">
                    <name>Scene - LJ visemes.094.png</name>
                    <masterclipid>masterclip-96</masterclipid>
                    <rate>
                      <timebase>24</timebase>
                      <ntsc>FALSE</ntsc>
                    </rate>
                    <alphatype>straight</alphatype>
                    <pixelaspectratio>square</pixelaspectratio>
                    <anamorphic>FALSE</anamorphic>
                    <file id="file-96">
                      <name>Scene - LJ visemes.094.png</name>
                      <pathurl>file://localhost/Users/bot/Documents/CREATE/Character Animator/LJ visemes CH2AE/demo/Scene - LJ visemes/Scene - LJ visemes.094.png</pathurl>
                      <rate>
                        <timebase>24</timebase>
                        <ntsc>FALSE</ntsc>
                      </rate>
                      <duration>672</duration>
                      <timecode>
                        <rate>
                          <timebase>24</timebase>
                          <ntsc>FALSE</ntsc>
                        </rate>
                      </timecode>
                      <media>
                        <video>
                          <duration>1</duration>
                          <samplecharacteristics>
                            <anamorphic>FALSE</anamorphic>
                            <pixelaspectratio>square</pixelaspectratio>
                            <fielddominance>none</fielddominance>
                            <width>1920</width>
                            <height>1080</height>
                          </samplecharacteristics>
                        </video>
                      </media>
                    </file>
                  </clipitem>
                </track>
              </video>
            </media>
          </clip>
          <clip explodedTracks="true" frameBlend="FALSE" id="masterclip-97">
            <uuid>5fd529cd-0ae7-4e0d-975e-bdc1e64fef61</uuid>
            <masterclipid>masterclip-97</masterclipid>
            <ismasterclip>TRUE</ismasterclip>
            <duration>672</duration>
            <in>0</in>
            <out>672</out>
            <name>Scene - LJ visemes.095.png</name>
            <rate>
              <timebase>24</timebase>
              <ntsc>FALSE</ntsc>
            </rate>
            <media>
              <video>
                <track>
                  <clipitem frameBlend="FALSE" id="clipitem-98">
                    <name>Scene - LJ visemes.095.png</name>
                    <masterclipid>masterclip-97</masterclipid>
                    <rate>
                      <timebase>24</timebase>
                      <ntsc>FALSE</ntsc>
                    </rate>
                    <alphatype>straight</alphatype>
                    <pixelaspectratio>square</pixelaspectratio>
                    <anamorphic>FALSE</anamorphic>
                    <file id="file-97">
                      <name>Scene - LJ visemes.095.png</name>
                      <pathurl>file://localhost/Users/bot/Documents/CREATE/Character Animator/LJ visemes CH2AE/demo/Scene - LJ visemes/Scene - LJ visemes.095.png</pathurl>
                      <rate>
                        <timebase>24</timebase>
                        <ntsc>FALSE</ntsc>
                      </rate>
                      <duration>672</duration>
                      <timecode>
                        <rate>
                          <timebase>24</timebase>
                          <ntsc>FALSE</ntsc>
                        </rate>
                      </timecode>
                      <media>
                        <video>
                          <duration>1</duration>
                          <samplecharacteristics>
                            <anamorphic>FALSE</anamorphic>
                            <pixelaspectratio>square</pixelaspectratio>
                            <fielddominance>none</fielddominance>
                            <width>1920</width>
                            <height>1080</height>
                          </samplecharacteristics>
                        </video>
                      </media>
                    </file>
                  </clipitem>
                </track>
              </video>
            </media>
          </clip>
          <clip explodedTracks="true" frameBlend="FALSE" id="masterclip-98">
            <uuid>d52724b7-3a89-4f04-83f5-43e995c26c6d</uuid>
            <masterclipid>masterclip-98</masterclipid>
            <ismasterclip>TRUE</ismasterclip>
            <duration>672</duration>
            <in>0</in>
            <out>672</out>
            <name>Scene - LJ visemes.096.png</name>
            <rate>
              <timebase>24</timebase>
              <ntsc>FALSE</ntsc>
            </rate>
            <media>
              <video>
                <track>
                  <clipitem frameBlend="FALSE" id="clipitem-99">
                    <name>Scene - LJ visemes.096.png</name>
                    <masterclipid>masterclip-98</masterclipid>
                    <rate>
                      <timebase>24</timebase>
                      <ntsc>FALSE</ntsc>
                    </rate>
                    <alphatype>straight</alphatype>
                    <pixelaspectratio>square</pixelaspectratio>
                    <anamorphic>FALSE</anamorphic>
                    <file id="file-98">
                      <name>Scene - LJ visemes.096.png</name>
                      <pathurl>file://localhost/Users/bot/Documents/CREATE/Character Animator/LJ visemes CH2AE/demo/Scene - LJ visemes/Scene - LJ visemes.096.png</pathurl>
                      <rate>
                        <timebase>24</timebase>
                        <ntsc>FALSE</ntsc>
                      </rate>
                      <duration>672</duration>
                      <timecode>
                        <rate>
                          <timebase>24</timebase>
                          <ntsc>FALSE</ntsc>
                        </rate>
                      </timecode>
                      <media>
                        <video>
                          <duration>1</duration>
                          <samplecharacteristics>
                            <anamorphic>FALSE</anamorphic>
                            <pixelaspectratio>square</pixelaspectratio>
                            <fielddominance>none</fielddominance>
                            <width>1920</width>
                            <height>1080</height>
                          </samplecharacteristics>
                        </video>
                      </media>
                    </file>
                  </clipitem>
                </track>
              </video>
            </media>
          </clip>
          <clip explodedTracks="true" frameBlend="FALSE" id="masterclip-99">
            <uuid>4b019f74-9a81-44ec-bbb9-5aa4f40b48df</uuid>
            <masterclipid>masterclip-99</masterclipid>
            <ismasterclip>TRUE</ismasterclip>
            <duration>672</duration>
            <in>0</in>
            <out>672</out>
            <name>Scene - LJ visemes.097.png</name>
            <rate>
              <timebase>24</timebase>
              <ntsc>FALSE</ntsc>
            </rate>
            <media>
              <video>
                <track>
                  <clipitem frameBlend="FALSE" id="clipitem-100">
                    <name>Scene - LJ visemes.097.png</name>
                    <masterclipid>masterclip-99</masterclipid>
                    <rate>
                      <timebase>24</timebase>
                      <ntsc>FALSE</ntsc>
                    </rate>
                    <alphatype>straight</alphatype>
                    <pixelaspectratio>square</pixelaspectratio>
                    <anamorphic>FALSE</anamorphic>
                    <file id="file-99">
                      <name>Scene - LJ visemes.097.png</name>
                      <pathurl>file://localhost/Users/bot/Documents/CREATE/Character Animator/LJ visemes CH2AE/demo/Scene - LJ visemes/Scene - LJ visemes.097.png</pathurl>
                      <rate>
                        <timebase>24</timebase>
                        <ntsc>FALSE</ntsc>
                      </rate>
                      <duration>672</duration>
                      <timecode>
                        <rate>
                          <timebase>24</timebase>
                          <ntsc>FALSE</ntsc>
                        </rate>
                      </timecode>
                      <media>
                        <video>
                          <duration>1</duration>
                          <samplecharacteristics>
                            <anamorphic>FALSE</anamorphic>
                            <pixelaspectratio>square</pixelaspectratio>
                            <fielddominance>none</fielddominance>
                            <width>1920</width>
                            <height>1080</height>
                          </samplecharacteristics>
                        </video>
                      </media>
                    </file>
                  </clipitem>
                </track>
              </video>
            </media>
          </clip>
          <clip explodedTracks="true" frameBlend="FALSE" id="masterclip-100">
            <uuid>44b9b852-9803-4a21-91de-1772fbfd774a</uuid>
            <masterclipid>masterclip-100</masterclipid>
            <ismasterclip>TRUE</ismasterclip>
            <duration>672</duration>
            <in>0</in>
            <out>672</out>
            <name>Scene - LJ visemes.098.png</name>
            <rate>
              <timebase>24</timebase>
              <ntsc>FALSE</ntsc>
            </rate>
            <media>
              <video>
                <track>
                  <clipitem frameBlend="FALSE" id="clipitem-101">
                    <name>Scene - LJ visemes.098.png</name>
                    <masterclipid>masterclip-100</masterclipid>
                    <rate>
                      <timebase>24</timebase>
                      <ntsc>FALSE</ntsc>
                    </rate>
                    <alphatype>straight</alphatype>
                    <pixelaspectratio>square</pixelaspectratio>
                    <anamorphic>FALSE</anamorphic>
                    <file id="file-100">
                      <name>Scene - LJ visemes.098.png</name>
                      <pathurl>file://localhost/Users/bot/Documents/CREATE/Character Animator/LJ visemes CH2AE/demo/Scene - LJ visemes/Scene - LJ visemes.098.png</pathurl>
                      <rate>
                        <timebase>24</timebase>
                        <ntsc>FALSE</ntsc>
                      </rate>
                      <duration>672</duration>
                      <timecode>
                        <rate>
                          <timebase>24</timebase>
                          <ntsc>FALSE</ntsc>
                        </rate>
                      </timecode>
                      <media>
                        <video>
                          <duration>1</duration>
                          <samplecharacteristics>
                            <anamorphic>FALSE</anamorphic>
                            <pixelaspectratio>square</pixelaspectratio>
                            <fielddominance>none</fielddominance>
                            <width>1920</width>
                            <height>1080</height>
                          </samplecharacteristics>
                        </video>
                      </media>
                    </file>
                  </clipitem>
                </track>
              </video>
            </media>
          </clip>
          <clip explodedTracks="true" frameBlend="FALSE" id="masterclip-101">
            <uuid>30de4a85-8dbc-42a2-b836-621bffa37917</uuid>
            <masterclipid>masterclip-101</masterclipid>
            <ismasterclip>TRUE</ismasterclip>
            <duration>672</duration>
            <in>0</in>
            <out>672</out>
            <name>Scene - LJ visemes.099.png</name>
            <rate>
              <timebase>24</timebase>
              <ntsc>FALSE</ntsc>
            </rate>
            <media>
              <video>
                <track>
                  <clipitem frameBlend="FALSE" id="clipitem-102">
                    <name>Scene - LJ visemes.099.png</name>
                    <masterclipid>masterclip-101</masterclipid>
                    <rate>
                      <timebase>24</timebase>
                      <ntsc>FALSE</ntsc>
                    </rate>
                    <alphatype>straight</alphatype>
                    <pixelaspectratio>square</pixelaspectratio>
                    <anamorphic>FALSE</anamorphic>
                    <file id="file-101">
                      <name>Scene - LJ visemes.099.png</name>
                      <pathurl>file://localhost/Users/bot/Documents/CREATE/Character Animator/LJ visemes CH2AE/demo/Scene - LJ visemes/Scene - LJ visemes.099.png</pathurl>
                      <rate>
                        <timebase>24</timebase>
                        <ntsc>FALSE</ntsc>
                      </rate>
                      <duration>672</duration>
                      <timecode>
                        <rate>
                          <timebase>24</timebase>
                          <ntsc>FALSE</ntsc>
                        </rate>
                      </timecode>
                      <media>
                        <video>
                          <duration>1</duration>
                          <samplecharacteristics>
                            <anamorphic>FALSE</anamorphic>
                            <pixelaspectratio>square</pixelaspectratio>
                            <fielddominance>none</fielddominance>
                            <width>1920</width>
                            <height>1080</height>
                          </samplecharacteristics>
                        </video>
                      </media>
                    </file>
                  </clipitem>
                </track>
              </video>
            </media>
          </clip>
          <clip explodedTracks="true" frameBlend="FALSE" id="masterclip-102">
            <uuid>d8c52cd2-c7fc-4b81-a3fa-ba460af3ebae</uuid>
            <masterclipid>masterclip-102</masterclipid>
            <ismasterclip>TRUE</ismasterclip>
            <duration>672</duration>
            <in>0</in>
            <out>672</out>
            <name>Scene - LJ visemes.100.png</name>
            <rate>
              <timebase>24</timebase>
              <ntsc>FALSE</ntsc>
            </rate>
            <media>
              <video>
                <track>
                  <clipitem frameBlend="FALSE" id="clipitem-103">
                    <name>Scene - LJ visemes.100.png</name>
                    <masterclipid>masterclip-102</masterclipid>
                    <rate>
                      <timebase>24</timebase>
                      <ntsc>FALSE</ntsc>
                    </rate>
                    <alphatype>straight</alphatype>
                    <pixelaspectratio>square</pixelaspectratio>
                    <anamorphic>FALSE</anamorphic>
                    <file id="file-102">
                      <name>Scene - LJ visemes.100.png</name>
                      <pathurl>file://localhost/Users/bot/Documents/CREATE/Character Animator/LJ visemes CH2AE/demo/Scene - LJ visemes/Scene - LJ visemes.100.png</pathurl>
                      <rate>
                        <timebase>24</timebase>
                        <ntsc>FALSE</ntsc>
                      </rate>
                      <duration>672</duration>
                      <timecode>
                        <rate>
                          <timebase>24</timebase>
                          <ntsc>FALSE</ntsc>
                        </rate>
                      </timecode>
                      <media>
                        <video>
                          <duration>1</duration>
                          <samplecharacteristics>
                            <anamorphic>FALSE</anamorphic>
                            <pixelaspectratio>square</pixelaspectratio>
                            <fielddominance>none</fielddominance>
                            <width>1920</width>
                            <height>1080</height>
                          </samplecharacteristics>
                        </video>
                      </media>
                    </file>
                  </clipitem>
                </track>
              </video>
            </media>
          </clip>
          <clip explodedTracks="true" frameBlend="FALSE" id="masterclip-103">
            <uuid>6ccc3742-0933-4ed5-bcbf-e0775047f385</uuid>
            <masterclipid>masterclip-103</masterclipid>
            <ismasterclip>TRUE</ismasterclip>
            <duration>672</duration>
            <in>0</in>
            <out>672</out>
            <name>Scene - LJ visemes.101.png</name>
            <rate>
              <timebase>24</timebase>
              <ntsc>FALSE</ntsc>
            </rate>
            <media>
              <video>
                <track>
                  <clipitem frameBlend="FALSE" id="clipitem-104">
                    <name>Scene - LJ visemes.101.png</name>
                    <masterclipid>masterclip-103</masterclipid>
                    <rate>
                      <timebase>24</timebase>
                      <ntsc>FALSE</ntsc>
                    </rate>
                    <alphatype>straight</alphatype>
                    <pixelaspectratio>square</pixelaspectratio>
                    <anamorphic>FALSE</anamorphic>
                    <file id="file-103">
                      <name>Scene - LJ visemes.101.png</name>
                      <pathurl>file://localhost/Users/bot/Documents/CREATE/Character Animator/LJ visemes CH2AE/demo/Scene - LJ visemes/Scene - LJ visemes.101.png</pathurl>
                      <rate>
                        <timebase>24</timebase>
                        <ntsc>FALSE</ntsc>
                      </rate>
                      <duration>672</duration>
                      <timecode>
                        <rate>
                          <timebase>24</timebase>
                          <ntsc>FALSE</ntsc>
                        </rate>
                      </timecode>
                      <media>
                        <video>
                          <duration>1</duration>
                          <samplecharacteristics>
                            <anamorphic>FALSE</anamorphic>
                            <pixelaspectratio>square</pixelaspectratio>
                            <fielddominance>none</fielddominance>
                            <width>1920</width>
                            <height>1080</height>
                          </samplecharacteristics>
                        </video>
                      </media>
                    </file>
                  </clipitem>
                </track>
              </video>
            </media>
          </clip>
          <clip explodedTracks="true" frameBlend="FALSE" id="masterclip-104">
            <uuid>499bcc77-61bd-4b33-b748-980de2341e90</uuid>
            <masterclipid>masterclip-104</masterclipid>
            <ismasterclip>TRUE</ismasterclip>
            <duration>672</duration>
            <in>0</in>
            <out>672</out>
            <name>Scene - LJ visemes.102.png</name>
            <rate>
              <timebase>24</timebase>
              <ntsc>FALSE</ntsc>
            </rate>
            <media>
              <video>
                <track>
                  <clipitem frameBlend="FALSE" id="clipitem-105">
                    <name>Scene - LJ visemes.102.png</name>
                    <masterclipid>masterclip-104</masterclipid>
                    <rate>
                      <timebase>24</timebase>
                      <ntsc>FALSE</ntsc>
                    </rate>
                    <alphatype>straight</alphatype>
                    <pixelaspectratio>square</pixelaspectratio>
                    <anamorphic>FALSE</anamorphic>
                    <file id="file-104">
                      <name>Scene - LJ visemes.102.png</name>
                      <pathurl>file://localhost/Users/bot/Documents/CREATE/Character Animator/LJ visemes CH2AE/demo/Scene - LJ visemes/Scene - LJ visemes.102.png</pathurl>
                      <rate>
                        <timebase>24</timebase>
                        <ntsc>FALSE</ntsc>
                      </rate>
                      <duration>672</duration>
                      <timecode>
                        <rate>
                          <timebase>24</timebase>
                          <ntsc>FALSE</ntsc>
                        </rate>
                      </timecode>
                      <media>
                        <video>
                          <duration>1</duration>
                          <samplecharacteristics>
                            <anamorphic>FALSE</anamorphic>
                            <pixelaspectratio>square</pixelaspectratio>
                            <fielddominance>none</fielddominance>
                            <width>1920</width>
                            <height>1080</height>
                          </samplecharacteristics>
                        </video>
                      </media>
                    </file>
                  </clipitem>
                </track>
              </video>
            </media>
          </clip>
          <clip explodedTracks="true" frameBlend="FALSE" id="masterclip-105">
            <uuid>22673af5-3679-4d53-9d31-72436f813dde</uuid>
            <masterclipid>masterclip-105</masterclipid>
            <ismasterclip>TRUE</ismasterclip>
            <duration>672</duration>
            <in>0</in>
            <out>672</out>
            <name>Scene - LJ visemes.103.png</name>
            <rate>
              <timebase>24</timebase>
              <ntsc>FALSE</ntsc>
            </rate>
            <media>
              <video>
                <track>
                  <clipitem frameBlend="FALSE" id="clipitem-106">
                    <name>Scene - LJ visemes.103.png</name>
                    <masterclipid>masterclip-105</masterclipid>
                    <rate>
                      <timebase>24</timebase>
                      <ntsc>FALSE</ntsc>
                    </rate>
                    <alphatype>straight</alphatype>
                    <pixelaspectratio>square</pixelaspectratio>
                    <anamorphic>FALSE</anamorphic>
                    <file id="file-105">
                      <name>Scene - LJ visemes.103.png</name>
                      <pathurl>file://localhost/Users/bot/Documents/CREATE/Character Animator/LJ visemes CH2AE/demo/Scene - LJ visemes/Scene - LJ visemes.103.png</pathurl>
                      <rate>
                        <timebase>24</timebase>
                        <ntsc>FALSE</ntsc>
                      </rate>
                      <duration>672</duration>
                      <timecode>
                        <rate>
                          <timebase>24</timebase>
                          <ntsc>FALSE</ntsc>
                        </rate>
                      </timecode>
                      <media>
                        <video>
                          <duration>1</duration>
                          <samplecharacteristics>
                            <anamorphic>FALSE</anamorphic>
                            <pixelaspectratio>square</pixelaspectratio>
                            <fielddominance>none</fielddominance>
                            <width>1920</width>
                            <height>1080</height>
                          </samplecharacteristics>
                        </video>
                      </media>
                    </file>
                  </clipitem>
                </track>
              </video>
            </media>
          </clip>
          <clip explodedTracks="true" frameBlend="FALSE" id="masterclip-106">
            <uuid>23033c9f-b3f3-452b-882c-320c0bc4bd7b</uuid>
            <masterclipid>masterclip-106</masterclipid>
            <ismasterclip>TRUE</ismasterclip>
            <duration>672</duration>
            <in>0</in>
            <out>672</out>
            <name>Scene - LJ visemes.104.png</name>
            <rate>
              <timebase>24</timebase>
              <ntsc>FALSE</ntsc>
            </rate>
            <media>
              <video>
                <track>
                  <clipitem frameBlend="FALSE" id="clipitem-107">
                    <name>Scene - LJ visemes.104.png</name>
                    <masterclipid>masterclip-106</masterclipid>
                    <rate>
                      <timebase>24</timebase>
                      <ntsc>FALSE</ntsc>
                    </rate>
                    <alphatype>straight</alphatype>
                    <pixelaspectratio>square</pixelaspectratio>
                    <anamorphic>FALSE</anamorphic>
                    <file id="file-106">
                      <name>Scene - LJ visemes.104.png</name>
                      <pathurl>file://localhost/Users/bot/Documents/CREATE/Character Animator/LJ visemes CH2AE/demo/Scene - LJ visemes/Scene - LJ visemes.104.png</pathurl>
                      <rate>
                        <timebase>24</timebase>
                        <ntsc>FALSE</ntsc>
                      </rate>
                      <duration>672</duration>
                      <timecode>
                        <rate>
                          <timebase>24</timebase>
                          <ntsc>FALSE</ntsc>
                        </rate>
                      </timecode>
                      <media>
                        <video>
                          <duration>1</duration>
                          <samplecharacteristics>
                            <anamorphic>FALSE</anamorphic>
                            <pixelaspectratio>square</pixelaspectratio>
                            <fielddominance>none</fielddominance>
                            <width>1920</width>
                            <height>1080</height>
                          </samplecharacteristics>
                        </video>
                      </media>
                    </file>
                  </clipitem>
                </track>
              </video>
            </media>
          </clip>
          <clip explodedTracks="true" frameBlend="FALSE" id="masterclip-107">
            <uuid>d9f52eb0-5806-4831-90d8-12a1b3cb5cb8</uuid>
            <masterclipid>masterclip-107</masterclipid>
            <ismasterclip>TRUE</ismasterclip>
            <duration>672</duration>
            <in>0</in>
            <out>672</out>
            <name>Scene - LJ visemes.105.png</name>
            <rate>
              <timebase>24</timebase>
              <ntsc>FALSE</ntsc>
            </rate>
            <media>
              <video>
                <track>
                  <clipitem frameBlend="FALSE" id="clipitem-108">
                    <name>Scene - LJ visemes.105.png</name>
                    <masterclipid>masterclip-107</masterclipid>
                    <rate>
                      <timebase>24</timebase>
                      <ntsc>FALSE</ntsc>
                    </rate>
                    <alphatype>straight</alphatype>
                    <pixelaspectratio>square</pixelaspectratio>
                    <anamorphic>FALSE</anamorphic>
                    <file id="file-107">
                      <name>Scene - LJ visemes.105.png</name>
                      <pathurl>file://localhost/Users/bot/Documents/CREATE/Character Animator/LJ visemes CH2AE/demo/Scene - LJ visemes/Scene - LJ visemes.105.png</pathurl>
                      <rate>
                        <timebase>24</timebase>
                        <ntsc>FALSE</ntsc>
                      </rate>
                      <duration>672</duration>
                      <timecode>
                        <rate>
                          <timebase>24</timebase>
                          <ntsc>FALSE</ntsc>
                        </rate>
                      </timecode>
                      <media>
                        <video>
                          <duration>1</duration>
                          <samplecharacteristics>
                            <anamorphic>FALSE</anamorphic>
                            <pixelaspectratio>square</pixelaspectratio>
                            <fielddominance>none</fielddominance>
                            <width>1920</width>
                            <height>1080</height>
                          </samplecharacteristics>
                        </video>
                      </media>
                    </file>
                  </clipitem>
                </track>
              </video>
            </media>
          </clip>
          <clip explodedTracks="true" frameBlend="FALSE" id="masterclip-108">
            <uuid>045e609d-ecfc-4dc8-9922-336407df7165</uuid>
            <masterclipid>masterclip-108</masterclipid>
            <ismasterclip>TRUE</ismasterclip>
            <duration>672</duration>
            <in>0</in>
            <out>672</out>
            <name>Scene - LJ visemes.106.png</name>
            <rate>
              <timebase>24</timebase>
              <ntsc>FALSE</ntsc>
            </rate>
            <media>
              <video>
                <track>
                  <clipitem frameBlend="FALSE" id="clipitem-109">
                    <name>Scene - LJ visemes.106.png</name>
                    <masterclipid>masterclip-108</masterclipid>
                    <rate>
                      <timebase>24</timebase>
                      <ntsc>FALSE</ntsc>
                    </rate>
                    <alphatype>straight</alphatype>
                    <pixelaspectratio>square</pixelaspectratio>
                    <anamorphic>FALSE</anamorphic>
                    <file id="file-108">
                      <name>Scene - LJ visemes.106.png</name>
                      <pathurl>file://localhost/Users/bot/Documents/CREATE/Character Animator/LJ visemes CH2AE/demo/Scene - LJ visemes/Scene - LJ visemes.106.png</pathurl>
                      <rate>
                        <timebase>24</timebase>
                        <ntsc>FALSE</ntsc>
                      </rate>
                      <duration>672</duration>
                      <timecode>
                        <rate>
                          <timebase>24</timebase>
                          <ntsc>FALSE</ntsc>
                        </rate>
                      </timecode>
                      <media>
                        <video>
                          <duration>1</duration>
                          <samplecharacteristics>
                            <anamorphic>FALSE</anamorphic>
                            <pixelaspectratio>square</pixelaspectratio>
                            <fielddominance>none</fielddominance>
                            <width>1920</width>
                            <height>1080</height>
                          </samplecharacteristics>
                        </video>
                      </media>
                    </file>
                  </clipitem>
                </track>
              </video>
            </media>
          </clip>
          <clip explodedTracks="true" frameBlend="FALSE" id="masterclip-109">
            <uuid>dbfb98cd-19d8-48cf-9ed1-4a8522c911a2</uuid>
            <masterclipid>masterclip-109</masterclipid>
            <ismasterclip>TRUE</ismasterclip>
            <duration>672</duration>
            <in>0</in>
            <out>672</out>
            <name>Scene - LJ visemes.107.png</name>
            <rate>
              <timebase>24</timebase>
              <ntsc>FALSE</ntsc>
            </rate>
            <media>
              <video>
                <track>
                  <clipitem frameBlend="FALSE" id="clipitem-110">
                    <name>Scene - LJ visemes.107.png</name>
                    <masterclipid>masterclip-109</masterclipid>
                    <rate>
                      <timebase>24</timebase>
                      <ntsc>FALSE</ntsc>
                    </rate>
                    <alphatype>straight</alphatype>
                    <pixelaspectratio>square</pixelaspectratio>
                    <anamorphic>FALSE</anamorphic>
                    <file id="file-109">
                      <name>Scene - LJ visemes.107.png</name>
                      <pathurl>file://localhost/Users/bot/Documents/CREATE/Character Animator/LJ visemes CH2AE/demo/Scene - LJ visemes/Scene - LJ visemes.107.png</pathurl>
                      <rate>
                        <timebase>24</timebase>
                        <ntsc>FALSE</ntsc>
                      </rate>
                      <duration>672</duration>
                      <timecode>
                        <rate>
                          <timebase>24</timebase>
                          <ntsc>FALSE</ntsc>
                        </rate>
                      </timecode>
                      <media>
                        <video>
                          <duration>1</duration>
                          <samplecharacteristics>
                            <anamorphic>FALSE</anamorphic>
                            <pixelaspectratio>square</pixelaspectratio>
                            <fielddominance>none</fielddominance>
                            <width>1920</width>
                            <height>1080</height>
                          </samplecharacteristics>
                        </video>
                      </media>
                    </file>
                  </clipitem>
                </track>
              </video>
            </media>
          </clip>
          <clip explodedTracks="true" frameBlend="FALSE" id="masterclip-110">
            <uuid>eda7f13c-5e5f-4680-8e9b-ed822926b8de</uuid>
            <masterclipid>masterclip-110</masterclipid>
            <ismasterclip>TRUE</ismasterclip>
            <duration>672</duration>
            <in>0</in>
            <out>672</out>
            <name>Scene - LJ visemes.108.png</name>
            <rate>
              <timebase>24</timebase>
              <ntsc>FALSE</ntsc>
            </rate>
            <media>
              <video>
                <track>
                  <clipitem frameBlend="FALSE" id="clipitem-111">
                    <name>Scene - LJ visemes.108.png</name>
                    <masterclipid>masterclip-110</masterclipid>
                    <rate>
                      <timebase>24</timebase>
                      <ntsc>FALSE</ntsc>
                    </rate>
                    <alphatype>straight</alphatype>
                    <pixelaspectratio>square</pixelaspectratio>
                    <anamorphic>FALSE</anamorphic>
                    <file id="file-110">
                      <name>Scene - LJ visemes.108.png</name>
                      <pathurl>file://localhost/Users/bot/Documents/CREATE/Character Animator/LJ visemes CH2AE/demo/Scene - LJ visemes/Scene - LJ visemes.108.png</pathurl>
                      <rate>
                        <timebase>24</timebase>
                        <ntsc>FALSE</ntsc>
                      </rate>
                      <duration>672</duration>
                      <timecode>
                        <rate>
                          <timebase>24</timebase>
                          <ntsc>FALSE</ntsc>
                        </rate>
                      </timecode>
                      <media>
                        <video>
                          <duration>1</duration>
                          <samplecharacteristics>
                            <anamorphic>FALSE</anamorphic>
                            <pixelaspectratio>square</pixelaspectratio>
                            <fielddominance>none</fielddominance>
                            <width>1920</width>
                            <height>1080</height>
                          </samplecharacteristics>
                        </video>
                      </media>
                    </file>
                  </clipitem>
                </track>
              </video>
            </media>
          </clip>
          <clip explodedTracks="true" frameBlend="FALSE" id="masterclip-111">
            <uuid>c2927334-5a4f-4310-95b5-40f19a6e5009</uuid>
            <masterclipid>masterclip-111</masterclipid>
            <ismasterclip>TRUE</ismasterclip>
            <duration>672</duration>
            <in>0</in>
            <out>672</out>
            <name>Scene - LJ visemes.109.png</name>
            <rate>
              <timebase>24</timebase>
              <ntsc>FALSE</ntsc>
            </rate>
            <media>
              <video>
                <track>
                  <clipitem frameBlend="FALSE" id="clipitem-112">
                    <name>Scene - LJ visemes.109.png</name>
                    <masterclipid>masterclip-111</masterclipid>
                    <rate>
                      <timebase>24</timebase>
                      <ntsc>FALSE</ntsc>
                    </rate>
                    <alphatype>straight</alphatype>
                    <pixelaspectratio>square</pixelaspectratio>
                    <anamorphic>FALSE</anamorphic>
                    <file id="file-111">
                      <name>Scene - LJ visemes.109.png</name>
                      <pathurl>file://localhost/Users/bot/Documents/CREATE/Character Animator/LJ visemes CH2AE/demo/Scene - LJ visemes/Scene - LJ visemes.109.png</pathurl>
                      <rate>
                        <timebase>24</timebase>
                        <ntsc>FALSE</ntsc>
                      </rate>
                      <duration>672</duration>
                      <timecode>
                        <rate>
                          <timebase>24</timebase>
                          <ntsc>FALSE</ntsc>
                        </rate>
                      </timecode>
                      <media>
                        <video>
                          <duration>1</duration>
                          <samplecharacteristics>
                            <anamorphic>FALSE</anamorphic>
                            <pixelaspectratio>square</pixelaspectratio>
                            <fielddominance>none</fielddominance>
                            <width>1920</width>
                            <height>1080</height>
                          </samplecharacteristics>
                        </video>
                      </media>
                    </file>
                  </clipitem>
                </track>
              </video>
            </media>
          </clip>
          <clip explodedTracks="true" frameBlend="FALSE" id="masterclip-112">
            <uuid>94e2dca3-f1b3-49a9-8d14-c6efd9f88dc0</uuid>
            <masterclipid>masterclip-112</masterclipid>
            <ismasterclip>TRUE</ismasterclip>
            <duration>672</duration>
            <in>0</in>
            <out>672</out>
            <name>Scene - LJ visemes.110.png</name>
            <rate>
              <timebase>24</timebase>
              <ntsc>FALSE</ntsc>
            </rate>
            <media>
              <video>
                <track>
                  <clipitem frameBlend="FALSE" id="clipitem-113">
                    <name>Scene - LJ visemes.110.png</name>
                    <masterclipid>masterclip-112</masterclipid>
                    <rate>
                      <timebase>24</timebase>
                      <ntsc>FALSE</ntsc>
                    </rate>
                    <alphatype>straight</alphatype>
                    <pixelaspectratio>square</pixelaspectratio>
                    <anamorphic>FALSE</anamorphic>
                    <file id="file-112">
                      <name>Scene - LJ visemes.110.png</name>
                      <pathurl>file://localhost/Users/bot/Documents/CREATE/Character Animator/LJ visemes CH2AE/demo/Scene - LJ visemes/Scene - LJ visemes.110.png</pathurl>
                      <rate>
                        <timebase>24</timebase>
                        <ntsc>FALSE</ntsc>
                      </rate>
                      <duration>672</duration>
                      <timecode>
                        <rate>
                          <timebase>24</timebase>
                          <ntsc>FALSE</ntsc>
                        </rate>
                      </timecode>
                      <media>
                        <video>
                          <duration>1</duration>
                          <samplecharacteristics>
                            <anamorphic>FALSE</anamorphic>
                            <pixelaspectratio>square</pixelaspectratio>
                            <fielddominance>none</fielddominance>
                            <width>1920</width>
                            <height>1080</height>
                          </samplecharacteristics>
                        </video>
                      </media>
                    </file>
                  </clipitem>
                </track>
              </video>
            </media>
          </clip>
          <clip explodedTracks="true" frameBlend="FALSE" id="masterclip-113">
            <uuid>460ee769-0f04-4c1b-abc0-79b7d9f93d7f</uuid>
            <masterclipid>masterclip-113</masterclipid>
            <ismasterclip>TRUE</ismasterclip>
            <duration>672</duration>
            <in>0</in>
            <out>672</out>
            <name>Scene - LJ visemes.111.png</name>
            <rate>
              <timebase>24</timebase>
              <ntsc>FALSE</ntsc>
            </rate>
            <media>
              <video>
                <track>
                  <clipitem frameBlend="FALSE" id="clipitem-114">
                    <name>Scene - LJ visemes.111.png</name>
                    <masterclipid>masterclip-113</masterclipid>
                    <rate>
                      <timebase>24</timebase>
                      <ntsc>FALSE</ntsc>
                    </rate>
                    <alphatype>straight</alphatype>
                    <pixelaspectratio>square</pixelaspectratio>
                    <anamorphic>FALSE</anamorphic>
                    <file id="file-113">
                      <name>Scene - LJ visemes.111.png</name>
                      <pathurl>file://localhost/Users/bot/Documents/CREATE/Character Animator/LJ visemes CH2AE/demo/Scene - LJ visemes/Scene - LJ visemes.111.png</pathurl>
                      <rate>
                        <timebase>24</timebase>
                        <ntsc>FALSE</ntsc>
                      </rate>
                      <duration>672</duration>
                      <timecode>
                        <rate>
                          <timebase>24</timebase>
                          <ntsc>FALSE</ntsc>
                        </rate>
                      </timecode>
                      <media>
                        <video>
                          <duration>1</duration>
                          <samplecharacteristics>
                            <anamorphic>FALSE</anamorphic>
                            <pixelaspectratio>square</pixelaspectratio>
                            <fielddominance>none</fielddominance>
                            <width>1920</width>
                            <height>1080</height>
                          </samplecharacteristics>
                        </video>
                      </media>
                    </file>
                  </clipitem>
                </track>
              </video>
            </media>
          </clip>
          <clip explodedTracks="true" frameBlend="FALSE" id="masterclip-114">
            <uuid>2de1c4d9-44fd-45df-afc5-86b10a03610a</uuid>
            <masterclipid>masterclip-114</masterclipid>
            <ismasterclip>TRUE</ismasterclip>
            <duration>672</duration>
            <in>0</in>
            <out>672</out>
            <name>Scene - LJ visemes.112.png</name>
            <rate>
              <timebase>24</timebase>
              <ntsc>FALSE</ntsc>
            </rate>
            <media>
              <video>
                <track>
                  <clipitem frameBlend="FALSE" id="clipitem-115">
                    <name>Scene - LJ visemes.112.png</name>
                    <masterclipid>masterclip-114</masterclipid>
                    <rate>
                      <timebase>24</timebase>
                      <ntsc>FALSE</ntsc>
                    </rate>
                    <alphatype>straight</alphatype>
                    <pixelaspectratio>square</pixelaspectratio>
                    <anamorphic>FALSE</anamorphic>
                    <file id="file-114">
                      <name>Scene - LJ visemes.112.png</name>
                      <pathurl>file://localhost/Users/bot/Documents/CREATE/Character Animator/LJ visemes CH2AE/demo/Scene - LJ visemes/Scene - LJ visemes.112.png</pathurl>
                      <rate>
                        <timebase>24</timebase>
                        <ntsc>FALSE</ntsc>
                      </rate>
                      <duration>672</duration>
                      <timecode>
                        <rate>
                          <timebase>24</timebase>
                          <ntsc>FALSE</ntsc>
                        </rate>
                      </timecode>
                      <media>
                        <video>
                          <duration>1</duration>
                          <samplecharacteristics>
                            <anamorphic>FALSE</anamorphic>
                            <pixelaspectratio>square</pixelaspectratio>
                            <fielddominance>none</fielddominance>
                            <width>1920</width>
                            <height>1080</height>
                          </samplecharacteristics>
                        </video>
                      </media>
                    </file>
                  </clipitem>
                </track>
              </video>
            </media>
          </clip>
          <clip explodedTracks="true" frameBlend="FALSE" id="masterclip-115">
            <uuid>88e392e9-8cb0-432d-9e32-9121b4dac738</uuid>
            <masterclipid>masterclip-115</masterclipid>
            <ismasterclip>TRUE</ismasterclip>
            <duration>672</duration>
            <in>0</in>
            <out>672</out>
            <name>Scene - LJ visemes.113.png</name>
            <rate>
              <timebase>24</timebase>
              <ntsc>FALSE</ntsc>
            </rate>
            <media>
              <video>
                <track>
                  <clipitem frameBlend="FALSE" id="clipitem-116">
                    <name>Scene - LJ visemes.113.png</name>
                    <masterclipid>masterclip-115</masterclipid>
                    <rate>
                      <timebase>24</timebase>
                      <ntsc>FALSE</ntsc>
                    </rate>
                    <alphatype>straight</alphatype>
                    <pixelaspectratio>square</pixelaspectratio>
                    <anamorphic>FALSE</anamorphic>
                    <file id="file-115">
                      <name>Scene - LJ visemes.113.png</name>
                      <pathurl>file://localhost/Users/bot/Documents/CREATE/Character Animator/LJ visemes CH2AE/demo/Scene - LJ visemes/Scene - LJ visemes.113.png</pathurl>
                      <rate>
                        <timebase>24</timebase>
                        <ntsc>FALSE</ntsc>
                      </rate>
                      <duration>672</duration>
                      <timecode>
                        <rate>
                          <timebase>24</timebase>
                          <ntsc>FALSE</ntsc>
                        </rate>
                      </timecode>
                      <media>
                        <video>
                          <duration>1</duration>
                          <samplecharacteristics>
                            <anamorphic>FALSE</anamorphic>
                            <pixelaspectratio>square</pixelaspectratio>
                            <fielddominance>none</fielddominance>
                            <width>1920</width>
                            <height>1080</height>
                          </samplecharacteristics>
                        </video>
                      </media>
                    </file>
                  </clipitem>
                </track>
              </video>
            </media>
          </clip>
          <clip explodedTracks="true" frameBlend="FALSE" id="masterclip-116">
            <uuid>ba9be91c-cf63-4d6d-b12f-46a83938d7a6</uuid>
            <masterclipid>masterclip-116</masterclipid>
            <ismasterclip>TRUE</ismasterclip>
            <duration>672</duration>
            <in>0</in>
            <out>672</out>
            <name>Scene - LJ visemes.114.png</name>
            <rate>
              <timebase>24</timebase>
              <ntsc>FALSE</ntsc>
            </rate>
            <media>
              <video>
                <track>
                  <clipitem frameBlend="FALSE" id="clipitem-117">
                    <name>Scene - LJ visemes.114.png</name>
                    <masterclipid>masterclip-116</masterclipid>
                    <rate>
                      <timebase>24</timebase>
                      <ntsc>FALSE</ntsc>
                    </rate>
                    <alphatype>straight</alphatype>
                    <pixelaspectratio>square</pixelaspectratio>
                    <anamorphic>FALSE</anamorphic>
                    <file id="file-116">
                      <name>Scene - LJ visemes.114.png</name>
                      <pathurl>file://localhost/Users/bot/Documents/CREATE/Character Animator/LJ visemes CH2AE/demo/Scene - LJ visemes/Scene - LJ visemes.114.png</pathurl>
                      <rate>
                        <timebase>24</timebase>
                        <ntsc>FALSE</ntsc>
                      </rate>
                      <duration>672</duration>
                      <timecode>
                        <rate>
                          <timebase>24</timebase>
                          <ntsc>FALSE</ntsc>
                        </rate>
                      </timecode>
                      <media>
                        <video>
                          <duration>1</duration>
                          <samplecharacteristics>
                            <anamorphic>FALSE</anamorphic>
                            <pixelaspectratio>square</pixelaspectratio>
                            <fielddominance>none</fielddominance>
                            <width>1920</width>
                            <height>1080</height>
                          </samplecharacteristics>
                        </video>
                      </media>
                    </file>
                  </clipitem>
                </track>
              </video>
            </media>
          </clip>
          <clip explodedTracks="true" frameBlend="FALSE" id="masterclip-117">
            <uuid>ed09a1fe-5702-4d75-8fb7-2094a0b7b1d6</uuid>
            <masterclipid>masterclip-117</masterclipid>
            <ismasterclip>TRUE</ismasterclip>
            <duration>672</duration>
            <in>0</in>
            <out>672</out>
            <name>Scene - LJ visemes.115.png</name>
            <rate>
              <timebase>24</timebase>
              <ntsc>FALSE</ntsc>
            </rate>
            <media>
              <video>
                <track>
                  <clipitem frameBlend="FALSE" id="clipitem-118">
                    <name>Scene - LJ visemes.115.png</name>
                    <masterclipid>masterclip-117</masterclipid>
                    <rate>
                      <timebase>24</timebase>
                      <ntsc>FALSE</ntsc>
                    </rate>
                    <alphatype>straight</alphatype>
                    <pixelaspectratio>square</pixelaspectratio>
                    <anamorphic>FALSE</anamorphic>
                    <file id="file-117">
                      <name>Scene - LJ visemes.115.png</name>
                      <pathurl>file://localhost/Users/bot/Documents/CREATE/Character Animator/LJ visemes CH2AE/demo/Scene - LJ visemes/Scene - LJ visemes.115.png</pathurl>
                      <rate>
                        <timebase>24</timebase>
                        <ntsc>FALSE</ntsc>
                      </rate>
                      <duration>672</duration>
                      <timecode>
                        <rate>
                          <timebase>24</timebase>
                          <ntsc>FALSE</ntsc>
                        </rate>
                      </timecode>
                      <media>
                        <video>
                          <duration>1</duration>
                          <samplecharacteristics>
                            <anamorphic>FALSE</anamorphic>
                            <pixelaspectratio>square</pixelaspectratio>
                            <fielddominance>none</fielddominance>
                            <width>1920</width>
                            <height>1080</height>
                          </samplecharacteristics>
                        </video>
                      </media>
                    </file>
                  </clipitem>
                </track>
              </video>
            </media>
          </clip>
          <clip explodedTracks="true" frameBlend="FALSE" id="masterclip-118">
            <uuid>2ef74c00-eace-4ce3-a216-a05840d5ebd0</uuid>
            <masterclipid>masterclip-118</masterclipid>
            <ismasterclip>TRUE</ismasterclip>
            <duration>672</duration>
            <in>0</in>
            <out>672</out>
            <name>Scene - LJ visemes.116.png</name>
            <rate>
              <timebase>24</timebase>
              <ntsc>FALSE</ntsc>
            </rate>
            <media>
              <video>
                <track>
                  <clipitem frameBlend="FALSE" id="clipitem-119">
                    <name>Scene - LJ visemes.116.png</name>
                    <masterclipid>masterclip-118</masterclipid>
                    <rate>
                      <timebase>24</timebase>
                      <ntsc>FALSE</ntsc>
                    </rate>
                    <alphatype>straight</alphatype>
                    <pixelaspectratio>square</pixelaspectratio>
                    <anamorphic>FALSE</anamorphic>
                    <file id="file-118">
                      <name>Scene - LJ visemes.116.png</name>
                      <pathurl>file://localhost/Users/bot/Documents/CREATE/Character Animator/LJ visemes CH2AE/demo/Scene - LJ visemes/Scene - LJ visemes.116.png</pathurl>
                      <rate>
                        <timebase>24</timebase>
                        <ntsc>FALSE</ntsc>
                      </rate>
                      <duration>672</duration>
                      <timecode>
                        <rate>
                          <timebase>24</timebase>
                          <ntsc>FALSE</ntsc>
                        </rate>
                      </timecode>
                      <media>
                        <video>
                          <duration>1</duration>
                          <samplecharacteristics>
                            <anamorphic>FALSE</anamorphic>
                            <pixelaspectratio>square</pixelaspectratio>
                            <fielddominance>none</fielddominance>
                            <width>1920</width>
                            <height>1080</height>
                          </samplecharacteristics>
                        </video>
                      </media>
                    </file>
                  </clipitem>
                </track>
              </video>
            </media>
          </clip>
          <clip explodedTracks="true" frameBlend="FALSE" id="masterclip-119">
            <uuid>55fc33f9-1308-4968-92a8-684841df357c</uuid>
            <masterclipid>masterclip-119</masterclipid>
            <ismasterclip>TRUE</ismasterclip>
            <duration>672</duration>
            <in>0</in>
            <out>672</out>
            <name>Scene - LJ visemes.117.png</name>
            <rate>
              <timebase>24</timebase>
              <ntsc>FALSE</ntsc>
            </rate>
            <media>
              <video>
                <track>
                  <clipitem frameBlend="FALSE" id="clipitem-120">
                    <name>Scene - LJ visemes.117.png</name>
                    <masterclipid>masterclip-119</masterclipid>
                    <rate>
                      <timebase>24</timebase>
                      <ntsc>FALSE</ntsc>
                    </rate>
                    <alphatype>straight</alphatype>
                    <pixelaspectratio>square</pixelaspectratio>
                    <anamorphic>FALSE</anamorphic>
                    <file id="file-119">
                      <name>Scene - LJ visemes.117.png</name>
                      <pathurl>file://localhost/Users/bot/Documents/CREATE/Character Animator/LJ visemes CH2AE/demo/Scene - LJ visemes/Scene - LJ visemes.117.png</pathurl>
                      <rate>
                        <timebase>24</timebase>
                        <ntsc>FALSE</ntsc>
                      </rate>
                      <duration>672</duration>
                      <timecode>
                        <rate>
                          <timebase>24</timebase>
                          <ntsc>FALSE</ntsc>
                        </rate>
                      </timecode>
                      <media>
                        <video>
                          <duration>1</duration>
                          <samplecharacteristics>
                            <anamorphic>FALSE</anamorphic>
                            <pixelaspectratio>square</pixelaspectratio>
                            <fielddominance>none</fielddominance>
                            <width>1920</width>
                            <height>1080</height>
                          </samplecharacteristics>
                        </video>
                      </media>
                    </file>
                  </clipitem>
                </track>
              </video>
            </media>
          </clip>
          <clip explodedTracks="true" frameBlend="FALSE" id="masterclip-120">
            <uuid>0c932aa7-a4f8-4de7-aab9-30e1ccd4fb18</uuid>
            <masterclipid>masterclip-120</masterclipid>
            <ismasterclip>TRUE</ismasterclip>
            <duration>672</duration>
            <in>0</in>
            <out>672</out>
            <name>Scene - LJ visemes.118.png</name>
            <rate>
              <timebase>24</timebase>
              <ntsc>FALSE</ntsc>
            </rate>
            <media>
              <video>
                <track>
                  <clipitem frameBlend="FALSE" id="clipitem-121">
                    <name>Scene - LJ visemes.118.png</name>
                    <masterclipid>masterclip-120</masterclipid>
                    <rate>
                      <timebase>24</timebase>
                      <ntsc>FALSE</ntsc>
                    </rate>
                    <alphatype>straight</alphatype>
                    <pixelaspectratio>square</pixelaspectratio>
                    <anamorphic>FALSE</anamorphic>
                    <file id="file-120">
                      <name>Scene - LJ visemes.118.png</name>
                      <pathurl>file://localhost/Users/bot/Documents/CREATE/Character Animator/LJ visemes CH2AE/demo/Scene - LJ visemes/Scene - LJ visemes.118.png</pathurl>
                      <rate>
                        <timebase>24</timebase>
                        <ntsc>FALSE</ntsc>
                      </rate>
                      <duration>672</duration>
                      <timecode>
                        <rate>
                          <timebase>24</timebase>
                          <ntsc>FALSE</ntsc>
                        </rate>
                      </timecode>
                      <media>
                        <video>
                          <duration>1</duration>
                          <samplecharacteristics>
                            <anamorphic>FALSE</anamorphic>
                            <pixelaspectratio>square</pixelaspectratio>
                            <fielddominance>none</fielddominance>
                            <width>1920</width>
                            <height>1080</height>
                          </samplecharacteristics>
                        </video>
                      </media>
                    </file>
                  </clipitem>
                </track>
              </video>
            </media>
          </clip>
          <clip explodedTracks="true" frameBlend="FALSE" id="masterclip-121">
            <uuid>ebb12254-fc44-497f-8326-7c332b138e2c</uuid>
            <masterclipid>masterclip-121</masterclipid>
            <ismasterclip>TRUE</ismasterclip>
            <duration>672</duration>
            <in>0</in>
            <out>672</out>
            <name>Scene - LJ visemes.119.png</name>
            <rate>
              <timebase>24</timebase>
              <ntsc>FALSE</ntsc>
            </rate>
            <media>
              <video>
                <track>
                  <clipitem frameBlend="FALSE" id="clipitem-122">
                    <name>Scene - LJ visemes.119.png</name>
                    <masterclipid>masterclip-121</masterclipid>
                    <rate>
                      <timebase>24</timebase>
                      <ntsc>FALSE</ntsc>
                    </rate>
                    <alphatype>straight</alphatype>
                    <pixelaspectratio>square</pixelaspectratio>
                    <anamorphic>FALSE</anamorphic>
                    <file id="file-121">
                      <name>Scene - LJ visemes.119.png</name>
                      <pathurl>file://localhost/Users/bot/Documents/CREATE/Character Animator/LJ visemes CH2AE/demo/Scene - LJ visemes/Scene - LJ visemes.119.png</pathurl>
                      <rate>
                        <timebase>24</timebase>
                        <ntsc>FALSE</ntsc>
                      </rate>
                      <duration>672</duration>
                      <timecode>
                        <rate>
                          <timebase>24</timebase>
                          <ntsc>FALSE</ntsc>
                        </rate>
                      </timecode>
                      <media>
                        <video>
                          <duration>1</duration>
                          <samplecharacteristics>
                            <anamorphic>FALSE</anamorphic>
                            <pixelaspectratio>square</pixelaspectratio>
                            <fielddominance>none</fielddominance>
                            <width>1920</width>
                            <height>1080</height>
                          </samplecharacteristics>
                        </video>
                      </media>
                    </file>
                  </clipitem>
                </track>
              </video>
            </media>
          </clip>
          <clip explodedTracks="true" frameBlend="FALSE" id="masterclip-122">
            <uuid>09095919-662d-485b-944c-9b161ee5a434</uuid>
            <masterclipid>masterclip-122</masterclipid>
            <ismasterclip>TRUE</ismasterclip>
            <duration>672</duration>
            <in>0</in>
            <out>672</out>
            <name>Scene - LJ visemes.120.png</name>
            <rate>
              <timebase>24</timebase>
              <ntsc>FALSE</ntsc>
            </rate>
            <media>
              <video>
                <track>
                  <clipitem frameBlend="FALSE" id="clipitem-123">
                    <name>Scene - LJ visemes.120.png</name>
                    <masterclipid>masterclip-122</masterclipid>
                    <rate>
                      <timebase>24</timebase>
                      <ntsc>FALSE</ntsc>
                    </rate>
                    <alphatype>straight</alphatype>
                    <pixelaspectratio>square</pixelaspectratio>
                    <anamorphic>FALSE</anamorphic>
                    <file id="file-122">
                      <name>Scene - LJ visemes.120.png</name>
                      <pathurl>file://localhost/Users/bot/Documents/CREATE/Character Animator/LJ visemes CH2AE/demo/Scene - LJ visemes/Scene - LJ visemes.120.png</pathurl>
                      <rate>
                        <timebase>24</timebase>
                        <ntsc>FALSE</ntsc>
                      </rate>
                      <duration>672</duration>
                      <timecode>
                        <rate>
                          <timebase>24</timebase>
                          <ntsc>FALSE</ntsc>
                        </rate>
                      </timecode>
                      <media>
                        <video>
                          <duration>1</duration>
                          <samplecharacteristics>
                            <anamorphic>FALSE</anamorphic>
                            <pixelaspectratio>square</pixelaspectratio>
                            <fielddominance>none</fielddominance>
                            <width>1920</width>
                            <height>1080</height>
                          </samplecharacteristics>
                        </video>
                      </media>
                    </file>
                  </clipitem>
                </track>
              </video>
            </media>
          </clip>
          <clip explodedTracks="true" frameBlend="FALSE" id="masterclip-123">
            <uuid>109966e7-a6c0-4a8d-b160-1a9c88529870</uuid>
            <masterclipid>masterclip-123</masterclipid>
            <ismasterclip>TRUE</ismasterclip>
            <duration>672</duration>
            <in>0</in>
            <out>672</out>
            <name>Scene - LJ visemes.121.png</name>
            <rate>
              <timebase>24</timebase>
              <ntsc>FALSE</ntsc>
            </rate>
            <media>
              <video>
                <track>
                  <clipitem frameBlend="FALSE" id="clipitem-124">
                    <name>Scene - LJ visemes.121.png</name>
                    <masterclipid>masterclip-123</masterclipid>
                    <rate>
                      <timebase>24</timebase>
                      <ntsc>FALSE</ntsc>
                    </rate>
                    <alphatype>straight</alphatype>
                    <pixelaspectratio>square</pixelaspectratio>
                    <anamorphic>FALSE</anamorphic>
                    <file id="file-123">
                      <name>Scene - LJ visemes.121.png</name>
                      <pathurl>file://localhost/Users/bot/Documents/CREATE/Character Animator/LJ visemes CH2AE/demo/Scene - LJ visemes/Scene - LJ visemes.121.png</pathurl>
                      <rate>
                        <timebase>24</timebase>
                        <ntsc>FALSE</ntsc>
                      </rate>
                      <duration>672</duration>
                      <timecode>
                        <rate>
                          <timebase>24</timebase>
                          <ntsc>FALSE</ntsc>
                        </rate>
                      </timecode>
                      <media>
                        <video>
                          <duration>1</duration>
                          <samplecharacteristics>
                            <anamorphic>FALSE</anamorphic>
                            <pixelaspectratio>square</pixelaspectratio>
                            <fielddominance>none</fielddominance>
                            <width>1920</width>
                            <height>1080</height>
                          </samplecharacteristics>
                        </video>
                      </media>
                    </file>
                  </clipitem>
                </track>
              </video>
            </media>
          </clip>
          <clip explodedTracks="true" frameBlend="FALSE" id="masterclip-124">
            <uuid>5f936686-1de4-4df5-8200-9c0e1207acc3</uuid>
            <masterclipid>masterclip-124</masterclipid>
            <ismasterclip>TRUE</ismasterclip>
            <duration>672</duration>
            <in>0</in>
            <out>672</out>
            <name>Scene - LJ visemes.122.png</name>
            <rate>
              <timebase>24</timebase>
              <ntsc>FALSE</ntsc>
            </rate>
            <media>
              <video>
                <track>
                  <clipitem frameBlend="FALSE" id="clipitem-125">
                    <name>Scene - LJ visemes.122.png</name>
                    <masterclipid>masterclip-124</masterclipid>
                    <rate>
                      <timebase>24</timebase>
                      <ntsc>FALSE</ntsc>
                    </rate>
                    <alphatype>straight</alphatype>
                    <pixelaspectratio>square</pixelaspectratio>
                    <anamorphic>FALSE</anamorphic>
                    <file id="file-124">
                      <name>Scene - LJ visemes.122.png</name>
                      <pathurl>file://localhost/Users/bot/Documents/CREATE/Character Animator/LJ visemes CH2AE/demo/Scene - LJ visemes/Scene - LJ visemes.122.png</pathurl>
                      <rate>
                        <timebase>24</timebase>
                        <ntsc>FALSE</ntsc>
                      </rate>
                      <duration>672</duration>
                      <timecode>
                        <rate>
                          <timebase>24</timebase>
                          <ntsc>FALSE</ntsc>
                        </rate>
                      </timecode>
                      <media>
                        <video>
                          <duration>1</duration>
                          <samplecharacteristics>
                            <anamorphic>FALSE</anamorphic>
                            <pixelaspectratio>square</pixelaspectratio>
                            <fielddominance>none</fielddominance>
                            <width>1920</width>
                            <height>1080</height>
                          </samplecharacteristics>
                        </video>
                      </media>
                    </file>
                  </clipitem>
                </track>
              </video>
            </media>
          </clip>
          <clip explodedTracks="true" frameBlend="FALSE" id="masterclip-125">
            <uuid>a5df9f8c-4da0-48bb-bed2-d386d5fe6128</uuid>
            <masterclipid>masterclip-125</masterclipid>
            <ismasterclip>TRUE</ismasterclip>
            <duration>672</duration>
            <in>0</in>
            <out>672</out>
            <name>Scene - LJ visemes.123.png</name>
            <rate>
              <timebase>24</timebase>
              <ntsc>FALSE</ntsc>
            </rate>
            <media>
              <video>
                <track>
                  <clipitem frameBlend="FALSE" id="clipitem-126">
                    <name>Scene - LJ visemes.123.png</name>
                    <masterclipid>masterclip-125</masterclipid>
                    <rate>
                      <timebase>24</timebase>
                      <ntsc>FALSE</ntsc>
                    </rate>
                    <alphatype>straight</alphatype>
                    <pixelaspectratio>square</pixelaspectratio>
                    <anamorphic>FALSE</anamorphic>
                    <file id="file-125">
                      <name>Scene - LJ visemes.123.png</name>
                      <pathurl>file://localhost/Users/bot/Documents/CREATE/Character Animator/LJ visemes CH2AE/demo/Scene - LJ visemes/Scene - LJ visemes.123.png</pathurl>
                      <rate>
                        <timebase>24</timebase>
                        <ntsc>FALSE</ntsc>
                      </rate>
                      <duration>672</duration>
                      <timecode>
                        <rate>
                          <timebase>24</timebase>
                          <ntsc>FALSE</ntsc>
                        </rate>
                      </timecode>
                      <media>
                        <video>
                          <duration>1</duration>
                          <samplecharacteristics>
                            <anamorphic>FALSE</anamorphic>
                            <pixelaspectratio>square</pixelaspectratio>
                            <fielddominance>none</fielddominance>
                            <width>1920</width>
                            <height>1080</height>
                          </samplecharacteristics>
                        </video>
                      </media>
                    </file>
                  </clipitem>
                </track>
              </video>
            </media>
          </clip>
          <clip explodedTracks="true" frameBlend="FALSE" id="masterclip-126">
            <uuid>3976ae4f-e32e-4d70-bcd0-1c1964db05d7</uuid>
            <masterclipid>masterclip-126</masterclipid>
            <ismasterclip>TRUE</ismasterclip>
            <duration>672</duration>
            <in>0</in>
            <out>672</out>
            <name>Scene - LJ visemes.124.png</name>
            <rate>
              <timebase>24</timebase>
              <ntsc>FALSE</ntsc>
            </rate>
            <media>
              <video>
                <track>
                  <clipitem frameBlend="FALSE" id="clipitem-127">
                    <name>Scene - LJ visemes.124.png</name>
                    <masterclipid>masterclip-126</masterclipid>
                    <rate>
                      <timebase>24</timebase>
                      <ntsc>FALSE</ntsc>
                    </rate>
                    <alphatype>straight</alphatype>
                    <pixelaspectratio>square</pixelaspectratio>
                    <anamorphic>FALSE</anamorphic>
                    <file id="file-126">
                      <name>Scene - LJ visemes.124.png</name>
                      <pathurl>file://localhost/Users/bot/Documents/CREATE/Character Animator/LJ visemes CH2AE/demo/Scene - LJ visemes/Scene - LJ visemes.124.png</pathurl>
                      <rate>
                        <timebase>24</timebase>
                        <ntsc>FALSE</ntsc>
                      </rate>
                      <duration>672</duration>
                      <timecode>
                        <rate>
                          <timebase>24</timebase>
                          <ntsc>FALSE</ntsc>
                        </rate>
                      </timecode>
                      <media>
                        <video>
                          <duration>1</duration>
                          <samplecharacteristics>
                            <anamorphic>FALSE</anamorphic>
                            <pixelaspectratio>square</pixelaspectratio>
                            <fielddominance>none</fielddominance>
                            <width>1920</width>
                            <height>1080</height>
                          </samplecharacteristics>
                        </video>
                      </media>
                    </file>
                  </clipitem>
                </track>
              </video>
            </media>
          </clip>
          <clip explodedTracks="true" frameBlend="FALSE" id="masterclip-127">
            <uuid>2b975d2f-376b-4e4e-959e-939dd17c2529</uuid>
            <masterclipid>masterclip-127</masterclipid>
            <ismasterclip>TRUE</ismasterclip>
            <duration>672</duration>
            <in>0</in>
            <out>672</out>
            <name>Scene - LJ visemes.125.png</name>
            <rate>
              <timebase>24</timebase>
              <ntsc>FALSE</ntsc>
            </rate>
            <media>
              <video>
                <track>
                  <clipitem frameBlend="FALSE" id="clipitem-128">
                    <name>Scene - LJ visemes.125.png</name>
                    <masterclipid>masterclip-127</masterclipid>
                    <rate>
                      <timebase>24</timebase>
                      <ntsc>FALSE</ntsc>
                    </rate>
                    <alphatype>straight</alphatype>
                    <pixelaspectratio>square</pixelaspectratio>
                    <anamorphic>FALSE</anamorphic>
                    <file id="file-127">
                      <name>Scene - LJ visemes.125.png</name>
                      <pathurl>file://localhost/Users/bot/Documents/CREATE/Character Animator/LJ visemes CH2AE/demo/Scene - LJ visemes/Scene - LJ visemes.125.png</pathurl>
                      <rate>
                        <timebase>24</timebase>
                        <ntsc>FALSE</ntsc>
                      </rate>
                      <duration>672</duration>
                      <timecode>
                        <rate>
                          <timebase>24</timebase>
                          <ntsc>FALSE</ntsc>
                        </rate>
                      </timecode>
                      <media>
                        <video>
                          <duration>1</duration>
                          <samplecharacteristics>
                            <anamorphic>FALSE</anamorphic>
                            <pixelaspectratio>square</pixelaspectratio>
                            <fielddominance>none</fielddominance>
                            <width>1920</width>
                            <height>1080</height>
                          </samplecharacteristics>
                        </video>
                      </media>
                    </file>
                  </clipitem>
                </track>
              </video>
            </media>
          </clip>
          <clip explodedTracks="true" frameBlend="FALSE" id="masterclip-128">
            <uuid>6875c9b2-96d5-4b80-b20f-4d8d90ea69b7</uuid>
            <masterclipid>masterclip-128</masterclipid>
            <ismasterclip>TRUE</ismasterclip>
            <duration>672</duration>
            <in>0</in>
            <out>672</out>
            <name>Scene - LJ visemes.126.png</name>
            <rate>
              <timebase>24</timebase>
              <ntsc>FALSE</ntsc>
            </rate>
            <media>
              <video>
                <track>
                  <clipitem frameBlend="FALSE" id="clipitem-129">
                    <name>Scene - LJ visemes.126.png</name>
                    <masterclipid>masterclip-128</masterclipid>
                    <rate>
                      <timebase>24</timebase>
                      <ntsc>FALSE</ntsc>
                    </rate>
                    <alphatype>straight</alphatype>
                    <pixelaspectratio>square</pixelaspectratio>
                    <anamorphic>FALSE</anamorphic>
                    <file id="file-128">
                      <name>Scene - LJ visemes.126.png</name>
                      <pathurl>file://localhost/Users/bot/Documents/CREATE/Character Animator/LJ visemes CH2AE/demo/Scene - LJ visemes/Scene - LJ visemes.126.png</pathurl>
                      <rate>
                        <timebase>24</timebase>
                        <ntsc>FALSE</ntsc>
                      </rate>
                      <duration>672</duration>
                      <timecode>
                        <rate>
                          <timebase>24</timebase>
                          <ntsc>FALSE</ntsc>
                        </rate>
                      </timecode>
                      <media>
                        <video>
                          <duration>1</duration>
                          <samplecharacteristics>
                            <anamorphic>FALSE</anamorphic>
                            <pixelaspectratio>square</pixelaspectratio>
                            <fielddominance>none</fielddominance>
                            <width>1920</width>
                            <height>1080</height>
                          </samplecharacteristics>
                        </video>
                      </media>
                    </file>
                  </clipitem>
                </track>
              </video>
            </media>
          </clip>
          <clip explodedTracks="true" frameBlend="FALSE" id="masterclip-129">
            <uuid>655ad5f8-d7fe-495f-8f77-1d4101252226</uuid>
            <masterclipid>masterclip-129</masterclipid>
            <ismasterclip>TRUE</ismasterclip>
            <duration>672</duration>
            <in>0</in>
            <out>672</out>
            <name>Scene - LJ visemes.127.png</name>
            <rate>
              <timebase>24</timebase>
              <ntsc>FALSE</ntsc>
            </rate>
            <media>
              <video>
                <track>
                  <clipitem frameBlend="FALSE" id="clipitem-130">
                    <name>Scene - LJ visemes.127.png</name>
                    <masterclipid>masterclip-129</masterclipid>
                    <rate>
                      <timebase>24</timebase>
                      <ntsc>FALSE</ntsc>
                    </rate>
                    <alphatype>straight</alphatype>
                    <pixelaspectratio>square</pixelaspectratio>
                    <anamorphic>FALSE</anamorphic>
                    <file id="file-129">
                      <name>Scene - LJ visemes.127.png</name>
                      <pathurl>file://localhost/Users/bot/Documents/CREATE/Character Animator/LJ visemes CH2AE/demo/Scene - LJ visemes/Scene - LJ visemes.127.png</pathurl>
                      <rate>
                        <timebase>24</timebase>
                        <ntsc>FALSE</ntsc>
                      </rate>
                      <duration>672</duration>
                      <timecode>
                        <rate>
                          <timebase>24</timebase>
                          <ntsc>FALSE</ntsc>
                        </rate>
                      </timecode>
                      <media>
                        <video>
                          <duration>1</duration>
                          <samplecharacteristics>
                            <anamorphic>FALSE</anamorphic>
                            <pixelaspectratio>square</pixelaspectratio>
                            <fielddominance>none</fielddominance>
                            <width>1920</width>
                            <height>1080</height>
                          </samplecharacteristics>
                        </video>
                      </media>
                    </file>
                  </clipitem>
                </track>
              </video>
            </media>
          </clip>
          <clip explodedTracks="true" frameBlend="FALSE" id="masterclip-130">
            <uuid>f2acff7d-62f8-490f-a107-593c4643fc2b</uuid>
            <masterclipid>masterclip-130</masterclipid>
            <ismasterclip>TRUE</ismasterclip>
            <duration>672</duration>
            <in>0</in>
            <out>672</out>
            <name>Scene - LJ visemes.128.png</name>
            <rate>
              <timebase>24</timebase>
              <ntsc>FALSE</ntsc>
            </rate>
            <media>
              <video>
                <track>
                  <clipitem frameBlend="FALSE" id="clipitem-131">
                    <name>Scene - LJ visemes.128.png</name>
                    <masterclipid>masterclip-130</masterclipid>
                    <rate>
                      <timebase>24</timebase>
                      <ntsc>FALSE</ntsc>
                    </rate>
                    <alphatype>straight</alphatype>
                    <pixelaspectratio>square</pixelaspectratio>
                    <anamorphic>FALSE</anamorphic>
                    <file id="file-130">
                      <name>Scene - LJ visemes.128.png</name>
                      <pathurl>file://localhost/Users/bot/Documents/CREATE/Character Animator/LJ visemes CH2AE/demo/Scene - LJ visemes/Scene - LJ visemes.128.png</pathurl>
                      <rate>
                        <timebase>24</timebase>
                        <ntsc>FALSE</ntsc>
                      </rate>
                      <duration>672</duration>
                      <timecode>
                        <rate>
                          <timebase>24</timebase>
                          <ntsc>FALSE</ntsc>
                        </rate>
                      </timecode>
                      <media>
                        <video>
                          <duration>1</duration>
                          <samplecharacteristics>
                            <anamorphic>FALSE</anamorphic>
                            <pixelaspectratio>square</pixelaspectratio>
                            <fielddominance>none</fielddominance>
                            <width>1920</width>
                            <height>1080</height>
                          </samplecharacteristics>
                        </video>
                      </media>
                    </file>
                  </clipitem>
                </track>
              </video>
            </media>
          </clip>
          <clip explodedTracks="true" frameBlend="FALSE" id="masterclip-131">
            <uuid>9855c603-f1cd-48ee-95f1-7f1530c50f61</uuid>
            <masterclipid>masterclip-131</masterclipid>
            <ismasterclip>TRUE</ismasterclip>
            <duration>672</duration>
            <in>0</in>
            <out>672</out>
            <name>Scene - LJ visemes.129.png</name>
            <rate>
              <timebase>24</timebase>
              <ntsc>FALSE</ntsc>
            </rate>
            <media>
              <video>
                <track>
                  <clipitem frameBlend="FALSE" id="clipitem-132">
                    <name>Scene - LJ visemes.129.png</name>
                    <masterclipid>masterclip-131</masterclipid>
                    <rate>
                      <timebase>24</timebase>
                      <ntsc>FALSE</ntsc>
                    </rate>
                    <alphatype>straight</alphatype>
                    <pixelaspectratio>square</pixelaspectratio>
                    <anamorphic>FALSE</anamorphic>
                    <file id="file-131">
                      <name>Scene - LJ visemes.129.png</name>
                      <pathurl>file://localhost/Users/bot/Documents/CREATE/Character Animator/LJ visemes CH2AE/demo/Scene - LJ visemes/Scene - LJ visemes.129.png</pathurl>
                      <rate>
                        <timebase>24</timebase>
                        <ntsc>FALSE</ntsc>
                      </rate>
                      <duration>672</duration>
                      <timecode>
                        <rate>
                          <timebase>24</timebase>
                          <ntsc>FALSE</ntsc>
                        </rate>
                      </timecode>
                      <media>
                        <video>
                          <duration>1</duration>
                          <samplecharacteristics>
                            <anamorphic>FALSE</anamorphic>
                            <pixelaspectratio>square</pixelaspectratio>
                            <fielddominance>none</fielddominance>
                            <width>1920</width>
                            <height>1080</height>
                          </samplecharacteristics>
                        </video>
                      </media>
                    </file>
                  </clipitem>
                </track>
              </video>
            </media>
          </clip>
          <clip explodedTracks="true" frameBlend="FALSE" id="masterclip-132">
            <uuid>bae1953d-de2f-4069-98d4-c42f4b661e36</uuid>
            <masterclipid>masterclip-132</masterclipid>
            <ismasterclip>TRUE</ismasterclip>
            <duration>672</duration>
            <in>0</in>
            <out>672</out>
            <name>Scene - LJ visemes.130.png</name>
            <rate>
              <timebase>24</timebase>
              <ntsc>FALSE</ntsc>
            </rate>
            <media>
              <video>
                <track>
                  <clipitem frameBlend="FALSE" id="clipitem-133">
                    <name>Scene - LJ visemes.130.png</name>
                    <masterclipid>masterclip-132</masterclipid>
                    <rate>
                      <timebase>24</timebase>
                      <ntsc>FALSE</ntsc>
                    </rate>
                    <alphatype>straight</alphatype>
                    <pixelaspectratio>square</pixelaspectratio>
                    <anamorphic>FALSE</anamorphic>
                    <file id="file-132">
                      <name>Scene - LJ visemes.130.png</name>
                      <pathurl>file://localhost/Users/bot/Documents/CREATE/Character Animator/LJ visemes CH2AE/demo/Scene - LJ visemes/Scene - LJ visemes.130.png</pathurl>
                      <rate>
                        <timebase>24</timebase>
                        <ntsc>FALSE</ntsc>
                      </rate>
                      <duration>672</duration>
                      <timecode>
                        <rate>
                          <timebase>24</timebase>
                          <ntsc>FALSE</ntsc>
                        </rate>
                      </timecode>
                      <media>
                        <video>
                          <duration>1</duration>
                          <samplecharacteristics>
                            <anamorphic>FALSE</anamorphic>
                            <pixelaspectratio>square</pixelaspectratio>
                            <fielddominance>none</fielddominance>
                            <width>1920</width>
                            <height>1080</height>
                          </samplecharacteristics>
                        </video>
                      </media>
                    </file>
                  </clipitem>
                </track>
              </video>
            </media>
          </clip>
          <clip explodedTracks="true" frameBlend="FALSE" id="masterclip-133">
            <uuid>53f25cf3-4c1e-4585-96bd-721dc5acc03c</uuid>
            <masterclipid>masterclip-133</masterclipid>
            <ismasterclip>TRUE</ismasterclip>
            <duration>672</duration>
            <in>0</in>
            <out>672</out>
            <name>Scene - LJ visemes.131.png</name>
            <rate>
              <timebase>24</timebase>
              <ntsc>FALSE</ntsc>
            </rate>
            <media>
              <video>
                <track>
                  <clipitem frameBlend="FALSE" id="clipitem-134">
                    <name>Scene - LJ visemes.131.png</name>
                    <masterclipid>masterclip-133</masterclipid>
                    <rate>
                      <timebase>24</timebase>
                      <ntsc>FALSE</ntsc>
                    </rate>
                    <alphatype>straight</alphatype>
                    <pixelaspectratio>square</pixelaspectratio>
                    <anamorphic>FALSE</anamorphic>
                    <file id="file-133">
                      <name>Scene - LJ visemes.131.png</name>
                      <pathurl>file://localhost/Users/bot/Documents/CREATE/Character Animator/LJ visemes CH2AE/demo/Scene - LJ visemes/Scene - LJ visemes.131.png</pathurl>
                      <rate>
                        <timebase>24</timebase>
                        <ntsc>FALSE</ntsc>
                      </rate>
                      <duration>672</duration>
                      <timecode>
                        <rate>
                          <timebase>24</timebase>
                          <ntsc>FALSE</ntsc>
                        </rate>
                      </timecode>
                      <media>
                        <video>
                          <duration>1</duration>
                          <samplecharacteristics>
                            <anamorphic>FALSE</anamorphic>
                            <pixelaspectratio>square</pixelaspectratio>
                            <fielddominance>none</fielddominance>
                            <width>1920</width>
                            <height>1080</height>
                          </samplecharacteristics>
                        </video>
                      </media>
                    </file>
                  </clipitem>
                </track>
              </video>
            </media>
          </clip>
          <clip explodedTracks="true" frameBlend="FALSE" id="masterclip-134">
            <uuid>ae844ac8-ec58-4427-9682-68b9b12c9448</uuid>
            <masterclipid>masterclip-134</masterclipid>
            <ismasterclip>TRUE</ismasterclip>
            <duration>672</duration>
            <in>0</in>
            <out>672</out>
            <name>Scene - LJ visemes.132.png</name>
            <rate>
              <timebase>24</timebase>
              <ntsc>FALSE</ntsc>
            </rate>
            <media>
              <video>
                <track>
                  <clipitem frameBlend="FALSE" id="clipitem-135">
                    <name>Scene - LJ visemes.132.png</name>
                    <masterclipid>masterclip-134</masterclipid>
                    <rate>
                      <timebase>24</timebase>
                      <ntsc>FALSE</ntsc>
                    </rate>
                    <alphatype>straight</alphatype>
                    <pixelaspectratio>square</pixelaspectratio>
                    <anamorphic>FALSE</anamorphic>
                    <file id="file-134">
                      <name>Scene - LJ visemes.132.png</name>
                      <pathurl>file://localhost/Users/bot/Documents/CREATE/Character Animator/LJ visemes CH2AE/demo/Scene - LJ visemes/Scene - LJ visemes.132.png</pathurl>
                      <rate>
                        <timebase>24</timebase>
                        <ntsc>FALSE</ntsc>
                      </rate>
                      <duration>672</duration>
                      <timecode>
                        <rate>
                          <timebase>24</timebase>
                          <ntsc>FALSE</ntsc>
                        </rate>
                      </timecode>
                      <media>
                        <video>
                          <duration>1</duration>
                          <samplecharacteristics>
                            <anamorphic>FALSE</anamorphic>
                            <pixelaspectratio>square</pixelaspectratio>
                            <fielddominance>none</fielddominance>
                            <width>1920</width>
                            <height>1080</height>
                          </samplecharacteristics>
                        </video>
                      </media>
                    </file>
                  </clipitem>
                </track>
              </video>
            </media>
          </clip>
          <clip explodedTracks="true" frameBlend="FALSE" id="masterclip-135">
            <uuid>3a06a541-1653-444b-ae3d-e09c6d34c7c3</uuid>
            <masterclipid>masterclip-135</masterclipid>
            <ismasterclip>TRUE</ismasterclip>
            <duration>672</duration>
            <in>0</in>
            <out>672</out>
            <name>Scene - LJ visemes.133.png</name>
            <rate>
              <timebase>24</timebase>
              <ntsc>FALSE</ntsc>
            </rate>
            <media>
              <video>
                <track>
                  <clipitem frameBlend="FALSE" id="clipitem-136">
                    <name>Scene - LJ visemes.133.png</name>
                    <masterclipid>masterclip-135</masterclipid>
                    <rate>
                      <timebase>24</timebase>
                      <ntsc>FALSE</ntsc>
                    </rate>
                    <alphatype>straight</alphatype>
                    <pixelaspectratio>square</pixelaspectratio>
                    <anamorphic>FALSE</anamorphic>
                    <file id="file-135">
                      <name>Scene - LJ visemes.133.png</name>
                      <pathurl>file://localhost/Users/bot/Documents/CREATE/Character Animator/LJ visemes CH2AE/demo/Scene - LJ visemes/Scene - LJ visemes.133.png</pathurl>
                      <rate>
                        <timebase>24</timebase>
                        <ntsc>FALSE</ntsc>
                      </rate>
                      <duration>672</duration>
                      <timecode>
                        <rate>
                          <timebase>24</timebase>
                          <ntsc>FALSE</ntsc>
                        </rate>
                      </timecode>
                      <media>
                        <video>
                          <duration>1</duration>
                          <samplecharacteristics>
                            <anamorphic>FALSE</anamorphic>
                            <pixelaspectratio>square</pixelaspectratio>
                            <fielddominance>none</fielddominance>
                            <width>1920</width>
                            <height>1080</height>
                          </samplecharacteristics>
                        </video>
                      </media>
                    </file>
                  </clipitem>
                </track>
              </video>
            </media>
          </clip>
          <clip explodedTracks="true" frameBlend="FALSE" id="masterclip-136">
            <uuid>1c6dbef1-d041-4a28-a04a-0d546c2045a3</uuid>
            <masterclipid>masterclip-136</masterclipid>
            <ismasterclip>TRUE</ismasterclip>
            <duration>672</duration>
            <in>0</in>
            <out>672</out>
            <name>Scene - LJ visemes.134.png</name>
            <rate>
              <timebase>24</timebase>
              <ntsc>FALSE</ntsc>
            </rate>
            <media>
              <video>
                <track>
                  <clipitem frameBlend="FALSE" id="clipitem-137">
                    <name>Scene - LJ visemes.134.png</name>
                    <masterclipid>masterclip-136</masterclipid>
                    <rate>
                      <timebase>24</timebase>
                      <ntsc>FALSE</ntsc>
                    </rate>
                    <alphatype>straight</alphatype>
                    <pixelaspectratio>square</pixelaspectratio>
                    <anamorphic>FALSE</anamorphic>
                    <file id="file-136">
                      <name>Scene - LJ visemes.134.png</name>
                      <pathurl>file://localhost/Users/bot/Documents/CREATE/Character Animator/LJ visemes CH2AE/demo/Scene - LJ visemes/Scene - LJ visemes.134.png</pathurl>
                      <rate>
                        <timebase>24</timebase>
                        <ntsc>FALSE</ntsc>
                      </rate>
                      <duration>672</duration>
                      <timecode>
                        <rate>
                          <timebase>24</timebase>
                          <ntsc>FALSE</ntsc>
                        </rate>
                      </timecode>
                      <media>
                        <video>
                          <duration>1</duration>
                          <samplecharacteristics>
                            <anamorphic>FALSE</anamorphic>
                            <pixelaspectratio>square</pixelaspectratio>
                            <fielddominance>none</fielddominance>
                            <width>1920</width>
                            <height>1080</height>
                          </samplecharacteristics>
                        </video>
                      </media>
                    </file>
                  </clipitem>
                </track>
              </video>
            </media>
          </clip>
          <clip explodedTracks="true" frameBlend="FALSE" id="masterclip-137">
            <uuid>b5d43bec-e35d-435b-ae74-e46c79bb2506</uuid>
            <masterclipid>masterclip-137</masterclipid>
            <ismasterclip>TRUE</ismasterclip>
            <duration>672</duration>
            <in>0</in>
            <out>672</out>
            <name>Scene - LJ visemes.135.png</name>
            <rate>
              <timebase>24</timebase>
              <ntsc>FALSE</ntsc>
            </rate>
            <media>
              <video>
                <track>
                  <clipitem frameBlend="FALSE" id="clipitem-138">
                    <name>Scene - LJ visemes.135.png</name>
                    <masterclipid>masterclip-137</masterclipid>
                    <rate>
                      <timebase>24</timebase>
                      <ntsc>FALSE</ntsc>
                    </rate>
                    <alphatype>straight</alphatype>
                    <pixelaspectratio>square</pixelaspectratio>
                    <anamorphic>FALSE</anamorphic>
                    <file id="file-137">
                      <name>Scene - LJ visemes.135.png</name>
                      <pathurl>file://localhost/Users/bot/Documents/CREATE/Character Animator/LJ visemes CH2AE/demo/Scene - LJ visemes/Scene - LJ visemes.135.png</pathurl>
                      <rate>
                        <timebase>24</timebase>
                        <ntsc>FALSE</ntsc>
                      </rate>
                      <duration>672</duration>
                      <timecode>
                        <rate>
                          <timebase>24</timebase>
                          <ntsc>FALSE</ntsc>
                        </rate>
                      </timecode>
                      <media>
                        <video>
                          <duration>1</duration>
                          <samplecharacteristics>
                            <anamorphic>FALSE</anamorphic>
                            <pixelaspectratio>square</pixelaspectratio>
                            <fielddominance>none</fielddominance>
                            <width>1920</width>
                            <height>1080</height>
                          </samplecharacteristics>
                        </video>
                      </media>
                    </file>
                  </clipitem>
                </track>
              </video>
            </media>
          </clip>
          <clip explodedTracks="true" frameBlend="FALSE" id="masterclip-138">
            <uuid>a1d29169-5268-4000-bddd-03ac90e638fd</uuid>
            <masterclipid>masterclip-138</masterclipid>
            <ismasterclip>TRUE</ismasterclip>
            <duration>672</duration>
            <in>0</in>
            <out>672</out>
            <name>Scene - LJ visemes.136.png</name>
            <rate>
              <timebase>24</timebase>
              <ntsc>FALSE</ntsc>
            </rate>
            <media>
              <video>
                <track>
                  <clipitem frameBlend="FALSE" id="clipitem-139">
                    <name>Scene - LJ visemes.136.png</name>
                    <masterclipid>masterclip-138</masterclipid>
                    <rate>
                      <timebase>24</timebase>
                      <ntsc>FALSE</ntsc>
                    </rate>
                    <alphatype>straight</alphatype>
                    <pixelaspectratio>square</pixelaspectratio>
                    <anamorphic>FALSE</anamorphic>
                    <file id="file-138">
                      <name>Scene - LJ visemes.136.png</name>
                      <pathurl>file://localhost/Users/bot/Documents/CREATE/Character Animator/LJ visemes CH2AE/demo/Scene - LJ visemes/Scene - LJ visemes.136.png</pathurl>
                      <rate>
                        <timebase>24</timebase>
                        <ntsc>FALSE</ntsc>
                      </rate>
                      <duration>672</duration>
                      <timecode>
                        <rate>
                          <timebase>24</timebase>
                          <ntsc>FALSE</ntsc>
                        </rate>
                      </timecode>
                      <media>
                        <video>
                          <duration>1</duration>
                          <samplecharacteristics>
                            <anamorphic>FALSE</anamorphic>
                            <pixelaspectratio>square</pixelaspectratio>
                            <fielddominance>none</fielddominance>
                            <width>1920</width>
                            <height>1080</height>
                          </samplecharacteristics>
                        </video>
                      </media>
                    </file>
                  </clipitem>
                </track>
              </video>
            </media>
          </clip>
          <clip explodedTracks="true" frameBlend="FALSE" id="masterclip-139">
            <uuid>bf91d785-479f-49f5-b346-51e5b2442a4b</uuid>
            <masterclipid>masterclip-139</masterclipid>
            <ismasterclip>TRUE</ismasterclip>
            <duration>672</duration>
            <in>0</in>
            <out>672</out>
            <name>Scene - LJ visemes.137.png</name>
            <rate>
              <timebase>24</timebase>
              <ntsc>FALSE</ntsc>
            </rate>
            <media>
              <video>
                <track>
                  <clipitem frameBlend="FALSE" id="clipitem-140">
                    <name>Scene - LJ visemes.137.png</name>
                    <masterclipid>masterclip-139</masterclipid>
                    <rate>
                      <timebase>24</timebase>
                      <ntsc>FALSE</ntsc>
                    </rate>
                    <alphatype>straight</alphatype>
                    <pixelaspectratio>square</pixelaspectratio>
                    <anamorphic>FALSE</anamorphic>
                    <file id="file-139">
                      <name>Scene - LJ visemes.137.png</name>
                      <pathurl>file://localhost/Users/bot/Documents/CREATE/Character Animator/LJ visemes CH2AE/demo/Scene - LJ visemes/Scene - LJ visemes.137.png</pathurl>
                      <rate>
                        <timebase>24</timebase>
                        <ntsc>FALSE</ntsc>
                      </rate>
                      <duration>672</duration>
                      <timecode>
                        <rate>
                          <timebase>24</timebase>
                          <ntsc>FALSE</ntsc>
                        </rate>
                      </timecode>
                      <media>
                        <video>
                          <duration>1</duration>
                          <samplecharacteristics>
                            <anamorphic>FALSE</anamorphic>
                            <pixelaspectratio>square</pixelaspectratio>
                            <fielddominance>none</fielddominance>
                            <width>1920</width>
                            <height>1080</height>
                          </samplecharacteristics>
                        </video>
                      </media>
                    </file>
                  </clipitem>
                </track>
              </video>
            </media>
          </clip>
          <clip explodedTracks="true" frameBlend="FALSE" id="masterclip-140">
            <uuid>ed6f546a-3d44-48fd-85b4-832b02ad7643</uuid>
            <masterclipid>masterclip-140</masterclipid>
            <ismasterclip>TRUE</ismasterclip>
            <duration>672</duration>
            <in>0</in>
            <out>672</out>
            <name>Scene - LJ visemes.138.png</name>
            <rate>
              <timebase>24</timebase>
              <ntsc>FALSE</ntsc>
            </rate>
            <media>
              <video>
                <track>
                  <clipitem frameBlend="FALSE" id="clipitem-141">
                    <name>Scene - LJ visemes.138.png</name>
                    <masterclipid>masterclip-140</masterclipid>
                    <rate>
                      <timebase>24</timebase>
                      <ntsc>FALSE</ntsc>
                    </rate>
                    <alphatype>straight</alphatype>
                    <pixelaspectratio>square</pixelaspectratio>
                    <anamorphic>FALSE</anamorphic>
                    <file id="file-140">
                      <name>Scene - LJ visemes.138.png</name>
                      <pathurl>file://localhost/Users/bot/Documents/CREATE/Character Animator/LJ visemes CH2AE/demo/Scene - LJ visemes/Scene - LJ visemes.138.png</pathurl>
                      <rate>
                        <timebase>24</timebase>
                        <ntsc>FALSE</ntsc>
                      </rate>
                      <duration>672</duration>
                      <timecode>
                        <rate>
                          <timebase>24</timebase>
                          <ntsc>FALSE</ntsc>
                        </rate>
                      </timecode>
                      <media>
                        <video>
                          <duration>1</duration>
                          <samplecharacteristics>
                            <anamorphic>FALSE</anamorphic>
                            <pixelaspectratio>square</pixelaspectratio>
                            <fielddominance>none</fielddominance>
                            <width>1920</width>
                            <height>1080</height>
                          </samplecharacteristics>
                        </video>
                      </media>
                    </file>
                  </clipitem>
                </track>
              </video>
            </media>
          </clip>
          <clip explodedTracks="true" frameBlend="FALSE" id="masterclip-141">
            <uuid>4b9a020c-e6e3-4810-b69e-69568d988093</uuid>
            <masterclipid>masterclip-141</masterclipid>
            <ismasterclip>TRUE</ismasterclip>
            <duration>672</duration>
            <in>0</in>
            <out>672</out>
            <name>Scene - LJ visemes.139.png</name>
            <rate>
              <timebase>24</timebase>
              <ntsc>FALSE</ntsc>
            </rate>
            <media>
              <video>
                <track>
                  <clipitem frameBlend="FALSE" id="clipitem-142">
                    <name>Scene - LJ visemes.139.png</name>
                    <masterclipid>masterclip-141</masterclipid>
                    <rate>
                      <timebase>24</timebase>
                      <ntsc>FALSE</ntsc>
                    </rate>
                    <alphatype>straight</alphatype>
                    <pixelaspectratio>square</pixelaspectratio>
                    <anamorphic>FALSE</anamorphic>
                    <file id="file-141">
                      <name>Scene - LJ visemes.139.png</name>
                      <pathurl>file://localhost/Users/bot/Documents/CREATE/Character Animator/LJ visemes CH2AE/demo/Scene - LJ visemes/Scene - LJ visemes.139.png</pathurl>
                      <rate>
                        <timebase>24</timebase>
                        <ntsc>FALSE</ntsc>
                      </rate>
                      <duration>672</duration>
                      <timecode>
                        <rate>
                          <timebase>24</timebase>
                          <ntsc>FALSE</ntsc>
                        </rate>
                      </timecode>
                      <media>
                        <video>
                          <duration>1</duration>
                          <samplecharacteristics>
                            <anamorphic>FALSE</anamorphic>
                            <pixelaspectratio>square</pixelaspectratio>
                            <fielddominance>none</fielddominance>
                            <width>1920</width>
                            <height>1080</height>
                          </samplecharacteristics>
                        </video>
                      </media>
                    </file>
                  </clipitem>
                </track>
              </video>
            </media>
          </clip>
          <clip explodedTracks="true" frameBlend="FALSE" id="masterclip-142">
            <uuid>0b9d08c6-0c8e-41d5-8ed9-c33073d6c854</uuid>
            <masterclipid>masterclip-142</masterclipid>
            <ismasterclip>TRUE</ismasterclip>
            <duration>672</duration>
            <in>0</in>
            <out>672</out>
            <name>Scene - LJ visemes.140.png</name>
            <rate>
              <timebase>24</timebase>
              <ntsc>FALSE</ntsc>
            </rate>
            <media>
              <video>
                <track>
                  <clipitem frameBlend="FALSE" id="clipitem-143">
                    <name>Scene - LJ visemes.140.png</name>
                    <masterclipid>masterclip-142</masterclipid>
                    <rate>
                      <timebase>24</timebase>
                      <ntsc>FALSE</ntsc>
                    </rate>
                    <alphatype>straight</alphatype>
                    <pixelaspectratio>square</pixelaspectratio>
                    <anamorphic>FALSE</anamorphic>
                    <file id="file-142">
                      <name>Scene - LJ visemes.140.png</name>
                      <pathurl>file://localhost/Users/bot/Documents/CREATE/Character Animator/LJ visemes CH2AE/demo/Scene - LJ visemes/Scene - LJ visemes.140.png</pathurl>
                      <rate>
                        <timebase>24</timebase>
                        <ntsc>FALSE</ntsc>
                      </rate>
                      <duration>672</duration>
                      <timecode>
                        <rate>
                          <timebase>24</timebase>
                          <ntsc>FALSE</ntsc>
                        </rate>
                      </timecode>
                      <media>
                        <video>
                          <duration>1</duration>
                          <samplecharacteristics>
                            <anamorphic>FALSE</anamorphic>
                            <pixelaspectratio>square</pixelaspectratio>
                            <fielddominance>none</fielddominance>
                            <width>1920</width>
                            <height>1080</height>
                          </samplecharacteristics>
                        </video>
                      </media>
                    </file>
                  </clipitem>
                </track>
              </video>
            </media>
          </clip>
          <clip explodedTracks="true" frameBlend="FALSE" id="masterclip-143">
            <uuid>2e5a8113-4937-4782-b8a5-16dafa7d41bd</uuid>
            <masterclipid>masterclip-143</masterclipid>
            <ismasterclip>TRUE</ismasterclip>
            <duration>672</duration>
            <in>0</in>
            <out>672</out>
            <name>Scene - LJ visemes.141.png</name>
            <rate>
              <timebase>24</timebase>
              <ntsc>FALSE</ntsc>
            </rate>
            <media>
              <video>
                <track>
                  <clipitem frameBlend="FALSE" id="clipitem-144">
                    <name>Scene - LJ visemes.141.png</name>
                    <masterclipid>masterclip-143</masterclipid>
                    <rate>
                      <timebase>24</timebase>
                      <ntsc>FALSE</ntsc>
                    </rate>
                    <alphatype>straight</alphatype>
                    <pixelaspectratio>square</pixelaspectratio>
                    <anamorphic>FALSE</anamorphic>
                    <file id="file-143">
                      <name>Scene - LJ visemes.141.png</name>
                      <pathurl>file://localhost/Users/bot/Documents/CREATE/Character Animator/LJ visemes CH2AE/demo/Scene - LJ visemes/Scene - LJ visemes.141.png</pathurl>
                      <rate>
                        <timebase>24</timebase>
                        <ntsc>FALSE</ntsc>
                      </rate>
                      <duration>672</duration>
                      <timecode>
                        <rate>
                          <timebase>24</timebase>
                          <ntsc>FALSE</ntsc>
                        </rate>
                      </timecode>
                      <media>
                        <video>
                          <duration>1</duration>
                          <samplecharacteristics>
                            <anamorphic>FALSE</anamorphic>
                            <pixelaspectratio>square</pixelaspectratio>
                            <fielddominance>none</fielddominance>
                            <width>1920</width>
                            <height>1080</height>
                          </samplecharacteristics>
                        </video>
                      </media>
                    </file>
                  </clipitem>
                </track>
              </video>
            </media>
          </clip>
          <clip explodedTracks="true" frameBlend="FALSE" id="masterclip-144">
            <uuid>a230db9b-3bcb-4370-b4f1-dd09bf638f0b</uuid>
            <masterclipid>masterclip-144</masterclipid>
            <ismasterclip>TRUE</ismasterclip>
            <duration>672</duration>
            <in>0</in>
            <out>672</out>
            <name>Scene - LJ visemes.142.png</name>
            <rate>
              <timebase>24</timebase>
              <ntsc>FALSE</ntsc>
            </rate>
            <media>
              <video>
                <track>
                  <clipitem frameBlend="FALSE" id="clipitem-145">
                    <name>Scene - LJ visemes.142.png</name>
                    <masterclipid>masterclip-144</masterclipid>
                    <rate>
                      <timebase>24</timebase>
                      <ntsc>FALSE</ntsc>
                    </rate>
                    <alphatype>straight</alphatype>
                    <pixelaspectratio>square</pixelaspectratio>
                    <anamorphic>FALSE</anamorphic>
                    <file id="file-144">
                      <name>Scene - LJ visemes.142.png</name>
                      <pathurl>file://localhost/Users/bot/Documents/CREATE/Character Animator/LJ visemes CH2AE/demo/Scene - LJ visemes/Scene - LJ visemes.142.png</pathurl>
                      <rate>
                        <timebase>24</timebase>
                        <ntsc>FALSE</ntsc>
                      </rate>
                      <duration>672</duration>
                      <timecode>
                        <rate>
                          <timebase>24</timebase>
                          <ntsc>FALSE</ntsc>
                        </rate>
                      </timecode>
                      <media>
                        <video>
                          <duration>1</duration>
                          <samplecharacteristics>
                            <anamorphic>FALSE</anamorphic>
                            <pixelaspectratio>square</pixelaspectratio>
                            <fielddominance>none</fielddominance>
                            <width>1920</width>
                            <height>1080</height>
                          </samplecharacteristics>
                        </video>
                      </media>
                    </file>
                  </clipitem>
                </track>
              </video>
            </media>
          </clip>
          <clip explodedTracks="true" frameBlend="FALSE" id="masterclip-145">
            <uuid>b34f12a7-6007-4e79-ae1d-8bd2c54f131a</uuid>
            <masterclipid>masterclip-145</masterclipid>
            <ismasterclip>TRUE</ismasterclip>
            <duration>672</duration>
            <in>0</in>
            <out>672</out>
            <name>Scene - LJ visemes.143.png</name>
            <rate>
              <timebase>24</timebase>
              <ntsc>FALSE</ntsc>
            </rate>
            <media>
              <video>
                <track>
                  <clipitem frameBlend="FALSE" id="clipitem-146">
                    <name>Scene - LJ visemes.143.png</name>
                    <masterclipid>masterclip-145</masterclipid>
                    <rate>
                      <timebase>24</timebase>
                      <ntsc>FALSE</ntsc>
                    </rate>
                    <alphatype>straight</alphatype>
                    <pixelaspectratio>square</pixelaspectratio>
                    <anamorphic>FALSE</anamorphic>
                    <file id="file-145">
                      <name>Scene - LJ visemes.143.png</name>
                      <pathurl>file://localhost/Users/bot/Documents/CREATE/Character Animator/LJ visemes CH2AE/demo/Scene - LJ visemes/Scene - LJ visemes.143.png</pathurl>
                      <rate>
                        <timebase>24</timebase>
                        <ntsc>FALSE</ntsc>
                      </rate>
                      <duration>672</duration>
                      <timecode>
                        <rate>
                          <timebase>24</timebase>
                          <ntsc>FALSE</ntsc>
                        </rate>
                      </timecode>
                      <media>
                        <video>
                          <duration>1</duration>
                          <samplecharacteristics>
                            <anamorphic>FALSE</anamorphic>
                            <pixelaspectratio>square</pixelaspectratio>
                            <fielddominance>none</fielddominance>
                            <width>1920</width>
                            <height>1080</height>
                          </samplecharacteristics>
                        </video>
                      </media>
                    </file>
                  </clipitem>
                </track>
              </video>
            </media>
          </clip>
          <clip explodedTracks="true" frameBlend="FALSE" id="masterclip-146">
            <uuid>5a146045-2001-4bd6-bcd4-dfd893f2dd76</uuid>
            <masterclipid>masterclip-146</masterclipid>
            <ismasterclip>TRUE</ismasterclip>
            <duration>672</duration>
            <in>0</in>
            <out>672</out>
            <name>Scene - LJ visemes.144.png</name>
            <rate>
              <timebase>24</timebase>
              <ntsc>FALSE</ntsc>
            </rate>
            <media>
              <video>
                <track>
                  <clipitem frameBlend="FALSE" id="clipitem-147">
                    <name>Scene - LJ visemes.144.png</name>
                    <masterclipid>masterclip-146</masterclipid>
                    <rate>
                      <timebase>24</timebase>
                      <ntsc>FALSE</ntsc>
                    </rate>
                    <alphatype>straight</alphatype>
                    <pixelaspectratio>square</pixelaspectratio>
                    <anamorphic>FALSE</anamorphic>
                    <file id="file-146">
                      <name>Scene - LJ visemes.144.png</name>
                      <pathurl>file://localhost/Users/bot/Documents/CREATE/Character Animator/LJ visemes CH2AE/demo/Scene - LJ visemes/Scene - LJ visemes.144.png</pathurl>
                      <rate>
                        <timebase>24</timebase>
                        <ntsc>FALSE</ntsc>
                      </rate>
                      <duration>672</duration>
                      <timecode>
                        <rate>
                          <timebase>24</timebase>
                          <ntsc>FALSE</ntsc>
                        </rate>
                      </timecode>
                      <media>
                        <video>
                          <duration>1</duration>
                          <samplecharacteristics>
                            <anamorphic>FALSE</anamorphic>
                            <pixelaspectratio>square</pixelaspectratio>
                            <fielddominance>none</fielddominance>
                            <width>1920</width>
                            <height>1080</height>
                          </samplecharacteristics>
                        </video>
                      </media>
                    </file>
                  </clipitem>
                </track>
              </video>
            </media>
          </clip>
          <clip explodedTracks="true" frameBlend="FALSE" id="masterclip-147">
            <uuid>a6e9eba1-013b-4f17-a3da-3337fa88428c</uuid>
            <masterclipid>masterclip-147</masterclipid>
            <ismasterclip>TRUE</ismasterclip>
            <duration>672</duration>
            <in>0</in>
            <out>672</out>
            <name>Scene - LJ visemes.145.png</name>
            <rate>
              <timebase>24</timebase>
              <ntsc>FALSE</ntsc>
            </rate>
            <media>
              <video>
                <track>
                  <clipitem frameBlend="FALSE" id="clipitem-148">
                    <name>Scene - LJ visemes.145.png</name>
                    <masterclipid>masterclip-147</masterclipid>
                    <rate>
                      <timebase>24</timebase>
                      <ntsc>FALSE</ntsc>
                    </rate>
                    <alphatype>straight</alphatype>
                    <pixelaspectratio>square</pixelaspectratio>
                    <anamorphic>FALSE</anamorphic>
                    <file id="file-147">
                      <name>Scene - LJ visemes.145.png</name>
                      <pathurl>file://localhost/Users/bot/Documents/CREATE/Character Animator/LJ visemes CH2AE/demo/Scene - LJ visemes/Scene - LJ visemes.145.png</pathurl>
                      <rate>
                        <timebase>24</timebase>
                        <ntsc>FALSE</ntsc>
                      </rate>
                      <duration>672</duration>
                      <timecode>
                        <rate>
                          <timebase>24</timebase>
                          <ntsc>FALSE</ntsc>
                        </rate>
                      </timecode>
                      <media>
                        <video>
                          <duration>1</duration>
                          <samplecharacteristics>
                            <anamorphic>FALSE</anamorphic>
                            <pixelaspectratio>square</pixelaspectratio>
                            <fielddominance>none</fielddominance>
                            <width>1920</width>
                            <height>1080</height>
                          </samplecharacteristics>
                        </video>
                      </media>
                    </file>
                  </clipitem>
                </track>
              </video>
            </media>
          </clip>
          <clip explodedTracks="true" frameBlend="FALSE" id="masterclip-148">
            <uuid>82d57533-93a6-4e23-b200-0ebd7de101ed</uuid>
            <masterclipid>masterclip-148</masterclipid>
            <ismasterclip>TRUE</ismasterclip>
            <duration>672</duration>
            <in>0</in>
            <out>672</out>
            <name>Scene - LJ visemes.146.png</name>
            <rate>
              <timebase>24</timebase>
              <ntsc>FALSE</ntsc>
            </rate>
            <media>
              <video>
                <track>
                  <clipitem frameBlend="FALSE" id="clipitem-149">
                    <name>Scene - LJ visemes.146.png</name>
                    <masterclipid>masterclip-148</masterclipid>
                    <rate>
                      <timebase>24</timebase>
                      <ntsc>FALSE</ntsc>
                    </rate>
                    <alphatype>straight</alphatype>
                    <pixelaspectratio>square</pixelaspectratio>
                    <anamorphic>FALSE</anamorphic>
                    <file id="file-148">
                      <name>Scene - LJ visemes.146.png</name>
                      <pathurl>file://localhost/Users/bot/Documents/CREATE/Character Animator/LJ visemes CH2AE/demo/Scene - LJ visemes/Scene - LJ visemes.146.png</pathurl>
                      <rate>
                        <timebase>24</timebase>
                        <ntsc>FALSE</ntsc>
                      </rate>
                      <duration>672</duration>
                      <timecode>
                        <rate>
                          <timebase>24</timebase>
                          <ntsc>FALSE</ntsc>
                        </rate>
                      </timecode>
                      <media>
                        <video>
                          <duration>1</duration>
                          <samplecharacteristics>
                            <anamorphic>FALSE</anamorphic>
                            <pixelaspectratio>square</pixelaspectratio>
                            <fielddominance>none</fielddominance>
                            <width>1920</width>
                            <height>1080</height>
                          </samplecharacteristics>
                        </video>
                      </media>
                    </file>
                  </clipitem>
                </track>
              </video>
            </media>
          </clip>
          <clip explodedTracks="true" frameBlend="FALSE" id="masterclip-149">
            <uuid>8b1a2b85-d022-4156-ac24-af6b26cc277c</uuid>
            <masterclipid>masterclip-149</masterclipid>
            <ismasterclip>TRUE</ismasterclip>
            <duration>672</duration>
            <in>0</in>
            <out>672</out>
            <name>Scene - LJ visemes.147.png</name>
            <rate>
              <timebase>24</timebase>
              <ntsc>FALSE</ntsc>
            </rate>
            <media>
              <video>
                <track>
                  <clipitem frameBlend="FALSE" id="clipitem-150">
                    <name>Scene - LJ visemes.147.png</name>
                    <masterclipid>masterclip-149</masterclipid>
                    <rate>
                      <timebase>24</timebase>
                      <ntsc>FALSE</ntsc>
                    </rate>
                    <alphatype>straight</alphatype>
                    <pixelaspectratio>square</pixelaspectratio>
                    <anamorphic>FALSE</anamorphic>
                    <file id="file-149">
                      <name>Scene - LJ visemes.147.png</name>
                      <pathurl>file://localhost/Users/bot/Documents/CREATE/Character Animator/LJ visemes CH2AE/demo/Scene - LJ visemes/Scene - LJ visemes.147.png</pathurl>
                      <rate>
                        <timebase>24</timebase>
                        <ntsc>FALSE</ntsc>
                      </rate>
                      <duration>672</duration>
                      <timecode>
                        <rate>
                          <timebase>24</timebase>
                          <ntsc>FALSE</ntsc>
                        </rate>
                      </timecode>
                      <media>
                        <video>
                          <duration>1</duration>
                          <samplecharacteristics>
                            <anamorphic>FALSE</anamorphic>
                            <pixelaspectratio>square</pixelaspectratio>
                            <fielddominance>none</fielddominance>
                            <width>1920</width>
                            <height>1080</height>
                          </samplecharacteristics>
                        </video>
                      </media>
                    </file>
                  </clipitem>
                </track>
              </video>
            </media>
          </clip>
          <clip explodedTracks="true" frameBlend="FALSE" id="masterclip-150">
            <uuid>72f0b673-fef3-4370-b5c7-799f05d17899</uuid>
            <masterclipid>masterclip-150</masterclipid>
            <ismasterclip>TRUE</ismasterclip>
            <duration>672</duration>
            <in>0</in>
            <out>672</out>
            <name>Scene - LJ visemes.148.png</name>
            <rate>
              <timebase>24</timebase>
              <ntsc>FALSE</ntsc>
            </rate>
            <media>
              <video>
                <track>
                  <clipitem frameBlend="FALSE" id="clipitem-151">
                    <name>Scene - LJ visemes.148.png</name>
                    <masterclipid>masterclip-150</masterclipid>
                    <rate>
                      <timebase>24</timebase>
                      <ntsc>FALSE</ntsc>
                    </rate>
                    <alphatype>straight</alphatype>
                    <pixelaspectratio>square</pixelaspectratio>
                    <anamorphic>FALSE</anamorphic>
                    <file id="file-150">
                      <name>Scene - LJ visemes.148.png</name>
                      <pathurl>file://localhost/Users/bot/Documents/CREATE/Character Animator/LJ visemes CH2AE/demo/Scene - LJ visemes/Scene - LJ visemes.148.png</pathurl>
                      <rate>
                        <timebase>24</timebase>
                        <ntsc>FALSE</ntsc>
                      </rate>
                      <duration>672</duration>
                      <timecode>
                        <rate>
                          <timebase>24</timebase>
                          <ntsc>FALSE</ntsc>
                        </rate>
                      </timecode>
                      <media>
                        <video>
                          <duration>1</duration>
                          <samplecharacteristics>
                            <anamorphic>FALSE</anamorphic>
                            <pixelaspectratio>square</pixelaspectratio>
                            <fielddominance>none</fielddominance>
                            <width>1920</width>
                            <height>1080</height>
                          </samplecharacteristics>
                        </video>
                      </media>
                    </file>
                  </clipitem>
                </track>
              </video>
            </media>
          </clip>
          <clip explodedTracks="true" frameBlend="FALSE" id="masterclip-151">
            <uuid>9ce82cd3-2adf-4f11-8858-f5783edc6926</uuid>
            <masterclipid>masterclip-151</masterclipid>
            <ismasterclip>TRUE</ismasterclip>
            <duration>672</duration>
            <in>0</in>
            <out>672</out>
            <name>Scene - LJ visemes.149.png</name>
            <rate>
              <timebase>24</timebase>
              <ntsc>FALSE</ntsc>
            </rate>
            <media>
              <video>
                <track>
                  <clipitem frameBlend="FALSE" id="clipitem-152">
                    <name>Scene - LJ visemes.149.png</name>
                    <masterclipid>masterclip-151</masterclipid>
                    <rate>
                      <timebase>24</timebase>
                      <ntsc>FALSE</ntsc>
                    </rate>
                    <alphatype>straight</alphatype>
                    <pixelaspectratio>square</pixelaspectratio>
                    <anamorphic>FALSE</anamorphic>
                    <file id="file-151">
                      <name>Scene - LJ visemes.149.png</name>
                      <pathurl>file://localhost/Users/bot/Documents/CREATE/Character Animator/LJ visemes CH2AE/demo/Scene - LJ visemes/Scene - LJ visemes.149.png</pathurl>
                      <rate>
                        <timebase>24</timebase>
                        <ntsc>FALSE</ntsc>
                      </rate>
                      <duration>672</duration>
                      <timecode>
                        <rate>
                          <timebase>24</timebase>
                          <ntsc>FALSE</ntsc>
                        </rate>
                      </timecode>
                      <media>
                        <video>
                          <duration>1</duration>
                          <samplecharacteristics>
                            <anamorphic>FALSE</anamorphic>
                            <pixelaspectratio>square</pixelaspectratio>
                            <fielddominance>none</fielddominance>
                            <width>1920</width>
                            <height>1080</height>
                          </samplecharacteristics>
                        </video>
                      </media>
                    </file>
                  </clipitem>
                </track>
              </video>
            </media>
          </clip>
          <clip explodedTracks="true" frameBlend="FALSE" id="masterclip-152">
            <uuid>8515f53b-ea34-4d45-9682-0144eaa5c180</uuid>
            <masterclipid>masterclip-152</masterclipid>
            <ismasterclip>TRUE</ismasterclip>
            <duration>672</duration>
            <in>0</in>
            <out>672</out>
            <name>Scene - LJ visemes.150.png</name>
            <rate>
              <timebase>24</timebase>
              <ntsc>FALSE</ntsc>
            </rate>
            <media>
              <video>
                <track>
                  <clipitem frameBlend="FALSE" id="clipitem-153">
                    <name>Scene - LJ visemes.150.png</name>
                    <masterclipid>masterclip-152</masterclipid>
                    <rate>
                      <timebase>24</timebase>
                      <ntsc>FALSE</ntsc>
                    </rate>
                    <alphatype>straight</alphatype>
                    <pixelaspectratio>square</pixelaspectratio>
                    <anamorphic>FALSE</anamorphic>
                    <file id="file-152">
                      <name>Scene - LJ visemes.150.png</name>
                      <pathurl>file://localhost/Users/bot/Documents/CREATE/Character Animator/LJ visemes CH2AE/demo/Scene - LJ visemes/Scene - LJ visemes.150.png</pathurl>
                      <rate>
                        <timebase>24</timebase>
                        <ntsc>FALSE</ntsc>
                      </rate>
                      <duration>672</duration>
                      <timecode>
                        <rate>
                          <timebase>24</timebase>
                          <ntsc>FALSE</ntsc>
                        </rate>
                      </timecode>
                      <media>
                        <video>
                          <duration>1</duration>
                          <samplecharacteristics>
                            <anamorphic>FALSE</anamorphic>
                            <pixelaspectratio>square</pixelaspectratio>
                            <fielddominance>none</fielddominance>
                            <width>1920</width>
                            <height>1080</height>
                          </samplecharacteristics>
                        </video>
                      </media>
                    </file>
                  </clipitem>
                </track>
              </video>
            </media>
          </clip>
          <clip explodedTracks="true" frameBlend="FALSE" id="masterclip-153">
            <uuid>702d05a2-3503-400c-98b1-02d5d4629900</uuid>
            <masterclipid>masterclip-153</masterclipid>
            <ismasterclip>TRUE</ismasterclip>
            <duration>672</duration>
            <in>0</in>
            <out>672</out>
            <name>Scene - LJ visemes.151.png</name>
            <rate>
              <timebase>24</timebase>
              <ntsc>FALSE</ntsc>
            </rate>
            <media>
              <video>
                <track>
                  <clipitem frameBlend="FALSE" id="clipitem-154">
                    <name>Scene - LJ visemes.151.png</name>
                    <masterclipid>masterclip-153</masterclipid>
                    <rate>
                      <timebase>24</timebase>
                      <ntsc>FALSE</ntsc>
                    </rate>
                    <alphatype>straight</alphatype>
                    <pixelaspectratio>square</pixelaspectratio>
                    <anamorphic>FALSE</anamorphic>
                    <file id="file-153">
                      <name>Scene - LJ visemes.151.png</name>
                      <pathurl>file://localhost/Users/bot/Documents/CREATE/Character Animator/LJ visemes CH2AE/demo/Scene - LJ visemes/Scene - LJ visemes.151.png</pathurl>
                      <rate>
                        <timebase>24</timebase>
                        <ntsc>FALSE</ntsc>
                      </rate>
                      <duration>672</duration>
                      <timecode>
                        <rate>
                          <timebase>24</timebase>
                          <ntsc>FALSE</ntsc>
                        </rate>
                      </timecode>
                      <media>
                        <video>
                          <duration>1</duration>
                          <samplecharacteristics>
                            <anamorphic>FALSE</anamorphic>
                            <pixelaspectratio>square</pixelaspectratio>
                            <fielddominance>none</fielddominance>
                            <width>1920</width>
                            <height>1080</height>
                          </samplecharacteristics>
                        </video>
                      </media>
                    </file>
                  </clipitem>
                </track>
              </video>
            </media>
          </clip>
          <clip explodedTracks="true" frameBlend="FALSE" id="masterclip-154">
            <uuid>d082042f-23d8-4bc5-919f-ce825a69de06</uuid>
            <masterclipid>masterclip-154</masterclipid>
            <ismasterclip>TRUE</ismasterclip>
            <duration>672</duration>
            <in>0</in>
            <out>672</out>
            <name>Scene - LJ visemes.152.png</name>
            <rate>
              <timebase>24</timebase>
              <ntsc>FALSE</ntsc>
            </rate>
            <media>
              <video>
                <track>
                  <clipitem frameBlend="FALSE" id="clipitem-155">
                    <name>Scene - LJ visemes.152.png</name>
                    <masterclipid>masterclip-154</masterclipid>
                    <rate>
                      <timebase>24</timebase>
                      <ntsc>FALSE</ntsc>
                    </rate>
                    <alphatype>straight</alphatype>
                    <pixelaspectratio>square</pixelaspectratio>
                    <anamorphic>FALSE</anamorphic>
                    <file id="file-154">
                      <name>Scene - LJ visemes.152.png</name>
                      <pathurl>file://localhost/Users/bot/Documents/CREATE/Character Animator/LJ visemes CH2AE/demo/Scene - LJ visemes/Scene - LJ visemes.152.png</pathurl>
                      <rate>
                        <timebase>24</timebase>
                        <ntsc>FALSE</ntsc>
                      </rate>
                      <duration>672</duration>
                      <timecode>
                        <rate>
                          <timebase>24</timebase>
                          <ntsc>FALSE</ntsc>
                        </rate>
                      </timecode>
                      <media>
                        <video>
                          <duration>1</duration>
                          <samplecharacteristics>
                            <anamorphic>FALSE</anamorphic>
                            <pixelaspectratio>square</pixelaspectratio>
                            <fielddominance>none</fielddominance>
                            <width>1920</width>
                            <height>1080</height>
                          </samplecharacteristics>
                        </video>
                      </media>
                    </file>
                  </clipitem>
                </track>
              </video>
            </media>
          </clip>
          <clip explodedTracks="true" frameBlend="FALSE" id="masterclip-155">
            <uuid>99eebcdf-21a3-4669-9a33-02e2763ee0e3</uuid>
            <masterclipid>masterclip-155</masterclipid>
            <ismasterclip>TRUE</ismasterclip>
            <duration>672</duration>
            <in>0</in>
            <out>672</out>
            <name>Scene - LJ visemes.153.png</name>
            <rate>
              <timebase>24</timebase>
              <ntsc>FALSE</ntsc>
            </rate>
            <media>
              <video>
                <track>
                  <clipitem frameBlend="FALSE" id="clipitem-156">
                    <name>Scene - LJ visemes.153.png</name>
                    <masterclipid>masterclip-155</masterclipid>
                    <rate>
                      <timebase>24</timebase>
                      <ntsc>FALSE</ntsc>
                    </rate>
                    <alphatype>straight</alphatype>
                    <pixelaspectratio>square</pixelaspectratio>
                    <anamorphic>FALSE</anamorphic>
                    <file id="file-155">
                      <name>Scene - LJ visemes.153.png</name>
                      <pathurl>file://localhost/Users/bot/Documents/CREATE/Character Animator/LJ visemes CH2AE/demo/Scene - LJ visemes/Scene - LJ visemes.153.png</pathurl>
                      <rate>
                        <timebase>24</timebase>
                        <ntsc>FALSE</ntsc>
                      </rate>
                      <duration>672</duration>
                      <timecode>
                        <rate>
                          <timebase>24</timebase>
                          <ntsc>FALSE</ntsc>
                        </rate>
                      </timecode>
                      <media>
                        <video>
                          <duration>1</duration>
                          <samplecharacteristics>
                            <anamorphic>FALSE</anamorphic>
                            <pixelaspectratio>square</pixelaspectratio>
                            <fielddominance>none</fielddominance>
                            <width>1920</width>
                            <height>1080</height>
                          </samplecharacteristics>
                        </video>
                      </media>
                    </file>
                  </clipitem>
                </track>
              </video>
            </media>
          </clip>
          <clip explodedTracks="true" frameBlend="FALSE" id="masterclip-156">
            <uuid>4859c9f8-74f2-4cb3-9a7b-629262feb4b1</uuid>
            <masterclipid>masterclip-156</masterclipid>
            <ismasterclip>TRUE</ismasterclip>
            <duration>672</duration>
            <in>0</in>
            <out>672</out>
            <name>Scene - LJ visemes.154.png</name>
            <rate>
              <timebase>24</timebase>
              <ntsc>FALSE</ntsc>
            </rate>
            <media>
              <video>
                <track>
                  <clipitem frameBlend="FALSE" id="clipitem-157">
                    <name>Scene - LJ visemes.154.png</name>
                    <masterclipid>masterclip-156</masterclipid>
                    <rate>
                      <timebase>24</timebase>
                      <ntsc>FALSE</ntsc>
                    </rate>
                    <alphatype>straight</alphatype>
                    <pixelaspectratio>square</pixelaspectratio>
                    <anamorphic>FALSE</anamorphic>
                    <file id="file-156">
                      <name>Scene - LJ visemes.154.png</name>
                      <pathurl>file://localhost/Users/bot/Documents/CREATE/Character Animator/LJ visemes CH2AE/demo/Scene - LJ visemes/Scene - LJ visemes.154.png</pathurl>
                      <rate>
                        <timebase>24</timebase>
                        <ntsc>FALSE</ntsc>
                      </rate>
                      <duration>672</duration>
                      <timecode>
                        <rate>
                          <timebase>24</timebase>
                          <ntsc>FALSE</ntsc>
                        </rate>
                      </timecode>
                      <media>
                        <video>
                          <duration>1</duration>
                          <samplecharacteristics>
                            <anamorphic>FALSE</anamorphic>
                            <pixelaspectratio>square</pixelaspectratio>
                            <fielddominance>none</fielddominance>
                            <width>1920</width>
                            <height>1080</height>
                          </samplecharacteristics>
                        </video>
                      </media>
                    </file>
                  </clipitem>
                </track>
              </video>
            </media>
          </clip>
          <clip explodedTracks="true" frameBlend="FALSE" id="masterclip-157">
            <uuid>dac11a67-96a9-44b3-b84e-fc1d6a5f1605</uuid>
            <masterclipid>masterclip-157</masterclipid>
            <ismasterclip>TRUE</ismasterclip>
            <duration>672</duration>
            <in>0</in>
            <out>672</out>
            <name>Scene - LJ visemes.155.png</name>
            <rate>
              <timebase>24</timebase>
              <ntsc>FALSE</ntsc>
            </rate>
            <media>
              <video>
                <track>
                  <clipitem frameBlend="FALSE" id="clipitem-158">
                    <name>Scene - LJ visemes.155.png</name>
                    <masterclipid>masterclip-157</masterclipid>
                    <rate>
                      <timebase>24</timebase>
                      <ntsc>FALSE</ntsc>
                    </rate>
                    <alphatype>straight</alphatype>
                    <pixelaspectratio>square</pixelaspectratio>
                    <anamorphic>FALSE</anamorphic>
                    <file id="file-157">
                      <name>Scene - LJ visemes.155.png</name>
                      <pathurl>file://localhost/Users/bot/Documents/CREATE/Character Animator/LJ visemes CH2AE/demo/Scene - LJ visemes/Scene - LJ visemes.155.png</pathurl>
                      <rate>
                        <timebase>24</timebase>
                        <ntsc>FALSE</ntsc>
                      </rate>
                      <duration>672</duration>
                      <timecode>
                        <rate>
                          <timebase>24</timebase>
                          <ntsc>FALSE</ntsc>
                        </rate>
                      </timecode>
                      <media>
                        <video>
                          <duration>1</duration>
                          <samplecharacteristics>
                            <anamorphic>FALSE</anamorphic>
                            <pixelaspectratio>square</pixelaspectratio>
                            <fielddominance>none</fielddominance>
                            <width>1920</width>
                            <height>1080</height>
                          </samplecharacteristics>
                        </video>
                      </media>
                    </file>
                  </clipitem>
                </track>
              </video>
            </media>
          </clip>
          <clip explodedTracks="true" frameBlend="FALSE" id="masterclip-158">
            <uuid>ed6f1498-a118-48c7-88f1-dd0dcce1519d</uuid>
            <masterclipid>masterclip-158</masterclipid>
            <ismasterclip>TRUE</ismasterclip>
            <duration>672</duration>
            <in>0</in>
            <out>672</out>
            <name>Scene - LJ visemes.156.png</name>
            <rate>
              <timebase>24</timebase>
              <ntsc>FALSE</ntsc>
            </rate>
            <media>
              <video>
                <track>
                  <clipitem frameBlend="FALSE" id="clipitem-159">
                    <name>Scene - LJ visemes.156.png</name>
                    <masterclipid>masterclip-158</masterclipid>
                    <rate>
                      <timebase>24</timebase>
                      <ntsc>FALSE</ntsc>
                    </rate>
                    <alphatype>straight</alphatype>
                    <pixelaspectratio>square</pixelaspectratio>
                    <anamorphic>FALSE</anamorphic>
                    <file id="file-158">
                      <name>Scene - LJ visemes.156.png</name>
                      <pathurl>file://localhost/Users/bot/Documents/CREATE/Character Animator/LJ visemes CH2AE/demo/Scene - LJ visemes/Scene - LJ visemes.156.png</pathurl>
                      <rate>
                        <timebase>24</timebase>
                        <ntsc>FALSE</ntsc>
                      </rate>
                      <duration>672</duration>
                      <timecode>
                        <rate>
                          <timebase>24</timebase>
                          <ntsc>FALSE</ntsc>
                        </rate>
                      </timecode>
                      <media>
                        <video>
                          <duration>1</duration>
                          <samplecharacteristics>
                            <anamorphic>FALSE</anamorphic>
                            <pixelaspectratio>square</pixelaspectratio>
                            <fielddominance>none</fielddominance>
                            <width>1920</width>
                            <height>1080</height>
                          </samplecharacteristics>
                        </video>
                      </media>
                    </file>
                  </clipitem>
                </track>
              </video>
            </media>
          </clip>
          <clip explodedTracks="true" frameBlend="FALSE" id="masterclip-159">
            <uuid>1f11c9e8-861b-4557-8589-90e767713d75</uuid>
            <masterclipid>masterclip-159</masterclipid>
            <ismasterclip>TRUE</ismasterclip>
            <duration>672</duration>
            <in>0</in>
            <out>672</out>
            <name>Scene - LJ visemes.157.png</name>
            <rate>
              <timebase>24</timebase>
              <ntsc>FALSE</ntsc>
            </rate>
            <media>
              <video>
                <track>
                  <clipitem frameBlend="FALSE" id="clipitem-160">
                    <name>Scene - LJ visemes.157.png</name>
                    <masterclipid>masterclip-159</masterclipid>
                    <rate>
                      <timebase>24</timebase>
                      <ntsc>FALSE</ntsc>
                    </rate>
                    <alphatype>straight</alphatype>
                    <pixelaspectratio>square</pixelaspectratio>
                    <anamorphic>FALSE</anamorphic>
                    <file id="file-159">
                      <name>Scene - LJ visemes.157.png</name>
                      <pathurl>file://localhost/Users/bot/Documents/CREATE/Character Animator/LJ visemes CH2AE/demo/Scene - LJ visemes/Scene - LJ visemes.157.png</pathurl>
                      <rate>
                        <timebase>24</timebase>
                        <ntsc>FALSE</ntsc>
                      </rate>
                      <duration>672</duration>
                      <timecode>
                        <rate>
                          <timebase>24</timebase>
                          <ntsc>FALSE</ntsc>
                        </rate>
                      </timecode>
                      <media>
                        <video>
                          <duration>1</duration>
                          <samplecharacteristics>
                            <anamorphic>FALSE</anamorphic>
                            <pixelaspectratio>square</pixelaspectratio>
                            <fielddominance>none</fielddominance>
                            <width>1920</width>
                            <height>1080</height>
                          </samplecharacteristics>
                        </video>
                      </media>
                    </file>
                  </clipitem>
                </track>
              </video>
            </media>
          </clip>
          <clip explodedTracks="true" frameBlend="FALSE" id="masterclip-160">
            <uuid>a4663eb5-b9b3-457a-9f8d-c7318fc65db0</uuid>
            <masterclipid>masterclip-160</masterclipid>
            <ismasterclip>TRUE</ismasterclip>
            <duration>672</duration>
            <in>0</in>
            <out>672</out>
            <name>Scene - LJ visemes.158.png</name>
            <rate>
              <timebase>24</timebase>
              <ntsc>FALSE</ntsc>
            </rate>
            <media>
              <video>
                <track>
                  <clipitem frameBlend="FALSE" id="clipitem-161">
                    <name>Scene - LJ visemes.158.png</name>
                    <masterclipid>masterclip-160</masterclipid>
                    <rate>
                      <timebase>24</timebase>
                      <ntsc>FALSE</ntsc>
                    </rate>
                    <alphatype>straight</alphatype>
                    <pixelaspectratio>square</pixelaspectratio>
                    <anamorphic>FALSE</anamorphic>
                    <file id="file-160">
                      <name>Scene - LJ visemes.158.png</name>
                      <pathurl>file://localhost/Users/bot/Documents/CREATE/Character Animator/LJ visemes CH2AE/demo/Scene - LJ visemes/Scene - LJ visemes.158.png</pathurl>
                      <rate>
                        <timebase>24</timebase>
                        <ntsc>FALSE</ntsc>
                      </rate>
                      <duration>672</duration>
                      <timecode>
                        <rate>
                          <timebase>24</timebase>
                          <ntsc>FALSE</ntsc>
                        </rate>
                      </timecode>
                      <media>
                        <video>
                          <duration>1</duration>
                          <samplecharacteristics>
                            <anamorphic>FALSE</anamorphic>
                            <pixelaspectratio>square</pixelaspectratio>
                            <fielddominance>none</fielddominance>
                            <width>1920</width>
                            <height>1080</height>
                          </samplecharacteristics>
                        </video>
                      </media>
                    </file>
                  </clipitem>
                </track>
              </video>
            </media>
          </clip>
          <clip explodedTracks="true" frameBlend="FALSE" id="masterclip-161">
            <uuid>5c649640-8bc4-46ae-bc20-88a30969b8d0</uuid>
            <masterclipid>masterclip-161</masterclipid>
            <ismasterclip>TRUE</ismasterclip>
            <duration>672</duration>
            <in>0</in>
            <out>672</out>
            <name>Scene - LJ visemes.159.png</name>
            <rate>
              <timebase>24</timebase>
              <ntsc>FALSE</ntsc>
            </rate>
            <media>
              <video>
                <track>
                  <clipitem frameBlend="FALSE" id="clipitem-162">
                    <name>Scene - LJ visemes.159.png</name>
                    <masterclipid>masterclip-161</masterclipid>
                    <rate>
                      <timebase>24</timebase>
                      <ntsc>FALSE</ntsc>
                    </rate>
                    <alphatype>straight</alphatype>
                    <pixelaspectratio>square</pixelaspectratio>
                    <anamorphic>FALSE</anamorphic>
                    <file id="file-161">
                      <name>Scene - LJ visemes.159.png</name>
                      <pathurl>file://localhost/Users/bot/Documents/CREATE/Character Animator/LJ visemes CH2AE/demo/Scene - LJ visemes/Scene - LJ visemes.159.png</pathurl>
                      <rate>
                        <timebase>24</timebase>
                        <ntsc>FALSE</ntsc>
                      </rate>
                      <duration>672</duration>
                      <timecode>
                        <rate>
                          <timebase>24</timebase>
                          <ntsc>FALSE</ntsc>
                        </rate>
                      </timecode>
                      <media>
                        <video>
                          <duration>1</duration>
                          <samplecharacteristics>
                            <anamorphic>FALSE</anamorphic>
                            <pixelaspectratio>square</pixelaspectratio>
                            <fielddominance>none</fielddominance>
                            <width>1920</width>
                            <height>1080</height>
                          </samplecharacteristics>
                        </video>
                      </media>
                    </file>
                  </clipitem>
                </track>
              </video>
            </media>
          </clip>
          <clip explodedTracks="true" frameBlend="FALSE" id="masterclip-162">
            <uuid>ea693d76-88f5-4c97-8b69-1f2abfb44322</uuid>
            <masterclipid>masterclip-162</masterclipid>
            <ismasterclip>TRUE</ismasterclip>
            <duration>672</duration>
            <in>0</in>
            <out>672</out>
            <name>Scene - LJ visemes.160.png</name>
            <rate>
              <timebase>24</timebase>
              <ntsc>FALSE</ntsc>
            </rate>
            <media>
              <video>
                <track>
                  <clipitem frameBlend="FALSE" id="clipitem-163">
                    <name>Scene - LJ visemes.160.png</name>
                    <masterclipid>masterclip-162</masterclipid>
                    <rate>
                      <timebase>24</timebase>
                      <ntsc>FALSE</ntsc>
                    </rate>
                    <alphatype>straight</alphatype>
                    <pixelaspectratio>square</pixelaspectratio>
                    <anamorphic>FALSE</anamorphic>
                    <file id="file-162">
                      <name>Scene - LJ visemes.160.png</name>
                      <pathurl>file://localhost/Users/bot/Documents/CREATE/Character Animator/LJ visemes CH2AE/demo/Scene - LJ visemes/Scene - LJ visemes.160.png</pathurl>
                      <rate>
                        <timebase>24</timebase>
                        <ntsc>FALSE</ntsc>
                      </rate>
                      <duration>672</duration>
                      <timecode>
                        <rate>
                          <timebase>24</timebase>
                          <ntsc>FALSE</ntsc>
                        </rate>
                      </timecode>
                      <media>
                        <video>
                          <duration>1</duration>
                          <samplecharacteristics>
                            <anamorphic>FALSE</anamorphic>
                            <pixelaspectratio>square</pixelaspectratio>
                            <fielddominance>none</fielddominance>
                            <width>1920</width>
                            <height>1080</height>
                          </samplecharacteristics>
                        </video>
                      </media>
                    </file>
                  </clipitem>
                </track>
              </video>
            </media>
          </clip>
          <clip explodedTracks="true" frameBlend="FALSE" id="masterclip-163">
            <uuid>5b2fb05f-01f6-4bdf-b8d0-14a153096d90</uuid>
            <masterclipid>masterclip-163</masterclipid>
            <ismasterclip>TRUE</ismasterclip>
            <duration>672</duration>
            <in>0</in>
            <out>672</out>
            <name>Scene - LJ visemes.161.png</name>
            <rate>
              <timebase>24</timebase>
              <ntsc>FALSE</ntsc>
            </rate>
            <media>
              <video>
                <track>
                  <clipitem frameBlend="FALSE" id="clipitem-164">
                    <name>Scene - LJ visemes.161.png</name>
                    <masterclipid>masterclip-163</masterclipid>
                    <rate>
                      <timebase>24</timebase>
                      <ntsc>FALSE</ntsc>
                    </rate>
                    <alphatype>straight</alphatype>
                    <pixelaspectratio>square</pixelaspectratio>
                    <anamorphic>FALSE</anamorphic>
                    <file id="file-163">
                      <name>Scene - LJ visemes.161.png</name>
                      <pathurl>file://localhost/Users/bot/Documents/CREATE/Character Animator/LJ visemes CH2AE/demo/Scene - LJ visemes/Scene - LJ visemes.161.png</pathurl>
                      <rate>
                        <timebase>24</timebase>
                        <ntsc>FALSE</ntsc>
                      </rate>
                      <duration>672</duration>
                      <timecode>
                        <rate>
                          <timebase>24</timebase>
                          <ntsc>FALSE</ntsc>
                        </rate>
                      </timecode>
                      <media>
                        <video>
                          <duration>1</duration>
                          <samplecharacteristics>
                            <anamorphic>FALSE</anamorphic>
                            <pixelaspectratio>square</pixelaspectratio>
                            <fielddominance>none</fielddominance>
                            <width>1920</width>
                            <height>1080</height>
                          </samplecharacteristics>
                        </video>
                      </media>
                    </file>
                  </clipitem>
                </track>
              </video>
            </media>
          </clip>
          <clip explodedTracks="true" frameBlend="FALSE" id="masterclip-164">
            <uuid>7df4a21c-181c-4f10-bb75-56ade8f062e7</uuid>
            <masterclipid>masterclip-164</masterclipid>
            <ismasterclip>TRUE</ismasterclip>
            <duration>672</duration>
            <in>0</in>
            <out>672</out>
            <name>Scene - LJ visemes.162.png</name>
            <rate>
              <timebase>24</timebase>
              <ntsc>FALSE</ntsc>
            </rate>
            <media>
              <video>
                <track>
                  <clipitem frameBlend="FALSE" id="clipitem-165">
                    <name>Scene - LJ visemes.162.png</name>
                    <masterclipid>masterclip-164</masterclipid>
                    <rate>
                      <timebase>24</timebase>
                      <ntsc>FALSE</ntsc>
                    </rate>
                    <alphatype>straight</alphatype>
                    <pixelaspectratio>square</pixelaspectratio>
                    <anamorphic>FALSE</anamorphic>
                    <file id="file-164">
                      <name>Scene - LJ visemes.162.png</name>
                      <pathurl>file://localhost/Users/bot/Documents/CREATE/Character Animator/LJ visemes CH2AE/demo/Scene - LJ visemes/Scene - LJ visemes.162.png</pathurl>
                      <rate>
                        <timebase>24</timebase>
                        <ntsc>FALSE</ntsc>
                      </rate>
                      <duration>672</duration>
                      <timecode>
                        <rate>
                          <timebase>24</timebase>
                          <ntsc>FALSE</ntsc>
                        </rate>
                      </timecode>
                      <media>
                        <video>
                          <duration>1</duration>
                          <samplecharacteristics>
                            <anamorphic>FALSE</anamorphic>
                            <pixelaspectratio>square</pixelaspectratio>
                            <fielddominance>none</fielddominance>
                            <width>1920</width>
                            <height>1080</height>
                          </samplecharacteristics>
                        </video>
                      </media>
                    </file>
                  </clipitem>
                </track>
              </video>
            </media>
          </clip>
          <clip explodedTracks="true" frameBlend="FALSE" id="masterclip-165">
            <uuid>420038d7-c216-460b-8e00-e0e5f03e567c</uuid>
            <masterclipid>masterclip-165</masterclipid>
            <ismasterclip>TRUE</ismasterclip>
            <duration>672</duration>
            <in>0</in>
            <out>672</out>
            <name>Scene - LJ visemes.163.png</name>
            <rate>
              <timebase>24</timebase>
              <ntsc>FALSE</ntsc>
            </rate>
            <media>
              <video>
                <track>
                  <clipitem frameBlend="FALSE" id="clipitem-166">
                    <name>Scene - LJ visemes.163.png</name>
                    <masterclipid>masterclip-165</masterclipid>
                    <rate>
                      <timebase>24</timebase>
                      <ntsc>FALSE</ntsc>
                    </rate>
                    <alphatype>straight</alphatype>
                    <pixelaspectratio>square</pixelaspectratio>
                    <anamorphic>FALSE</anamorphic>
                    <file id="file-165">
                      <name>Scene - LJ visemes.163.png</name>
                      <pathurl>file://localhost/Users/bot/Documents/CREATE/Character Animator/LJ visemes CH2AE/demo/Scene - LJ visemes/Scene - LJ visemes.163.png</pathurl>
                      <rate>
                        <timebase>24</timebase>
                        <ntsc>FALSE</ntsc>
                      </rate>
                      <duration>672</duration>
                      <timecode>
                        <rate>
                          <timebase>24</timebase>
                          <ntsc>FALSE</ntsc>
                        </rate>
                      </timecode>
                      <media>
                        <video>
                          <duration>1</duration>
                          <samplecharacteristics>
                            <anamorphic>FALSE</anamorphic>
                            <pixelaspectratio>square</pixelaspectratio>
                            <fielddominance>none</fielddominance>
                            <width>1920</width>
                            <height>1080</height>
                          </samplecharacteristics>
                        </video>
                      </media>
                    </file>
                  </clipitem>
                </track>
              </video>
            </media>
          </clip>
          <clip explodedTracks="true" frameBlend="FALSE" id="masterclip-166">
            <uuid>e2673474-5497-423d-81b4-d02721b24f34</uuid>
            <masterclipid>masterclip-166</masterclipid>
            <ismasterclip>TRUE</ismasterclip>
            <duration>672</duration>
            <in>0</in>
            <out>672</out>
            <name>Scene - LJ visemes.164.png</name>
            <rate>
              <timebase>24</timebase>
              <ntsc>FALSE</ntsc>
            </rate>
            <media>
              <video>
                <track>
                  <clipitem frameBlend="FALSE" id="clipitem-167">
                    <name>Scene - LJ visemes.164.png</name>
                    <masterclipid>masterclip-166</masterclipid>
                    <rate>
                      <timebase>24</timebase>
                      <ntsc>FALSE</ntsc>
                    </rate>
                    <alphatype>straight</alphatype>
                    <pixelaspectratio>square</pixelaspectratio>
                    <anamorphic>FALSE</anamorphic>
                    <file id="file-166">
                      <name>Scene - LJ visemes.164.png</name>
                      <pathurl>file://localhost/Users/bot/Documents/CREATE/Character Animator/LJ visemes CH2AE/demo/Scene - LJ visemes/Scene - LJ visemes.164.png</pathurl>
                      <rate>
                        <timebase>24</timebase>
                        <ntsc>FALSE</ntsc>
                      </rate>
                      <duration>672</duration>
                      <timecode>
                        <rate>
                          <timebase>24</timebase>
                          <ntsc>FALSE</ntsc>
                        </rate>
                      </timecode>
                      <media>
                        <video>
                          <duration>1</duration>
                          <samplecharacteristics>
                            <anamorphic>FALSE</anamorphic>
                            <pixelaspectratio>square</pixelaspectratio>
                            <fielddominance>none</fielddominance>
                            <width>1920</width>
                            <height>1080</height>
                          </samplecharacteristics>
                        </video>
                      </media>
                    </file>
                  </clipitem>
                </track>
              </video>
            </media>
          </clip>
          <clip explodedTracks="true" frameBlend="FALSE" id="masterclip-167">
            <uuid>a14b629e-7859-43f7-970f-3a19d274996e</uuid>
            <masterclipid>masterclip-167</masterclipid>
            <ismasterclip>TRUE</ismasterclip>
            <duration>672</duration>
            <in>0</in>
            <out>672</out>
            <name>Scene - LJ visemes.165.png</name>
            <rate>
              <timebase>24</timebase>
              <ntsc>FALSE</ntsc>
            </rate>
            <media>
              <video>
                <track>
                  <clipitem frameBlend="FALSE" id="clipitem-168">
                    <name>Scene - LJ visemes.165.png</name>
                    <masterclipid>masterclip-167</masterclipid>
                    <rate>
                      <timebase>24</timebase>
                      <ntsc>FALSE</ntsc>
                    </rate>
                    <alphatype>straight</alphatype>
                    <pixelaspectratio>square</pixelaspectratio>
                    <anamorphic>FALSE</anamorphic>
                    <file id="file-167">
                      <name>Scene - LJ visemes.165.png</name>
                      <pathurl>file://localhost/Users/bot/Documents/CREATE/Character Animator/LJ visemes CH2AE/demo/Scene - LJ visemes/Scene - LJ visemes.165.png</pathurl>
                      <rate>
                        <timebase>24</timebase>
                        <ntsc>FALSE</ntsc>
                      </rate>
                      <duration>672</duration>
                      <timecode>
                        <rate>
                          <timebase>24</timebase>
                          <ntsc>FALSE</ntsc>
                        </rate>
                      </timecode>
                      <media>
                        <video>
                          <duration>1</duration>
                          <samplecharacteristics>
                            <anamorphic>FALSE</anamorphic>
                            <pixelaspectratio>square</pixelaspectratio>
                            <fielddominance>none</fielddominance>
                            <width>1920</width>
                            <height>1080</height>
                          </samplecharacteristics>
                        </video>
                      </media>
                    </file>
                  </clipitem>
                </track>
              </video>
            </media>
          </clip>
          <clip explodedTracks="true" frameBlend="FALSE" id="masterclip-168">
            <uuid>1cc6caa6-e200-4fd6-b1db-667197db5296</uuid>
            <masterclipid>masterclip-168</masterclipid>
            <ismasterclip>TRUE</ismasterclip>
            <duration>672</duration>
            <in>0</in>
            <out>672</out>
            <name>Scene - LJ visemes.166.png</name>
            <rate>
              <timebase>24</timebase>
              <ntsc>FALSE</ntsc>
            </rate>
            <media>
              <video>
                <track>
                  <clipitem frameBlend="FALSE" id="clipitem-169">
                    <name>Scene - LJ visemes.166.png</name>
                    <masterclipid>masterclip-168</masterclipid>
                    <rate>
                      <timebase>24</timebase>
                      <ntsc>FALSE</ntsc>
                    </rate>
                    <alphatype>straight</alphatype>
                    <pixelaspectratio>square</pixelaspectratio>
                    <anamorphic>FALSE</anamorphic>
                    <file id="file-168">
                      <name>Scene - LJ visemes.166.png</name>
                      <pathurl>file://localhost/Users/bot/Documents/CREATE/Character Animator/LJ visemes CH2AE/demo/Scene - LJ visemes/Scene - LJ visemes.166.png</pathurl>
                      <rate>
                        <timebase>24</timebase>
                        <ntsc>FALSE</ntsc>
                      </rate>
                      <duration>672</duration>
                      <timecode>
                        <rate>
                          <timebase>24</timebase>
                          <ntsc>FALSE</ntsc>
                        </rate>
                      </timecode>
                      <media>
                        <video>
                          <duration>1</duration>
                          <samplecharacteristics>
                            <anamorphic>FALSE</anamorphic>
                            <pixelaspectratio>square</pixelaspectratio>
                            <fielddominance>none</fielddominance>
                            <width>1920</width>
                            <height>1080</height>
                          </samplecharacteristics>
                        </video>
                      </media>
                    </file>
                  </clipitem>
                </track>
              </video>
            </media>
          </clip>
          <clip explodedTracks="true" frameBlend="FALSE" id="masterclip-169">
            <uuid>378a6e58-f133-42d0-95ef-566a8eebccdb</uuid>
            <masterclipid>masterclip-169</masterclipid>
            <ismasterclip>TRUE</ismasterclip>
            <duration>672</duration>
            <in>0</in>
            <out>672</out>
            <name>Scene - LJ visemes.167.png</name>
            <rate>
              <timebase>24</timebase>
              <ntsc>FALSE</ntsc>
            </rate>
            <media>
              <video>
                <track>
                  <clipitem frameBlend="FALSE" id="clipitem-170">
                    <name>Scene - LJ visemes.167.png</name>
                    <masterclipid>masterclip-169</masterclipid>
                    <rate>
                      <timebase>24</timebase>
                      <ntsc>FALSE</ntsc>
                    </rate>
                    <alphatype>straight</alphatype>
                    <pixelaspectratio>square</pixelaspectratio>
                    <anamorphic>FALSE</anamorphic>
                    <file id="file-169">
                      <name>Scene - LJ visemes.167.png</name>
                      <pathurl>file://localhost/Users/bot/Documents/CREATE/Character Animator/LJ visemes CH2AE/demo/Scene - LJ visemes/Scene - LJ visemes.167.png</pathurl>
                      <rate>
                        <timebase>24</timebase>
                        <ntsc>FALSE</ntsc>
                      </rate>
                      <duration>672</duration>
                      <timecode>
                        <rate>
                          <timebase>24</timebase>
                          <ntsc>FALSE</ntsc>
                        </rate>
                      </timecode>
                      <media>
                        <video>
                          <duration>1</duration>
                          <samplecharacteristics>
                            <anamorphic>FALSE</anamorphic>
                            <pixelaspectratio>square</pixelaspectratio>
                            <fielddominance>none</fielddominance>
                            <width>1920</width>
                            <height>1080</height>
                          </samplecharacteristics>
                        </video>
                      </media>
                    </file>
                  </clipitem>
                </track>
              </video>
            </media>
          </clip>
          <clip explodedTracks="true" frameBlend="FALSE" id="masterclip-170">
            <uuid>13c27e60-c90e-4208-93ea-1d2ef2120c79</uuid>
            <masterclipid>masterclip-170</masterclipid>
            <ismasterclip>TRUE</ismasterclip>
            <duration>672</duration>
            <in>0</in>
            <out>672</out>
            <name>Scene - LJ visemes.168.png</name>
            <rate>
              <timebase>24</timebase>
              <ntsc>FALSE</ntsc>
            </rate>
            <media>
              <video>
                <track>
                  <clipitem frameBlend="FALSE" id="clipitem-171">
                    <name>Scene - LJ visemes.168.png</name>
                    <masterclipid>masterclip-170</masterclipid>
                    <rate>
                      <timebase>24</timebase>
                      <ntsc>FALSE</ntsc>
                    </rate>
                    <alphatype>straight</alphatype>
                    <pixelaspectratio>square</pixelaspectratio>
                    <anamorphic>FALSE</anamorphic>
                    <file id="file-170">
                      <name>Scene - LJ visemes.168.png</name>
                      <pathurl>file://localhost/Users/bot/Documents/CREATE/Character Animator/LJ visemes CH2AE/demo/Scene - LJ visemes/Scene - LJ visemes.168.png</pathurl>
                      <rate>
                        <timebase>24</timebase>
                        <ntsc>FALSE</ntsc>
                      </rate>
                      <duration>672</duration>
                      <timecode>
                        <rate>
                          <timebase>24</timebase>
                          <ntsc>FALSE</ntsc>
                        </rate>
                      </timecode>
                      <media>
                        <video>
                          <duration>1</duration>
                          <samplecharacteristics>
                            <anamorphic>FALSE</anamorphic>
                            <pixelaspectratio>square</pixelaspectratio>
                            <fielddominance>none</fielddominance>
                            <width>1920</width>
                            <height>1080</height>
                          </samplecharacteristics>
                        </video>
                      </media>
                    </file>
                  </clipitem>
                </track>
              </video>
            </media>
          </clip>
          <clip explodedTracks="true" frameBlend="FALSE" id="masterclip-171">
            <uuid>f019d0cb-be57-4dd2-b892-9e5f6218a231</uuid>
            <masterclipid>masterclip-171</masterclipid>
            <ismasterclip>TRUE</ismasterclip>
            <duration>672</duration>
            <in>0</in>
            <out>672</out>
            <name>Scene - LJ visemes.169.png</name>
            <rate>
              <timebase>24</timebase>
              <ntsc>FALSE</ntsc>
            </rate>
            <media>
              <video>
                <track>
                  <clipitem frameBlend="FALSE" id="clipitem-172">
                    <name>Scene - LJ visemes.169.png</name>
                    <masterclipid>masterclip-171</masterclipid>
                    <rate>
                      <timebase>24</timebase>
                      <ntsc>FALSE</ntsc>
                    </rate>
                    <alphatype>straight</alphatype>
                    <pixelaspectratio>square</pixelaspectratio>
                    <anamorphic>FALSE</anamorphic>
                    <file id="file-171">
                      <name>Scene - LJ visemes.169.png</name>
                      <pathurl>file://localhost/Users/bot/Documents/CREATE/Character Animator/LJ visemes CH2AE/demo/Scene - LJ visemes/Scene - LJ visemes.169.png</pathurl>
                      <rate>
                        <timebase>24</timebase>
                        <ntsc>FALSE</ntsc>
                      </rate>
                      <duration>672</duration>
                      <timecode>
                        <rate>
                          <timebase>24</timebase>
                          <ntsc>FALSE</ntsc>
                        </rate>
                      </timecode>
                      <media>
                        <video>
                          <duration>1</duration>
                          <samplecharacteristics>
                            <anamorphic>FALSE</anamorphic>
                            <pixelaspectratio>square</pixelaspectratio>
                            <fielddominance>none</fielddominance>
                            <width>1920</width>
                            <height>1080</height>
                          </samplecharacteristics>
                        </video>
                      </media>
                    </file>
                  </clipitem>
                </track>
              </video>
            </media>
          </clip>
          <clip explodedTracks="true" frameBlend="FALSE" id="masterclip-172">
            <uuid>193a7fc9-7559-47a2-a623-fa5c8e963383</uuid>
            <masterclipid>masterclip-172</masterclipid>
            <ismasterclip>TRUE</ismasterclip>
            <duration>672</duration>
            <in>0</in>
            <out>672</out>
            <name>Scene - LJ visemes.170.png</name>
            <rate>
              <timebase>24</timebase>
              <ntsc>FALSE</ntsc>
            </rate>
            <media>
              <video>
                <track>
                  <clipitem frameBlend="FALSE" id="clipitem-173">
                    <name>Scene - LJ visemes.170.png</name>
                    <masterclipid>masterclip-172</masterclipid>
                    <rate>
                      <timebase>24</timebase>
                      <ntsc>FALSE</ntsc>
                    </rate>
                    <alphatype>straight</alphatype>
                    <pixelaspectratio>square</pixelaspectratio>
                    <anamorphic>FALSE</anamorphic>
                    <file id="file-172">
                      <name>Scene - LJ visemes.170.png</name>
                      <pathurl>file://localhost/Users/bot/Documents/CREATE/Character Animator/LJ visemes CH2AE/demo/Scene - LJ visemes/Scene - LJ visemes.170.png</pathurl>
                      <rate>
                        <timebase>24</timebase>
                        <ntsc>FALSE</ntsc>
                      </rate>
                      <duration>672</duration>
                      <timecode>
                        <rate>
                          <timebase>24</timebase>
                          <ntsc>FALSE</ntsc>
                        </rate>
                      </timecode>
                      <media>
                        <video>
                          <duration>1</duration>
                          <samplecharacteristics>
                            <anamorphic>FALSE</anamorphic>
                            <pixelaspectratio>square</pixelaspectratio>
                            <fielddominance>none</fielddominance>
                            <width>1920</width>
                            <height>1080</height>
                          </samplecharacteristics>
                        </video>
                      </media>
                    </file>
                  </clipitem>
                </track>
              </video>
            </media>
          </clip>
          <clip explodedTracks="true" frameBlend="FALSE" id="masterclip-173">
            <uuid>96ad0f06-485d-4c0a-8497-ef72827599b0</uuid>
            <masterclipid>masterclip-173</masterclipid>
            <ismasterclip>TRUE</ismasterclip>
            <duration>672</duration>
            <in>0</in>
            <out>672</out>
            <name>Scene - LJ visemes.171.png</name>
            <rate>
              <timebase>24</timebase>
              <ntsc>FALSE</ntsc>
            </rate>
            <media>
              <video>
                <track>
                  <clipitem frameBlend="FALSE" id="clipitem-174">
                    <name>Scene - LJ visemes.171.png</name>
                    <masterclipid>masterclip-173</masterclipid>
                    <rate>
                      <timebase>24</timebase>
                      <ntsc>FALSE</ntsc>
                    </rate>
                    <alphatype>straight</alphatype>
                    <pixelaspectratio>square</pixelaspectratio>
                    <anamorphic>FALSE</anamorphic>
                    <file id="file-173">
                      <name>Scene - LJ visemes.171.png</name>
                      <pathurl>file://localhost/Users/bot/Documents/CREATE/Character Animator/LJ visemes CH2AE/demo/Scene - LJ visemes/Scene - LJ visemes.171.png</pathurl>
                      <rate>
                        <timebase>24</timebase>
                        <ntsc>FALSE</ntsc>
                      </rate>
                      <duration>672</duration>
                      <timecode>
                        <rate>
                          <timebase>24</timebase>
                          <ntsc>FALSE</ntsc>
                        </rate>
                      </timecode>
                      <media>
                        <video>
                          <duration>1</duration>
                          <samplecharacteristics>
                            <anamorphic>FALSE</anamorphic>
                            <pixelaspectratio>square</pixelaspectratio>
                            <fielddominance>none</fielddominance>
                            <width>1920</width>
                            <height>1080</height>
                          </samplecharacteristics>
                        </video>
                      </media>
                    </file>
                  </clipitem>
                </track>
              </video>
            </media>
          </clip>
          <clip explodedTracks="true" frameBlend="FALSE" id="masterclip-174">
            <uuid>b5c66fee-501b-4c2e-8c6d-58a6768cde1c</uuid>
            <masterclipid>masterclip-174</masterclipid>
            <ismasterclip>TRUE</ismasterclip>
            <duration>672</duration>
            <in>0</in>
            <out>672</out>
            <name>Scene - LJ visemes.172.png</name>
            <rate>
              <timebase>24</timebase>
              <ntsc>FALSE</ntsc>
            </rate>
            <media>
              <video>
                <track>
                  <clipitem frameBlend="FALSE" id="clipitem-175">
                    <name>Scene - LJ visemes.172.png</name>
                    <masterclipid>masterclip-174</masterclipid>
                    <rate>
                      <timebase>24</timebase>
                      <ntsc>FALSE</ntsc>
                    </rate>
                    <alphatype>straight</alphatype>
                    <pixelaspectratio>square</pixelaspectratio>
                    <anamorphic>FALSE</anamorphic>
                    <file id="file-174">
                      <name>Scene - LJ visemes.172.png</name>
                      <pathurl>file://localhost/Users/bot/Documents/CREATE/Character Animator/LJ visemes CH2AE/demo/Scene - LJ visemes/Scene - LJ visemes.172.png</pathurl>
                      <rate>
                        <timebase>24</timebase>
                        <ntsc>FALSE</ntsc>
                      </rate>
                      <duration>672</duration>
                      <timecode>
                        <rate>
                          <timebase>24</timebase>
                          <ntsc>FALSE</ntsc>
                        </rate>
                      </timecode>
                      <media>
                        <video>
                          <duration>1</duration>
                          <samplecharacteristics>
                            <anamorphic>FALSE</anamorphic>
                            <pixelaspectratio>square</pixelaspectratio>
                            <fielddominance>none</fielddominance>
                            <width>1920</width>
                            <height>1080</height>
                          </samplecharacteristics>
                        </video>
                      </media>
                    </file>
                  </clipitem>
                </track>
              </video>
            </media>
          </clip>
          <clip explodedTracks="true" frameBlend="FALSE" id="masterclip-175">
            <uuid>0f6b5d98-8820-4284-9a2f-ea5561404d15</uuid>
            <masterclipid>masterclip-175</masterclipid>
            <ismasterclip>TRUE</ismasterclip>
            <duration>672</duration>
            <in>0</in>
            <out>672</out>
            <name>Scene - LJ visemes.173.png</name>
            <rate>
              <timebase>24</timebase>
              <ntsc>FALSE</ntsc>
            </rate>
            <media>
              <video>
                <track>
                  <clipitem frameBlend="FALSE" id="clipitem-176">
                    <name>Scene - LJ visemes.173.png</name>
                    <masterclipid>masterclip-175</masterclipid>
                    <rate>
                      <timebase>24</timebase>
                      <ntsc>FALSE</ntsc>
                    </rate>
                    <alphatype>straight</alphatype>
                    <pixelaspectratio>square</pixelaspectratio>
                    <anamorphic>FALSE</anamorphic>
                    <file id="file-175">
                      <name>Scene - LJ visemes.173.png</name>
                      <pathurl>file://localhost/Users/bot/Documents/CREATE/Character Animator/LJ visemes CH2AE/demo/Scene - LJ visemes/Scene - LJ visemes.173.png</pathurl>
                      <rate>
                        <timebase>24</timebase>
                        <ntsc>FALSE</ntsc>
                      </rate>
                      <duration>672</duration>
                      <timecode>
                        <rate>
                          <timebase>24</timebase>
                          <ntsc>FALSE</ntsc>
                        </rate>
                      </timecode>
                      <media>
                        <video>
                          <duration>1</duration>
                          <samplecharacteristics>
                            <anamorphic>FALSE</anamorphic>
                            <pixelaspectratio>square</pixelaspectratio>
                            <fielddominance>none</fielddominance>
                            <width>1920</width>
                            <height>1080</height>
                          </samplecharacteristics>
                        </video>
                      </media>
                    </file>
                  </clipitem>
                </track>
              </video>
            </media>
          </clip>
          <clip explodedTracks="true" frameBlend="FALSE" id="masterclip-176">
            <uuid>6323475f-48df-49ce-93a0-a294b42b1405</uuid>
            <masterclipid>masterclip-176</masterclipid>
            <ismasterclip>TRUE</ismasterclip>
            <duration>672</duration>
            <in>0</in>
            <out>672</out>
            <name>Scene - LJ visemes.174.png</name>
            <rate>
              <timebase>24</timebase>
              <ntsc>FALSE</ntsc>
            </rate>
            <media>
              <video>
                <track>
                  <clipitem frameBlend="FALSE" id="clipitem-177">
                    <name>Scene - LJ visemes.174.png</name>
                    <masterclipid>masterclip-176</masterclipid>
                    <rate>
                      <timebase>24</timebase>
                      <ntsc>FALSE</ntsc>
                    </rate>
                    <alphatype>straight</alphatype>
                    <pixelaspectratio>square</pixelaspectratio>
                    <anamorphic>FALSE</anamorphic>
                    <file id="file-176">
                      <name>Scene - LJ visemes.174.png</name>
                      <pathurl>file://localhost/Users/bot/Documents/CREATE/Character Animator/LJ visemes CH2AE/demo/Scene - LJ visemes/Scene - LJ visemes.174.png</pathurl>
                      <rate>
                        <timebase>24</timebase>
                        <ntsc>FALSE</ntsc>
                      </rate>
                      <duration>672</duration>
                      <timecode>
                        <rate>
                          <timebase>24</timebase>
                          <ntsc>FALSE</ntsc>
                        </rate>
                      </timecode>
                      <media>
                        <video>
                          <duration>1</duration>
                          <samplecharacteristics>
                            <anamorphic>FALSE</anamorphic>
                            <pixelaspectratio>square</pixelaspectratio>
                            <fielddominance>none</fielddominance>
                            <width>1920</width>
                            <height>1080</height>
                          </samplecharacteristics>
                        </video>
                      </media>
                    </file>
                  </clipitem>
                </track>
              </video>
            </media>
          </clip>
          <clip explodedTracks="true" frameBlend="FALSE" id="masterclip-177">
            <uuid>ce1601ba-c7e5-42d5-849d-540a26cdf9bb</uuid>
            <masterclipid>masterclip-177</masterclipid>
            <ismasterclip>TRUE</ismasterclip>
            <duration>672</duration>
            <in>0</in>
            <out>672</out>
            <name>Scene - LJ visemes.175.png</name>
            <rate>
              <timebase>24</timebase>
              <ntsc>FALSE</ntsc>
            </rate>
            <media>
              <video>
                <track>
                  <clipitem frameBlend="FALSE" id="clipitem-178">
                    <name>Scene - LJ visemes.175.png</name>
                    <masterclipid>masterclip-177</masterclipid>
                    <rate>
                      <timebase>24</timebase>
                      <ntsc>FALSE</ntsc>
                    </rate>
                    <alphatype>straight</alphatype>
                    <pixelaspectratio>square</pixelaspectratio>
                    <anamorphic>FALSE</anamorphic>
                    <file id="file-177">
                      <name>Scene - LJ visemes.175.png</name>
                      <pathurl>file://localhost/Users/bot/Documents/CREATE/Character Animator/LJ visemes CH2AE/demo/Scene - LJ visemes/Scene - LJ visemes.175.png</pathurl>
                      <rate>
                        <timebase>24</timebase>
                        <ntsc>FALSE</ntsc>
                      </rate>
                      <duration>672</duration>
                      <timecode>
                        <rate>
                          <timebase>24</timebase>
                          <ntsc>FALSE</ntsc>
                        </rate>
                      </timecode>
                      <media>
                        <video>
                          <duration>1</duration>
                          <samplecharacteristics>
                            <anamorphic>FALSE</anamorphic>
                            <pixelaspectratio>square</pixelaspectratio>
                            <fielddominance>none</fielddominance>
                            <width>1920</width>
                            <height>1080</height>
                          </samplecharacteristics>
                        </video>
                      </media>
                    </file>
                  </clipitem>
                </track>
              </video>
            </media>
          </clip>
          <clip explodedTracks="true" frameBlend="FALSE" id="masterclip-178">
            <uuid>94f3c190-a758-4062-8ed7-23d0076c37ba</uuid>
            <masterclipid>masterclip-178</masterclipid>
            <ismasterclip>TRUE</ismasterclip>
            <duration>672</duration>
            <in>0</in>
            <out>672</out>
            <name>Scene - LJ visemes.176.png</name>
            <rate>
              <timebase>24</timebase>
              <ntsc>FALSE</ntsc>
            </rate>
            <media>
              <video>
                <track>
                  <clipitem frameBlend="FALSE" id="clipitem-179">
                    <name>Scene - LJ visemes.176.png</name>
                    <masterclipid>masterclip-178</masterclipid>
                    <rate>
                      <timebase>24</timebase>
                      <ntsc>FALSE</ntsc>
                    </rate>
                    <alphatype>straight</alphatype>
                    <pixelaspectratio>square</pixelaspectratio>
                    <anamorphic>FALSE</anamorphic>
                    <file id="file-178">
                      <name>Scene - LJ visemes.176.png</name>
                      <pathurl>file://localhost/Users/bot/Documents/CREATE/Character Animator/LJ visemes CH2AE/demo/Scene - LJ visemes/Scene - LJ visemes.176.png</pathurl>
                      <rate>
                        <timebase>24</timebase>
                        <ntsc>FALSE</ntsc>
                      </rate>
                      <duration>672</duration>
                      <timecode>
                        <rate>
                          <timebase>24</timebase>
                          <ntsc>FALSE</ntsc>
                        </rate>
                      </timecode>
                      <media>
                        <video>
                          <duration>1</duration>
                          <samplecharacteristics>
                            <anamorphic>FALSE</anamorphic>
                            <pixelaspectratio>square</pixelaspectratio>
                            <fielddominance>none</fielddominance>
                            <width>1920</width>
                            <height>1080</height>
                          </samplecharacteristics>
                        </video>
                      </media>
                    </file>
                  </clipitem>
                </track>
              </video>
            </media>
          </clip>
          <clip explodedTracks="true" frameBlend="FALSE" id="masterclip-179">
            <uuid>82e389b0-944e-45a9-a1aa-4ff4117c46d8</uuid>
            <masterclipid>masterclip-179</masterclipid>
            <ismasterclip>TRUE</ismasterclip>
            <duration>672</duration>
            <in>0</in>
            <out>672</out>
            <name>Scene - LJ visemes.177.png</name>
            <rate>
              <timebase>24</timebase>
              <ntsc>FALSE</ntsc>
            </rate>
            <media>
              <video>
                <track>
                  <clipitem frameBlend="FALSE" id="clipitem-180">
                    <name>Scene - LJ visemes.177.png</name>
                    <masterclipid>masterclip-179</masterclipid>
                    <rate>
                      <timebase>24</timebase>
                      <ntsc>FALSE</ntsc>
                    </rate>
                    <alphatype>straight</alphatype>
                    <pixelaspectratio>square</pixelaspectratio>
                    <anamorphic>FALSE</anamorphic>
                    <file id="file-179">
                      <name>Scene - LJ visemes.177.png</name>
                      <pathurl>file://localhost/Users/bot/Documents/CREATE/Character Animator/LJ visemes CH2AE/demo/Scene - LJ visemes/Scene - LJ visemes.177.png</pathurl>
                      <rate>
                        <timebase>24</timebase>
                        <ntsc>FALSE</ntsc>
                      </rate>
                      <duration>672</duration>
                      <timecode>
                        <rate>
                          <timebase>24</timebase>
                          <ntsc>FALSE</ntsc>
                        </rate>
                      </timecode>
                      <media>
                        <video>
                          <duration>1</duration>
                          <samplecharacteristics>
                            <anamorphic>FALSE</anamorphic>
                            <pixelaspectratio>square</pixelaspectratio>
                            <fielddominance>none</fielddominance>
                            <width>1920</width>
                            <height>1080</height>
                          </samplecharacteristics>
                        </video>
                      </media>
                    </file>
                  </clipitem>
                </track>
              </video>
            </media>
          </clip>
          <clip explodedTracks="true" frameBlend="FALSE" id="masterclip-180">
            <uuid>271f36e1-0047-45cc-834b-1b3da2cd3515</uuid>
            <masterclipid>masterclip-180</masterclipid>
            <ismasterclip>TRUE</ismasterclip>
            <duration>672</duration>
            <in>0</in>
            <out>672</out>
            <name>Scene - LJ visemes.178.png</name>
            <rate>
              <timebase>24</timebase>
              <ntsc>FALSE</ntsc>
            </rate>
            <media>
              <video>
                <track>
                  <clipitem frameBlend="FALSE" id="clipitem-181">
                    <name>Scene - LJ visemes.178.png</name>
                    <masterclipid>masterclip-180</masterclipid>
                    <rate>
                      <timebase>24</timebase>
                      <ntsc>FALSE</ntsc>
                    </rate>
                    <alphatype>straight</alphatype>
                    <pixelaspectratio>square</pixelaspectratio>
                    <anamorphic>FALSE</anamorphic>
                    <file id="file-180">
                      <name>Scene - LJ visemes.178.png</name>
                      <pathurl>file://localhost/Users/bot/Documents/CREATE/Character Animator/LJ visemes CH2AE/demo/Scene - LJ visemes/Scene - LJ visemes.178.png</pathurl>
                      <rate>
                        <timebase>24</timebase>
                        <ntsc>FALSE</ntsc>
                      </rate>
                      <duration>672</duration>
                      <timecode>
                        <rate>
                          <timebase>24</timebase>
                          <ntsc>FALSE</ntsc>
                        </rate>
                      </timecode>
                      <media>
                        <video>
                          <duration>1</duration>
                          <samplecharacteristics>
                            <anamorphic>FALSE</anamorphic>
                            <pixelaspectratio>square</pixelaspectratio>
                            <fielddominance>none</fielddominance>
                            <width>1920</width>
                            <height>1080</height>
                          </samplecharacteristics>
                        </video>
                      </media>
                    </file>
                  </clipitem>
                </track>
              </video>
            </media>
          </clip>
          <clip explodedTracks="true" frameBlend="FALSE" id="masterclip-181">
            <uuid>fd73a1ad-aea7-422a-867b-a8bd1f9848dc</uuid>
            <masterclipid>masterclip-181</masterclipid>
            <ismasterclip>TRUE</ismasterclip>
            <duration>672</duration>
            <in>0</in>
            <out>672</out>
            <name>Scene - LJ visemes.179.png</name>
            <rate>
              <timebase>24</timebase>
              <ntsc>FALSE</ntsc>
            </rate>
            <media>
              <video>
                <track>
                  <clipitem frameBlend="FALSE" id="clipitem-182">
                    <name>Scene - LJ visemes.179.png</name>
                    <masterclipid>masterclip-181</masterclipid>
                    <rate>
                      <timebase>24</timebase>
                      <ntsc>FALSE</ntsc>
                    </rate>
                    <alphatype>straight</alphatype>
                    <pixelaspectratio>square</pixelaspectratio>
                    <anamorphic>FALSE</anamorphic>
                    <file id="file-181">
                      <name>Scene - LJ visemes.179.png</name>
                      <pathurl>file://localhost/Users/bot/Documents/CREATE/Character Animator/LJ visemes CH2AE/demo/Scene - LJ visemes/Scene - LJ visemes.179.png</pathurl>
                      <rate>
                        <timebase>24</timebase>
                        <ntsc>FALSE</ntsc>
                      </rate>
                      <duration>672</duration>
                      <timecode>
                        <rate>
                          <timebase>24</timebase>
                          <ntsc>FALSE</ntsc>
                        </rate>
                      </timecode>
                      <media>
                        <video>
                          <duration>1</duration>
                          <samplecharacteristics>
                            <anamorphic>FALSE</anamorphic>
                            <pixelaspectratio>square</pixelaspectratio>
                            <fielddominance>none</fielddominance>
                            <width>1920</width>
                            <height>1080</height>
                          </samplecharacteristics>
                        </video>
                      </media>
                    </file>
                  </clipitem>
                </track>
              </video>
            </media>
          </clip>
          <clip explodedTracks="true" frameBlend="FALSE" id="masterclip-182">
            <uuid>bb3745d2-c99c-420e-95d1-22480775bc70</uuid>
            <masterclipid>masterclip-182</masterclipid>
            <ismasterclip>TRUE</ismasterclip>
            <duration>672</duration>
            <in>0</in>
            <out>672</out>
            <name>Scene - LJ visemes.180.png</name>
            <rate>
              <timebase>24</timebase>
              <ntsc>FALSE</ntsc>
            </rate>
            <media>
              <video>
                <track>
                  <clipitem frameBlend="FALSE" id="clipitem-183">
                    <name>Scene - LJ visemes.180.png</name>
                    <masterclipid>masterclip-182</masterclipid>
                    <rate>
                      <timebase>24</timebase>
                      <ntsc>FALSE</ntsc>
                    </rate>
                    <alphatype>straight</alphatype>
                    <pixelaspectratio>square</pixelaspectratio>
                    <anamorphic>FALSE</anamorphic>
                    <file id="file-182">
                      <name>Scene - LJ visemes.180.png</name>
                      <pathurl>file://localhost/Users/bot/Documents/CREATE/Character Animator/LJ visemes CH2AE/demo/Scene - LJ visemes/Scene - LJ visemes.180.png</pathurl>
                      <rate>
                        <timebase>24</timebase>
                        <ntsc>FALSE</ntsc>
                      </rate>
                      <duration>672</duration>
                      <timecode>
                        <rate>
                          <timebase>24</timebase>
                          <ntsc>FALSE</ntsc>
                        </rate>
                      </timecode>
                      <media>
                        <video>
                          <duration>1</duration>
                          <samplecharacteristics>
                            <anamorphic>FALSE</anamorphic>
                            <pixelaspectratio>square</pixelaspectratio>
                            <fielddominance>none</fielddominance>
                            <width>1920</width>
                            <height>1080</height>
                          </samplecharacteristics>
                        </video>
                      </media>
                    </file>
                  </clipitem>
                </track>
              </video>
            </media>
          </clip>
          <clip explodedTracks="true" frameBlend="FALSE" id="masterclip-183">
            <uuid>a583c00e-b476-4f26-92c7-ff4546102928</uuid>
            <masterclipid>masterclip-183</masterclipid>
            <ismasterclip>TRUE</ismasterclip>
            <duration>672</duration>
            <in>0</in>
            <out>672</out>
            <name>Scene - LJ visemes.181.png</name>
            <rate>
              <timebase>24</timebase>
              <ntsc>FALSE</ntsc>
            </rate>
            <media>
              <video>
                <track>
                  <clipitem frameBlend="FALSE" id="clipitem-184">
                    <name>Scene - LJ visemes.181.png</name>
                    <masterclipid>masterclip-183</masterclipid>
                    <rate>
                      <timebase>24</timebase>
                      <ntsc>FALSE</ntsc>
                    </rate>
                    <alphatype>straight</alphatype>
                    <pixelaspectratio>square</pixelaspectratio>
                    <anamorphic>FALSE</anamorphic>
                    <file id="file-183">
                      <name>Scene - LJ visemes.181.png</name>
                      <pathurl>file://localhost/Users/bot/Documents/CREATE/Character Animator/LJ visemes CH2AE/demo/Scene - LJ visemes/Scene - LJ visemes.181.png</pathurl>
                      <rate>
                        <timebase>24</timebase>
                        <ntsc>FALSE</ntsc>
                      </rate>
                      <duration>672</duration>
                      <timecode>
                        <rate>
                          <timebase>24</timebase>
                          <ntsc>FALSE</ntsc>
                        </rate>
                      </timecode>
                      <media>
                        <video>
                          <duration>1</duration>
                          <samplecharacteristics>
                            <anamorphic>FALSE</anamorphic>
                            <pixelaspectratio>square</pixelaspectratio>
                            <fielddominance>none</fielddominance>
                            <width>1920</width>
                            <height>1080</height>
                          </samplecharacteristics>
                        </video>
                      </media>
                    </file>
                  </clipitem>
                </track>
              </video>
            </media>
          </clip>
          <clip explodedTracks="true" frameBlend="FALSE" id="masterclip-184">
            <uuid>b69457a7-d597-4a5f-bb83-0bd4cffc9d77</uuid>
            <masterclipid>masterclip-184</masterclipid>
            <ismasterclip>TRUE</ismasterclip>
            <duration>672</duration>
            <in>0</in>
            <out>672</out>
            <name>Scene - LJ visemes.182.png</name>
            <rate>
              <timebase>24</timebase>
              <ntsc>FALSE</ntsc>
            </rate>
            <media>
              <video>
                <track>
                  <clipitem frameBlend="FALSE" id="clipitem-185">
                    <name>Scene - LJ visemes.182.png</name>
                    <masterclipid>masterclip-184</masterclipid>
                    <rate>
                      <timebase>24</timebase>
                      <ntsc>FALSE</ntsc>
                    </rate>
                    <alphatype>straight</alphatype>
                    <pixelaspectratio>square</pixelaspectratio>
                    <anamorphic>FALSE</anamorphic>
                    <file id="file-184">
                      <name>Scene - LJ visemes.182.png</name>
                      <pathurl>file://localhost/Users/bot/Documents/CREATE/Character Animator/LJ visemes CH2AE/demo/Scene - LJ visemes/Scene - LJ visemes.182.png</pathurl>
                      <rate>
                        <timebase>24</timebase>
                        <ntsc>FALSE</ntsc>
                      </rate>
                      <duration>672</duration>
                      <timecode>
                        <rate>
                          <timebase>24</timebase>
                          <ntsc>FALSE</ntsc>
                        </rate>
                      </timecode>
                      <media>
                        <video>
                          <duration>1</duration>
                          <samplecharacteristics>
                            <anamorphic>FALSE</anamorphic>
                            <pixelaspectratio>square</pixelaspectratio>
                            <fielddominance>none</fielddominance>
                            <width>1920</width>
                            <height>1080</height>
                          </samplecharacteristics>
                        </video>
                      </media>
                    </file>
                  </clipitem>
                </track>
              </video>
            </media>
          </clip>
          <clip explodedTracks="true" frameBlend="FALSE" id="masterclip-185">
            <uuid>9b7f697d-e410-48f9-9236-1fec60120f13</uuid>
            <masterclipid>masterclip-185</masterclipid>
            <ismasterclip>TRUE</ismasterclip>
            <duration>672</duration>
            <in>0</in>
            <out>672</out>
            <name>Scene - LJ visemes.183.png</name>
            <rate>
              <timebase>24</timebase>
              <ntsc>FALSE</ntsc>
            </rate>
            <media>
              <video>
                <track>
                  <clipitem frameBlend="FALSE" id="clipitem-186">
                    <name>Scene - LJ visemes.183.png</name>
                    <masterclipid>masterclip-185</masterclipid>
                    <rate>
                      <timebase>24</timebase>
                      <ntsc>FALSE</ntsc>
                    </rate>
                    <alphatype>straight</alphatype>
                    <pixelaspectratio>square</pixelaspectratio>
                    <anamorphic>FALSE</anamorphic>
                    <file id="file-185">
                      <name>Scene - LJ visemes.183.png</name>
                      <pathurl>file://localhost/Users/bot/Documents/CREATE/Character Animator/LJ visemes CH2AE/demo/Scene - LJ visemes/Scene - LJ visemes.183.png</pathurl>
                      <rate>
                        <timebase>24</timebase>
                        <ntsc>FALSE</ntsc>
                      </rate>
                      <duration>672</duration>
                      <timecode>
                        <rate>
                          <timebase>24</timebase>
                          <ntsc>FALSE</ntsc>
                        </rate>
                      </timecode>
                      <media>
                        <video>
                          <duration>1</duration>
                          <samplecharacteristics>
                            <anamorphic>FALSE</anamorphic>
                            <pixelaspectratio>square</pixelaspectratio>
                            <fielddominance>none</fielddominance>
                            <width>1920</width>
                            <height>1080</height>
                          </samplecharacteristics>
                        </video>
                      </media>
                    </file>
                  </clipitem>
                </track>
              </video>
            </media>
          </clip>
          <clip explodedTracks="true" frameBlend="FALSE" id="masterclip-186">
            <uuid>34b11c77-0776-4086-8f7f-561df3cff0a4</uuid>
            <masterclipid>masterclip-186</masterclipid>
            <ismasterclip>TRUE</ismasterclip>
            <duration>672</duration>
            <in>0</in>
            <out>672</out>
            <name>Scene - LJ visemes.184.png</name>
            <rate>
              <timebase>24</timebase>
              <ntsc>FALSE</ntsc>
            </rate>
            <media>
              <video>
                <track>
                  <clipitem frameBlend="FALSE" id="clipitem-187">
                    <name>Scene - LJ visemes.184.png</name>
                    <masterclipid>masterclip-186</masterclipid>
                    <rate>
                      <timebase>24</timebase>
                      <ntsc>FALSE</ntsc>
                    </rate>
                    <alphatype>straight</alphatype>
                    <pixelaspectratio>square</pixelaspectratio>
                    <anamorphic>FALSE</anamorphic>
                    <file id="file-186">
                      <name>Scene - LJ visemes.184.png</name>
                      <pathurl>file://localhost/Users/bot/Documents/CREATE/Character Animator/LJ visemes CH2AE/demo/Scene - LJ visemes/Scene - LJ visemes.184.png</pathurl>
                      <rate>
                        <timebase>24</timebase>
                        <ntsc>FALSE</ntsc>
                      </rate>
                      <duration>672</duration>
                      <timecode>
                        <rate>
                          <timebase>24</timebase>
                          <ntsc>FALSE</ntsc>
                        </rate>
                      </timecode>
                      <media>
                        <video>
                          <duration>1</duration>
                          <samplecharacteristics>
                            <anamorphic>FALSE</anamorphic>
                            <pixelaspectratio>square</pixelaspectratio>
                            <fielddominance>none</fielddominance>
                            <width>1920</width>
                            <height>1080</height>
                          </samplecharacteristics>
                        </video>
                      </media>
                    </file>
                  </clipitem>
                </track>
              </video>
            </media>
          </clip>
          <clip explodedTracks="true" frameBlend="FALSE" id="masterclip-187">
            <uuid>9f884200-449b-4dd8-9dc2-3373d12f1bcb</uuid>
            <masterclipid>masterclip-187</masterclipid>
            <ismasterclip>TRUE</ismasterclip>
            <duration>672</duration>
            <in>0</in>
            <out>672</out>
            <name>Scene - LJ visemes.185.png</name>
            <rate>
              <timebase>24</timebase>
              <ntsc>FALSE</ntsc>
            </rate>
            <media>
              <video>
                <track>
                  <clipitem frameBlend="FALSE" id="clipitem-188">
                    <name>Scene - LJ visemes.185.png</name>
                    <masterclipid>masterclip-187</masterclipid>
                    <rate>
                      <timebase>24</timebase>
                      <ntsc>FALSE</ntsc>
                    </rate>
                    <alphatype>straight</alphatype>
                    <pixelaspectratio>square</pixelaspectratio>
                    <anamorphic>FALSE</anamorphic>
                    <file id="file-187">
                      <name>Scene - LJ visemes.185.png</name>
                      <pathurl>file://localhost/Users/bot/Documents/CREATE/Character Animator/LJ visemes CH2AE/demo/Scene - LJ visemes/Scene - LJ visemes.185.png</pathurl>
                      <rate>
                        <timebase>24</timebase>
                        <ntsc>FALSE</ntsc>
                      </rate>
                      <duration>672</duration>
                      <timecode>
                        <rate>
                          <timebase>24</timebase>
                          <ntsc>FALSE</ntsc>
                        </rate>
                      </timecode>
                      <media>
                        <video>
                          <duration>1</duration>
                          <samplecharacteristics>
                            <anamorphic>FALSE</anamorphic>
                            <pixelaspectratio>square</pixelaspectratio>
                            <fielddominance>none</fielddominance>
                            <width>1920</width>
                            <height>1080</height>
                          </samplecharacteristics>
                        </video>
                      </media>
                    </file>
                  </clipitem>
                </track>
              </video>
            </media>
          </clip>
          <clip explodedTracks="true" frameBlend="FALSE" id="masterclip-188">
            <uuid>07c8af0a-7aed-49ee-bf3b-7b6caba66d37</uuid>
            <masterclipid>masterclip-188</masterclipid>
            <ismasterclip>TRUE</ismasterclip>
            <duration>672</duration>
            <in>0</in>
            <out>672</out>
            <name>Scene - LJ visemes.186.png</name>
            <rate>
              <timebase>24</timebase>
              <ntsc>FALSE</ntsc>
            </rate>
            <media>
              <video>
                <track>
                  <clipitem frameBlend="FALSE" id="clipitem-189">
                    <name>Scene - LJ visemes.186.png</name>
                    <masterclipid>masterclip-188</masterclipid>
                    <rate>
                      <timebase>24</timebase>
                      <ntsc>FALSE</ntsc>
                    </rate>
                    <alphatype>straight</alphatype>
                    <pixelaspectratio>square</pixelaspectratio>
                    <anamorphic>FALSE</anamorphic>
                    <file id="file-188">
                      <name>Scene - LJ visemes.186.png</name>
                      <pathurl>file://localhost/Users/bot/Documents/CREATE/Character Animator/LJ visemes CH2AE/demo/Scene - LJ visemes/Scene - LJ visemes.186.png</pathurl>
                      <rate>
                        <timebase>24</timebase>
                        <ntsc>FALSE</ntsc>
                      </rate>
                      <duration>672</duration>
                      <timecode>
                        <rate>
                          <timebase>24</timebase>
                          <ntsc>FALSE</ntsc>
                        </rate>
                      </timecode>
                      <media>
                        <video>
                          <duration>1</duration>
                          <samplecharacteristics>
                            <anamorphic>FALSE</anamorphic>
                            <pixelaspectratio>square</pixelaspectratio>
                            <fielddominance>none</fielddominance>
                            <width>1920</width>
                            <height>1080</height>
                          </samplecharacteristics>
                        </video>
                      </media>
                    </file>
                  </clipitem>
                </track>
              </video>
            </media>
          </clip>
          <clip explodedTracks="true" frameBlend="FALSE" id="masterclip-189">
            <uuid>4015bb5e-0e79-4f97-8b74-6b0f6c54a30e</uuid>
            <masterclipid>masterclip-189</masterclipid>
            <ismasterclip>TRUE</ismasterclip>
            <duration>672</duration>
            <in>0</in>
            <out>672</out>
            <name>Scene - LJ visemes.187.png</name>
            <rate>
              <timebase>24</timebase>
              <ntsc>FALSE</ntsc>
            </rate>
            <media>
              <video>
                <track>
                  <clipitem frameBlend="FALSE" id="clipitem-190">
                    <name>Scene - LJ visemes.187.png</name>
                    <masterclipid>masterclip-189</masterclipid>
                    <rate>
                      <timebase>24</timebase>
                      <ntsc>FALSE</ntsc>
                    </rate>
                    <alphatype>straight</alphatype>
                    <pixelaspectratio>square</pixelaspectratio>
                    <anamorphic>FALSE</anamorphic>
                    <file id="file-189">
                      <name>Scene - LJ visemes.187.png</name>
                      <pathurl>file://localhost/Users/bot/Documents/CREATE/Character Animator/LJ visemes CH2AE/demo/Scene - LJ visemes/Scene - LJ visemes.187.png</pathurl>
                      <rate>
                        <timebase>24</timebase>
                        <ntsc>FALSE</ntsc>
                      </rate>
                      <duration>672</duration>
                      <timecode>
                        <rate>
                          <timebase>24</timebase>
                          <ntsc>FALSE</ntsc>
                        </rate>
                      </timecode>
                      <media>
                        <video>
                          <duration>1</duration>
                          <samplecharacteristics>
                            <anamorphic>FALSE</anamorphic>
                            <pixelaspectratio>square</pixelaspectratio>
                            <fielddominance>none</fielddominance>
                            <width>1920</width>
                            <height>1080</height>
                          </samplecharacteristics>
                        </video>
                      </media>
                    </file>
                  </clipitem>
                </track>
              </video>
            </media>
          </clip>
          <clip explodedTracks="true" frameBlend="FALSE" id="masterclip-190">
            <uuid>591ad9f0-5ce1-434d-b374-fa63a80e644d</uuid>
            <masterclipid>masterclip-190</masterclipid>
            <ismasterclip>TRUE</ismasterclip>
            <duration>672</duration>
            <in>0</in>
            <out>672</out>
            <name>Scene - LJ visemes.188.png</name>
            <rate>
              <timebase>24</timebase>
              <ntsc>FALSE</ntsc>
            </rate>
            <media>
              <video>
                <track>
                  <clipitem frameBlend="FALSE" id="clipitem-191">
                    <name>Scene - LJ visemes.188.png</name>
                    <masterclipid>masterclip-190</masterclipid>
                    <rate>
                      <timebase>24</timebase>
                      <ntsc>FALSE</ntsc>
                    </rate>
                    <alphatype>straight</alphatype>
                    <pixelaspectratio>square</pixelaspectratio>
                    <anamorphic>FALSE</anamorphic>
                    <file id="file-190">
                      <name>Scene - LJ visemes.188.png</name>
                      <pathurl>file://localhost/Users/bot/Documents/CREATE/Character Animator/LJ visemes CH2AE/demo/Scene - LJ visemes/Scene - LJ visemes.188.png</pathurl>
                      <rate>
                        <timebase>24</timebase>
                        <ntsc>FALSE</ntsc>
                      </rate>
                      <duration>672</duration>
                      <timecode>
                        <rate>
                          <timebase>24</timebase>
                          <ntsc>FALSE</ntsc>
                        </rate>
                      </timecode>
                      <media>
                        <video>
                          <duration>1</duration>
                          <samplecharacteristics>
                            <anamorphic>FALSE</anamorphic>
                            <pixelaspectratio>square</pixelaspectratio>
                            <fielddominance>none</fielddominance>
                            <width>1920</width>
                            <height>1080</height>
                          </samplecharacteristics>
                        </video>
                      </media>
                    </file>
                  </clipitem>
                </track>
              </video>
            </media>
          </clip>
          <clip explodedTracks="true" frameBlend="FALSE" id="masterclip-191">
            <uuid>79ac5740-9b79-4b5f-a887-92232fc2a3b5</uuid>
            <masterclipid>masterclip-191</masterclipid>
            <ismasterclip>TRUE</ismasterclip>
            <duration>672</duration>
            <in>0</in>
            <out>672</out>
            <name>Scene - LJ visemes.189.png</name>
            <rate>
              <timebase>24</timebase>
              <ntsc>FALSE</ntsc>
            </rate>
            <media>
              <video>
                <track>
                  <clipitem frameBlend="FALSE" id="clipitem-192">
                    <name>Scene - LJ visemes.189.png</name>
                    <masterclipid>masterclip-191</masterclipid>
                    <rate>
                      <timebase>24</timebase>
                      <ntsc>FALSE</ntsc>
                    </rate>
                    <alphatype>straight</alphatype>
                    <pixelaspectratio>square</pixelaspectratio>
                    <anamorphic>FALSE</anamorphic>
                    <file id="file-191">
                      <name>Scene - LJ visemes.189.png</name>
                      <pathurl>file://localhost/Users/bot/Documents/CREATE/Character Animator/LJ visemes CH2AE/demo/Scene - LJ visemes/Scene - LJ visemes.189.png</pathurl>
                      <rate>
                        <timebase>24</timebase>
                        <ntsc>FALSE</ntsc>
                      </rate>
                      <duration>672</duration>
                      <timecode>
                        <rate>
                          <timebase>24</timebase>
                          <ntsc>FALSE</ntsc>
                        </rate>
                      </timecode>
                      <media>
                        <video>
                          <duration>1</duration>
                          <samplecharacteristics>
                            <anamorphic>FALSE</anamorphic>
                            <pixelaspectratio>square</pixelaspectratio>
                            <fielddominance>none</fielddominance>
                            <width>1920</width>
                            <height>1080</height>
                          </samplecharacteristics>
                        </video>
                      </media>
                    </file>
                  </clipitem>
                </track>
              </video>
            </media>
          </clip>
          <clip explodedTracks="true" frameBlend="FALSE" id="masterclip-192">
            <uuid>6fa33bec-8b71-44eb-8b98-62e3645f7892</uuid>
            <masterclipid>masterclip-192</masterclipid>
            <ismasterclip>TRUE</ismasterclip>
            <duration>672</duration>
            <in>0</in>
            <out>672</out>
            <name>Scene - LJ visemes.190.png</name>
            <rate>
              <timebase>24</timebase>
              <ntsc>FALSE</ntsc>
            </rate>
            <media>
              <video>
                <track>
                  <clipitem frameBlend="FALSE" id="clipitem-193">
                    <name>Scene - LJ visemes.190.png</name>
                    <masterclipid>masterclip-192</masterclipid>
                    <rate>
                      <timebase>24</timebase>
                      <ntsc>FALSE</ntsc>
                    </rate>
                    <alphatype>straight</alphatype>
                    <pixelaspectratio>square</pixelaspectratio>
                    <anamorphic>FALSE</anamorphic>
                    <file id="file-192">
                      <name>Scene - LJ visemes.190.png</name>
                      <pathurl>file://localhost/Users/bot/Documents/CREATE/Character Animator/LJ visemes CH2AE/demo/Scene - LJ visemes/Scene - LJ visemes.190.png</pathurl>
                      <rate>
                        <timebase>24</timebase>
                        <ntsc>FALSE</ntsc>
                      </rate>
                      <duration>672</duration>
                      <timecode>
                        <rate>
                          <timebase>24</timebase>
                          <ntsc>FALSE</ntsc>
                        </rate>
                      </timecode>
                      <media>
                        <video>
                          <duration>1</duration>
                          <samplecharacteristics>
                            <anamorphic>FALSE</anamorphic>
                            <pixelaspectratio>square</pixelaspectratio>
                            <fielddominance>none</fielddominance>
                            <width>1920</width>
                            <height>1080</height>
                          </samplecharacteristics>
                        </video>
                      </media>
                    </file>
                  </clipitem>
                </track>
              </video>
            </media>
          </clip>
          <clip explodedTracks="true" frameBlend="FALSE" id="masterclip-193">
            <uuid>506befe2-ebd0-4ce4-a68b-6527486cd1c7</uuid>
            <masterclipid>masterclip-193</masterclipid>
            <ismasterclip>TRUE</ismasterclip>
            <duration>672</duration>
            <in>0</in>
            <out>672</out>
            <name>Scene - LJ visemes.191.png</name>
            <rate>
              <timebase>24</timebase>
              <ntsc>FALSE</ntsc>
            </rate>
            <media>
              <video>
                <track>
                  <clipitem frameBlend="FALSE" id="clipitem-194">
                    <name>Scene - LJ visemes.191.png</name>
                    <masterclipid>masterclip-193</masterclipid>
                    <rate>
                      <timebase>24</timebase>
                      <ntsc>FALSE</ntsc>
                    </rate>
                    <alphatype>straight</alphatype>
                    <pixelaspectratio>square</pixelaspectratio>
                    <anamorphic>FALSE</anamorphic>
                    <file id="file-193">
                      <name>Scene - LJ visemes.191.png</name>
                      <pathurl>file://localhost/Users/bot/Documents/CREATE/Character Animator/LJ visemes CH2AE/demo/Scene - LJ visemes/Scene - LJ visemes.191.png</pathurl>
                      <rate>
                        <timebase>24</timebase>
                        <ntsc>FALSE</ntsc>
                      </rate>
                      <duration>672</duration>
                      <timecode>
                        <rate>
                          <timebase>24</timebase>
                          <ntsc>FALSE</ntsc>
                        </rate>
                      </timecode>
                      <media>
                        <video>
                          <duration>1</duration>
                          <samplecharacteristics>
                            <anamorphic>FALSE</anamorphic>
                            <pixelaspectratio>square</pixelaspectratio>
                            <fielddominance>none</fielddominance>
                            <width>1920</width>
                            <height>1080</height>
                          </samplecharacteristics>
                        </video>
                      </media>
                    </file>
                  </clipitem>
                </track>
              </video>
            </media>
          </clip>
          <clip explodedTracks="true" frameBlend="FALSE" id="masterclip-194">
            <uuid>7a981f6d-f6b1-4965-9085-29dbb49e5ec5</uuid>
            <masterclipid>masterclip-194</masterclipid>
            <ismasterclip>TRUE</ismasterclip>
            <duration>672</duration>
            <in>0</in>
            <out>672</out>
            <name>Scene - LJ visemes.192.png</name>
            <rate>
              <timebase>24</timebase>
              <ntsc>FALSE</ntsc>
            </rate>
            <media>
              <video>
                <track>
                  <clipitem frameBlend="FALSE" id="clipitem-195">
                    <name>Scene - LJ visemes.192.png</name>
                    <masterclipid>masterclip-194</masterclipid>
                    <rate>
                      <timebase>24</timebase>
                      <ntsc>FALSE</ntsc>
                    </rate>
                    <alphatype>straight</alphatype>
                    <pixelaspectratio>square</pixelaspectratio>
                    <anamorphic>FALSE</anamorphic>
                    <file id="file-194">
                      <name>Scene - LJ visemes.192.png</name>
                      <pathurl>file://localhost/Users/bot/Documents/CREATE/Character Animator/LJ visemes CH2AE/demo/Scene - LJ visemes/Scene - LJ visemes.192.png</pathurl>
                      <rate>
                        <timebase>24</timebase>
                        <ntsc>FALSE</ntsc>
                      </rate>
                      <duration>672</duration>
                      <timecode>
                        <rate>
                          <timebase>24</timebase>
                          <ntsc>FALSE</ntsc>
                        </rate>
                      </timecode>
                      <media>
                        <video>
                          <duration>1</duration>
                          <samplecharacteristics>
                            <anamorphic>FALSE</anamorphic>
                            <pixelaspectratio>square</pixelaspectratio>
                            <fielddominance>none</fielddominance>
                            <width>1920</width>
                            <height>1080</height>
                          </samplecharacteristics>
                        </video>
                      </media>
                    </file>
                  </clipitem>
                </track>
              </video>
            </media>
          </clip>
          <clip explodedTracks="true" frameBlend="FALSE" id="masterclip-195">
            <uuid>6594da6b-e08f-4d1b-ad01-95a0aa4d4017</uuid>
            <masterclipid>masterclip-195</masterclipid>
            <ismasterclip>TRUE</ismasterclip>
            <duration>672</duration>
            <in>0</in>
            <out>672</out>
            <name>Scene - LJ visemes.193.png</name>
            <rate>
              <timebase>24</timebase>
              <ntsc>FALSE</ntsc>
            </rate>
            <media>
              <video>
                <track>
                  <clipitem frameBlend="FALSE" id="clipitem-196">
                    <name>Scene - LJ visemes.193.png</name>
                    <masterclipid>masterclip-195</masterclipid>
                    <rate>
                      <timebase>24</timebase>
                      <ntsc>FALSE</ntsc>
                    </rate>
                    <alphatype>straight</alphatype>
                    <pixelaspectratio>square</pixelaspectratio>
                    <anamorphic>FALSE</anamorphic>
                    <file id="file-195">
                      <name>Scene - LJ visemes.193.png</name>
                      <pathurl>file://localhost/Users/bot/Documents/CREATE/Character Animator/LJ visemes CH2AE/demo/Scene - LJ visemes/Scene - LJ visemes.193.png</pathurl>
                      <rate>
                        <timebase>24</timebase>
                        <ntsc>FALSE</ntsc>
                      </rate>
                      <duration>672</duration>
                      <timecode>
                        <rate>
                          <timebase>24</timebase>
                          <ntsc>FALSE</ntsc>
                        </rate>
                      </timecode>
                      <media>
                        <video>
                          <duration>1</duration>
                          <samplecharacteristics>
                            <anamorphic>FALSE</anamorphic>
                            <pixelaspectratio>square</pixelaspectratio>
                            <fielddominance>none</fielddominance>
                            <width>1920</width>
                            <height>1080</height>
                          </samplecharacteristics>
                        </video>
                      </media>
                    </file>
                  </clipitem>
                </track>
              </video>
            </media>
          </clip>
          <clip explodedTracks="true" frameBlend="FALSE" id="masterclip-196">
            <uuid>73c772ac-6fc6-4ec8-9fc4-64c5c6c04a5c</uuid>
            <masterclipid>masterclip-196</masterclipid>
            <ismasterclip>TRUE</ismasterclip>
            <duration>672</duration>
            <in>0</in>
            <out>672</out>
            <name>Scene - LJ visemes.194.png</name>
            <rate>
              <timebase>24</timebase>
              <ntsc>FALSE</ntsc>
            </rate>
            <media>
              <video>
                <track>
                  <clipitem frameBlend="FALSE" id="clipitem-197">
                    <name>Scene - LJ visemes.194.png</name>
                    <masterclipid>masterclip-196</masterclipid>
                    <rate>
                      <timebase>24</timebase>
                      <ntsc>FALSE</ntsc>
                    </rate>
                    <alphatype>straight</alphatype>
                    <pixelaspectratio>square</pixelaspectratio>
                    <anamorphic>FALSE</anamorphic>
                    <file id="file-196">
                      <name>Scene - LJ visemes.194.png</name>
                      <pathurl>file://localhost/Users/bot/Documents/CREATE/Character Animator/LJ visemes CH2AE/demo/Scene - LJ visemes/Scene - LJ visemes.194.png</pathurl>
                      <rate>
                        <timebase>24</timebase>
                        <ntsc>FALSE</ntsc>
                      </rate>
                      <duration>672</duration>
                      <timecode>
                        <rate>
                          <timebase>24</timebase>
                          <ntsc>FALSE</ntsc>
                        </rate>
                      </timecode>
                      <media>
                        <video>
                          <duration>1</duration>
                          <samplecharacteristics>
                            <anamorphic>FALSE</anamorphic>
                            <pixelaspectratio>square</pixelaspectratio>
                            <fielddominance>none</fielddominance>
                            <width>1920</width>
                            <height>1080</height>
                          </samplecharacteristics>
                        </video>
                      </media>
                    </file>
                  </clipitem>
                </track>
              </video>
            </media>
          </clip>
          <clip explodedTracks="true" frameBlend="FALSE" id="masterclip-197">
            <uuid>b345175f-01d2-4665-b434-6707ef43b70e</uuid>
            <masterclipid>masterclip-197</masterclipid>
            <ismasterclip>TRUE</ismasterclip>
            <duration>672</duration>
            <in>0</in>
            <out>672</out>
            <name>Scene - LJ visemes.195.png</name>
            <rate>
              <timebase>24</timebase>
              <ntsc>FALSE</ntsc>
            </rate>
            <media>
              <video>
                <track>
                  <clipitem frameBlend="FALSE" id="clipitem-198">
                    <name>Scene - LJ visemes.195.png</name>
                    <masterclipid>masterclip-197</masterclipid>
                    <rate>
                      <timebase>24</timebase>
                      <ntsc>FALSE</ntsc>
                    </rate>
                    <alphatype>straight</alphatype>
                    <pixelaspectratio>square</pixelaspectratio>
                    <anamorphic>FALSE</anamorphic>
                    <file id="file-197">
                      <name>Scene - LJ visemes.195.png</name>
                      <pathurl>file://localhost/Users/bot/Documents/CREATE/Character Animator/LJ visemes CH2AE/demo/Scene - LJ visemes/Scene - LJ visemes.195.png</pathurl>
                      <rate>
                        <timebase>24</timebase>
                        <ntsc>FALSE</ntsc>
                      </rate>
                      <duration>672</duration>
                      <timecode>
                        <rate>
                          <timebase>24</timebase>
                          <ntsc>FALSE</ntsc>
                        </rate>
                      </timecode>
                      <media>
                        <video>
                          <duration>1</duration>
                          <samplecharacteristics>
                            <anamorphic>FALSE</anamorphic>
                            <pixelaspectratio>square</pixelaspectratio>
                            <fielddominance>none</fielddominance>
                            <width>1920</width>
                            <height>1080</height>
                          </samplecharacteristics>
                        </video>
                      </media>
                    </file>
                  </clipitem>
                </track>
              </video>
            </media>
          </clip>
          <clip explodedTracks="true" frameBlend="FALSE" id="masterclip-198">
            <uuid>e21aa595-832b-4c5c-b203-e71e7ce6599e</uuid>
            <masterclipid>masterclip-198</masterclipid>
            <ismasterclip>TRUE</ismasterclip>
            <duration>672</duration>
            <in>0</in>
            <out>672</out>
            <name>Scene - LJ visemes.196.png</name>
            <rate>
              <timebase>24</timebase>
              <ntsc>FALSE</ntsc>
            </rate>
            <media>
              <video>
                <track>
                  <clipitem frameBlend="FALSE" id="clipitem-199">
                    <name>Scene - LJ visemes.196.png</name>
                    <masterclipid>masterclip-198</masterclipid>
                    <rate>
                      <timebase>24</timebase>
                      <ntsc>FALSE</ntsc>
                    </rate>
                    <alphatype>straight</alphatype>
                    <pixelaspectratio>square</pixelaspectratio>
                    <anamorphic>FALSE</anamorphic>
                    <file id="file-198">
                      <name>Scene - LJ visemes.196.png</name>
                      <pathurl>file://localhost/Users/bot/Documents/CREATE/Character Animator/LJ visemes CH2AE/demo/Scene - LJ visemes/Scene - LJ visemes.196.png</pathurl>
                      <rate>
                        <timebase>24</timebase>
                        <ntsc>FALSE</ntsc>
                      </rate>
                      <duration>672</duration>
                      <timecode>
                        <rate>
                          <timebase>24</timebase>
                          <ntsc>FALSE</ntsc>
                        </rate>
                      </timecode>
                      <media>
                        <video>
                          <duration>1</duration>
                          <samplecharacteristics>
                            <anamorphic>FALSE</anamorphic>
                            <pixelaspectratio>square</pixelaspectratio>
                            <fielddominance>none</fielddominance>
                            <width>1920</width>
                            <height>1080</height>
                          </samplecharacteristics>
                        </video>
                      </media>
                    </file>
                  </clipitem>
                </track>
              </video>
            </media>
          </clip>
          <clip explodedTracks="true" frameBlend="FALSE" id="masterclip-199">
            <uuid>62c60df2-5fbd-4f72-8b41-f1ab862a955a</uuid>
            <masterclipid>masterclip-199</masterclipid>
            <ismasterclip>TRUE</ismasterclip>
            <duration>672</duration>
            <in>0</in>
            <out>672</out>
            <name>Scene - LJ visemes.197.png</name>
            <rate>
              <timebase>24</timebase>
              <ntsc>FALSE</ntsc>
            </rate>
            <media>
              <video>
                <track>
                  <clipitem frameBlend="FALSE" id="clipitem-200">
                    <name>Scene - LJ visemes.197.png</name>
                    <masterclipid>masterclip-199</masterclipid>
                    <rate>
                      <timebase>24</timebase>
                      <ntsc>FALSE</ntsc>
                    </rate>
                    <alphatype>straight</alphatype>
                    <pixelaspectratio>square</pixelaspectratio>
                    <anamorphic>FALSE</anamorphic>
                    <file id="file-199">
                      <name>Scene - LJ visemes.197.png</name>
                      <pathurl>file://localhost/Users/bot/Documents/CREATE/Character Animator/LJ visemes CH2AE/demo/Scene - LJ visemes/Scene - LJ visemes.197.png</pathurl>
                      <rate>
                        <timebase>24</timebase>
                        <ntsc>FALSE</ntsc>
                      </rate>
                      <duration>672</duration>
                      <timecode>
                        <rate>
                          <timebase>24</timebase>
                          <ntsc>FALSE</ntsc>
                        </rate>
                      </timecode>
                      <media>
                        <video>
                          <duration>1</duration>
                          <samplecharacteristics>
                            <anamorphic>FALSE</anamorphic>
                            <pixelaspectratio>square</pixelaspectratio>
                            <fielddominance>none</fielddominance>
                            <width>1920</width>
                            <height>1080</height>
                          </samplecharacteristics>
                        </video>
                      </media>
                    </file>
                  </clipitem>
                </track>
              </video>
            </media>
          </clip>
          <clip explodedTracks="true" frameBlend="FALSE" id="masterclip-200">
            <uuid>10706d02-8696-460a-9707-dfdcc6586db6</uuid>
            <masterclipid>masterclip-200</masterclipid>
            <ismasterclip>TRUE</ismasterclip>
            <duration>672</duration>
            <in>0</in>
            <out>672</out>
            <name>Scene - LJ visemes.198.png</name>
            <rate>
              <timebase>24</timebase>
              <ntsc>FALSE</ntsc>
            </rate>
            <media>
              <video>
                <track>
                  <clipitem frameBlend="FALSE" id="clipitem-201">
                    <name>Scene - LJ visemes.198.png</name>
                    <masterclipid>masterclip-200</masterclipid>
                    <rate>
                      <timebase>24</timebase>
                      <ntsc>FALSE</ntsc>
                    </rate>
                    <alphatype>straight</alphatype>
                    <pixelaspectratio>square</pixelaspectratio>
                    <anamorphic>FALSE</anamorphic>
                    <file id="file-200">
                      <name>Scene - LJ visemes.198.png</name>
                      <pathurl>file://localhost/Users/bot/Documents/CREATE/Character Animator/LJ visemes CH2AE/demo/Scene - LJ visemes/Scene - LJ visemes.198.png</pathurl>
                      <rate>
                        <timebase>24</timebase>
                        <ntsc>FALSE</ntsc>
                      </rate>
                      <duration>672</duration>
                      <timecode>
                        <rate>
                          <timebase>24</timebase>
                          <ntsc>FALSE</ntsc>
                        </rate>
                      </timecode>
                      <media>
                        <video>
                          <duration>1</duration>
                          <samplecharacteristics>
                            <anamorphic>FALSE</anamorphic>
                            <pixelaspectratio>square</pixelaspectratio>
                            <fielddominance>none</fielddominance>
                            <width>1920</width>
                            <height>1080</height>
                          </samplecharacteristics>
                        </video>
                      </media>
                    </file>
                  </clipitem>
                </track>
              </video>
            </media>
          </clip>
          <clip explodedTracks="true" frameBlend="FALSE" id="masterclip-201">
            <uuid>d9dfab48-757d-4622-8076-5d9e9b33aa24</uuid>
            <masterclipid>masterclip-201</masterclipid>
            <ismasterclip>TRUE</ismasterclip>
            <duration>672</duration>
            <in>0</in>
            <out>672</out>
            <name>Scene - LJ visemes.199.png</name>
            <rate>
              <timebase>24</timebase>
              <ntsc>FALSE</ntsc>
            </rate>
            <media>
              <video>
                <track>
                  <clipitem frameBlend="FALSE" id="clipitem-202">
                    <name>Scene - LJ visemes.199.png</name>
                    <masterclipid>masterclip-201</masterclipid>
                    <rate>
                      <timebase>24</timebase>
                      <ntsc>FALSE</ntsc>
                    </rate>
                    <alphatype>straight</alphatype>
                    <pixelaspectratio>square</pixelaspectratio>
                    <anamorphic>FALSE</anamorphic>
                    <file id="file-201">
                      <name>Scene - LJ visemes.199.png</name>
                      <pathurl>file://localhost/Users/bot/Documents/CREATE/Character Animator/LJ visemes CH2AE/demo/Scene - LJ visemes/Scene - LJ visemes.199.png</pathurl>
                      <rate>
                        <timebase>24</timebase>
                        <ntsc>FALSE</ntsc>
                      </rate>
                      <duration>672</duration>
                      <timecode>
                        <rate>
                          <timebase>24</timebase>
                          <ntsc>FALSE</ntsc>
                        </rate>
                      </timecode>
                      <media>
                        <video>
                          <duration>1</duration>
                          <samplecharacteristics>
                            <anamorphic>FALSE</anamorphic>
                            <pixelaspectratio>square</pixelaspectratio>
                            <fielddominance>none</fielddominance>
                            <width>1920</width>
                            <height>1080</height>
                          </samplecharacteristics>
                        </video>
                      </media>
                    </file>
                  </clipitem>
                </track>
              </video>
            </media>
          </clip>
          <clip explodedTracks="true" frameBlend="FALSE" id="masterclip-202">
            <uuid>0312b113-3192-47a4-9411-2a502f1ce14a</uuid>
            <masterclipid>masterclip-202</masterclipid>
            <ismasterclip>TRUE</ismasterclip>
            <duration>672</duration>
            <in>0</in>
            <out>672</out>
            <name>Scene - LJ visemes.200.png</name>
            <rate>
              <timebase>24</timebase>
              <ntsc>FALSE</ntsc>
            </rate>
            <media>
              <video>
                <track>
                  <clipitem frameBlend="FALSE" id="clipitem-203">
                    <name>Scene - LJ visemes.200.png</name>
                    <masterclipid>masterclip-202</masterclipid>
                    <rate>
                      <timebase>24</timebase>
                      <ntsc>FALSE</ntsc>
                    </rate>
                    <alphatype>straight</alphatype>
                    <pixelaspectratio>square</pixelaspectratio>
                    <anamorphic>FALSE</anamorphic>
                    <file id="file-202">
                      <name>Scene - LJ visemes.200.png</name>
                      <pathurl>file://localhost/Users/bot/Documents/CREATE/Character Animator/LJ visemes CH2AE/demo/Scene - LJ visemes/Scene - LJ visemes.200.png</pathurl>
                      <rate>
                        <timebase>24</timebase>
                        <ntsc>FALSE</ntsc>
                      </rate>
                      <duration>672</duration>
                      <timecode>
                        <rate>
                          <timebase>24</timebase>
                          <ntsc>FALSE</ntsc>
                        </rate>
                      </timecode>
                      <media>
                        <video>
                          <duration>1</duration>
                          <samplecharacteristics>
                            <anamorphic>FALSE</anamorphic>
                            <pixelaspectratio>square</pixelaspectratio>
                            <fielddominance>none</fielddominance>
                            <width>1920</width>
                            <height>1080</height>
                          </samplecharacteristics>
                        </video>
                      </media>
                    </file>
                  </clipitem>
                </track>
              </video>
            </media>
          </clip>
          <clip explodedTracks="true" frameBlend="FALSE" id="masterclip-203">
            <uuid>509dab8f-ee24-4569-989f-219d4e94af81</uuid>
            <masterclipid>masterclip-203</masterclipid>
            <ismasterclip>TRUE</ismasterclip>
            <duration>672</duration>
            <in>0</in>
            <out>672</out>
            <name>Scene - LJ visemes.201.png</name>
            <rate>
              <timebase>24</timebase>
              <ntsc>FALSE</ntsc>
            </rate>
            <media>
              <video>
                <track>
                  <clipitem frameBlend="FALSE" id="clipitem-204">
                    <name>Scene - LJ visemes.201.png</name>
                    <masterclipid>masterclip-203</masterclipid>
                    <rate>
                      <timebase>24</timebase>
                      <ntsc>FALSE</ntsc>
                    </rate>
                    <alphatype>straight</alphatype>
                    <pixelaspectratio>square</pixelaspectratio>
                    <anamorphic>FALSE</anamorphic>
                    <file id="file-203">
                      <name>Scene - LJ visemes.201.png</name>
                      <pathurl>file://localhost/Users/bot/Documents/CREATE/Character Animator/LJ visemes CH2AE/demo/Scene - LJ visemes/Scene - LJ visemes.201.png</pathurl>
                      <rate>
                        <timebase>24</timebase>
                        <ntsc>FALSE</ntsc>
                      </rate>
                      <duration>672</duration>
                      <timecode>
                        <rate>
                          <timebase>24</timebase>
                          <ntsc>FALSE</ntsc>
                        </rate>
                      </timecode>
                      <media>
                        <video>
                          <duration>1</duration>
                          <samplecharacteristics>
                            <anamorphic>FALSE</anamorphic>
                            <pixelaspectratio>square</pixelaspectratio>
                            <fielddominance>none</fielddominance>
                            <width>1920</width>
                            <height>1080</height>
                          </samplecharacteristics>
                        </video>
                      </media>
                    </file>
                  </clipitem>
                </track>
              </video>
            </media>
          </clip>
          <clip explodedTracks="true" frameBlend="FALSE" id="masterclip-204">
            <uuid>d18ea7a2-7a80-4a80-a2cd-58efe9bc0b02</uuid>
            <masterclipid>masterclip-204</masterclipid>
            <ismasterclip>TRUE</ismasterclip>
            <duration>672</duration>
            <in>0</in>
            <out>672</out>
            <name>Scene - LJ visemes.202.png</name>
            <rate>
              <timebase>24</timebase>
              <ntsc>FALSE</ntsc>
            </rate>
            <media>
              <video>
                <track>
                  <clipitem frameBlend="FALSE" id="clipitem-205">
                    <name>Scene - LJ visemes.202.png</name>
                    <masterclipid>masterclip-204</masterclipid>
                    <rate>
                      <timebase>24</timebase>
                      <ntsc>FALSE</ntsc>
                    </rate>
                    <alphatype>straight</alphatype>
                    <pixelaspectratio>square</pixelaspectratio>
                    <anamorphic>FALSE</anamorphic>
                    <file id="file-204">
                      <name>Scene - LJ visemes.202.png</name>
                      <pathurl>file://localhost/Users/bot/Documents/CREATE/Character Animator/LJ visemes CH2AE/demo/Scene - LJ visemes/Scene - LJ visemes.202.png</pathurl>
                      <rate>
                        <timebase>24</timebase>
                        <ntsc>FALSE</ntsc>
                      </rate>
                      <duration>672</duration>
                      <timecode>
                        <rate>
                          <timebase>24</timebase>
                          <ntsc>FALSE</ntsc>
                        </rate>
                      </timecode>
                      <media>
                        <video>
                          <duration>1</duration>
                          <samplecharacteristics>
                            <anamorphic>FALSE</anamorphic>
                            <pixelaspectratio>square</pixelaspectratio>
                            <fielddominance>none</fielddominance>
                            <width>1920</width>
                            <height>1080</height>
                          </samplecharacteristics>
                        </video>
                      </media>
                    </file>
                  </clipitem>
                </track>
              </video>
            </media>
          </clip>
          <clip explodedTracks="true" frameBlend="FALSE" id="masterclip-205">
            <uuid>33bf5381-1402-409e-aa25-2df81782841d</uuid>
            <masterclipid>masterclip-205</masterclipid>
            <ismasterclip>TRUE</ismasterclip>
            <duration>672</duration>
            <in>0</in>
            <out>672</out>
            <name>Scene - LJ visemes.203.png</name>
            <rate>
              <timebase>24</timebase>
              <ntsc>FALSE</ntsc>
            </rate>
            <media>
              <video>
                <track>
                  <clipitem frameBlend="FALSE" id="clipitem-206">
                    <name>Scene - LJ visemes.203.png</name>
                    <masterclipid>masterclip-205</masterclipid>
                    <rate>
                      <timebase>24</timebase>
                      <ntsc>FALSE</ntsc>
                    </rate>
                    <alphatype>straight</alphatype>
                    <pixelaspectratio>square</pixelaspectratio>
                    <anamorphic>FALSE</anamorphic>
                    <file id="file-205">
                      <name>Scene - LJ visemes.203.png</name>
                      <pathurl>file://localhost/Users/bot/Documents/CREATE/Character Animator/LJ visemes CH2AE/demo/Scene - LJ visemes/Scene - LJ visemes.203.png</pathurl>
                      <rate>
                        <timebase>24</timebase>
                        <ntsc>FALSE</ntsc>
                      </rate>
                      <duration>672</duration>
                      <timecode>
                        <rate>
                          <timebase>24</timebase>
                          <ntsc>FALSE</ntsc>
                        </rate>
                      </timecode>
                      <media>
                        <video>
                          <duration>1</duration>
                          <samplecharacteristics>
                            <anamorphic>FALSE</anamorphic>
                            <pixelaspectratio>square</pixelaspectratio>
                            <fielddominance>none</fielddominance>
                            <width>1920</width>
                            <height>1080</height>
                          </samplecharacteristics>
                        </video>
                      </media>
                    </file>
                  </clipitem>
                </track>
              </video>
            </media>
          </clip>
          <clip explodedTracks="true" frameBlend="FALSE" id="masterclip-206">
            <uuid>39603613-a362-475d-8e5e-fa47591a7655</uuid>
            <masterclipid>masterclip-206</masterclipid>
            <ismasterclip>TRUE</ismasterclip>
            <duration>672</duration>
            <in>0</in>
            <out>672</out>
            <name>Scene - LJ visemes.204.png</name>
            <rate>
              <timebase>24</timebase>
              <ntsc>FALSE</ntsc>
            </rate>
            <media>
              <video>
                <track>
                  <clipitem frameBlend="FALSE" id="clipitem-207">
                    <name>Scene - LJ visemes.204.png</name>
                    <masterclipid>masterclip-206</masterclipid>
                    <rate>
                      <timebase>24</timebase>
                      <ntsc>FALSE</ntsc>
                    </rate>
                    <alphatype>straight</alphatype>
                    <pixelaspectratio>square</pixelaspectratio>
                    <anamorphic>FALSE</anamorphic>
                    <file id="file-206">
                      <name>Scene - LJ visemes.204.png</name>
                      <pathurl>file://localhost/Users/bot/Documents/CREATE/Character Animator/LJ visemes CH2AE/demo/Scene - LJ visemes/Scene - LJ visemes.204.png</pathurl>
                      <rate>
                        <timebase>24</timebase>
                        <ntsc>FALSE</ntsc>
                      </rate>
                      <duration>672</duration>
                      <timecode>
                        <rate>
                          <timebase>24</timebase>
                          <ntsc>FALSE</ntsc>
                        </rate>
                      </timecode>
                      <media>
                        <video>
                          <duration>1</duration>
                          <samplecharacteristics>
                            <anamorphic>FALSE</anamorphic>
                            <pixelaspectratio>square</pixelaspectratio>
                            <fielddominance>none</fielddominance>
                            <width>1920</width>
                            <height>1080</height>
                          </samplecharacteristics>
                        </video>
                      </media>
                    </file>
                  </clipitem>
                </track>
              </video>
            </media>
          </clip>
          <clip explodedTracks="true" frameBlend="FALSE" id="masterclip-207">
            <uuid>5c107ee4-bb04-458e-865e-6bf686733553</uuid>
            <masterclipid>masterclip-207</masterclipid>
            <ismasterclip>TRUE</ismasterclip>
            <duration>672</duration>
            <in>0</in>
            <out>672</out>
            <name>Scene - LJ visemes.205.png</name>
            <rate>
              <timebase>24</timebase>
              <ntsc>FALSE</ntsc>
            </rate>
            <media>
              <video>
                <track>
                  <clipitem frameBlend="FALSE" id="clipitem-208">
                    <name>Scene - LJ visemes.205.png</name>
                    <masterclipid>masterclip-207</masterclipid>
                    <rate>
                      <timebase>24</timebase>
                      <ntsc>FALSE</ntsc>
                    </rate>
                    <alphatype>straight</alphatype>
                    <pixelaspectratio>square</pixelaspectratio>
                    <anamorphic>FALSE</anamorphic>
                    <file id="file-207">
                      <name>Scene - LJ visemes.205.png</name>
                      <pathurl>file://localhost/Users/bot/Documents/CREATE/Character Animator/LJ visemes CH2AE/demo/Scene - LJ visemes/Scene - LJ visemes.205.png</pathurl>
                      <rate>
                        <timebase>24</timebase>
                        <ntsc>FALSE</ntsc>
                      </rate>
                      <duration>672</duration>
                      <timecode>
                        <rate>
                          <timebase>24</timebase>
                          <ntsc>FALSE</ntsc>
                        </rate>
                      </timecode>
                      <media>
                        <video>
                          <duration>1</duration>
                          <samplecharacteristics>
                            <anamorphic>FALSE</anamorphic>
                            <pixelaspectratio>square</pixelaspectratio>
                            <fielddominance>none</fielddominance>
                            <width>1920</width>
                            <height>1080</height>
                          </samplecharacteristics>
                        </video>
                      </media>
                    </file>
                  </clipitem>
                </track>
              </video>
            </media>
          </clip>
          <clip explodedTracks="true" frameBlend="FALSE" id="masterclip-208">
            <uuid>fca2b5cb-6a78-4436-99a5-ad926b6e9df1</uuid>
            <masterclipid>masterclip-208</masterclipid>
            <ismasterclip>TRUE</ismasterclip>
            <duration>672</duration>
            <in>0</in>
            <out>672</out>
            <name>Scene - LJ visemes.206.png</name>
            <rate>
              <timebase>24</timebase>
              <ntsc>FALSE</ntsc>
            </rate>
            <media>
              <video>
                <track>
                  <clipitem frameBlend="FALSE" id="clipitem-209">
                    <name>Scene - LJ visemes.206.png</name>
                    <masterclipid>masterclip-208</masterclipid>
                    <rate>
                      <timebase>24</timebase>
                      <ntsc>FALSE</ntsc>
                    </rate>
                    <alphatype>straight</alphatype>
                    <pixelaspectratio>square</pixelaspectratio>
                    <anamorphic>FALSE</anamorphic>
                    <file id="file-208">
                      <name>Scene - LJ visemes.206.png</name>
                      <pathurl>file://localhost/Users/bot/Documents/CREATE/Character Animator/LJ visemes CH2AE/demo/Scene - LJ visemes/Scene - LJ visemes.206.png</pathurl>
                      <rate>
                        <timebase>24</timebase>
                        <ntsc>FALSE</ntsc>
                      </rate>
                      <duration>672</duration>
                      <timecode>
                        <rate>
                          <timebase>24</timebase>
                          <ntsc>FALSE</ntsc>
                        </rate>
                      </timecode>
                      <media>
                        <video>
                          <duration>1</duration>
                          <samplecharacteristics>
                            <anamorphic>FALSE</anamorphic>
                            <pixelaspectratio>square</pixelaspectratio>
                            <fielddominance>none</fielddominance>
                            <width>1920</width>
                            <height>1080</height>
                          </samplecharacteristics>
                        </video>
                      </media>
                    </file>
                  </clipitem>
                </track>
              </video>
            </media>
          </clip>
          <clip explodedTracks="true" frameBlend="FALSE" id="masterclip-209">
            <uuid>303ac079-7d28-466d-b7b8-9f90583abfa9</uuid>
            <masterclipid>masterclip-209</masterclipid>
            <ismasterclip>TRUE</ismasterclip>
            <duration>672</duration>
            <in>0</in>
            <out>672</out>
            <name>Scene - LJ visemes.207.png</name>
            <rate>
              <timebase>24</timebase>
              <ntsc>FALSE</ntsc>
            </rate>
            <media>
              <video>
                <track>
                  <clipitem frameBlend="FALSE" id="clipitem-210">
                    <name>Scene - LJ visemes.207.png</name>
                    <masterclipid>masterclip-209</masterclipid>
                    <rate>
                      <timebase>24</timebase>
                      <ntsc>FALSE</ntsc>
                    </rate>
                    <alphatype>straight</alphatype>
                    <pixelaspectratio>square</pixelaspectratio>
                    <anamorphic>FALSE</anamorphic>
                    <file id="file-209">
                      <name>Scene - LJ visemes.207.png</name>
                      <pathurl>file://localhost/Users/bot/Documents/CREATE/Character Animator/LJ visemes CH2AE/demo/Scene - LJ visemes/Scene - LJ visemes.207.png</pathurl>
                      <rate>
                        <timebase>24</timebase>
                        <ntsc>FALSE</ntsc>
                      </rate>
                      <duration>672</duration>
                      <timecode>
                        <rate>
                          <timebase>24</timebase>
                          <ntsc>FALSE</ntsc>
                        </rate>
                      </timecode>
                      <media>
                        <video>
                          <duration>1</duration>
                          <samplecharacteristics>
                            <anamorphic>FALSE</anamorphic>
                            <pixelaspectratio>square</pixelaspectratio>
                            <fielddominance>none</fielddominance>
                            <width>1920</width>
                            <height>1080</height>
                          </samplecharacteristics>
                        </video>
                      </media>
                    </file>
                  </clipitem>
                </track>
              </video>
            </media>
          </clip>
          <clip explodedTracks="true" frameBlend="FALSE" id="masterclip-210">
            <uuid>fa28d131-7a57-4c70-bc22-95c7823b9e52</uuid>
            <masterclipid>masterclip-210</masterclipid>
            <ismasterclip>TRUE</ismasterclip>
            <duration>672</duration>
            <in>0</in>
            <out>672</out>
            <name>Scene - LJ visemes.208.png</name>
            <rate>
              <timebase>24</timebase>
              <ntsc>FALSE</ntsc>
            </rate>
            <media>
              <video>
                <track>
                  <clipitem frameBlend="FALSE" id="clipitem-211">
                    <name>Scene - LJ visemes.208.png</name>
                    <masterclipid>masterclip-210</masterclipid>
                    <rate>
                      <timebase>24</timebase>
                      <ntsc>FALSE</ntsc>
                    </rate>
                    <alphatype>straight</alphatype>
                    <pixelaspectratio>square</pixelaspectratio>
                    <anamorphic>FALSE</anamorphic>
                    <file id="file-210">
                      <name>Scene - LJ visemes.208.png</name>
                      <pathurl>file://localhost/Users/bot/Documents/CREATE/Character Animator/LJ visemes CH2AE/demo/Scene - LJ visemes/Scene - LJ visemes.208.png</pathurl>
                      <rate>
                        <timebase>24</timebase>
                        <ntsc>FALSE</ntsc>
                      </rate>
                      <duration>672</duration>
                      <timecode>
                        <rate>
                          <timebase>24</timebase>
                          <ntsc>FALSE</ntsc>
                        </rate>
                      </timecode>
                      <media>
                        <video>
                          <duration>1</duration>
                          <samplecharacteristics>
                            <anamorphic>FALSE</anamorphic>
                            <pixelaspectratio>square</pixelaspectratio>
                            <fielddominance>none</fielddominance>
                            <width>1920</width>
                            <height>1080</height>
                          </samplecharacteristics>
                        </video>
                      </media>
                    </file>
                  </clipitem>
                </track>
              </video>
            </media>
          </clip>
          <clip explodedTracks="true" frameBlend="FALSE" id="masterclip-211">
            <uuid>f2a7394a-6fae-4247-9607-9449ee955eb0</uuid>
            <masterclipid>masterclip-211</masterclipid>
            <ismasterclip>TRUE</ismasterclip>
            <duration>672</duration>
            <in>0</in>
            <out>672</out>
            <name>Scene - LJ visemes.209.png</name>
            <rate>
              <timebase>24</timebase>
              <ntsc>FALSE</ntsc>
            </rate>
            <media>
              <video>
                <track>
                  <clipitem frameBlend="FALSE" id="clipitem-212">
                    <name>Scene - LJ visemes.209.png</name>
                    <masterclipid>masterclip-211</masterclipid>
                    <rate>
                      <timebase>24</timebase>
                      <ntsc>FALSE</ntsc>
                    </rate>
                    <alphatype>straight</alphatype>
                    <pixelaspectratio>square</pixelaspectratio>
                    <anamorphic>FALSE</anamorphic>
                    <file id="file-211">
                      <name>Scene - LJ visemes.209.png</name>
                      <pathurl>file://localhost/Users/bot/Documents/CREATE/Character Animator/LJ visemes CH2AE/demo/Scene - LJ visemes/Scene - LJ visemes.209.png</pathurl>
                      <rate>
                        <timebase>24</timebase>
                        <ntsc>FALSE</ntsc>
                      </rate>
                      <duration>672</duration>
                      <timecode>
                        <rate>
                          <timebase>24</timebase>
                          <ntsc>FALSE</ntsc>
                        </rate>
                      </timecode>
                      <media>
                        <video>
                          <duration>1</duration>
                          <samplecharacteristics>
                            <anamorphic>FALSE</anamorphic>
                            <pixelaspectratio>square</pixelaspectratio>
                            <fielddominance>none</fielddominance>
                            <width>1920</width>
                            <height>1080</height>
                          </samplecharacteristics>
                        </video>
                      </media>
                    </file>
                  </clipitem>
                </track>
              </video>
            </media>
          </clip>
          <clip explodedTracks="true" frameBlend="FALSE" id="masterclip-212">
            <uuid>93630deb-9177-4ce0-ba73-773e234c6661</uuid>
            <masterclipid>masterclip-212</masterclipid>
            <ismasterclip>TRUE</ismasterclip>
            <duration>672</duration>
            <in>0</in>
            <out>672</out>
            <name>Scene - LJ visemes.210.png</name>
            <rate>
              <timebase>24</timebase>
              <ntsc>FALSE</ntsc>
            </rate>
            <media>
              <video>
                <track>
                  <clipitem frameBlend="FALSE" id="clipitem-213">
                    <name>Scene - LJ visemes.210.png</name>
                    <masterclipid>masterclip-212</masterclipid>
                    <rate>
                      <timebase>24</timebase>
                      <ntsc>FALSE</ntsc>
                    </rate>
                    <alphatype>straight</alphatype>
                    <pixelaspectratio>square</pixelaspectratio>
                    <anamorphic>FALSE</anamorphic>
                    <file id="file-212">
                      <name>Scene - LJ visemes.210.png</name>
                      <pathurl>file://localhost/Users/bot/Documents/CREATE/Character Animator/LJ visemes CH2AE/demo/Scene - LJ visemes/Scene - LJ visemes.210.png</pathurl>
                      <rate>
                        <timebase>24</timebase>
                        <ntsc>FALSE</ntsc>
                      </rate>
                      <duration>672</duration>
                      <timecode>
                        <rate>
                          <timebase>24</timebase>
                          <ntsc>FALSE</ntsc>
                        </rate>
                      </timecode>
                      <media>
                        <video>
                          <duration>1</duration>
                          <samplecharacteristics>
                            <anamorphic>FALSE</anamorphic>
                            <pixelaspectratio>square</pixelaspectratio>
                            <fielddominance>none</fielddominance>
                            <width>1920</width>
                            <height>1080</height>
                          </samplecharacteristics>
                        </video>
                      </media>
                    </file>
                  </clipitem>
                </track>
              </video>
            </media>
          </clip>
          <clip explodedTracks="true" frameBlend="FALSE" id="masterclip-213">
            <uuid>abb8690e-22d3-4b6c-9474-dbf31c992b7b</uuid>
            <masterclipid>masterclip-213</masterclipid>
            <ismasterclip>TRUE</ismasterclip>
            <duration>672</duration>
            <in>0</in>
            <out>672</out>
            <name>Scene - LJ visemes.211.png</name>
            <rate>
              <timebase>24</timebase>
              <ntsc>FALSE</ntsc>
            </rate>
            <media>
              <video>
                <track>
                  <clipitem frameBlend="FALSE" id="clipitem-214">
                    <name>Scene - LJ visemes.211.png</name>
                    <masterclipid>masterclip-213</masterclipid>
                    <rate>
                      <timebase>24</timebase>
                      <ntsc>FALSE</ntsc>
                    </rate>
                    <alphatype>straight</alphatype>
                    <pixelaspectratio>square</pixelaspectratio>
                    <anamorphic>FALSE</anamorphic>
                    <file id="file-213">
                      <name>Scene - LJ visemes.211.png</name>
                      <pathurl>file://localhost/Users/bot/Documents/CREATE/Character Animator/LJ visemes CH2AE/demo/Scene - LJ visemes/Scene - LJ visemes.211.png</pathurl>
                      <rate>
                        <timebase>24</timebase>
                        <ntsc>FALSE</ntsc>
                      </rate>
                      <duration>672</duration>
                      <timecode>
                        <rate>
                          <timebase>24</timebase>
                          <ntsc>FALSE</ntsc>
                        </rate>
                      </timecode>
                      <media>
                        <video>
                          <duration>1</duration>
                          <samplecharacteristics>
                            <anamorphic>FALSE</anamorphic>
                            <pixelaspectratio>square</pixelaspectratio>
                            <fielddominance>none</fielddominance>
                            <width>1920</width>
                            <height>1080</height>
                          </samplecharacteristics>
                        </video>
                      </media>
                    </file>
                  </clipitem>
                </track>
              </video>
            </media>
          </clip>
          <clip explodedTracks="true" frameBlend="FALSE" id="masterclip-214">
            <uuid>e194fe68-7ecf-4152-a943-d7f422e9fe4f</uuid>
            <masterclipid>masterclip-214</masterclipid>
            <ismasterclip>TRUE</ismasterclip>
            <duration>672</duration>
            <in>0</in>
            <out>672</out>
            <name>Scene - LJ visemes.212.png</name>
            <rate>
              <timebase>24</timebase>
              <ntsc>FALSE</ntsc>
            </rate>
            <media>
              <video>
                <track>
                  <clipitem frameBlend="FALSE" id="clipitem-215">
                    <name>Scene - LJ visemes.212.png</name>
                    <masterclipid>masterclip-214</masterclipid>
                    <rate>
                      <timebase>24</timebase>
                      <ntsc>FALSE</ntsc>
                    </rate>
                    <alphatype>straight</alphatype>
                    <pixelaspectratio>square</pixelaspectratio>
                    <anamorphic>FALSE</anamorphic>
                    <file id="file-214">
                      <name>Scene - LJ visemes.212.png</name>
                      <pathurl>file://localhost/Users/bot/Documents/CREATE/Character Animator/LJ visemes CH2AE/demo/Scene - LJ visemes/Scene - LJ visemes.212.png</pathurl>
                      <rate>
                        <timebase>24</timebase>
                        <ntsc>FALSE</ntsc>
                      </rate>
                      <duration>672</duration>
                      <timecode>
                        <rate>
                          <timebase>24</timebase>
                          <ntsc>FALSE</ntsc>
                        </rate>
                      </timecode>
                      <media>
                        <video>
                          <duration>1</duration>
                          <samplecharacteristics>
                            <anamorphic>FALSE</anamorphic>
                            <pixelaspectratio>square</pixelaspectratio>
                            <fielddominance>none</fielddominance>
                            <width>1920</width>
                            <height>1080</height>
                          </samplecharacteristics>
                        </video>
                      </media>
                    </file>
                  </clipitem>
                </track>
              </video>
            </media>
          </clip>
          <clip explodedTracks="true" frameBlend="FALSE" id="masterclip-215">
            <uuid>47e84bd2-da6d-4134-a909-8bf581fa2013</uuid>
            <masterclipid>masterclip-215</masterclipid>
            <ismasterclip>TRUE</ismasterclip>
            <duration>672</duration>
            <in>0</in>
            <out>672</out>
            <name>Scene - LJ visemes.213.png</name>
            <rate>
              <timebase>24</timebase>
              <ntsc>FALSE</ntsc>
            </rate>
            <media>
              <video>
                <track>
                  <clipitem frameBlend="FALSE" id="clipitem-216">
                    <name>Scene - LJ visemes.213.png</name>
                    <masterclipid>masterclip-215</masterclipid>
                    <rate>
                      <timebase>24</timebase>
                      <ntsc>FALSE</ntsc>
                    </rate>
                    <alphatype>straight</alphatype>
                    <pixelaspectratio>square</pixelaspectratio>
                    <anamorphic>FALSE</anamorphic>
                    <file id="file-215">
                      <name>Scene - LJ visemes.213.png</name>
                      <pathurl>file://localhost/Users/bot/Documents/CREATE/Character Animator/LJ visemes CH2AE/demo/Scene - LJ visemes/Scene - LJ visemes.213.png</pathurl>
                      <rate>
                        <timebase>24</timebase>
                        <ntsc>FALSE</ntsc>
                      </rate>
                      <duration>672</duration>
                      <timecode>
                        <rate>
                          <timebase>24</timebase>
                          <ntsc>FALSE</ntsc>
                        </rate>
                      </timecode>
                      <media>
                        <video>
                          <duration>1</duration>
                          <samplecharacteristics>
                            <anamorphic>FALSE</anamorphic>
                            <pixelaspectratio>square</pixelaspectratio>
                            <fielddominance>none</fielddominance>
                            <width>1920</width>
                            <height>1080</height>
                          </samplecharacteristics>
                        </video>
                      </media>
                    </file>
                  </clipitem>
                </track>
              </video>
            </media>
          </clip>
          <clip explodedTracks="true" frameBlend="FALSE" id="masterclip-216">
            <uuid>7cfc57fa-2f7e-4502-901b-29c7b3fefa72</uuid>
            <masterclipid>masterclip-216</masterclipid>
            <ismasterclip>TRUE</ismasterclip>
            <duration>672</duration>
            <in>0</in>
            <out>672</out>
            <name>Scene - LJ visemes.214.png</name>
            <rate>
              <timebase>24</timebase>
              <ntsc>FALSE</ntsc>
            </rate>
            <media>
              <video>
                <track>
                  <clipitem frameBlend="FALSE" id="clipitem-217">
                    <name>Scene - LJ visemes.214.png</name>
                    <masterclipid>masterclip-216</masterclipid>
                    <rate>
                      <timebase>24</timebase>
                      <ntsc>FALSE</ntsc>
                    </rate>
                    <alphatype>straight</alphatype>
                    <pixelaspectratio>square</pixelaspectratio>
                    <anamorphic>FALSE</anamorphic>
                    <file id="file-216">
                      <name>Scene - LJ visemes.214.png</name>
                      <pathurl>file://localhost/Users/bot/Documents/CREATE/Character Animator/LJ visemes CH2AE/demo/Scene - LJ visemes/Scene - LJ visemes.214.png</pathurl>
                      <rate>
                        <timebase>24</timebase>
                        <ntsc>FALSE</ntsc>
                      </rate>
                      <duration>672</duration>
                      <timecode>
                        <rate>
                          <timebase>24</timebase>
                          <ntsc>FALSE</ntsc>
                        </rate>
                      </timecode>
                      <media>
                        <video>
                          <duration>1</duration>
                          <samplecharacteristics>
                            <anamorphic>FALSE</anamorphic>
                            <pixelaspectratio>square</pixelaspectratio>
                            <fielddominance>none</fielddominance>
                            <width>1920</width>
                            <height>1080</height>
                          </samplecharacteristics>
                        </video>
                      </media>
                    </file>
                  </clipitem>
                </track>
              </video>
            </media>
          </clip>
          <clip explodedTracks="true" frameBlend="FALSE" id="masterclip-217">
            <uuid>ad5489b9-4f22-4b37-9fab-b7f6586929d0</uuid>
            <masterclipid>masterclip-217</masterclipid>
            <ismasterclip>TRUE</ismasterclip>
            <duration>672</duration>
            <in>0</in>
            <out>672</out>
            <name>Scene - LJ visemes.215.png</name>
            <rate>
              <timebase>24</timebase>
              <ntsc>FALSE</ntsc>
            </rate>
            <media>
              <video>
                <track>
                  <clipitem frameBlend="FALSE" id="clipitem-218">
                    <name>Scene - LJ visemes.215.png</name>
                    <masterclipid>masterclip-217</masterclipid>
                    <rate>
                      <timebase>24</timebase>
                      <ntsc>FALSE</ntsc>
                    </rate>
                    <alphatype>straight</alphatype>
                    <pixelaspectratio>square</pixelaspectratio>
                    <anamorphic>FALSE</anamorphic>
                    <file id="file-217">
                      <name>Scene - LJ visemes.215.png</name>
                      <pathurl>file://localhost/Users/bot/Documents/CREATE/Character Animator/LJ visemes CH2AE/demo/Scene - LJ visemes/Scene - LJ visemes.215.png</pathurl>
                      <rate>
                        <timebase>24</timebase>
                        <ntsc>FALSE</ntsc>
                      </rate>
                      <duration>672</duration>
                      <timecode>
                        <rate>
                          <timebase>24</timebase>
                          <ntsc>FALSE</ntsc>
                        </rate>
                      </timecode>
                      <media>
                        <video>
                          <duration>1</duration>
                          <samplecharacteristics>
                            <anamorphic>FALSE</anamorphic>
                            <pixelaspectratio>square</pixelaspectratio>
                            <fielddominance>none</fielddominance>
                            <width>1920</width>
                            <height>1080</height>
                          </samplecharacteristics>
                        </video>
                      </media>
                    </file>
                  </clipitem>
                </track>
              </video>
            </media>
          </clip>
          <clip explodedTracks="true" frameBlend="FALSE" id="masterclip-218">
            <uuid>5d5eaddd-1af5-4f3a-ac2d-3919e151b149</uuid>
            <masterclipid>masterclip-218</masterclipid>
            <ismasterclip>TRUE</ismasterclip>
            <duration>672</duration>
            <in>0</in>
            <out>672</out>
            <name>Scene - LJ visemes.216.png</name>
            <rate>
              <timebase>24</timebase>
              <ntsc>FALSE</ntsc>
            </rate>
            <media>
              <video>
                <track>
                  <clipitem frameBlend="FALSE" id="clipitem-219">
                    <name>Scene - LJ visemes.216.png</name>
                    <masterclipid>masterclip-218</masterclipid>
                    <rate>
                      <timebase>24</timebase>
                      <ntsc>FALSE</ntsc>
                    </rate>
                    <alphatype>straight</alphatype>
                    <pixelaspectratio>square</pixelaspectratio>
                    <anamorphic>FALSE</anamorphic>
                    <file id="file-218">
                      <name>Scene - LJ visemes.216.png</name>
                      <pathurl>file://localhost/Users/bot/Documents/CREATE/Character Animator/LJ visemes CH2AE/demo/Scene - LJ visemes/Scene - LJ visemes.216.png</pathurl>
                      <rate>
                        <timebase>24</timebase>
                        <ntsc>FALSE</ntsc>
                      </rate>
                      <duration>672</duration>
                      <timecode>
                        <rate>
                          <timebase>24</timebase>
                          <ntsc>FALSE</ntsc>
                        </rate>
                      </timecode>
                      <media>
                        <video>
                          <duration>1</duration>
                          <samplecharacteristics>
                            <anamorphic>FALSE</anamorphic>
                            <pixelaspectratio>square</pixelaspectratio>
                            <fielddominance>none</fielddominance>
                            <width>1920</width>
                            <height>1080</height>
                          </samplecharacteristics>
                        </video>
                      </media>
                    </file>
                  </clipitem>
                </track>
              </video>
            </media>
          </clip>
          <clip explodedTracks="true" frameBlend="FALSE" id="masterclip-219">
            <uuid>a0ce08e1-43e5-48fc-bf9d-8232552f87e8</uuid>
            <masterclipid>masterclip-219</masterclipid>
            <ismasterclip>TRUE</ismasterclip>
            <duration>672</duration>
            <in>0</in>
            <out>672</out>
            <name>Scene - LJ visemes.217.png</name>
            <rate>
              <timebase>24</timebase>
              <ntsc>FALSE</ntsc>
            </rate>
            <media>
              <video>
                <track>
                  <clipitem frameBlend="FALSE" id="clipitem-220">
                    <name>Scene - LJ visemes.217.png</name>
                    <masterclipid>masterclip-219</masterclipid>
                    <rate>
                      <timebase>24</timebase>
                      <ntsc>FALSE</ntsc>
                    </rate>
                    <alphatype>straight</alphatype>
                    <pixelaspectratio>square</pixelaspectratio>
                    <anamorphic>FALSE</anamorphic>
                    <file id="file-219">
                      <name>Scene - LJ visemes.217.png</name>
                      <pathurl>file://localhost/Users/bot/Documents/CREATE/Character Animator/LJ visemes CH2AE/demo/Scene - LJ visemes/Scene - LJ visemes.217.png</pathurl>
                      <rate>
                        <timebase>24</timebase>
                        <ntsc>FALSE</ntsc>
                      </rate>
                      <duration>672</duration>
                      <timecode>
                        <rate>
                          <timebase>24</timebase>
                          <ntsc>FALSE</ntsc>
                        </rate>
                      </timecode>
                      <media>
                        <video>
                          <duration>1</duration>
                          <samplecharacteristics>
                            <anamorphic>FALSE</anamorphic>
                            <pixelaspectratio>square</pixelaspectratio>
                            <fielddominance>none</fielddominance>
                            <width>1920</width>
                            <height>1080</height>
                          </samplecharacteristics>
                        </video>
                      </media>
                    </file>
                  </clipitem>
                </track>
              </video>
            </media>
          </clip>
          <clip explodedTracks="true" frameBlend="FALSE" id="masterclip-220">
            <uuid>80699487-1876-4b7c-b205-afce404b6c85</uuid>
            <masterclipid>masterclip-220</masterclipid>
            <ismasterclip>TRUE</ismasterclip>
            <duration>672</duration>
            <in>0</in>
            <out>672</out>
            <name>Scene - LJ visemes.218.png</name>
            <rate>
              <timebase>24</timebase>
              <ntsc>FALSE</ntsc>
            </rate>
            <media>
              <video>
                <track>
                  <clipitem frameBlend="FALSE" id="clipitem-221">
                    <name>Scene - LJ visemes.218.png</name>
                    <masterclipid>masterclip-220</masterclipid>
                    <rate>
                      <timebase>24</timebase>
                      <ntsc>FALSE</ntsc>
                    </rate>
                    <alphatype>straight</alphatype>
                    <pixelaspectratio>square</pixelaspectratio>
                    <anamorphic>FALSE</anamorphic>
                    <file id="file-220">
                      <name>Scene - LJ visemes.218.png</name>
                      <pathurl>file://localhost/Users/bot/Documents/CREATE/Character Animator/LJ visemes CH2AE/demo/Scene - LJ visemes/Scene - LJ visemes.218.png</pathurl>
                      <rate>
                        <timebase>24</timebase>
                        <ntsc>FALSE</ntsc>
                      </rate>
                      <duration>672</duration>
                      <timecode>
                        <rate>
                          <timebase>24</timebase>
                          <ntsc>FALSE</ntsc>
                        </rate>
                      </timecode>
                      <media>
                        <video>
                          <duration>1</duration>
                          <samplecharacteristics>
                            <anamorphic>FALSE</anamorphic>
                            <pixelaspectratio>square</pixelaspectratio>
                            <fielddominance>none</fielddominance>
                            <width>1920</width>
                            <height>1080</height>
                          </samplecharacteristics>
                        </video>
                      </media>
                    </file>
                  </clipitem>
                </track>
              </video>
            </media>
          </clip>
          <clip explodedTracks="true" frameBlend="FALSE" id="masterclip-221">
            <uuid>dee8c3ad-db3d-4711-a3cf-f17598c6c4f5</uuid>
            <masterclipid>masterclip-221</masterclipid>
            <ismasterclip>TRUE</ismasterclip>
            <duration>672</duration>
            <in>0</in>
            <out>672</out>
            <name>Scene - LJ visemes.219.png</name>
            <rate>
              <timebase>24</timebase>
              <ntsc>FALSE</ntsc>
            </rate>
            <media>
              <video>
                <track>
                  <clipitem frameBlend="FALSE" id="clipitem-222">
                    <name>Scene - LJ visemes.219.png</name>
                    <masterclipid>masterclip-221</masterclipid>
                    <rate>
                      <timebase>24</timebase>
                      <ntsc>FALSE</ntsc>
                    </rate>
                    <alphatype>straight</alphatype>
                    <pixelaspectratio>square</pixelaspectratio>
                    <anamorphic>FALSE</anamorphic>
                    <file id="file-221">
                      <name>Scene - LJ visemes.219.png</name>
                      <pathurl>file://localhost/Users/bot/Documents/CREATE/Character Animator/LJ visemes CH2AE/demo/Scene - LJ visemes/Scene - LJ visemes.219.png</pathurl>
                      <rate>
                        <timebase>24</timebase>
                        <ntsc>FALSE</ntsc>
                      </rate>
                      <duration>672</duration>
                      <timecode>
                        <rate>
                          <timebase>24</timebase>
                          <ntsc>FALSE</ntsc>
                        </rate>
                      </timecode>
                      <media>
                        <video>
                          <duration>1</duration>
                          <samplecharacteristics>
                            <anamorphic>FALSE</anamorphic>
                            <pixelaspectratio>square</pixelaspectratio>
                            <fielddominance>none</fielddominance>
                            <width>1920</width>
                            <height>1080</height>
                          </samplecharacteristics>
                        </video>
                      </media>
                    </file>
                  </clipitem>
                </track>
              </video>
            </media>
          </clip>
          <clip explodedTracks="true" frameBlend="FALSE" id="masterclip-222">
            <uuid>ce2f29a1-3462-4c95-bd3f-c3058556a35d</uuid>
            <masterclipid>masterclip-222</masterclipid>
            <ismasterclip>TRUE</ismasterclip>
            <duration>672</duration>
            <in>0</in>
            <out>672</out>
            <name>Scene - LJ visemes.220.png</name>
            <rate>
              <timebase>24</timebase>
              <ntsc>FALSE</ntsc>
            </rate>
            <media>
              <video>
                <track>
                  <clipitem frameBlend="FALSE" id="clipitem-223">
                    <name>Scene - LJ visemes.220.png</name>
                    <masterclipid>masterclip-222</masterclipid>
                    <rate>
                      <timebase>24</timebase>
                      <ntsc>FALSE</ntsc>
                    </rate>
                    <alphatype>straight</alphatype>
                    <pixelaspectratio>square</pixelaspectratio>
                    <anamorphic>FALSE</anamorphic>
                    <file id="file-222">
                      <name>Scene - LJ visemes.220.png</name>
                      <pathurl>file://localhost/Users/bot/Documents/CREATE/Character Animator/LJ visemes CH2AE/demo/Scene - LJ visemes/Scene - LJ visemes.220.png</pathurl>
                      <rate>
                        <timebase>24</timebase>
                        <ntsc>FALSE</ntsc>
                      </rate>
                      <duration>672</duration>
                      <timecode>
                        <rate>
                          <timebase>24</timebase>
                          <ntsc>FALSE</ntsc>
                        </rate>
                      </timecode>
                      <media>
                        <video>
                          <duration>1</duration>
                          <samplecharacteristics>
                            <anamorphic>FALSE</anamorphic>
                            <pixelaspectratio>square</pixelaspectratio>
                            <fielddominance>none</fielddominance>
                            <width>1920</width>
                            <height>1080</height>
                          </samplecharacteristics>
                        </video>
                      </media>
                    </file>
                  </clipitem>
                </track>
              </video>
            </media>
          </clip>
          <clip explodedTracks="true" frameBlend="FALSE" id="masterclip-223">
            <uuid>3183485f-493e-40b0-a348-3462f336daeb</uuid>
            <masterclipid>masterclip-223</masterclipid>
            <ismasterclip>TRUE</ismasterclip>
            <duration>672</duration>
            <in>0</in>
            <out>672</out>
            <name>Scene - LJ visemes.221.png</name>
            <rate>
              <timebase>24</timebase>
              <ntsc>FALSE</ntsc>
            </rate>
            <media>
              <video>
                <track>
                  <clipitem frameBlend="FALSE" id="clipitem-224">
                    <name>Scene - LJ visemes.221.png</name>
                    <masterclipid>masterclip-223</masterclipid>
                    <rate>
                      <timebase>24</timebase>
                      <ntsc>FALSE</ntsc>
                    </rate>
                    <alphatype>straight</alphatype>
                    <pixelaspectratio>square</pixelaspectratio>
                    <anamorphic>FALSE</anamorphic>
                    <file id="file-223">
                      <name>Scene - LJ visemes.221.png</name>
                      <pathurl>file://localhost/Users/bot/Documents/CREATE/Character Animator/LJ visemes CH2AE/demo/Scene - LJ visemes/Scene - LJ visemes.221.png</pathurl>
                      <rate>
                        <timebase>24</timebase>
                        <ntsc>FALSE</ntsc>
                      </rate>
                      <duration>672</duration>
                      <timecode>
                        <rate>
                          <timebase>24</timebase>
                          <ntsc>FALSE</ntsc>
                        </rate>
                      </timecode>
                      <media>
                        <video>
                          <duration>1</duration>
                          <samplecharacteristics>
                            <anamorphic>FALSE</anamorphic>
                            <pixelaspectratio>square</pixelaspectratio>
                            <fielddominance>none</fielddominance>
                            <width>1920</width>
                            <height>1080</height>
                          </samplecharacteristics>
                        </video>
                      </media>
                    </file>
                  </clipitem>
                </track>
              </video>
            </media>
          </clip>
          <clip explodedTracks="true" frameBlend="FALSE" id="masterclip-224">
            <uuid>63fe8cab-6431-4039-b33f-1538cbeb2b8f</uuid>
            <masterclipid>masterclip-224</masterclipid>
            <ismasterclip>TRUE</ismasterclip>
            <duration>672</duration>
            <in>0</in>
            <out>672</out>
            <name>Scene - LJ visemes.222.png</name>
            <rate>
              <timebase>24</timebase>
              <ntsc>FALSE</ntsc>
            </rate>
            <media>
              <video>
                <track>
                  <clipitem frameBlend="FALSE" id="clipitem-225">
                    <name>Scene - LJ visemes.222.png</name>
                    <masterclipid>masterclip-224</masterclipid>
                    <rate>
                      <timebase>24</timebase>
                      <ntsc>FALSE</ntsc>
                    </rate>
                    <alphatype>straight</alphatype>
                    <pixelaspectratio>square</pixelaspectratio>
                    <anamorphic>FALSE</anamorphic>
                    <file id="file-224">
                      <name>Scene - LJ visemes.222.png</name>
                      <pathurl>file://localhost/Users/bot/Documents/CREATE/Character Animator/LJ visemes CH2AE/demo/Scene - LJ visemes/Scene - LJ visemes.222.png</pathurl>
                      <rate>
                        <timebase>24</timebase>
                        <ntsc>FALSE</ntsc>
                      </rate>
                      <duration>672</duration>
                      <timecode>
                        <rate>
                          <timebase>24</timebase>
                          <ntsc>FALSE</ntsc>
                        </rate>
                      </timecode>
                      <media>
                        <video>
                          <duration>1</duration>
                          <samplecharacteristics>
                            <anamorphic>FALSE</anamorphic>
                            <pixelaspectratio>square</pixelaspectratio>
                            <fielddominance>none</fielddominance>
                            <width>1920</width>
                            <height>1080</height>
                          </samplecharacteristics>
                        </video>
                      </media>
                    </file>
                  </clipitem>
                </track>
              </video>
            </media>
          </clip>
          <clip explodedTracks="true" frameBlend="FALSE" id="masterclip-225">
            <uuid>e29e067a-7dbd-42bc-8fd2-4a0d278a2d51</uuid>
            <masterclipid>masterclip-225</masterclipid>
            <ismasterclip>TRUE</ismasterclip>
            <duration>672</duration>
            <in>0</in>
            <out>672</out>
            <name>Scene - LJ visemes.223.png</name>
            <rate>
              <timebase>24</timebase>
              <ntsc>FALSE</ntsc>
            </rate>
            <media>
              <video>
                <track>
                  <clipitem frameBlend="FALSE" id="clipitem-226">
                    <name>Scene - LJ visemes.223.png</name>
                    <masterclipid>masterclip-225</masterclipid>
                    <rate>
                      <timebase>24</timebase>
                      <ntsc>FALSE</ntsc>
                    </rate>
                    <alphatype>straight</alphatype>
                    <pixelaspectratio>square</pixelaspectratio>
                    <anamorphic>FALSE</anamorphic>
                    <file id="file-225">
                      <name>Scene - LJ visemes.223.png</name>
                      <pathurl>file://localhost/Users/bot/Documents/CREATE/Character Animator/LJ visemes CH2AE/demo/Scene - LJ visemes/Scene - LJ visemes.223.png</pathurl>
                      <rate>
                        <timebase>24</timebase>
                        <ntsc>FALSE</ntsc>
                      </rate>
                      <duration>672</duration>
                      <timecode>
                        <rate>
                          <timebase>24</timebase>
                          <ntsc>FALSE</ntsc>
                        </rate>
                      </timecode>
                      <media>
                        <video>
                          <duration>1</duration>
                          <samplecharacteristics>
                            <anamorphic>FALSE</anamorphic>
                            <pixelaspectratio>square</pixelaspectratio>
                            <fielddominance>none</fielddominance>
                            <width>1920</width>
                            <height>1080</height>
                          </samplecharacteristics>
                        </video>
                      </media>
                    </file>
                  </clipitem>
                </track>
              </video>
            </media>
          </clip>
          <clip explodedTracks="true" frameBlend="FALSE" id="masterclip-226">
            <uuid>dfabe95d-7136-480b-8b78-942b1ee7055d</uuid>
            <masterclipid>masterclip-226</masterclipid>
            <ismasterclip>TRUE</ismasterclip>
            <duration>672</duration>
            <in>0</in>
            <out>672</out>
            <name>Scene - LJ visemes.224.png</name>
            <rate>
              <timebase>24</timebase>
              <ntsc>FALSE</ntsc>
            </rate>
            <media>
              <video>
                <track>
                  <clipitem frameBlend="FALSE" id="clipitem-227">
                    <name>Scene - LJ visemes.224.png</name>
                    <masterclipid>masterclip-226</masterclipid>
                    <rate>
                      <timebase>24</timebase>
                      <ntsc>FALSE</ntsc>
                    </rate>
                    <alphatype>straight</alphatype>
                    <pixelaspectratio>square</pixelaspectratio>
                    <anamorphic>FALSE</anamorphic>
                    <file id="file-226">
                      <name>Scene - LJ visemes.224.png</name>
                      <pathurl>file://localhost/Users/bot/Documents/CREATE/Character Animator/LJ visemes CH2AE/demo/Scene - LJ visemes/Scene - LJ visemes.224.png</pathurl>
                      <rate>
                        <timebase>24</timebase>
                        <ntsc>FALSE</ntsc>
                      </rate>
                      <duration>672</duration>
                      <timecode>
                        <rate>
                          <timebase>24</timebase>
                          <ntsc>FALSE</ntsc>
                        </rate>
                      </timecode>
                      <media>
                        <video>
                          <duration>1</duration>
                          <samplecharacteristics>
                            <anamorphic>FALSE</anamorphic>
                            <pixelaspectratio>square</pixelaspectratio>
                            <fielddominance>none</fielddominance>
                            <width>1920</width>
                            <height>1080</height>
                          </samplecharacteristics>
                        </video>
                      </media>
                    </file>
                  </clipitem>
                </track>
              </video>
            </media>
          </clip>
          <clip explodedTracks="true" frameBlend="FALSE" id="masterclip-227">
            <uuid>32787fa0-33c5-4ad8-b597-203861cf7e81</uuid>
            <masterclipid>masterclip-227</masterclipid>
            <ismasterclip>TRUE</ismasterclip>
            <duration>672</duration>
            <in>0</in>
            <out>672</out>
            <name>Scene - LJ visemes.225.png</name>
            <rate>
              <timebase>24</timebase>
              <ntsc>FALSE</ntsc>
            </rate>
            <media>
              <video>
                <track>
                  <clipitem frameBlend="FALSE" id="clipitem-228">
                    <name>Scene - LJ visemes.225.png</name>
                    <masterclipid>masterclip-227</masterclipid>
                    <rate>
                      <timebase>24</timebase>
                      <ntsc>FALSE</ntsc>
                    </rate>
                    <alphatype>straight</alphatype>
                    <pixelaspectratio>square</pixelaspectratio>
                    <anamorphic>FALSE</anamorphic>
                    <file id="file-227">
                      <name>Scene - LJ visemes.225.png</name>
                      <pathurl>file://localhost/Users/bot/Documents/CREATE/Character Animator/LJ visemes CH2AE/demo/Scene - LJ visemes/Scene - LJ visemes.225.png</pathurl>
                      <rate>
                        <timebase>24</timebase>
                        <ntsc>FALSE</ntsc>
                      </rate>
                      <duration>672</duration>
                      <timecode>
                        <rate>
                          <timebase>24</timebase>
                          <ntsc>FALSE</ntsc>
                        </rate>
                      </timecode>
                      <media>
                        <video>
                          <duration>1</duration>
                          <samplecharacteristics>
                            <anamorphic>FALSE</anamorphic>
                            <pixelaspectratio>square</pixelaspectratio>
                            <fielddominance>none</fielddominance>
                            <width>1920</width>
                            <height>1080</height>
                          </samplecharacteristics>
                        </video>
                      </media>
                    </file>
                  </clipitem>
                </track>
              </video>
            </media>
          </clip>
          <clip explodedTracks="true" frameBlend="FALSE" id="masterclip-228">
            <uuid>7e4fc887-b673-412c-8267-e084a031e6e2</uuid>
            <masterclipid>masterclip-228</masterclipid>
            <ismasterclip>TRUE</ismasterclip>
            <duration>672</duration>
            <in>0</in>
            <out>672</out>
            <name>Scene - LJ visemes.226.png</name>
            <rate>
              <timebase>24</timebase>
              <ntsc>FALSE</ntsc>
            </rate>
            <media>
              <video>
                <track>
                  <clipitem frameBlend="FALSE" id="clipitem-229">
                    <name>Scene - LJ visemes.226.png</name>
                    <masterclipid>masterclip-228</masterclipid>
                    <rate>
                      <timebase>24</timebase>
                      <ntsc>FALSE</ntsc>
                    </rate>
                    <alphatype>straight</alphatype>
                    <pixelaspectratio>square</pixelaspectratio>
                    <anamorphic>FALSE</anamorphic>
                    <file id="file-228">
                      <name>Scene - LJ visemes.226.png</name>
                      <pathurl>file://localhost/Users/bot/Documents/CREATE/Character Animator/LJ visemes CH2AE/demo/Scene - LJ visemes/Scene - LJ visemes.226.png</pathurl>
                      <rate>
                        <timebase>24</timebase>
                        <ntsc>FALSE</ntsc>
                      </rate>
                      <duration>672</duration>
                      <timecode>
                        <rate>
                          <timebase>24</timebase>
                          <ntsc>FALSE</ntsc>
                        </rate>
                      </timecode>
                      <media>
                        <video>
                          <duration>1</duration>
                          <samplecharacteristics>
                            <anamorphic>FALSE</anamorphic>
                            <pixelaspectratio>square</pixelaspectratio>
                            <fielddominance>none</fielddominance>
                            <width>1920</width>
                            <height>1080</height>
                          </samplecharacteristics>
                        </video>
                      </media>
                    </file>
                  </clipitem>
                </track>
              </video>
            </media>
          </clip>
          <clip explodedTracks="true" frameBlend="FALSE" id="masterclip-229">
            <uuid>913d1529-6b30-4852-8ad7-c57641e6068f</uuid>
            <masterclipid>masterclip-229</masterclipid>
            <ismasterclip>TRUE</ismasterclip>
            <duration>672</duration>
            <in>0</in>
            <out>672</out>
            <name>Scene - LJ visemes.227.png</name>
            <rate>
              <timebase>24</timebase>
              <ntsc>FALSE</ntsc>
            </rate>
            <media>
              <video>
                <track>
                  <clipitem frameBlend="FALSE" id="clipitem-230">
                    <name>Scene - LJ visemes.227.png</name>
                    <masterclipid>masterclip-229</masterclipid>
                    <rate>
                      <timebase>24</timebase>
                      <ntsc>FALSE</ntsc>
                    </rate>
                    <alphatype>straight</alphatype>
                    <pixelaspectratio>square</pixelaspectratio>
                    <anamorphic>FALSE</anamorphic>
                    <file id="file-229">
                      <name>Scene - LJ visemes.227.png</name>
                      <pathurl>file://localhost/Users/bot/Documents/CREATE/Character Animator/LJ visemes CH2AE/demo/Scene - LJ visemes/Scene - LJ visemes.227.png</pathurl>
                      <rate>
                        <timebase>24</timebase>
                        <ntsc>FALSE</ntsc>
                      </rate>
                      <duration>672</duration>
                      <timecode>
                        <rate>
                          <timebase>24</timebase>
                          <ntsc>FALSE</ntsc>
                        </rate>
                      </timecode>
                      <media>
                        <video>
                          <duration>1</duration>
                          <samplecharacteristics>
                            <anamorphic>FALSE</anamorphic>
                            <pixelaspectratio>square</pixelaspectratio>
                            <fielddominance>none</fielddominance>
                            <width>1920</width>
                            <height>1080</height>
                          </samplecharacteristics>
                        </video>
                      </media>
                    </file>
                  </clipitem>
                </track>
              </video>
            </media>
          </clip>
          <clip explodedTracks="true" frameBlend="FALSE" id="masterclip-230">
            <uuid>913368a3-0aa9-44dc-a566-08414a4bc4da</uuid>
            <masterclipid>masterclip-230</masterclipid>
            <ismasterclip>TRUE</ismasterclip>
            <duration>672</duration>
            <in>0</in>
            <out>672</out>
            <name>Scene - LJ visemes.228.png</name>
            <rate>
              <timebase>24</timebase>
              <ntsc>FALSE</ntsc>
            </rate>
            <media>
              <video>
                <track>
                  <clipitem frameBlend="FALSE" id="clipitem-231">
                    <name>Scene - LJ visemes.228.png</name>
                    <masterclipid>masterclip-230</masterclipid>
                    <rate>
                      <timebase>24</timebase>
                      <ntsc>FALSE</ntsc>
                    </rate>
                    <alphatype>straight</alphatype>
                    <pixelaspectratio>square</pixelaspectratio>
                    <anamorphic>FALSE</anamorphic>
                    <file id="file-230">
                      <name>Scene - LJ visemes.228.png</name>
                      <pathurl>file://localhost/Users/bot/Documents/CREATE/Character Animator/LJ visemes CH2AE/demo/Scene - LJ visemes/Scene - LJ visemes.228.png</pathurl>
                      <rate>
                        <timebase>24</timebase>
                        <ntsc>FALSE</ntsc>
                      </rate>
                      <duration>672</duration>
                      <timecode>
                        <rate>
                          <timebase>24</timebase>
                          <ntsc>FALSE</ntsc>
                        </rate>
                      </timecode>
                      <media>
                        <video>
                          <duration>1</duration>
                          <samplecharacteristics>
                            <anamorphic>FALSE</anamorphic>
                            <pixelaspectratio>square</pixelaspectratio>
                            <fielddominance>none</fielddominance>
                            <width>1920</width>
                            <height>1080</height>
                          </samplecharacteristics>
                        </video>
                      </media>
                    </file>
                  </clipitem>
                </track>
              </video>
            </media>
          </clip>
          <clip explodedTracks="true" frameBlend="FALSE" id="masterclip-231">
            <uuid>db737007-091b-4d41-bbf1-276ce5283799</uuid>
            <masterclipid>masterclip-231</masterclipid>
            <ismasterclip>TRUE</ismasterclip>
            <duration>672</duration>
            <in>0</in>
            <out>672</out>
            <name>Scene - LJ visemes.229.png</name>
            <rate>
              <timebase>24</timebase>
              <ntsc>FALSE</ntsc>
            </rate>
            <media>
              <video>
                <track>
                  <clipitem frameBlend="FALSE" id="clipitem-232">
                    <name>Scene - LJ visemes.229.png</name>
                    <masterclipid>masterclip-231</masterclipid>
                    <rate>
                      <timebase>24</timebase>
                      <ntsc>FALSE</ntsc>
                    </rate>
                    <alphatype>straight</alphatype>
                    <pixelaspectratio>square</pixelaspectratio>
                    <anamorphic>FALSE</anamorphic>
                    <file id="file-231">
                      <name>Scene - LJ visemes.229.png</name>
                      <pathurl>file://localhost/Users/bot/Documents/CREATE/Character Animator/LJ visemes CH2AE/demo/Scene - LJ visemes/Scene - LJ visemes.229.png</pathurl>
                      <rate>
                        <timebase>24</timebase>
                        <ntsc>FALSE</ntsc>
                      </rate>
                      <duration>672</duration>
                      <timecode>
                        <rate>
                          <timebase>24</timebase>
                          <ntsc>FALSE</ntsc>
                        </rate>
                      </timecode>
                      <media>
                        <video>
                          <duration>1</duration>
                          <samplecharacteristics>
                            <anamorphic>FALSE</anamorphic>
                            <pixelaspectratio>square</pixelaspectratio>
                            <fielddominance>none</fielddominance>
                            <width>1920</width>
                            <height>1080</height>
                          </samplecharacteristics>
                        </video>
                      </media>
                    </file>
                  </clipitem>
                </track>
              </video>
            </media>
          </clip>
          <clip explodedTracks="true" frameBlend="FALSE" id="masterclip-232">
            <uuid>69a3353f-1475-4979-843a-5e6ad0cfe681</uuid>
            <masterclipid>masterclip-232</masterclipid>
            <ismasterclip>TRUE</ismasterclip>
            <duration>672</duration>
            <in>0</in>
            <out>672</out>
            <name>Scene - LJ visemes.230.png</name>
            <rate>
              <timebase>24</timebase>
              <ntsc>FALSE</ntsc>
            </rate>
            <media>
              <video>
                <track>
                  <clipitem frameBlend="FALSE" id="clipitem-233">
                    <name>Scene - LJ visemes.230.png</name>
                    <masterclipid>masterclip-232</masterclipid>
                    <rate>
                      <timebase>24</timebase>
                      <ntsc>FALSE</ntsc>
                    </rate>
                    <alphatype>straight</alphatype>
                    <pixelaspectratio>square</pixelaspectratio>
                    <anamorphic>FALSE</anamorphic>
                    <file id="file-232">
                      <name>Scene - LJ visemes.230.png</name>
                      <pathurl>file://localhost/Users/bot/Documents/CREATE/Character Animator/LJ visemes CH2AE/demo/Scene - LJ visemes/Scene - LJ visemes.230.png</pathurl>
                      <rate>
                        <timebase>24</timebase>
                        <ntsc>FALSE</ntsc>
                      </rate>
                      <duration>672</duration>
                      <timecode>
                        <rate>
                          <timebase>24</timebase>
                          <ntsc>FALSE</ntsc>
                        </rate>
                      </timecode>
                      <media>
                        <video>
                          <duration>1</duration>
                          <samplecharacteristics>
                            <anamorphic>FALSE</anamorphic>
                            <pixelaspectratio>square</pixelaspectratio>
                            <fielddominance>none</fielddominance>
                            <width>1920</width>
                            <height>1080</height>
                          </samplecharacteristics>
                        </video>
                      </media>
                    </file>
                  </clipitem>
                </track>
              </video>
            </media>
          </clip>
          <clip explodedTracks="true" frameBlend="FALSE" id="masterclip-233">
            <uuid>5b0a606d-5a8c-49fa-a3ad-467081f9d9f1</uuid>
            <masterclipid>masterclip-233</masterclipid>
            <ismasterclip>TRUE</ismasterclip>
            <duration>672</duration>
            <in>0</in>
            <out>672</out>
            <name>Scene - LJ visemes.231.png</name>
            <rate>
              <timebase>24</timebase>
              <ntsc>FALSE</ntsc>
            </rate>
            <media>
              <video>
                <track>
                  <clipitem frameBlend="FALSE" id="clipitem-234">
                    <name>Scene - LJ visemes.231.png</name>
                    <masterclipid>masterclip-233</masterclipid>
                    <rate>
                      <timebase>24</timebase>
                      <ntsc>FALSE</ntsc>
                    </rate>
                    <alphatype>straight</alphatype>
                    <pixelaspectratio>square</pixelaspectratio>
                    <anamorphic>FALSE</anamorphic>
                    <file id="file-233">
                      <name>Scene - LJ visemes.231.png</name>
                      <pathurl>file://localhost/Users/bot/Documents/CREATE/Character Animator/LJ visemes CH2AE/demo/Scene - LJ visemes/Scene - LJ visemes.231.png</pathurl>
                      <rate>
                        <timebase>24</timebase>
                        <ntsc>FALSE</ntsc>
                      </rate>
                      <duration>672</duration>
                      <timecode>
                        <rate>
                          <timebase>24</timebase>
                          <ntsc>FALSE</ntsc>
                        </rate>
                      </timecode>
                      <media>
                        <video>
                          <duration>1</duration>
                          <samplecharacteristics>
                            <anamorphic>FALSE</anamorphic>
                            <pixelaspectratio>square</pixelaspectratio>
                            <fielddominance>none</fielddominance>
                            <width>1920</width>
                            <height>1080</height>
                          </samplecharacteristics>
                        </video>
                      </media>
                    </file>
                  </clipitem>
                </track>
              </video>
            </media>
          </clip>
          <clip explodedTracks="true" frameBlend="FALSE" id="masterclip-234">
            <uuid>d0ecb14b-e6c2-45f3-a9af-0dbf0ca5a296</uuid>
            <masterclipid>masterclip-234</masterclipid>
            <ismasterclip>TRUE</ismasterclip>
            <duration>672</duration>
            <in>0</in>
            <out>672</out>
            <name>Scene - LJ visemes.232.png</name>
            <rate>
              <timebase>24</timebase>
              <ntsc>FALSE</ntsc>
            </rate>
            <media>
              <video>
                <track>
                  <clipitem frameBlend="FALSE" id="clipitem-235">
                    <name>Scene - LJ visemes.232.png</name>
                    <masterclipid>masterclip-234</masterclipid>
                    <rate>
                      <timebase>24</timebase>
                      <ntsc>FALSE</ntsc>
                    </rate>
                    <alphatype>straight</alphatype>
                    <pixelaspectratio>square</pixelaspectratio>
                    <anamorphic>FALSE</anamorphic>
                    <file id="file-234">
                      <name>Scene - LJ visemes.232.png</name>
                      <pathurl>file://localhost/Users/bot/Documents/CREATE/Character Animator/LJ visemes CH2AE/demo/Scene - LJ visemes/Scene - LJ visemes.232.png</pathurl>
                      <rate>
                        <timebase>24</timebase>
                        <ntsc>FALSE</ntsc>
                      </rate>
                      <duration>672</duration>
                      <timecode>
                        <rate>
                          <timebase>24</timebase>
                          <ntsc>FALSE</ntsc>
                        </rate>
                      </timecode>
                      <media>
                        <video>
                          <duration>1</duration>
                          <samplecharacteristics>
                            <anamorphic>FALSE</anamorphic>
                            <pixelaspectratio>square</pixelaspectratio>
                            <fielddominance>none</fielddominance>
                            <width>1920</width>
                            <height>1080</height>
                          </samplecharacteristics>
                        </video>
                      </media>
                    </file>
                  </clipitem>
                </track>
              </video>
            </media>
          </clip>
          <clip explodedTracks="true" frameBlend="FALSE" id="masterclip-235">
            <uuid>20b93308-8caf-4da4-98c7-0fe169b56d6b</uuid>
            <masterclipid>masterclip-235</masterclipid>
            <ismasterclip>TRUE</ismasterclip>
            <duration>672</duration>
            <in>0</in>
            <out>672</out>
            <name>Scene - LJ visemes.233.png</name>
            <rate>
              <timebase>24</timebase>
              <ntsc>FALSE</ntsc>
            </rate>
            <media>
              <video>
                <track>
                  <clipitem frameBlend="FALSE" id="clipitem-236">
                    <name>Scene - LJ visemes.233.png</name>
                    <masterclipid>masterclip-235</masterclipid>
                    <rate>
                      <timebase>24</timebase>
                      <ntsc>FALSE</ntsc>
                    </rate>
                    <alphatype>straight</alphatype>
                    <pixelaspectratio>square</pixelaspectratio>
                    <anamorphic>FALSE</anamorphic>
                    <file id="file-235">
                      <name>Scene - LJ visemes.233.png</name>
                      <pathurl>file://localhost/Users/bot/Documents/CREATE/Character Animator/LJ visemes CH2AE/demo/Scene - LJ visemes/Scene - LJ visemes.233.png</pathurl>
                      <rate>
                        <timebase>24</timebase>
                        <ntsc>FALSE</ntsc>
                      </rate>
                      <duration>672</duration>
                      <timecode>
                        <rate>
                          <timebase>24</timebase>
                          <ntsc>FALSE</ntsc>
                        </rate>
                      </timecode>
                      <media>
                        <video>
                          <duration>1</duration>
                          <samplecharacteristics>
                            <anamorphic>FALSE</anamorphic>
                            <pixelaspectratio>square</pixelaspectratio>
                            <fielddominance>none</fielddominance>
                            <width>1920</width>
                            <height>1080</height>
                          </samplecharacteristics>
                        </video>
                      </media>
                    </file>
                  </clipitem>
                </track>
              </video>
            </media>
          </clip>
          <clip explodedTracks="true" frameBlend="FALSE" id="masterclip-236">
            <uuid>3aedd550-dc7b-41f4-823f-591724ad0419</uuid>
            <masterclipid>masterclip-236</masterclipid>
            <ismasterclip>TRUE</ismasterclip>
            <duration>672</duration>
            <in>0</in>
            <out>672</out>
            <name>Scene - LJ visemes.234.png</name>
            <rate>
              <timebase>24</timebase>
              <ntsc>FALSE</ntsc>
            </rate>
            <media>
              <video>
                <track>
                  <clipitem frameBlend="FALSE" id="clipitem-237">
                    <name>Scene - LJ visemes.234.png</name>
                    <masterclipid>masterclip-236</masterclipid>
                    <rate>
                      <timebase>24</timebase>
                      <ntsc>FALSE</ntsc>
                    </rate>
                    <alphatype>straight</alphatype>
                    <pixelaspectratio>square</pixelaspectratio>
                    <anamorphic>FALSE</anamorphic>
                    <file id="file-236">
                      <name>Scene - LJ visemes.234.png</name>
                      <pathurl>file://localhost/Users/bot/Documents/CREATE/Character Animator/LJ visemes CH2AE/demo/Scene - LJ visemes/Scene - LJ visemes.234.png</pathurl>
                      <rate>
                        <timebase>24</timebase>
                        <ntsc>FALSE</ntsc>
                      </rate>
                      <duration>672</duration>
                      <timecode>
                        <rate>
                          <timebase>24</timebase>
                          <ntsc>FALSE</ntsc>
                        </rate>
                      </timecode>
                      <media>
                        <video>
                          <duration>1</duration>
                          <samplecharacteristics>
                            <anamorphic>FALSE</anamorphic>
                            <pixelaspectratio>square</pixelaspectratio>
                            <fielddominance>none</fielddominance>
                            <width>1920</width>
                            <height>1080</height>
                          </samplecharacteristics>
                        </video>
                      </media>
                    </file>
                  </clipitem>
                </track>
              </video>
            </media>
          </clip>
          <clip explodedTracks="true" frameBlend="FALSE" id="masterclip-237">
            <uuid>9900a642-c27b-4ddd-998c-d6c5260485f2</uuid>
            <masterclipid>masterclip-237</masterclipid>
            <ismasterclip>TRUE</ismasterclip>
            <duration>672</duration>
            <in>0</in>
            <out>672</out>
            <name>Scene - LJ visemes.235.png</name>
            <rate>
              <timebase>24</timebase>
              <ntsc>FALSE</ntsc>
            </rate>
            <media>
              <video>
                <track>
                  <clipitem frameBlend="FALSE" id="clipitem-238">
                    <name>Scene - LJ visemes.235.png</name>
                    <masterclipid>masterclip-237</masterclipid>
                    <rate>
                      <timebase>24</timebase>
                      <ntsc>FALSE</ntsc>
                    </rate>
                    <alphatype>straight</alphatype>
                    <pixelaspectratio>square</pixelaspectratio>
                    <anamorphic>FALSE</anamorphic>
                    <file id="file-237">
                      <name>Scene - LJ visemes.235.png</name>
                      <pathurl>file://localhost/Users/bot/Documents/CREATE/Character Animator/LJ visemes CH2AE/demo/Scene - LJ visemes/Scene - LJ visemes.235.png</pathurl>
                      <rate>
                        <timebase>24</timebase>
                        <ntsc>FALSE</ntsc>
                      </rate>
                      <duration>672</duration>
                      <timecode>
                        <rate>
                          <timebase>24</timebase>
                          <ntsc>FALSE</ntsc>
                        </rate>
                      </timecode>
                      <media>
                        <video>
                          <duration>1</duration>
                          <samplecharacteristics>
                            <anamorphic>FALSE</anamorphic>
                            <pixelaspectratio>square</pixelaspectratio>
                            <fielddominance>none</fielddominance>
                            <width>1920</width>
                            <height>1080</height>
                          </samplecharacteristics>
                        </video>
                      </media>
                    </file>
                  </clipitem>
                </track>
              </video>
            </media>
          </clip>
          <clip explodedTracks="true" frameBlend="FALSE" id="masterclip-238">
            <uuid>4c48e3f1-e737-4f18-98d7-2b8a0cab6ee6</uuid>
            <masterclipid>masterclip-238</masterclipid>
            <ismasterclip>TRUE</ismasterclip>
            <duration>672</duration>
            <in>0</in>
            <out>672</out>
            <name>Scene - LJ visemes.236.png</name>
            <rate>
              <timebase>24</timebase>
              <ntsc>FALSE</ntsc>
            </rate>
            <media>
              <video>
                <track>
                  <clipitem frameBlend="FALSE" id="clipitem-239">
                    <name>Scene - LJ visemes.236.png</name>
                    <masterclipid>masterclip-238</masterclipid>
                    <rate>
                      <timebase>24</timebase>
                      <ntsc>FALSE</ntsc>
                    </rate>
                    <alphatype>straight</alphatype>
                    <pixelaspectratio>square</pixelaspectratio>
                    <anamorphic>FALSE</anamorphic>
                    <file id="file-238">
                      <name>Scene - LJ visemes.236.png</name>
                      <pathurl>file://localhost/Users/bot/Documents/CREATE/Character Animator/LJ visemes CH2AE/demo/Scene - LJ visemes/Scene - LJ visemes.236.png</pathurl>
                      <rate>
                        <timebase>24</timebase>
                        <ntsc>FALSE</ntsc>
                      </rate>
                      <duration>672</duration>
                      <timecode>
                        <rate>
                          <timebase>24</timebase>
                          <ntsc>FALSE</ntsc>
                        </rate>
                      </timecode>
                      <media>
                        <video>
                          <duration>1</duration>
                          <samplecharacteristics>
                            <anamorphic>FALSE</anamorphic>
                            <pixelaspectratio>square</pixelaspectratio>
                            <fielddominance>none</fielddominance>
                            <width>1920</width>
                            <height>1080</height>
                          </samplecharacteristics>
                        </video>
                      </media>
                    </file>
                  </clipitem>
                </track>
              </video>
            </media>
          </clip>
          <clip explodedTracks="true" frameBlend="FALSE" id="masterclip-239">
            <uuid>ee4d623f-f8c9-41e5-abea-ddad695559f6</uuid>
            <masterclipid>masterclip-239</masterclipid>
            <ismasterclip>TRUE</ismasterclip>
            <duration>672</duration>
            <in>0</in>
            <out>672</out>
            <name>Scene - LJ visemes.237.png</name>
            <rate>
              <timebase>24</timebase>
              <ntsc>FALSE</ntsc>
            </rate>
            <media>
              <video>
                <track>
                  <clipitem frameBlend="FALSE" id="clipitem-240">
                    <name>Scene - LJ visemes.237.png</name>
                    <masterclipid>masterclip-239</masterclipid>
                    <rate>
                      <timebase>24</timebase>
                      <ntsc>FALSE</ntsc>
                    </rate>
                    <alphatype>straight</alphatype>
                    <pixelaspectratio>square</pixelaspectratio>
                    <anamorphic>FALSE</anamorphic>
                    <file id="file-239">
                      <name>Scene - LJ visemes.237.png</name>
                      <pathurl>file://localhost/Users/bot/Documents/CREATE/Character Animator/LJ visemes CH2AE/demo/Scene - LJ visemes/Scene - LJ visemes.237.png</pathurl>
                      <rate>
                        <timebase>24</timebase>
                        <ntsc>FALSE</ntsc>
                      </rate>
                      <duration>672</duration>
                      <timecode>
                        <rate>
                          <timebase>24</timebase>
                          <ntsc>FALSE</ntsc>
                        </rate>
                      </timecode>
                      <media>
                        <video>
                          <duration>1</duration>
                          <samplecharacteristics>
                            <anamorphic>FALSE</anamorphic>
                            <pixelaspectratio>square</pixelaspectratio>
                            <fielddominance>none</fielddominance>
                            <width>1920</width>
                            <height>1080</height>
                          </samplecharacteristics>
                        </video>
                      </media>
                    </file>
                  </clipitem>
                </track>
              </video>
            </media>
          </clip>
          <clip explodedTracks="true" frameBlend="FALSE" id="masterclip-240">
            <uuid>505a6525-56a0-4a88-8e39-4e39d30abddd</uuid>
            <masterclipid>masterclip-240</masterclipid>
            <ismasterclip>TRUE</ismasterclip>
            <duration>672</duration>
            <in>0</in>
            <out>672</out>
            <name>Scene - LJ visemes.238.png</name>
            <rate>
              <timebase>24</timebase>
              <ntsc>FALSE</ntsc>
            </rate>
            <media>
              <video>
                <track>
                  <clipitem frameBlend="FALSE" id="clipitem-241">
                    <name>Scene - LJ visemes.238.png</name>
                    <masterclipid>masterclip-240</masterclipid>
                    <rate>
                      <timebase>24</timebase>
                      <ntsc>FALSE</ntsc>
                    </rate>
                    <alphatype>straight</alphatype>
                    <pixelaspectratio>square</pixelaspectratio>
                    <anamorphic>FALSE</anamorphic>
                    <file id="file-240">
                      <name>Scene - LJ visemes.238.png</name>
                      <pathurl>file://localhost/Users/bot/Documents/CREATE/Character Animator/LJ visemes CH2AE/demo/Scene - LJ visemes/Scene - LJ visemes.238.png</pathurl>
                      <rate>
                        <timebase>24</timebase>
                        <ntsc>FALSE</ntsc>
                      </rate>
                      <duration>672</duration>
                      <timecode>
                        <rate>
                          <timebase>24</timebase>
                          <ntsc>FALSE</ntsc>
                        </rate>
                      </timecode>
                      <media>
                        <video>
                          <duration>1</duration>
                          <samplecharacteristics>
                            <anamorphic>FALSE</anamorphic>
                            <pixelaspectratio>square</pixelaspectratio>
                            <fielddominance>none</fielddominance>
                            <width>1920</width>
                            <height>1080</height>
                          </samplecharacteristics>
                        </video>
                      </media>
                    </file>
                  </clipitem>
                </track>
              </video>
            </media>
          </clip>
          <clip explodedTracks="true" frameBlend="FALSE" id="masterclip-241">
            <uuid>d01e1339-7319-46ed-8b53-4975a9b8b333</uuid>
            <masterclipid>masterclip-241</masterclipid>
            <ismasterclip>TRUE</ismasterclip>
            <duration>672</duration>
            <in>0</in>
            <out>672</out>
            <name>Scene - LJ visemes.239.png</name>
            <rate>
              <timebase>24</timebase>
              <ntsc>FALSE</ntsc>
            </rate>
            <media>
              <video>
                <track>
                  <clipitem frameBlend="FALSE" id="clipitem-242">
                    <name>Scene - LJ visemes.239.png</name>
                    <masterclipid>masterclip-241</masterclipid>
                    <rate>
                      <timebase>24</timebase>
                      <ntsc>FALSE</ntsc>
                    </rate>
                    <alphatype>straight</alphatype>
                    <pixelaspectratio>square</pixelaspectratio>
                    <anamorphic>FALSE</anamorphic>
                    <file id="file-241">
                      <name>Scene - LJ visemes.239.png</name>
                      <pathurl>file://localhost/Users/bot/Documents/CREATE/Character Animator/LJ visemes CH2AE/demo/Scene - LJ visemes/Scene - LJ visemes.239.png</pathurl>
                      <rate>
                        <timebase>24</timebase>
                        <ntsc>FALSE</ntsc>
                      </rate>
                      <duration>672</duration>
                      <timecode>
                        <rate>
                          <timebase>24</timebase>
                          <ntsc>FALSE</ntsc>
                        </rate>
                      </timecode>
                      <media>
                        <video>
                          <duration>1</duration>
                          <samplecharacteristics>
                            <anamorphic>FALSE</anamorphic>
                            <pixelaspectratio>square</pixelaspectratio>
                            <fielddominance>none</fielddominance>
                            <width>1920</width>
                            <height>1080</height>
                          </samplecharacteristics>
                        </video>
                      </media>
                    </file>
                  </clipitem>
                </track>
              </video>
            </media>
          </clip>
          <clip explodedTracks="true" frameBlend="FALSE" id="masterclip-242">
            <uuid>479f814e-2d9a-4202-945d-b0572e02a7f3</uuid>
            <masterclipid>masterclip-242</masterclipid>
            <ismasterclip>TRUE</ismasterclip>
            <duration>672</duration>
            <in>0</in>
            <out>672</out>
            <name>Scene - LJ visemes.240.png</name>
            <rate>
              <timebase>24</timebase>
              <ntsc>FALSE</ntsc>
            </rate>
            <media>
              <video>
                <track>
                  <clipitem frameBlend="FALSE" id="clipitem-243">
                    <name>Scene - LJ visemes.240.png</name>
                    <masterclipid>masterclip-242</masterclipid>
                    <rate>
                      <timebase>24</timebase>
                      <ntsc>FALSE</ntsc>
                    </rate>
                    <alphatype>straight</alphatype>
                    <pixelaspectratio>square</pixelaspectratio>
                    <anamorphic>FALSE</anamorphic>
                    <file id="file-242">
                      <name>Scene - LJ visemes.240.png</name>
                      <pathurl>file://localhost/Users/bot/Documents/CREATE/Character Animator/LJ visemes CH2AE/demo/Scene - LJ visemes/Scene - LJ visemes.240.png</pathurl>
                      <rate>
                        <timebase>24</timebase>
                        <ntsc>FALSE</ntsc>
                      </rate>
                      <duration>672</duration>
                      <timecode>
                        <rate>
                          <timebase>24</timebase>
                          <ntsc>FALSE</ntsc>
                        </rate>
                      </timecode>
                      <media>
                        <video>
                          <duration>1</duration>
                          <samplecharacteristics>
                            <anamorphic>FALSE</anamorphic>
                            <pixelaspectratio>square</pixelaspectratio>
                            <fielddominance>none</fielddominance>
                            <width>1920</width>
                            <height>1080</height>
                          </samplecharacteristics>
                        </video>
                      </media>
                    </file>
                  </clipitem>
                </track>
              </video>
            </media>
          </clip>
          <clip explodedTracks="true" frameBlend="FALSE" id="masterclip-243">
            <uuid>2709a52f-ec34-44a6-9d70-79138d8a497e</uuid>
            <masterclipid>masterclip-243</masterclipid>
            <ismasterclip>TRUE</ismasterclip>
            <duration>672</duration>
            <in>0</in>
            <out>672</out>
            <name>Scene - LJ visemes.241.png</name>
            <rate>
              <timebase>24</timebase>
              <ntsc>FALSE</ntsc>
            </rate>
            <media>
              <video>
                <track>
                  <clipitem frameBlend="FALSE" id="clipitem-244">
                    <name>Scene - LJ visemes.241.png</name>
                    <masterclipid>masterclip-243</masterclipid>
                    <rate>
                      <timebase>24</timebase>
                      <ntsc>FALSE</ntsc>
                    </rate>
                    <alphatype>straight</alphatype>
                    <pixelaspectratio>square</pixelaspectratio>
                    <anamorphic>FALSE</anamorphic>
                    <file id="file-243">
                      <name>Scene - LJ visemes.241.png</name>
                      <pathurl>file://localhost/Users/bot/Documents/CREATE/Character Animator/LJ visemes CH2AE/demo/Scene - LJ visemes/Scene - LJ visemes.241.png</pathurl>
                      <rate>
                        <timebase>24</timebase>
                        <ntsc>FALSE</ntsc>
                      </rate>
                      <duration>672</duration>
                      <timecode>
                        <rate>
                          <timebase>24</timebase>
                          <ntsc>FALSE</ntsc>
                        </rate>
                      </timecode>
                      <media>
                        <video>
                          <duration>1</duration>
                          <samplecharacteristics>
                            <anamorphic>FALSE</anamorphic>
                            <pixelaspectratio>square</pixelaspectratio>
                            <fielddominance>none</fielddominance>
                            <width>1920</width>
                            <height>1080</height>
                          </samplecharacteristics>
                        </video>
                      </media>
                    </file>
                  </clipitem>
                </track>
              </video>
            </media>
          </clip>
          <clip explodedTracks="true" frameBlend="FALSE" id="masterclip-244">
            <uuid>08207be6-9dae-4afa-8b5e-1cdd35ae28dc</uuid>
            <masterclipid>masterclip-244</masterclipid>
            <ismasterclip>TRUE</ismasterclip>
            <duration>672</duration>
            <in>0</in>
            <out>672</out>
            <name>Scene - LJ visemes.242.png</name>
            <rate>
              <timebase>24</timebase>
              <ntsc>FALSE</ntsc>
            </rate>
            <media>
              <video>
                <track>
                  <clipitem frameBlend="FALSE" id="clipitem-245">
                    <name>Scene - LJ visemes.242.png</name>
                    <masterclipid>masterclip-244</masterclipid>
                    <rate>
                      <timebase>24</timebase>
                      <ntsc>FALSE</ntsc>
                    </rate>
                    <alphatype>straight</alphatype>
                    <pixelaspectratio>square</pixelaspectratio>
                    <anamorphic>FALSE</anamorphic>
                    <file id="file-244">
                      <name>Scene - LJ visemes.242.png</name>
                      <pathurl>file://localhost/Users/bot/Documents/CREATE/Character Animator/LJ visemes CH2AE/demo/Scene - LJ visemes/Scene - LJ visemes.242.png</pathurl>
                      <rate>
                        <timebase>24</timebase>
                        <ntsc>FALSE</ntsc>
                      </rate>
                      <duration>672</duration>
                      <timecode>
                        <rate>
                          <timebase>24</timebase>
                          <ntsc>FALSE</ntsc>
                        </rate>
                      </timecode>
                      <media>
                        <video>
                          <duration>1</duration>
                          <samplecharacteristics>
                            <anamorphic>FALSE</anamorphic>
                            <pixelaspectratio>square</pixelaspectratio>
                            <fielddominance>none</fielddominance>
                            <width>1920</width>
                            <height>1080</height>
                          </samplecharacteristics>
                        </video>
                      </media>
                    </file>
                  </clipitem>
                </track>
              </video>
            </media>
          </clip>
          <clip explodedTracks="true" frameBlend="FALSE" id="masterclip-245">
            <uuid>85c46d90-8be4-4fd3-afbb-7b600a19211a</uuid>
            <masterclipid>masterclip-245</masterclipid>
            <ismasterclip>TRUE</ismasterclip>
            <duration>672</duration>
            <in>0</in>
            <out>672</out>
            <name>Scene - LJ visemes.243.png</name>
            <rate>
              <timebase>24</timebase>
              <ntsc>FALSE</ntsc>
            </rate>
            <media>
              <video>
                <track>
                  <clipitem frameBlend="FALSE" id="clipitem-246">
                    <name>Scene - LJ visemes.243.png</name>
                    <masterclipid>masterclip-245</masterclipid>
                    <rate>
                      <timebase>24</timebase>
                      <ntsc>FALSE</ntsc>
                    </rate>
                    <alphatype>straight</alphatype>
                    <pixelaspectratio>square</pixelaspectratio>
                    <anamorphic>FALSE</anamorphic>
                    <file id="file-245">
                      <name>Scene - LJ visemes.243.png</name>
                      <pathurl>file://localhost/Users/bot/Documents/CREATE/Character Animator/LJ visemes CH2AE/demo/Scene - LJ visemes/Scene - LJ visemes.243.png</pathurl>
                      <rate>
                        <timebase>24</timebase>
                        <ntsc>FALSE</ntsc>
                      </rate>
                      <duration>672</duration>
                      <timecode>
                        <rate>
                          <timebase>24</timebase>
                          <ntsc>FALSE</ntsc>
                        </rate>
                      </timecode>
                      <media>
                        <video>
                          <duration>1</duration>
                          <samplecharacteristics>
                            <anamorphic>FALSE</anamorphic>
                            <pixelaspectratio>square</pixelaspectratio>
                            <fielddominance>none</fielddominance>
                            <width>1920</width>
                            <height>1080</height>
                          </samplecharacteristics>
                        </video>
                      </media>
                    </file>
                  </clipitem>
                </track>
              </video>
            </media>
          </clip>
          <clip explodedTracks="true" frameBlend="FALSE" id="masterclip-246">
            <uuid>bf4d79b0-aaf3-4b69-a3de-0bf7855855e1</uuid>
            <masterclipid>masterclip-246</masterclipid>
            <ismasterclip>TRUE</ismasterclip>
            <duration>672</duration>
            <in>0</in>
            <out>672</out>
            <name>Scene - LJ visemes.244.png</name>
            <rate>
              <timebase>24</timebase>
              <ntsc>FALSE</ntsc>
            </rate>
            <media>
              <video>
                <track>
                  <clipitem frameBlend="FALSE" id="clipitem-247">
                    <name>Scene - LJ visemes.244.png</name>
                    <masterclipid>masterclip-246</masterclipid>
                    <rate>
                      <timebase>24</timebase>
                      <ntsc>FALSE</ntsc>
                    </rate>
                    <alphatype>straight</alphatype>
                    <pixelaspectratio>square</pixelaspectratio>
                    <anamorphic>FALSE</anamorphic>
                    <file id="file-246">
                      <name>Scene - LJ visemes.244.png</name>
                      <pathurl>file://localhost/Users/bot/Documents/CREATE/Character Animator/LJ visemes CH2AE/demo/Scene - LJ visemes/Scene - LJ visemes.244.png</pathurl>
                      <rate>
                        <timebase>24</timebase>
                        <ntsc>FALSE</ntsc>
                      </rate>
                      <duration>672</duration>
                      <timecode>
                        <rate>
                          <timebase>24</timebase>
                          <ntsc>FALSE</ntsc>
                        </rate>
                      </timecode>
                      <media>
                        <video>
                          <duration>1</duration>
                          <samplecharacteristics>
                            <anamorphic>FALSE</anamorphic>
                            <pixelaspectratio>square</pixelaspectratio>
                            <fielddominance>none</fielddominance>
                            <width>1920</width>
                            <height>1080</height>
                          </samplecharacteristics>
                        </video>
                      </media>
                    </file>
                  </clipitem>
                </track>
              </video>
            </media>
          </clip>
          <clip explodedTracks="true" frameBlend="FALSE" id="masterclip-247">
            <uuid>741627c3-6b8c-4709-a597-8d12ab2d1d77</uuid>
            <masterclipid>masterclip-247</masterclipid>
            <ismasterclip>TRUE</ismasterclip>
            <duration>672</duration>
            <in>0</in>
            <out>672</out>
            <name>Scene - LJ visemes.245.png</name>
            <rate>
              <timebase>24</timebase>
              <ntsc>FALSE</ntsc>
            </rate>
            <media>
              <video>
                <track>
                  <clipitem frameBlend="FALSE" id="clipitem-248">
                    <name>Scene - LJ visemes.245.png</name>
                    <masterclipid>masterclip-247</masterclipid>
                    <rate>
                      <timebase>24</timebase>
                      <ntsc>FALSE</ntsc>
                    </rate>
                    <alphatype>straight</alphatype>
                    <pixelaspectratio>square</pixelaspectratio>
                    <anamorphic>FALSE</anamorphic>
                    <file id="file-247">
                      <name>Scene - LJ visemes.245.png</name>
                      <pathurl>file://localhost/Users/bot/Documents/CREATE/Character Animator/LJ visemes CH2AE/demo/Scene - LJ visemes/Scene - LJ visemes.245.png</pathurl>
                      <rate>
                        <timebase>24</timebase>
                        <ntsc>FALSE</ntsc>
                      </rate>
                      <duration>672</duration>
                      <timecode>
                        <rate>
                          <timebase>24</timebase>
                          <ntsc>FALSE</ntsc>
                        </rate>
                      </timecode>
                      <media>
                        <video>
                          <duration>1</duration>
                          <samplecharacteristics>
                            <anamorphic>FALSE</anamorphic>
                            <pixelaspectratio>square</pixelaspectratio>
                            <fielddominance>none</fielddominance>
                            <width>1920</width>
                            <height>1080</height>
                          </samplecharacteristics>
                        </video>
                      </media>
                    </file>
                  </clipitem>
                </track>
              </video>
            </media>
          </clip>
          <clip explodedTracks="true" frameBlend="FALSE" id="masterclip-248">
            <uuid>4c28919e-f1ee-4e87-a760-ff778a5b471e</uuid>
            <masterclipid>masterclip-248</masterclipid>
            <ismasterclip>TRUE</ismasterclip>
            <duration>672</duration>
            <in>0</in>
            <out>672</out>
            <name>Scene - LJ visemes.246.png</name>
            <rate>
              <timebase>24</timebase>
              <ntsc>FALSE</ntsc>
            </rate>
            <media>
              <video>
                <track>
                  <clipitem frameBlend="FALSE" id="clipitem-249">
                    <name>Scene - LJ visemes.246.png</name>
                    <masterclipid>masterclip-248</masterclipid>
                    <rate>
                      <timebase>24</timebase>
                      <ntsc>FALSE</ntsc>
                    </rate>
                    <alphatype>straight</alphatype>
                    <pixelaspectratio>square</pixelaspectratio>
                    <anamorphic>FALSE</anamorphic>
                    <file id="file-248">
                      <name>Scene - LJ visemes.246.png</name>
                      <pathurl>file://localhost/Users/bot/Documents/CREATE/Character Animator/LJ visemes CH2AE/demo/Scene - LJ visemes/Scene - LJ visemes.246.png</pathurl>
                      <rate>
                        <timebase>24</timebase>
                        <ntsc>FALSE</ntsc>
                      </rate>
                      <duration>672</duration>
                      <timecode>
                        <rate>
                          <timebase>24</timebase>
                          <ntsc>FALSE</ntsc>
                        </rate>
                      </timecode>
                      <media>
                        <video>
                          <duration>1</duration>
                          <samplecharacteristics>
                            <anamorphic>FALSE</anamorphic>
                            <pixelaspectratio>square</pixelaspectratio>
                            <fielddominance>none</fielddominance>
                            <width>1920</width>
                            <height>1080</height>
                          </samplecharacteristics>
                        </video>
                      </media>
                    </file>
                  </clipitem>
                </track>
              </video>
            </media>
          </clip>
          <clip explodedTracks="true" frameBlend="FALSE" id="masterclip-249">
            <uuid>88133a7c-e0f3-4c78-8914-0952bcd4fa1b</uuid>
            <masterclipid>masterclip-249</masterclipid>
            <ismasterclip>TRUE</ismasterclip>
            <duration>672</duration>
            <in>0</in>
            <out>672</out>
            <name>Scene - LJ visemes.247.png</name>
            <rate>
              <timebase>24</timebase>
              <ntsc>FALSE</ntsc>
            </rate>
            <media>
              <video>
                <track>
                  <clipitem frameBlend="FALSE" id="clipitem-250">
                    <name>Scene - LJ visemes.247.png</name>
                    <masterclipid>masterclip-249</masterclipid>
                    <rate>
                      <timebase>24</timebase>
                      <ntsc>FALSE</ntsc>
                    </rate>
                    <alphatype>straight</alphatype>
                    <pixelaspectratio>square</pixelaspectratio>
                    <anamorphic>FALSE</anamorphic>
                    <file id="file-249">
                      <name>Scene - LJ visemes.247.png</name>
                      <pathurl>file://localhost/Users/bot/Documents/CREATE/Character Animator/LJ visemes CH2AE/demo/Scene - LJ visemes/Scene - LJ visemes.247.png</pathurl>
                      <rate>
                        <timebase>24</timebase>
                        <ntsc>FALSE</ntsc>
                      </rate>
                      <duration>672</duration>
                      <timecode>
                        <rate>
                          <timebase>24</timebase>
                          <ntsc>FALSE</ntsc>
                        </rate>
                      </timecode>
                      <media>
                        <video>
                          <duration>1</duration>
                          <samplecharacteristics>
                            <anamorphic>FALSE</anamorphic>
                            <pixelaspectratio>square</pixelaspectratio>
                            <fielddominance>none</fielddominance>
                            <width>1920</width>
                            <height>1080</height>
                          </samplecharacteristics>
                        </video>
                      </media>
                    </file>
                  </clipitem>
                </track>
              </video>
            </media>
          </clip>
          <clip explodedTracks="true" frameBlend="FALSE" id="masterclip-250">
            <uuid>5f1b863f-d850-4e22-a0d3-1fcf5b280399</uuid>
            <masterclipid>masterclip-250</masterclipid>
            <ismasterclip>TRUE</ismasterclip>
            <duration>672</duration>
            <in>0</in>
            <out>672</out>
            <name>Scene - LJ visemes.248.png</name>
            <rate>
              <timebase>24</timebase>
              <ntsc>FALSE</ntsc>
            </rate>
            <media>
              <video>
                <track>
                  <clipitem frameBlend="FALSE" id="clipitem-251">
                    <name>Scene - LJ visemes.248.png</name>
                    <masterclipid>masterclip-250</masterclipid>
                    <rate>
                      <timebase>24</timebase>
                      <ntsc>FALSE</ntsc>
                    </rate>
                    <alphatype>straight</alphatype>
                    <pixelaspectratio>square</pixelaspectratio>
                    <anamorphic>FALSE</anamorphic>
                    <file id="file-250">
                      <name>Scene - LJ visemes.248.png</name>
                      <pathurl>file://localhost/Users/bot/Documents/CREATE/Character Animator/LJ visemes CH2AE/demo/Scene - LJ visemes/Scene - LJ visemes.248.png</pathurl>
                      <rate>
                        <timebase>24</timebase>
                        <ntsc>FALSE</ntsc>
                      </rate>
                      <duration>672</duration>
                      <timecode>
                        <rate>
                          <timebase>24</timebase>
                          <ntsc>FALSE</ntsc>
                        </rate>
                      </timecode>
                      <media>
                        <video>
                          <duration>1</duration>
                          <samplecharacteristics>
                            <anamorphic>FALSE</anamorphic>
                            <pixelaspectratio>square</pixelaspectratio>
                            <fielddominance>none</fielddominance>
                            <width>1920</width>
                            <height>1080</height>
                          </samplecharacteristics>
                        </video>
                      </media>
                    </file>
                  </clipitem>
                </track>
              </video>
            </media>
          </clip>
          <clip explodedTracks="true" frameBlend="FALSE" id="masterclip-251">
            <uuid>86ecad37-20c3-45d7-85da-5c797f80e5d6</uuid>
            <masterclipid>masterclip-251</masterclipid>
            <ismasterclip>TRUE</ismasterclip>
            <duration>672</duration>
            <in>0</in>
            <out>672</out>
            <name>Scene - LJ visemes.249.png</name>
            <rate>
              <timebase>24</timebase>
              <ntsc>FALSE</ntsc>
            </rate>
            <media>
              <video>
                <track>
                  <clipitem frameBlend="FALSE" id="clipitem-252">
                    <name>Scene - LJ visemes.249.png</name>
                    <masterclipid>masterclip-251</masterclipid>
                    <rate>
                      <timebase>24</timebase>
                      <ntsc>FALSE</ntsc>
                    </rate>
                    <alphatype>straight</alphatype>
                    <pixelaspectratio>square</pixelaspectratio>
                    <anamorphic>FALSE</anamorphic>
                    <file id="file-251">
                      <name>Scene - LJ visemes.249.png</name>
                      <pathurl>file://localhost/Users/bot/Documents/CREATE/Character Animator/LJ visemes CH2AE/demo/Scene - LJ visemes/Scene - LJ visemes.249.png</pathurl>
                      <rate>
                        <timebase>24</timebase>
                        <ntsc>FALSE</ntsc>
                      </rate>
                      <duration>672</duration>
                      <timecode>
                        <rate>
                          <timebase>24</timebase>
                          <ntsc>FALSE</ntsc>
                        </rate>
                      </timecode>
                      <media>
                        <video>
                          <duration>1</duration>
                          <samplecharacteristics>
                            <anamorphic>FALSE</anamorphic>
                            <pixelaspectratio>square</pixelaspectratio>
                            <fielddominance>none</fielddominance>
                            <width>1920</width>
                            <height>1080</height>
                          </samplecharacteristics>
                        </video>
                      </media>
                    </file>
                  </clipitem>
                </track>
              </video>
            </media>
          </clip>
          <clip explodedTracks="true" frameBlend="FALSE" id="masterclip-252">
            <uuid>0fef37b7-6b2c-4f1c-b258-938d72d01afd</uuid>
            <masterclipid>masterclip-252</masterclipid>
            <ismasterclip>TRUE</ismasterclip>
            <duration>672</duration>
            <in>0</in>
            <out>672</out>
            <name>Scene - LJ visemes.250.png</name>
            <rate>
              <timebase>24</timebase>
              <ntsc>FALSE</ntsc>
            </rate>
            <media>
              <video>
                <track>
                  <clipitem frameBlend="FALSE" id="clipitem-253">
                    <name>Scene - LJ visemes.250.png</name>
                    <masterclipid>masterclip-252</masterclipid>
                    <rate>
                      <timebase>24</timebase>
                      <ntsc>FALSE</ntsc>
                    </rate>
                    <alphatype>straight</alphatype>
                    <pixelaspectratio>square</pixelaspectratio>
                    <anamorphic>FALSE</anamorphic>
                    <file id="file-252">
                      <name>Scene - LJ visemes.250.png</name>
                      <pathurl>file://localhost/Users/bot/Documents/CREATE/Character Animator/LJ visemes CH2AE/demo/Scene - LJ visemes/Scene - LJ visemes.250.png</pathurl>
                      <rate>
                        <timebase>24</timebase>
                        <ntsc>FALSE</ntsc>
                      </rate>
                      <duration>672</duration>
                      <timecode>
                        <rate>
                          <timebase>24</timebase>
                          <ntsc>FALSE</ntsc>
                        </rate>
                      </timecode>
                      <media>
                        <video>
                          <duration>1</duration>
                          <samplecharacteristics>
                            <anamorphic>FALSE</anamorphic>
                            <pixelaspectratio>square</pixelaspectratio>
                            <fielddominance>none</fielddominance>
                            <width>1920</width>
                            <height>1080</height>
                          </samplecharacteristics>
                        </video>
                      </media>
                    </file>
                  </clipitem>
                </track>
              </video>
            </media>
          </clip>
          <clip explodedTracks="true" frameBlend="FALSE" id="masterclip-253">
            <uuid>c796aea5-9add-4565-9db8-07236e9a2f0f</uuid>
            <masterclipid>masterclip-253</masterclipid>
            <ismasterclip>TRUE</ismasterclip>
            <duration>672</duration>
            <in>0</in>
            <out>672</out>
            <name>Scene - LJ visemes.251.png</name>
            <rate>
              <timebase>24</timebase>
              <ntsc>FALSE</ntsc>
            </rate>
            <media>
              <video>
                <track>
                  <clipitem frameBlend="FALSE" id="clipitem-254">
                    <name>Scene - LJ visemes.251.png</name>
                    <masterclipid>masterclip-253</masterclipid>
                    <rate>
                      <timebase>24</timebase>
                      <ntsc>FALSE</ntsc>
                    </rate>
                    <alphatype>straight</alphatype>
                    <pixelaspectratio>square</pixelaspectratio>
                    <anamorphic>FALSE</anamorphic>
                    <file id="file-253">
                      <name>Scene - LJ visemes.251.png</name>
                      <pathurl>file://localhost/Users/bot/Documents/CREATE/Character Animator/LJ visemes CH2AE/demo/Scene - LJ visemes/Scene - LJ visemes.251.png</pathurl>
                      <rate>
                        <timebase>24</timebase>
                        <ntsc>FALSE</ntsc>
                      </rate>
                      <duration>672</duration>
                      <timecode>
                        <rate>
                          <timebase>24</timebase>
                          <ntsc>FALSE</ntsc>
                        </rate>
                      </timecode>
                      <media>
                        <video>
                          <duration>1</duration>
                          <samplecharacteristics>
                            <anamorphic>FALSE</anamorphic>
                            <pixelaspectratio>square</pixelaspectratio>
                            <fielddominance>none</fielddominance>
                            <width>1920</width>
                            <height>1080</height>
                          </samplecharacteristics>
                        </video>
                      </media>
                    </file>
                  </clipitem>
                </track>
              </video>
            </media>
          </clip>
          <clip explodedTracks="true" frameBlend="FALSE" id="masterclip-254">
            <uuid>0076763d-e93a-4611-b762-579c83d16843</uuid>
            <masterclipid>masterclip-254</masterclipid>
            <ismasterclip>TRUE</ismasterclip>
            <duration>672</duration>
            <in>0</in>
            <out>672</out>
            <name>Scene - LJ visemes.252.png</name>
            <rate>
              <timebase>24</timebase>
              <ntsc>FALSE</ntsc>
            </rate>
            <media>
              <video>
                <track>
                  <clipitem frameBlend="FALSE" id="clipitem-255">
                    <name>Scene - LJ visemes.252.png</name>
                    <masterclipid>masterclip-254</masterclipid>
                    <rate>
                      <timebase>24</timebase>
                      <ntsc>FALSE</ntsc>
                    </rate>
                    <alphatype>straight</alphatype>
                    <pixelaspectratio>square</pixelaspectratio>
                    <anamorphic>FALSE</anamorphic>
                    <file id="file-254">
                      <name>Scene - LJ visemes.252.png</name>
                      <pathurl>file://localhost/Users/bot/Documents/CREATE/Character Animator/LJ visemes CH2AE/demo/Scene - LJ visemes/Scene - LJ visemes.252.png</pathurl>
                      <rate>
                        <timebase>24</timebase>
                        <ntsc>FALSE</ntsc>
                      </rate>
                      <duration>672</duration>
                      <timecode>
                        <rate>
                          <timebase>24</timebase>
                          <ntsc>FALSE</ntsc>
                        </rate>
                      </timecode>
                      <media>
                        <video>
                          <duration>1</duration>
                          <samplecharacteristics>
                            <anamorphic>FALSE</anamorphic>
                            <pixelaspectratio>square</pixelaspectratio>
                            <fielddominance>none</fielddominance>
                            <width>1920</width>
                            <height>1080</height>
                          </samplecharacteristics>
                        </video>
                      </media>
                    </file>
                  </clipitem>
                </track>
              </video>
            </media>
          </clip>
          <clip explodedTracks="true" frameBlend="FALSE" id="masterclip-255">
            <uuid>0931dd60-de8f-4030-9560-7f91a29d432c</uuid>
            <masterclipid>masterclip-255</masterclipid>
            <ismasterclip>TRUE</ismasterclip>
            <duration>672</duration>
            <in>0</in>
            <out>672</out>
            <name>Scene - LJ visemes.253.png</name>
            <rate>
              <timebase>24</timebase>
              <ntsc>FALSE</ntsc>
            </rate>
            <media>
              <video>
                <track>
                  <clipitem frameBlend="FALSE" id="clipitem-256">
                    <name>Scene - LJ visemes.253.png</name>
                    <masterclipid>masterclip-255</masterclipid>
                    <rate>
                      <timebase>24</timebase>
                      <ntsc>FALSE</ntsc>
                    </rate>
                    <alphatype>straight</alphatype>
                    <pixelaspectratio>square</pixelaspectratio>
                    <anamorphic>FALSE</anamorphic>
                    <file id="file-255">
                      <name>Scene - LJ visemes.253.png</name>
                      <pathurl>file://localhost/Users/bot/Documents/CREATE/Character Animator/LJ visemes CH2AE/demo/Scene - LJ visemes/Scene - LJ visemes.253.png</pathurl>
                      <rate>
                        <timebase>24</timebase>
                        <ntsc>FALSE</ntsc>
                      </rate>
                      <duration>672</duration>
                      <timecode>
                        <rate>
                          <timebase>24</timebase>
                          <ntsc>FALSE</ntsc>
                        </rate>
                      </timecode>
                      <media>
                        <video>
                          <duration>1</duration>
                          <samplecharacteristics>
                            <anamorphic>FALSE</anamorphic>
                            <pixelaspectratio>square</pixelaspectratio>
                            <fielddominance>none</fielddominance>
                            <width>1920</width>
                            <height>1080</height>
                          </samplecharacteristics>
                        </video>
                      </media>
                    </file>
                  </clipitem>
                </track>
              </video>
            </media>
          </clip>
          <clip explodedTracks="true" frameBlend="FALSE" id="masterclip-256">
            <uuid>dbd99255-44a4-40b9-85b0-c116945ea8e7</uuid>
            <masterclipid>masterclip-256</masterclipid>
            <ismasterclip>TRUE</ismasterclip>
            <duration>672</duration>
            <in>0</in>
            <out>672</out>
            <name>Scene - LJ visemes.254.png</name>
            <rate>
              <timebase>24</timebase>
              <ntsc>FALSE</ntsc>
            </rate>
            <media>
              <video>
                <track>
                  <clipitem frameBlend="FALSE" id="clipitem-257">
                    <name>Scene - LJ visemes.254.png</name>
                    <masterclipid>masterclip-256</masterclipid>
                    <rate>
                      <timebase>24</timebase>
                      <ntsc>FALSE</ntsc>
                    </rate>
                    <alphatype>straight</alphatype>
                    <pixelaspectratio>square</pixelaspectratio>
                    <anamorphic>FALSE</anamorphic>
                    <file id="file-256">
                      <name>Scene - LJ visemes.254.png</name>
                      <pathurl>file://localhost/Users/bot/Documents/CREATE/Character Animator/LJ visemes CH2AE/demo/Scene - LJ visemes/Scene - LJ visemes.254.png</pathurl>
                      <rate>
                        <timebase>24</timebase>
                        <ntsc>FALSE</ntsc>
                      </rate>
                      <duration>672</duration>
                      <timecode>
                        <rate>
                          <timebase>24</timebase>
                          <ntsc>FALSE</ntsc>
                        </rate>
                      </timecode>
                      <media>
                        <video>
                          <duration>1</duration>
                          <samplecharacteristics>
                            <anamorphic>FALSE</anamorphic>
                            <pixelaspectratio>square</pixelaspectratio>
                            <fielddominance>none</fielddominance>
                            <width>1920</width>
                            <height>1080</height>
                          </samplecharacteristics>
                        </video>
                      </media>
                    </file>
                  </clipitem>
                </track>
              </video>
            </media>
          </clip>
          <clip explodedTracks="true" frameBlend="FALSE" id="masterclip-257">
            <uuid>d1bf8dea-c559-4104-ac4c-a54c1265f938</uuid>
            <masterclipid>masterclip-257</masterclipid>
            <ismasterclip>TRUE</ismasterclip>
            <duration>672</duration>
            <in>0</in>
            <out>672</out>
            <name>Scene - LJ visemes.255.png</name>
            <rate>
              <timebase>24</timebase>
              <ntsc>FALSE</ntsc>
            </rate>
            <media>
              <video>
                <track>
                  <clipitem frameBlend="FALSE" id="clipitem-258">
                    <name>Scene - LJ visemes.255.png</name>
                    <masterclipid>masterclip-257</masterclipid>
                    <rate>
                      <timebase>24</timebase>
                      <ntsc>FALSE</ntsc>
                    </rate>
                    <alphatype>straight</alphatype>
                    <pixelaspectratio>square</pixelaspectratio>
                    <anamorphic>FALSE</anamorphic>
                    <file id="file-257">
                      <name>Scene - LJ visemes.255.png</name>
                      <pathurl>file://localhost/Users/bot/Documents/CREATE/Character Animator/LJ visemes CH2AE/demo/Scene - LJ visemes/Scene - LJ visemes.255.png</pathurl>
                      <rate>
                        <timebase>24</timebase>
                        <ntsc>FALSE</ntsc>
                      </rate>
                      <duration>672</duration>
                      <timecode>
                        <rate>
                          <timebase>24</timebase>
                          <ntsc>FALSE</ntsc>
                        </rate>
                      </timecode>
                      <media>
                        <video>
                          <duration>1</duration>
                          <samplecharacteristics>
                            <anamorphic>FALSE</anamorphic>
                            <pixelaspectratio>square</pixelaspectratio>
                            <fielddominance>none</fielddominance>
                            <width>1920</width>
                            <height>1080</height>
                          </samplecharacteristics>
                        </video>
                      </media>
                    </file>
                  </clipitem>
                </track>
              </video>
            </media>
          </clip>
          <clip explodedTracks="true" frameBlend="FALSE" id="masterclip-258">
            <uuid>607b3c86-142d-4080-8eea-6e915e43a305</uuid>
            <masterclipid>masterclip-258</masterclipid>
            <ismasterclip>TRUE</ismasterclip>
            <duration>672</duration>
            <in>0</in>
            <out>672</out>
            <name>Scene - LJ visemes.256.png</name>
            <rate>
              <timebase>24</timebase>
              <ntsc>FALSE</ntsc>
            </rate>
            <media>
              <video>
                <track>
                  <clipitem frameBlend="FALSE" id="clipitem-259">
                    <name>Scene - LJ visemes.256.png</name>
                    <masterclipid>masterclip-258</masterclipid>
                    <rate>
                      <timebase>24</timebase>
                      <ntsc>FALSE</ntsc>
                    </rate>
                    <alphatype>straight</alphatype>
                    <pixelaspectratio>square</pixelaspectratio>
                    <anamorphic>FALSE</anamorphic>
                    <file id="file-258">
                      <name>Scene - LJ visemes.256.png</name>
                      <pathurl>file://localhost/Users/bot/Documents/CREATE/Character Animator/LJ visemes CH2AE/demo/Scene - LJ visemes/Scene - LJ visemes.256.png</pathurl>
                      <rate>
                        <timebase>24</timebase>
                        <ntsc>FALSE</ntsc>
                      </rate>
                      <duration>672</duration>
                      <timecode>
                        <rate>
                          <timebase>24</timebase>
                          <ntsc>FALSE</ntsc>
                        </rate>
                      </timecode>
                      <media>
                        <video>
                          <duration>1</duration>
                          <samplecharacteristics>
                            <anamorphic>FALSE</anamorphic>
                            <pixelaspectratio>square</pixelaspectratio>
                            <fielddominance>none</fielddominance>
                            <width>1920</width>
                            <height>1080</height>
                          </samplecharacteristics>
                        </video>
                      </media>
                    </file>
                  </clipitem>
                </track>
              </video>
            </media>
          </clip>
          <clip explodedTracks="true" frameBlend="FALSE" id="masterclip-259">
            <uuid>c8d4ef42-e239-4b0b-a498-1094db40084c</uuid>
            <masterclipid>masterclip-259</masterclipid>
            <ismasterclip>TRUE</ismasterclip>
            <duration>672</duration>
            <in>0</in>
            <out>672</out>
            <name>Scene - LJ visemes.257.png</name>
            <rate>
              <timebase>24</timebase>
              <ntsc>FALSE</ntsc>
            </rate>
            <media>
              <video>
                <track>
                  <clipitem frameBlend="FALSE" id="clipitem-260">
                    <name>Scene - LJ visemes.257.png</name>
                    <masterclipid>masterclip-259</masterclipid>
                    <rate>
                      <timebase>24</timebase>
                      <ntsc>FALSE</ntsc>
                    </rate>
                    <alphatype>straight</alphatype>
                    <pixelaspectratio>square</pixelaspectratio>
                    <anamorphic>FALSE</anamorphic>
                    <file id="file-259">
                      <name>Scene - LJ visemes.257.png</name>
                      <pathurl>file://localhost/Users/bot/Documents/CREATE/Character Animator/LJ visemes CH2AE/demo/Scene - LJ visemes/Scene - LJ visemes.257.png</pathurl>
                      <rate>
                        <timebase>24</timebase>
                        <ntsc>FALSE</ntsc>
                      </rate>
                      <duration>672</duration>
                      <timecode>
                        <rate>
                          <timebase>24</timebase>
                          <ntsc>FALSE</ntsc>
                        </rate>
                      </timecode>
                      <media>
                        <video>
                          <duration>1</duration>
                          <samplecharacteristics>
                            <anamorphic>FALSE</anamorphic>
                            <pixelaspectratio>square</pixelaspectratio>
                            <fielddominance>none</fielddominance>
                            <width>1920</width>
                            <height>1080</height>
                          </samplecharacteristics>
                        </video>
                      </media>
                    </file>
                  </clipitem>
                </track>
              </video>
            </media>
          </clip>
          <clip explodedTracks="true" frameBlend="FALSE" id="masterclip-260">
            <uuid>df69f67a-6385-404c-9f1e-4c0c10c65b95</uuid>
            <masterclipid>masterclip-260</masterclipid>
            <ismasterclip>TRUE</ismasterclip>
            <duration>672</duration>
            <in>0</in>
            <out>672</out>
            <name>Scene - LJ visemes.258.png</name>
            <rate>
              <timebase>24</timebase>
              <ntsc>FALSE</ntsc>
            </rate>
            <media>
              <video>
                <track>
                  <clipitem frameBlend="FALSE" id="clipitem-261">
                    <name>Scene - LJ visemes.258.png</name>
                    <masterclipid>masterclip-260</masterclipid>
                    <rate>
                      <timebase>24</timebase>
                      <ntsc>FALSE</ntsc>
                    </rate>
                    <alphatype>straight</alphatype>
                    <pixelaspectratio>square</pixelaspectratio>
                    <anamorphic>FALSE</anamorphic>
                    <file id="file-260">
                      <name>Scene - LJ visemes.258.png</name>
                      <pathurl>file://localhost/Users/bot/Documents/CREATE/Character Animator/LJ visemes CH2AE/demo/Scene - LJ visemes/Scene - LJ visemes.258.png</pathurl>
                      <rate>
                        <timebase>24</timebase>
                        <ntsc>FALSE</ntsc>
                      </rate>
                      <duration>672</duration>
                      <timecode>
                        <rate>
                          <timebase>24</timebase>
                          <ntsc>FALSE</ntsc>
                        </rate>
                      </timecode>
                      <media>
                        <video>
                          <duration>1</duration>
                          <samplecharacteristics>
                            <anamorphic>FALSE</anamorphic>
                            <pixelaspectratio>square</pixelaspectratio>
                            <fielddominance>none</fielddominance>
                            <width>1920</width>
                            <height>1080</height>
                          </samplecharacteristics>
                        </video>
                      </media>
                    </file>
                  </clipitem>
                </track>
              </video>
            </media>
          </clip>
          <clip explodedTracks="true" frameBlend="FALSE" id="masterclip-261">
            <uuid>455eeefc-9f70-467c-8999-d285e9228bff</uuid>
            <masterclipid>masterclip-261</masterclipid>
            <ismasterclip>TRUE</ismasterclip>
            <duration>672</duration>
            <in>0</in>
            <out>672</out>
            <name>Scene - LJ visemes.259.png</name>
            <rate>
              <timebase>24</timebase>
              <ntsc>FALSE</ntsc>
            </rate>
            <media>
              <video>
                <track>
                  <clipitem frameBlend="FALSE" id="clipitem-262">
                    <name>Scene - LJ visemes.259.png</name>
                    <masterclipid>masterclip-261</masterclipid>
                    <rate>
                      <timebase>24</timebase>
                      <ntsc>FALSE</ntsc>
                    </rate>
                    <alphatype>straight</alphatype>
                    <pixelaspectratio>square</pixelaspectratio>
                    <anamorphic>FALSE</anamorphic>
                    <file id="file-261">
                      <name>Scene - LJ visemes.259.png</name>
                      <pathurl>file://localhost/Users/bot/Documents/CREATE/Character Animator/LJ visemes CH2AE/demo/Scene - LJ visemes/Scene - LJ visemes.259.png</pathurl>
                      <rate>
                        <timebase>24</timebase>
                        <ntsc>FALSE</ntsc>
                      </rate>
                      <duration>672</duration>
                      <timecode>
                        <rate>
                          <timebase>24</timebase>
                          <ntsc>FALSE</ntsc>
                        </rate>
                      </timecode>
                      <media>
                        <video>
                          <duration>1</duration>
                          <samplecharacteristics>
                            <anamorphic>FALSE</anamorphic>
                            <pixelaspectratio>square</pixelaspectratio>
                            <fielddominance>none</fielddominance>
                            <width>1920</width>
                            <height>1080</height>
                          </samplecharacteristics>
                        </video>
                      </media>
                    </file>
                  </clipitem>
                </track>
              </video>
            </media>
          </clip>
          <clip explodedTracks="true" frameBlend="FALSE" id="masterclip-262">
            <uuid>f857b4a6-9abe-4cca-8496-10646e8709df</uuid>
            <masterclipid>masterclip-262</masterclipid>
            <ismasterclip>TRUE</ismasterclip>
            <duration>672</duration>
            <in>0</in>
            <out>672</out>
            <name>Scene - LJ visemes.260.png</name>
            <rate>
              <timebase>24</timebase>
              <ntsc>FALSE</ntsc>
            </rate>
            <media>
              <video>
                <track>
                  <clipitem frameBlend="FALSE" id="clipitem-263">
                    <name>Scene - LJ visemes.260.png</name>
                    <masterclipid>masterclip-262</masterclipid>
                    <rate>
                      <timebase>24</timebase>
                      <ntsc>FALSE</ntsc>
                    </rate>
                    <alphatype>straight</alphatype>
                    <pixelaspectratio>square</pixelaspectratio>
                    <anamorphic>FALSE</anamorphic>
                    <file id="file-262">
                      <name>Scene - LJ visemes.260.png</name>
                      <pathurl>file://localhost/Users/bot/Documents/CREATE/Character Animator/LJ visemes CH2AE/demo/Scene - LJ visemes/Scene - LJ visemes.260.png</pathurl>
                      <rate>
                        <timebase>24</timebase>
                        <ntsc>FALSE</ntsc>
                      </rate>
                      <duration>672</duration>
                      <timecode>
                        <rate>
                          <timebase>24</timebase>
                          <ntsc>FALSE</ntsc>
                        </rate>
                      </timecode>
                      <media>
                        <video>
                          <duration>1</duration>
                          <samplecharacteristics>
                            <anamorphic>FALSE</anamorphic>
                            <pixelaspectratio>square</pixelaspectratio>
                            <fielddominance>none</fielddominance>
                            <width>1920</width>
                            <height>1080</height>
                          </samplecharacteristics>
                        </video>
                      </media>
                    </file>
                  </clipitem>
                </track>
              </video>
            </media>
          </clip>
          <clip explodedTracks="true" frameBlend="FALSE" id="masterclip-263">
            <uuid>08c4ef89-f01b-49cd-a8a3-acaeb641591c</uuid>
            <masterclipid>masterclip-263</masterclipid>
            <ismasterclip>TRUE</ismasterclip>
            <duration>672</duration>
            <in>0</in>
            <out>672</out>
            <name>Scene - LJ visemes.261.png</name>
            <rate>
              <timebase>24</timebase>
              <ntsc>FALSE</ntsc>
            </rate>
            <media>
              <video>
                <track>
                  <clipitem frameBlend="FALSE" id="clipitem-264">
                    <name>Scene - LJ visemes.261.png</name>
                    <masterclipid>masterclip-263</masterclipid>
                    <rate>
                      <timebase>24</timebase>
                      <ntsc>FALSE</ntsc>
                    </rate>
                    <alphatype>straight</alphatype>
                    <pixelaspectratio>square</pixelaspectratio>
                    <anamorphic>FALSE</anamorphic>
                    <file id="file-263">
                      <name>Scene - LJ visemes.261.png</name>
                      <pathurl>file://localhost/Users/bot/Documents/CREATE/Character Animator/LJ visemes CH2AE/demo/Scene - LJ visemes/Scene - LJ visemes.261.png</pathurl>
                      <rate>
                        <timebase>24</timebase>
                        <ntsc>FALSE</ntsc>
                      </rate>
                      <duration>672</duration>
                      <timecode>
                        <rate>
                          <timebase>24</timebase>
                          <ntsc>FALSE</ntsc>
                        </rate>
                      </timecode>
                      <media>
                        <video>
                          <duration>1</duration>
                          <samplecharacteristics>
                            <anamorphic>FALSE</anamorphic>
                            <pixelaspectratio>square</pixelaspectratio>
                            <fielddominance>none</fielddominance>
                            <width>1920</width>
                            <height>1080</height>
                          </samplecharacteristics>
                        </video>
                      </media>
                    </file>
                  </clipitem>
                </track>
              </video>
            </media>
          </clip>
          <clip explodedTracks="true" frameBlend="FALSE" id="masterclip-264">
            <uuid>06298f92-3a39-417d-a192-1af5203a1868</uuid>
            <masterclipid>masterclip-264</masterclipid>
            <ismasterclip>TRUE</ismasterclip>
            <duration>672</duration>
            <in>0</in>
            <out>672</out>
            <name>Scene - LJ visemes.262.png</name>
            <rate>
              <timebase>24</timebase>
              <ntsc>FALSE</ntsc>
            </rate>
            <media>
              <video>
                <track>
                  <clipitem frameBlend="FALSE" id="clipitem-265">
                    <name>Scene - LJ visemes.262.png</name>
                    <masterclipid>masterclip-264</masterclipid>
                    <rate>
                      <timebase>24</timebase>
                      <ntsc>FALSE</ntsc>
                    </rate>
                    <alphatype>straight</alphatype>
                    <pixelaspectratio>square</pixelaspectratio>
                    <anamorphic>FALSE</anamorphic>
                    <file id="file-264">
                      <name>Scene - LJ visemes.262.png</name>
                      <pathurl>file://localhost/Users/bot/Documents/CREATE/Character Animator/LJ visemes CH2AE/demo/Scene - LJ visemes/Scene - LJ visemes.262.png</pathurl>
                      <rate>
                        <timebase>24</timebase>
                        <ntsc>FALSE</ntsc>
                      </rate>
                      <duration>672</duration>
                      <timecode>
                        <rate>
                          <timebase>24</timebase>
                          <ntsc>FALSE</ntsc>
                        </rate>
                      </timecode>
                      <media>
                        <video>
                          <duration>1</duration>
                          <samplecharacteristics>
                            <anamorphic>FALSE</anamorphic>
                            <pixelaspectratio>square</pixelaspectratio>
                            <fielddominance>none</fielddominance>
                            <width>1920</width>
                            <height>1080</height>
                          </samplecharacteristics>
                        </video>
                      </media>
                    </file>
                  </clipitem>
                </track>
              </video>
            </media>
          </clip>
          <clip explodedTracks="true" frameBlend="FALSE" id="masterclip-265">
            <uuid>42427397-939b-4de2-8bd4-e10275670af1</uuid>
            <masterclipid>masterclip-265</masterclipid>
            <ismasterclip>TRUE</ismasterclip>
            <duration>672</duration>
            <in>0</in>
            <out>672</out>
            <name>Scene - LJ visemes.263.png</name>
            <rate>
              <timebase>24</timebase>
              <ntsc>FALSE</ntsc>
            </rate>
            <media>
              <video>
                <track>
                  <clipitem frameBlend="FALSE" id="clipitem-266">
                    <name>Scene - LJ visemes.263.png</name>
                    <masterclipid>masterclip-265</masterclipid>
                    <rate>
                      <timebase>24</timebase>
                      <ntsc>FALSE</ntsc>
                    </rate>
                    <alphatype>straight</alphatype>
                    <pixelaspectratio>square</pixelaspectratio>
                    <anamorphic>FALSE</anamorphic>
                    <file id="file-265">
                      <name>Scene - LJ visemes.263.png</name>
                      <pathurl>file://localhost/Users/bot/Documents/CREATE/Character Animator/LJ visemes CH2AE/demo/Scene - LJ visemes/Scene - LJ visemes.263.png</pathurl>
                      <rate>
                        <timebase>24</timebase>
                        <ntsc>FALSE</ntsc>
                      </rate>
                      <duration>672</duration>
                      <timecode>
                        <rate>
                          <timebase>24</timebase>
                          <ntsc>FALSE</ntsc>
                        </rate>
                      </timecode>
                      <media>
                        <video>
                          <duration>1</duration>
                          <samplecharacteristics>
                            <anamorphic>FALSE</anamorphic>
                            <pixelaspectratio>square</pixelaspectratio>
                            <fielddominance>none</fielddominance>
                            <width>1920</width>
                            <height>1080</height>
                          </samplecharacteristics>
                        </video>
                      </media>
                    </file>
                  </clipitem>
                </track>
              </video>
            </media>
          </clip>
          <clip explodedTracks="true" frameBlend="FALSE" id="masterclip-266">
            <uuid>219b71e2-0883-4b21-afa8-ca3c80fc0a9a</uuid>
            <masterclipid>masterclip-266</masterclipid>
            <ismasterclip>TRUE</ismasterclip>
            <duration>672</duration>
            <in>0</in>
            <out>672</out>
            <name>Scene - LJ visemes.264.png</name>
            <rate>
              <timebase>24</timebase>
              <ntsc>FALSE</ntsc>
            </rate>
            <media>
              <video>
                <track>
                  <clipitem frameBlend="FALSE" id="clipitem-267">
                    <name>Scene - LJ visemes.264.png</name>
                    <masterclipid>masterclip-266</masterclipid>
                    <rate>
                      <timebase>24</timebase>
                      <ntsc>FALSE</ntsc>
                    </rate>
                    <alphatype>straight</alphatype>
                    <pixelaspectratio>square</pixelaspectratio>
                    <anamorphic>FALSE</anamorphic>
                    <file id="file-266">
                      <name>Scene - LJ visemes.264.png</name>
                      <pathurl>file://localhost/Users/bot/Documents/CREATE/Character Animator/LJ visemes CH2AE/demo/Scene - LJ visemes/Scene - LJ visemes.264.png</pathurl>
                      <rate>
                        <timebase>24</timebase>
                        <ntsc>FALSE</ntsc>
                      </rate>
                      <duration>672</duration>
                      <timecode>
                        <rate>
                          <timebase>24</timebase>
                          <ntsc>FALSE</ntsc>
                        </rate>
                      </timecode>
                      <media>
                        <video>
                          <duration>1</duration>
                          <samplecharacteristics>
                            <anamorphic>FALSE</anamorphic>
                            <pixelaspectratio>square</pixelaspectratio>
                            <fielddominance>none</fielddominance>
                            <width>1920</width>
                            <height>1080</height>
                          </samplecharacteristics>
                        </video>
                      </media>
                    </file>
                  </clipitem>
                </track>
              </video>
            </media>
          </clip>
          <clip explodedTracks="true" frameBlend="FALSE" id="masterclip-267">
            <uuid>d22478dd-d405-40f8-9fb1-80b72ab75da9</uuid>
            <masterclipid>masterclip-267</masterclipid>
            <ismasterclip>TRUE</ismasterclip>
            <duration>672</duration>
            <in>0</in>
            <out>672</out>
            <name>Scene - LJ visemes.265.png</name>
            <rate>
              <timebase>24</timebase>
              <ntsc>FALSE</ntsc>
            </rate>
            <media>
              <video>
                <track>
                  <clipitem frameBlend="FALSE" id="clipitem-268">
                    <name>Scene - LJ visemes.265.png</name>
                    <masterclipid>masterclip-267</masterclipid>
                    <rate>
                      <timebase>24</timebase>
                      <ntsc>FALSE</ntsc>
                    </rate>
                    <alphatype>straight</alphatype>
                    <pixelaspectratio>square</pixelaspectratio>
                    <anamorphic>FALSE</anamorphic>
                    <file id="file-267">
                      <name>Scene - LJ visemes.265.png</name>
                      <pathurl>file://localhost/Users/bot/Documents/CREATE/Character Animator/LJ visemes CH2AE/demo/Scene - LJ visemes/Scene - LJ visemes.265.png</pathurl>
                      <rate>
                        <timebase>24</timebase>
                        <ntsc>FALSE</ntsc>
                      </rate>
                      <duration>672</duration>
                      <timecode>
                        <rate>
                          <timebase>24</timebase>
                          <ntsc>FALSE</ntsc>
                        </rate>
                      </timecode>
                      <media>
                        <video>
                          <duration>1</duration>
                          <samplecharacteristics>
                            <anamorphic>FALSE</anamorphic>
                            <pixelaspectratio>square</pixelaspectratio>
                            <fielddominance>none</fielddominance>
                            <width>1920</width>
                            <height>1080</height>
                          </samplecharacteristics>
                        </video>
                      </media>
                    </file>
                  </clipitem>
                </track>
              </video>
            </media>
          </clip>
          <clip explodedTracks="true" frameBlend="FALSE" id="masterclip-268">
            <uuid>9bb86dbf-dad0-4cc2-b133-286279e6b2c5</uuid>
            <masterclipid>masterclip-268</masterclipid>
            <ismasterclip>TRUE</ismasterclip>
            <duration>672</duration>
            <in>0</in>
            <out>672</out>
            <name>Scene - LJ visemes.266.png</name>
            <rate>
              <timebase>24</timebase>
              <ntsc>FALSE</ntsc>
            </rate>
            <media>
              <video>
                <track>
                  <clipitem frameBlend="FALSE" id="clipitem-269">
                    <name>Scene - LJ visemes.266.png</name>
                    <masterclipid>masterclip-268</masterclipid>
                    <rate>
                      <timebase>24</timebase>
                      <ntsc>FALSE</ntsc>
                    </rate>
                    <alphatype>straight</alphatype>
                    <pixelaspectratio>square</pixelaspectratio>
                    <anamorphic>FALSE</anamorphic>
                    <file id="file-268">
                      <name>Scene - LJ visemes.266.png</name>
                      <pathurl>file://localhost/Users/bot/Documents/CREATE/Character Animator/LJ visemes CH2AE/demo/Scene - LJ visemes/Scene - LJ visemes.266.png</pathurl>
                      <rate>
                        <timebase>24</timebase>
                        <ntsc>FALSE</ntsc>
                      </rate>
                      <duration>672</duration>
                      <timecode>
                        <rate>
                          <timebase>24</timebase>
                          <ntsc>FALSE</ntsc>
                        </rate>
                      </timecode>
                      <media>
                        <video>
                          <duration>1</duration>
                          <samplecharacteristics>
                            <anamorphic>FALSE</anamorphic>
                            <pixelaspectratio>square</pixelaspectratio>
                            <fielddominance>none</fielddominance>
                            <width>1920</width>
                            <height>1080</height>
                          </samplecharacteristics>
                        </video>
                      </media>
                    </file>
                  </clipitem>
                </track>
              </video>
            </media>
          </clip>
          <clip explodedTracks="true" frameBlend="FALSE" id="masterclip-269">
            <uuid>d9790ca4-41fd-43a1-b46e-5e8f32a1ebdd</uuid>
            <masterclipid>masterclip-269</masterclipid>
            <ismasterclip>TRUE</ismasterclip>
            <duration>672</duration>
            <in>0</in>
            <out>672</out>
            <name>Scene - LJ visemes.267.png</name>
            <rate>
              <timebase>24</timebase>
              <ntsc>FALSE</ntsc>
            </rate>
            <media>
              <video>
                <track>
                  <clipitem frameBlend="FALSE" id="clipitem-270">
                    <name>Scene - LJ visemes.267.png</name>
                    <masterclipid>masterclip-269</masterclipid>
                    <rate>
                      <timebase>24</timebase>
                      <ntsc>FALSE</ntsc>
                    </rate>
                    <alphatype>straight</alphatype>
                    <pixelaspectratio>square</pixelaspectratio>
                    <anamorphic>FALSE</anamorphic>
                    <file id="file-269">
                      <name>Scene - LJ visemes.267.png</name>
                      <pathurl>file://localhost/Users/bot/Documents/CREATE/Character Animator/LJ visemes CH2AE/demo/Scene - LJ visemes/Scene - LJ visemes.267.png</pathurl>
                      <rate>
                        <timebase>24</timebase>
                        <ntsc>FALSE</ntsc>
                      </rate>
                      <duration>672</duration>
                      <timecode>
                        <rate>
                          <timebase>24</timebase>
                          <ntsc>FALSE</ntsc>
                        </rate>
                      </timecode>
                      <media>
                        <video>
                          <duration>1</duration>
                          <samplecharacteristics>
                            <anamorphic>FALSE</anamorphic>
                            <pixelaspectratio>square</pixelaspectratio>
                            <fielddominance>none</fielddominance>
                            <width>1920</width>
                            <height>1080</height>
                          </samplecharacteristics>
                        </video>
                      </media>
                    </file>
                  </clipitem>
                </track>
              </video>
            </media>
          </clip>
          <clip explodedTracks="true" frameBlend="FALSE" id="masterclip-270">
            <uuid>dd76f668-2752-4e5e-a111-1eed86347e33</uuid>
            <masterclipid>masterclip-270</masterclipid>
            <ismasterclip>TRUE</ismasterclip>
            <duration>672</duration>
            <in>0</in>
            <out>672</out>
            <name>Scene - LJ visemes.268.png</name>
            <rate>
              <timebase>24</timebase>
              <ntsc>FALSE</ntsc>
            </rate>
            <media>
              <video>
                <track>
                  <clipitem frameBlend="FALSE" id="clipitem-271">
                    <name>Scene - LJ visemes.268.png</name>
                    <masterclipid>masterclip-270</masterclipid>
                    <rate>
                      <timebase>24</timebase>
                      <ntsc>FALSE</ntsc>
                    </rate>
                    <alphatype>straight</alphatype>
                    <pixelaspectratio>square</pixelaspectratio>
                    <anamorphic>FALSE</anamorphic>
                    <file id="file-270">
                      <name>Scene - LJ visemes.268.png</name>
                      <pathurl>file://localhost/Users/bot/Documents/CREATE/Character Animator/LJ visemes CH2AE/demo/Scene - LJ visemes/Scene - LJ visemes.268.png</pathurl>
                      <rate>
                        <timebase>24</timebase>
                        <ntsc>FALSE</ntsc>
                      </rate>
                      <duration>672</duration>
                      <timecode>
                        <rate>
                          <timebase>24</timebase>
                          <ntsc>FALSE</ntsc>
                        </rate>
                      </timecode>
                      <media>
                        <video>
                          <duration>1</duration>
                          <samplecharacteristics>
                            <anamorphic>FALSE</anamorphic>
                            <pixelaspectratio>square</pixelaspectratio>
                            <fielddominance>none</fielddominance>
                            <width>1920</width>
                            <height>1080</height>
                          </samplecharacteristics>
                        </video>
                      </media>
                    </file>
                  </clipitem>
                </track>
              </video>
            </media>
          </clip>
          <clip explodedTracks="true" frameBlend="FALSE" id="masterclip-271">
            <uuid>64cf2916-c35f-4dda-9699-80c6e7452257</uuid>
            <masterclipid>masterclip-271</masterclipid>
            <ismasterclip>TRUE</ismasterclip>
            <duration>672</duration>
            <in>0</in>
            <out>672</out>
            <name>Scene - LJ visemes.269.png</name>
            <rate>
              <timebase>24</timebase>
              <ntsc>FALSE</ntsc>
            </rate>
            <media>
              <video>
                <track>
                  <clipitem frameBlend="FALSE" id="clipitem-272">
                    <name>Scene - LJ visemes.269.png</name>
                    <masterclipid>masterclip-271</masterclipid>
                    <rate>
                      <timebase>24</timebase>
                      <ntsc>FALSE</ntsc>
                    </rate>
                    <alphatype>straight</alphatype>
                    <pixelaspectratio>square</pixelaspectratio>
                    <anamorphic>FALSE</anamorphic>
                    <file id="file-271">
                      <name>Scene - LJ visemes.269.png</name>
                      <pathurl>file://localhost/Users/bot/Documents/CREATE/Character Animator/LJ visemes CH2AE/demo/Scene - LJ visemes/Scene - LJ visemes.269.png</pathurl>
                      <rate>
                        <timebase>24</timebase>
                        <ntsc>FALSE</ntsc>
                      </rate>
                      <duration>672</duration>
                      <timecode>
                        <rate>
                          <timebase>24</timebase>
                          <ntsc>FALSE</ntsc>
                        </rate>
                      </timecode>
                      <media>
                        <video>
                          <duration>1</duration>
                          <samplecharacteristics>
                            <anamorphic>FALSE</anamorphic>
                            <pixelaspectratio>square</pixelaspectratio>
                            <fielddominance>none</fielddominance>
                            <width>1920</width>
                            <height>1080</height>
                          </samplecharacteristics>
                        </video>
                      </media>
                    </file>
                  </clipitem>
                </track>
              </video>
            </media>
          </clip>
          <clip explodedTracks="true" frameBlend="FALSE" id="masterclip-272">
            <uuid>32d5b1af-9287-46fe-b0e2-0edd2e4bf248</uuid>
            <masterclipid>masterclip-272</masterclipid>
            <ismasterclip>TRUE</ismasterclip>
            <duration>672</duration>
            <in>0</in>
            <out>672</out>
            <name>Scene - LJ visemes.270.png</name>
            <rate>
              <timebase>24</timebase>
              <ntsc>FALSE</ntsc>
            </rate>
            <media>
              <video>
                <track>
                  <clipitem frameBlend="FALSE" id="clipitem-273">
                    <name>Scene - LJ visemes.270.png</name>
                    <masterclipid>masterclip-272</masterclipid>
                    <rate>
                      <timebase>24</timebase>
                      <ntsc>FALSE</ntsc>
                    </rate>
                    <alphatype>straight</alphatype>
                    <pixelaspectratio>square</pixelaspectratio>
                    <anamorphic>FALSE</anamorphic>
                    <file id="file-272">
                      <name>Scene - LJ visemes.270.png</name>
                      <pathurl>file://localhost/Users/bot/Documents/CREATE/Character Animator/LJ visemes CH2AE/demo/Scene - LJ visemes/Scene - LJ visemes.270.png</pathurl>
                      <rate>
                        <timebase>24</timebase>
                        <ntsc>FALSE</ntsc>
                      </rate>
                      <duration>672</duration>
                      <timecode>
                        <rate>
                          <timebase>24</timebase>
                          <ntsc>FALSE</ntsc>
                        </rate>
                      </timecode>
                      <media>
                        <video>
                          <duration>1</duration>
                          <samplecharacteristics>
                            <anamorphic>FALSE</anamorphic>
                            <pixelaspectratio>square</pixelaspectratio>
                            <fielddominance>none</fielddominance>
                            <width>1920</width>
                            <height>1080</height>
                          </samplecharacteristics>
                        </video>
                      </media>
                    </file>
                  </clipitem>
                </track>
              </video>
            </media>
          </clip>
          <clip explodedTracks="true" frameBlend="FALSE" id="masterclip-273">
            <uuid>18ad675a-1a21-45de-ad67-03518754094f</uuid>
            <masterclipid>masterclip-273</masterclipid>
            <ismasterclip>TRUE</ismasterclip>
            <duration>672</duration>
            <in>0</in>
            <out>672</out>
            <name>Scene - LJ visemes.271.png</name>
            <rate>
              <timebase>24</timebase>
              <ntsc>FALSE</ntsc>
            </rate>
            <media>
              <video>
                <track>
                  <clipitem frameBlend="FALSE" id="clipitem-274">
                    <name>Scene - LJ visemes.271.png</name>
                    <masterclipid>masterclip-273</masterclipid>
                    <rate>
                      <timebase>24</timebase>
                      <ntsc>FALSE</ntsc>
                    </rate>
                    <alphatype>straight</alphatype>
                    <pixelaspectratio>square</pixelaspectratio>
                    <anamorphic>FALSE</anamorphic>
                    <file id="file-273">
                      <name>Scene - LJ visemes.271.png</name>
                      <pathurl>file://localhost/Users/bot/Documents/CREATE/Character Animator/LJ visemes CH2AE/demo/Scene - LJ visemes/Scene - LJ visemes.271.png</pathurl>
                      <rate>
                        <timebase>24</timebase>
                        <ntsc>FALSE</ntsc>
                      </rate>
                      <duration>672</duration>
                      <timecode>
                        <rate>
                          <timebase>24</timebase>
                          <ntsc>FALSE</ntsc>
                        </rate>
                      </timecode>
                      <media>
                        <video>
                          <duration>1</duration>
                          <samplecharacteristics>
                            <anamorphic>FALSE</anamorphic>
                            <pixelaspectratio>square</pixelaspectratio>
                            <fielddominance>none</fielddominance>
                            <width>1920</width>
                            <height>1080</height>
                          </samplecharacteristics>
                        </video>
                      </media>
                    </file>
                  </clipitem>
                </track>
              </video>
            </media>
          </clip>
          <clip explodedTracks="true" frameBlend="FALSE" id="masterclip-274">
            <uuid>339f9723-3249-411c-9357-f61f9f89f873</uuid>
            <masterclipid>masterclip-274</masterclipid>
            <ismasterclip>TRUE</ismasterclip>
            <duration>672</duration>
            <in>0</in>
            <out>672</out>
            <name>Scene - LJ visemes.272.png</name>
            <rate>
              <timebase>24</timebase>
              <ntsc>FALSE</ntsc>
            </rate>
            <media>
              <video>
                <track>
                  <clipitem frameBlend="FALSE" id="clipitem-275">
                    <name>Scene - LJ visemes.272.png</name>
                    <masterclipid>masterclip-274</masterclipid>
                    <rate>
                      <timebase>24</timebase>
                      <ntsc>FALSE</ntsc>
                    </rate>
                    <alphatype>straight</alphatype>
                    <pixelaspectratio>square</pixelaspectratio>
                    <anamorphic>FALSE</anamorphic>
                    <file id="file-274">
                      <name>Scene - LJ visemes.272.png</name>
                      <pathurl>file://localhost/Users/bot/Documents/CREATE/Character Animator/LJ visemes CH2AE/demo/Scene - LJ visemes/Scene - LJ visemes.272.png</pathurl>
                      <rate>
                        <timebase>24</timebase>
                        <ntsc>FALSE</ntsc>
                      </rate>
                      <duration>672</duration>
                      <timecode>
                        <rate>
                          <timebase>24</timebase>
                          <ntsc>FALSE</ntsc>
                        </rate>
                      </timecode>
                      <media>
                        <video>
                          <duration>1</duration>
                          <samplecharacteristics>
                            <anamorphic>FALSE</anamorphic>
                            <pixelaspectratio>square</pixelaspectratio>
                            <fielddominance>none</fielddominance>
                            <width>1920</width>
                            <height>1080</height>
                          </samplecharacteristics>
                        </video>
                      </media>
                    </file>
                  </clipitem>
                </track>
              </video>
            </media>
          </clip>
          <clip explodedTracks="true" frameBlend="FALSE" id="masterclip-275">
            <uuid>013de4ae-d6a8-4bde-81c9-349ec12ebe4a</uuid>
            <masterclipid>masterclip-275</masterclipid>
            <ismasterclip>TRUE</ismasterclip>
            <duration>672</duration>
            <in>0</in>
            <out>672</out>
            <name>Scene - LJ visemes.273.png</name>
            <rate>
              <timebase>24</timebase>
              <ntsc>FALSE</ntsc>
            </rate>
            <media>
              <video>
                <track>
                  <clipitem frameBlend="FALSE" id="clipitem-276">
                    <name>Scene - LJ visemes.273.png</name>
                    <masterclipid>masterclip-275</masterclipid>
                    <rate>
                      <timebase>24</timebase>
                      <ntsc>FALSE</ntsc>
                    </rate>
                    <alphatype>straight</alphatype>
                    <pixelaspectratio>square</pixelaspectratio>
                    <anamorphic>FALSE</anamorphic>
                    <file id="file-275">
                      <name>Scene - LJ visemes.273.png</name>
                      <pathurl>file://localhost/Users/bot/Documents/CREATE/Character Animator/LJ visemes CH2AE/demo/Scene - LJ visemes/Scene - LJ visemes.273.png</pathurl>
                      <rate>
                        <timebase>24</timebase>
                        <ntsc>FALSE</ntsc>
                      </rate>
                      <duration>672</duration>
                      <timecode>
                        <rate>
                          <timebase>24</timebase>
                          <ntsc>FALSE</ntsc>
                        </rate>
                      </timecode>
                      <media>
                        <video>
                          <duration>1</duration>
                          <samplecharacteristics>
                            <anamorphic>FALSE</anamorphic>
                            <pixelaspectratio>square</pixelaspectratio>
                            <fielddominance>none</fielddominance>
                            <width>1920</width>
                            <height>1080</height>
                          </samplecharacteristics>
                        </video>
                      </media>
                    </file>
                  </clipitem>
                </track>
              </video>
            </media>
          </clip>
          <clip explodedTracks="true" frameBlend="FALSE" id="masterclip-276">
            <uuid>697518e0-67e4-4184-a042-a975c934ab4b</uuid>
            <masterclipid>masterclip-276</masterclipid>
            <ismasterclip>TRUE</ismasterclip>
            <duration>672</duration>
            <in>0</in>
            <out>672</out>
            <name>Scene - LJ visemes.274.png</name>
            <rate>
              <timebase>24</timebase>
              <ntsc>FALSE</ntsc>
            </rate>
            <media>
              <video>
                <track>
                  <clipitem frameBlend="FALSE" id="clipitem-277">
                    <name>Scene - LJ visemes.274.png</name>
                    <masterclipid>masterclip-276</masterclipid>
                    <rate>
                      <timebase>24</timebase>
                      <ntsc>FALSE</ntsc>
                    </rate>
                    <alphatype>straight</alphatype>
                    <pixelaspectratio>square</pixelaspectratio>
                    <anamorphic>FALSE</anamorphic>
                    <file id="file-276">
                      <name>Scene - LJ visemes.274.png</name>
                      <pathurl>file://localhost/Users/bot/Documents/CREATE/Character Animator/LJ visemes CH2AE/demo/Scene - LJ visemes/Scene - LJ visemes.274.png</pathurl>
                      <rate>
                        <timebase>24</timebase>
                        <ntsc>FALSE</ntsc>
                      </rate>
                      <duration>672</duration>
                      <timecode>
                        <rate>
                          <timebase>24</timebase>
                          <ntsc>FALSE</ntsc>
                        </rate>
                      </timecode>
                      <media>
                        <video>
                          <duration>1</duration>
                          <samplecharacteristics>
                            <anamorphic>FALSE</anamorphic>
                            <pixelaspectratio>square</pixelaspectratio>
                            <fielddominance>none</fielddominance>
                            <width>1920</width>
                            <height>1080</height>
                          </samplecharacteristics>
                        </video>
                      </media>
                    </file>
                  </clipitem>
                </track>
              </video>
            </media>
          </clip>
          <clip explodedTracks="true" frameBlend="FALSE" id="masterclip-277">
            <uuid>0927b5c8-af0a-4626-b47b-1bb227b3454e</uuid>
            <masterclipid>masterclip-277</masterclipid>
            <ismasterclip>TRUE</ismasterclip>
            <duration>672</duration>
            <in>0</in>
            <out>672</out>
            <name>Scene - LJ visemes.275.png</name>
            <rate>
              <timebase>24</timebase>
              <ntsc>FALSE</ntsc>
            </rate>
            <media>
              <video>
                <track>
                  <clipitem frameBlend="FALSE" id="clipitem-278">
                    <name>Scene - LJ visemes.275.png</name>
                    <masterclipid>masterclip-277</masterclipid>
                    <rate>
                      <timebase>24</timebase>
                      <ntsc>FALSE</ntsc>
                    </rate>
                    <alphatype>straight</alphatype>
                    <pixelaspectratio>square</pixelaspectratio>
                    <anamorphic>FALSE</anamorphic>
                    <file id="file-277">
                      <name>Scene - LJ visemes.275.png</name>
                      <pathurl>file://localhost/Users/bot/Documents/CREATE/Character Animator/LJ visemes CH2AE/demo/Scene - LJ visemes/Scene - LJ visemes.275.png</pathurl>
                      <rate>
                        <timebase>24</timebase>
                        <ntsc>FALSE</ntsc>
                      </rate>
                      <duration>672</duration>
                      <timecode>
                        <rate>
                          <timebase>24</timebase>
                          <ntsc>FALSE</ntsc>
                        </rate>
                      </timecode>
                      <media>
                        <video>
                          <duration>1</duration>
                          <samplecharacteristics>
                            <anamorphic>FALSE</anamorphic>
                            <pixelaspectratio>square</pixelaspectratio>
                            <fielddominance>none</fielddominance>
                            <width>1920</width>
                            <height>1080</height>
                          </samplecharacteristics>
                        </video>
                      </media>
                    </file>
                  </clipitem>
                </track>
              </video>
            </media>
          </clip>
          <clip explodedTracks="true" frameBlend="FALSE" id="masterclip-278">
            <uuid>7e60b171-54ad-4666-bd2b-9e5a4f042adf</uuid>
            <masterclipid>masterclip-278</masterclipid>
            <ismasterclip>TRUE</ismasterclip>
            <duration>672</duration>
            <in>0</in>
            <out>672</out>
            <name>Scene - LJ visemes.276.png</name>
            <rate>
              <timebase>24</timebase>
              <ntsc>FALSE</ntsc>
            </rate>
            <media>
              <video>
                <track>
                  <clipitem frameBlend="FALSE" id="clipitem-279">
                    <name>Scene - LJ visemes.276.png</name>
                    <masterclipid>masterclip-278</masterclipid>
                    <rate>
                      <timebase>24</timebase>
                      <ntsc>FALSE</ntsc>
                    </rate>
                    <alphatype>straight</alphatype>
                    <pixelaspectratio>square</pixelaspectratio>
                    <anamorphic>FALSE</anamorphic>
                    <file id="file-278">
                      <name>Scene - LJ visemes.276.png</name>
                      <pathurl>file://localhost/Users/bot/Documents/CREATE/Character Animator/LJ visemes CH2AE/demo/Scene - LJ visemes/Scene - LJ visemes.276.png</pathurl>
                      <rate>
                        <timebase>24</timebase>
                        <ntsc>FALSE</ntsc>
                      </rate>
                      <duration>672</duration>
                      <timecode>
                        <rate>
                          <timebase>24</timebase>
                          <ntsc>FALSE</ntsc>
                        </rate>
                      </timecode>
                      <media>
                        <video>
                          <duration>1</duration>
                          <samplecharacteristics>
                            <anamorphic>FALSE</anamorphic>
                            <pixelaspectratio>square</pixelaspectratio>
                            <fielddominance>none</fielddominance>
                            <width>1920</width>
                            <height>1080</height>
                          </samplecharacteristics>
                        </video>
                      </media>
                    </file>
                  </clipitem>
                </track>
              </video>
            </media>
          </clip>
          <clip explodedTracks="true" frameBlend="FALSE" id="masterclip-279">
            <uuid>381b2859-fbae-4d94-b559-3fde3affa0d8</uuid>
            <masterclipid>masterclip-279</masterclipid>
            <ismasterclip>TRUE</ismasterclip>
            <duration>672</duration>
            <in>0</in>
            <out>672</out>
            <name>Scene - LJ visemes.277.png</name>
            <rate>
              <timebase>24</timebase>
              <ntsc>FALSE</ntsc>
            </rate>
            <media>
              <video>
                <track>
                  <clipitem frameBlend="FALSE" id="clipitem-280">
                    <name>Scene - LJ visemes.277.png</name>
                    <masterclipid>masterclip-279</masterclipid>
                    <rate>
                      <timebase>24</timebase>
                      <ntsc>FALSE</ntsc>
                    </rate>
                    <alphatype>straight</alphatype>
                    <pixelaspectratio>square</pixelaspectratio>
                    <anamorphic>FALSE</anamorphic>
                    <file id="file-279">
                      <name>Scene - LJ visemes.277.png</name>
                      <pathurl>file://localhost/Users/bot/Documents/CREATE/Character Animator/LJ visemes CH2AE/demo/Scene - LJ visemes/Scene - LJ visemes.277.png</pathurl>
                      <rate>
                        <timebase>24</timebase>
                        <ntsc>FALSE</ntsc>
                      </rate>
                      <duration>672</duration>
                      <timecode>
                        <rate>
                          <timebase>24</timebase>
                          <ntsc>FALSE</ntsc>
                        </rate>
                      </timecode>
                      <media>
                        <video>
                          <duration>1</duration>
                          <samplecharacteristics>
                            <anamorphic>FALSE</anamorphic>
                            <pixelaspectratio>square</pixelaspectratio>
                            <fielddominance>none</fielddominance>
                            <width>1920</width>
                            <height>1080</height>
                          </samplecharacteristics>
                        </video>
                      </media>
                    </file>
                  </clipitem>
                </track>
              </video>
            </media>
          </clip>
          <clip explodedTracks="true" frameBlend="FALSE" id="masterclip-280">
            <uuid>b087d336-1212-499b-bf77-332a75eb3f2d</uuid>
            <masterclipid>masterclip-280</masterclipid>
            <ismasterclip>TRUE</ismasterclip>
            <duration>672</duration>
            <in>0</in>
            <out>672</out>
            <name>Scene - LJ visemes.278.png</name>
            <rate>
              <timebase>24</timebase>
              <ntsc>FALSE</ntsc>
            </rate>
            <media>
              <video>
                <track>
                  <clipitem frameBlend="FALSE" id="clipitem-281">
                    <name>Scene - LJ visemes.278.png</name>
                    <masterclipid>masterclip-280</masterclipid>
                    <rate>
                      <timebase>24</timebase>
                      <ntsc>FALSE</ntsc>
                    </rate>
                    <alphatype>straight</alphatype>
                    <pixelaspectratio>square</pixelaspectratio>
                    <anamorphic>FALSE</anamorphic>
                    <file id="file-280">
                      <name>Scene - LJ visemes.278.png</name>
                      <pathurl>file://localhost/Users/bot/Documents/CREATE/Character Animator/LJ visemes CH2AE/demo/Scene - LJ visemes/Scene - LJ visemes.278.png</pathurl>
                      <rate>
                        <timebase>24</timebase>
                        <ntsc>FALSE</ntsc>
                      </rate>
                      <duration>672</duration>
                      <timecode>
                        <rate>
                          <timebase>24</timebase>
                          <ntsc>FALSE</ntsc>
                        </rate>
                      </timecode>
                      <media>
                        <video>
                          <duration>1</duration>
                          <samplecharacteristics>
                            <anamorphic>FALSE</anamorphic>
                            <pixelaspectratio>square</pixelaspectratio>
                            <fielddominance>none</fielddominance>
                            <width>1920</width>
                            <height>1080</height>
                          </samplecharacteristics>
                        </video>
                      </media>
                    </file>
                  </clipitem>
                </track>
              </video>
            </media>
          </clip>
          <clip explodedTracks="true" frameBlend="FALSE" id="masterclip-281">
            <uuid>6c006432-7932-4943-b3c9-c9ade38f767f</uuid>
            <masterclipid>masterclip-281</masterclipid>
            <ismasterclip>TRUE</ismasterclip>
            <duration>672</duration>
            <in>0</in>
            <out>672</out>
            <name>Scene - LJ visemes.279.png</name>
            <rate>
              <timebase>24</timebase>
              <ntsc>FALSE</ntsc>
            </rate>
            <media>
              <video>
                <track>
                  <clipitem frameBlend="FALSE" id="clipitem-282">
                    <name>Scene - LJ visemes.279.png</name>
                    <masterclipid>masterclip-281</masterclipid>
                    <rate>
                      <timebase>24</timebase>
                      <ntsc>FALSE</ntsc>
                    </rate>
                    <alphatype>straight</alphatype>
                    <pixelaspectratio>square</pixelaspectratio>
                    <anamorphic>FALSE</anamorphic>
                    <file id="file-281">
                      <name>Scene - LJ visemes.279.png</name>
                      <pathurl>file://localhost/Users/bot/Documents/CREATE/Character Animator/LJ visemes CH2AE/demo/Scene - LJ visemes/Scene - LJ visemes.279.png</pathurl>
                      <rate>
                        <timebase>24</timebase>
                        <ntsc>FALSE</ntsc>
                      </rate>
                      <duration>672</duration>
                      <timecode>
                        <rate>
                          <timebase>24</timebase>
                          <ntsc>FALSE</ntsc>
                        </rate>
                      </timecode>
                      <media>
                        <video>
                          <duration>1</duration>
                          <samplecharacteristics>
                            <anamorphic>FALSE</anamorphic>
                            <pixelaspectratio>square</pixelaspectratio>
                            <fielddominance>none</fielddominance>
                            <width>1920</width>
                            <height>1080</height>
                          </samplecharacteristics>
                        </video>
                      </media>
                    </file>
                  </clipitem>
                </track>
              </video>
            </media>
          </clip>
          <clip explodedTracks="true" frameBlend="FALSE" id="masterclip-282">
            <uuid>218ca4ad-b346-4a4e-8765-57642c56b4cb</uuid>
            <masterclipid>masterclip-282</masterclipid>
            <ismasterclip>TRUE</ismasterclip>
            <duration>672</duration>
            <in>0</in>
            <out>672</out>
            <name>Scene - LJ visemes.280.png</name>
            <rate>
              <timebase>24</timebase>
              <ntsc>FALSE</ntsc>
            </rate>
            <media>
              <video>
                <track>
                  <clipitem frameBlend="FALSE" id="clipitem-283">
                    <name>Scene - LJ visemes.280.png</name>
                    <masterclipid>masterclip-282</masterclipid>
                    <rate>
                      <timebase>24</timebase>
                      <ntsc>FALSE</ntsc>
                    </rate>
                    <alphatype>straight</alphatype>
                    <pixelaspectratio>square</pixelaspectratio>
                    <anamorphic>FALSE</anamorphic>
                    <file id="file-282">
                      <name>Scene - LJ visemes.280.png</name>
                      <pathurl>file://localhost/Users/bot/Documents/CREATE/Character Animator/LJ visemes CH2AE/demo/Scene - LJ visemes/Scene - LJ visemes.280.png</pathurl>
                      <rate>
                        <timebase>24</timebase>
                        <ntsc>FALSE</ntsc>
                      </rate>
                      <duration>672</duration>
                      <timecode>
                        <rate>
                          <timebase>24</timebase>
                          <ntsc>FALSE</ntsc>
                        </rate>
                      </timecode>
                      <media>
                        <video>
                          <duration>1</duration>
                          <samplecharacteristics>
                            <anamorphic>FALSE</anamorphic>
                            <pixelaspectratio>square</pixelaspectratio>
                            <fielddominance>none</fielddominance>
                            <width>1920</width>
                            <height>1080</height>
                          </samplecharacteristics>
                        </video>
                      </media>
                    </file>
                  </clipitem>
                </track>
              </video>
            </media>
          </clip>
          <clip explodedTracks="true" frameBlend="FALSE" id="masterclip-283">
            <uuid>2e5787e5-9f53-4c62-8af9-67d4f0ffa704</uuid>
            <masterclipid>masterclip-283</masterclipid>
            <ismasterclip>TRUE</ismasterclip>
            <duration>672</duration>
            <in>0</in>
            <out>672</out>
            <name>Scene - LJ visemes.281.png</name>
            <rate>
              <timebase>24</timebase>
              <ntsc>FALSE</ntsc>
            </rate>
            <media>
              <video>
                <track>
                  <clipitem frameBlend="FALSE" id="clipitem-284">
                    <name>Scene - LJ visemes.281.png</name>
                    <masterclipid>masterclip-283</masterclipid>
                    <rate>
                      <timebase>24</timebase>
                      <ntsc>FALSE</ntsc>
                    </rate>
                    <alphatype>straight</alphatype>
                    <pixelaspectratio>square</pixelaspectratio>
                    <anamorphic>FALSE</anamorphic>
                    <file id="file-283">
                      <name>Scene - LJ visemes.281.png</name>
                      <pathurl>file://localhost/Users/bot/Documents/CREATE/Character Animator/LJ visemes CH2AE/demo/Scene - LJ visemes/Scene - LJ visemes.281.png</pathurl>
                      <rate>
                        <timebase>24</timebase>
                        <ntsc>FALSE</ntsc>
                      </rate>
                      <duration>672</duration>
                      <timecode>
                        <rate>
                          <timebase>24</timebase>
                          <ntsc>FALSE</ntsc>
                        </rate>
                      </timecode>
                      <media>
                        <video>
                          <duration>1</duration>
                          <samplecharacteristics>
                            <anamorphic>FALSE</anamorphic>
                            <pixelaspectratio>square</pixelaspectratio>
                            <fielddominance>none</fielddominance>
                            <width>1920</width>
                            <height>1080</height>
                          </samplecharacteristics>
                        </video>
                      </media>
                    </file>
                  </clipitem>
                </track>
              </video>
            </media>
          </clip>
          <clip explodedTracks="true" frameBlend="FALSE" id="masterclip-284">
            <uuid>a639392e-cf36-48ea-95bb-5ad71184606e</uuid>
            <masterclipid>masterclip-284</masterclipid>
            <ismasterclip>TRUE</ismasterclip>
            <duration>672</duration>
            <in>0</in>
            <out>672</out>
            <name>Scene - LJ visemes.282.png</name>
            <rate>
              <timebase>24</timebase>
              <ntsc>FALSE</ntsc>
            </rate>
            <media>
              <video>
                <track>
                  <clipitem frameBlend="FALSE" id="clipitem-285">
                    <name>Scene - LJ visemes.282.png</name>
                    <masterclipid>masterclip-284</masterclipid>
                    <rate>
                      <timebase>24</timebase>
                      <ntsc>FALSE</ntsc>
                    </rate>
                    <alphatype>straight</alphatype>
                    <pixelaspectratio>square</pixelaspectratio>
                    <anamorphic>FALSE</anamorphic>
                    <file id="file-284">
                      <name>Scene - LJ visemes.282.png</name>
                      <pathurl>file://localhost/Users/bot/Documents/CREATE/Character Animator/LJ visemes CH2AE/demo/Scene - LJ visemes/Scene - LJ visemes.282.png</pathurl>
                      <rate>
                        <timebase>24</timebase>
                        <ntsc>FALSE</ntsc>
                      </rate>
                      <duration>672</duration>
                      <timecode>
                        <rate>
                          <timebase>24</timebase>
                          <ntsc>FALSE</ntsc>
                        </rate>
                      </timecode>
                      <media>
                        <video>
                          <duration>1</duration>
                          <samplecharacteristics>
                            <anamorphic>FALSE</anamorphic>
                            <pixelaspectratio>square</pixelaspectratio>
                            <fielddominance>none</fielddominance>
                            <width>1920</width>
                            <height>1080</height>
                          </samplecharacteristics>
                        </video>
                      </media>
                    </file>
                  </clipitem>
                </track>
              </video>
            </media>
          </clip>
          <clip explodedTracks="true" frameBlend="FALSE" id="masterclip-285">
            <uuid>01157aa0-13fd-4342-916a-927f7c506551</uuid>
            <masterclipid>masterclip-285</masterclipid>
            <ismasterclip>TRUE</ismasterclip>
            <duration>672</duration>
            <in>0</in>
            <out>672</out>
            <name>Scene - LJ visemes.283.png</name>
            <rate>
              <timebase>24</timebase>
              <ntsc>FALSE</ntsc>
            </rate>
            <media>
              <video>
                <track>
                  <clipitem frameBlend="FALSE" id="clipitem-286">
                    <name>Scene - LJ visemes.283.png</name>
                    <masterclipid>masterclip-285</masterclipid>
                    <rate>
                      <timebase>24</timebase>
                      <ntsc>FALSE</ntsc>
                    </rate>
                    <alphatype>straight</alphatype>
                    <pixelaspectratio>square</pixelaspectratio>
                    <anamorphic>FALSE</anamorphic>
                    <file id="file-285">
                      <name>Scene - LJ visemes.283.png</name>
                      <pathurl>file://localhost/Users/bot/Documents/CREATE/Character Animator/LJ visemes CH2AE/demo/Scene - LJ visemes/Scene - LJ visemes.283.png</pathurl>
                      <rate>
                        <timebase>24</timebase>
                        <ntsc>FALSE</ntsc>
                      </rate>
                      <duration>672</duration>
                      <timecode>
                        <rate>
                          <timebase>24</timebase>
                          <ntsc>FALSE</ntsc>
                        </rate>
                      </timecode>
                      <media>
                        <video>
                          <duration>1</duration>
                          <samplecharacteristics>
                            <anamorphic>FALSE</anamorphic>
                            <pixelaspectratio>square</pixelaspectratio>
                            <fielddominance>none</fielddominance>
                            <width>1920</width>
                            <height>1080</height>
                          </samplecharacteristics>
                        </video>
                      </media>
                    </file>
                  </clipitem>
                </track>
              </video>
            </media>
          </clip>
          <clip explodedTracks="true" frameBlend="FALSE" id="masterclip-286">
            <uuid>ac021184-ff7e-4ba8-ba81-72a6fd9b4299</uuid>
            <masterclipid>masterclip-286</masterclipid>
            <ismasterclip>TRUE</ismasterclip>
            <duration>672</duration>
            <in>0</in>
            <out>672</out>
            <name>Scene - LJ visemes.284.png</name>
            <rate>
              <timebase>24</timebase>
              <ntsc>FALSE</ntsc>
            </rate>
            <media>
              <video>
                <track>
                  <clipitem frameBlend="FALSE" id="clipitem-287">
                    <name>Scene - LJ visemes.284.png</name>
                    <masterclipid>masterclip-286</masterclipid>
                    <rate>
                      <timebase>24</timebase>
                      <ntsc>FALSE</ntsc>
                    </rate>
                    <alphatype>straight</alphatype>
                    <pixelaspectratio>square</pixelaspectratio>
                    <anamorphic>FALSE</anamorphic>
                    <file id="file-286">
                      <name>Scene - LJ visemes.284.png</name>
                      <pathurl>file://localhost/Users/bot/Documents/CREATE/Character Animator/LJ visemes CH2AE/demo/Scene - LJ visemes/Scene - LJ visemes.284.png</pathurl>
                      <rate>
                        <timebase>24</timebase>
                        <ntsc>FALSE</ntsc>
                      </rate>
                      <duration>672</duration>
                      <timecode>
                        <rate>
                          <timebase>24</timebase>
                          <ntsc>FALSE</ntsc>
                        </rate>
                      </timecode>
                      <media>
                        <video>
                          <duration>1</duration>
                          <samplecharacteristics>
                            <anamorphic>FALSE</anamorphic>
                            <pixelaspectratio>square</pixelaspectratio>
                            <fielddominance>none</fielddominance>
                            <width>1920</width>
                            <height>1080</height>
                          </samplecharacteristics>
                        </video>
                      </media>
                    </file>
                  </clipitem>
                </track>
              </video>
            </media>
          </clip>
          <clip explodedTracks="true" frameBlend="FALSE" id="masterclip-287">
            <uuid>7a10efed-49d2-4678-93d3-7552217c2cd3</uuid>
            <masterclipid>masterclip-287</masterclipid>
            <ismasterclip>TRUE</ismasterclip>
            <duration>672</duration>
            <in>0</in>
            <out>672</out>
            <name>Scene - LJ visemes.285.png</name>
            <rate>
              <timebase>24</timebase>
              <ntsc>FALSE</ntsc>
            </rate>
            <media>
              <video>
                <track>
                  <clipitem frameBlend="FALSE" id="clipitem-288">
                    <name>Scene - LJ visemes.285.png</name>
                    <masterclipid>masterclip-287</masterclipid>
                    <rate>
                      <timebase>24</timebase>
                      <ntsc>FALSE</ntsc>
                    </rate>
                    <alphatype>straight</alphatype>
                    <pixelaspectratio>square</pixelaspectratio>
                    <anamorphic>FALSE</anamorphic>
                    <file id="file-287">
                      <name>Scene - LJ visemes.285.png</name>
                      <pathurl>file://localhost/Users/bot/Documents/CREATE/Character Animator/LJ visemes CH2AE/demo/Scene - LJ visemes/Scene - LJ visemes.285.png</pathurl>
                      <rate>
                        <timebase>24</timebase>
                        <ntsc>FALSE</ntsc>
                      </rate>
                      <duration>672</duration>
                      <timecode>
                        <rate>
                          <timebase>24</timebase>
                          <ntsc>FALSE</ntsc>
                        </rate>
                      </timecode>
                      <media>
                        <video>
                          <duration>1</duration>
                          <samplecharacteristics>
                            <anamorphic>FALSE</anamorphic>
                            <pixelaspectratio>square</pixelaspectratio>
                            <fielddominance>none</fielddominance>
                            <width>1920</width>
                            <height>1080</height>
                          </samplecharacteristics>
                        </video>
                      </media>
                    </file>
                  </clipitem>
                </track>
              </video>
            </media>
          </clip>
          <clip explodedTracks="true" frameBlend="FALSE" id="masterclip-288">
            <uuid>fa14240a-c206-44cf-809c-5cffcf490a4e</uuid>
            <masterclipid>masterclip-288</masterclipid>
            <ismasterclip>TRUE</ismasterclip>
            <duration>672</duration>
            <in>0</in>
            <out>672</out>
            <name>Scene - LJ visemes.286.png</name>
            <rate>
              <timebase>24</timebase>
              <ntsc>FALSE</ntsc>
            </rate>
            <media>
              <video>
                <track>
                  <clipitem frameBlend="FALSE" id="clipitem-289">
                    <name>Scene - LJ visemes.286.png</name>
                    <masterclipid>masterclip-288</masterclipid>
                    <rate>
                      <timebase>24</timebase>
                      <ntsc>FALSE</ntsc>
                    </rate>
                    <alphatype>straight</alphatype>
                    <pixelaspectratio>square</pixelaspectratio>
                    <anamorphic>FALSE</anamorphic>
                    <file id="file-288">
                      <name>Scene - LJ visemes.286.png</name>
                      <pathurl>file://localhost/Users/bot/Documents/CREATE/Character Animator/LJ visemes CH2AE/demo/Scene - LJ visemes/Scene - LJ visemes.286.png</pathurl>
                      <rate>
                        <timebase>24</timebase>
                        <ntsc>FALSE</ntsc>
                      </rate>
                      <duration>672</duration>
                      <timecode>
                        <rate>
                          <timebase>24</timebase>
                          <ntsc>FALSE</ntsc>
                        </rate>
                      </timecode>
                      <media>
                        <video>
                          <duration>1</duration>
                          <samplecharacteristics>
                            <anamorphic>FALSE</anamorphic>
                            <pixelaspectratio>square</pixelaspectratio>
                            <fielddominance>none</fielddominance>
                            <width>1920</width>
                            <height>1080</height>
                          </samplecharacteristics>
                        </video>
                      </media>
                    </file>
                  </clipitem>
                </track>
              </video>
            </media>
          </clip>
          <clip explodedTracks="true" frameBlend="FALSE" id="masterclip-289">
            <uuid>1a608dc2-157b-4b4e-80ac-efab42f71e1e</uuid>
            <masterclipid>masterclip-289</masterclipid>
            <ismasterclip>TRUE</ismasterclip>
            <duration>672</duration>
            <in>0</in>
            <out>672</out>
            <name>Scene - LJ visemes.287.png</name>
            <rate>
              <timebase>24</timebase>
              <ntsc>FALSE</ntsc>
            </rate>
            <media>
              <video>
                <track>
                  <clipitem frameBlend="FALSE" id="clipitem-290">
                    <name>Scene - LJ visemes.287.png</name>
                    <masterclipid>masterclip-289</masterclipid>
                    <rate>
                      <timebase>24</timebase>
                      <ntsc>FALSE</ntsc>
                    </rate>
                    <alphatype>straight</alphatype>
                    <pixelaspectratio>square</pixelaspectratio>
                    <anamorphic>FALSE</anamorphic>
                    <file id="file-289">
                      <name>Scene - LJ visemes.287.png</name>
                      <pathurl>file://localhost/Users/bot/Documents/CREATE/Character Animator/LJ visemes CH2AE/demo/Scene - LJ visemes/Scene - LJ visemes.287.png</pathurl>
                      <rate>
                        <timebase>24</timebase>
                        <ntsc>FALSE</ntsc>
                      </rate>
                      <duration>672</duration>
                      <timecode>
                        <rate>
                          <timebase>24</timebase>
                          <ntsc>FALSE</ntsc>
                        </rate>
                      </timecode>
                      <media>
                        <video>
                          <duration>1</duration>
                          <samplecharacteristics>
                            <anamorphic>FALSE</anamorphic>
                            <pixelaspectratio>square</pixelaspectratio>
                            <fielddominance>none</fielddominance>
                            <width>1920</width>
                            <height>1080</height>
                          </samplecharacteristics>
                        </video>
                      </media>
                    </file>
                  </clipitem>
                </track>
              </video>
            </media>
          </clip>
          <clip explodedTracks="true" frameBlend="FALSE" id="masterclip-290">
            <uuid>08c4a914-c6b5-4c98-ae92-c2b25d1eb99e</uuid>
            <masterclipid>masterclip-290</masterclipid>
            <ismasterclip>TRUE</ismasterclip>
            <duration>672</duration>
            <in>0</in>
            <out>672</out>
            <name>Scene - LJ visemes.288.png</name>
            <rate>
              <timebase>24</timebase>
              <ntsc>FALSE</ntsc>
            </rate>
            <media>
              <video>
                <track>
                  <clipitem frameBlend="FALSE" id="clipitem-291">
                    <name>Scene - LJ visemes.288.png</name>
                    <masterclipid>masterclip-290</masterclipid>
                    <rate>
                      <timebase>24</timebase>
                      <ntsc>FALSE</ntsc>
                    </rate>
                    <alphatype>straight</alphatype>
                    <pixelaspectratio>square</pixelaspectratio>
                    <anamorphic>FALSE</anamorphic>
                    <file id="file-290">
                      <name>Scene - LJ visemes.288.png</name>
                      <pathurl>file://localhost/Users/bot/Documents/CREATE/Character Animator/LJ visemes CH2AE/demo/Scene - LJ visemes/Scene - LJ visemes.288.png</pathurl>
                      <rate>
                        <timebase>24</timebase>
                        <ntsc>FALSE</ntsc>
                      </rate>
                      <duration>672</duration>
                      <timecode>
                        <rate>
                          <timebase>24</timebase>
                          <ntsc>FALSE</ntsc>
                        </rate>
                      </timecode>
                      <media>
                        <video>
                          <duration>1</duration>
                          <samplecharacteristics>
                            <anamorphic>FALSE</anamorphic>
                            <pixelaspectratio>square</pixelaspectratio>
                            <fielddominance>none</fielddominance>
                            <width>1920</width>
                            <height>1080</height>
                          </samplecharacteristics>
                        </video>
                      </media>
                    </file>
                  </clipitem>
                </track>
              </video>
            </media>
          </clip>
          <clip explodedTracks="true" frameBlend="FALSE" id="masterclip-291">
            <uuid>67477e3e-4ee7-49a4-b2d5-f563bafd0372</uuid>
            <masterclipid>masterclip-291</masterclipid>
            <ismasterclip>TRUE</ismasterclip>
            <duration>672</duration>
            <in>0</in>
            <out>672</out>
            <name>Scene - LJ visemes.289.png</name>
            <rate>
              <timebase>24</timebase>
              <ntsc>FALSE</ntsc>
            </rate>
            <media>
              <video>
                <track>
                  <clipitem frameBlend="FALSE" id="clipitem-292">
                    <name>Scene - LJ visemes.289.png</name>
                    <masterclipid>masterclip-291</masterclipid>
                    <rate>
                      <timebase>24</timebase>
                      <ntsc>FALSE</ntsc>
                    </rate>
                    <alphatype>straight</alphatype>
                    <pixelaspectratio>square</pixelaspectratio>
                    <anamorphic>FALSE</anamorphic>
                    <file id="file-291">
                      <name>Scene - LJ visemes.289.png</name>
                      <pathurl>file://localhost/Users/bot/Documents/CREATE/Character Animator/LJ visemes CH2AE/demo/Scene - LJ visemes/Scene - LJ visemes.289.png</pathurl>
                      <rate>
                        <timebase>24</timebase>
                        <ntsc>FALSE</ntsc>
                      </rate>
                      <duration>672</duration>
                      <timecode>
                        <rate>
                          <timebase>24</timebase>
                          <ntsc>FALSE</ntsc>
                        </rate>
                      </timecode>
                      <media>
                        <video>
                          <duration>1</duration>
                          <samplecharacteristics>
                            <anamorphic>FALSE</anamorphic>
                            <pixelaspectratio>square</pixelaspectratio>
                            <fielddominance>none</fielddominance>
                            <width>1920</width>
                            <height>1080</height>
                          </samplecharacteristics>
                        </video>
                      </media>
                    </file>
                  </clipitem>
                </track>
              </video>
            </media>
          </clip>
          <clip explodedTracks="true" frameBlend="FALSE" id="masterclip-292">
            <uuid>cc90c290-1a2e-4edd-b7f2-88ba0d821984</uuid>
            <masterclipid>masterclip-292</masterclipid>
            <ismasterclip>TRUE</ismasterclip>
            <duration>672</duration>
            <in>0</in>
            <out>672</out>
            <name>Scene - LJ visemes.290.png</name>
            <rate>
              <timebase>24</timebase>
              <ntsc>FALSE</ntsc>
            </rate>
            <media>
              <video>
                <track>
                  <clipitem frameBlend="FALSE" id="clipitem-293">
                    <name>Scene - LJ visemes.290.png</name>
                    <masterclipid>masterclip-292</masterclipid>
                    <rate>
                      <timebase>24</timebase>
                      <ntsc>FALSE</ntsc>
                    </rate>
                    <alphatype>straight</alphatype>
                    <pixelaspectratio>square</pixelaspectratio>
                    <anamorphic>FALSE</anamorphic>
                    <file id="file-292">
                      <name>Scene - LJ visemes.290.png</name>
                      <pathurl>file://localhost/Users/bot/Documents/CREATE/Character Animator/LJ visemes CH2AE/demo/Scene - LJ visemes/Scene - LJ visemes.290.png</pathurl>
                      <rate>
                        <timebase>24</timebase>
                        <ntsc>FALSE</ntsc>
                      </rate>
                      <duration>672</duration>
                      <timecode>
                        <rate>
                          <timebase>24</timebase>
                          <ntsc>FALSE</ntsc>
                        </rate>
                      </timecode>
                      <media>
                        <video>
                          <duration>1</duration>
                          <samplecharacteristics>
                            <anamorphic>FALSE</anamorphic>
                            <pixelaspectratio>square</pixelaspectratio>
                            <fielddominance>none</fielddominance>
                            <width>1920</width>
                            <height>1080</height>
                          </samplecharacteristics>
                        </video>
                      </media>
                    </file>
                  </clipitem>
                </track>
              </video>
            </media>
          </clip>
          <clip explodedTracks="true" frameBlend="FALSE" id="masterclip-293">
            <uuid>bd852b90-ec4a-41d2-8aa7-89891c091b2d</uuid>
            <masterclipid>masterclip-293</masterclipid>
            <ismasterclip>TRUE</ismasterclip>
            <duration>672</duration>
            <in>0</in>
            <out>672</out>
            <name>Scene - LJ visemes.291.png</name>
            <rate>
              <timebase>24</timebase>
              <ntsc>FALSE</ntsc>
            </rate>
            <media>
              <video>
                <track>
                  <clipitem frameBlend="FALSE" id="clipitem-294">
                    <name>Scene - LJ visemes.291.png</name>
                    <masterclipid>masterclip-293</masterclipid>
                    <rate>
                      <timebase>24</timebase>
                      <ntsc>FALSE</ntsc>
                    </rate>
                    <alphatype>straight</alphatype>
                    <pixelaspectratio>square</pixelaspectratio>
                    <anamorphic>FALSE</anamorphic>
                    <file id="file-293">
                      <name>Scene - LJ visemes.291.png</name>
                      <pathurl>file://localhost/Users/bot/Documents/CREATE/Character Animator/LJ visemes CH2AE/demo/Scene - LJ visemes/Scene - LJ visemes.291.png</pathurl>
                      <rate>
                        <timebase>24</timebase>
                        <ntsc>FALSE</ntsc>
                      </rate>
                      <duration>672</duration>
                      <timecode>
                        <rate>
                          <timebase>24</timebase>
                          <ntsc>FALSE</ntsc>
                        </rate>
                      </timecode>
                      <media>
                        <video>
                          <duration>1</duration>
                          <samplecharacteristics>
                            <anamorphic>FALSE</anamorphic>
                            <pixelaspectratio>square</pixelaspectratio>
                            <fielddominance>none</fielddominance>
                            <width>1920</width>
                            <height>1080</height>
                          </samplecharacteristics>
                        </video>
                      </media>
                    </file>
                  </clipitem>
                </track>
              </video>
            </media>
          </clip>
          <clip explodedTracks="true" frameBlend="FALSE" id="masterclip-294">
            <uuid>738428ba-86ea-4e4d-8240-524a83ba9042</uuid>
            <masterclipid>masterclip-294</masterclipid>
            <ismasterclip>TRUE</ismasterclip>
            <duration>672</duration>
            <in>0</in>
            <out>672</out>
            <name>Scene - LJ visemes.292.png</name>
            <rate>
              <timebase>24</timebase>
              <ntsc>FALSE</ntsc>
            </rate>
            <media>
              <video>
                <track>
                  <clipitem frameBlend="FALSE" id="clipitem-295">
                    <name>Scene - LJ visemes.292.png</name>
                    <masterclipid>masterclip-294</masterclipid>
                    <rate>
                      <timebase>24</timebase>
                      <ntsc>FALSE</ntsc>
                    </rate>
                    <alphatype>straight</alphatype>
                    <pixelaspectratio>square</pixelaspectratio>
                    <anamorphic>FALSE</anamorphic>
                    <file id="file-294">
                      <name>Scene - LJ visemes.292.png</name>
                      <pathurl>file://localhost/Users/bot/Documents/CREATE/Character Animator/LJ visemes CH2AE/demo/Scene - LJ visemes/Scene - LJ visemes.292.png</pathurl>
                      <rate>
                        <timebase>24</timebase>
                        <ntsc>FALSE</ntsc>
                      </rate>
                      <duration>672</duration>
                      <timecode>
                        <rate>
                          <timebase>24</timebase>
                          <ntsc>FALSE</ntsc>
                        </rate>
                      </timecode>
                      <media>
                        <video>
                          <duration>1</duration>
                          <samplecharacteristics>
                            <anamorphic>FALSE</anamorphic>
                            <pixelaspectratio>square</pixelaspectratio>
                            <fielddominance>none</fielddominance>
                            <width>1920</width>
                            <height>1080</height>
                          </samplecharacteristics>
                        </video>
                      </media>
                    </file>
                  </clipitem>
                </track>
              </video>
            </media>
          </clip>
          <clip explodedTracks="true" frameBlend="FALSE" id="masterclip-295">
            <uuid>9041af9f-2669-49c8-9d1d-d1622487e48f</uuid>
            <masterclipid>masterclip-295</masterclipid>
            <ismasterclip>TRUE</ismasterclip>
            <duration>672</duration>
            <in>0</in>
            <out>672</out>
            <name>Scene - LJ visemes.293.png</name>
            <rate>
              <timebase>24</timebase>
              <ntsc>FALSE</ntsc>
            </rate>
            <media>
              <video>
                <track>
                  <clipitem frameBlend="FALSE" id="clipitem-296">
                    <name>Scene - LJ visemes.293.png</name>
                    <masterclipid>masterclip-295</masterclipid>
                    <rate>
                      <timebase>24</timebase>
                      <ntsc>FALSE</ntsc>
                    </rate>
                    <alphatype>straight</alphatype>
                    <pixelaspectratio>square</pixelaspectratio>
                    <anamorphic>FALSE</anamorphic>
                    <file id="file-295">
                      <name>Scene - LJ visemes.293.png</name>
                      <pathurl>file://localhost/Users/bot/Documents/CREATE/Character Animator/LJ visemes CH2AE/demo/Scene - LJ visemes/Scene - LJ visemes.293.png</pathurl>
                      <rate>
                        <timebase>24</timebase>
                        <ntsc>FALSE</ntsc>
                      </rate>
                      <duration>672</duration>
                      <timecode>
                        <rate>
                          <timebase>24</timebase>
                          <ntsc>FALSE</ntsc>
                        </rate>
                      </timecode>
                      <media>
                        <video>
                          <duration>1</duration>
                          <samplecharacteristics>
                            <anamorphic>FALSE</anamorphic>
                            <pixelaspectratio>square</pixelaspectratio>
                            <fielddominance>none</fielddominance>
                            <width>1920</width>
                            <height>1080</height>
                          </samplecharacteristics>
                        </video>
                      </media>
                    </file>
                  </clipitem>
                </track>
              </video>
            </media>
          </clip>
          <clip explodedTracks="true" frameBlend="FALSE" id="masterclip-296">
            <uuid>dea73f98-9bec-4254-8fdc-81301ad80cdc</uuid>
            <masterclipid>masterclip-296</masterclipid>
            <ismasterclip>TRUE</ismasterclip>
            <duration>672</duration>
            <in>0</in>
            <out>672</out>
            <name>Scene - LJ visemes.294.png</name>
            <rate>
              <timebase>24</timebase>
              <ntsc>FALSE</ntsc>
            </rate>
            <media>
              <video>
                <track>
                  <clipitem frameBlend="FALSE" id="clipitem-297">
                    <name>Scene - LJ visemes.294.png</name>
                    <masterclipid>masterclip-296</masterclipid>
                    <rate>
                      <timebase>24</timebase>
                      <ntsc>FALSE</ntsc>
                    </rate>
                    <alphatype>straight</alphatype>
                    <pixelaspectratio>square</pixelaspectratio>
                    <anamorphic>FALSE</anamorphic>
                    <file id="file-296">
                      <name>Scene - LJ visemes.294.png</name>
                      <pathurl>file://localhost/Users/bot/Documents/CREATE/Character Animator/LJ visemes CH2AE/demo/Scene - LJ visemes/Scene - LJ visemes.294.png</pathurl>
                      <rate>
                        <timebase>24</timebase>
                        <ntsc>FALSE</ntsc>
                      </rate>
                      <duration>672</duration>
                      <timecode>
                        <rate>
                          <timebase>24</timebase>
                          <ntsc>FALSE</ntsc>
                        </rate>
                      </timecode>
                      <media>
                        <video>
                          <duration>1</duration>
                          <samplecharacteristics>
                            <anamorphic>FALSE</anamorphic>
                            <pixelaspectratio>square</pixelaspectratio>
                            <fielddominance>none</fielddominance>
                            <width>1920</width>
                            <height>1080</height>
                          </samplecharacteristics>
                        </video>
                      </media>
                    </file>
                  </clipitem>
                </track>
              </video>
            </media>
          </clip>
          <clip explodedTracks="true" frameBlend="FALSE" id="masterclip-297">
            <uuid>bfd796da-196c-4137-9ab4-3b94b61bf535</uuid>
            <masterclipid>masterclip-297</masterclipid>
            <ismasterclip>TRUE</ismasterclip>
            <duration>672</duration>
            <in>0</in>
            <out>672</out>
            <name>Scene - LJ visemes.295.png</name>
            <rate>
              <timebase>24</timebase>
              <ntsc>FALSE</ntsc>
            </rate>
            <media>
              <video>
                <track>
                  <clipitem frameBlend="FALSE" id="clipitem-298">
                    <name>Scene - LJ visemes.295.png</name>
                    <masterclipid>masterclip-297</masterclipid>
                    <rate>
                      <timebase>24</timebase>
                      <ntsc>FALSE</ntsc>
                    </rate>
                    <alphatype>straight</alphatype>
                    <pixelaspectratio>square</pixelaspectratio>
                    <anamorphic>FALSE</anamorphic>
                    <file id="file-297">
                      <name>Scene - LJ visemes.295.png</name>
                      <pathurl>file://localhost/Users/bot/Documents/CREATE/Character Animator/LJ visemes CH2AE/demo/Scene - LJ visemes/Scene - LJ visemes.295.png</pathurl>
                      <rate>
                        <timebase>24</timebase>
                        <ntsc>FALSE</ntsc>
                      </rate>
                      <duration>672</duration>
                      <timecode>
                        <rate>
                          <timebase>24</timebase>
                          <ntsc>FALSE</ntsc>
                        </rate>
                      </timecode>
                      <media>
                        <video>
                          <duration>1</duration>
                          <samplecharacteristics>
                            <anamorphic>FALSE</anamorphic>
                            <pixelaspectratio>square</pixelaspectratio>
                            <fielddominance>none</fielddominance>
                            <width>1920</width>
                            <height>1080</height>
                          </samplecharacteristics>
                        </video>
                      </media>
                    </file>
                  </clipitem>
                </track>
              </video>
            </media>
          </clip>
          <clip explodedTracks="true" frameBlend="FALSE" id="masterclip-298">
            <uuid>3c66d10a-ac32-4e93-acea-bbb1d59ff58d</uuid>
            <masterclipid>masterclip-298</masterclipid>
            <ismasterclip>TRUE</ismasterclip>
            <duration>672</duration>
            <in>0</in>
            <out>672</out>
            <name>Scene - LJ visemes.296.png</name>
            <rate>
              <timebase>24</timebase>
              <ntsc>FALSE</ntsc>
            </rate>
            <media>
              <video>
                <track>
                  <clipitem frameBlend="FALSE" id="clipitem-299">
                    <name>Scene - LJ visemes.296.png</name>
                    <masterclipid>masterclip-298</masterclipid>
                    <rate>
                      <timebase>24</timebase>
                      <ntsc>FALSE</ntsc>
                    </rate>
                    <alphatype>straight</alphatype>
                    <pixelaspectratio>square</pixelaspectratio>
                    <anamorphic>FALSE</anamorphic>
                    <file id="file-298">
                      <name>Scene - LJ visemes.296.png</name>
                      <pathurl>file://localhost/Users/bot/Documents/CREATE/Character Animator/LJ visemes CH2AE/demo/Scene - LJ visemes/Scene - LJ visemes.296.png</pathurl>
                      <rate>
                        <timebase>24</timebase>
                        <ntsc>FALSE</ntsc>
                      </rate>
                      <duration>672</duration>
                      <timecode>
                        <rate>
                          <timebase>24</timebase>
                          <ntsc>FALSE</ntsc>
                        </rate>
                      </timecode>
                      <media>
                        <video>
                          <duration>1</duration>
                          <samplecharacteristics>
                            <anamorphic>FALSE</anamorphic>
                            <pixelaspectratio>square</pixelaspectratio>
                            <fielddominance>none</fielddominance>
                            <width>1920</width>
                            <height>1080</height>
                          </samplecharacteristics>
                        </video>
                      </media>
                    </file>
                  </clipitem>
                </track>
              </video>
            </media>
          </clip>
          <clip explodedTracks="true" frameBlend="FALSE" id="masterclip-299">
            <uuid>81f15d3e-b24b-4b01-8928-e4075345b039</uuid>
            <masterclipid>masterclip-299</masterclipid>
            <ismasterclip>TRUE</ismasterclip>
            <duration>672</duration>
            <in>0</in>
            <out>672</out>
            <name>Scene - LJ visemes.297.png</name>
            <rate>
              <timebase>24</timebase>
              <ntsc>FALSE</ntsc>
            </rate>
            <media>
              <video>
                <track>
                  <clipitem frameBlend="FALSE" id="clipitem-300">
                    <name>Scene - LJ visemes.297.png</name>
                    <masterclipid>masterclip-299</masterclipid>
                    <rate>
                      <timebase>24</timebase>
                      <ntsc>FALSE</ntsc>
                    </rate>
                    <alphatype>straight</alphatype>
                    <pixelaspectratio>square</pixelaspectratio>
                    <anamorphic>FALSE</anamorphic>
                    <file id="file-299">
                      <name>Scene - LJ visemes.297.png</name>
                      <pathurl>file://localhost/Users/bot/Documents/CREATE/Character Animator/LJ visemes CH2AE/demo/Scene - LJ visemes/Scene - LJ visemes.297.png</pathurl>
                      <rate>
                        <timebase>24</timebase>
                        <ntsc>FALSE</ntsc>
                      </rate>
                      <duration>672</duration>
                      <timecode>
                        <rate>
                          <timebase>24</timebase>
                          <ntsc>FALSE</ntsc>
                        </rate>
                      </timecode>
                      <media>
                        <video>
                          <duration>1</duration>
                          <samplecharacteristics>
                            <anamorphic>FALSE</anamorphic>
                            <pixelaspectratio>square</pixelaspectratio>
                            <fielddominance>none</fielddominance>
                            <width>1920</width>
                            <height>1080</height>
                          </samplecharacteristics>
                        </video>
                      </media>
                    </file>
                  </clipitem>
                </track>
              </video>
            </media>
          </clip>
          <clip explodedTracks="true" frameBlend="FALSE" id="masterclip-300">
            <uuid>aa51306d-de50-434a-a6cb-5e8db0ac13bf</uuid>
            <masterclipid>masterclip-300</masterclipid>
            <ismasterclip>TRUE</ismasterclip>
            <duration>672</duration>
            <in>0</in>
            <out>672</out>
            <name>Scene - LJ visemes.298.png</name>
            <rate>
              <timebase>24</timebase>
              <ntsc>FALSE</ntsc>
            </rate>
            <media>
              <video>
                <track>
                  <clipitem frameBlend="FALSE" id="clipitem-301">
                    <name>Scene - LJ visemes.298.png</name>
                    <masterclipid>masterclip-300</masterclipid>
                    <rate>
                      <timebase>24</timebase>
                      <ntsc>FALSE</ntsc>
                    </rate>
                    <alphatype>straight</alphatype>
                    <pixelaspectratio>square</pixelaspectratio>
                    <anamorphic>FALSE</anamorphic>
                    <file id="file-300">
                      <name>Scene - LJ visemes.298.png</name>
                      <pathurl>file://localhost/Users/bot/Documents/CREATE/Character Animator/LJ visemes CH2AE/demo/Scene - LJ visemes/Scene - LJ visemes.298.png</pathurl>
                      <rate>
                        <timebase>24</timebase>
                        <ntsc>FALSE</ntsc>
                      </rate>
                      <duration>672</duration>
                      <timecode>
                        <rate>
                          <timebase>24</timebase>
                          <ntsc>FALSE</ntsc>
                        </rate>
                      </timecode>
                      <media>
                        <video>
                          <duration>1</duration>
                          <samplecharacteristics>
                            <anamorphic>FALSE</anamorphic>
                            <pixelaspectratio>square</pixelaspectratio>
                            <fielddominance>none</fielddominance>
                            <width>1920</width>
                            <height>1080</height>
                          </samplecharacteristics>
                        </video>
                      </media>
                    </file>
                  </clipitem>
                </track>
              </video>
            </media>
          </clip>
          <clip explodedTracks="true" frameBlend="FALSE" id="masterclip-301">
            <uuid>182e2697-5bb3-49ee-a4c7-b11d95873e62</uuid>
            <masterclipid>masterclip-301</masterclipid>
            <ismasterclip>TRUE</ismasterclip>
            <duration>672</duration>
            <in>0</in>
            <out>672</out>
            <name>Scene - LJ visemes.299.png</name>
            <rate>
              <timebase>24</timebase>
              <ntsc>FALSE</ntsc>
            </rate>
            <media>
              <video>
                <track>
                  <clipitem frameBlend="FALSE" id="clipitem-302">
                    <name>Scene - LJ visemes.299.png</name>
                    <masterclipid>masterclip-301</masterclipid>
                    <rate>
                      <timebase>24</timebase>
                      <ntsc>FALSE</ntsc>
                    </rate>
                    <alphatype>straight</alphatype>
                    <pixelaspectratio>square</pixelaspectratio>
                    <anamorphic>FALSE</anamorphic>
                    <file id="file-301">
                      <name>Scene - LJ visemes.299.png</name>
                      <pathurl>file://localhost/Users/bot/Documents/CREATE/Character Animator/LJ visemes CH2AE/demo/Scene - LJ visemes/Scene - LJ visemes.299.png</pathurl>
                      <rate>
                        <timebase>24</timebase>
                        <ntsc>FALSE</ntsc>
                      </rate>
                      <duration>672</duration>
                      <timecode>
                        <rate>
                          <timebase>24</timebase>
                          <ntsc>FALSE</ntsc>
                        </rate>
                      </timecode>
                      <media>
                        <video>
                          <duration>1</duration>
                          <samplecharacteristics>
                            <anamorphic>FALSE</anamorphic>
                            <pixelaspectratio>square</pixelaspectratio>
                            <fielddominance>none</fielddominance>
                            <width>1920</width>
                            <height>1080</height>
                          </samplecharacteristics>
                        </video>
                      </media>
                    </file>
                  </clipitem>
                </track>
              </video>
            </media>
          </clip>
          <clip explodedTracks="true" frameBlend="FALSE" id="masterclip-302">
            <uuid>e525ef47-fd65-47d1-bde1-520eba33e85c</uuid>
            <masterclipid>masterclip-302</masterclipid>
            <ismasterclip>TRUE</ismasterclip>
            <duration>672</duration>
            <in>0</in>
            <out>672</out>
            <name>Scene - LJ visemes.300.png</name>
            <rate>
              <timebase>24</timebase>
              <ntsc>FALSE</ntsc>
            </rate>
            <media>
              <video>
                <track>
                  <clipitem frameBlend="FALSE" id="clipitem-303">
                    <name>Scene - LJ visemes.300.png</name>
                    <masterclipid>masterclip-302</masterclipid>
                    <rate>
                      <timebase>24</timebase>
                      <ntsc>FALSE</ntsc>
                    </rate>
                    <alphatype>straight</alphatype>
                    <pixelaspectratio>square</pixelaspectratio>
                    <anamorphic>FALSE</anamorphic>
                    <file id="file-302">
                      <name>Scene - LJ visemes.300.png</name>
                      <pathurl>file://localhost/Users/bot/Documents/CREATE/Character Animator/LJ visemes CH2AE/demo/Scene - LJ visemes/Scene - LJ visemes.300.png</pathurl>
                      <rate>
                        <timebase>24</timebase>
                        <ntsc>FALSE</ntsc>
                      </rate>
                      <duration>672</duration>
                      <timecode>
                        <rate>
                          <timebase>24</timebase>
                          <ntsc>FALSE</ntsc>
                        </rate>
                      </timecode>
                      <media>
                        <video>
                          <duration>1</duration>
                          <samplecharacteristics>
                            <anamorphic>FALSE</anamorphic>
                            <pixelaspectratio>square</pixelaspectratio>
                            <fielddominance>none</fielddominance>
                            <width>1920</width>
                            <height>1080</height>
                          </samplecharacteristics>
                        </video>
                      </media>
                    </file>
                  </clipitem>
                </track>
              </video>
            </media>
          </clip>
          <clip explodedTracks="true" frameBlend="FALSE" id="masterclip-303">
            <uuid>cb893724-ae6e-45a4-bc5d-62f81f02af34</uuid>
            <masterclipid>masterclip-303</masterclipid>
            <ismasterclip>TRUE</ismasterclip>
            <duration>672</duration>
            <in>0</in>
            <out>672</out>
            <name>Scene - LJ visemes.301.png</name>
            <rate>
              <timebase>24</timebase>
              <ntsc>FALSE</ntsc>
            </rate>
            <media>
              <video>
                <track>
                  <clipitem frameBlend="FALSE" id="clipitem-304">
                    <name>Scene - LJ visemes.301.png</name>
                    <masterclipid>masterclip-303</masterclipid>
                    <rate>
                      <timebase>24</timebase>
                      <ntsc>FALSE</ntsc>
                    </rate>
                    <alphatype>straight</alphatype>
                    <pixelaspectratio>square</pixelaspectratio>
                    <anamorphic>FALSE</anamorphic>
                    <file id="file-303">
                      <name>Scene - LJ visemes.301.png</name>
                      <pathurl>file://localhost/Users/bot/Documents/CREATE/Character Animator/LJ visemes CH2AE/demo/Scene - LJ visemes/Scene - LJ visemes.301.png</pathurl>
                      <rate>
                        <timebase>24</timebase>
                        <ntsc>FALSE</ntsc>
                      </rate>
                      <duration>672</duration>
                      <timecode>
                        <rate>
                          <timebase>24</timebase>
                          <ntsc>FALSE</ntsc>
                        </rate>
                      </timecode>
                      <media>
                        <video>
                          <duration>1</duration>
                          <samplecharacteristics>
                            <anamorphic>FALSE</anamorphic>
                            <pixelaspectratio>square</pixelaspectratio>
                            <fielddominance>none</fielddominance>
                            <width>1920</width>
                            <height>1080</height>
                          </samplecharacteristics>
                        </video>
                      </media>
                    </file>
                  </clipitem>
                </track>
              </video>
            </media>
          </clip>
          <clip explodedTracks="true" frameBlend="FALSE" id="masterclip-304">
            <uuid>7b2e575d-86b6-41ab-8499-4dddcbf9734c</uuid>
            <masterclipid>masterclip-304</masterclipid>
            <ismasterclip>TRUE</ismasterclip>
            <duration>672</duration>
            <in>0</in>
            <out>672</out>
            <name>Scene - LJ visemes.302.png</name>
            <rate>
              <timebase>24</timebase>
              <ntsc>FALSE</ntsc>
            </rate>
            <media>
              <video>
                <track>
                  <clipitem frameBlend="FALSE" id="clipitem-305">
                    <name>Scene - LJ visemes.302.png</name>
                    <masterclipid>masterclip-304</masterclipid>
                    <rate>
                      <timebase>24</timebase>
                      <ntsc>FALSE</ntsc>
                    </rate>
                    <alphatype>straight</alphatype>
                    <pixelaspectratio>square</pixelaspectratio>
                    <anamorphic>FALSE</anamorphic>
                    <file id="file-304">
                      <name>Scene - LJ visemes.302.png</name>
                      <pathurl>file://localhost/Users/bot/Documents/CREATE/Character Animator/LJ visemes CH2AE/demo/Scene - LJ visemes/Scene - LJ visemes.302.png</pathurl>
                      <rate>
                        <timebase>24</timebase>
                        <ntsc>FALSE</ntsc>
                      </rate>
                      <duration>672</duration>
                      <timecode>
                        <rate>
                          <timebase>24</timebase>
                          <ntsc>FALSE</ntsc>
                        </rate>
                      </timecode>
                      <media>
                        <video>
                          <duration>1</duration>
                          <samplecharacteristics>
                            <anamorphic>FALSE</anamorphic>
                            <pixelaspectratio>square</pixelaspectratio>
                            <fielddominance>none</fielddominance>
                            <width>1920</width>
                            <height>1080</height>
                          </samplecharacteristics>
                        </video>
                      </media>
                    </file>
                  </clipitem>
                </track>
              </video>
            </media>
          </clip>
          <clip explodedTracks="true" frameBlend="FALSE" id="masterclip-305">
            <uuid>fc319d3b-d310-43d4-9870-36aae4091e0d</uuid>
            <masterclipid>masterclip-305</masterclipid>
            <ismasterclip>TRUE</ismasterclip>
            <duration>672</duration>
            <in>0</in>
            <out>672</out>
            <name>Scene - LJ visemes.303.png</name>
            <rate>
              <timebase>24</timebase>
              <ntsc>FALSE</ntsc>
            </rate>
            <media>
              <video>
                <track>
                  <clipitem frameBlend="FALSE" id="clipitem-306">
                    <name>Scene - LJ visemes.303.png</name>
                    <masterclipid>masterclip-305</masterclipid>
                    <rate>
                      <timebase>24</timebase>
                      <ntsc>FALSE</ntsc>
                    </rate>
                    <alphatype>straight</alphatype>
                    <pixelaspectratio>square</pixelaspectratio>
                    <anamorphic>FALSE</anamorphic>
                    <file id="file-305">
                      <name>Scene - LJ visemes.303.png</name>
                      <pathurl>file://localhost/Users/bot/Documents/CREATE/Character Animator/LJ visemes CH2AE/demo/Scene - LJ visemes/Scene - LJ visemes.303.png</pathurl>
                      <rate>
                        <timebase>24</timebase>
                        <ntsc>FALSE</ntsc>
                      </rate>
                      <duration>672</duration>
                      <timecode>
                        <rate>
                          <timebase>24</timebase>
                          <ntsc>FALSE</ntsc>
                        </rate>
                      </timecode>
                      <media>
                        <video>
                          <duration>1</duration>
                          <samplecharacteristics>
                            <anamorphic>FALSE</anamorphic>
                            <pixelaspectratio>square</pixelaspectratio>
                            <fielddominance>none</fielddominance>
                            <width>1920</width>
                            <height>1080</height>
                          </samplecharacteristics>
                        </video>
                      </media>
                    </file>
                  </clipitem>
                </track>
              </video>
            </media>
          </clip>
          <clip explodedTracks="true" frameBlend="FALSE" id="masterclip-306">
            <uuid>1c832775-ea17-44d0-a519-4c873df2fa86</uuid>
            <masterclipid>masterclip-306</masterclipid>
            <ismasterclip>TRUE</ismasterclip>
            <duration>672</duration>
            <in>0</in>
            <out>672</out>
            <name>Scene - LJ visemes.304.png</name>
            <rate>
              <timebase>24</timebase>
              <ntsc>FALSE</ntsc>
            </rate>
            <media>
              <video>
                <track>
                  <clipitem frameBlend="FALSE" id="clipitem-307">
                    <name>Scene - LJ visemes.304.png</name>
                    <masterclipid>masterclip-306</masterclipid>
                    <rate>
                      <timebase>24</timebase>
                      <ntsc>FALSE</ntsc>
                    </rate>
                    <alphatype>straight</alphatype>
                    <pixelaspectratio>square</pixelaspectratio>
                    <anamorphic>FALSE</anamorphic>
                    <file id="file-306">
                      <name>Scene - LJ visemes.304.png</name>
                      <pathurl>file://localhost/Users/bot/Documents/CREATE/Character Animator/LJ visemes CH2AE/demo/Scene - LJ visemes/Scene - LJ visemes.304.png</pathurl>
                      <rate>
                        <timebase>24</timebase>
                        <ntsc>FALSE</ntsc>
                      </rate>
                      <duration>672</duration>
                      <timecode>
                        <rate>
                          <timebase>24</timebase>
                          <ntsc>FALSE</ntsc>
                        </rate>
                      </timecode>
                      <media>
                        <video>
                          <duration>1</duration>
                          <samplecharacteristics>
                            <anamorphic>FALSE</anamorphic>
                            <pixelaspectratio>square</pixelaspectratio>
                            <fielddominance>none</fielddominance>
                            <width>1920</width>
                            <height>1080</height>
                          </samplecharacteristics>
                        </video>
                      </media>
                    </file>
                  </clipitem>
                </track>
              </video>
            </media>
          </clip>
          <clip explodedTracks="true" frameBlend="FALSE" id="masterclip-307">
            <uuid>46e8881d-4235-4d7b-84e0-7ab702c6f2d2</uuid>
            <masterclipid>masterclip-307</masterclipid>
            <ismasterclip>TRUE</ismasterclip>
            <duration>672</duration>
            <in>0</in>
            <out>672</out>
            <name>Scene - LJ visemes.305.png</name>
            <rate>
              <timebase>24</timebase>
              <ntsc>FALSE</ntsc>
            </rate>
            <media>
              <video>
                <track>
                  <clipitem frameBlend="FALSE" id="clipitem-308">
                    <name>Scene - LJ visemes.305.png</name>
                    <masterclipid>masterclip-307</masterclipid>
                    <rate>
                      <timebase>24</timebase>
                      <ntsc>FALSE</ntsc>
                    </rate>
                    <alphatype>straight</alphatype>
                    <pixelaspectratio>square</pixelaspectratio>
                    <anamorphic>FALSE</anamorphic>
                    <file id="file-307">
                      <name>Scene - LJ visemes.305.png</name>
                      <pathurl>file://localhost/Users/bot/Documents/CREATE/Character Animator/LJ visemes CH2AE/demo/Scene - LJ visemes/Scene - LJ visemes.305.png</pathurl>
                      <rate>
                        <timebase>24</timebase>
                        <ntsc>FALSE</ntsc>
                      </rate>
                      <duration>672</duration>
                      <timecode>
                        <rate>
                          <timebase>24</timebase>
                          <ntsc>FALSE</ntsc>
                        </rate>
                      </timecode>
                      <media>
                        <video>
                          <duration>1</duration>
                          <samplecharacteristics>
                            <anamorphic>FALSE</anamorphic>
                            <pixelaspectratio>square</pixelaspectratio>
                            <fielddominance>none</fielddominance>
                            <width>1920</width>
                            <height>1080</height>
                          </samplecharacteristics>
                        </video>
                      </media>
                    </file>
                  </clipitem>
                </track>
              </video>
            </media>
          </clip>
          <clip explodedTracks="true" frameBlend="FALSE" id="masterclip-308">
            <uuid>cb6315a7-dbf2-4ce8-92a4-41813eb7bd60</uuid>
            <masterclipid>masterclip-308</masterclipid>
            <ismasterclip>TRUE</ismasterclip>
            <duration>672</duration>
            <in>0</in>
            <out>672</out>
            <name>Scene - LJ visemes.306.png</name>
            <rate>
              <timebase>24</timebase>
              <ntsc>FALSE</ntsc>
            </rate>
            <media>
              <video>
                <track>
                  <clipitem frameBlend="FALSE" id="clipitem-309">
                    <name>Scene - LJ visemes.306.png</name>
                    <masterclipid>masterclip-308</masterclipid>
                    <rate>
                      <timebase>24</timebase>
                      <ntsc>FALSE</ntsc>
                    </rate>
                    <alphatype>straight</alphatype>
                    <pixelaspectratio>square</pixelaspectratio>
                    <anamorphic>FALSE</anamorphic>
                    <file id="file-308">
                      <name>Scene - LJ visemes.306.png</name>
                      <pathurl>file://localhost/Users/bot/Documents/CREATE/Character Animator/LJ visemes CH2AE/demo/Scene - LJ visemes/Scene - LJ visemes.306.png</pathurl>
                      <rate>
                        <timebase>24</timebase>
                        <ntsc>FALSE</ntsc>
                      </rate>
                      <duration>672</duration>
                      <timecode>
                        <rate>
                          <timebase>24</timebase>
                          <ntsc>FALSE</ntsc>
                        </rate>
                      </timecode>
                      <media>
                        <video>
                          <duration>1</duration>
                          <samplecharacteristics>
                            <anamorphic>FALSE</anamorphic>
                            <pixelaspectratio>square</pixelaspectratio>
                            <fielddominance>none</fielddominance>
                            <width>1920</width>
                            <height>1080</height>
                          </samplecharacteristics>
                        </video>
                      </media>
                    </file>
                  </clipitem>
                </track>
              </video>
            </media>
          </clip>
          <clip explodedTracks="true" frameBlend="FALSE" id="masterclip-309">
            <uuid>ce247a28-6457-479d-82bf-72b102a13f15</uuid>
            <masterclipid>masterclip-309</masterclipid>
            <ismasterclip>TRUE</ismasterclip>
            <duration>672</duration>
            <in>0</in>
            <out>672</out>
            <name>Scene - LJ visemes.307.png</name>
            <rate>
              <timebase>24</timebase>
              <ntsc>FALSE</ntsc>
            </rate>
            <media>
              <video>
                <track>
                  <clipitem frameBlend="FALSE" id="clipitem-310">
                    <name>Scene - LJ visemes.307.png</name>
                    <masterclipid>masterclip-309</masterclipid>
                    <rate>
                      <timebase>24</timebase>
                      <ntsc>FALSE</ntsc>
                    </rate>
                    <alphatype>straight</alphatype>
                    <pixelaspectratio>square</pixelaspectratio>
                    <anamorphic>FALSE</anamorphic>
                    <file id="file-309">
                      <name>Scene - LJ visemes.307.png</name>
                      <pathurl>file://localhost/Users/bot/Documents/CREATE/Character Animator/LJ visemes CH2AE/demo/Scene - LJ visemes/Scene - LJ visemes.307.png</pathurl>
                      <rate>
                        <timebase>24</timebase>
                        <ntsc>FALSE</ntsc>
                      </rate>
                      <duration>672</duration>
                      <timecode>
                        <rate>
                          <timebase>24</timebase>
                          <ntsc>FALSE</ntsc>
                        </rate>
                      </timecode>
                      <media>
                        <video>
                          <duration>1</duration>
                          <samplecharacteristics>
                            <anamorphic>FALSE</anamorphic>
                            <pixelaspectratio>square</pixelaspectratio>
                            <fielddominance>none</fielddominance>
                            <width>1920</width>
                            <height>1080</height>
                          </samplecharacteristics>
                        </video>
                      </media>
                    </file>
                  </clipitem>
                </track>
              </video>
            </media>
          </clip>
          <clip explodedTracks="true" frameBlend="FALSE" id="masterclip-310">
            <uuid>e36cde5f-7006-4c47-9730-301dd4ad63c8</uuid>
            <masterclipid>masterclip-310</masterclipid>
            <ismasterclip>TRUE</ismasterclip>
            <duration>672</duration>
            <in>0</in>
            <out>672</out>
            <name>Scene - LJ visemes.308.png</name>
            <rate>
              <timebase>24</timebase>
              <ntsc>FALSE</ntsc>
            </rate>
            <media>
              <video>
                <track>
                  <clipitem frameBlend="FALSE" id="clipitem-311">
                    <name>Scene - LJ visemes.308.png</name>
                    <masterclipid>masterclip-310</masterclipid>
                    <rate>
                      <timebase>24</timebase>
                      <ntsc>FALSE</ntsc>
                    </rate>
                    <alphatype>straight</alphatype>
                    <pixelaspectratio>square</pixelaspectratio>
                    <anamorphic>FALSE</anamorphic>
                    <file id="file-310">
                      <name>Scene - LJ visemes.308.png</name>
                      <pathurl>file://localhost/Users/bot/Documents/CREATE/Character Animator/LJ visemes CH2AE/demo/Scene - LJ visemes/Scene - LJ visemes.308.png</pathurl>
                      <rate>
                        <timebase>24</timebase>
                        <ntsc>FALSE</ntsc>
                      </rate>
                      <duration>672</duration>
                      <timecode>
                        <rate>
                          <timebase>24</timebase>
                          <ntsc>FALSE</ntsc>
                        </rate>
                      </timecode>
                      <media>
                        <video>
                          <duration>1</duration>
                          <samplecharacteristics>
                            <anamorphic>FALSE</anamorphic>
                            <pixelaspectratio>square</pixelaspectratio>
                            <fielddominance>none</fielddominance>
                            <width>1920</width>
                            <height>1080</height>
                          </samplecharacteristics>
                        </video>
                      </media>
                    </file>
                  </clipitem>
                </track>
              </video>
            </media>
          </clip>
          <clip explodedTracks="true" frameBlend="FALSE" id="masterclip-311">
            <uuid>b4c3809c-2bd1-4605-a7f6-420925057d13</uuid>
            <masterclipid>masterclip-311</masterclipid>
            <ismasterclip>TRUE</ismasterclip>
            <duration>672</duration>
            <in>0</in>
            <out>672</out>
            <name>Scene - LJ visemes.309.png</name>
            <rate>
              <timebase>24</timebase>
              <ntsc>FALSE</ntsc>
            </rate>
            <media>
              <video>
                <track>
                  <clipitem frameBlend="FALSE" id="clipitem-312">
                    <name>Scene - LJ visemes.309.png</name>
                    <masterclipid>masterclip-311</masterclipid>
                    <rate>
                      <timebase>24</timebase>
                      <ntsc>FALSE</ntsc>
                    </rate>
                    <alphatype>straight</alphatype>
                    <pixelaspectratio>square</pixelaspectratio>
                    <anamorphic>FALSE</anamorphic>
                    <file id="file-311">
                      <name>Scene - LJ visemes.309.png</name>
                      <pathurl>file://localhost/Users/bot/Documents/CREATE/Character Animator/LJ visemes CH2AE/demo/Scene - LJ visemes/Scene - LJ visemes.309.png</pathurl>
                      <rate>
                        <timebase>24</timebase>
                        <ntsc>FALSE</ntsc>
                      </rate>
                      <duration>672</duration>
                      <timecode>
                        <rate>
                          <timebase>24</timebase>
                          <ntsc>FALSE</ntsc>
                        </rate>
                      </timecode>
                      <media>
                        <video>
                          <duration>1</duration>
                          <samplecharacteristics>
                            <anamorphic>FALSE</anamorphic>
                            <pixelaspectratio>square</pixelaspectratio>
                            <fielddominance>none</fielddominance>
                            <width>1920</width>
                            <height>1080</height>
                          </samplecharacteristics>
                        </video>
                      </media>
                    </file>
                  </clipitem>
                </track>
              </video>
            </media>
          </clip>
          <clip explodedTracks="true" frameBlend="FALSE" id="masterclip-312">
            <uuid>a08f8f24-3a9d-413c-9fd0-57fd3bb644c3</uuid>
            <masterclipid>masterclip-312</masterclipid>
            <ismasterclip>TRUE</ismasterclip>
            <duration>672</duration>
            <in>0</in>
            <out>672</out>
            <name>Scene - LJ visemes.310.png</name>
            <rate>
              <timebase>24</timebase>
              <ntsc>FALSE</ntsc>
            </rate>
            <media>
              <video>
                <track>
                  <clipitem frameBlend="FALSE" id="clipitem-313">
                    <name>Scene - LJ visemes.310.png</name>
                    <masterclipid>masterclip-312</masterclipid>
                    <rate>
                      <timebase>24</timebase>
                      <ntsc>FALSE</ntsc>
                    </rate>
                    <alphatype>straight</alphatype>
                    <pixelaspectratio>square</pixelaspectratio>
                    <anamorphic>FALSE</anamorphic>
                    <file id="file-312">
                      <name>Scene - LJ visemes.310.png</name>
                      <pathurl>file://localhost/Users/bot/Documents/CREATE/Character Animator/LJ visemes CH2AE/demo/Scene - LJ visemes/Scene - LJ visemes.310.png</pathurl>
                      <rate>
                        <timebase>24</timebase>
                        <ntsc>FALSE</ntsc>
                      </rate>
                      <duration>672</duration>
                      <timecode>
                        <rate>
                          <timebase>24</timebase>
                          <ntsc>FALSE</ntsc>
                        </rate>
                      </timecode>
                      <media>
                        <video>
                          <duration>1</duration>
                          <samplecharacteristics>
                            <anamorphic>FALSE</anamorphic>
                            <pixelaspectratio>square</pixelaspectratio>
                            <fielddominance>none</fielddominance>
                            <width>1920</width>
                            <height>1080</height>
                          </samplecharacteristics>
                        </video>
                      </media>
                    </file>
                  </clipitem>
                </track>
              </video>
            </media>
          </clip>
          <clip explodedTracks="true" frameBlend="FALSE" id="masterclip-313">
            <uuid>b9cb3b64-20ed-430a-b782-6376ac78b3ed</uuid>
            <masterclipid>masterclip-313</masterclipid>
            <ismasterclip>TRUE</ismasterclip>
            <duration>672</duration>
            <in>0</in>
            <out>672</out>
            <name>Scene - LJ visemes.311.png</name>
            <rate>
              <timebase>24</timebase>
              <ntsc>FALSE</ntsc>
            </rate>
            <media>
              <video>
                <track>
                  <clipitem frameBlend="FALSE" id="clipitem-314">
                    <name>Scene - LJ visemes.311.png</name>
                    <masterclipid>masterclip-313</masterclipid>
                    <rate>
                      <timebase>24</timebase>
                      <ntsc>FALSE</ntsc>
                    </rate>
                    <alphatype>straight</alphatype>
                    <pixelaspectratio>square</pixelaspectratio>
                    <anamorphic>FALSE</anamorphic>
                    <file id="file-313">
                      <name>Scene - LJ visemes.311.png</name>
                      <pathurl>file://localhost/Users/bot/Documents/CREATE/Character Animator/LJ visemes CH2AE/demo/Scene - LJ visemes/Scene - LJ visemes.311.png</pathurl>
                      <rate>
                        <timebase>24</timebase>
                        <ntsc>FALSE</ntsc>
                      </rate>
                      <duration>672</duration>
                      <timecode>
                        <rate>
                          <timebase>24</timebase>
                          <ntsc>FALSE</ntsc>
                        </rate>
                      </timecode>
                      <media>
                        <video>
                          <duration>1</duration>
                          <samplecharacteristics>
                            <anamorphic>FALSE</anamorphic>
                            <pixelaspectratio>square</pixelaspectratio>
                            <fielddominance>none</fielddominance>
                            <width>1920</width>
                            <height>1080</height>
                          </samplecharacteristics>
                        </video>
                      </media>
                    </file>
                  </clipitem>
                </track>
              </video>
            </media>
          </clip>
          <clip explodedTracks="true" frameBlend="FALSE" id="masterclip-314">
            <uuid>510c1a32-e271-4298-98b3-1eaebc8179c3</uuid>
            <masterclipid>masterclip-314</masterclipid>
            <ismasterclip>TRUE</ismasterclip>
            <duration>672</duration>
            <in>0</in>
            <out>672</out>
            <name>Scene - LJ visemes.312.png</name>
            <rate>
              <timebase>24</timebase>
              <ntsc>FALSE</ntsc>
            </rate>
            <media>
              <video>
                <track>
                  <clipitem frameBlend="FALSE" id="clipitem-315">
                    <name>Scene - LJ visemes.312.png</name>
                    <masterclipid>masterclip-314</masterclipid>
                    <rate>
                      <timebase>24</timebase>
                      <ntsc>FALSE</ntsc>
                    </rate>
                    <alphatype>straight</alphatype>
                    <pixelaspectratio>square</pixelaspectratio>
                    <anamorphic>FALSE</anamorphic>
                    <file id="file-314">
                      <name>Scene - LJ visemes.312.png</name>
                      <pathurl>file://localhost/Users/bot/Documents/CREATE/Character Animator/LJ visemes CH2AE/demo/Scene - LJ visemes/Scene - LJ visemes.312.png</pathurl>
                      <rate>
                        <timebase>24</timebase>
                        <ntsc>FALSE</ntsc>
                      </rate>
                      <duration>672</duration>
                      <timecode>
                        <rate>
                          <timebase>24</timebase>
                          <ntsc>FALSE</ntsc>
                        </rate>
                      </timecode>
                      <media>
                        <video>
                          <duration>1</duration>
                          <samplecharacteristics>
                            <anamorphic>FALSE</anamorphic>
                            <pixelaspectratio>square</pixelaspectratio>
                            <fielddominance>none</fielddominance>
                            <width>1920</width>
                            <height>1080</height>
                          </samplecharacteristics>
                        </video>
                      </media>
                    </file>
                  </clipitem>
                </track>
              </video>
            </media>
          </clip>
          <clip explodedTracks="true" frameBlend="FALSE" id="masterclip-315">
            <uuid>36cf5d4d-3211-489c-9abf-84c730b31fd0</uuid>
            <masterclipid>masterclip-315</masterclipid>
            <ismasterclip>TRUE</ismasterclip>
            <duration>672</duration>
            <in>0</in>
            <out>672</out>
            <name>Scene - LJ visemes.313.png</name>
            <rate>
              <timebase>24</timebase>
              <ntsc>FALSE</ntsc>
            </rate>
            <media>
              <video>
                <track>
                  <clipitem frameBlend="FALSE" id="clipitem-316">
                    <name>Scene - LJ visemes.313.png</name>
                    <masterclipid>masterclip-315</masterclipid>
                    <rate>
                      <timebase>24</timebase>
                      <ntsc>FALSE</ntsc>
                    </rate>
                    <alphatype>straight</alphatype>
                    <pixelaspectratio>square</pixelaspectratio>
                    <anamorphic>FALSE</anamorphic>
                    <file id="file-315">
                      <name>Scene - LJ visemes.313.png</name>
                      <pathurl>file://localhost/Users/bot/Documents/CREATE/Character Animator/LJ visemes CH2AE/demo/Scene - LJ visemes/Scene - LJ visemes.313.png</pathurl>
                      <rate>
                        <timebase>24</timebase>
                        <ntsc>FALSE</ntsc>
                      </rate>
                      <duration>672</duration>
                      <timecode>
                        <rate>
                          <timebase>24</timebase>
                          <ntsc>FALSE</ntsc>
                        </rate>
                      </timecode>
                      <media>
                        <video>
                          <duration>1</duration>
                          <samplecharacteristics>
                            <anamorphic>FALSE</anamorphic>
                            <pixelaspectratio>square</pixelaspectratio>
                            <fielddominance>none</fielddominance>
                            <width>1920</width>
                            <height>1080</height>
                          </samplecharacteristics>
                        </video>
                      </media>
                    </file>
                  </clipitem>
                </track>
              </video>
            </media>
          </clip>
          <clip explodedTracks="true" frameBlend="FALSE" id="masterclip-316">
            <uuid>1e852255-6ed9-47ef-837a-bfe878a25d4d</uuid>
            <masterclipid>masterclip-316</masterclipid>
            <ismasterclip>TRUE</ismasterclip>
            <duration>672</duration>
            <in>0</in>
            <out>672</out>
            <name>Scene - LJ visemes.314.png</name>
            <rate>
              <timebase>24</timebase>
              <ntsc>FALSE</ntsc>
            </rate>
            <media>
              <video>
                <track>
                  <clipitem frameBlend="FALSE" id="clipitem-317">
                    <name>Scene - LJ visemes.314.png</name>
                    <masterclipid>masterclip-316</masterclipid>
                    <rate>
                      <timebase>24</timebase>
                      <ntsc>FALSE</ntsc>
                    </rate>
                    <alphatype>straight</alphatype>
                    <pixelaspectratio>square</pixelaspectratio>
                    <anamorphic>FALSE</anamorphic>
                    <file id="file-316">
                      <name>Scene - LJ visemes.314.png</name>
                      <pathurl>file://localhost/Users/bot/Documents/CREATE/Character Animator/LJ visemes CH2AE/demo/Scene - LJ visemes/Scene - LJ visemes.314.png</pathurl>
                      <rate>
                        <timebase>24</timebase>
                        <ntsc>FALSE</ntsc>
                      </rate>
                      <duration>672</duration>
                      <timecode>
                        <rate>
                          <timebase>24</timebase>
                          <ntsc>FALSE</ntsc>
                        </rate>
                      </timecode>
                      <media>
                        <video>
                          <duration>1</duration>
                          <samplecharacteristics>
                            <anamorphic>FALSE</anamorphic>
                            <pixelaspectratio>square</pixelaspectratio>
                            <fielddominance>none</fielddominance>
                            <width>1920</width>
                            <height>1080</height>
                          </samplecharacteristics>
                        </video>
                      </media>
                    </file>
                  </clipitem>
                </track>
              </video>
            </media>
          </clip>
          <clip explodedTracks="true" frameBlend="FALSE" id="masterclip-317">
            <uuid>64193e42-3e5a-4e64-a10b-11dcfab8a452</uuid>
            <masterclipid>masterclip-317</masterclipid>
            <ismasterclip>TRUE</ismasterclip>
            <duration>672</duration>
            <in>0</in>
            <out>672</out>
            <name>Scene - LJ visemes.315.png</name>
            <rate>
              <timebase>24</timebase>
              <ntsc>FALSE</ntsc>
            </rate>
            <media>
              <video>
                <track>
                  <clipitem frameBlend="FALSE" id="clipitem-318">
                    <name>Scene - LJ visemes.315.png</name>
                    <masterclipid>masterclip-317</masterclipid>
                    <rate>
                      <timebase>24</timebase>
                      <ntsc>FALSE</ntsc>
                    </rate>
                    <alphatype>straight</alphatype>
                    <pixelaspectratio>square</pixelaspectratio>
                    <anamorphic>FALSE</anamorphic>
                    <file id="file-317">
                      <name>Scene - LJ visemes.315.png</name>
                      <pathurl>file://localhost/Users/bot/Documents/CREATE/Character Animator/LJ visemes CH2AE/demo/Scene - LJ visemes/Scene - LJ visemes.315.png</pathurl>
                      <rate>
                        <timebase>24</timebase>
                        <ntsc>FALSE</ntsc>
                      </rate>
                      <duration>672</duration>
                      <timecode>
                        <rate>
                          <timebase>24</timebase>
                          <ntsc>FALSE</ntsc>
                        </rate>
                      </timecode>
                      <media>
                        <video>
                          <duration>1</duration>
                          <samplecharacteristics>
                            <anamorphic>FALSE</anamorphic>
                            <pixelaspectratio>square</pixelaspectratio>
                            <fielddominance>none</fielddominance>
                            <width>1920</width>
                            <height>1080</height>
                          </samplecharacteristics>
                        </video>
                      </media>
                    </file>
                  </clipitem>
                </track>
              </video>
            </media>
          </clip>
          <clip explodedTracks="true" frameBlend="FALSE" id="masterclip-318">
            <uuid>38a65cdf-3b2a-47c2-bb95-6b30b66ad562</uuid>
            <masterclipid>masterclip-318</masterclipid>
            <ismasterclip>TRUE</ismasterclip>
            <duration>672</duration>
            <in>0</in>
            <out>672</out>
            <name>Scene - LJ visemes.316.png</name>
            <rate>
              <timebase>24</timebase>
              <ntsc>FALSE</ntsc>
            </rate>
            <media>
              <video>
                <track>
                  <clipitem frameBlend="FALSE" id="clipitem-319">
                    <name>Scene - LJ visemes.316.png</name>
                    <masterclipid>masterclip-318</masterclipid>
                    <rate>
                      <timebase>24</timebase>
                      <ntsc>FALSE</ntsc>
                    </rate>
                    <alphatype>straight</alphatype>
                    <pixelaspectratio>square</pixelaspectratio>
                    <anamorphic>FALSE</anamorphic>
                    <file id="file-318">
                      <name>Scene - LJ visemes.316.png</name>
                      <pathurl>file://localhost/Users/bot/Documents/CREATE/Character Animator/LJ visemes CH2AE/demo/Scene - LJ visemes/Scene - LJ visemes.316.png</pathurl>
                      <rate>
                        <timebase>24</timebase>
                        <ntsc>FALSE</ntsc>
                      </rate>
                      <duration>672</duration>
                      <timecode>
                        <rate>
                          <timebase>24</timebase>
                          <ntsc>FALSE</ntsc>
                        </rate>
                      </timecode>
                      <media>
                        <video>
                          <duration>1</duration>
                          <samplecharacteristics>
                            <anamorphic>FALSE</anamorphic>
                            <pixelaspectratio>square</pixelaspectratio>
                            <fielddominance>none</fielddominance>
                            <width>1920</width>
                            <height>1080</height>
                          </samplecharacteristics>
                        </video>
                      </media>
                    </file>
                  </clipitem>
                </track>
              </video>
            </media>
          </clip>
          <clip explodedTracks="true" frameBlend="FALSE" id="masterclip-319">
            <uuid>9ea9fc39-7d95-4a78-a5dd-80eb3ab37f86</uuid>
            <masterclipid>masterclip-319</masterclipid>
            <ismasterclip>TRUE</ismasterclip>
            <duration>672</duration>
            <in>0</in>
            <out>672</out>
            <name>Scene - LJ visemes.317.png</name>
            <rate>
              <timebase>24</timebase>
              <ntsc>FALSE</ntsc>
            </rate>
            <media>
              <video>
                <track>
                  <clipitem frameBlend="FALSE" id="clipitem-320">
                    <name>Scene - LJ visemes.317.png</name>
                    <masterclipid>masterclip-319</masterclipid>
                    <rate>
                      <timebase>24</timebase>
                      <ntsc>FALSE</ntsc>
                    </rate>
                    <alphatype>straight</alphatype>
                    <pixelaspectratio>square</pixelaspectratio>
                    <anamorphic>FALSE</anamorphic>
                    <file id="file-319">
                      <name>Scene - LJ visemes.317.png</name>
                      <pathurl>file://localhost/Users/bot/Documents/CREATE/Character Animator/LJ visemes CH2AE/demo/Scene - LJ visemes/Scene - LJ visemes.317.png</pathurl>
                      <rate>
                        <timebase>24</timebase>
                        <ntsc>FALSE</ntsc>
                      </rate>
                      <duration>672</duration>
                      <timecode>
                        <rate>
                          <timebase>24</timebase>
                          <ntsc>FALSE</ntsc>
                        </rate>
                      </timecode>
                      <media>
                        <video>
                          <duration>1</duration>
                          <samplecharacteristics>
                            <anamorphic>FALSE</anamorphic>
                            <pixelaspectratio>square</pixelaspectratio>
                            <fielddominance>none</fielddominance>
                            <width>1920</width>
                            <height>1080</height>
                          </samplecharacteristics>
                        </video>
                      </media>
                    </file>
                  </clipitem>
                </track>
              </video>
            </media>
          </clip>
          <clip explodedTracks="true" frameBlend="FALSE" id="masterclip-320">
            <uuid>6931f399-25c6-4889-bb4e-520683718417</uuid>
            <masterclipid>masterclip-320</masterclipid>
            <ismasterclip>TRUE</ismasterclip>
            <duration>672</duration>
            <in>0</in>
            <out>672</out>
            <name>Scene - LJ visemes.318.png</name>
            <rate>
              <timebase>24</timebase>
              <ntsc>FALSE</ntsc>
            </rate>
            <media>
              <video>
                <track>
                  <clipitem frameBlend="FALSE" id="clipitem-321">
                    <name>Scene - LJ visemes.318.png</name>
                    <masterclipid>masterclip-320</masterclipid>
                    <rate>
                      <timebase>24</timebase>
                      <ntsc>FALSE</ntsc>
                    </rate>
                    <alphatype>straight</alphatype>
                    <pixelaspectratio>square</pixelaspectratio>
                    <anamorphic>FALSE</anamorphic>
                    <file id="file-320">
                      <name>Scene - LJ visemes.318.png</name>
                      <pathurl>file://localhost/Users/bot/Documents/CREATE/Character Animator/LJ visemes CH2AE/demo/Scene - LJ visemes/Scene - LJ visemes.318.png</pathurl>
                      <rate>
                        <timebase>24</timebase>
                        <ntsc>FALSE</ntsc>
                      </rate>
                      <duration>672</duration>
                      <timecode>
                        <rate>
                          <timebase>24</timebase>
                          <ntsc>FALSE</ntsc>
                        </rate>
                      </timecode>
                      <media>
                        <video>
                          <duration>1</duration>
                          <samplecharacteristics>
                            <anamorphic>FALSE</anamorphic>
                            <pixelaspectratio>square</pixelaspectratio>
                            <fielddominance>none</fielddominance>
                            <width>1920</width>
                            <height>1080</height>
                          </samplecharacteristics>
                        </video>
                      </media>
                    </file>
                  </clipitem>
                </track>
              </video>
            </media>
          </clip>
          <clip explodedTracks="true" frameBlend="FALSE" id="masterclip-321">
            <uuid>28c6e1f7-c651-4679-8c48-4fbeabc914cf</uuid>
            <masterclipid>masterclip-321</masterclipid>
            <ismasterclip>TRUE</ismasterclip>
            <duration>672</duration>
            <in>0</in>
            <out>672</out>
            <name>Scene - LJ visemes.319.png</name>
            <rate>
              <timebase>24</timebase>
              <ntsc>FALSE</ntsc>
            </rate>
            <media>
              <video>
                <track>
                  <clipitem frameBlend="FALSE" id="clipitem-322">
                    <name>Scene - LJ visemes.319.png</name>
                    <masterclipid>masterclip-321</masterclipid>
                    <rate>
                      <timebase>24</timebase>
                      <ntsc>FALSE</ntsc>
                    </rate>
                    <alphatype>straight</alphatype>
                    <pixelaspectratio>square</pixelaspectratio>
                    <anamorphic>FALSE</anamorphic>
                    <file id="file-321">
                      <name>Scene - LJ visemes.319.png</name>
                      <pathurl>file://localhost/Users/bot/Documents/CREATE/Character Animator/LJ visemes CH2AE/demo/Scene - LJ visemes/Scene - LJ visemes.319.png</pathurl>
                      <rate>
                        <timebase>24</timebase>
                        <ntsc>FALSE</ntsc>
                      </rate>
                      <duration>672</duration>
                      <timecode>
                        <rate>
                          <timebase>24</timebase>
                          <ntsc>FALSE</ntsc>
                        </rate>
                      </timecode>
                      <media>
                        <video>
                          <duration>1</duration>
                          <samplecharacteristics>
                            <anamorphic>FALSE</anamorphic>
                            <pixelaspectratio>square</pixelaspectratio>
                            <fielddominance>none</fielddominance>
                            <width>1920</width>
                            <height>1080</height>
                          </samplecharacteristics>
                        </video>
                      </media>
                    </file>
                  </clipitem>
                </track>
              </video>
            </media>
          </clip>
          <clip explodedTracks="true" frameBlend="FALSE" id="masterclip-322">
            <uuid>08f78076-a610-449e-8beb-f9f615a43352</uuid>
            <masterclipid>masterclip-322</masterclipid>
            <ismasterclip>TRUE</ismasterclip>
            <duration>672</duration>
            <in>0</in>
            <out>672</out>
            <name>Scene - LJ visemes.320.png</name>
            <rate>
              <timebase>24</timebase>
              <ntsc>FALSE</ntsc>
            </rate>
            <media>
              <video>
                <track>
                  <clipitem frameBlend="FALSE" id="clipitem-323">
                    <name>Scene - LJ visemes.320.png</name>
                    <masterclipid>masterclip-322</masterclipid>
                    <rate>
                      <timebase>24</timebase>
                      <ntsc>FALSE</ntsc>
                    </rate>
                    <alphatype>straight</alphatype>
                    <pixelaspectratio>square</pixelaspectratio>
                    <anamorphic>FALSE</anamorphic>
                    <file id="file-322">
                      <name>Scene - LJ visemes.320.png</name>
                      <pathurl>file://localhost/Users/bot/Documents/CREATE/Character Animator/LJ visemes CH2AE/demo/Scene - LJ visemes/Scene - LJ visemes.320.png</pathurl>
                      <rate>
                        <timebase>24</timebase>
                        <ntsc>FALSE</ntsc>
                      </rate>
                      <duration>672</duration>
                      <timecode>
                        <rate>
                          <timebase>24</timebase>
                          <ntsc>FALSE</ntsc>
                        </rate>
                      </timecode>
                      <media>
                        <video>
                          <duration>1</duration>
                          <samplecharacteristics>
                            <anamorphic>FALSE</anamorphic>
                            <pixelaspectratio>square</pixelaspectratio>
                            <fielddominance>none</fielddominance>
                            <width>1920</width>
                            <height>1080</height>
                          </samplecharacteristics>
                        </video>
                      </media>
                    </file>
                  </clipitem>
                </track>
              </video>
            </media>
          </clip>
          <clip explodedTracks="true" frameBlend="FALSE" id="masterclip-323">
            <uuid>76e16220-469e-430e-b213-88ea0b01e980</uuid>
            <masterclipid>masterclip-323</masterclipid>
            <ismasterclip>TRUE</ismasterclip>
            <duration>672</duration>
            <in>0</in>
            <out>672</out>
            <name>Scene - LJ visemes.321.png</name>
            <rate>
              <timebase>24</timebase>
              <ntsc>FALSE</ntsc>
            </rate>
            <media>
              <video>
                <track>
                  <clipitem frameBlend="FALSE" id="clipitem-324">
                    <name>Scene - LJ visemes.321.png</name>
                    <masterclipid>masterclip-323</masterclipid>
                    <rate>
                      <timebase>24</timebase>
                      <ntsc>FALSE</ntsc>
                    </rate>
                    <alphatype>straight</alphatype>
                    <pixelaspectratio>square</pixelaspectratio>
                    <anamorphic>FALSE</anamorphic>
                    <file id="file-323">
                      <name>Scene - LJ visemes.321.png</name>
                      <pathurl>file://localhost/Users/bot/Documents/CREATE/Character Animator/LJ visemes CH2AE/demo/Scene - LJ visemes/Scene - LJ visemes.321.png</pathurl>
                      <rate>
                        <timebase>24</timebase>
                        <ntsc>FALSE</ntsc>
                      </rate>
                      <duration>672</duration>
                      <timecode>
                        <rate>
                          <timebase>24</timebase>
                          <ntsc>FALSE</ntsc>
                        </rate>
                      </timecode>
                      <media>
                        <video>
                          <duration>1</duration>
                          <samplecharacteristics>
                            <anamorphic>FALSE</anamorphic>
                            <pixelaspectratio>square</pixelaspectratio>
                            <fielddominance>none</fielddominance>
                            <width>1920</width>
                            <height>1080</height>
                          </samplecharacteristics>
                        </video>
                      </media>
                    </file>
                  </clipitem>
                </track>
              </video>
            </media>
          </clip>
          <clip explodedTracks="true" frameBlend="FALSE" id="masterclip-324">
            <uuid>04ac91d8-7b4f-428e-908d-6cc35cfd8615</uuid>
            <masterclipid>masterclip-324</masterclipid>
            <ismasterclip>TRUE</ismasterclip>
            <duration>672</duration>
            <in>0</in>
            <out>672</out>
            <name>Scene - LJ visemes.322.png</name>
            <rate>
              <timebase>24</timebase>
              <ntsc>FALSE</ntsc>
            </rate>
            <media>
              <video>
                <track>
                  <clipitem frameBlend="FALSE" id="clipitem-325">
                    <name>Scene - LJ visemes.322.png</name>
                    <masterclipid>masterclip-324</masterclipid>
                    <rate>
                      <timebase>24</timebase>
                      <ntsc>FALSE</ntsc>
                    </rate>
                    <alphatype>straight</alphatype>
                    <pixelaspectratio>square</pixelaspectratio>
                    <anamorphic>FALSE</anamorphic>
                    <file id="file-324">
                      <name>Scene - LJ visemes.322.png</name>
                      <pathurl>file://localhost/Users/bot/Documents/CREATE/Character Animator/LJ visemes CH2AE/demo/Scene - LJ visemes/Scene - LJ visemes.322.png</pathurl>
                      <rate>
                        <timebase>24</timebase>
                        <ntsc>FALSE</ntsc>
                      </rate>
                      <duration>672</duration>
                      <timecode>
                        <rate>
                          <timebase>24</timebase>
                          <ntsc>FALSE</ntsc>
                        </rate>
                      </timecode>
                      <media>
                        <video>
                          <duration>1</duration>
                          <samplecharacteristics>
                            <anamorphic>FALSE</anamorphic>
                            <pixelaspectratio>square</pixelaspectratio>
                            <fielddominance>none</fielddominance>
                            <width>1920</width>
                            <height>1080</height>
                          </samplecharacteristics>
                        </video>
                      </media>
                    </file>
                  </clipitem>
                </track>
              </video>
            </media>
          </clip>
          <clip explodedTracks="true" frameBlend="FALSE" id="masterclip-325">
            <uuid>63ac4692-6955-4c5a-878b-2bf98b84619c</uuid>
            <masterclipid>masterclip-325</masterclipid>
            <ismasterclip>TRUE</ismasterclip>
            <duration>672</duration>
            <in>0</in>
            <out>672</out>
            <name>Scene - LJ visemes.323.png</name>
            <rate>
              <timebase>24</timebase>
              <ntsc>FALSE</ntsc>
            </rate>
            <media>
              <video>
                <track>
                  <clipitem frameBlend="FALSE" id="clipitem-326">
                    <name>Scene - LJ visemes.323.png</name>
                    <masterclipid>masterclip-325</masterclipid>
                    <rate>
                      <timebase>24</timebase>
                      <ntsc>FALSE</ntsc>
                    </rate>
                    <alphatype>straight</alphatype>
                    <pixelaspectratio>square</pixelaspectratio>
                    <anamorphic>FALSE</anamorphic>
                    <file id="file-325">
                      <name>Scene - LJ visemes.323.png</name>
                      <pathurl>file://localhost/Users/bot/Documents/CREATE/Character Animator/LJ visemes CH2AE/demo/Scene - LJ visemes/Scene - LJ visemes.323.png</pathurl>
                      <rate>
                        <timebase>24</timebase>
                        <ntsc>FALSE</ntsc>
                      </rate>
                      <duration>672</duration>
                      <timecode>
                        <rate>
                          <timebase>24</timebase>
                          <ntsc>FALSE</ntsc>
                        </rate>
                      </timecode>
                      <media>
                        <video>
                          <duration>1</duration>
                          <samplecharacteristics>
                            <anamorphic>FALSE</anamorphic>
                            <pixelaspectratio>square</pixelaspectratio>
                            <fielddominance>none</fielddominance>
                            <width>1920</width>
                            <height>1080</height>
                          </samplecharacteristics>
                        </video>
                      </media>
                    </file>
                  </clipitem>
                </track>
              </video>
            </media>
          </clip>
          <clip explodedTracks="true" frameBlend="FALSE" id="masterclip-326">
            <uuid>de4de519-41f6-4de8-b571-46effe6c629e</uuid>
            <masterclipid>masterclip-326</masterclipid>
            <ismasterclip>TRUE</ismasterclip>
            <duration>672</duration>
            <in>0</in>
            <out>672</out>
            <name>Scene - LJ visemes.324.png</name>
            <rate>
              <timebase>24</timebase>
              <ntsc>FALSE</ntsc>
            </rate>
            <media>
              <video>
                <track>
                  <clipitem frameBlend="FALSE" id="clipitem-327">
                    <name>Scene - LJ visemes.324.png</name>
                    <masterclipid>masterclip-326</masterclipid>
                    <rate>
                      <timebase>24</timebase>
                      <ntsc>FALSE</ntsc>
                    </rate>
                    <alphatype>straight</alphatype>
                    <pixelaspectratio>square</pixelaspectratio>
                    <anamorphic>FALSE</anamorphic>
                    <file id="file-326">
                      <name>Scene - LJ visemes.324.png</name>
                      <pathurl>file://localhost/Users/bot/Documents/CREATE/Character Animator/LJ visemes CH2AE/demo/Scene - LJ visemes/Scene - LJ visemes.324.png</pathurl>
                      <rate>
                        <timebase>24</timebase>
                        <ntsc>FALSE</ntsc>
                      </rate>
                      <duration>672</duration>
                      <timecode>
                        <rate>
                          <timebase>24</timebase>
                          <ntsc>FALSE</ntsc>
                        </rate>
                      </timecode>
                      <media>
                        <video>
                          <duration>1</duration>
                          <samplecharacteristics>
                            <anamorphic>FALSE</anamorphic>
                            <pixelaspectratio>square</pixelaspectratio>
                            <fielddominance>none</fielddominance>
                            <width>1920</width>
                            <height>1080</height>
                          </samplecharacteristics>
                        </video>
                      </media>
                    </file>
                  </clipitem>
                </track>
              </video>
            </media>
          </clip>
          <clip explodedTracks="true" frameBlend="FALSE" id="masterclip-327">
            <uuid>70e83729-c70c-41b6-8d57-b418218d3a9d</uuid>
            <masterclipid>masterclip-327</masterclipid>
            <ismasterclip>TRUE</ismasterclip>
            <duration>672</duration>
            <in>0</in>
            <out>672</out>
            <name>Scene - LJ visemes.325.png</name>
            <rate>
              <timebase>24</timebase>
              <ntsc>FALSE</ntsc>
            </rate>
            <media>
              <video>
                <track>
                  <clipitem frameBlend="FALSE" id="clipitem-328">
                    <name>Scene - LJ visemes.325.png</name>
                    <masterclipid>masterclip-327</masterclipid>
                    <rate>
                      <timebase>24</timebase>
                      <ntsc>FALSE</ntsc>
                    </rate>
                    <alphatype>straight</alphatype>
                    <pixelaspectratio>square</pixelaspectratio>
                    <anamorphic>FALSE</anamorphic>
                    <file id="file-327">
                      <name>Scene - LJ visemes.325.png</name>
                      <pathurl>file://localhost/Users/bot/Documents/CREATE/Character Animator/LJ visemes CH2AE/demo/Scene - LJ visemes/Scene - LJ visemes.325.png</pathurl>
                      <rate>
                        <timebase>24</timebase>
                        <ntsc>FALSE</ntsc>
                      </rate>
                      <duration>672</duration>
                      <timecode>
                        <rate>
                          <timebase>24</timebase>
                          <ntsc>FALSE</ntsc>
                        </rate>
                      </timecode>
                      <media>
                        <video>
                          <duration>1</duration>
                          <samplecharacteristics>
                            <anamorphic>FALSE</anamorphic>
                            <pixelaspectratio>square</pixelaspectratio>
                            <fielddominance>none</fielddominance>
                            <width>1920</width>
                            <height>1080</height>
                          </samplecharacteristics>
                        </video>
                      </media>
                    </file>
                  </clipitem>
                </track>
              </video>
            </media>
          </clip>
          <clip explodedTracks="true" frameBlend="FALSE" id="masterclip-328">
            <uuid>6a7cb1e1-a313-4694-a504-ecd1442139e4</uuid>
            <masterclipid>masterclip-328</masterclipid>
            <ismasterclip>TRUE</ismasterclip>
            <duration>672</duration>
            <in>0</in>
            <out>672</out>
            <name>Scene - LJ visemes.326.png</name>
            <rate>
              <timebase>24</timebase>
              <ntsc>FALSE</ntsc>
            </rate>
            <media>
              <video>
                <track>
                  <clipitem frameBlend="FALSE" id="clipitem-329">
                    <name>Scene - LJ visemes.326.png</name>
                    <masterclipid>masterclip-328</masterclipid>
                    <rate>
                      <timebase>24</timebase>
                      <ntsc>FALSE</ntsc>
                    </rate>
                    <alphatype>straight</alphatype>
                    <pixelaspectratio>square</pixelaspectratio>
                    <anamorphic>FALSE</anamorphic>
                    <file id="file-328">
                      <name>Scene - LJ visemes.326.png</name>
                      <pathurl>file://localhost/Users/bot/Documents/CREATE/Character Animator/LJ visemes CH2AE/demo/Scene - LJ visemes/Scene - LJ visemes.326.png</pathurl>
                      <rate>
                        <timebase>24</timebase>
                        <ntsc>FALSE</ntsc>
                      </rate>
                      <duration>672</duration>
                      <timecode>
                        <rate>
                          <timebase>24</timebase>
                          <ntsc>FALSE</ntsc>
                        </rate>
                      </timecode>
                      <media>
                        <video>
                          <duration>1</duration>
                          <samplecharacteristics>
                            <anamorphic>FALSE</anamorphic>
                            <pixelaspectratio>square</pixelaspectratio>
                            <fielddominance>none</fielddominance>
                            <width>1920</width>
                            <height>1080</height>
                          </samplecharacteristics>
                        </video>
                      </media>
                    </file>
                  </clipitem>
                </track>
              </video>
            </media>
          </clip>
          <clip explodedTracks="true" frameBlend="FALSE" id="masterclip-329">
            <uuid>420115c5-7648-49da-8ff9-8d2099214325</uuid>
            <masterclipid>masterclip-329</masterclipid>
            <ismasterclip>TRUE</ismasterclip>
            <duration>672</duration>
            <in>0</in>
            <out>672</out>
            <name>Scene - LJ visemes.327.png</name>
            <rate>
              <timebase>24</timebase>
              <ntsc>FALSE</ntsc>
            </rate>
            <media>
              <video>
                <track>
                  <clipitem frameBlend="FALSE" id="clipitem-330">
                    <name>Scene - LJ visemes.327.png</name>
                    <masterclipid>masterclip-329</masterclipid>
                    <rate>
                      <timebase>24</timebase>
                      <ntsc>FALSE</ntsc>
                    </rate>
                    <alphatype>straight</alphatype>
                    <pixelaspectratio>square</pixelaspectratio>
                    <anamorphic>FALSE</anamorphic>
                    <file id="file-329">
                      <name>Scene - LJ visemes.327.png</name>
                      <pathurl>file://localhost/Users/bot/Documents/CREATE/Character Animator/LJ visemes CH2AE/demo/Scene - LJ visemes/Scene - LJ visemes.327.png</pathurl>
                      <rate>
                        <timebase>24</timebase>
                        <ntsc>FALSE</ntsc>
                      </rate>
                      <duration>672</duration>
                      <timecode>
                        <rate>
                          <timebase>24</timebase>
                          <ntsc>FALSE</ntsc>
                        </rate>
                      </timecode>
                      <media>
                        <video>
                          <duration>1</duration>
                          <samplecharacteristics>
                            <anamorphic>FALSE</anamorphic>
                            <pixelaspectratio>square</pixelaspectratio>
                            <fielddominance>none</fielddominance>
                            <width>1920</width>
                            <height>1080</height>
                          </samplecharacteristics>
                        </video>
                      </media>
                    </file>
                  </clipitem>
                </track>
              </video>
            </media>
          </clip>
          <clip explodedTracks="true" frameBlend="FALSE" id="masterclip-330">
            <uuid>93a5588a-8313-4870-a566-82a3ae518e25</uuid>
            <masterclipid>masterclip-330</masterclipid>
            <ismasterclip>TRUE</ismasterclip>
            <duration>672</duration>
            <in>0</in>
            <out>672</out>
            <name>Scene - LJ visemes.328.png</name>
            <rate>
              <timebase>24</timebase>
              <ntsc>FALSE</ntsc>
            </rate>
            <media>
              <video>
                <track>
                  <clipitem frameBlend="FALSE" id="clipitem-331">
                    <name>Scene - LJ visemes.328.png</name>
                    <masterclipid>masterclip-330</masterclipid>
                    <rate>
                      <timebase>24</timebase>
                      <ntsc>FALSE</ntsc>
                    </rate>
                    <alphatype>straight</alphatype>
                    <pixelaspectratio>square</pixelaspectratio>
                    <anamorphic>FALSE</anamorphic>
                    <file id="file-330">
                      <name>Scene - LJ visemes.328.png</name>
                      <pathurl>file://localhost/Users/bot/Documents/CREATE/Character Animator/LJ visemes CH2AE/demo/Scene - LJ visemes/Scene - LJ visemes.328.png</pathurl>
                      <rate>
                        <timebase>24</timebase>
                        <ntsc>FALSE</ntsc>
                      </rate>
                      <duration>672</duration>
                      <timecode>
                        <rate>
                          <timebase>24</timebase>
                          <ntsc>FALSE</ntsc>
                        </rate>
                      </timecode>
                      <media>
                        <video>
                          <duration>1</duration>
                          <samplecharacteristics>
                            <anamorphic>FALSE</anamorphic>
                            <pixelaspectratio>square</pixelaspectratio>
                            <fielddominance>none</fielddominance>
                            <width>1920</width>
                            <height>1080</height>
                          </samplecharacteristics>
                        </video>
                      </media>
                    </file>
                  </clipitem>
                </track>
              </video>
            </media>
          </clip>
          <clip explodedTracks="true" frameBlend="FALSE" id="masterclip-331">
            <uuid>9addfe11-67d3-4a4e-96ff-d2e37fb0bd24</uuid>
            <masterclipid>masterclip-331</masterclipid>
            <ismasterclip>TRUE</ismasterclip>
            <duration>672</duration>
            <in>0</in>
            <out>672</out>
            <name>Scene - LJ visemes.329.png</name>
            <rate>
              <timebase>24</timebase>
              <ntsc>FALSE</ntsc>
            </rate>
            <media>
              <video>
                <track>
                  <clipitem frameBlend="FALSE" id="clipitem-332">
                    <name>Scene - LJ visemes.329.png</name>
                    <masterclipid>masterclip-331</masterclipid>
                    <rate>
                      <timebase>24</timebase>
                      <ntsc>FALSE</ntsc>
                    </rate>
                    <alphatype>straight</alphatype>
                    <pixelaspectratio>square</pixelaspectratio>
                    <anamorphic>FALSE</anamorphic>
                    <file id="file-331">
                      <name>Scene - LJ visemes.329.png</name>
                      <pathurl>file://localhost/Users/bot/Documents/CREATE/Character Animator/LJ visemes CH2AE/demo/Scene - LJ visemes/Scene - LJ visemes.329.png</pathurl>
                      <rate>
                        <timebase>24</timebase>
                        <ntsc>FALSE</ntsc>
                      </rate>
                      <duration>672</duration>
                      <timecode>
                        <rate>
                          <timebase>24</timebase>
                          <ntsc>FALSE</ntsc>
                        </rate>
                      </timecode>
                      <media>
                        <video>
                          <duration>1</duration>
                          <samplecharacteristics>
                            <anamorphic>FALSE</anamorphic>
                            <pixelaspectratio>square</pixelaspectratio>
                            <fielddominance>none</fielddominance>
                            <width>1920</width>
                            <height>1080</height>
                          </samplecharacteristics>
                        </video>
                      </media>
                    </file>
                  </clipitem>
                </track>
              </video>
            </media>
          </clip>
          <clip explodedTracks="true" frameBlend="FALSE" id="masterclip-332">
            <uuid>7176fd1d-292e-46d3-b90a-252ac55e8c6e</uuid>
            <masterclipid>masterclip-332</masterclipid>
            <ismasterclip>TRUE</ismasterclip>
            <duration>672</duration>
            <in>0</in>
            <out>672</out>
            <name>Scene - LJ visemes.330.png</name>
            <rate>
              <timebase>24</timebase>
              <ntsc>FALSE</ntsc>
            </rate>
            <media>
              <video>
                <track>
                  <clipitem frameBlend="FALSE" id="clipitem-333">
                    <name>Scene - LJ visemes.330.png</name>
                    <masterclipid>masterclip-332</masterclipid>
                    <rate>
                      <timebase>24</timebase>
                      <ntsc>FALSE</ntsc>
                    </rate>
                    <alphatype>straight</alphatype>
                    <pixelaspectratio>square</pixelaspectratio>
                    <anamorphic>FALSE</anamorphic>
                    <file id="file-332">
                      <name>Scene - LJ visemes.330.png</name>
                      <pathurl>file://localhost/Users/bot/Documents/CREATE/Character Animator/LJ visemes CH2AE/demo/Scene - LJ visemes/Scene - LJ visemes.330.png</pathurl>
                      <rate>
                        <timebase>24</timebase>
                        <ntsc>FALSE</ntsc>
                      </rate>
                      <duration>672</duration>
                      <timecode>
                        <rate>
                          <timebase>24</timebase>
                          <ntsc>FALSE</ntsc>
                        </rate>
                      </timecode>
                      <media>
                        <video>
                          <duration>1</duration>
                          <samplecharacteristics>
                            <anamorphic>FALSE</anamorphic>
                            <pixelaspectratio>square</pixelaspectratio>
                            <fielddominance>none</fielddominance>
                            <width>1920</width>
                            <height>1080</height>
                          </samplecharacteristics>
                        </video>
                      </media>
                    </file>
                  </clipitem>
                </track>
              </video>
            </media>
          </clip>
          <clip explodedTracks="true" frameBlend="FALSE" id="masterclip-333">
            <uuid>18248516-2e15-4004-b1e5-232638f2486c</uuid>
            <masterclipid>masterclip-333</masterclipid>
            <ismasterclip>TRUE</ismasterclip>
            <duration>672</duration>
            <in>0</in>
            <out>672</out>
            <name>Scene - LJ visemes.331.png</name>
            <rate>
              <timebase>24</timebase>
              <ntsc>FALSE</ntsc>
            </rate>
            <media>
              <video>
                <track>
                  <clipitem frameBlend="FALSE" id="clipitem-334">
                    <name>Scene - LJ visemes.331.png</name>
                    <masterclipid>masterclip-333</masterclipid>
                    <rate>
                      <timebase>24</timebase>
                      <ntsc>FALSE</ntsc>
                    </rate>
                    <alphatype>straight</alphatype>
                    <pixelaspectratio>square</pixelaspectratio>
                    <anamorphic>FALSE</anamorphic>
                    <file id="file-333">
                      <name>Scene - LJ visemes.331.png</name>
                      <pathurl>file://localhost/Users/bot/Documents/CREATE/Character Animator/LJ visemes CH2AE/demo/Scene - LJ visemes/Scene - LJ visemes.331.png</pathurl>
                      <rate>
                        <timebase>24</timebase>
                        <ntsc>FALSE</ntsc>
                      </rate>
                      <duration>672</duration>
                      <timecode>
                        <rate>
                          <timebase>24</timebase>
                          <ntsc>FALSE</ntsc>
                        </rate>
                      </timecode>
                      <media>
                        <video>
                          <duration>1</duration>
                          <samplecharacteristics>
                            <anamorphic>FALSE</anamorphic>
                            <pixelaspectratio>square</pixelaspectratio>
                            <fielddominance>none</fielddominance>
                            <width>1920</width>
                            <height>1080</height>
                          </samplecharacteristics>
                        </video>
                      </media>
                    </file>
                  </clipitem>
                </track>
              </video>
            </media>
          </clip>
          <clip explodedTracks="true" frameBlend="FALSE" id="masterclip-334">
            <uuid>3a2f94d3-d218-429f-b202-2eeb8a266c1a</uuid>
            <masterclipid>masterclip-334</masterclipid>
            <ismasterclip>TRUE</ismasterclip>
            <duration>672</duration>
            <in>0</in>
            <out>672</out>
            <name>Scene - LJ visemes.332.png</name>
            <rate>
              <timebase>24</timebase>
              <ntsc>FALSE</ntsc>
            </rate>
            <media>
              <video>
                <track>
                  <clipitem frameBlend="FALSE" id="clipitem-335">
                    <name>Scene - LJ visemes.332.png</name>
                    <masterclipid>masterclip-334</masterclipid>
                    <rate>
                      <timebase>24</timebase>
                      <ntsc>FALSE</ntsc>
                    </rate>
                    <alphatype>straight</alphatype>
                    <pixelaspectratio>square</pixelaspectratio>
                    <anamorphic>FALSE</anamorphic>
                    <file id="file-334">
                      <name>Scene - LJ visemes.332.png</name>
                      <pathurl>file://localhost/Users/bot/Documents/CREATE/Character Animator/LJ visemes CH2AE/demo/Scene - LJ visemes/Scene - LJ visemes.332.png</pathurl>
                      <rate>
                        <timebase>24</timebase>
                        <ntsc>FALSE</ntsc>
                      </rate>
                      <duration>672</duration>
                      <timecode>
                        <rate>
                          <timebase>24</timebase>
                          <ntsc>FALSE</ntsc>
                        </rate>
                      </timecode>
                      <media>
                        <video>
                          <duration>1</duration>
                          <samplecharacteristics>
                            <anamorphic>FALSE</anamorphic>
                            <pixelaspectratio>square</pixelaspectratio>
                            <fielddominance>none</fielddominance>
                            <width>1920</width>
                            <height>1080</height>
                          </samplecharacteristics>
                        </video>
                      </media>
                    </file>
                  </clipitem>
                </track>
              </video>
            </media>
          </clip>
          <clip explodedTracks="true" frameBlend="FALSE" id="masterclip-335">
            <uuid>f3d35f1d-4843-4272-bfdb-6394d89441cd</uuid>
            <masterclipid>masterclip-335</masterclipid>
            <ismasterclip>TRUE</ismasterclip>
            <duration>672</duration>
            <in>0</in>
            <out>672</out>
            <name>Scene - LJ visemes.333.png</name>
            <rate>
              <timebase>24</timebase>
              <ntsc>FALSE</ntsc>
            </rate>
            <media>
              <video>
                <track>
                  <clipitem frameBlend="FALSE" id="clipitem-336">
                    <name>Scene - LJ visemes.333.png</name>
                    <masterclipid>masterclip-335</masterclipid>
                    <rate>
                      <timebase>24</timebase>
                      <ntsc>FALSE</ntsc>
                    </rate>
                    <alphatype>straight</alphatype>
                    <pixelaspectratio>square</pixelaspectratio>
                    <anamorphic>FALSE</anamorphic>
                    <file id="file-335">
                      <name>Scene - LJ visemes.333.png</name>
                      <pathurl>file://localhost/Users/bot/Documents/CREATE/Character Animator/LJ visemes CH2AE/demo/Scene - LJ visemes/Scene - LJ visemes.333.png</pathurl>
                      <rate>
                        <timebase>24</timebase>
                        <ntsc>FALSE</ntsc>
                      </rate>
                      <duration>672</duration>
                      <timecode>
                        <rate>
                          <timebase>24</timebase>
                          <ntsc>FALSE</ntsc>
                        </rate>
                      </timecode>
                      <media>
                        <video>
                          <duration>1</duration>
                          <samplecharacteristics>
                            <anamorphic>FALSE</anamorphic>
                            <pixelaspectratio>square</pixelaspectratio>
                            <fielddominance>none</fielddominance>
                            <width>1920</width>
                            <height>1080</height>
                          </samplecharacteristics>
                        </video>
                      </media>
                    </file>
                  </clipitem>
                </track>
              </video>
            </media>
          </clip>
          <clip explodedTracks="true" frameBlend="FALSE" id="masterclip-336">
            <uuid>2add0d5d-900c-4bb9-a3dd-e4c06c18ba88</uuid>
            <masterclipid>masterclip-336</masterclipid>
            <ismasterclip>TRUE</ismasterclip>
            <duration>672</duration>
            <in>0</in>
            <out>672</out>
            <name>Scene - LJ visemes.334.png</name>
            <rate>
              <timebase>24</timebase>
              <ntsc>FALSE</ntsc>
            </rate>
            <media>
              <video>
                <track>
                  <clipitem frameBlend="FALSE" id="clipitem-337">
                    <name>Scene - LJ visemes.334.png</name>
                    <masterclipid>masterclip-336</masterclipid>
                    <rate>
                      <timebase>24</timebase>
                      <ntsc>FALSE</ntsc>
                    </rate>
                    <alphatype>straight</alphatype>
                    <pixelaspectratio>square</pixelaspectratio>
                    <anamorphic>FALSE</anamorphic>
                    <file id="file-336">
                      <name>Scene - LJ visemes.334.png</name>
                      <pathurl>file://localhost/Users/bot/Documents/CREATE/Character Animator/LJ visemes CH2AE/demo/Scene - LJ visemes/Scene - LJ visemes.334.png</pathurl>
                      <rate>
                        <timebase>24</timebase>
                        <ntsc>FALSE</ntsc>
                      </rate>
                      <duration>672</duration>
                      <timecode>
                        <rate>
                          <timebase>24</timebase>
                          <ntsc>FALSE</ntsc>
                        </rate>
                      </timecode>
                      <media>
                        <video>
                          <duration>1</duration>
                          <samplecharacteristics>
                            <anamorphic>FALSE</anamorphic>
                            <pixelaspectratio>square</pixelaspectratio>
                            <fielddominance>none</fielddominance>
                            <width>1920</width>
                            <height>1080</height>
                          </samplecharacteristics>
                        </video>
                      </media>
                    </file>
                  </clipitem>
                </track>
              </video>
            </media>
          </clip>
          <clip explodedTracks="true" frameBlend="FALSE" id="masterclip-337">
            <uuid>1cd83ba1-2de2-417c-b4bc-f2942e77b756</uuid>
            <masterclipid>masterclip-337</masterclipid>
            <ismasterclip>TRUE</ismasterclip>
            <duration>672</duration>
            <in>0</in>
            <out>672</out>
            <name>Scene - LJ visemes.335.png</name>
            <rate>
              <timebase>24</timebase>
              <ntsc>FALSE</ntsc>
            </rate>
            <media>
              <video>
                <track>
                  <clipitem frameBlend="FALSE" id="clipitem-338">
                    <name>Scene - LJ visemes.335.png</name>
                    <masterclipid>masterclip-337</masterclipid>
                    <rate>
                      <timebase>24</timebase>
                      <ntsc>FALSE</ntsc>
                    </rate>
                    <alphatype>straight</alphatype>
                    <pixelaspectratio>square</pixelaspectratio>
                    <anamorphic>FALSE</anamorphic>
                    <file id="file-337">
                      <name>Scene - LJ visemes.335.png</name>
                      <pathurl>file://localhost/Users/bot/Documents/CREATE/Character Animator/LJ visemes CH2AE/demo/Scene - LJ visemes/Scene - LJ visemes.335.png</pathurl>
                      <rate>
                        <timebase>24</timebase>
                        <ntsc>FALSE</ntsc>
                      </rate>
                      <duration>672</duration>
                      <timecode>
                        <rate>
                          <timebase>24</timebase>
                          <ntsc>FALSE</ntsc>
                        </rate>
                      </timecode>
                      <media>
                        <video>
                          <duration>1</duration>
                          <samplecharacteristics>
                            <anamorphic>FALSE</anamorphic>
                            <pixelaspectratio>square</pixelaspectratio>
                            <fielddominance>none</fielddominance>
                            <width>1920</width>
                            <height>1080</height>
                          </samplecharacteristics>
                        </video>
                      </media>
                    </file>
                  </clipitem>
                </track>
              </video>
            </media>
          </clip>
          <clip explodedTracks="true" frameBlend="FALSE" id="masterclip-338">
            <uuid>894e58df-5412-4b19-be8e-1f059fa6fe87</uuid>
            <masterclipid>masterclip-338</masterclipid>
            <ismasterclip>TRUE</ismasterclip>
            <duration>672</duration>
            <in>0</in>
            <out>672</out>
            <name>Scene - LJ visemes.336.png</name>
            <rate>
              <timebase>24</timebase>
              <ntsc>FALSE</ntsc>
            </rate>
            <media>
              <video>
                <track>
                  <clipitem frameBlend="FALSE" id="clipitem-339">
                    <name>Scene - LJ visemes.336.png</name>
                    <masterclipid>masterclip-338</masterclipid>
                    <rate>
                      <timebase>24</timebase>
                      <ntsc>FALSE</ntsc>
                    </rate>
                    <alphatype>straight</alphatype>
                    <pixelaspectratio>square</pixelaspectratio>
                    <anamorphic>FALSE</anamorphic>
                    <file id="file-338">
                      <name>Scene - LJ visemes.336.png</name>
                      <pathurl>file://localhost/Users/bot/Documents/CREATE/Character Animator/LJ visemes CH2AE/demo/Scene - LJ visemes/Scene - LJ visemes.336.png</pathurl>
                      <rate>
                        <timebase>24</timebase>
                        <ntsc>FALSE</ntsc>
                      </rate>
                      <duration>672</duration>
                      <timecode>
                        <rate>
                          <timebase>24</timebase>
                          <ntsc>FALSE</ntsc>
                        </rate>
                      </timecode>
                      <media>
                        <video>
                          <duration>1</duration>
                          <samplecharacteristics>
                            <anamorphic>FALSE</anamorphic>
                            <pixelaspectratio>square</pixelaspectratio>
                            <fielddominance>none</fielddominance>
                            <width>1920</width>
                            <height>1080</height>
                          </samplecharacteristics>
                        </video>
                      </media>
                    </file>
                  </clipitem>
                </track>
              </video>
            </media>
          </clip>
          <clip explodedTracks="true" frameBlend="FALSE" id="masterclip-339">
            <uuid>9205c7cd-d6af-4859-b590-852346f88e04</uuid>
            <masterclipid>masterclip-339</masterclipid>
            <ismasterclip>TRUE</ismasterclip>
            <duration>672</duration>
            <in>0</in>
            <out>672</out>
            <name>Scene - LJ visemes.337.png</name>
            <rate>
              <timebase>24</timebase>
              <ntsc>FALSE</ntsc>
            </rate>
            <media>
              <video>
                <track>
                  <clipitem frameBlend="FALSE" id="clipitem-340">
                    <name>Scene - LJ visemes.337.png</name>
                    <masterclipid>masterclip-339</masterclipid>
                    <rate>
                      <timebase>24</timebase>
                      <ntsc>FALSE</ntsc>
                    </rate>
                    <alphatype>straight</alphatype>
                    <pixelaspectratio>square</pixelaspectratio>
                    <anamorphic>FALSE</anamorphic>
                    <file id="file-339">
                      <name>Scene - LJ visemes.337.png</name>
                      <pathurl>file://localhost/Users/bot/Documents/CREATE/Character Animator/LJ visemes CH2AE/demo/Scene - LJ visemes/Scene - LJ visemes.337.png</pathurl>
                      <rate>
                        <timebase>24</timebase>
                        <ntsc>FALSE</ntsc>
                      </rate>
                      <duration>672</duration>
                      <timecode>
                        <rate>
                          <timebase>24</timebase>
                          <ntsc>FALSE</ntsc>
                        </rate>
                      </timecode>
                      <media>
                        <video>
                          <duration>1</duration>
                          <samplecharacteristics>
                            <anamorphic>FALSE</anamorphic>
                            <pixelaspectratio>square</pixelaspectratio>
                            <fielddominance>none</fielddominance>
                            <width>1920</width>
                            <height>1080</height>
                          </samplecharacteristics>
                        </video>
                      </media>
                    </file>
                  </clipitem>
                </track>
              </video>
            </media>
          </clip>
          <clip explodedTracks="true" frameBlend="FALSE" id="masterclip-340">
            <uuid>200ed0b4-feb8-457e-83c0-ce88c9fb58ab</uuid>
            <masterclipid>masterclip-340</masterclipid>
            <ismasterclip>TRUE</ismasterclip>
            <duration>672</duration>
            <in>0</in>
            <out>672</out>
            <name>Scene - LJ visemes.338.png</name>
            <rate>
              <timebase>24</timebase>
              <ntsc>FALSE</ntsc>
            </rate>
            <media>
              <video>
                <track>
                  <clipitem frameBlend="FALSE" id="clipitem-341">
                    <name>Scene - LJ visemes.338.png</name>
                    <masterclipid>masterclip-340</masterclipid>
                    <rate>
                      <timebase>24</timebase>
                      <ntsc>FALSE</ntsc>
                    </rate>
                    <alphatype>straight</alphatype>
                    <pixelaspectratio>square</pixelaspectratio>
                    <anamorphic>FALSE</anamorphic>
                    <file id="file-340">
                      <name>Scene - LJ visemes.338.png</name>
                      <pathurl>file://localhost/Users/bot/Documents/CREATE/Character Animator/LJ visemes CH2AE/demo/Scene - LJ visemes/Scene - LJ visemes.338.png</pathurl>
                      <rate>
                        <timebase>24</timebase>
                        <ntsc>FALSE</ntsc>
                      </rate>
                      <duration>672</duration>
                      <timecode>
                        <rate>
                          <timebase>24</timebase>
                          <ntsc>FALSE</ntsc>
                        </rate>
                      </timecode>
                      <media>
                        <video>
                          <duration>1</duration>
                          <samplecharacteristics>
                            <anamorphic>FALSE</anamorphic>
                            <pixelaspectratio>square</pixelaspectratio>
                            <fielddominance>none</fielddominance>
                            <width>1920</width>
                            <height>1080</height>
                          </samplecharacteristics>
                        </video>
                      </media>
                    </file>
                  </clipitem>
                </track>
              </video>
            </media>
          </clip>
          <clip explodedTracks="true" frameBlend="FALSE" id="masterclip-341">
            <uuid>1b59b574-1a37-4804-9e3a-83bc07ba2ff4</uuid>
            <masterclipid>masterclip-341</masterclipid>
            <ismasterclip>TRUE</ismasterclip>
            <duration>672</duration>
            <in>0</in>
            <out>672</out>
            <name>Scene - LJ visemes.339.png</name>
            <rate>
              <timebase>24</timebase>
              <ntsc>FALSE</ntsc>
            </rate>
            <media>
              <video>
                <track>
                  <clipitem frameBlend="FALSE" id="clipitem-342">
                    <name>Scene - LJ visemes.339.png</name>
                    <masterclipid>masterclip-341</masterclipid>
                    <rate>
                      <timebase>24</timebase>
                      <ntsc>FALSE</ntsc>
                    </rate>
                    <alphatype>straight</alphatype>
                    <pixelaspectratio>square</pixelaspectratio>
                    <anamorphic>FALSE</anamorphic>
                    <file id="file-341">
                      <name>Scene - LJ visemes.339.png</name>
                      <pathurl>file://localhost/Users/bot/Documents/CREATE/Character Animator/LJ visemes CH2AE/demo/Scene - LJ visemes/Scene - LJ visemes.339.png</pathurl>
                      <rate>
                        <timebase>24</timebase>
                        <ntsc>FALSE</ntsc>
                      </rate>
                      <duration>672</duration>
                      <timecode>
                        <rate>
                          <timebase>24</timebase>
                          <ntsc>FALSE</ntsc>
                        </rate>
                      </timecode>
                      <media>
                        <video>
                          <duration>1</duration>
                          <samplecharacteristics>
                            <anamorphic>FALSE</anamorphic>
                            <pixelaspectratio>square</pixelaspectratio>
                            <fielddominance>none</fielddominance>
                            <width>1920</width>
                            <height>1080</height>
                          </samplecharacteristics>
                        </video>
                      </media>
                    </file>
                  </clipitem>
                </track>
              </video>
            </media>
          </clip>
          <clip explodedTracks="true" frameBlend="FALSE" id="masterclip-342">
            <uuid>0b8f0dff-c4a3-4366-a21f-7e3771a44a4b</uuid>
            <masterclipid>masterclip-342</masterclipid>
            <ismasterclip>TRUE</ismasterclip>
            <duration>672</duration>
            <in>0</in>
            <out>672</out>
            <name>Scene - LJ visemes.340.png</name>
            <rate>
              <timebase>24</timebase>
              <ntsc>FALSE</ntsc>
            </rate>
            <media>
              <video>
                <track>
                  <clipitem frameBlend="FALSE" id="clipitem-343">
                    <name>Scene - LJ visemes.340.png</name>
                    <masterclipid>masterclip-342</masterclipid>
                    <rate>
                      <timebase>24</timebase>
                      <ntsc>FALSE</ntsc>
                    </rate>
                    <alphatype>straight</alphatype>
                    <pixelaspectratio>square</pixelaspectratio>
                    <anamorphic>FALSE</anamorphic>
                    <file id="file-342">
                      <name>Scene - LJ visemes.340.png</name>
                      <pathurl>file://localhost/Users/bot/Documents/CREATE/Character Animator/LJ visemes CH2AE/demo/Scene - LJ visemes/Scene - LJ visemes.340.png</pathurl>
                      <rate>
                        <timebase>24</timebase>
                        <ntsc>FALSE</ntsc>
                      </rate>
                      <duration>672</duration>
                      <timecode>
                        <rate>
                          <timebase>24</timebase>
                          <ntsc>FALSE</ntsc>
                        </rate>
                      </timecode>
                      <media>
                        <video>
                          <duration>1</duration>
                          <samplecharacteristics>
                            <anamorphic>FALSE</anamorphic>
                            <pixelaspectratio>square</pixelaspectratio>
                            <fielddominance>none</fielddominance>
                            <width>1920</width>
                            <height>1080</height>
                          </samplecharacteristics>
                        </video>
                      </media>
                    </file>
                  </clipitem>
                </track>
              </video>
            </media>
          </clip>
          <clip explodedTracks="true" frameBlend="FALSE" id="masterclip-343">
            <uuid>55bc73ff-166a-4e9c-bab1-966ecb1e8e1c</uuid>
            <masterclipid>masterclip-343</masterclipid>
            <ismasterclip>TRUE</ismasterclip>
            <duration>672</duration>
            <in>0</in>
            <out>672</out>
            <name>Scene - LJ visemes.341.png</name>
            <rate>
              <timebase>24</timebase>
              <ntsc>FALSE</ntsc>
            </rate>
            <media>
              <video>
                <track>
                  <clipitem frameBlend="FALSE" id="clipitem-344">
                    <name>Scene - LJ visemes.341.png</name>
                    <masterclipid>masterclip-343</masterclipid>
                    <rate>
                      <timebase>24</timebase>
                      <ntsc>FALSE</ntsc>
                    </rate>
                    <alphatype>straight</alphatype>
                    <pixelaspectratio>square</pixelaspectratio>
                    <anamorphic>FALSE</anamorphic>
                    <file id="file-343">
                      <name>Scene - LJ visemes.341.png</name>
                      <pathurl>file://localhost/Users/bot/Documents/CREATE/Character Animator/LJ visemes CH2AE/demo/Scene - LJ visemes/Scene - LJ visemes.341.png</pathurl>
                      <rate>
                        <timebase>24</timebase>
                        <ntsc>FALSE</ntsc>
                      </rate>
                      <duration>672</duration>
                      <timecode>
                        <rate>
                          <timebase>24</timebase>
                          <ntsc>FALSE</ntsc>
                        </rate>
                      </timecode>
                      <media>
                        <video>
                          <duration>1</duration>
                          <samplecharacteristics>
                            <anamorphic>FALSE</anamorphic>
                            <pixelaspectratio>square</pixelaspectratio>
                            <fielddominance>none</fielddominance>
                            <width>1920</width>
                            <height>1080</height>
                          </samplecharacteristics>
                        </video>
                      </media>
                    </file>
                  </clipitem>
                </track>
              </video>
            </media>
          </clip>
          <clip explodedTracks="true" frameBlend="FALSE" id="masterclip-344">
            <uuid>28e62ed4-716d-49c0-a31e-8ae3378ca4c1</uuid>
            <masterclipid>masterclip-344</masterclipid>
            <ismasterclip>TRUE</ismasterclip>
            <duration>672</duration>
            <in>0</in>
            <out>672</out>
            <name>Scene - LJ visemes.342.png</name>
            <rate>
              <timebase>24</timebase>
              <ntsc>FALSE</ntsc>
            </rate>
            <media>
              <video>
                <track>
                  <clipitem frameBlend="FALSE" id="clipitem-345">
                    <name>Scene - LJ visemes.342.png</name>
                    <masterclipid>masterclip-344</masterclipid>
                    <rate>
                      <timebase>24</timebase>
                      <ntsc>FALSE</ntsc>
                    </rate>
                    <alphatype>straight</alphatype>
                    <pixelaspectratio>square</pixelaspectratio>
                    <anamorphic>FALSE</anamorphic>
                    <file id="file-344">
                      <name>Scene - LJ visemes.342.png</name>
                      <pathurl>file://localhost/Users/bot/Documents/CREATE/Character Animator/LJ visemes CH2AE/demo/Scene - LJ visemes/Scene - LJ visemes.342.png</pathurl>
                      <rate>
                        <timebase>24</timebase>
                        <ntsc>FALSE</ntsc>
                      </rate>
                      <duration>672</duration>
                      <timecode>
                        <rate>
                          <timebase>24</timebase>
                          <ntsc>FALSE</ntsc>
                        </rate>
                      </timecode>
                      <media>
                        <video>
                          <duration>1</duration>
                          <samplecharacteristics>
                            <anamorphic>FALSE</anamorphic>
                            <pixelaspectratio>square</pixelaspectratio>
                            <fielddominance>none</fielddominance>
                            <width>1920</width>
                            <height>1080</height>
                          </samplecharacteristics>
                        </video>
                      </media>
                    </file>
                  </clipitem>
                </track>
              </video>
            </media>
          </clip>
          <clip explodedTracks="true" frameBlend="FALSE" id="masterclip-345">
            <uuid>e6ae606f-539e-4d70-bd04-98fa66a62506</uuid>
            <masterclipid>masterclip-345</masterclipid>
            <ismasterclip>TRUE</ismasterclip>
            <duration>672</duration>
            <in>0</in>
            <out>672</out>
            <name>Scene - LJ visemes.343.png</name>
            <rate>
              <timebase>24</timebase>
              <ntsc>FALSE</ntsc>
            </rate>
            <media>
              <video>
                <track>
                  <clipitem frameBlend="FALSE" id="clipitem-346">
                    <name>Scene - LJ visemes.343.png</name>
                    <masterclipid>masterclip-345</masterclipid>
                    <rate>
                      <timebase>24</timebase>
                      <ntsc>FALSE</ntsc>
                    </rate>
                    <alphatype>straight</alphatype>
                    <pixelaspectratio>square</pixelaspectratio>
                    <anamorphic>FALSE</anamorphic>
                    <file id="file-345">
                      <name>Scene - LJ visemes.343.png</name>
                      <pathurl>file://localhost/Users/bot/Documents/CREATE/Character Animator/LJ visemes CH2AE/demo/Scene - LJ visemes/Scene - LJ visemes.343.png</pathurl>
                      <rate>
                        <timebase>24</timebase>
                        <ntsc>FALSE</ntsc>
                      </rate>
                      <duration>672</duration>
                      <timecode>
                        <rate>
                          <timebase>24</timebase>
                          <ntsc>FALSE</ntsc>
                        </rate>
                      </timecode>
                      <media>
                        <video>
                          <duration>1</duration>
                          <samplecharacteristics>
                            <anamorphic>FALSE</anamorphic>
                            <pixelaspectratio>square</pixelaspectratio>
                            <fielddominance>none</fielddominance>
                            <width>1920</width>
                            <height>1080</height>
                          </samplecharacteristics>
                        </video>
                      </media>
                    </file>
                  </clipitem>
                </track>
              </video>
            </media>
          </clip>
          <clip explodedTracks="true" frameBlend="FALSE" id="masterclip-346">
            <uuid>08d36dad-f1ce-4fee-b89a-eb56f163ab62</uuid>
            <masterclipid>masterclip-346</masterclipid>
            <ismasterclip>TRUE</ismasterclip>
            <duration>672</duration>
            <in>0</in>
            <out>672</out>
            <name>Scene - LJ visemes.344.png</name>
            <rate>
              <timebase>24</timebase>
              <ntsc>FALSE</ntsc>
            </rate>
            <media>
              <video>
                <track>
                  <clipitem frameBlend="FALSE" id="clipitem-347">
                    <name>Scene - LJ visemes.344.png</name>
                    <masterclipid>masterclip-346</masterclipid>
                    <rate>
                      <timebase>24</timebase>
                      <ntsc>FALSE</ntsc>
                    </rate>
                    <alphatype>straight</alphatype>
                    <pixelaspectratio>square</pixelaspectratio>
                    <anamorphic>FALSE</anamorphic>
                    <file id="file-346">
                      <name>Scene - LJ visemes.344.png</name>
                      <pathurl>file://localhost/Users/bot/Documents/CREATE/Character Animator/LJ visemes CH2AE/demo/Scene - LJ visemes/Scene - LJ visemes.344.png</pathurl>
                      <rate>
                        <timebase>24</timebase>
                        <ntsc>FALSE</ntsc>
                      </rate>
                      <duration>672</duration>
                      <timecode>
                        <rate>
                          <timebase>24</timebase>
                          <ntsc>FALSE</ntsc>
                        </rate>
                      </timecode>
                      <media>
                        <video>
                          <duration>1</duration>
                          <samplecharacteristics>
                            <anamorphic>FALSE</anamorphic>
                            <pixelaspectratio>square</pixelaspectratio>
                            <fielddominance>none</fielddominance>
                            <width>1920</width>
                            <height>1080</height>
                          </samplecharacteristics>
                        </video>
                      </media>
                    </file>
                  </clipitem>
                </track>
              </video>
            </media>
          </clip>
          <clip explodedTracks="true" frameBlend="FALSE" id="masterclip-347">
            <uuid>3af0d294-481d-4e42-bdb6-9871666aaff0</uuid>
            <masterclipid>masterclip-347</masterclipid>
            <ismasterclip>TRUE</ismasterclip>
            <duration>672</duration>
            <in>0</in>
            <out>672</out>
            <name>Scene - LJ visemes.345.png</name>
            <rate>
              <timebase>24</timebase>
              <ntsc>FALSE</ntsc>
            </rate>
            <media>
              <video>
                <track>
                  <clipitem frameBlend="FALSE" id="clipitem-348">
                    <name>Scene - LJ visemes.345.png</name>
                    <masterclipid>masterclip-347</masterclipid>
                    <rate>
                      <timebase>24</timebase>
                      <ntsc>FALSE</ntsc>
                    </rate>
                    <alphatype>straight</alphatype>
                    <pixelaspectratio>square</pixelaspectratio>
                    <anamorphic>FALSE</anamorphic>
                    <file id="file-347">
                      <name>Scene - LJ visemes.345.png</name>
                      <pathurl>file://localhost/Users/bot/Documents/CREATE/Character Animator/LJ visemes CH2AE/demo/Scene - LJ visemes/Scene - LJ visemes.345.png</pathurl>
                      <rate>
                        <timebase>24</timebase>
                        <ntsc>FALSE</ntsc>
                      </rate>
                      <duration>672</duration>
                      <timecode>
                        <rate>
                          <timebase>24</timebase>
                          <ntsc>FALSE</ntsc>
                        </rate>
                      </timecode>
                      <media>
                        <video>
                          <duration>1</duration>
                          <samplecharacteristics>
                            <anamorphic>FALSE</anamorphic>
                            <pixelaspectratio>square</pixelaspectratio>
                            <fielddominance>none</fielddominance>
                            <width>1920</width>
                            <height>1080</height>
                          </samplecharacteristics>
                        </video>
                      </media>
                    </file>
                  </clipitem>
                </track>
              </video>
            </media>
          </clip>
          <clip explodedTracks="true" frameBlend="FALSE" id="masterclip-348">
            <uuid>8c77418c-c777-450a-a2a6-295eb6914545</uuid>
            <masterclipid>masterclip-348</masterclipid>
            <ismasterclip>TRUE</ismasterclip>
            <duration>672</duration>
            <in>0</in>
            <out>672</out>
            <name>Scene - LJ visemes.346.png</name>
            <rate>
              <timebase>24</timebase>
              <ntsc>FALSE</ntsc>
            </rate>
            <media>
              <video>
                <track>
                  <clipitem frameBlend="FALSE" id="clipitem-349">
                    <name>Scene - LJ visemes.346.png</name>
                    <masterclipid>masterclip-348</masterclipid>
                    <rate>
                      <timebase>24</timebase>
                      <ntsc>FALSE</ntsc>
                    </rate>
                    <alphatype>straight</alphatype>
                    <pixelaspectratio>square</pixelaspectratio>
                    <anamorphic>FALSE</anamorphic>
                    <file id="file-348">
                      <name>Scene - LJ visemes.346.png</name>
                      <pathurl>file://localhost/Users/bot/Documents/CREATE/Character Animator/LJ visemes CH2AE/demo/Scene - LJ visemes/Scene - LJ visemes.346.png</pathurl>
                      <rate>
                        <timebase>24</timebase>
                        <ntsc>FALSE</ntsc>
                      </rate>
                      <duration>672</duration>
                      <timecode>
                        <rate>
                          <timebase>24</timebase>
                          <ntsc>FALSE</ntsc>
                        </rate>
                      </timecode>
                      <media>
                        <video>
                          <duration>1</duration>
                          <samplecharacteristics>
                            <anamorphic>FALSE</anamorphic>
                            <pixelaspectratio>square</pixelaspectratio>
                            <fielddominance>none</fielddominance>
                            <width>1920</width>
                            <height>1080</height>
                          </samplecharacteristics>
                        </video>
                      </media>
                    </file>
                  </clipitem>
                </track>
              </video>
            </media>
          </clip>
          <clip explodedTracks="true" frameBlend="FALSE" id="masterclip-349">
            <uuid>3f6ef455-a545-4016-8134-1db3add9d486</uuid>
            <masterclipid>masterclip-349</masterclipid>
            <ismasterclip>TRUE</ismasterclip>
            <duration>672</duration>
            <in>0</in>
            <out>672</out>
            <name>Scene - LJ visemes.347.png</name>
            <rate>
              <timebase>24</timebase>
              <ntsc>FALSE</ntsc>
            </rate>
            <media>
              <video>
                <track>
                  <clipitem frameBlend="FALSE" id="clipitem-350">
                    <name>Scene - LJ visemes.347.png</name>
                    <masterclipid>masterclip-349</masterclipid>
                    <rate>
                      <timebase>24</timebase>
                      <ntsc>FALSE</ntsc>
                    </rate>
                    <alphatype>straight</alphatype>
                    <pixelaspectratio>square</pixelaspectratio>
                    <anamorphic>FALSE</anamorphic>
                    <file id="file-349">
                      <name>Scene - LJ visemes.347.png</name>
                      <pathurl>file://localhost/Users/bot/Documents/CREATE/Character Animator/LJ visemes CH2AE/demo/Scene - LJ visemes/Scene - LJ visemes.347.png</pathurl>
                      <rate>
                        <timebase>24</timebase>
                        <ntsc>FALSE</ntsc>
                      </rate>
                      <duration>672</duration>
                      <timecode>
                        <rate>
                          <timebase>24</timebase>
                          <ntsc>FALSE</ntsc>
                        </rate>
                      </timecode>
                      <media>
                        <video>
                          <duration>1</duration>
                          <samplecharacteristics>
                            <anamorphic>FALSE</anamorphic>
                            <pixelaspectratio>square</pixelaspectratio>
                            <fielddominance>none</fielddominance>
                            <width>1920</width>
                            <height>1080</height>
                          </samplecharacteristics>
                        </video>
                      </media>
                    </file>
                  </clipitem>
                </track>
              </video>
            </media>
          </clip>
          <clip explodedTracks="true" frameBlend="FALSE" id="masterclip-350">
            <uuid>ba5c8c48-a86b-41fe-b992-38c5695fe7d6</uuid>
            <masterclipid>masterclip-350</masterclipid>
            <ismasterclip>TRUE</ismasterclip>
            <duration>672</duration>
            <in>0</in>
            <out>672</out>
            <name>Scene - LJ visemes.348.png</name>
            <rate>
              <timebase>24</timebase>
              <ntsc>FALSE</ntsc>
            </rate>
            <media>
              <video>
                <track>
                  <clipitem frameBlend="FALSE" id="clipitem-351">
                    <name>Scene - LJ visemes.348.png</name>
                    <masterclipid>masterclip-350</masterclipid>
                    <rate>
                      <timebase>24</timebase>
                      <ntsc>FALSE</ntsc>
                    </rate>
                    <alphatype>straight</alphatype>
                    <pixelaspectratio>square</pixelaspectratio>
                    <anamorphic>FALSE</anamorphic>
                    <file id="file-350">
                      <name>Scene - LJ visemes.348.png</name>
                      <pathurl>file://localhost/Users/bot/Documents/CREATE/Character Animator/LJ visemes CH2AE/demo/Scene - LJ visemes/Scene - LJ visemes.348.png</pathurl>
                      <rate>
                        <timebase>24</timebase>
                        <ntsc>FALSE</ntsc>
                      </rate>
                      <duration>672</duration>
                      <timecode>
                        <rate>
                          <timebase>24</timebase>
                          <ntsc>FALSE</ntsc>
                        </rate>
                      </timecode>
                      <media>
                        <video>
                          <duration>1</duration>
                          <samplecharacteristics>
                            <anamorphic>FALSE</anamorphic>
                            <pixelaspectratio>square</pixelaspectratio>
                            <fielddominance>none</fielddominance>
                            <width>1920</width>
                            <height>1080</height>
                          </samplecharacteristics>
                        </video>
                      </media>
                    </file>
                  </clipitem>
                </track>
              </video>
            </media>
          </clip>
          <clip explodedTracks="true" frameBlend="FALSE" id="masterclip-351">
            <uuid>1cc7d422-a38a-483e-b7df-b437eccc1045</uuid>
            <masterclipid>masterclip-351</masterclipid>
            <ismasterclip>TRUE</ismasterclip>
            <duration>672</duration>
            <in>0</in>
            <out>672</out>
            <name>Scene - LJ visemes.349.png</name>
            <rate>
              <timebase>24</timebase>
              <ntsc>FALSE</ntsc>
            </rate>
            <media>
              <video>
                <track>
                  <clipitem frameBlend="FALSE" id="clipitem-352">
                    <name>Scene - LJ visemes.349.png</name>
                    <masterclipid>masterclip-351</masterclipid>
                    <rate>
                      <timebase>24</timebase>
                      <ntsc>FALSE</ntsc>
                    </rate>
                    <alphatype>straight</alphatype>
                    <pixelaspectratio>square</pixelaspectratio>
                    <anamorphic>FALSE</anamorphic>
                    <file id="file-351">
                      <name>Scene - LJ visemes.349.png</name>
                      <pathurl>file://localhost/Users/bot/Documents/CREATE/Character Animator/LJ visemes CH2AE/demo/Scene - LJ visemes/Scene - LJ visemes.349.png</pathurl>
                      <rate>
                        <timebase>24</timebase>
                        <ntsc>FALSE</ntsc>
                      </rate>
                      <duration>672</duration>
                      <timecode>
                        <rate>
                          <timebase>24</timebase>
                          <ntsc>FALSE</ntsc>
                        </rate>
                      </timecode>
                      <media>
                        <video>
                          <duration>1</duration>
                          <samplecharacteristics>
                            <anamorphic>FALSE</anamorphic>
                            <pixelaspectratio>square</pixelaspectratio>
                            <fielddominance>none</fielddominance>
                            <width>1920</width>
                            <height>1080</height>
                          </samplecharacteristics>
                        </video>
                      </media>
                    </file>
                  </clipitem>
                </track>
              </video>
            </media>
          </clip>
          <clip explodedTracks="true" frameBlend="FALSE" id="masterclip-352">
            <uuid>c0fa465b-cf96-446e-8cd3-889e68d7f39b</uuid>
            <masterclipid>masterclip-352</masterclipid>
            <ismasterclip>TRUE</ismasterclip>
            <duration>672</duration>
            <in>0</in>
            <out>672</out>
            <name>Scene - LJ visemes.350.png</name>
            <rate>
              <timebase>24</timebase>
              <ntsc>FALSE</ntsc>
            </rate>
            <media>
              <video>
                <track>
                  <clipitem frameBlend="FALSE" id="clipitem-353">
                    <name>Scene - LJ visemes.350.png</name>
                    <masterclipid>masterclip-352</masterclipid>
                    <rate>
                      <timebase>24</timebase>
                      <ntsc>FALSE</ntsc>
                    </rate>
                    <alphatype>straight</alphatype>
                    <pixelaspectratio>square</pixelaspectratio>
                    <anamorphic>FALSE</anamorphic>
                    <file id="file-352">
                      <name>Scene - LJ visemes.350.png</name>
                      <pathurl>file://localhost/Users/bot/Documents/CREATE/Character Animator/LJ visemes CH2AE/demo/Scene - LJ visemes/Scene - LJ visemes.350.png</pathurl>
                      <rate>
                        <timebase>24</timebase>
                        <ntsc>FALSE</ntsc>
                      </rate>
                      <duration>672</duration>
                      <timecode>
                        <rate>
                          <timebase>24</timebase>
                          <ntsc>FALSE</ntsc>
                        </rate>
                      </timecode>
                      <media>
                        <video>
                          <duration>1</duration>
                          <samplecharacteristics>
                            <anamorphic>FALSE</anamorphic>
                            <pixelaspectratio>square</pixelaspectratio>
                            <fielddominance>none</fielddominance>
                            <width>1920</width>
                            <height>1080</height>
                          </samplecharacteristics>
                        </video>
                      </media>
                    </file>
                  </clipitem>
                </track>
              </video>
            </media>
          </clip>
          <clip explodedTracks="true" frameBlend="FALSE" id="masterclip-353">
            <uuid>ec30a4ce-5138-480e-ab90-4cbeaeb18079</uuid>
            <masterclipid>masterclip-353</masterclipid>
            <ismasterclip>TRUE</ismasterclip>
            <duration>672</duration>
            <in>0</in>
            <out>672</out>
            <name>Scene - LJ visemes.351.png</name>
            <rate>
              <timebase>24</timebase>
              <ntsc>FALSE</ntsc>
            </rate>
            <media>
              <video>
                <track>
                  <clipitem frameBlend="FALSE" id="clipitem-354">
                    <name>Scene - LJ visemes.351.png</name>
                    <masterclipid>masterclip-353</masterclipid>
                    <rate>
                      <timebase>24</timebase>
                      <ntsc>FALSE</ntsc>
                    </rate>
                    <alphatype>straight</alphatype>
                    <pixelaspectratio>square</pixelaspectratio>
                    <anamorphic>FALSE</anamorphic>
                    <file id="file-353">
                      <name>Scene - LJ visemes.351.png</name>
                      <pathurl>file://localhost/Users/bot/Documents/CREATE/Character Animator/LJ visemes CH2AE/demo/Scene - LJ visemes/Scene - LJ visemes.351.png</pathurl>
                      <rate>
                        <timebase>24</timebase>
                        <ntsc>FALSE</ntsc>
                      </rate>
                      <duration>672</duration>
                      <timecode>
                        <rate>
                          <timebase>24</timebase>
                          <ntsc>FALSE</ntsc>
                        </rate>
                      </timecode>
                      <media>
                        <video>
                          <duration>1</duration>
                          <samplecharacteristics>
                            <anamorphic>FALSE</anamorphic>
                            <pixelaspectratio>square</pixelaspectratio>
                            <fielddominance>none</fielddominance>
                            <width>1920</width>
                            <height>1080</height>
                          </samplecharacteristics>
                        </video>
                      </media>
                    </file>
                  </clipitem>
                </track>
              </video>
            </media>
          </clip>
          <clip explodedTracks="true" frameBlend="FALSE" id="masterclip-354">
            <uuid>5d1c39b0-af2c-4f23-92b4-619cdb26d7d1</uuid>
            <masterclipid>masterclip-354</masterclipid>
            <ismasterclip>TRUE</ismasterclip>
            <duration>672</duration>
            <in>0</in>
            <out>672</out>
            <name>Scene - LJ visemes.352.png</name>
            <rate>
              <timebase>24</timebase>
              <ntsc>FALSE</ntsc>
            </rate>
            <media>
              <video>
                <track>
                  <clipitem frameBlend="FALSE" id="clipitem-355">
                    <name>Scene - LJ visemes.352.png</name>
                    <masterclipid>masterclip-354</masterclipid>
                    <rate>
                      <timebase>24</timebase>
                      <ntsc>FALSE</ntsc>
                    </rate>
                    <alphatype>straight</alphatype>
                    <pixelaspectratio>square</pixelaspectratio>
                    <anamorphic>FALSE</anamorphic>
                    <file id="file-354">
                      <name>Scene - LJ visemes.352.png</name>
                      <pathurl>file://localhost/Users/bot/Documents/CREATE/Character Animator/LJ visemes CH2AE/demo/Scene - LJ visemes/Scene - LJ visemes.352.png</pathurl>
                      <rate>
                        <timebase>24</timebase>
                        <ntsc>FALSE</ntsc>
                      </rate>
                      <duration>672</duration>
                      <timecode>
                        <rate>
                          <timebase>24</timebase>
                          <ntsc>FALSE</ntsc>
                        </rate>
                      </timecode>
                      <media>
                        <video>
                          <duration>1</duration>
                          <samplecharacteristics>
                            <anamorphic>FALSE</anamorphic>
                            <pixelaspectratio>square</pixelaspectratio>
                            <fielddominance>none</fielddominance>
                            <width>1920</width>
                            <height>1080</height>
                          </samplecharacteristics>
                        </video>
                      </media>
                    </file>
                  </clipitem>
                </track>
              </video>
            </media>
          </clip>
          <clip explodedTracks="true" frameBlend="FALSE" id="masterclip-355">
            <uuid>05edd841-1228-41da-ae75-7605ada3c7d0</uuid>
            <masterclipid>masterclip-355</masterclipid>
            <ismasterclip>TRUE</ismasterclip>
            <duration>672</duration>
            <in>0</in>
            <out>672</out>
            <name>Scene - LJ visemes.353.png</name>
            <rate>
              <timebase>24</timebase>
              <ntsc>FALSE</ntsc>
            </rate>
            <media>
              <video>
                <track>
                  <clipitem frameBlend="FALSE" id="clipitem-356">
                    <name>Scene - LJ visemes.353.png</name>
                    <masterclipid>masterclip-355</masterclipid>
                    <rate>
                      <timebase>24</timebase>
                      <ntsc>FALSE</ntsc>
                    </rate>
                    <alphatype>straight</alphatype>
                    <pixelaspectratio>square</pixelaspectratio>
                    <anamorphic>FALSE</anamorphic>
                    <file id="file-355">
                      <name>Scene - LJ visemes.353.png</name>
                      <pathurl>file://localhost/Users/bot/Documents/CREATE/Character Animator/LJ visemes CH2AE/demo/Scene - LJ visemes/Scene - LJ visemes.353.png</pathurl>
                      <rate>
                        <timebase>24</timebase>
                        <ntsc>FALSE</ntsc>
                      </rate>
                      <duration>672</duration>
                      <timecode>
                        <rate>
                          <timebase>24</timebase>
                          <ntsc>FALSE</ntsc>
                        </rate>
                      </timecode>
                      <media>
                        <video>
                          <duration>1</duration>
                          <samplecharacteristics>
                            <anamorphic>FALSE</anamorphic>
                            <pixelaspectratio>square</pixelaspectratio>
                            <fielddominance>none</fielddominance>
                            <width>1920</width>
                            <height>1080</height>
                          </samplecharacteristics>
                        </video>
                      </media>
                    </file>
                  </clipitem>
                </track>
              </video>
            </media>
          </clip>
          <clip explodedTracks="true" frameBlend="FALSE" id="masterclip-356">
            <uuid>687733a1-c029-4fc0-b90a-30910505f22d</uuid>
            <masterclipid>masterclip-356</masterclipid>
            <ismasterclip>TRUE</ismasterclip>
            <duration>672</duration>
            <in>0</in>
            <out>672</out>
            <name>Scene - LJ visemes.354.png</name>
            <rate>
              <timebase>24</timebase>
              <ntsc>FALSE</ntsc>
            </rate>
            <media>
              <video>
                <track>
                  <clipitem frameBlend="FALSE" id="clipitem-357">
                    <name>Scene - LJ visemes.354.png</name>
                    <masterclipid>masterclip-356</masterclipid>
                    <rate>
                      <timebase>24</timebase>
                      <ntsc>FALSE</ntsc>
                    </rate>
                    <alphatype>straight</alphatype>
                    <pixelaspectratio>square</pixelaspectratio>
                    <anamorphic>FALSE</anamorphic>
                    <file id="file-356">
                      <name>Scene - LJ visemes.354.png</name>
                      <pathurl>file://localhost/Users/bot/Documents/CREATE/Character Animator/LJ visemes CH2AE/demo/Scene - LJ visemes/Scene - LJ visemes.354.png</pathurl>
                      <rate>
                        <timebase>24</timebase>
                        <ntsc>FALSE</ntsc>
                      </rate>
                      <duration>672</duration>
                      <timecode>
                        <rate>
                          <timebase>24</timebase>
                          <ntsc>FALSE</ntsc>
                        </rate>
                      </timecode>
                      <media>
                        <video>
                          <duration>1</duration>
                          <samplecharacteristics>
                            <anamorphic>FALSE</anamorphic>
                            <pixelaspectratio>square</pixelaspectratio>
                            <fielddominance>none</fielddominance>
                            <width>1920</width>
                            <height>1080</height>
                          </samplecharacteristics>
                        </video>
                      </media>
                    </file>
                  </clipitem>
                </track>
              </video>
            </media>
          </clip>
          <clip explodedTracks="true" frameBlend="FALSE" id="masterclip-357">
            <uuid>8ea3ed48-32b3-412a-bbf6-0c792ba5183d</uuid>
            <masterclipid>masterclip-357</masterclipid>
            <ismasterclip>TRUE</ismasterclip>
            <duration>672</duration>
            <in>0</in>
            <out>672</out>
            <name>Scene - LJ visemes.355.png</name>
            <rate>
              <timebase>24</timebase>
              <ntsc>FALSE</ntsc>
            </rate>
            <media>
              <video>
                <track>
                  <clipitem frameBlend="FALSE" id="clipitem-358">
                    <name>Scene - LJ visemes.355.png</name>
                    <masterclipid>masterclip-357</masterclipid>
                    <rate>
                      <timebase>24</timebase>
                      <ntsc>FALSE</ntsc>
                    </rate>
                    <alphatype>straight</alphatype>
                    <pixelaspectratio>square</pixelaspectratio>
                    <anamorphic>FALSE</anamorphic>
                    <file id="file-357">
                      <name>Scene - LJ visemes.355.png</name>
                      <pathurl>file://localhost/Users/bot/Documents/CREATE/Character Animator/LJ visemes CH2AE/demo/Scene - LJ visemes/Scene - LJ visemes.355.png</pathurl>
                      <rate>
                        <timebase>24</timebase>
                        <ntsc>FALSE</ntsc>
                      </rate>
                      <duration>672</duration>
                      <timecode>
                        <rate>
                          <timebase>24</timebase>
                          <ntsc>FALSE</ntsc>
                        </rate>
                      </timecode>
                      <media>
                        <video>
                          <duration>1</duration>
                          <samplecharacteristics>
                            <anamorphic>FALSE</anamorphic>
                            <pixelaspectratio>square</pixelaspectratio>
                            <fielddominance>none</fielddominance>
                            <width>1920</width>
                            <height>1080</height>
                          </samplecharacteristics>
                        </video>
                      </media>
                    </file>
                  </clipitem>
                </track>
              </video>
            </media>
          </clip>
          <clip explodedTracks="true" frameBlend="FALSE" id="masterclip-358">
            <uuid>b63e092b-1d16-4f26-aca8-ca71e9ab871d</uuid>
            <masterclipid>masterclip-358</masterclipid>
            <ismasterclip>TRUE</ismasterclip>
            <duration>672</duration>
            <in>0</in>
            <out>672</out>
            <name>Scene - LJ visemes.356.png</name>
            <rate>
              <timebase>24</timebase>
              <ntsc>FALSE</ntsc>
            </rate>
            <media>
              <video>
                <track>
                  <clipitem frameBlend="FALSE" id="clipitem-359">
                    <name>Scene - LJ visemes.356.png</name>
                    <masterclipid>masterclip-358</masterclipid>
                    <rate>
                      <timebase>24</timebase>
                      <ntsc>FALSE</ntsc>
                    </rate>
                    <alphatype>straight</alphatype>
                    <pixelaspectratio>square</pixelaspectratio>
                    <anamorphic>FALSE</anamorphic>
                    <file id="file-358">
                      <name>Scene - LJ visemes.356.png</name>
                      <pathurl>file://localhost/Users/bot/Documents/CREATE/Character Animator/LJ visemes CH2AE/demo/Scene - LJ visemes/Scene - LJ visemes.356.png</pathurl>
                      <rate>
                        <timebase>24</timebase>
                        <ntsc>FALSE</ntsc>
                      </rate>
                      <duration>672</duration>
                      <timecode>
                        <rate>
                          <timebase>24</timebase>
                          <ntsc>FALSE</ntsc>
                        </rate>
                      </timecode>
                      <media>
                        <video>
                          <duration>1</duration>
                          <samplecharacteristics>
                            <anamorphic>FALSE</anamorphic>
                            <pixelaspectratio>square</pixelaspectratio>
                            <fielddominance>none</fielddominance>
                            <width>1920</width>
                            <height>1080</height>
                          </samplecharacteristics>
                        </video>
                      </media>
                    </file>
                  </clipitem>
                </track>
              </video>
            </media>
          </clip>
          <clip explodedTracks="true" frameBlend="FALSE" id="masterclip-359">
            <uuid>76ebec2f-2b6d-49c0-a214-d6ebd269e520</uuid>
            <masterclipid>masterclip-359</masterclipid>
            <ismasterclip>TRUE</ismasterclip>
            <duration>672</duration>
            <in>0</in>
            <out>672</out>
            <name>Scene - LJ visemes.357.png</name>
            <rate>
              <timebase>24</timebase>
              <ntsc>FALSE</ntsc>
            </rate>
            <media>
              <video>
                <track>
                  <clipitem frameBlend="FALSE" id="clipitem-360">
                    <name>Scene - LJ visemes.357.png</name>
                    <masterclipid>masterclip-359</masterclipid>
                    <rate>
                      <timebase>24</timebase>
                      <ntsc>FALSE</ntsc>
                    </rate>
                    <alphatype>straight</alphatype>
                    <pixelaspectratio>square</pixelaspectratio>
                    <anamorphic>FALSE</anamorphic>
                    <file id="file-359">
                      <name>Scene - LJ visemes.357.png</name>
                      <pathurl>file://localhost/Users/bot/Documents/CREATE/Character Animator/LJ visemes CH2AE/demo/Scene - LJ visemes/Scene - LJ visemes.357.png</pathurl>
                      <rate>
                        <timebase>24</timebase>
                        <ntsc>FALSE</ntsc>
                      </rate>
                      <duration>672</duration>
                      <timecode>
                        <rate>
                          <timebase>24</timebase>
                          <ntsc>FALSE</ntsc>
                        </rate>
                      </timecode>
                      <media>
                        <video>
                          <duration>1</duration>
                          <samplecharacteristics>
                            <anamorphic>FALSE</anamorphic>
                            <pixelaspectratio>square</pixelaspectratio>
                            <fielddominance>none</fielddominance>
                            <width>1920</width>
                            <height>1080</height>
                          </samplecharacteristics>
                        </video>
                      </media>
                    </file>
                  </clipitem>
                </track>
              </video>
            </media>
          </clip>
          <clip explodedTracks="true" frameBlend="FALSE" id="masterclip-360">
            <uuid>fa285da1-cda8-4b39-975d-989a54589ffd</uuid>
            <masterclipid>masterclip-360</masterclipid>
            <ismasterclip>TRUE</ismasterclip>
            <duration>672</duration>
            <in>0</in>
            <out>672</out>
            <name>Scene - LJ visemes.358.png</name>
            <rate>
              <timebase>24</timebase>
              <ntsc>FALSE</ntsc>
            </rate>
            <media>
              <video>
                <track>
                  <clipitem frameBlend="FALSE" id="clipitem-361">
                    <name>Scene - LJ visemes.358.png</name>
                    <masterclipid>masterclip-360</masterclipid>
                    <rate>
                      <timebase>24</timebase>
                      <ntsc>FALSE</ntsc>
                    </rate>
                    <alphatype>straight</alphatype>
                    <pixelaspectratio>square</pixelaspectratio>
                    <anamorphic>FALSE</anamorphic>
                    <file id="file-360">
                      <name>Scene - LJ visemes.358.png</name>
                      <pathurl>file://localhost/Users/bot/Documents/CREATE/Character Animator/LJ visemes CH2AE/demo/Scene - LJ visemes/Scene - LJ visemes.358.png</pathurl>
                      <rate>
                        <timebase>24</timebase>
                        <ntsc>FALSE</ntsc>
                      </rate>
                      <duration>672</duration>
                      <timecode>
                        <rate>
                          <timebase>24</timebase>
                          <ntsc>FALSE</ntsc>
                        </rate>
                      </timecode>
                      <media>
                        <video>
                          <duration>1</duration>
                          <samplecharacteristics>
                            <anamorphic>FALSE</anamorphic>
                            <pixelaspectratio>square</pixelaspectratio>
                            <fielddominance>none</fielddominance>
                            <width>1920</width>
                            <height>1080</height>
                          </samplecharacteristics>
                        </video>
                      </media>
                    </file>
                  </clipitem>
                </track>
              </video>
            </media>
          </clip>
          <clip explodedTracks="true" frameBlend="FALSE" id="masterclip-361">
            <uuid>6b9a3f04-d725-4a3d-ad8b-77ebc15070a2</uuid>
            <masterclipid>masterclip-361</masterclipid>
            <ismasterclip>TRUE</ismasterclip>
            <duration>672</duration>
            <in>0</in>
            <out>672</out>
            <name>Scene - LJ visemes.359.png</name>
            <rate>
              <timebase>24</timebase>
              <ntsc>FALSE</ntsc>
            </rate>
            <media>
              <video>
                <track>
                  <clipitem frameBlend="FALSE" id="clipitem-362">
                    <name>Scene - LJ visemes.359.png</name>
                    <masterclipid>masterclip-361</masterclipid>
                    <rate>
                      <timebase>24</timebase>
                      <ntsc>FALSE</ntsc>
                    </rate>
                    <alphatype>straight</alphatype>
                    <pixelaspectratio>square</pixelaspectratio>
                    <anamorphic>FALSE</anamorphic>
                    <file id="file-361">
                      <name>Scene - LJ visemes.359.png</name>
                      <pathurl>file://localhost/Users/bot/Documents/CREATE/Character Animator/LJ visemes CH2AE/demo/Scene - LJ visemes/Scene - LJ visemes.359.png</pathurl>
                      <rate>
                        <timebase>24</timebase>
                        <ntsc>FALSE</ntsc>
                      </rate>
                      <duration>672</duration>
                      <timecode>
                        <rate>
                          <timebase>24</timebase>
                          <ntsc>FALSE</ntsc>
                        </rate>
                      </timecode>
                      <media>
                        <video>
                          <duration>1</duration>
                          <samplecharacteristics>
                            <anamorphic>FALSE</anamorphic>
                            <pixelaspectratio>square</pixelaspectratio>
                            <fielddominance>none</fielddominance>
                            <width>1920</width>
                            <height>1080</height>
                          </samplecharacteristics>
                        </video>
                      </media>
                    </file>
                  </clipitem>
                </track>
              </video>
            </media>
          </clip>
          <clip explodedTracks="true" frameBlend="FALSE" id="masterclip-362">
            <uuid>6c1ddc9e-fd26-40bf-8bcf-26de77d9e772</uuid>
            <masterclipid>masterclip-362</masterclipid>
            <ismasterclip>TRUE</ismasterclip>
            <duration>672</duration>
            <in>0</in>
            <out>672</out>
            <name>Scene - LJ visemes.360.png</name>
            <rate>
              <timebase>24</timebase>
              <ntsc>FALSE</ntsc>
            </rate>
            <media>
              <video>
                <track>
                  <clipitem frameBlend="FALSE" id="clipitem-363">
                    <name>Scene - LJ visemes.360.png</name>
                    <masterclipid>masterclip-362</masterclipid>
                    <rate>
                      <timebase>24</timebase>
                      <ntsc>FALSE</ntsc>
                    </rate>
                    <alphatype>straight</alphatype>
                    <pixelaspectratio>square</pixelaspectratio>
                    <anamorphic>FALSE</anamorphic>
                    <file id="file-362">
                      <name>Scene - LJ visemes.360.png</name>
                      <pathurl>file://localhost/Users/bot/Documents/CREATE/Character Animator/LJ visemes CH2AE/demo/Scene - LJ visemes/Scene - LJ visemes.360.png</pathurl>
                      <rate>
                        <timebase>24</timebase>
                        <ntsc>FALSE</ntsc>
                      </rate>
                      <duration>672</duration>
                      <timecode>
                        <rate>
                          <timebase>24</timebase>
                          <ntsc>FALSE</ntsc>
                        </rate>
                      </timecode>
                      <media>
                        <video>
                          <duration>1</duration>
                          <samplecharacteristics>
                            <anamorphic>FALSE</anamorphic>
                            <pixelaspectratio>square</pixelaspectratio>
                            <fielddominance>none</fielddominance>
                            <width>1920</width>
                            <height>1080</height>
                          </samplecharacteristics>
                        </video>
                      </media>
                    </file>
                  </clipitem>
                </track>
              </video>
            </media>
          </clip>
          <clip explodedTracks="true" frameBlend="FALSE" id="masterclip-363">
            <uuid>7affb52d-b348-4b93-8d08-ffdcd6b6e4d1</uuid>
            <masterclipid>masterclip-363</masterclipid>
            <ismasterclip>TRUE</ismasterclip>
            <duration>672</duration>
            <in>0</in>
            <out>672</out>
            <name>Scene - LJ visemes.361.png</name>
            <rate>
              <timebase>24</timebase>
              <ntsc>FALSE</ntsc>
            </rate>
            <media>
              <video>
                <track>
                  <clipitem frameBlend="FALSE" id="clipitem-364">
                    <name>Scene - LJ visemes.361.png</name>
                    <masterclipid>masterclip-363</masterclipid>
                    <rate>
                      <timebase>24</timebase>
                      <ntsc>FALSE</ntsc>
                    </rate>
                    <alphatype>straight</alphatype>
                    <pixelaspectratio>square</pixelaspectratio>
                    <anamorphic>FALSE</anamorphic>
                    <file id="file-363">
                      <name>Scene - LJ visemes.361.png</name>
                      <pathurl>file://localhost/Users/bot/Documents/CREATE/Character Animator/LJ visemes CH2AE/demo/Scene - LJ visemes/Scene - LJ visemes.361.png</pathurl>
                      <rate>
                        <timebase>24</timebase>
                        <ntsc>FALSE</ntsc>
                      </rate>
                      <duration>672</duration>
                      <timecode>
                        <rate>
                          <timebase>24</timebase>
                          <ntsc>FALSE</ntsc>
                        </rate>
                      </timecode>
                      <media>
                        <video>
                          <duration>1</duration>
                          <samplecharacteristics>
                            <anamorphic>FALSE</anamorphic>
                            <pixelaspectratio>square</pixelaspectratio>
                            <fielddominance>none</fielddominance>
                            <width>1920</width>
                            <height>1080</height>
                          </samplecharacteristics>
                        </video>
                      </media>
                    </file>
                  </clipitem>
                </track>
              </video>
            </media>
          </clip>
          <clip explodedTracks="true" frameBlend="FALSE" id="masterclip-364">
            <uuid>28eea168-bc44-4ce5-9dfd-f18b6bf3e614</uuid>
            <masterclipid>masterclip-364</masterclipid>
            <ismasterclip>TRUE</ismasterclip>
            <duration>672</duration>
            <in>0</in>
            <out>672</out>
            <name>Scene - LJ visemes.362.png</name>
            <rate>
              <timebase>24</timebase>
              <ntsc>FALSE</ntsc>
            </rate>
            <media>
              <video>
                <track>
                  <clipitem frameBlend="FALSE" id="clipitem-365">
                    <name>Scene - LJ visemes.362.png</name>
                    <masterclipid>masterclip-364</masterclipid>
                    <rate>
                      <timebase>24</timebase>
                      <ntsc>FALSE</ntsc>
                    </rate>
                    <alphatype>straight</alphatype>
                    <pixelaspectratio>square</pixelaspectratio>
                    <anamorphic>FALSE</anamorphic>
                    <file id="file-364">
                      <name>Scene - LJ visemes.362.png</name>
                      <pathurl>file://localhost/Users/bot/Documents/CREATE/Character Animator/LJ visemes CH2AE/demo/Scene - LJ visemes/Scene - LJ visemes.362.png</pathurl>
                      <rate>
                        <timebase>24</timebase>
                        <ntsc>FALSE</ntsc>
                      </rate>
                      <duration>672</duration>
                      <timecode>
                        <rate>
                          <timebase>24</timebase>
                          <ntsc>FALSE</ntsc>
                        </rate>
                      </timecode>
                      <media>
                        <video>
                          <duration>1</duration>
                          <samplecharacteristics>
                            <anamorphic>FALSE</anamorphic>
                            <pixelaspectratio>square</pixelaspectratio>
                            <fielddominance>none</fielddominance>
                            <width>1920</width>
                            <height>1080</height>
                          </samplecharacteristics>
                        </video>
                      </media>
                    </file>
                  </clipitem>
                </track>
              </video>
            </media>
          </clip>
          <clip explodedTracks="true" frameBlend="FALSE" id="masterclip-365">
            <uuid>7bd15237-0475-475c-90f3-39680f2fd2f1</uuid>
            <masterclipid>masterclip-365</masterclipid>
            <ismasterclip>TRUE</ismasterclip>
            <duration>672</duration>
            <in>0</in>
            <out>672</out>
            <name>Scene - LJ visemes.363.png</name>
            <rate>
              <timebase>24</timebase>
              <ntsc>FALSE</ntsc>
            </rate>
            <media>
              <video>
                <track>
                  <clipitem frameBlend="FALSE" id="clipitem-366">
                    <name>Scene - LJ visemes.363.png</name>
                    <masterclipid>masterclip-365</masterclipid>
                    <rate>
                      <timebase>24</timebase>
                      <ntsc>FALSE</ntsc>
                    </rate>
                    <alphatype>straight</alphatype>
                    <pixelaspectratio>square</pixelaspectratio>
                    <anamorphic>FALSE</anamorphic>
                    <file id="file-365">
                      <name>Scene - LJ visemes.363.png</name>
                      <pathurl>file://localhost/Users/bot/Documents/CREATE/Character Animator/LJ visemes CH2AE/demo/Scene - LJ visemes/Scene - LJ visemes.363.png</pathurl>
                      <rate>
                        <timebase>24</timebase>
                        <ntsc>FALSE</ntsc>
                      </rate>
                      <duration>672</duration>
                      <timecode>
                        <rate>
                          <timebase>24</timebase>
                          <ntsc>FALSE</ntsc>
                        </rate>
                      </timecode>
                      <media>
                        <video>
                          <duration>1</duration>
                          <samplecharacteristics>
                            <anamorphic>FALSE</anamorphic>
                            <pixelaspectratio>square</pixelaspectratio>
                            <fielddominance>none</fielddominance>
                            <width>1920</width>
                            <height>1080</height>
                          </samplecharacteristics>
                        </video>
                      </media>
                    </file>
                  </clipitem>
                </track>
              </video>
            </media>
          </clip>
          <clip explodedTracks="true" frameBlend="FALSE" id="masterclip-366">
            <uuid>f5f4f46c-607f-4ab2-aa73-16a3f2a15d3b</uuid>
            <masterclipid>masterclip-366</masterclipid>
            <ismasterclip>TRUE</ismasterclip>
            <duration>672</duration>
            <in>0</in>
            <out>672</out>
            <name>Scene - LJ visemes.364.png</name>
            <rate>
              <timebase>24</timebase>
              <ntsc>FALSE</ntsc>
            </rate>
            <media>
              <video>
                <track>
                  <clipitem frameBlend="FALSE" id="clipitem-367">
                    <name>Scene - LJ visemes.364.png</name>
                    <masterclipid>masterclip-366</masterclipid>
                    <rate>
                      <timebase>24</timebase>
                      <ntsc>FALSE</ntsc>
                    </rate>
                    <alphatype>straight</alphatype>
                    <pixelaspectratio>square</pixelaspectratio>
                    <anamorphic>FALSE</anamorphic>
                    <file id="file-366">
                      <name>Scene - LJ visemes.364.png</name>
                      <pathurl>file://localhost/Users/bot/Documents/CREATE/Character Animator/LJ visemes CH2AE/demo/Scene - LJ visemes/Scene - LJ visemes.364.png</pathurl>
                      <rate>
                        <timebase>24</timebase>
                        <ntsc>FALSE</ntsc>
                      </rate>
                      <duration>672</duration>
                      <timecode>
                        <rate>
                          <timebase>24</timebase>
                          <ntsc>FALSE</ntsc>
                        </rate>
                      </timecode>
                      <media>
                        <video>
                          <duration>1</duration>
                          <samplecharacteristics>
                            <anamorphic>FALSE</anamorphic>
                            <pixelaspectratio>square</pixelaspectratio>
                            <fielddominance>none</fielddominance>
                            <width>1920</width>
                            <height>1080</height>
                          </samplecharacteristics>
                        </video>
                      </media>
                    </file>
                  </clipitem>
                </track>
              </video>
            </media>
          </clip>
          <clip explodedTracks="true" frameBlend="FALSE" id="masterclip-367">
            <uuid>09833d23-e386-4173-9799-8f2f0cafb2c8</uuid>
            <masterclipid>masterclip-367</masterclipid>
            <ismasterclip>TRUE</ismasterclip>
            <duration>672</duration>
            <in>0</in>
            <out>672</out>
            <name>Scene - LJ visemes.365.png</name>
            <rate>
              <timebase>24</timebase>
              <ntsc>FALSE</ntsc>
            </rate>
            <media>
              <video>
                <track>
                  <clipitem frameBlend="FALSE" id="clipitem-368">
                    <name>Scene - LJ visemes.365.png</name>
                    <masterclipid>masterclip-367</masterclipid>
                    <rate>
                      <timebase>24</timebase>
                      <ntsc>FALSE</ntsc>
                    </rate>
                    <alphatype>straight</alphatype>
                    <pixelaspectratio>square</pixelaspectratio>
                    <anamorphic>FALSE</anamorphic>
                    <file id="file-367">
                      <name>Scene - LJ visemes.365.png</name>
                      <pathurl>file://localhost/Users/bot/Documents/CREATE/Character Animator/LJ visemes CH2AE/demo/Scene - LJ visemes/Scene - LJ visemes.365.png</pathurl>
                      <rate>
                        <timebase>24</timebase>
                        <ntsc>FALSE</ntsc>
                      </rate>
                      <duration>672</duration>
                      <timecode>
                        <rate>
                          <timebase>24</timebase>
                          <ntsc>FALSE</ntsc>
                        </rate>
                      </timecode>
                      <media>
                        <video>
                          <duration>1</duration>
                          <samplecharacteristics>
                            <anamorphic>FALSE</anamorphic>
                            <pixelaspectratio>square</pixelaspectratio>
                            <fielddominance>none</fielddominance>
                            <width>1920</width>
                            <height>1080</height>
                          </samplecharacteristics>
                        </video>
                      </media>
                    </file>
                  </clipitem>
                </track>
              </video>
            </media>
          </clip>
          <clip explodedTracks="true" frameBlend="FALSE" id="masterclip-368">
            <uuid>1b777c7b-8e0e-49cb-8a34-adc9579b9e7f</uuid>
            <masterclipid>masterclip-368</masterclipid>
            <ismasterclip>TRUE</ismasterclip>
            <duration>672</duration>
            <in>0</in>
            <out>672</out>
            <name>Scene - LJ visemes.366.png</name>
            <rate>
              <timebase>24</timebase>
              <ntsc>FALSE</ntsc>
            </rate>
            <media>
              <video>
                <track>
                  <clipitem frameBlend="FALSE" id="clipitem-369">
                    <name>Scene - LJ visemes.366.png</name>
                    <masterclipid>masterclip-368</masterclipid>
                    <rate>
                      <timebase>24</timebase>
                      <ntsc>FALSE</ntsc>
                    </rate>
                    <alphatype>straight</alphatype>
                    <pixelaspectratio>square</pixelaspectratio>
                    <anamorphic>FALSE</anamorphic>
                    <file id="file-368">
                      <name>Scene - LJ visemes.366.png</name>
                      <pathurl>file://localhost/Users/bot/Documents/CREATE/Character Animator/LJ visemes CH2AE/demo/Scene - LJ visemes/Scene - LJ visemes.366.png</pathurl>
                      <rate>
                        <timebase>24</timebase>
                        <ntsc>FALSE</ntsc>
                      </rate>
                      <duration>672</duration>
                      <timecode>
                        <rate>
                          <timebase>24</timebase>
                          <ntsc>FALSE</ntsc>
                        </rate>
                      </timecode>
                      <media>
                        <video>
                          <duration>1</duration>
                          <samplecharacteristics>
                            <anamorphic>FALSE</anamorphic>
                            <pixelaspectratio>square</pixelaspectratio>
                            <fielddominance>none</fielddominance>
                            <width>1920</width>
                            <height>1080</height>
                          </samplecharacteristics>
                        </video>
                      </media>
                    </file>
                  </clipitem>
                </track>
              </video>
            </media>
          </clip>
          <clip explodedTracks="true" frameBlend="FALSE" id="masterclip-369">
            <uuid>a42fa115-8c11-42ca-ba34-96170cd686c3</uuid>
            <masterclipid>masterclip-369</masterclipid>
            <ismasterclip>TRUE</ismasterclip>
            <duration>672</duration>
            <in>0</in>
            <out>672</out>
            <name>Scene - LJ visemes.367.png</name>
            <rate>
              <timebase>24</timebase>
              <ntsc>FALSE</ntsc>
            </rate>
            <media>
              <video>
                <track>
                  <clipitem frameBlend="FALSE" id="clipitem-370">
                    <name>Scene - LJ visemes.367.png</name>
                    <masterclipid>masterclip-369</masterclipid>
                    <rate>
                      <timebase>24</timebase>
                      <ntsc>FALSE</ntsc>
                    </rate>
                    <alphatype>straight</alphatype>
                    <pixelaspectratio>square</pixelaspectratio>
                    <anamorphic>FALSE</anamorphic>
                    <file id="file-369">
                      <name>Scene - LJ visemes.367.png</name>
                      <pathurl>file://localhost/Users/bot/Documents/CREATE/Character Animator/LJ visemes CH2AE/demo/Scene - LJ visemes/Scene - LJ visemes.367.png</pathurl>
                      <rate>
                        <timebase>24</timebase>
                        <ntsc>FALSE</ntsc>
                      </rate>
                      <duration>672</duration>
                      <timecode>
                        <rate>
                          <timebase>24</timebase>
                          <ntsc>FALSE</ntsc>
                        </rate>
                      </timecode>
                      <media>
                        <video>
                          <duration>1</duration>
                          <samplecharacteristics>
                            <anamorphic>FALSE</anamorphic>
                            <pixelaspectratio>square</pixelaspectratio>
                            <fielddominance>none</fielddominance>
                            <width>1920</width>
                            <height>1080</height>
                          </samplecharacteristics>
                        </video>
                      </media>
                    </file>
                  </clipitem>
                </track>
              </video>
            </media>
          </clip>
          <clip explodedTracks="true" frameBlend="FALSE" id="masterclip-370">
            <uuid>561f66fa-b17c-4695-a960-07747d16727e</uuid>
            <masterclipid>masterclip-370</masterclipid>
            <ismasterclip>TRUE</ismasterclip>
            <duration>672</duration>
            <in>0</in>
            <out>672</out>
            <name>Scene - LJ visemes.368.png</name>
            <rate>
              <timebase>24</timebase>
              <ntsc>FALSE</ntsc>
            </rate>
            <media>
              <video>
                <track>
                  <clipitem frameBlend="FALSE" id="clipitem-371">
                    <name>Scene - LJ visemes.368.png</name>
                    <masterclipid>masterclip-370</masterclipid>
                    <rate>
                      <timebase>24</timebase>
                      <ntsc>FALSE</ntsc>
                    </rate>
                    <alphatype>straight</alphatype>
                    <pixelaspectratio>square</pixelaspectratio>
                    <anamorphic>FALSE</anamorphic>
                    <file id="file-370">
                      <name>Scene - LJ visemes.368.png</name>
                      <pathurl>file://localhost/Users/bot/Documents/CREATE/Character Animator/LJ visemes CH2AE/demo/Scene - LJ visemes/Scene - LJ visemes.368.png</pathurl>
                      <rate>
                        <timebase>24</timebase>
                        <ntsc>FALSE</ntsc>
                      </rate>
                      <duration>672</duration>
                      <timecode>
                        <rate>
                          <timebase>24</timebase>
                          <ntsc>FALSE</ntsc>
                        </rate>
                      </timecode>
                      <media>
                        <video>
                          <duration>1</duration>
                          <samplecharacteristics>
                            <anamorphic>FALSE</anamorphic>
                            <pixelaspectratio>square</pixelaspectratio>
                            <fielddominance>none</fielddominance>
                            <width>1920</width>
                            <height>1080</height>
                          </samplecharacteristics>
                        </video>
                      </media>
                    </file>
                  </clipitem>
                </track>
              </video>
            </media>
          </clip>
          <clip explodedTracks="true" frameBlend="FALSE" id="masterclip-371">
            <uuid>f3db0dcc-f795-4adc-b149-39902f7b48b2</uuid>
            <masterclipid>masterclip-371</masterclipid>
            <ismasterclip>TRUE</ismasterclip>
            <duration>672</duration>
            <in>0</in>
            <out>672</out>
            <name>Scene - LJ visemes.369.png</name>
            <rate>
              <timebase>24</timebase>
              <ntsc>FALSE</ntsc>
            </rate>
            <media>
              <video>
                <track>
                  <clipitem frameBlend="FALSE" id="clipitem-372">
                    <name>Scene - LJ visemes.369.png</name>
                    <masterclipid>masterclip-371</masterclipid>
                    <rate>
                      <timebase>24</timebase>
                      <ntsc>FALSE</ntsc>
                    </rate>
                    <alphatype>straight</alphatype>
                    <pixelaspectratio>square</pixelaspectratio>
                    <anamorphic>FALSE</anamorphic>
                    <file id="file-371">
                      <name>Scene - LJ visemes.369.png</name>
                      <pathurl>file://localhost/Users/bot/Documents/CREATE/Character Animator/LJ visemes CH2AE/demo/Scene - LJ visemes/Scene - LJ visemes.369.png</pathurl>
                      <rate>
                        <timebase>24</timebase>
                        <ntsc>FALSE</ntsc>
                      </rate>
                      <duration>672</duration>
                      <timecode>
                        <rate>
                          <timebase>24</timebase>
                          <ntsc>FALSE</ntsc>
                        </rate>
                      </timecode>
                      <media>
                        <video>
                          <duration>1</duration>
                          <samplecharacteristics>
                            <anamorphic>FALSE</anamorphic>
                            <pixelaspectratio>square</pixelaspectratio>
                            <fielddominance>none</fielddominance>
                            <width>1920</width>
                            <height>1080</height>
                          </samplecharacteristics>
                        </video>
                      </media>
                    </file>
                  </clipitem>
                </track>
              </video>
            </media>
          </clip>
          <clip explodedTracks="true" frameBlend="FALSE" id="masterclip-372">
            <uuid>d0f1572b-d964-4e14-a107-10315f6a8987</uuid>
            <masterclipid>masterclip-372</masterclipid>
            <ismasterclip>TRUE</ismasterclip>
            <duration>672</duration>
            <in>0</in>
            <out>672</out>
            <name>Scene - LJ visemes.370.png</name>
            <rate>
              <timebase>24</timebase>
              <ntsc>FALSE</ntsc>
            </rate>
            <media>
              <video>
                <track>
                  <clipitem frameBlend="FALSE" id="clipitem-373">
                    <name>Scene - LJ visemes.370.png</name>
                    <masterclipid>masterclip-372</masterclipid>
                    <rate>
                      <timebase>24</timebase>
                      <ntsc>FALSE</ntsc>
                    </rate>
                    <alphatype>straight</alphatype>
                    <pixelaspectratio>square</pixelaspectratio>
                    <anamorphic>FALSE</anamorphic>
                    <file id="file-372">
                      <name>Scene - LJ visemes.370.png</name>
                      <pathurl>file://localhost/Users/bot/Documents/CREATE/Character Animator/LJ visemes CH2AE/demo/Scene - LJ visemes/Scene - LJ visemes.370.png</pathurl>
                      <rate>
                        <timebase>24</timebase>
                        <ntsc>FALSE</ntsc>
                      </rate>
                      <duration>672</duration>
                      <timecode>
                        <rate>
                          <timebase>24</timebase>
                          <ntsc>FALSE</ntsc>
                        </rate>
                      </timecode>
                      <media>
                        <video>
                          <duration>1</duration>
                          <samplecharacteristics>
                            <anamorphic>FALSE</anamorphic>
                            <pixelaspectratio>square</pixelaspectratio>
                            <fielddominance>none</fielddominance>
                            <width>1920</width>
                            <height>1080</height>
                          </samplecharacteristics>
                        </video>
                      </media>
                    </file>
                  </clipitem>
                </track>
              </video>
            </media>
          </clip>
          <clip explodedTracks="true" frameBlend="FALSE" id="masterclip-373">
            <uuid>b9d1856a-4164-4bf7-839a-6a275ea22f1e</uuid>
            <masterclipid>masterclip-373</masterclipid>
            <ismasterclip>TRUE</ismasterclip>
            <duration>672</duration>
            <in>0</in>
            <out>672</out>
            <name>Scene - LJ visemes.371.png</name>
            <rate>
              <timebase>24</timebase>
              <ntsc>FALSE</ntsc>
            </rate>
            <media>
              <video>
                <track>
                  <clipitem frameBlend="FALSE" id="clipitem-374">
                    <name>Scene - LJ visemes.371.png</name>
                    <masterclipid>masterclip-373</masterclipid>
                    <rate>
                      <timebase>24</timebase>
                      <ntsc>FALSE</ntsc>
                    </rate>
                    <alphatype>straight</alphatype>
                    <pixelaspectratio>square</pixelaspectratio>
                    <anamorphic>FALSE</anamorphic>
                    <file id="file-373">
                      <name>Scene - LJ visemes.371.png</name>
                      <pathurl>file://localhost/Users/bot/Documents/CREATE/Character Animator/LJ visemes CH2AE/demo/Scene - LJ visemes/Scene - LJ visemes.371.png</pathurl>
                      <rate>
                        <timebase>24</timebase>
                        <ntsc>FALSE</ntsc>
                      </rate>
                      <duration>672</duration>
                      <timecode>
                        <rate>
                          <timebase>24</timebase>
                          <ntsc>FALSE</ntsc>
                        </rate>
                      </timecode>
                      <media>
                        <video>
                          <duration>1</duration>
                          <samplecharacteristics>
                            <anamorphic>FALSE</anamorphic>
                            <pixelaspectratio>square</pixelaspectratio>
                            <fielddominance>none</fielddominance>
                            <width>1920</width>
                            <height>1080</height>
                          </samplecharacteristics>
                        </video>
                      </media>
                    </file>
                  </clipitem>
                </track>
              </video>
            </media>
          </clip>
          <clip explodedTracks="true" frameBlend="FALSE" id="masterclip-374">
            <uuid>b3194a41-b5fb-444e-b75c-7607d0528f16</uuid>
            <masterclipid>masterclip-374</masterclipid>
            <ismasterclip>TRUE</ismasterclip>
            <duration>672</duration>
            <in>0</in>
            <out>672</out>
            <name>Scene - LJ visemes.372.png</name>
            <rate>
              <timebase>24</timebase>
              <ntsc>FALSE</ntsc>
            </rate>
            <media>
              <video>
                <track>
                  <clipitem frameBlend="FALSE" id="clipitem-375">
                    <name>Scene - LJ visemes.372.png</name>
                    <masterclipid>masterclip-374</masterclipid>
                    <rate>
                      <timebase>24</timebase>
                      <ntsc>FALSE</ntsc>
                    </rate>
                    <alphatype>straight</alphatype>
                    <pixelaspectratio>square</pixelaspectratio>
                    <anamorphic>FALSE</anamorphic>
                    <file id="file-374">
                      <name>Scene - LJ visemes.372.png</name>
                      <pathurl>file://localhost/Users/bot/Documents/CREATE/Character Animator/LJ visemes CH2AE/demo/Scene - LJ visemes/Scene - LJ visemes.372.png</pathurl>
                      <rate>
                        <timebase>24</timebase>
                        <ntsc>FALSE</ntsc>
                      </rate>
                      <duration>672</duration>
                      <timecode>
                        <rate>
                          <timebase>24</timebase>
                          <ntsc>FALSE</ntsc>
                        </rate>
                      </timecode>
                      <media>
                        <video>
                          <duration>1</duration>
                          <samplecharacteristics>
                            <anamorphic>FALSE</anamorphic>
                            <pixelaspectratio>square</pixelaspectratio>
                            <fielddominance>none</fielddominance>
                            <width>1920</width>
                            <height>1080</height>
                          </samplecharacteristics>
                        </video>
                      </media>
                    </file>
                  </clipitem>
                </track>
              </video>
            </media>
          </clip>
          <clip explodedTracks="true" frameBlend="FALSE" id="masterclip-375">
            <uuid>390266e5-de35-4ab0-997b-989e381cd777</uuid>
            <masterclipid>masterclip-375</masterclipid>
            <ismasterclip>TRUE</ismasterclip>
            <duration>672</duration>
            <in>0</in>
            <out>672</out>
            <name>Scene - LJ visemes.373.png</name>
            <rate>
              <timebase>24</timebase>
              <ntsc>FALSE</ntsc>
            </rate>
            <media>
              <video>
                <track>
                  <clipitem frameBlend="FALSE" id="clipitem-376">
                    <name>Scene - LJ visemes.373.png</name>
                    <masterclipid>masterclip-375</masterclipid>
                    <rate>
                      <timebase>24</timebase>
                      <ntsc>FALSE</ntsc>
                    </rate>
                    <alphatype>straight</alphatype>
                    <pixelaspectratio>square</pixelaspectratio>
                    <anamorphic>FALSE</anamorphic>
                    <file id="file-375">
                      <name>Scene - LJ visemes.373.png</name>
                      <pathurl>file://localhost/Users/bot/Documents/CREATE/Character Animator/LJ visemes CH2AE/demo/Scene - LJ visemes/Scene - LJ visemes.373.png</pathurl>
                      <rate>
                        <timebase>24</timebase>
                        <ntsc>FALSE</ntsc>
                      </rate>
                      <duration>672</duration>
                      <timecode>
                        <rate>
                          <timebase>24</timebase>
                          <ntsc>FALSE</ntsc>
                        </rate>
                      </timecode>
                      <media>
                        <video>
                          <duration>1</duration>
                          <samplecharacteristics>
                            <anamorphic>FALSE</anamorphic>
                            <pixelaspectratio>square</pixelaspectratio>
                            <fielddominance>none</fielddominance>
                            <width>1920</width>
                            <height>1080</height>
                          </samplecharacteristics>
                        </video>
                      </media>
                    </file>
                  </clipitem>
                </track>
              </video>
            </media>
          </clip>
          <clip explodedTracks="true" frameBlend="FALSE" id="masterclip-376">
            <uuid>5072a72c-0dd3-492c-8d1a-c72484e664c8</uuid>
            <masterclipid>masterclip-376</masterclipid>
            <ismasterclip>TRUE</ismasterclip>
            <duration>672</duration>
            <in>0</in>
            <out>672</out>
            <name>Scene - LJ visemes.374.png</name>
            <rate>
              <timebase>24</timebase>
              <ntsc>FALSE</ntsc>
            </rate>
            <media>
              <video>
                <track>
                  <clipitem frameBlend="FALSE" id="clipitem-377">
                    <name>Scene - LJ visemes.374.png</name>
                    <masterclipid>masterclip-376</masterclipid>
                    <rate>
                      <timebase>24</timebase>
                      <ntsc>FALSE</ntsc>
                    </rate>
                    <alphatype>straight</alphatype>
                    <pixelaspectratio>square</pixelaspectratio>
                    <anamorphic>FALSE</anamorphic>
                    <file id="file-376">
                      <name>Scene - LJ visemes.374.png</name>
                      <pathurl>file://localhost/Users/bot/Documents/CREATE/Character Animator/LJ visemes CH2AE/demo/Scene - LJ visemes/Scene - LJ visemes.374.png</pathurl>
                      <rate>
                        <timebase>24</timebase>
                        <ntsc>FALSE</ntsc>
                      </rate>
                      <duration>672</duration>
                      <timecode>
                        <rate>
                          <timebase>24</timebase>
                          <ntsc>FALSE</ntsc>
                        </rate>
                      </timecode>
                      <media>
                        <video>
                          <duration>1</duration>
                          <samplecharacteristics>
                            <anamorphic>FALSE</anamorphic>
                            <pixelaspectratio>square</pixelaspectratio>
                            <fielddominance>none</fielddominance>
                            <width>1920</width>
                            <height>1080</height>
                          </samplecharacteristics>
                        </video>
                      </media>
                    </file>
                  </clipitem>
                </track>
              </video>
            </media>
          </clip>
          <clip explodedTracks="true" frameBlend="FALSE" id="masterclip-377">
            <uuid>b62336e7-a96f-4ac3-b138-b58eb633eca6</uuid>
            <masterclipid>masterclip-377</masterclipid>
            <ismasterclip>TRUE</ismasterclip>
            <duration>672</duration>
            <in>0</in>
            <out>672</out>
            <name>Scene - LJ visemes.375.png</name>
            <rate>
              <timebase>24</timebase>
              <ntsc>FALSE</ntsc>
            </rate>
            <media>
              <video>
                <track>
                  <clipitem frameBlend="FALSE" id="clipitem-378">
                    <name>Scene - LJ visemes.375.png</name>
                    <masterclipid>masterclip-377</masterclipid>
                    <rate>
                      <timebase>24</timebase>
                      <ntsc>FALSE</ntsc>
                    </rate>
                    <alphatype>straight</alphatype>
                    <pixelaspectratio>square</pixelaspectratio>
                    <anamorphic>FALSE</anamorphic>
                    <file id="file-377">
                      <name>Scene - LJ visemes.375.png</name>
                      <pathurl>file://localhost/Users/bot/Documents/CREATE/Character Animator/LJ visemes CH2AE/demo/Scene - LJ visemes/Scene - LJ visemes.375.png</pathurl>
                      <rate>
                        <timebase>24</timebase>
                        <ntsc>FALSE</ntsc>
                      </rate>
                      <duration>672</duration>
                      <timecode>
                        <rate>
                          <timebase>24</timebase>
                          <ntsc>FALSE</ntsc>
                        </rate>
                      </timecode>
                      <media>
                        <video>
                          <duration>1</duration>
                          <samplecharacteristics>
                            <anamorphic>FALSE</anamorphic>
                            <pixelaspectratio>square</pixelaspectratio>
                            <fielddominance>none</fielddominance>
                            <width>1920</width>
                            <height>1080</height>
                          </samplecharacteristics>
                        </video>
                      </media>
                    </file>
                  </clipitem>
                </track>
              </video>
            </media>
          </clip>
          <clip explodedTracks="true" frameBlend="FALSE" id="masterclip-378">
            <uuid>a89dedbe-4e68-4578-8bc2-fe25e9b1cdb1</uuid>
            <masterclipid>masterclip-378</masterclipid>
            <ismasterclip>TRUE</ismasterclip>
            <duration>672</duration>
            <in>0</in>
            <out>672</out>
            <name>Scene - LJ visemes.376.png</name>
            <rate>
              <timebase>24</timebase>
              <ntsc>FALSE</ntsc>
            </rate>
            <media>
              <video>
                <track>
                  <clipitem frameBlend="FALSE" id="clipitem-379">
                    <name>Scene - LJ visemes.376.png</name>
                    <masterclipid>masterclip-378</masterclipid>
                    <rate>
                      <timebase>24</timebase>
                      <ntsc>FALSE</ntsc>
                    </rate>
                    <alphatype>straight</alphatype>
                    <pixelaspectratio>square</pixelaspectratio>
                    <anamorphic>FALSE</anamorphic>
                    <file id="file-378">
                      <name>Scene - LJ visemes.376.png</name>
                      <pathurl>file://localhost/Users/bot/Documents/CREATE/Character Animator/LJ visemes CH2AE/demo/Scene - LJ visemes/Scene - LJ visemes.376.png</pathurl>
                      <rate>
                        <timebase>24</timebase>
                        <ntsc>FALSE</ntsc>
                      </rate>
                      <duration>672</duration>
                      <timecode>
                        <rate>
                          <timebase>24</timebase>
                          <ntsc>FALSE</ntsc>
                        </rate>
                      </timecode>
                      <media>
                        <video>
                          <duration>1</duration>
                          <samplecharacteristics>
                            <anamorphic>FALSE</anamorphic>
                            <pixelaspectratio>square</pixelaspectratio>
                            <fielddominance>none</fielddominance>
                            <width>1920</width>
                            <height>1080</height>
                          </samplecharacteristics>
                        </video>
                      </media>
                    </file>
                  </clipitem>
                </track>
              </video>
            </media>
          </clip>
          <clip explodedTracks="true" frameBlend="FALSE" id="masterclip-379">
            <uuid>f47a022a-aa9d-4257-b54b-32caecb59097</uuid>
            <masterclipid>masterclip-379</masterclipid>
            <ismasterclip>TRUE</ismasterclip>
            <duration>672</duration>
            <in>0</in>
            <out>672</out>
            <name>Scene - LJ visemes.377.png</name>
            <rate>
              <timebase>24</timebase>
              <ntsc>FALSE</ntsc>
            </rate>
            <media>
              <video>
                <track>
                  <clipitem frameBlend="FALSE" id="clipitem-380">
                    <name>Scene - LJ visemes.377.png</name>
                    <masterclipid>masterclip-379</masterclipid>
                    <rate>
                      <timebase>24</timebase>
                      <ntsc>FALSE</ntsc>
                    </rate>
                    <alphatype>straight</alphatype>
                    <pixelaspectratio>square</pixelaspectratio>
                    <anamorphic>FALSE</anamorphic>
                    <file id="file-379">
                      <name>Scene - LJ visemes.377.png</name>
                      <pathurl>file://localhost/Users/bot/Documents/CREATE/Character Animator/LJ visemes CH2AE/demo/Scene - LJ visemes/Scene - LJ visemes.377.png</pathurl>
                      <rate>
                        <timebase>24</timebase>
                        <ntsc>FALSE</ntsc>
                      </rate>
                      <duration>672</duration>
                      <timecode>
                        <rate>
                          <timebase>24</timebase>
                          <ntsc>FALSE</ntsc>
                        </rate>
                      </timecode>
                      <media>
                        <video>
                          <duration>1</duration>
                          <samplecharacteristics>
                            <anamorphic>FALSE</anamorphic>
                            <pixelaspectratio>square</pixelaspectratio>
                            <fielddominance>none</fielddominance>
                            <width>1920</width>
                            <height>1080</height>
                          </samplecharacteristics>
                        </video>
                      </media>
                    </file>
                  </clipitem>
                </track>
              </video>
            </media>
          </clip>
          <clip explodedTracks="true" frameBlend="FALSE" id="masterclip-380">
            <uuid>c1f0f2c4-fb2d-4303-860e-7aa203111728</uuid>
            <masterclipid>masterclip-380</masterclipid>
            <ismasterclip>TRUE</ismasterclip>
            <duration>672</duration>
            <in>0</in>
            <out>672</out>
            <name>Scene - LJ visemes.378.png</name>
            <rate>
              <timebase>24</timebase>
              <ntsc>FALSE</ntsc>
            </rate>
            <media>
              <video>
                <track>
                  <clipitem frameBlend="FALSE" id="clipitem-381">
                    <name>Scene - LJ visemes.378.png</name>
                    <masterclipid>masterclip-380</masterclipid>
                    <rate>
                      <timebase>24</timebase>
                      <ntsc>FALSE</ntsc>
                    </rate>
                    <alphatype>straight</alphatype>
                    <pixelaspectratio>square</pixelaspectratio>
                    <anamorphic>FALSE</anamorphic>
                    <file id="file-380">
                      <name>Scene - LJ visemes.378.png</name>
                      <pathurl>file://localhost/Users/bot/Documents/CREATE/Character Animator/LJ visemes CH2AE/demo/Scene - LJ visemes/Scene - LJ visemes.378.png</pathurl>
                      <rate>
                        <timebase>24</timebase>
                        <ntsc>FALSE</ntsc>
                      </rate>
                      <duration>672</duration>
                      <timecode>
                        <rate>
                          <timebase>24</timebase>
                          <ntsc>FALSE</ntsc>
                        </rate>
                      </timecode>
                      <media>
                        <video>
                          <duration>1</duration>
                          <samplecharacteristics>
                            <anamorphic>FALSE</anamorphic>
                            <pixelaspectratio>square</pixelaspectratio>
                            <fielddominance>none</fielddominance>
                            <width>1920</width>
                            <height>1080</height>
                          </samplecharacteristics>
                        </video>
                      </media>
                    </file>
                  </clipitem>
                </track>
              </video>
            </media>
          </clip>
          <clip explodedTracks="true" frameBlend="FALSE" id="masterclip-381">
            <uuid>588cb5d2-c501-4d65-a104-092f47a948f4</uuid>
            <masterclipid>masterclip-381</masterclipid>
            <ismasterclip>TRUE</ismasterclip>
            <duration>672</duration>
            <in>0</in>
            <out>672</out>
            <name>Scene - LJ visemes.379.png</name>
            <rate>
              <timebase>24</timebase>
              <ntsc>FALSE</ntsc>
            </rate>
            <media>
              <video>
                <track>
                  <clipitem frameBlend="FALSE" id="clipitem-382">
                    <name>Scene - LJ visemes.379.png</name>
                    <masterclipid>masterclip-381</masterclipid>
                    <rate>
                      <timebase>24</timebase>
                      <ntsc>FALSE</ntsc>
                    </rate>
                    <alphatype>straight</alphatype>
                    <pixelaspectratio>square</pixelaspectratio>
                    <anamorphic>FALSE</anamorphic>
                    <file id="file-381">
                      <name>Scene - LJ visemes.379.png</name>
                      <pathurl>file://localhost/Users/bot/Documents/CREATE/Character Animator/LJ visemes CH2AE/demo/Scene - LJ visemes/Scene - LJ visemes.379.png</pathurl>
                      <rate>
                        <timebase>24</timebase>
                        <ntsc>FALSE</ntsc>
                      </rate>
                      <duration>672</duration>
                      <timecode>
                        <rate>
                          <timebase>24</timebase>
                          <ntsc>FALSE</ntsc>
                        </rate>
                      </timecode>
                      <media>
                        <video>
                          <duration>1</duration>
                          <samplecharacteristics>
                            <anamorphic>FALSE</anamorphic>
                            <pixelaspectratio>square</pixelaspectratio>
                            <fielddominance>none</fielddominance>
                            <width>1920</width>
                            <height>1080</height>
                          </samplecharacteristics>
                        </video>
                      </media>
                    </file>
                  </clipitem>
                </track>
              </video>
            </media>
          </clip>
          <clip explodedTracks="true" frameBlend="FALSE" id="masterclip-382">
            <uuid>5408dca8-edb8-4547-9ae6-590f03cad4a2</uuid>
            <masterclipid>masterclip-382</masterclipid>
            <ismasterclip>TRUE</ismasterclip>
            <duration>672</duration>
            <in>0</in>
            <out>672</out>
            <name>Scene - LJ visemes.380.png</name>
            <rate>
              <timebase>24</timebase>
              <ntsc>FALSE</ntsc>
            </rate>
            <media>
              <video>
                <track>
                  <clipitem frameBlend="FALSE" id="clipitem-383">
                    <name>Scene - LJ visemes.380.png</name>
                    <masterclipid>masterclip-382</masterclipid>
                    <rate>
                      <timebase>24</timebase>
                      <ntsc>FALSE</ntsc>
                    </rate>
                    <alphatype>straight</alphatype>
                    <pixelaspectratio>square</pixelaspectratio>
                    <anamorphic>FALSE</anamorphic>
                    <file id="file-382">
                      <name>Scene - LJ visemes.380.png</name>
                      <pathurl>file://localhost/Users/bot/Documents/CREATE/Character Animator/LJ visemes CH2AE/demo/Scene - LJ visemes/Scene - LJ visemes.380.png</pathurl>
                      <rate>
                        <timebase>24</timebase>
                        <ntsc>FALSE</ntsc>
                      </rate>
                      <duration>672</duration>
                      <timecode>
                        <rate>
                          <timebase>24</timebase>
                          <ntsc>FALSE</ntsc>
                        </rate>
                      </timecode>
                      <media>
                        <video>
                          <duration>1</duration>
                          <samplecharacteristics>
                            <anamorphic>FALSE</anamorphic>
                            <pixelaspectratio>square</pixelaspectratio>
                            <fielddominance>none</fielddominance>
                            <width>1920</width>
                            <height>1080</height>
                          </samplecharacteristics>
                        </video>
                      </media>
                    </file>
                  </clipitem>
                </track>
              </video>
            </media>
          </clip>
          <clip explodedTracks="true" frameBlend="FALSE" id="masterclip-383">
            <uuid>b1f855a9-6b07-45e2-96f2-184f1f0df243</uuid>
            <masterclipid>masterclip-383</masterclipid>
            <ismasterclip>TRUE</ismasterclip>
            <duration>672</duration>
            <in>0</in>
            <out>672</out>
            <name>Scene - LJ visemes.381.png</name>
            <rate>
              <timebase>24</timebase>
              <ntsc>FALSE</ntsc>
            </rate>
            <media>
              <video>
                <track>
                  <clipitem frameBlend="FALSE" id="clipitem-384">
                    <name>Scene - LJ visemes.381.png</name>
                    <masterclipid>masterclip-383</masterclipid>
                    <rate>
                      <timebase>24</timebase>
                      <ntsc>FALSE</ntsc>
                    </rate>
                    <alphatype>straight</alphatype>
                    <pixelaspectratio>square</pixelaspectratio>
                    <anamorphic>FALSE</anamorphic>
                    <file id="file-383">
                      <name>Scene - LJ visemes.381.png</name>
                      <pathurl>file://localhost/Users/bot/Documents/CREATE/Character Animator/LJ visemes CH2AE/demo/Scene - LJ visemes/Scene - LJ visemes.381.png</pathurl>
                      <rate>
                        <timebase>24</timebase>
                        <ntsc>FALSE</ntsc>
                      </rate>
                      <duration>672</duration>
                      <timecode>
                        <rate>
                          <timebase>24</timebase>
                          <ntsc>FALSE</ntsc>
                        </rate>
                      </timecode>
                      <media>
                        <video>
                          <duration>1</duration>
                          <samplecharacteristics>
                            <anamorphic>FALSE</anamorphic>
                            <pixelaspectratio>square</pixelaspectratio>
                            <fielddominance>none</fielddominance>
                            <width>1920</width>
                            <height>1080</height>
                          </samplecharacteristics>
                        </video>
                      </media>
                    </file>
                  </clipitem>
                </track>
              </video>
            </media>
          </clip>
          <clip explodedTracks="true" frameBlend="FALSE" id="masterclip-384">
            <uuid>f20ae385-fbcc-4eeb-a090-d0fb958c07f3</uuid>
            <masterclipid>masterclip-384</masterclipid>
            <ismasterclip>TRUE</ismasterclip>
            <duration>672</duration>
            <in>0</in>
            <out>672</out>
            <name>Scene - LJ visemes.382.png</name>
            <rate>
              <timebase>24</timebase>
              <ntsc>FALSE</ntsc>
            </rate>
            <media>
              <video>
                <track>
                  <clipitem frameBlend="FALSE" id="clipitem-385">
                    <name>Scene - LJ visemes.382.png</name>
                    <masterclipid>masterclip-384</masterclipid>
                    <rate>
                      <timebase>24</timebase>
                      <ntsc>FALSE</ntsc>
                    </rate>
                    <alphatype>straight</alphatype>
                    <pixelaspectratio>square</pixelaspectratio>
                    <anamorphic>FALSE</anamorphic>
                    <file id="file-384">
                      <name>Scene - LJ visemes.382.png</name>
                      <pathurl>file://localhost/Users/bot/Documents/CREATE/Character Animator/LJ visemes CH2AE/demo/Scene - LJ visemes/Scene - LJ visemes.382.png</pathurl>
                      <rate>
                        <timebase>24</timebase>
                        <ntsc>FALSE</ntsc>
                      </rate>
                      <duration>672</duration>
                      <timecode>
                        <rate>
                          <timebase>24</timebase>
                          <ntsc>FALSE</ntsc>
                        </rate>
                      </timecode>
                      <media>
                        <video>
                          <duration>1</duration>
                          <samplecharacteristics>
                            <anamorphic>FALSE</anamorphic>
                            <pixelaspectratio>square</pixelaspectratio>
                            <fielddominance>none</fielddominance>
                            <width>1920</width>
                            <height>1080</height>
                          </samplecharacteristics>
                        </video>
                      </media>
                    </file>
                  </clipitem>
                </track>
              </video>
            </media>
          </clip>
          <clip explodedTracks="true" frameBlend="FALSE" id="masterclip-385">
            <uuid>505d1f91-b8ce-4d84-bf89-3dbcdec1ac5f</uuid>
            <masterclipid>masterclip-385</masterclipid>
            <ismasterclip>TRUE</ismasterclip>
            <duration>672</duration>
            <in>0</in>
            <out>672</out>
            <name>Scene - LJ visemes.383.png</name>
            <rate>
              <timebase>24</timebase>
              <ntsc>FALSE</ntsc>
            </rate>
            <media>
              <video>
                <track>
                  <clipitem frameBlend="FALSE" id="clipitem-386">
                    <name>Scene - LJ visemes.383.png</name>
                    <masterclipid>masterclip-385</masterclipid>
                    <rate>
                      <timebase>24</timebase>
                      <ntsc>FALSE</ntsc>
                    </rate>
                    <alphatype>straight</alphatype>
                    <pixelaspectratio>square</pixelaspectratio>
                    <anamorphic>FALSE</anamorphic>
                    <file id="file-385">
                      <name>Scene - LJ visemes.383.png</name>
                      <pathurl>file://localhost/Users/bot/Documents/CREATE/Character Animator/LJ visemes CH2AE/demo/Scene - LJ visemes/Scene - LJ visemes.383.png</pathurl>
                      <rate>
                        <timebase>24</timebase>
                        <ntsc>FALSE</ntsc>
                      </rate>
                      <duration>672</duration>
                      <timecode>
                        <rate>
                          <timebase>24</timebase>
                          <ntsc>FALSE</ntsc>
                        </rate>
                      </timecode>
                      <media>
                        <video>
                          <duration>1</duration>
                          <samplecharacteristics>
                            <anamorphic>FALSE</anamorphic>
                            <pixelaspectratio>square</pixelaspectratio>
                            <fielddominance>none</fielddominance>
                            <width>1920</width>
                            <height>1080</height>
                          </samplecharacteristics>
                        </video>
                      </media>
                    </file>
                  </clipitem>
                </track>
              </video>
            </media>
          </clip>
          <clip explodedTracks="true" frameBlend="FALSE" id="masterclip-386">
            <uuid>7d1ce75c-6058-4929-82cc-afa8000c95f5</uuid>
            <masterclipid>masterclip-386</masterclipid>
            <ismasterclip>TRUE</ismasterclip>
            <duration>672</duration>
            <in>0</in>
            <out>672</out>
            <name>Scene - LJ visemes.384.png</name>
            <rate>
              <timebase>24</timebase>
              <ntsc>FALSE</ntsc>
            </rate>
            <media>
              <video>
                <track>
                  <clipitem frameBlend="FALSE" id="clipitem-387">
                    <name>Scene - LJ visemes.384.png</name>
                    <masterclipid>masterclip-386</masterclipid>
                    <rate>
                      <timebase>24</timebase>
                      <ntsc>FALSE</ntsc>
                    </rate>
                    <alphatype>straight</alphatype>
                    <pixelaspectratio>square</pixelaspectratio>
                    <anamorphic>FALSE</anamorphic>
                    <file id="file-386">
                      <name>Scene - LJ visemes.384.png</name>
                      <pathurl>file://localhost/Users/bot/Documents/CREATE/Character Animator/LJ visemes CH2AE/demo/Scene - LJ visemes/Scene - LJ visemes.384.png</pathurl>
                      <rate>
                        <timebase>24</timebase>
                        <ntsc>FALSE</ntsc>
                      </rate>
                      <duration>672</duration>
                      <timecode>
                        <rate>
                          <timebase>24</timebase>
                          <ntsc>FALSE</ntsc>
                        </rate>
                      </timecode>
                      <media>
                        <video>
                          <duration>1</duration>
                          <samplecharacteristics>
                            <anamorphic>FALSE</anamorphic>
                            <pixelaspectratio>square</pixelaspectratio>
                            <fielddominance>none</fielddominance>
                            <width>1920</width>
                            <height>1080</height>
                          </samplecharacteristics>
                        </video>
                      </media>
                    </file>
                  </clipitem>
                </track>
              </video>
            </media>
          </clip>
          <clip explodedTracks="true" frameBlend="FALSE" id="masterclip-387">
            <uuid>66aeb785-2cf7-44f9-b29a-fbeb1195ba11</uuid>
            <masterclipid>masterclip-387</masterclipid>
            <ismasterclip>TRUE</ismasterclip>
            <duration>672</duration>
            <in>0</in>
            <out>672</out>
            <name>Scene - LJ visemes.385.png</name>
            <rate>
              <timebase>24</timebase>
              <ntsc>FALSE</ntsc>
            </rate>
            <media>
              <video>
                <track>
                  <clipitem frameBlend="FALSE" id="clipitem-388">
                    <name>Scene - LJ visemes.385.png</name>
                    <masterclipid>masterclip-387</masterclipid>
                    <rate>
                      <timebase>24</timebase>
                      <ntsc>FALSE</ntsc>
                    </rate>
                    <alphatype>straight</alphatype>
                    <pixelaspectratio>square</pixelaspectratio>
                    <anamorphic>FALSE</anamorphic>
                    <file id="file-387">
                      <name>Scene - LJ visemes.385.png</name>
                      <pathurl>file://localhost/Users/bot/Documents/CREATE/Character Animator/LJ visemes CH2AE/demo/Scene - LJ visemes/Scene - LJ visemes.385.png</pathurl>
                      <rate>
                        <timebase>24</timebase>
                        <ntsc>FALSE</ntsc>
                      </rate>
                      <duration>672</duration>
                      <timecode>
                        <rate>
                          <timebase>24</timebase>
                          <ntsc>FALSE</ntsc>
                        </rate>
                      </timecode>
                      <media>
                        <video>
                          <duration>1</duration>
                          <samplecharacteristics>
                            <anamorphic>FALSE</anamorphic>
                            <pixelaspectratio>square</pixelaspectratio>
                            <fielddominance>none</fielddominance>
                            <width>1920</width>
                            <height>1080</height>
                          </samplecharacteristics>
                        </video>
                      </media>
                    </file>
                  </clipitem>
                </track>
              </video>
            </media>
          </clip>
          <clip explodedTracks="true" frameBlend="FALSE" id="masterclip-388">
            <uuid>4514c173-5bb6-4406-b226-66b277d6da24</uuid>
            <masterclipid>masterclip-388</masterclipid>
            <ismasterclip>TRUE</ismasterclip>
            <duration>672</duration>
            <in>0</in>
            <out>672</out>
            <name>Scene - LJ visemes.386.png</name>
            <rate>
              <timebase>24</timebase>
              <ntsc>FALSE</ntsc>
            </rate>
            <media>
              <video>
                <track>
                  <clipitem frameBlend="FALSE" id="clipitem-389">
                    <name>Scene - LJ visemes.386.png</name>
                    <masterclipid>masterclip-388</masterclipid>
                    <rate>
                      <timebase>24</timebase>
                      <ntsc>FALSE</ntsc>
                    </rate>
                    <alphatype>straight</alphatype>
                    <pixelaspectratio>square</pixelaspectratio>
                    <anamorphic>FALSE</anamorphic>
                    <file id="file-388">
                      <name>Scene - LJ visemes.386.png</name>
                      <pathurl>file://localhost/Users/bot/Documents/CREATE/Character Animator/LJ visemes CH2AE/demo/Scene - LJ visemes/Scene - LJ visemes.386.png</pathurl>
                      <rate>
                        <timebase>24</timebase>
                        <ntsc>FALSE</ntsc>
                      </rate>
                      <duration>672</duration>
                      <timecode>
                        <rate>
                          <timebase>24</timebase>
                          <ntsc>FALSE</ntsc>
                        </rate>
                      </timecode>
                      <media>
                        <video>
                          <duration>1</duration>
                          <samplecharacteristics>
                            <anamorphic>FALSE</anamorphic>
                            <pixelaspectratio>square</pixelaspectratio>
                            <fielddominance>none</fielddominance>
                            <width>1920</width>
                            <height>1080</height>
                          </samplecharacteristics>
                        </video>
                      </media>
                    </file>
                  </clipitem>
                </track>
              </video>
            </media>
          </clip>
          <clip explodedTracks="true" frameBlend="FALSE" id="masterclip-389">
            <uuid>c9b37025-e2c3-439d-8dbb-b6203076d70b</uuid>
            <masterclipid>masterclip-389</masterclipid>
            <ismasterclip>TRUE</ismasterclip>
            <duration>672</duration>
            <in>0</in>
            <out>672</out>
            <name>Scene - LJ visemes.387.png</name>
            <rate>
              <timebase>24</timebase>
              <ntsc>FALSE</ntsc>
            </rate>
            <media>
              <video>
                <track>
                  <clipitem frameBlend="FALSE" id="clipitem-390">
                    <name>Scene - LJ visemes.387.png</name>
                    <masterclipid>masterclip-389</masterclipid>
                    <rate>
                      <timebase>24</timebase>
                      <ntsc>FALSE</ntsc>
                    </rate>
                    <alphatype>straight</alphatype>
                    <pixelaspectratio>square</pixelaspectratio>
                    <anamorphic>FALSE</anamorphic>
                    <file id="file-389">
                      <name>Scene - LJ visemes.387.png</name>
                      <pathurl>file://localhost/Users/bot/Documents/CREATE/Character Animator/LJ visemes CH2AE/demo/Scene - LJ visemes/Scene - LJ visemes.387.png</pathurl>
                      <rate>
                        <timebase>24</timebase>
                        <ntsc>FALSE</ntsc>
                      </rate>
                      <duration>672</duration>
                      <timecode>
                        <rate>
                          <timebase>24</timebase>
                          <ntsc>FALSE</ntsc>
                        </rate>
                      </timecode>
                      <media>
                        <video>
                          <duration>1</duration>
                          <samplecharacteristics>
                            <anamorphic>FALSE</anamorphic>
                            <pixelaspectratio>square</pixelaspectratio>
                            <fielddominance>none</fielddominance>
                            <width>1920</width>
                            <height>1080</height>
                          </samplecharacteristics>
                        </video>
                      </media>
                    </file>
                  </clipitem>
                </track>
              </video>
            </media>
          </clip>
          <clip explodedTracks="true" frameBlend="FALSE" id="masterclip-390">
            <uuid>0f218ba9-bafb-41ef-99a3-6f31a86325b1</uuid>
            <masterclipid>masterclip-390</masterclipid>
            <ismasterclip>TRUE</ismasterclip>
            <duration>672</duration>
            <in>0</in>
            <out>672</out>
            <name>Scene - LJ visemes.388.png</name>
            <rate>
              <timebase>24</timebase>
              <ntsc>FALSE</ntsc>
            </rate>
            <media>
              <video>
                <track>
                  <clipitem frameBlend="FALSE" id="clipitem-391">
                    <name>Scene - LJ visemes.388.png</name>
                    <masterclipid>masterclip-390</masterclipid>
                    <rate>
                      <timebase>24</timebase>
                      <ntsc>FALSE</ntsc>
                    </rate>
                    <alphatype>straight</alphatype>
                    <pixelaspectratio>square</pixelaspectratio>
                    <anamorphic>FALSE</anamorphic>
                    <file id="file-390">
                      <name>Scene - LJ visemes.388.png</name>
                      <pathurl>file://localhost/Users/bot/Documents/CREATE/Character Animator/LJ visemes CH2AE/demo/Scene - LJ visemes/Scene - LJ visemes.388.png</pathurl>
                      <rate>
                        <timebase>24</timebase>
                        <ntsc>FALSE</ntsc>
                      </rate>
                      <duration>672</duration>
                      <timecode>
                        <rate>
                          <timebase>24</timebase>
                          <ntsc>FALSE</ntsc>
                        </rate>
                      </timecode>
                      <media>
                        <video>
                          <duration>1</duration>
                          <samplecharacteristics>
                            <anamorphic>FALSE</anamorphic>
                            <pixelaspectratio>square</pixelaspectratio>
                            <fielddominance>none</fielddominance>
                            <width>1920</width>
                            <height>1080</height>
                          </samplecharacteristics>
                        </video>
                      </media>
                    </file>
                  </clipitem>
                </track>
              </video>
            </media>
          </clip>
          <clip explodedTracks="true" frameBlend="FALSE" id="masterclip-391">
            <uuid>dca6ba0e-8276-48d4-8c40-ec6d271a356c</uuid>
            <masterclipid>masterclip-391</masterclipid>
            <ismasterclip>TRUE</ismasterclip>
            <duration>672</duration>
            <in>0</in>
            <out>672</out>
            <name>Scene - LJ visemes.389.png</name>
            <rate>
              <timebase>24</timebase>
              <ntsc>FALSE</ntsc>
            </rate>
            <media>
              <video>
                <track>
                  <clipitem frameBlend="FALSE" id="clipitem-392">
                    <name>Scene - LJ visemes.389.png</name>
                    <masterclipid>masterclip-391</masterclipid>
                    <rate>
                      <timebase>24</timebase>
                      <ntsc>FALSE</ntsc>
                    </rate>
                    <alphatype>straight</alphatype>
                    <pixelaspectratio>square</pixelaspectratio>
                    <anamorphic>FALSE</anamorphic>
                    <file id="file-391">
                      <name>Scene - LJ visemes.389.png</name>
                      <pathurl>file://localhost/Users/bot/Documents/CREATE/Character Animator/LJ visemes CH2AE/demo/Scene - LJ visemes/Scene - LJ visemes.389.png</pathurl>
                      <rate>
                        <timebase>24</timebase>
                        <ntsc>FALSE</ntsc>
                      </rate>
                      <duration>672</duration>
                      <timecode>
                        <rate>
                          <timebase>24</timebase>
                          <ntsc>FALSE</ntsc>
                        </rate>
                      </timecode>
                      <media>
                        <video>
                          <duration>1</duration>
                          <samplecharacteristics>
                            <anamorphic>FALSE</anamorphic>
                            <pixelaspectratio>square</pixelaspectratio>
                            <fielddominance>none</fielddominance>
                            <width>1920</width>
                            <height>1080</height>
                          </samplecharacteristics>
                        </video>
                      </media>
                    </file>
                  </clipitem>
                </track>
              </video>
            </media>
          </clip>
          <clip explodedTracks="true" frameBlend="FALSE" id="masterclip-392">
            <uuid>3633e35d-449d-4387-ae10-ca2232f85b0b</uuid>
            <masterclipid>masterclip-392</masterclipid>
            <ismasterclip>TRUE</ismasterclip>
            <duration>672</duration>
            <in>0</in>
            <out>672</out>
            <name>Scene - LJ visemes.390.png</name>
            <rate>
              <timebase>24</timebase>
              <ntsc>FALSE</ntsc>
            </rate>
            <media>
              <video>
                <track>
                  <clipitem frameBlend="FALSE" id="clipitem-393">
                    <name>Scene - LJ visemes.390.png</name>
                    <masterclipid>masterclip-392</masterclipid>
                    <rate>
                      <timebase>24</timebase>
                      <ntsc>FALSE</ntsc>
                    </rate>
                    <alphatype>straight</alphatype>
                    <pixelaspectratio>square</pixelaspectratio>
                    <anamorphic>FALSE</anamorphic>
                    <file id="file-392">
                      <name>Scene - LJ visemes.390.png</name>
                      <pathurl>file://localhost/Users/bot/Documents/CREATE/Character Animator/LJ visemes CH2AE/demo/Scene - LJ visemes/Scene - LJ visemes.390.png</pathurl>
                      <rate>
                        <timebase>24</timebase>
                        <ntsc>FALSE</ntsc>
                      </rate>
                      <duration>672</duration>
                      <timecode>
                        <rate>
                          <timebase>24</timebase>
                          <ntsc>FALSE</ntsc>
                        </rate>
                      </timecode>
                      <media>
                        <video>
                          <duration>1</duration>
                          <samplecharacteristics>
                            <anamorphic>FALSE</anamorphic>
                            <pixelaspectratio>square</pixelaspectratio>
                            <fielddominance>none</fielddominance>
                            <width>1920</width>
                            <height>1080</height>
                          </samplecharacteristics>
                        </video>
                      </media>
                    </file>
                  </clipitem>
                </track>
              </video>
            </media>
          </clip>
          <clip explodedTracks="true" frameBlend="FALSE" id="masterclip-393">
            <uuid>337d7f6c-dbd1-4935-a683-bc38257dce92</uuid>
            <masterclipid>masterclip-393</masterclipid>
            <ismasterclip>TRUE</ismasterclip>
            <duration>672</duration>
            <in>0</in>
            <out>672</out>
            <name>Scene - LJ visemes.391.png</name>
            <rate>
              <timebase>24</timebase>
              <ntsc>FALSE</ntsc>
            </rate>
            <media>
              <video>
                <track>
                  <clipitem frameBlend="FALSE" id="clipitem-394">
                    <name>Scene - LJ visemes.391.png</name>
                    <masterclipid>masterclip-393</masterclipid>
                    <rate>
                      <timebase>24</timebase>
                      <ntsc>FALSE</ntsc>
                    </rate>
                    <alphatype>straight</alphatype>
                    <pixelaspectratio>square</pixelaspectratio>
                    <anamorphic>FALSE</anamorphic>
                    <file id="file-393">
                      <name>Scene - LJ visemes.391.png</name>
                      <pathurl>file://localhost/Users/bot/Documents/CREATE/Character Animator/LJ visemes CH2AE/demo/Scene - LJ visemes/Scene - LJ visemes.391.png</pathurl>
                      <rate>
                        <timebase>24</timebase>
                        <ntsc>FALSE</ntsc>
                      </rate>
                      <duration>672</duration>
                      <timecode>
                        <rate>
                          <timebase>24</timebase>
                          <ntsc>FALSE</ntsc>
                        </rate>
                      </timecode>
                      <media>
                        <video>
                          <duration>1</duration>
                          <samplecharacteristics>
                            <anamorphic>FALSE</anamorphic>
                            <pixelaspectratio>square</pixelaspectratio>
                            <fielddominance>none</fielddominance>
                            <width>1920</width>
                            <height>1080</height>
                          </samplecharacteristics>
                        </video>
                      </media>
                    </file>
                  </clipitem>
                </track>
              </video>
            </media>
          </clip>
          <clip explodedTracks="true" frameBlend="FALSE" id="masterclip-394">
            <uuid>d39f212c-0de6-404c-b0e6-c69048a1fec6</uuid>
            <masterclipid>masterclip-394</masterclipid>
            <ismasterclip>TRUE</ismasterclip>
            <duration>672</duration>
            <in>0</in>
            <out>672</out>
            <name>Scene - LJ visemes.392.png</name>
            <rate>
              <timebase>24</timebase>
              <ntsc>FALSE</ntsc>
            </rate>
            <media>
              <video>
                <track>
                  <clipitem frameBlend="FALSE" id="clipitem-395">
                    <name>Scene - LJ visemes.392.png</name>
                    <masterclipid>masterclip-394</masterclipid>
                    <rate>
                      <timebase>24</timebase>
                      <ntsc>FALSE</ntsc>
                    </rate>
                    <alphatype>straight</alphatype>
                    <pixelaspectratio>square</pixelaspectratio>
                    <anamorphic>FALSE</anamorphic>
                    <file id="file-394">
                      <name>Scene - LJ visemes.392.png</name>
                      <pathurl>file://localhost/Users/bot/Documents/CREATE/Character Animator/LJ visemes CH2AE/demo/Scene - LJ visemes/Scene - LJ visemes.392.png</pathurl>
                      <rate>
                        <timebase>24</timebase>
                        <ntsc>FALSE</ntsc>
                      </rate>
                      <duration>672</duration>
                      <timecode>
                        <rate>
                          <timebase>24</timebase>
                          <ntsc>FALSE</ntsc>
                        </rate>
                      </timecode>
                      <media>
                        <video>
                          <duration>1</duration>
                          <samplecharacteristics>
                            <anamorphic>FALSE</anamorphic>
                            <pixelaspectratio>square</pixelaspectratio>
                            <fielddominance>none</fielddominance>
                            <width>1920</width>
                            <height>1080</height>
                          </samplecharacteristics>
                        </video>
                      </media>
                    </file>
                  </clipitem>
                </track>
              </video>
            </media>
          </clip>
          <clip explodedTracks="true" frameBlend="FALSE" id="masterclip-395">
            <uuid>138a5218-8221-49b8-bca9-3cac38f31dc0</uuid>
            <masterclipid>masterclip-395</masterclipid>
            <ismasterclip>TRUE</ismasterclip>
            <duration>672</duration>
            <in>0</in>
            <out>672</out>
            <name>Scene - LJ visemes.393.png</name>
            <rate>
              <timebase>24</timebase>
              <ntsc>FALSE</ntsc>
            </rate>
            <media>
              <video>
                <track>
                  <clipitem frameBlend="FALSE" id="clipitem-396">
                    <name>Scene - LJ visemes.393.png</name>
                    <masterclipid>masterclip-395</masterclipid>
                    <rate>
                      <timebase>24</timebase>
                      <ntsc>FALSE</ntsc>
                    </rate>
                    <alphatype>straight</alphatype>
                    <pixelaspectratio>square</pixelaspectratio>
                    <anamorphic>FALSE</anamorphic>
                    <file id="file-395">
                      <name>Scene - LJ visemes.393.png</name>
                      <pathurl>file://localhost/Users/bot/Documents/CREATE/Character Animator/LJ visemes CH2AE/demo/Scene - LJ visemes/Scene - LJ visemes.393.png</pathurl>
                      <rate>
                        <timebase>24</timebase>
                        <ntsc>FALSE</ntsc>
                      </rate>
                      <duration>672</duration>
                      <timecode>
                        <rate>
                          <timebase>24</timebase>
                          <ntsc>FALSE</ntsc>
                        </rate>
                      </timecode>
                      <media>
                        <video>
                          <duration>1</duration>
                          <samplecharacteristics>
                            <anamorphic>FALSE</anamorphic>
                            <pixelaspectratio>square</pixelaspectratio>
                            <fielddominance>none</fielddominance>
                            <width>1920</width>
                            <height>1080</height>
                          </samplecharacteristics>
                        </video>
                      </media>
                    </file>
                  </clipitem>
                </track>
              </video>
            </media>
          </clip>
          <clip explodedTracks="true" frameBlend="FALSE" id="masterclip-396">
            <uuid>22795a82-a9b1-4628-b745-8b55799ce0e0</uuid>
            <masterclipid>masterclip-396</masterclipid>
            <ismasterclip>TRUE</ismasterclip>
            <duration>672</duration>
            <in>0</in>
            <out>672</out>
            <name>Scene - LJ visemes.394.png</name>
            <rate>
              <timebase>24</timebase>
              <ntsc>FALSE</ntsc>
            </rate>
            <media>
              <video>
                <track>
                  <clipitem frameBlend="FALSE" id="clipitem-397">
                    <name>Scene - LJ visemes.394.png</name>
                    <masterclipid>masterclip-396</masterclipid>
                    <rate>
                      <timebase>24</timebase>
                      <ntsc>FALSE</ntsc>
                    </rate>
                    <alphatype>straight</alphatype>
                    <pixelaspectratio>square</pixelaspectratio>
                    <anamorphic>FALSE</anamorphic>
                    <file id="file-396">
                      <name>Scene - LJ visemes.394.png</name>
                      <pathurl>file://localhost/Users/bot/Documents/CREATE/Character Animator/LJ visemes CH2AE/demo/Scene - LJ visemes/Scene - LJ visemes.394.png</pathurl>
                      <rate>
                        <timebase>24</timebase>
                        <ntsc>FALSE</ntsc>
                      </rate>
                      <duration>672</duration>
                      <timecode>
                        <rate>
                          <timebase>24</timebase>
                          <ntsc>FALSE</ntsc>
                        </rate>
                      </timecode>
                      <media>
                        <video>
                          <duration>1</duration>
                          <samplecharacteristics>
                            <anamorphic>FALSE</anamorphic>
                            <pixelaspectratio>square</pixelaspectratio>
                            <fielddominance>none</fielddominance>
                            <width>1920</width>
                            <height>1080</height>
                          </samplecharacteristics>
                        </video>
                      </media>
                    </file>
                  </clipitem>
                </track>
              </video>
            </media>
          </clip>
          <clip explodedTracks="true" frameBlend="FALSE" id="masterclip-397">
            <uuid>2a0c753f-d321-4047-a236-48443eeb74ed</uuid>
            <masterclipid>masterclip-397</masterclipid>
            <ismasterclip>TRUE</ismasterclip>
            <duration>672</duration>
            <in>0</in>
            <out>672</out>
            <name>Scene - LJ visemes.395.png</name>
            <rate>
              <timebase>24</timebase>
              <ntsc>FALSE</ntsc>
            </rate>
            <media>
              <video>
                <track>
                  <clipitem frameBlend="FALSE" id="clipitem-398">
                    <name>Scene - LJ visemes.395.png</name>
                    <masterclipid>masterclip-397</masterclipid>
                    <rate>
                      <timebase>24</timebase>
                      <ntsc>FALSE</ntsc>
                    </rate>
                    <alphatype>straight</alphatype>
                    <pixelaspectratio>square</pixelaspectratio>
                    <anamorphic>FALSE</anamorphic>
                    <file id="file-397">
                      <name>Scene - LJ visemes.395.png</name>
                      <pathurl>file://localhost/Users/bot/Documents/CREATE/Character Animator/LJ visemes CH2AE/demo/Scene - LJ visemes/Scene - LJ visemes.395.png</pathurl>
                      <rate>
                        <timebase>24</timebase>
                        <ntsc>FALSE</ntsc>
                      </rate>
                      <duration>672</duration>
                      <timecode>
                        <rate>
                          <timebase>24</timebase>
                          <ntsc>FALSE</ntsc>
                        </rate>
                      </timecode>
                      <media>
                        <video>
                          <duration>1</duration>
                          <samplecharacteristics>
                            <anamorphic>FALSE</anamorphic>
                            <pixelaspectratio>square</pixelaspectratio>
                            <fielddominance>none</fielddominance>
                            <width>1920</width>
                            <height>1080</height>
                          </samplecharacteristics>
                        </video>
                      </media>
                    </file>
                  </clipitem>
                </track>
              </video>
            </media>
          </clip>
          <clip explodedTracks="true" frameBlend="FALSE" id="masterclip-398">
            <uuid>1ee3bbec-d031-437a-aa80-80aaf60ff40a</uuid>
            <masterclipid>masterclip-398</masterclipid>
            <ismasterclip>TRUE</ismasterclip>
            <duration>672</duration>
            <in>0</in>
            <out>672</out>
            <name>Scene - LJ visemes.396.png</name>
            <rate>
              <timebase>24</timebase>
              <ntsc>FALSE</ntsc>
            </rate>
            <media>
              <video>
                <track>
                  <clipitem frameBlend="FALSE" id="clipitem-399">
                    <name>Scene - LJ visemes.396.png</name>
                    <masterclipid>masterclip-398</masterclipid>
                    <rate>
                      <timebase>24</timebase>
                      <ntsc>FALSE</ntsc>
                    </rate>
                    <alphatype>straight</alphatype>
                    <pixelaspectratio>square</pixelaspectratio>
                    <anamorphic>FALSE</anamorphic>
                    <file id="file-398">
                      <name>Scene - LJ visemes.396.png</name>
                      <pathurl>file://localhost/Users/bot/Documents/CREATE/Character Animator/LJ visemes CH2AE/demo/Scene - LJ visemes/Scene - LJ visemes.396.png</pathurl>
                      <rate>
                        <timebase>24</timebase>
                        <ntsc>FALSE</ntsc>
                      </rate>
                      <duration>672</duration>
                      <timecode>
                        <rate>
                          <timebase>24</timebase>
                          <ntsc>FALSE</ntsc>
                        </rate>
                      </timecode>
                      <media>
                        <video>
                          <duration>1</duration>
                          <samplecharacteristics>
                            <anamorphic>FALSE</anamorphic>
                            <pixelaspectratio>square</pixelaspectratio>
                            <fielddominance>none</fielddominance>
                            <width>1920</width>
                            <height>1080</height>
                          </samplecharacteristics>
                        </video>
                      </media>
                    </file>
                  </clipitem>
                </track>
              </video>
            </media>
          </clip>
          <clip explodedTracks="true" frameBlend="FALSE" id="masterclip-399">
            <uuid>ff17ab52-b016-491a-a288-303c8f251acc</uuid>
            <masterclipid>masterclip-399</masterclipid>
            <ismasterclip>TRUE</ismasterclip>
            <duration>672</duration>
            <in>0</in>
            <out>672</out>
            <name>Scene - LJ visemes.397.png</name>
            <rate>
              <timebase>24</timebase>
              <ntsc>FALSE</ntsc>
            </rate>
            <media>
              <video>
                <track>
                  <clipitem frameBlend="FALSE" id="clipitem-400">
                    <name>Scene - LJ visemes.397.png</name>
                    <masterclipid>masterclip-399</masterclipid>
                    <rate>
                      <timebase>24</timebase>
                      <ntsc>FALSE</ntsc>
                    </rate>
                    <alphatype>straight</alphatype>
                    <pixelaspectratio>square</pixelaspectratio>
                    <anamorphic>FALSE</anamorphic>
                    <file id="file-399">
                      <name>Scene - LJ visemes.397.png</name>
                      <pathurl>file://localhost/Users/bot/Documents/CREATE/Character Animator/LJ visemes CH2AE/demo/Scene - LJ visemes/Scene - LJ visemes.397.png</pathurl>
                      <rate>
                        <timebase>24</timebase>
                        <ntsc>FALSE</ntsc>
                      </rate>
                      <duration>672</duration>
                      <timecode>
                        <rate>
                          <timebase>24</timebase>
                          <ntsc>FALSE</ntsc>
                        </rate>
                      </timecode>
                      <media>
                        <video>
                          <duration>1</duration>
                          <samplecharacteristics>
                            <anamorphic>FALSE</anamorphic>
                            <pixelaspectratio>square</pixelaspectratio>
                            <fielddominance>none</fielddominance>
                            <width>1920</width>
                            <height>1080</height>
                          </samplecharacteristics>
                        </video>
                      </media>
                    </file>
                  </clipitem>
                </track>
              </video>
            </media>
          </clip>
          <clip explodedTracks="true" frameBlend="FALSE" id="masterclip-400">
            <uuid>4cd3ab0c-30fa-48cf-872c-f7ebcdd1e533</uuid>
            <masterclipid>masterclip-400</masterclipid>
            <ismasterclip>TRUE</ismasterclip>
            <duration>672</duration>
            <in>0</in>
            <out>672</out>
            <name>Scene - LJ visemes.398.png</name>
            <rate>
              <timebase>24</timebase>
              <ntsc>FALSE</ntsc>
            </rate>
            <media>
              <video>
                <track>
                  <clipitem frameBlend="FALSE" id="clipitem-401">
                    <name>Scene - LJ visemes.398.png</name>
                    <masterclipid>masterclip-400</masterclipid>
                    <rate>
                      <timebase>24</timebase>
                      <ntsc>FALSE</ntsc>
                    </rate>
                    <alphatype>straight</alphatype>
                    <pixelaspectratio>square</pixelaspectratio>
                    <anamorphic>FALSE</anamorphic>
                    <file id="file-400">
                      <name>Scene - LJ visemes.398.png</name>
                      <pathurl>file://localhost/Users/bot/Documents/CREATE/Character Animator/LJ visemes CH2AE/demo/Scene - LJ visemes/Scene - LJ visemes.398.png</pathurl>
                      <rate>
                        <timebase>24</timebase>
                        <ntsc>FALSE</ntsc>
                      </rate>
                      <duration>672</duration>
                      <timecode>
                        <rate>
                          <timebase>24</timebase>
                          <ntsc>FALSE</ntsc>
                        </rate>
                      </timecode>
                      <media>
                        <video>
                          <duration>1</duration>
                          <samplecharacteristics>
                            <anamorphic>FALSE</anamorphic>
                            <pixelaspectratio>square</pixelaspectratio>
                            <fielddominance>none</fielddominance>
                            <width>1920</width>
                            <height>1080</height>
                          </samplecharacteristics>
                        </video>
                      </media>
                    </file>
                  </clipitem>
                </track>
              </video>
            </media>
          </clip>
          <clip explodedTracks="true" frameBlend="FALSE" id="masterclip-401">
            <uuid>a1d0349a-71f4-4ed4-ae2e-29ddc5e45ab1</uuid>
            <masterclipid>masterclip-401</masterclipid>
            <ismasterclip>TRUE</ismasterclip>
            <duration>672</duration>
            <in>0</in>
            <out>672</out>
            <name>Scene - LJ visemes.399.png</name>
            <rate>
              <timebase>24</timebase>
              <ntsc>FALSE</ntsc>
            </rate>
            <media>
              <video>
                <track>
                  <clipitem frameBlend="FALSE" id="clipitem-402">
                    <name>Scene - LJ visemes.399.png</name>
                    <masterclipid>masterclip-401</masterclipid>
                    <rate>
                      <timebase>24</timebase>
                      <ntsc>FALSE</ntsc>
                    </rate>
                    <alphatype>straight</alphatype>
                    <pixelaspectratio>square</pixelaspectratio>
                    <anamorphic>FALSE</anamorphic>
                    <file id="file-401">
                      <name>Scene - LJ visemes.399.png</name>
                      <pathurl>file://localhost/Users/bot/Documents/CREATE/Character Animator/LJ visemes CH2AE/demo/Scene - LJ visemes/Scene - LJ visemes.399.png</pathurl>
                      <rate>
                        <timebase>24</timebase>
                        <ntsc>FALSE</ntsc>
                      </rate>
                      <duration>672</duration>
                      <timecode>
                        <rate>
                          <timebase>24</timebase>
                          <ntsc>FALSE</ntsc>
                        </rate>
                      </timecode>
                      <media>
                        <video>
                          <duration>1</duration>
                          <samplecharacteristics>
                            <anamorphic>FALSE</anamorphic>
                            <pixelaspectratio>square</pixelaspectratio>
                            <fielddominance>none</fielddominance>
                            <width>1920</width>
                            <height>1080</height>
                          </samplecharacteristics>
                        </video>
                      </media>
                    </file>
                  </clipitem>
                </track>
              </video>
            </media>
          </clip>
          <clip explodedTracks="true" frameBlend="FALSE" id="masterclip-402">
            <uuid>587d94c4-c30f-44cd-9583-8ea8f98d8464</uuid>
            <masterclipid>masterclip-402</masterclipid>
            <ismasterclip>TRUE</ismasterclip>
            <duration>672</duration>
            <in>0</in>
            <out>672</out>
            <name>Scene - LJ visemes.400.png</name>
            <rate>
              <timebase>24</timebase>
              <ntsc>FALSE</ntsc>
            </rate>
            <media>
              <video>
                <track>
                  <clipitem frameBlend="FALSE" id="clipitem-403">
                    <name>Scene - LJ visemes.400.png</name>
                    <masterclipid>masterclip-402</masterclipid>
                    <rate>
                      <timebase>24</timebase>
                      <ntsc>FALSE</ntsc>
                    </rate>
                    <alphatype>straight</alphatype>
                    <pixelaspectratio>square</pixelaspectratio>
                    <anamorphic>FALSE</anamorphic>
                    <file id="file-402">
                      <name>Scene - LJ visemes.400.png</name>
                      <pathurl>file://localhost/Users/bot/Documents/CREATE/Character Animator/LJ visemes CH2AE/demo/Scene - LJ visemes/Scene - LJ visemes.400.png</pathurl>
                      <rate>
                        <timebase>24</timebase>
                        <ntsc>FALSE</ntsc>
                      </rate>
                      <duration>672</duration>
                      <timecode>
                        <rate>
                          <timebase>24</timebase>
                          <ntsc>FALSE</ntsc>
                        </rate>
                      </timecode>
                      <media>
                        <video>
                          <duration>1</duration>
                          <samplecharacteristics>
                            <anamorphic>FALSE</anamorphic>
                            <pixelaspectratio>square</pixelaspectratio>
                            <fielddominance>none</fielddominance>
                            <width>1920</width>
                            <height>1080</height>
                          </samplecharacteristics>
                        </video>
                      </media>
                    </file>
                  </clipitem>
                </track>
              </video>
            </media>
          </clip>
          <clip explodedTracks="true" frameBlend="FALSE" id="masterclip-403">
            <uuid>6a32b99c-ac55-4714-b928-ae3afcbb828e</uuid>
            <masterclipid>masterclip-403</masterclipid>
            <ismasterclip>TRUE</ismasterclip>
            <duration>672</duration>
            <in>0</in>
            <out>672</out>
            <name>Scene - LJ visemes.401.png</name>
            <rate>
              <timebase>24</timebase>
              <ntsc>FALSE</ntsc>
            </rate>
            <media>
              <video>
                <track>
                  <clipitem frameBlend="FALSE" id="clipitem-404">
                    <name>Scene - LJ visemes.401.png</name>
                    <masterclipid>masterclip-403</masterclipid>
                    <rate>
                      <timebase>24</timebase>
                      <ntsc>FALSE</ntsc>
                    </rate>
                    <alphatype>straight</alphatype>
                    <pixelaspectratio>square</pixelaspectratio>
                    <anamorphic>FALSE</anamorphic>
                    <file id="file-403">
                      <name>Scene - LJ visemes.401.png</name>
                      <pathurl>file://localhost/Users/bot/Documents/CREATE/Character Animator/LJ visemes CH2AE/demo/Scene - LJ visemes/Scene - LJ visemes.401.png</pathurl>
                      <rate>
                        <timebase>24</timebase>
                        <ntsc>FALSE</ntsc>
                      </rate>
                      <duration>672</duration>
                      <timecode>
                        <rate>
                          <timebase>24</timebase>
                          <ntsc>FALSE</ntsc>
                        </rate>
                      </timecode>
                      <media>
                        <video>
                          <duration>1</duration>
                          <samplecharacteristics>
                            <anamorphic>FALSE</anamorphic>
                            <pixelaspectratio>square</pixelaspectratio>
                            <fielddominance>none</fielddominance>
                            <width>1920</width>
                            <height>1080</height>
                          </samplecharacteristics>
                        </video>
                      </media>
                    </file>
                  </clipitem>
                </track>
              </video>
            </media>
          </clip>
          <clip explodedTracks="true" frameBlend="FALSE" id="masterclip-404">
            <uuid>2c576261-f56f-4dff-b5d4-7d7d8b7dbe09</uuid>
            <masterclipid>masterclip-404</masterclipid>
            <ismasterclip>TRUE</ismasterclip>
            <duration>672</duration>
            <in>0</in>
            <out>672</out>
            <name>Scene - LJ visemes.402.png</name>
            <rate>
              <timebase>24</timebase>
              <ntsc>FALSE</ntsc>
            </rate>
            <media>
              <video>
                <track>
                  <clipitem frameBlend="FALSE" id="clipitem-405">
                    <name>Scene - LJ visemes.402.png</name>
                    <masterclipid>masterclip-404</masterclipid>
                    <rate>
                      <timebase>24</timebase>
                      <ntsc>FALSE</ntsc>
                    </rate>
                    <alphatype>straight</alphatype>
                    <pixelaspectratio>square</pixelaspectratio>
                    <anamorphic>FALSE</anamorphic>
                    <file id="file-404">
                      <name>Scene - LJ visemes.402.png</name>
                      <pathurl>file://localhost/Users/bot/Documents/CREATE/Character Animator/LJ visemes CH2AE/demo/Scene - LJ visemes/Scene - LJ visemes.402.png</pathurl>
                      <rate>
                        <timebase>24</timebase>
                        <ntsc>FALSE</ntsc>
                      </rate>
                      <duration>672</duration>
                      <timecode>
                        <rate>
                          <timebase>24</timebase>
                          <ntsc>FALSE</ntsc>
                        </rate>
                      </timecode>
                      <media>
                        <video>
                          <duration>1</duration>
                          <samplecharacteristics>
                            <anamorphic>FALSE</anamorphic>
                            <pixelaspectratio>square</pixelaspectratio>
                            <fielddominance>none</fielddominance>
                            <width>1920</width>
                            <height>1080</height>
                          </samplecharacteristics>
                        </video>
                      </media>
                    </file>
                  </clipitem>
                </track>
              </video>
            </media>
          </clip>
          <clip explodedTracks="true" frameBlend="FALSE" id="masterclip-405">
            <uuid>0f2e94c4-95bd-4369-9850-eb833ce575ce</uuid>
            <masterclipid>masterclip-405</masterclipid>
            <ismasterclip>TRUE</ismasterclip>
            <duration>672</duration>
            <in>0</in>
            <out>672</out>
            <name>Scene - LJ visemes.403.png</name>
            <rate>
              <timebase>24</timebase>
              <ntsc>FALSE</ntsc>
            </rate>
            <media>
              <video>
                <track>
                  <clipitem frameBlend="FALSE" id="clipitem-406">
                    <name>Scene - LJ visemes.403.png</name>
                    <masterclipid>masterclip-405</masterclipid>
                    <rate>
                      <timebase>24</timebase>
                      <ntsc>FALSE</ntsc>
                    </rate>
                    <alphatype>straight</alphatype>
                    <pixelaspectratio>square</pixelaspectratio>
                    <anamorphic>FALSE</anamorphic>
                    <file id="file-405">
                      <name>Scene - LJ visemes.403.png</name>
                      <pathurl>file://localhost/Users/bot/Documents/CREATE/Character Animator/LJ visemes CH2AE/demo/Scene - LJ visemes/Scene - LJ visemes.403.png</pathurl>
                      <rate>
                        <timebase>24</timebase>
                        <ntsc>FALSE</ntsc>
                      </rate>
                      <duration>672</duration>
                      <timecode>
                        <rate>
                          <timebase>24</timebase>
                          <ntsc>FALSE</ntsc>
                        </rate>
                      </timecode>
                      <media>
                        <video>
                          <duration>1</duration>
                          <samplecharacteristics>
                            <anamorphic>FALSE</anamorphic>
                            <pixelaspectratio>square</pixelaspectratio>
                            <fielddominance>none</fielddominance>
                            <width>1920</width>
                            <height>1080</height>
                          </samplecharacteristics>
                        </video>
                      </media>
                    </file>
                  </clipitem>
                </track>
              </video>
            </media>
          </clip>
          <clip explodedTracks="true" frameBlend="FALSE" id="masterclip-406">
            <uuid>6a175ef4-a920-4b2d-9370-bb48c2d48124</uuid>
            <masterclipid>masterclip-406</masterclipid>
            <ismasterclip>TRUE</ismasterclip>
            <duration>672</duration>
            <in>0</in>
            <out>672</out>
            <name>Scene - LJ visemes.404.png</name>
            <rate>
              <timebase>24</timebase>
              <ntsc>FALSE</ntsc>
            </rate>
            <media>
              <video>
                <track>
                  <clipitem frameBlend="FALSE" id="clipitem-407">
                    <name>Scene - LJ visemes.404.png</name>
                    <masterclipid>masterclip-406</masterclipid>
                    <rate>
                      <timebase>24</timebase>
                      <ntsc>FALSE</ntsc>
                    </rate>
                    <alphatype>straight</alphatype>
                    <pixelaspectratio>square</pixelaspectratio>
                    <anamorphic>FALSE</anamorphic>
                    <file id="file-406">
                      <name>Scene - LJ visemes.404.png</name>
                      <pathurl>file://localhost/Users/bot/Documents/CREATE/Character Animator/LJ visemes CH2AE/demo/Scene - LJ visemes/Scene - LJ visemes.404.png</pathurl>
                      <rate>
                        <timebase>24</timebase>
                        <ntsc>FALSE</ntsc>
                      </rate>
                      <duration>672</duration>
                      <timecode>
                        <rate>
                          <timebase>24</timebase>
                          <ntsc>FALSE</ntsc>
                        </rate>
                      </timecode>
                      <media>
                        <video>
                          <duration>1</duration>
                          <samplecharacteristics>
                            <anamorphic>FALSE</anamorphic>
                            <pixelaspectratio>square</pixelaspectratio>
                            <fielddominance>none</fielddominance>
                            <width>1920</width>
                            <height>1080</height>
                          </samplecharacteristics>
                        </video>
                      </media>
                    </file>
                  </clipitem>
                </track>
              </video>
            </media>
          </clip>
          <clip explodedTracks="true" frameBlend="FALSE" id="masterclip-407">
            <uuid>2f0e650f-2637-4631-8d83-0a36b566f11a</uuid>
            <masterclipid>masterclip-407</masterclipid>
            <ismasterclip>TRUE</ismasterclip>
            <duration>672</duration>
            <in>0</in>
            <out>672</out>
            <name>Scene - LJ visemes.405.png</name>
            <rate>
              <timebase>24</timebase>
              <ntsc>FALSE</ntsc>
            </rate>
            <media>
              <video>
                <track>
                  <clipitem frameBlend="FALSE" id="clipitem-408">
                    <name>Scene - LJ visemes.405.png</name>
                    <masterclipid>masterclip-407</masterclipid>
                    <rate>
                      <timebase>24</timebase>
                      <ntsc>FALSE</ntsc>
                    </rate>
                    <alphatype>straight</alphatype>
                    <pixelaspectratio>square</pixelaspectratio>
                    <anamorphic>FALSE</anamorphic>
                    <file id="file-407">
                      <name>Scene - LJ visemes.405.png</name>
                      <pathurl>file://localhost/Users/bot/Documents/CREATE/Character Animator/LJ visemes CH2AE/demo/Scene - LJ visemes/Scene - LJ visemes.405.png</pathurl>
                      <rate>
                        <timebase>24</timebase>
                        <ntsc>FALSE</ntsc>
                      </rate>
                      <duration>672</duration>
                      <timecode>
                        <rate>
                          <timebase>24</timebase>
                          <ntsc>FALSE</ntsc>
                        </rate>
                      </timecode>
                      <media>
                        <video>
                          <duration>1</duration>
                          <samplecharacteristics>
                            <anamorphic>FALSE</anamorphic>
                            <pixelaspectratio>square</pixelaspectratio>
                            <fielddominance>none</fielddominance>
                            <width>1920</width>
                            <height>1080</height>
                          </samplecharacteristics>
                        </video>
                      </media>
                    </file>
                  </clipitem>
                </track>
              </video>
            </media>
          </clip>
          <clip explodedTracks="true" frameBlend="FALSE" id="masterclip-408">
            <uuid>ec772628-4b95-42b4-a9fe-38f7ff5c71f9</uuid>
            <masterclipid>masterclip-408</masterclipid>
            <ismasterclip>TRUE</ismasterclip>
            <duration>672</duration>
            <in>0</in>
            <out>672</out>
            <name>Scene - LJ visemes.406.png</name>
            <rate>
              <timebase>24</timebase>
              <ntsc>FALSE</ntsc>
            </rate>
            <media>
              <video>
                <track>
                  <clipitem frameBlend="FALSE" id="clipitem-409">
                    <name>Scene - LJ visemes.406.png</name>
                    <masterclipid>masterclip-408</masterclipid>
                    <rate>
                      <timebase>24</timebase>
                      <ntsc>FALSE</ntsc>
                    </rate>
                    <alphatype>straight</alphatype>
                    <pixelaspectratio>square</pixelaspectratio>
                    <anamorphic>FALSE</anamorphic>
                    <file id="file-408">
                      <name>Scene - LJ visemes.406.png</name>
                      <pathurl>file://localhost/Users/bot/Documents/CREATE/Character Animator/LJ visemes CH2AE/demo/Scene - LJ visemes/Scene - LJ visemes.406.png</pathurl>
                      <rate>
                        <timebase>24</timebase>
                        <ntsc>FALSE</ntsc>
                      </rate>
                      <duration>672</duration>
                      <timecode>
                        <rate>
                          <timebase>24</timebase>
                          <ntsc>FALSE</ntsc>
                        </rate>
                      </timecode>
                      <media>
                        <video>
                          <duration>1</duration>
                          <samplecharacteristics>
                            <anamorphic>FALSE</anamorphic>
                            <pixelaspectratio>square</pixelaspectratio>
                            <fielddominance>none</fielddominance>
                            <width>1920</width>
                            <height>1080</height>
                          </samplecharacteristics>
                        </video>
                      </media>
                    </file>
                  </clipitem>
                </track>
              </video>
            </media>
          </clip>
          <clip explodedTracks="true" frameBlend="FALSE" id="masterclip-409">
            <uuid>459a85b3-f3cc-4518-aaed-2739c4d03b74</uuid>
            <masterclipid>masterclip-409</masterclipid>
            <ismasterclip>TRUE</ismasterclip>
            <duration>672</duration>
            <in>0</in>
            <out>672</out>
            <name>Scene - LJ visemes.407.png</name>
            <rate>
              <timebase>24</timebase>
              <ntsc>FALSE</ntsc>
            </rate>
            <media>
              <video>
                <track>
                  <clipitem frameBlend="FALSE" id="clipitem-410">
                    <name>Scene - LJ visemes.407.png</name>
                    <masterclipid>masterclip-409</masterclipid>
                    <rate>
                      <timebase>24</timebase>
                      <ntsc>FALSE</ntsc>
                    </rate>
                    <alphatype>straight</alphatype>
                    <pixelaspectratio>square</pixelaspectratio>
                    <anamorphic>FALSE</anamorphic>
                    <file id="file-409">
                      <name>Scene - LJ visemes.407.png</name>
                      <pathurl>file://localhost/Users/bot/Documents/CREATE/Character Animator/LJ visemes CH2AE/demo/Scene - LJ visemes/Scene - LJ visemes.407.png</pathurl>
                      <rate>
                        <timebase>24</timebase>
                        <ntsc>FALSE</ntsc>
                      </rate>
                      <duration>672</duration>
                      <timecode>
                        <rate>
                          <timebase>24</timebase>
                          <ntsc>FALSE</ntsc>
                        </rate>
                      </timecode>
                      <media>
                        <video>
                          <duration>1</duration>
                          <samplecharacteristics>
                            <anamorphic>FALSE</anamorphic>
                            <pixelaspectratio>square</pixelaspectratio>
                            <fielddominance>none</fielddominance>
                            <width>1920</width>
                            <height>1080</height>
                          </samplecharacteristics>
                        </video>
                      </media>
                    </file>
                  </clipitem>
                </track>
              </video>
            </media>
          </clip>
          <clip explodedTracks="true" frameBlend="FALSE" id="masterclip-410">
            <uuid>28d30b2e-764a-46b8-acf4-7ff964e6c52a</uuid>
            <masterclipid>masterclip-410</masterclipid>
            <ismasterclip>TRUE</ismasterclip>
            <duration>672</duration>
            <in>0</in>
            <out>672</out>
            <name>Scene - LJ visemes.408.png</name>
            <rate>
              <timebase>24</timebase>
              <ntsc>FALSE</ntsc>
            </rate>
            <media>
              <video>
                <track>
                  <clipitem frameBlend="FALSE" id="clipitem-411">
                    <name>Scene - LJ visemes.408.png</name>
                    <masterclipid>masterclip-410</masterclipid>
                    <rate>
                      <timebase>24</timebase>
                      <ntsc>FALSE</ntsc>
                    </rate>
                    <alphatype>straight</alphatype>
                    <pixelaspectratio>square</pixelaspectratio>
                    <anamorphic>FALSE</anamorphic>
                    <file id="file-410">
                      <name>Scene - LJ visemes.408.png</name>
                      <pathurl>file://localhost/Users/bot/Documents/CREATE/Character Animator/LJ visemes CH2AE/demo/Scene - LJ visemes/Scene - LJ visemes.408.png</pathurl>
                      <rate>
                        <timebase>24</timebase>
                        <ntsc>FALSE</ntsc>
                      </rate>
                      <duration>672</duration>
                      <timecode>
                        <rate>
                          <timebase>24</timebase>
                          <ntsc>FALSE</ntsc>
                        </rate>
                      </timecode>
                      <media>
                        <video>
                          <duration>1</duration>
                          <samplecharacteristics>
                            <anamorphic>FALSE</anamorphic>
                            <pixelaspectratio>square</pixelaspectratio>
                            <fielddominance>none</fielddominance>
                            <width>1920</width>
                            <height>1080</height>
                          </samplecharacteristics>
                        </video>
                      </media>
                    </file>
                  </clipitem>
                </track>
              </video>
            </media>
          </clip>
          <clip explodedTracks="true" frameBlend="FALSE" id="masterclip-411">
            <uuid>e8d246b5-1bad-4ce6-a7a3-f7bdc15ec4e2</uuid>
            <masterclipid>masterclip-411</masterclipid>
            <ismasterclip>TRUE</ismasterclip>
            <duration>672</duration>
            <in>0</in>
            <out>672</out>
            <name>Scene - LJ visemes.409.png</name>
            <rate>
              <timebase>24</timebase>
              <ntsc>FALSE</ntsc>
            </rate>
            <media>
              <video>
                <track>
                  <clipitem frameBlend="FALSE" id="clipitem-412">
                    <name>Scene - LJ visemes.409.png</name>
                    <masterclipid>masterclip-411</masterclipid>
                    <rate>
                      <timebase>24</timebase>
                      <ntsc>FALSE</ntsc>
                    </rate>
                    <alphatype>straight</alphatype>
                    <pixelaspectratio>square</pixelaspectratio>
                    <anamorphic>FALSE</anamorphic>
                    <file id="file-411">
                      <name>Scene - LJ visemes.409.png</name>
                      <pathurl>file://localhost/Users/bot/Documents/CREATE/Character Animator/LJ visemes CH2AE/demo/Scene - LJ visemes/Scene - LJ visemes.409.png</pathurl>
                      <rate>
                        <timebase>24</timebase>
                        <ntsc>FALSE</ntsc>
                      </rate>
                      <duration>672</duration>
                      <timecode>
                        <rate>
                          <timebase>24</timebase>
                          <ntsc>FALSE</ntsc>
                        </rate>
                      </timecode>
                      <media>
                        <video>
                          <duration>1</duration>
                          <samplecharacteristics>
                            <anamorphic>FALSE</anamorphic>
                            <pixelaspectratio>square</pixelaspectratio>
                            <fielddominance>none</fielddominance>
                            <width>1920</width>
                            <height>1080</height>
                          </samplecharacteristics>
                        </video>
                      </media>
                    </file>
                  </clipitem>
                </track>
              </video>
            </media>
          </clip>
          <clip explodedTracks="true" frameBlend="FALSE" id="masterclip-412">
            <uuid>bca04072-9670-4a21-ac6c-a7fcc3d890b4</uuid>
            <masterclipid>masterclip-412</masterclipid>
            <ismasterclip>TRUE</ismasterclip>
            <duration>672</duration>
            <in>0</in>
            <out>672</out>
            <name>Scene - LJ visemes.410.png</name>
            <rate>
              <timebase>24</timebase>
              <ntsc>FALSE</ntsc>
            </rate>
            <media>
              <video>
                <track>
                  <clipitem frameBlend="FALSE" id="clipitem-413">
                    <name>Scene - LJ visemes.410.png</name>
                    <masterclipid>masterclip-412</masterclipid>
                    <rate>
                      <timebase>24</timebase>
                      <ntsc>FALSE</ntsc>
                    </rate>
                    <alphatype>straight</alphatype>
                    <pixelaspectratio>square</pixelaspectratio>
                    <anamorphic>FALSE</anamorphic>
                    <file id="file-412">
                      <name>Scene - LJ visemes.410.png</name>
                      <pathurl>file://localhost/Users/bot/Documents/CREATE/Character Animator/LJ visemes CH2AE/demo/Scene - LJ visemes/Scene - LJ visemes.410.png</pathurl>
                      <rate>
                        <timebase>24</timebase>
                        <ntsc>FALSE</ntsc>
                      </rate>
                      <duration>672</duration>
                      <timecode>
                        <rate>
                          <timebase>24</timebase>
                          <ntsc>FALSE</ntsc>
                        </rate>
                      </timecode>
                      <media>
                        <video>
                          <duration>1</duration>
                          <samplecharacteristics>
                            <anamorphic>FALSE</anamorphic>
                            <pixelaspectratio>square</pixelaspectratio>
                            <fielddominance>none</fielddominance>
                            <width>1920</width>
                            <height>1080</height>
                          </samplecharacteristics>
                        </video>
                      </media>
                    </file>
                  </clipitem>
                </track>
              </video>
            </media>
          </clip>
          <clip explodedTracks="true" frameBlend="FALSE" id="masterclip-413">
            <uuid>804389d0-2f2b-43d5-8b12-432e9beabc3c</uuid>
            <masterclipid>masterclip-413</masterclipid>
            <ismasterclip>TRUE</ismasterclip>
            <duration>672</duration>
            <in>0</in>
            <out>672</out>
            <name>Scene - LJ visemes.411.png</name>
            <rate>
              <timebase>24</timebase>
              <ntsc>FALSE</ntsc>
            </rate>
            <media>
              <video>
                <track>
                  <clipitem frameBlend="FALSE" id="clipitem-414">
                    <name>Scene - LJ visemes.411.png</name>
                    <masterclipid>masterclip-413</masterclipid>
                    <rate>
                      <timebase>24</timebase>
                      <ntsc>FALSE</ntsc>
                    </rate>
                    <alphatype>straight</alphatype>
                    <pixelaspectratio>square</pixelaspectratio>
                    <anamorphic>FALSE</anamorphic>
                    <file id="file-413">
                      <name>Scene - LJ visemes.411.png</name>
                      <pathurl>file://localhost/Users/bot/Documents/CREATE/Character Animator/LJ visemes CH2AE/demo/Scene - LJ visemes/Scene - LJ visemes.411.png</pathurl>
                      <rate>
                        <timebase>24</timebase>
                        <ntsc>FALSE</ntsc>
                      </rate>
                      <duration>672</duration>
                      <timecode>
                        <rate>
                          <timebase>24</timebase>
                          <ntsc>FALSE</ntsc>
                        </rate>
                      </timecode>
                      <media>
                        <video>
                          <duration>1</duration>
                          <samplecharacteristics>
                            <anamorphic>FALSE</anamorphic>
                            <pixelaspectratio>square</pixelaspectratio>
                            <fielddominance>none</fielddominance>
                            <width>1920</width>
                            <height>1080</height>
                          </samplecharacteristics>
                        </video>
                      </media>
                    </file>
                  </clipitem>
                </track>
              </video>
            </media>
          </clip>
          <clip explodedTracks="true" frameBlend="FALSE" id="masterclip-414">
            <uuid>854bef71-f847-48d7-bdfd-a6c7c620b194</uuid>
            <masterclipid>masterclip-414</masterclipid>
            <ismasterclip>TRUE</ismasterclip>
            <duration>672</duration>
            <in>0</in>
            <out>672</out>
            <name>Scene - LJ visemes.412.png</name>
            <rate>
              <timebase>24</timebase>
              <ntsc>FALSE</ntsc>
            </rate>
            <media>
              <video>
                <track>
                  <clipitem frameBlend="FALSE" id="clipitem-415">
                    <name>Scene - LJ visemes.412.png</name>
                    <masterclipid>masterclip-414</masterclipid>
                    <rate>
                      <timebase>24</timebase>
                      <ntsc>FALSE</ntsc>
                    </rate>
                    <alphatype>straight</alphatype>
                    <pixelaspectratio>square</pixelaspectratio>
                    <anamorphic>FALSE</anamorphic>
                    <file id="file-414">
                      <name>Scene - LJ visemes.412.png</name>
                      <pathurl>file://localhost/Users/bot/Documents/CREATE/Character Animator/LJ visemes CH2AE/demo/Scene - LJ visemes/Scene - LJ visemes.412.png</pathurl>
                      <rate>
                        <timebase>24</timebase>
                        <ntsc>FALSE</ntsc>
                      </rate>
                      <duration>672</duration>
                      <timecode>
                        <rate>
                          <timebase>24</timebase>
                          <ntsc>FALSE</ntsc>
                        </rate>
                      </timecode>
                      <media>
                        <video>
                          <duration>1</duration>
                          <samplecharacteristics>
                            <anamorphic>FALSE</anamorphic>
                            <pixelaspectratio>square</pixelaspectratio>
                            <fielddominance>none</fielddominance>
                            <width>1920</width>
                            <height>1080</height>
                          </samplecharacteristics>
                        </video>
                      </media>
                    </file>
                  </clipitem>
                </track>
              </video>
            </media>
          </clip>
          <clip explodedTracks="true" frameBlend="FALSE" id="masterclip-415">
            <uuid>d1b9a203-88ce-47e3-be71-2541b4de92e6</uuid>
            <masterclipid>masterclip-415</masterclipid>
            <ismasterclip>TRUE</ismasterclip>
            <duration>672</duration>
            <in>0</in>
            <out>672</out>
            <name>Scene - LJ visemes.413.png</name>
            <rate>
              <timebase>24</timebase>
              <ntsc>FALSE</ntsc>
            </rate>
            <media>
              <video>
                <track>
                  <clipitem frameBlend="FALSE" id="clipitem-416">
                    <name>Scene - LJ visemes.413.png</name>
                    <masterclipid>masterclip-415</masterclipid>
                    <rate>
                      <timebase>24</timebase>
                      <ntsc>FALSE</ntsc>
                    </rate>
                    <alphatype>straight</alphatype>
                    <pixelaspectratio>square</pixelaspectratio>
                    <anamorphic>FALSE</anamorphic>
                    <file id="file-415">
                      <name>Scene - LJ visemes.413.png</name>
                      <pathurl>file://localhost/Users/bot/Documents/CREATE/Character Animator/LJ visemes CH2AE/demo/Scene - LJ visemes/Scene - LJ visemes.413.png</pathurl>
                      <rate>
                        <timebase>24</timebase>
                        <ntsc>FALSE</ntsc>
                      </rate>
                      <duration>672</duration>
                      <timecode>
                        <rate>
                          <timebase>24</timebase>
                          <ntsc>FALSE</ntsc>
                        </rate>
                      </timecode>
                      <media>
                        <video>
                          <duration>1</duration>
                          <samplecharacteristics>
                            <anamorphic>FALSE</anamorphic>
                            <pixelaspectratio>square</pixelaspectratio>
                            <fielddominance>none</fielddominance>
                            <width>1920</width>
                            <height>1080</height>
                          </samplecharacteristics>
                        </video>
                      </media>
                    </file>
                  </clipitem>
                </track>
              </video>
            </media>
          </clip>
          <clip explodedTracks="true" frameBlend="FALSE" id="masterclip-416">
            <uuid>8fff200f-6f68-4d58-aa20-144c784914d5</uuid>
            <masterclipid>masterclip-416</masterclipid>
            <ismasterclip>TRUE</ismasterclip>
            <duration>672</duration>
            <in>0</in>
            <out>672</out>
            <name>Scene - LJ visemes.414.png</name>
            <rate>
              <timebase>24</timebase>
              <ntsc>FALSE</ntsc>
            </rate>
            <media>
              <video>
                <track>
                  <clipitem frameBlend="FALSE" id="clipitem-417">
                    <name>Scene - LJ visemes.414.png</name>
                    <masterclipid>masterclip-416</masterclipid>
                    <rate>
                      <timebase>24</timebase>
                      <ntsc>FALSE</ntsc>
                    </rate>
                    <alphatype>straight</alphatype>
                    <pixelaspectratio>square</pixelaspectratio>
                    <anamorphic>FALSE</anamorphic>
                    <file id="file-416">
                      <name>Scene - LJ visemes.414.png</name>
                      <pathurl>file://localhost/Users/bot/Documents/CREATE/Character Animator/LJ visemes CH2AE/demo/Scene - LJ visemes/Scene - LJ visemes.414.png</pathurl>
                      <rate>
                        <timebase>24</timebase>
                        <ntsc>FALSE</ntsc>
                      </rate>
                      <duration>672</duration>
                      <timecode>
                        <rate>
                          <timebase>24</timebase>
                          <ntsc>FALSE</ntsc>
                        </rate>
                      </timecode>
                      <media>
                        <video>
                          <duration>1</duration>
                          <samplecharacteristics>
                            <anamorphic>FALSE</anamorphic>
                            <pixelaspectratio>square</pixelaspectratio>
                            <fielddominance>none</fielddominance>
                            <width>1920</width>
                            <height>1080</height>
                          </samplecharacteristics>
                        </video>
                      </media>
                    </file>
                  </clipitem>
                </track>
              </video>
            </media>
          </clip>
          <clip explodedTracks="true" frameBlend="FALSE" id="masterclip-417">
            <uuid>4f14ca04-f52d-490c-bff0-f12b5d4536d7</uuid>
            <masterclipid>masterclip-417</masterclipid>
            <ismasterclip>TRUE</ismasterclip>
            <duration>672</duration>
            <in>0</in>
            <out>672</out>
            <name>Scene - LJ visemes.415.png</name>
            <rate>
              <timebase>24</timebase>
              <ntsc>FALSE</ntsc>
            </rate>
            <media>
              <video>
                <track>
                  <clipitem frameBlend="FALSE" id="clipitem-418">
                    <name>Scene - LJ visemes.415.png</name>
                    <masterclipid>masterclip-417</masterclipid>
                    <rate>
                      <timebase>24</timebase>
                      <ntsc>FALSE</ntsc>
                    </rate>
                    <alphatype>straight</alphatype>
                    <pixelaspectratio>square</pixelaspectratio>
                    <anamorphic>FALSE</anamorphic>
                    <file id="file-417">
                      <name>Scene - LJ visemes.415.png</name>
                      <pathurl>file://localhost/Users/bot/Documents/CREATE/Character Animator/LJ visemes CH2AE/demo/Scene - LJ visemes/Scene - LJ visemes.415.png</pathurl>
                      <rate>
                        <timebase>24</timebase>
                        <ntsc>FALSE</ntsc>
                      </rate>
                      <duration>672</duration>
                      <timecode>
                        <rate>
                          <timebase>24</timebase>
                          <ntsc>FALSE</ntsc>
                        </rate>
                      </timecode>
                      <media>
                        <video>
                          <duration>1</duration>
                          <samplecharacteristics>
                            <anamorphic>FALSE</anamorphic>
                            <pixelaspectratio>square</pixelaspectratio>
                            <fielddominance>none</fielddominance>
                            <width>1920</width>
                            <height>1080</height>
                          </samplecharacteristics>
                        </video>
                      </media>
                    </file>
                  </clipitem>
                </track>
              </video>
            </media>
          </clip>
          <clip explodedTracks="true" frameBlend="FALSE" id="masterclip-418">
            <uuid>0cbb0fbe-3c1e-47c9-8669-5db4a8a7cf16</uuid>
            <masterclipid>masterclip-418</masterclipid>
            <ismasterclip>TRUE</ismasterclip>
            <duration>672</duration>
            <in>0</in>
            <out>672</out>
            <name>Scene - LJ visemes.416.png</name>
            <rate>
              <timebase>24</timebase>
              <ntsc>FALSE</ntsc>
            </rate>
            <media>
              <video>
                <track>
                  <clipitem frameBlend="FALSE" id="clipitem-419">
                    <name>Scene - LJ visemes.416.png</name>
                    <masterclipid>masterclip-418</masterclipid>
                    <rate>
                      <timebase>24</timebase>
                      <ntsc>FALSE</ntsc>
                    </rate>
                    <alphatype>straight</alphatype>
                    <pixelaspectratio>square</pixelaspectratio>
                    <anamorphic>FALSE</anamorphic>
                    <file id="file-418">
                      <name>Scene - LJ visemes.416.png</name>
                      <pathurl>file://localhost/Users/bot/Documents/CREATE/Character Animator/LJ visemes CH2AE/demo/Scene - LJ visemes/Scene - LJ visemes.416.png</pathurl>
                      <rate>
                        <timebase>24</timebase>
                        <ntsc>FALSE</ntsc>
                      </rate>
                      <duration>672</duration>
                      <timecode>
                        <rate>
                          <timebase>24</timebase>
                          <ntsc>FALSE</ntsc>
                        </rate>
                      </timecode>
                      <media>
                        <video>
                          <duration>1</duration>
                          <samplecharacteristics>
                            <anamorphic>FALSE</anamorphic>
                            <pixelaspectratio>square</pixelaspectratio>
                            <fielddominance>none</fielddominance>
                            <width>1920</width>
                            <height>1080</height>
                          </samplecharacteristics>
                        </video>
                      </media>
                    </file>
                  </clipitem>
                </track>
              </video>
            </media>
          </clip>
          <clip explodedTracks="true" frameBlend="FALSE" id="masterclip-419">
            <uuid>a4534b99-3699-4a84-a619-637cbb5ac994</uuid>
            <masterclipid>masterclip-419</masterclipid>
            <ismasterclip>TRUE</ismasterclip>
            <duration>672</duration>
            <in>0</in>
            <out>672</out>
            <name>Scene - LJ visemes.417.png</name>
            <rate>
              <timebase>24</timebase>
              <ntsc>FALSE</ntsc>
            </rate>
            <media>
              <video>
                <track>
                  <clipitem frameBlend="FALSE" id="clipitem-420">
                    <name>Scene - LJ visemes.417.png</name>
                    <masterclipid>masterclip-419</masterclipid>
                    <rate>
                      <timebase>24</timebase>
                      <ntsc>FALSE</ntsc>
                    </rate>
                    <alphatype>straight</alphatype>
                    <pixelaspectratio>square</pixelaspectratio>
                    <anamorphic>FALSE</anamorphic>
                    <file id="file-419">
                      <name>Scene - LJ visemes.417.png</name>
                      <pathurl>file://localhost/Users/bot/Documents/CREATE/Character Animator/LJ visemes CH2AE/demo/Scene - LJ visemes/Scene - LJ visemes.417.png</pathurl>
                      <rate>
                        <timebase>24</timebase>
                        <ntsc>FALSE</ntsc>
                      </rate>
                      <duration>672</duration>
                      <timecode>
                        <rate>
                          <timebase>24</timebase>
                          <ntsc>FALSE</ntsc>
                        </rate>
                      </timecode>
                      <media>
                        <video>
                          <duration>1</duration>
                          <samplecharacteristics>
                            <anamorphic>FALSE</anamorphic>
                            <pixelaspectratio>square</pixelaspectratio>
                            <fielddominance>none</fielddominance>
                            <width>1920</width>
                            <height>1080</height>
                          </samplecharacteristics>
                        </video>
                      </media>
                    </file>
                  </clipitem>
                </track>
              </video>
            </media>
          </clip>
          <clip explodedTracks="true" frameBlend="FALSE" id="masterclip-420">
            <uuid>bc8b8fd6-7f7f-4fde-8f6a-ee7074103ea0</uuid>
            <masterclipid>masterclip-420</masterclipid>
            <ismasterclip>TRUE</ismasterclip>
            <duration>672</duration>
            <in>0</in>
            <out>672</out>
            <name>Scene - LJ visemes.418.png</name>
            <rate>
              <timebase>24</timebase>
              <ntsc>FALSE</ntsc>
            </rate>
            <media>
              <video>
                <track>
                  <clipitem frameBlend="FALSE" id="clipitem-421">
                    <name>Scene - LJ visemes.418.png</name>
                    <masterclipid>masterclip-420</masterclipid>
                    <rate>
                      <timebase>24</timebase>
                      <ntsc>FALSE</ntsc>
                    </rate>
                    <alphatype>straight</alphatype>
                    <pixelaspectratio>square</pixelaspectratio>
                    <anamorphic>FALSE</anamorphic>
                    <file id="file-420">
                      <name>Scene - LJ visemes.418.png</name>
                      <pathurl>file://localhost/Users/bot/Documents/CREATE/Character Animator/LJ visemes CH2AE/demo/Scene - LJ visemes/Scene - LJ visemes.418.png</pathurl>
                      <rate>
                        <timebase>24</timebase>
                        <ntsc>FALSE</ntsc>
                      </rate>
                      <duration>672</duration>
                      <timecode>
                        <rate>
                          <timebase>24</timebase>
                          <ntsc>FALSE</ntsc>
                        </rate>
                      </timecode>
                      <media>
                        <video>
                          <duration>1</duration>
                          <samplecharacteristics>
                            <anamorphic>FALSE</anamorphic>
                            <pixelaspectratio>square</pixelaspectratio>
                            <fielddominance>none</fielddominance>
                            <width>1920</width>
                            <height>1080</height>
                          </samplecharacteristics>
                        </video>
                      </media>
                    </file>
                  </clipitem>
                </track>
              </video>
            </media>
          </clip>
          <clip explodedTracks="true" frameBlend="FALSE" id="masterclip-421">
            <uuid>041228f2-8926-45a8-8331-62bd9e6bd5de</uuid>
            <masterclipid>masterclip-421</masterclipid>
            <ismasterclip>TRUE</ismasterclip>
            <duration>672</duration>
            <in>0</in>
            <out>672</out>
            <name>Scene - LJ visemes.419.png</name>
            <rate>
              <timebase>24</timebase>
              <ntsc>FALSE</ntsc>
            </rate>
            <media>
              <video>
                <track>
                  <clipitem frameBlend="FALSE" id="clipitem-422">
                    <name>Scene - LJ visemes.419.png</name>
                    <masterclipid>masterclip-421</masterclipid>
                    <rate>
                      <timebase>24</timebase>
                      <ntsc>FALSE</ntsc>
                    </rate>
                    <alphatype>straight</alphatype>
                    <pixelaspectratio>square</pixelaspectratio>
                    <anamorphic>FALSE</anamorphic>
                    <file id="file-421">
                      <name>Scene - LJ visemes.419.png</name>
                      <pathurl>file://localhost/Users/bot/Documents/CREATE/Character Animator/LJ visemes CH2AE/demo/Scene - LJ visemes/Scene - LJ visemes.419.png</pathurl>
                      <rate>
                        <timebase>24</timebase>
                        <ntsc>FALSE</ntsc>
                      </rate>
                      <duration>672</duration>
                      <timecode>
                        <rate>
                          <timebase>24</timebase>
                          <ntsc>FALSE</ntsc>
                        </rate>
                      </timecode>
                      <media>
                        <video>
                          <duration>1</duration>
                          <samplecharacteristics>
                            <anamorphic>FALSE</anamorphic>
                            <pixelaspectratio>square</pixelaspectratio>
                            <fielddominance>none</fielddominance>
                            <width>1920</width>
                            <height>1080</height>
                          </samplecharacteristics>
                        </video>
                      </media>
                    </file>
                  </clipitem>
                </track>
              </video>
            </media>
          </clip>
          <clip explodedTracks="true" frameBlend="FALSE" id="masterclip-422">
            <uuid>13827ba5-4302-469b-82ec-56c06af31085</uuid>
            <masterclipid>masterclip-422</masterclipid>
            <ismasterclip>TRUE</ismasterclip>
            <duration>672</duration>
            <in>0</in>
            <out>672</out>
            <name>Scene - LJ visemes.420.png</name>
            <rate>
              <timebase>24</timebase>
              <ntsc>FALSE</ntsc>
            </rate>
            <media>
              <video>
                <track>
                  <clipitem frameBlend="FALSE" id="clipitem-423">
                    <name>Scene - LJ visemes.420.png</name>
                    <masterclipid>masterclip-422</masterclipid>
                    <rate>
                      <timebase>24</timebase>
                      <ntsc>FALSE</ntsc>
                    </rate>
                    <alphatype>straight</alphatype>
                    <pixelaspectratio>square</pixelaspectratio>
                    <anamorphic>FALSE</anamorphic>
                    <file id="file-422">
                      <name>Scene - LJ visemes.420.png</name>
                      <pathurl>file://localhost/Users/bot/Documents/CREATE/Character Animator/LJ visemes CH2AE/demo/Scene - LJ visemes/Scene - LJ visemes.420.png</pathurl>
                      <rate>
                        <timebase>24</timebase>
                        <ntsc>FALSE</ntsc>
                      </rate>
                      <duration>672</duration>
                      <timecode>
                        <rate>
                          <timebase>24</timebase>
                          <ntsc>FALSE</ntsc>
                        </rate>
                      </timecode>
                      <media>
                        <video>
                          <duration>1</duration>
                          <samplecharacteristics>
                            <anamorphic>FALSE</anamorphic>
                            <pixelaspectratio>square</pixelaspectratio>
                            <fielddominance>none</fielddominance>
                            <width>1920</width>
                            <height>1080</height>
                          </samplecharacteristics>
                        </video>
                      </media>
                    </file>
                  </clipitem>
                </track>
              </video>
            </media>
          </clip>
          <clip explodedTracks="true" frameBlend="FALSE" id="masterclip-423">
            <uuid>b37d19b4-ef7e-425d-8474-d6ce359552e0</uuid>
            <masterclipid>masterclip-423</masterclipid>
            <ismasterclip>TRUE</ismasterclip>
            <duration>672</duration>
            <in>0</in>
            <out>672</out>
            <name>Scene - LJ visemes.421.png</name>
            <rate>
              <timebase>24</timebase>
              <ntsc>FALSE</ntsc>
            </rate>
            <media>
              <video>
                <track>
                  <clipitem frameBlend="FALSE" id="clipitem-424">
                    <name>Scene - LJ visemes.421.png</name>
                    <masterclipid>masterclip-423</masterclipid>
                    <rate>
                      <timebase>24</timebase>
                      <ntsc>FALSE</ntsc>
                    </rate>
                    <alphatype>straight</alphatype>
                    <pixelaspectratio>square</pixelaspectratio>
                    <anamorphic>FALSE</anamorphic>
                    <file id="file-423">
                      <name>Scene - LJ visemes.421.png</name>
                      <pathurl>file://localhost/Users/bot/Documents/CREATE/Character Animator/LJ visemes CH2AE/demo/Scene - LJ visemes/Scene - LJ visemes.421.png</pathurl>
                      <rate>
                        <timebase>24</timebase>
                        <ntsc>FALSE</ntsc>
                      </rate>
                      <duration>672</duration>
                      <timecode>
                        <rate>
                          <timebase>24</timebase>
                          <ntsc>FALSE</ntsc>
                        </rate>
                      </timecode>
                      <media>
                        <video>
                          <duration>1</duration>
                          <samplecharacteristics>
                            <anamorphic>FALSE</anamorphic>
                            <pixelaspectratio>square</pixelaspectratio>
                            <fielddominance>none</fielddominance>
                            <width>1920</width>
                            <height>1080</height>
                          </samplecharacteristics>
                        </video>
                      </media>
                    </file>
                  </clipitem>
                </track>
              </video>
            </media>
          </clip>
          <clip explodedTracks="true" frameBlend="FALSE" id="masterclip-424">
            <uuid>19d1be66-618d-4b72-91f5-55549b6d3dcd</uuid>
            <masterclipid>masterclip-424</masterclipid>
            <ismasterclip>TRUE</ismasterclip>
            <duration>672</duration>
            <in>0</in>
            <out>672</out>
            <name>Scene - LJ visemes.422.png</name>
            <rate>
              <timebase>24</timebase>
              <ntsc>FALSE</ntsc>
            </rate>
            <media>
              <video>
                <track>
                  <clipitem frameBlend="FALSE" id="clipitem-425">
                    <name>Scene - LJ visemes.422.png</name>
                    <masterclipid>masterclip-424</masterclipid>
                    <rate>
                      <timebase>24</timebase>
                      <ntsc>FALSE</ntsc>
                    </rate>
                    <alphatype>straight</alphatype>
                    <pixelaspectratio>square</pixelaspectratio>
                    <anamorphic>FALSE</anamorphic>
                    <file id="file-424">
                      <name>Scene - LJ visemes.422.png</name>
                      <pathurl>file://localhost/Users/bot/Documents/CREATE/Character Animator/LJ visemes CH2AE/demo/Scene - LJ visemes/Scene - LJ visemes.422.png</pathurl>
                      <rate>
                        <timebase>24</timebase>
                        <ntsc>FALSE</ntsc>
                      </rate>
                      <duration>672</duration>
                      <timecode>
                        <rate>
                          <timebase>24</timebase>
                          <ntsc>FALSE</ntsc>
                        </rate>
                      </timecode>
                      <media>
                        <video>
                          <duration>1</duration>
                          <samplecharacteristics>
                            <anamorphic>FALSE</anamorphic>
                            <pixelaspectratio>square</pixelaspectratio>
                            <fielddominance>none</fielddominance>
                            <width>1920</width>
                            <height>1080</height>
                          </samplecharacteristics>
                        </video>
                      </media>
                    </file>
                  </clipitem>
                </track>
              </video>
            </media>
          </clip>
          <clip explodedTracks="true" frameBlend="FALSE" id="masterclip-425">
            <uuid>f201397e-2baa-4ad6-9a68-abb85252cb6f</uuid>
            <masterclipid>masterclip-425</masterclipid>
            <ismasterclip>TRUE</ismasterclip>
            <duration>672</duration>
            <in>0</in>
            <out>672</out>
            <name>Scene - LJ visemes.423.png</name>
            <rate>
              <timebase>24</timebase>
              <ntsc>FALSE</ntsc>
            </rate>
            <media>
              <video>
                <track>
                  <clipitem frameBlend="FALSE" id="clipitem-426">
                    <name>Scene - LJ visemes.423.png</name>
                    <masterclipid>masterclip-425</masterclipid>
                    <rate>
                      <timebase>24</timebase>
                      <ntsc>FALSE</ntsc>
                    </rate>
                    <alphatype>straight</alphatype>
                    <pixelaspectratio>square</pixelaspectratio>
                    <anamorphic>FALSE</anamorphic>
                    <file id="file-425">
                      <name>Scene - LJ visemes.423.png</name>
                      <pathurl>file://localhost/Users/bot/Documents/CREATE/Character Animator/LJ visemes CH2AE/demo/Scene - LJ visemes/Scene - LJ visemes.423.png</pathurl>
                      <rate>
                        <timebase>24</timebase>
                        <ntsc>FALSE</ntsc>
                      </rate>
                      <duration>672</duration>
                      <timecode>
                        <rate>
                          <timebase>24</timebase>
                          <ntsc>FALSE</ntsc>
                        </rate>
                      </timecode>
                      <media>
                        <video>
                          <duration>1</duration>
                          <samplecharacteristics>
                            <anamorphic>FALSE</anamorphic>
                            <pixelaspectratio>square</pixelaspectratio>
                            <fielddominance>none</fielddominance>
                            <width>1920</width>
                            <height>1080</height>
                          </samplecharacteristics>
                        </video>
                      </media>
                    </file>
                  </clipitem>
                </track>
              </video>
            </media>
          </clip>
          <clip explodedTracks="true" frameBlend="FALSE" id="masterclip-426">
            <uuid>5d02cbd1-99ef-41b0-b975-a221dfb1bd52</uuid>
            <masterclipid>masterclip-426</masterclipid>
            <ismasterclip>TRUE</ismasterclip>
            <duration>672</duration>
            <in>0</in>
            <out>672</out>
            <name>Scene - LJ visemes.424.png</name>
            <rate>
              <timebase>24</timebase>
              <ntsc>FALSE</ntsc>
            </rate>
            <media>
              <video>
                <track>
                  <clipitem frameBlend="FALSE" id="clipitem-427">
                    <name>Scene - LJ visemes.424.png</name>
                    <masterclipid>masterclip-426</masterclipid>
                    <rate>
                      <timebase>24</timebase>
                      <ntsc>FALSE</ntsc>
                    </rate>
                    <alphatype>straight</alphatype>
                    <pixelaspectratio>square</pixelaspectratio>
                    <anamorphic>FALSE</anamorphic>
                    <file id="file-426">
                      <name>Scene - LJ visemes.424.png</name>
                      <pathurl>file://localhost/Users/bot/Documents/CREATE/Character Animator/LJ visemes CH2AE/demo/Scene - LJ visemes/Scene - LJ visemes.424.png</pathurl>
                      <rate>
                        <timebase>24</timebase>
                        <ntsc>FALSE</ntsc>
                      </rate>
                      <duration>672</duration>
                      <timecode>
                        <rate>
                          <timebase>24</timebase>
                          <ntsc>FALSE</ntsc>
                        </rate>
                      </timecode>
                      <media>
                        <video>
                          <duration>1</duration>
                          <samplecharacteristics>
                            <anamorphic>FALSE</anamorphic>
                            <pixelaspectratio>square</pixelaspectratio>
                            <fielddominance>none</fielddominance>
                            <width>1920</width>
                            <height>1080</height>
                          </samplecharacteristics>
                        </video>
                      </media>
                    </file>
                  </clipitem>
                </track>
              </video>
            </media>
          </clip>
          <clip explodedTracks="true" frameBlend="FALSE" id="masterclip-427">
            <uuid>ef51f714-9a55-4350-82f6-ef8f0b8d0cf2</uuid>
            <masterclipid>masterclip-427</masterclipid>
            <ismasterclip>TRUE</ismasterclip>
            <duration>672</duration>
            <in>0</in>
            <out>672</out>
            <name>Scene - LJ visemes.425.png</name>
            <rate>
              <timebase>24</timebase>
              <ntsc>FALSE</ntsc>
            </rate>
            <media>
              <video>
                <track>
                  <clipitem frameBlend="FALSE" id="clipitem-428">
                    <name>Scene - LJ visemes.425.png</name>
                    <masterclipid>masterclip-427</masterclipid>
                    <rate>
                      <timebase>24</timebase>
                      <ntsc>FALSE</ntsc>
                    </rate>
                    <alphatype>straight</alphatype>
                    <pixelaspectratio>square</pixelaspectratio>
                    <anamorphic>FALSE</anamorphic>
                    <file id="file-427">
                      <name>Scene - LJ visemes.425.png</name>
                      <pathurl>file://localhost/Users/bot/Documents/CREATE/Character Animator/LJ visemes CH2AE/demo/Scene - LJ visemes/Scene - LJ visemes.425.png</pathurl>
                      <rate>
                        <timebase>24</timebase>
                        <ntsc>FALSE</ntsc>
                      </rate>
                      <duration>672</duration>
                      <timecode>
                        <rate>
                          <timebase>24</timebase>
                          <ntsc>FALSE</ntsc>
                        </rate>
                      </timecode>
                      <media>
                        <video>
                          <duration>1</duration>
                          <samplecharacteristics>
                            <anamorphic>FALSE</anamorphic>
                            <pixelaspectratio>square</pixelaspectratio>
                            <fielddominance>none</fielddominance>
                            <width>1920</width>
                            <height>1080</height>
                          </samplecharacteristics>
                        </video>
                      </media>
                    </file>
                  </clipitem>
                </track>
              </video>
            </media>
          </clip>
          <clip explodedTracks="true" frameBlend="FALSE" id="masterclip-428">
            <uuid>fe12274e-f2b3-4a2a-8439-c89ebeb67c44</uuid>
            <masterclipid>masterclip-428</masterclipid>
            <ismasterclip>TRUE</ismasterclip>
            <duration>672</duration>
            <in>0</in>
            <out>672</out>
            <name>Scene - LJ visemes.426.png</name>
            <rate>
              <timebase>24</timebase>
              <ntsc>FALSE</ntsc>
            </rate>
            <media>
              <video>
                <track>
                  <clipitem frameBlend="FALSE" id="clipitem-429">
                    <name>Scene - LJ visemes.426.png</name>
                    <masterclipid>masterclip-428</masterclipid>
                    <rate>
                      <timebase>24</timebase>
                      <ntsc>FALSE</ntsc>
                    </rate>
                    <alphatype>straight</alphatype>
                    <pixelaspectratio>square</pixelaspectratio>
                    <anamorphic>FALSE</anamorphic>
                    <file id="file-428">
                      <name>Scene - LJ visemes.426.png</name>
                      <pathurl>file://localhost/Users/bot/Documents/CREATE/Character Animator/LJ visemes CH2AE/demo/Scene - LJ visemes/Scene - LJ visemes.426.png</pathurl>
                      <rate>
                        <timebase>24</timebase>
                        <ntsc>FALSE</ntsc>
                      </rate>
                      <duration>672</duration>
                      <timecode>
                        <rate>
                          <timebase>24</timebase>
                          <ntsc>FALSE</ntsc>
                        </rate>
                      </timecode>
                      <media>
                        <video>
                          <duration>1</duration>
                          <samplecharacteristics>
                            <anamorphic>FALSE</anamorphic>
                            <pixelaspectratio>square</pixelaspectratio>
                            <fielddominance>none</fielddominance>
                            <width>1920</width>
                            <height>1080</height>
                          </samplecharacteristics>
                        </video>
                      </media>
                    </file>
                  </clipitem>
                </track>
              </video>
            </media>
          </clip>
          <clip explodedTracks="true" frameBlend="FALSE" id="masterclip-429">
            <uuid>10140f70-1d1d-42b0-9f0d-c3d2146544dc</uuid>
            <masterclipid>masterclip-429</masterclipid>
            <ismasterclip>TRUE</ismasterclip>
            <duration>672</duration>
            <in>0</in>
            <out>672</out>
            <name>Scene - LJ visemes.427.png</name>
            <rate>
              <timebase>24</timebase>
              <ntsc>FALSE</ntsc>
            </rate>
            <media>
              <video>
                <track>
                  <clipitem frameBlend="FALSE" id="clipitem-430">
                    <name>Scene - LJ visemes.427.png</name>
                    <masterclipid>masterclip-429</masterclipid>
                    <rate>
                      <timebase>24</timebase>
                      <ntsc>FALSE</ntsc>
                    </rate>
                    <alphatype>straight</alphatype>
                    <pixelaspectratio>square</pixelaspectratio>
                    <anamorphic>FALSE</anamorphic>
                    <file id="file-429">
                      <name>Scene - LJ visemes.427.png</name>
                      <pathurl>file://localhost/Users/bot/Documents/CREATE/Character Animator/LJ visemes CH2AE/demo/Scene - LJ visemes/Scene - LJ visemes.427.png</pathurl>
                      <rate>
                        <timebase>24</timebase>
                        <ntsc>FALSE</ntsc>
                      </rate>
                      <duration>672</duration>
                      <timecode>
                        <rate>
                          <timebase>24</timebase>
                          <ntsc>FALSE</ntsc>
                        </rate>
                      </timecode>
                      <media>
                        <video>
                          <duration>1</duration>
                          <samplecharacteristics>
                            <anamorphic>FALSE</anamorphic>
                            <pixelaspectratio>square</pixelaspectratio>
                            <fielddominance>none</fielddominance>
                            <width>1920</width>
                            <height>1080</height>
                          </samplecharacteristics>
                        </video>
                      </media>
                    </file>
                  </clipitem>
                </track>
              </video>
            </media>
          </clip>
          <clip explodedTracks="true" frameBlend="FALSE" id="masterclip-430">
            <uuid>c45c2bb3-8860-4437-96a3-596013dada51</uuid>
            <masterclipid>masterclip-430</masterclipid>
            <ismasterclip>TRUE</ismasterclip>
            <duration>672</duration>
            <in>0</in>
            <out>672</out>
            <name>Scene - LJ visemes.428.png</name>
            <rate>
              <timebase>24</timebase>
              <ntsc>FALSE</ntsc>
            </rate>
            <media>
              <video>
                <track>
                  <clipitem frameBlend="FALSE" id="clipitem-431">
                    <name>Scene - LJ visemes.428.png</name>
                    <masterclipid>masterclip-430</masterclipid>
                    <rate>
                      <timebase>24</timebase>
                      <ntsc>FALSE</ntsc>
                    </rate>
                    <alphatype>straight</alphatype>
                    <pixelaspectratio>square</pixelaspectratio>
                    <anamorphic>FALSE</anamorphic>
                    <file id="file-430">
                      <name>Scene - LJ visemes.428.png</name>
                      <pathurl>file://localhost/Users/bot/Documents/CREATE/Character Animator/LJ visemes CH2AE/demo/Scene - LJ visemes/Scene - LJ visemes.428.png</pathurl>
                      <rate>
                        <timebase>24</timebase>
                        <ntsc>FALSE</ntsc>
                      </rate>
                      <duration>672</duration>
                      <timecode>
                        <rate>
                          <timebase>24</timebase>
                          <ntsc>FALSE</ntsc>
                        </rate>
                      </timecode>
                      <media>
                        <video>
                          <duration>1</duration>
                          <samplecharacteristics>
                            <anamorphic>FALSE</anamorphic>
                            <pixelaspectratio>square</pixelaspectratio>
                            <fielddominance>none</fielddominance>
                            <width>1920</width>
                            <height>1080</height>
                          </samplecharacteristics>
                        </video>
                      </media>
                    </file>
                  </clipitem>
                </track>
              </video>
            </media>
          </clip>
          <clip explodedTracks="true" frameBlend="FALSE" id="masterclip-431">
            <uuid>9e6f7f30-d5ff-49bb-a88e-f76dbda7c132</uuid>
            <masterclipid>masterclip-431</masterclipid>
            <ismasterclip>TRUE</ismasterclip>
            <duration>672</duration>
            <in>0</in>
            <out>672</out>
            <name>Scene - LJ visemes.429.png</name>
            <rate>
              <timebase>24</timebase>
              <ntsc>FALSE</ntsc>
            </rate>
            <media>
              <video>
                <track>
                  <clipitem frameBlend="FALSE" id="clipitem-432">
                    <name>Scene - LJ visemes.429.png</name>
                    <masterclipid>masterclip-431</masterclipid>
                    <rate>
                      <timebase>24</timebase>
                      <ntsc>FALSE</ntsc>
                    </rate>
                    <alphatype>straight</alphatype>
                    <pixelaspectratio>square</pixelaspectratio>
                    <anamorphic>FALSE</anamorphic>
                    <file id="file-431">
                      <name>Scene - LJ visemes.429.png</name>
                      <pathurl>file://localhost/Users/bot/Documents/CREATE/Character Animator/LJ visemes CH2AE/demo/Scene - LJ visemes/Scene - LJ visemes.429.png</pathurl>
                      <rate>
                        <timebase>24</timebase>
                        <ntsc>FALSE</ntsc>
                      </rate>
                      <duration>672</duration>
                      <timecode>
                        <rate>
                          <timebase>24</timebase>
                          <ntsc>FALSE</ntsc>
                        </rate>
                      </timecode>
                      <media>
                        <video>
                          <duration>1</duration>
                          <samplecharacteristics>
                            <anamorphic>FALSE</anamorphic>
                            <pixelaspectratio>square</pixelaspectratio>
                            <fielddominance>none</fielddominance>
                            <width>1920</width>
                            <height>1080</height>
                          </samplecharacteristics>
                        </video>
                      </media>
                    </file>
                  </clipitem>
                </track>
              </video>
            </media>
          </clip>
          <clip explodedTracks="true" frameBlend="FALSE" id="masterclip-432">
            <uuid>af24b4ab-d2d4-4ac2-95be-dba594f7c47a</uuid>
            <masterclipid>masterclip-432</masterclipid>
            <ismasterclip>TRUE</ismasterclip>
            <duration>672</duration>
            <in>0</in>
            <out>672</out>
            <name>Scene - LJ visemes.430.png</name>
            <rate>
              <timebase>24</timebase>
              <ntsc>FALSE</ntsc>
            </rate>
            <media>
              <video>
                <track>
                  <clipitem frameBlend="FALSE" id="clipitem-433">
                    <name>Scene - LJ visemes.430.png</name>
                    <masterclipid>masterclip-432</masterclipid>
                    <rate>
                      <timebase>24</timebase>
                      <ntsc>FALSE</ntsc>
                    </rate>
                    <alphatype>straight</alphatype>
                    <pixelaspectratio>square</pixelaspectratio>
                    <anamorphic>FALSE</anamorphic>
                    <file id="file-432">
                      <name>Scene - LJ visemes.430.png</name>
                      <pathurl>file://localhost/Users/bot/Documents/CREATE/Character Animator/LJ visemes CH2AE/demo/Scene - LJ visemes/Scene - LJ visemes.430.png</pathurl>
                      <rate>
                        <timebase>24</timebase>
                        <ntsc>FALSE</ntsc>
                      </rate>
                      <duration>672</duration>
                      <timecode>
                        <rate>
                          <timebase>24</timebase>
                          <ntsc>FALSE</ntsc>
                        </rate>
                      </timecode>
                      <media>
                        <video>
                          <duration>1</duration>
                          <samplecharacteristics>
                            <anamorphic>FALSE</anamorphic>
                            <pixelaspectratio>square</pixelaspectratio>
                            <fielddominance>none</fielddominance>
                            <width>1920</width>
                            <height>1080</height>
                          </samplecharacteristics>
                        </video>
                      </media>
                    </file>
                  </clipitem>
                </track>
              </video>
            </media>
          </clip>
          <clip explodedTracks="true" frameBlend="FALSE" id="masterclip-433">
            <uuid>86e51268-3c39-4947-8a24-7dff1c889a16</uuid>
            <masterclipid>masterclip-433</masterclipid>
            <ismasterclip>TRUE</ismasterclip>
            <duration>672</duration>
            <in>0</in>
            <out>672</out>
            <name>Scene - LJ visemes.431.png</name>
            <rate>
              <timebase>24</timebase>
              <ntsc>FALSE</ntsc>
            </rate>
            <media>
              <video>
                <track>
                  <clipitem frameBlend="FALSE" id="clipitem-434">
                    <name>Scene - LJ visemes.431.png</name>
                    <masterclipid>masterclip-433</masterclipid>
                    <rate>
                      <timebase>24</timebase>
                      <ntsc>FALSE</ntsc>
                    </rate>
                    <alphatype>straight</alphatype>
                    <pixelaspectratio>square</pixelaspectratio>
                    <anamorphic>FALSE</anamorphic>
                    <file id="file-433">
                      <name>Scene - LJ visemes.431.png</name>
                      <pathurl>file://localhost/Users/bot/Documents/CREATE/Character Animator/LJ visemes CH2AE/demo/Scene - LJ visemes/Scene - LJ visemes.431.png</pathurl>
                      <rate>
                        <timebase>24</timebase>
                        <ntsc>FALSE</ntsc>
                      </rate>
                      <duration>672</duration>
                      <timecode>
                        <rate>
                          <timebase>24</timebase>
                          <ntsc>FALSE</ntsc>
                        </rate>
                      </timecode>
                      <media>
                        <video>
                          <duration>1</duration>
                          <samplecharacteristics>
                            <anamorphic>FALSE</anamorphic>
                            <pixelaspectratio>square</pixelaspectratio>
                            <fielddominance>none</fielddominance>
                            <width>1920</width>
                            <height>1080</height>
                          </samplecharacteristics>
                        </video>
                      </media>
                    </file>
                  </clipitem>
                </track>
              </video>
            </media>
          </clip>
          <clip explodedTracks="true" frameBlend="FALSE" id="masterclip-434">
            <uuid>aa7af804-d82a-46bc-9ed0-27756c2c483e</uuid>
            <masterclipid>masterclip-434</masterclipid>
            <ismasterclip>TRUE</ismasterclip>
            <duration>672</duration>
            <in>0</in>
            <out>672</out>
            <name>Scene - LJ visemes.432.png</name>
            <rate>
              <timebase>24</timebase>
              <ntsc>FALSE</ntsc>
            </rate>
            <media>
              <video>
                <track>
                  <clipitem frameBlend="FALSE" id="clipitem-435">
                    <name>Scene - LJ visemes.432.png</name>
                    <masterclipid>masterclip-434</masterclipid>
                    <rate>
                      <timebase>24</timebase>
                      <ntsc>FALSE</ntsc>
                    </rate>
                    <alphatype>straight</alphatype>
                    <pixelaspectratio>square</pixelaspectratio>
                    <anamorphic>FALSE</anamorphic>
                    <file id="file-434">
                      <name>Scene - LJ visemes.432.png</name>
                      <pathurl>file://localhost/Users/bot/Documents/CREATE/Character Animator/LJ visemes CH2AE/demo/Scene - LJ visemes/Scene - LJ visemes.432.png</pathurl>
                      <rate>
                        <timebase>24</timebase>
                        <ntsc>FALSE</ntsc>
                      </rate>
                      <duration>672</duration>
                      <timecode>
                        <rate>
                          <timebase>24</timebase>
                          <ntsc>FALSE</ntsc>
                        </rate>
                      </timecode>
                      <media>
                        <video>
                          <duration>1</duration>
                          <samplecharacteristics>
                            <anamorphic>FALSE</anamorphic>
                            <pixelaspectratio>square</pixelaspectratio>
                            <fielddominance>none</fielddominance>
                            <width>1920</width>
                            <height>1080</height>
                          </samplecharacteristics>
                        </video>
                      </media>
                    </file>
                  </clipitem>
                </track>
              </video>
            </media>
          </clip>
          <clip explodedTracks="true" frameBlend="FALSE" id="masterclip-435">
            <uuid>e153b680-6c51-4b22-9c21-ca1c76c6b1c2</uuid>
            <masterclipid>masterclip-435</masterclipid>
            <ismasterclip>TRUE</ismasterclip>
            <duration>672</duration>
            <in>0</in>
            <out>672</out>
            <name>Scene - LJ visemes.433.png</name>
            <rate>
              <timebase>24</timebase>
              <ntsc>FALSE</ntsc>
            </rate>
            <media>
              <video>
                <track>
                  <clipitem frameBlend="FALSE" id="clipitem-436">
                    <name>Scene - LJ visemes.433.png</name>
                    <masterclipid>masterclip-435</masterclipid>
                    <rate>
                      <timebase>24</timebase>
                      <ntsc>FALSE</ntsc>
                    </rate>
                    <alphatype>straight</alphatype>
                    <pixelaspectratio>square</pixelaspectratio>
                    <anamorphic>FALSE</anamorphic>
                    <file id="file-435">
                      <name>Scene - LJ visemes.433.png</name>
                      <pathurl>file://localhost/Users/bot/Documents/CREATE/Character Animator/LJ visemes CH2AE/demo/Scene - LJ visemes/Scene - LJ visemes.433.png</pathurl>
                      <rate>
                        <timebase>24</timebase>
                        <ntsc>FALSE</ntsc>
                      </rate>
                      <duration>672</duration>
                      <timecode>
                        <rate>
                          <timebase>24</timebase>
                          <ntsc>FALSE</ntsc>
                        </rate>
                      </timecode>
                      <media>
                        <video>
                          <duration>1</duration>
                          <samplecharacteristics>
                            <anamorphic>FALSE</anamorphic>
                            <pixelaspectratio>square</pixelaspectratio>
                            <fielddominance>none</fielddominance>
                            <width>1920</width>
                            <height>1080</height>
                          </samplecharacteristics>
                        </video>
                      </media>
                    </file>
                  </clipitem>
                </track>
              </video>
            </media>
          </clip>
          <clip explodedTracks="true" frameBlend="FALSE" id="masterclip-436">
            <uuid>1f70c126-dcb4-4c24-8801-dd2be6137ab4</uuid>
            <masterclipid>masterclip-436</masterclipid>
            <ismasterclip>TRUE</ismasterclip>
            <duration>672</duration>
            <in>0</in>
            <out>672</out>
            <name>Scene - LJ visemes.434.png</name>
            <rate>
              <timebase>24</timebase>
              <ntsc>FALSE</ntsc>
            </rate>
            <media>
              <video>
                <track>
                  <clipitem frameBlend="FALSE" id="clipitem-437">
                    <name>Scene - LJ visemes.434.png</name>
                    <masterclipid>masterclip-436</masterclipid>
                    <rate>
                      <timebase>24</timebase>
                      <ntsc>FALSE</ntsc>
                    </rate>
                    <alphatype>straight</alphatype>
                    <pixelaspectratio>square</pixelaspectratio>
                    <anamorphic>FALSE</anamorphic>
                    <file id="file-436">
                      <name>Scene - LJ visemes.434.png</name>
                      <pathurl>file://localhost/Users/bot/Documents/CREATE/Character Animator/LJ visemes CH2AE/demo/Scene - LJ visemes/Scene - LJ visemes.434.png</pathurl>
                      <rate>
                        <timebase>24</timebase>
                        <ntsc>FALSE</ntsc>
                      </rate>
                      <duration>672</duration>
                      <timecode>
                        <rate>
                          <timebase>24</timebase>
                          <ntsc>FALSE</ntsc>
                        </rate>
                      </timecode>
                      <media>
                        <video>
                          <duration>1</duration>
                          <samplecharacteristics>
                            <anamorphic>FALSE</anamorphic>
                            <pixelaspectratio>square</pixelaspectratio>
                            <fielddominance>none</fielddominance>
                            <width>1920</width>
                            <height>1080</height>
                          </samplecharacteristics>
                        </video>
                      </media>
                    </file>
                  </clipitem>
                </track>
              </video>
            </media>
          </clip>
          <clip explodedTracks="true" frameBlend="FALSE" id="masterclip-437">
            <uuid>dded271a-8a3d-4224-b540-156c1c85f428</uuid>
            <masterclipid>masterclip-437</masterclipid>
            <ismasterclip>TRUE</ismasterclip>
            <duration>672</duration>
            <in>0</in>
            <out>672</out>
            <name>Scene - LJ visemes.435.png</name>
            <rate>
              <timebase>24</timebase>
              <ntsc>FALSE</ntsc>
            </rate>
            <media>
              <video>
                <track>
                  <clipitem frameBlend="FALSE" id="clipitem-438">
                    <name>Scene - LJ visemes.435.png</name>
                    <masterclipid>masterclip-437</masterclipid>
                    <rate>
                      <timebase>24</timebase>
                      <ntsc>FALSE</ntsc>
                    </rate>
                    <alphatype>straight</alphatype>
                    <pixelaspectratio>square</pixelaspectratio>
                    <anamorphic>FALSE</anamorphic>
                    <file id="file-437">
                      <name>Scene - LJ visemes.435.png</name>
                      <pathurl>file://localhost/Users/bot/Documents/CREATE/Character Animator/LJ visemes CH2AE/demo/Scene - LJ visemes/Scene - LJ visemes.435.png</pathurl>
                      <rate>
                        <timebase>24</timebase>
                        <ntsc>FALSE</ntsc>
                      </rate>
                      <duration>672</duration>
                      <timecode>
                        <rate>
                          <timebase>24</timebase>
                          <ntsc>FALSE</ntsc>
                        </rate>
                      </timecode>
                      <media>
                        <video>
                          <duration>1</duration>
                          <samplecharacteristics>
                            <anamorphic>FALSE</anamorphic>
                            <pixelaspectratio>square</pixelaspectratio>
                            <fielddominance>none</fielddominance>
                            <width>1920</width>
                            <height>1080</height>
                          </samplecharacteristics>
                        </video>
                      </media>
                    </file>
                  </clipitem>
                </track>
              </video>
            </media>
          </clip>
          <clip explodedTracks="true" frameBlend="FALSE" id="masterclip-438">
            <uuid>71dabc59-9fb8-40f1-8f81-3ee272d2c48d</uuid>
            <masterclipid>masterclip-438</masterclipid>
            <ismasterclip>TRUE</ismasterclip>
            <duration>672</duration>
            <in>0</in>
            <out>672</out>
            <name>Scene - LJ visemes.436.png</name>
            <rate>
              <timebase>24</timebase>
              <ntsc>FALSE</ntsc>
            </rate>
            <media>
              <video>
                <track>
                  <clipitem frameBlend="FALSE" id="clipitem-439">
                    <name>Scene - LJ visemes.436.png</name>
                    <masterclipid>masterclip-438</masterclipid>
                    <rate>
                      <timebase>24</timebase>
                      <ntsc>FALSE</ntsc>
                    </rate>
                    <alphatype>straight</alphatype>
                    <pixelaspectratio>square</pixelaspectratio>
                    <anamorphic>FALSE</anamorphic>
                    <file id="file-438">
                      <name>Scene - LJ visemes.436.png</name>
                      <pathurl>file://localhost/Users/bot/Documents/CREATE/Character Animator/LJ visemes CH2AE/demo/Scene - LJ visemes/Scene - LJ visemes.436.png</pathurl>
                      <rate>
                        <timebase>24</timebase>
                        <ntsc>FALSE</ntsc>
                      </rate>
                      <duration>672</duration>
                      <timecode>
                        <rate>
                          <timebase>24</timebase>
                          <ntsc>FALSE</ntsc>
                        </rate>
                      </timecode>
                      <media>
                        <video>
                          <duration>1</duration>
                          <samplecharacteristics>
                            <anamorphic>FALSE</anamorphic>
                            <pixelaspectratio>square</pixelaspectratio>
                            <fielddominance>none</fielddominance>
                            <width>1920</width>
                            <height>1080</height>
                          </samplecharacteristics>
                        </video>
                      </media>
                    </file>
                  </clipitem>
                </track>
              </video>
            </media>
          </clip>
          <clip explodedTracks="true" frameBlend="FALSE" id="masterclip-439">
            <uuid>a05ccaba-8475-4209-bb26-9ea9ed3f3071</uuid>
            <masterclipid>masterclip-439</masterclipid>
            <ismasterclip>TRUE</ismasterclip>
            <duration>672</duration>
            <in>0</in>
            <out>672</out>
            <name>Scene - LJ visemes.437.png</name>
            <rate>
              <timebase>24</timebase>
              <ntsc>FALSE</ntsc>
            </rate>
            <media>
              <video>
                <track>
                  <clipitem frameBlend="FALSE" id="clipitem-440">
                    <name>Scene - LJ visemes.437.png</name>
                    <masterclipid>masterclip-439</masterclipid>
                    <rate>
                      <timebase>24</timebase>
                      <ntsc>FALSE</ntsc>
                    </rate>
                    <alphatype>straight</alphatype>
                    <pixelaspectratio>square</pixelaspectratio>
                    <anamorphic>FALSE</anamorphic>
                    <file id="file-439">
                      <name>Scene - LJ visemes.437.png</name>
                      <pathurl>file://localhost/Users/bot/Documents/CREATE/Character Animator/LJ visemes CH2AE/demo/Scene - LJ visemes/Scene - LJ visemes.437.png</pathurl>
                      <rate>
                        <timebase>24</timebase>
                        <ntsc>FALSE</ntsc>
                      </rate>
                      <duration>672</duration>
                      <timecode>
                        <rate>
                          <timebase>24</timebase>
                          <ntsc>FALSE</ntsc>
                        </rate>
                      </timecode>
                      <media>
                        <video>
                          <duration>1</duration>
                          <samplecharacteristics>
                            <anamorphic>FALSE</anamorphic>
                            <pixelaspectratio>square</pixelaspectratio>
                            <fielddominance>none</fielddominance>
                            <width>1920</width>
                            <height>1080</height>
                          </samplecharacteristics>
                        </video>
                      </media>
                    </file>
                  </clipitem>
                </track>
              </video>
            </media>
          </clip>
          <clip explodedTracks="true" frameBlend="FALSE" id="masterclip-440">
            <uuid>49f1fb00-2b2e-4408-bd54-112ae4069770</uuid>
            <masterclipid>masterclip-440</masterclipid>
            <ismasterclip>TRUE</ismasterclip>
            <duration>672</duration>
            <in>0</in>
            <out>672</out>
            <name>Scene - LJ visemes.438.png</name>
            <rate>
              <timebase>24</timebase>
              <ntsc>FALSE</ntsc>
            </rate>
            <media>
              <video>
                <track>
                  <clipitem frameBlend="FALSE" id="clipitem-441">
                    <name>Scene - LJ visemes.438.png</name>
                    <masterclipid>masterclip-440</masterclipid>
                    <rate>
                      <timebase>24</timebase>
                      <ntsc>FALSE</ntsc>
                    </rate>
                    <alphatype>straight</alphatype>
                    <pixelaspectratio>square</pixelaspectratio>
                    <anamorphic>FALSE</anamorphic>
                    <file id="file-440">
                      <name>Scene - LJ visemes.438.png</name>
                      <pathurl>file://localhost/Users/bot/Documents/CREATE/Character Animator/LJ visemes CH2AE/demo/Scene - LJ visemes/Scene - LJ visemes.438.png</pathurl>
                      <rate>
                        <timebase>24</timebase>
                        <ntsc>FALSE</ntsc>
                      </rate>
                      <duration>672</duration>
                      <timecode>
                        <rate>
                          <timebase>24</timebase>
                          <ntsc>FALSE</ntsc>
                        </rate>
                      </timecode>
                      <media>
                        <video>
                          <duration>1</duration>
                          <samplecharacteristics>
                            <anamorphic>FALSE</anamorphic>
                            <pixelaspectratio>square</pixelaspectratio>
                            <fielddominance>none</fielddominance>
                            <width>1920</width>
                            <height>1080</height>
                          </samplecharacteristics>
                        </video>
                      </media>
                    </file>
                  </clipitem>
                </track>
              </video>
            </media>
          </clip>
          <clip explodedTracks="true" frameBlend="FALSE" id="masterclip-441">
            <uuid>0e323adb-a1fb-406d-86b3-14ccd402014a</uuid>
            <masterclipid>masterclip-441</masterclipid>
            <ismasterclip>TRUE</ismasterclip>
            <duration>672</duration>
            <in>0</in>
            <out>672</out>
            <name>Scene - LJ visemes.439.png</name>
            <rate>
              <timebase>24</timebase>
              <ntsc>FALSE</ntsc>
            </rate>
            <media>
              <video>
                <track>
                  <clipitem frameBlend="FALSE" id="clipitem-442">
                    <name>Scene - LJ visemes.439.png</name>
                    <masterclipid>masterclip-441</masterclipid>
                    <rate>
                      <timebase>24</timebase>
                      <ntsc>FALSE</ntsc>
                    </rate>
                    <alphatype>straight</alphatype>
                    <pixelaspectratio>square</pixelaspectratio>
                    <anamorphic>FALSE</anamorphic>
                    <file id="file-441">
                      <name>Scene - LJ visemes.439.png</name>
                      <pathurl>file://localhost/Users/bot/Documents/CREATE/Character Animator/LJ visemes CH2AE/demo/Scene - LJ visemes/Scene - LJ visemes.439.png</pathurl>
                      <rate>
                        <timebase>24</timebase>
                        <ntsc>FALSE</ntsc>
                      </rate>
                      <duration>672</duration>
                      <timecode>
                        <rate>
                          <timebase>24</timebase>
                          <ntsc>FALSE</ntsc>
                        </rate>
                      </timecode>
                      <media>
                        <video>
                          <duration>1</duration>
                          <samplecharacteristics>
                            <anamorphic>FALSE</anamorphic>
                            <pixelaspectratio>square</pixelaspectratio>
                            <fielddominance>none</fielddominance>
                            <width>1920</width>
                            <height>1080</height>
                          </samplecharacteristics>
                        </video>
                      </media>
                    </file>
                  </clipitem>
                </track>
              </video>
            </media>
          </clip>
          <clip explodedTracks="true" frameBlend="FALSE" id="masterclip-442">
            <uuid>872b8bb9-e834-445e-8275-e9d2adee58af</uuid>
            <masterclipid>masterclip-442</masterclipid>
            <ismasterclip>TRUE</ismasterclip>
            <duration>672</duration>
            <in>0</in>
            <out>672</out>
            <name>Scene - LJ visemes.440.png</name>
            <rate>
              <timebase>24</timebase>
              <ntsc>FALSE</ntsc>
            </rate>
            <media>
              <video>
                <track>
                  <clipitem frameBlend="FALSE" id="clipitem-443">
                    <name>Scene - LJ visemes.440.png</name>
                    <masterclipid>masterclip-442</masterclipid>
                    <rate>
                      <timebase>24</timebase>
                      <ntsc>FALSE</ntsc>
                    </rate>
                    <alphatype>straight</alphatype>
                    <pixelaspectratio>square</pixelaspectratio>
                    <anamorphic>FALSE</anamorphic>
                    <file id="file-442">
                      <name>Scene - LJ visemes.440.png</name>
                      <pathurl>file://localhost/Users/bot/Documents/CREATE/Character Animator/LJ visemes CH2AE/demo/Scene - LJ visemes/Scene - LJ visemes.440.png</pathurl>
                      <rate>
                        <timebase>24</timebase>
                        <ntsc>FALSE</ntsc>
                      </rate>
                      <duration>672</duration>
                      <timecode>
                        <rate>
                          <timebase>24</timebase>
                          <ntsc>FALSE</ntsc>
                        </rate>
                      </timecode>
                      <media>
                        <video>
                          <duration>1</duration>
                          <samplecharacteristics>
                            <anamorphic>FALSE</anamorphic>
                            <pixelaspectratio>square</pixelaspectratio>
                            <fielddominance>none</fielddominance>
                            <width>1920</width>
                            <height>1080</height>
                          </samplecharacteristics>
                        </video>
                      </media>
                    </file>
                  </clipitem>
                </track>
              </video>
            </media>
          </clip>
          <clip explodedTracks="true" frameBlend="FALSE" id="masterclip-443">
            <uuid>65cc6ec3-cde8-43a8-9cc3-5b2ae9c68b70</uuid>
            <masterclipid>masterclip-443</masterclipid>
            <ismasterclip>TRUE</ismasterclip>
            <duration>672</duration>
            <in>0</in>
            <out>672</out>
            <name>Scene - LJ visemes.441.png</name>
            <rate>
              <timebase>24</timebase>
              <ntsc>FALSE</ntsc>
            </rate>
            <media>
              <video>
                <track>
                  <clipitem frameBlend="FALSE" id="clipitem-444">
                    <name>Scene - LJ visemes.441.png</name>
                    <masterclipid>masterclip-443</masterclipid>
                    <rate>
                      <timebase>24</timebase>
                      <ntsc>FALSE</ntsc>
                    </rate>
                    <alphatype>straight</alphatype>
                    <pixelaspectratio>square</pixelaspectratio>
                    <anamorphic>FALSE</anamorphic>
                    <file id="file-443">
                      <name>Scene - LJ visemes.441.png</name>
                      <pathurl>file://localhost/Users/bot/Documents/CREATE/Character Animator/LJ visemes CH2AE/demo/Scene - LJ visemes/Scene - LJ visemes.441.png</pathurl>
                      <rate>
                        <timebase>24</timebase>
                        <ntsc>FALSE</ntsc>
                      </rate>
                      <duration>672</duration>
                      <timecode>
                        <rate>
                          <timebase>24</timebase>
                          <ntsc>FALSE</ntsc>
                        </rate>
                      </timecode>
                      <media>
                        <video>
                          <duration>1</duration>
                          <samplecharacteristics>
                            <anamorphic>FALSE</anamorphic>
                            <pixelaspectratio>square</pixelaspectratio>
                            <fielddominance>none</fielddominance>
                            <width>1920</width>
                            <height>1080</height>
                          </samplecharacteristics>
                        </video>
                      </media>
                    </file>
                  </clipitem>
                </track>
              </video>
            </media>
          </clip>
          <clip explodedTracks="true" frameBlend="FALSE" id="masterclip-444">
            <uuid>f45c31cf-9af0-4303-8de9-a8cafa6d627c</uuid>
            <masterclipid>masterclip-444</masterclipid>
            <ismasterclip>TRUE</ismasterclip>
            <duration>672</duration>
            <in>0</in>
            <out>672</out>
            <name>Scene - LJ visemes.442.png</name>
            <rate>
              <timebase>24</timebase>
              <ntsc>FALSE</ntsc>
            </rate>
            <media>
              <video>
                <track>
                  <clipitem frameBlend="FALSE" id="clipitem-445">
                    <name>Scene - LJ visemes.442.png</name>
                    <masterclipid>masterclip-444</masterclipid>
                    <rate>
                      <timebase>24</timebase>
                      <ntsc>FALSE</ntsc>
                    </rate>
                    <alphatype>straight</alphatype>
                    <pixelaspectratio>square</pixelaspectratio>
                    <anamorphic>FALSE</anamorphic>
                    <file id="file-444">
                      <name>Scene - LJ visemes.442.png</name>
                      <pathurl>file://localhost/Users/bot/Documents/CREATE/Character Animator/LJ visemes CH2AE/demo/Scene - LJ visemes/Scene - LJ visemes.442.png</pathurl>
                      <rate>
                        <timebase>24</timebase>
                        <ntsc>FALSE</ntsc>
                      </rate>
                      <duration>672</duration>
                      <timecode>
                        <rate>
                          <timebase>24</timebase>
                          <ntsc>FALSE</ntsc>
                        </rate>
                      </timecode>
                      <media>
                        <video>
                          <duration>1</duration>
                          <samplecharacteristics>
                            <anamorphic>FALSE</anamorphic>
                            <pixelaspectratio>square</pixelaspectratio>
                            <fielddominance>none</fielddominance>
                            <width>1920</width>
                            <height>1080</height>
                          </samplecharacteristics>
                        </video>
                      </media>
                    </file>
                  </clipitem>
                </track>
              </video>
            </media>
          </clip>
          <clip explodedTracks="true" frameBlend="FALSE" id="masterclip-445">
            <uuid>27278625-12e7-4489-8fc3-538af39674e1</uuid>
            <masterclipid>masterclip-445</masterclipid>
            <ismasterclip>TRUE</ismasterclip>
            <duration>672</duration>
            <in>0</in>
            <out>672</out>
            <name>Scene - LJ visemes.443.png</name>
            <rate>
              <timebase>24</timebase>
              <ntsc>FALSE</ntsc>
            </rate>
            <media>
              <video>
                <track>
                  <clipitem frameBlend="FALSE" id="clipitem-446">
                    <name>Scene - LJ visemes.443.png</name>
                    <masterclipid>masterclip-445</masterclipid>
                    <rate>
                      <timebase>24</timebase>
                      <ntsc>FALSE</ntsc>
                    </rate>
                    <alphatype>straight</alphatype>
                    <pixelaspectratio>square</pixelaspectratio>
                    <anamorphic>FALSE</anamorphic>
                    <file id="file-445">
                      <name>Scene - LJ visemes.443.png</name>
                      <pathurl>file://localhost/Users/bot/Documents/CREATE/Character Animator/LJ visemes CH2AE/demo/Scene - LJ visemes/Scene - LJ visemes.443.png</pathurl>
                      <rate>
                        <timebase>24</timebase>
                        <ntsc>FALSE</ntsc>
                      </rate>
                      <duration>672</duration>
                      <timecode>
                        <rate>
                          <timebase>24</timebase>
                          <ntsc>FALSE</ntsc>
                        </rate>
                      </timecode>
                      <media>
                        <video>
                          <duration>1</duration>
                          <samplecharacteristics>
                            <anamorphic>FALSE</anamorphic>
                            <pixelaspectratio>square</pixelaspectratio>
                            <fielddominance>none</fielddominance>
                            <width>1920</width>
                            <height>1080</height>
                          </samplecharacteristics>
                        </video>
                      </media>
                    </file>
                  </clipitem>
                </track>
              </video>
            </media>
          </clip>
          <clip explodedTracks="true" frameBlend="FALSE" id="masterclip-446">
            <uuid>bf1ec5f1-307f-4ef7-898f-d7e945c3f509</uuid>
            <masterclipid>masterclip-446</masterclipid>
            <ismasterclip>TRUE</ismasterclip>
            <duration>672</duration>
            <in>0</in>
            <out>672</out>
            <name>Scene - LJ visemes.444.png</name>
            <rate>
              <timebase>24</timebase>
              <ntsc>FALSE</ntsc>
            </rate>
            <media>
              <video>
                <track>
                  <clipitem frameBlend="FALSE" id="clipitem-447">
                    <name>Scene - LJ visemes.444.png</name>
                    <masterclipid>masterclip-446</masterclipid>
                    <rate>
                      <timebase>24</timebase>
                      <ntsc>FALSE</ntsc>
                    </rate>
                    <alphatype>straight</alphatype>
                    <pixelaspectratio>square</pixelaspectratio>
                    <anamorphic>FALSE</anamorphic>
                    <file id="file-446">
                      <name>Scene - LJ visemes.444.png</name>
                      <pathurl>file://localhost/Users/bot/Documents/CREATE/Character Animator/LJ visemes CH2AE/demo/Scene - LJ visemes/Scene - LJ visemes.444.png</pathurl>
                      <rate>
                        <timebase>24</timebase>
                        <ntsc>FALSE</ntsc>
                      </rate>
                      <duration>672</duration>
                      <timecode>
                        <rate>
                          <timebase>24</timebase>
                          <ntsc>FALSE</ntsc>
                        </rate>
                      </timecode>
                      <media>
                        <video>
                          <duration>1</duration>
                          <samplecharacteristics>
                            <anamorphic>FALSE</anamorphic>
                            <pixelaspectratio>square</pixelaspectratio>
                            <fielddominance>none</fielddominance>
                            <width>1920</width>
                            <height>1080</height>
                          </samplecharacteristics>
                        </video>
                      </media>
                    </file>
                  </clipitem>
                </track>
              </video>
            </media>
          </clip>
          <clip explodedTracks="true" frameBlend="FALSE" id="masterclip-447">
            <uuid>d10201f7-0f4a-4f0d-ae1a-87fac8650921</uuid>
            <masterclipid>masterclip-447</masterclipid>
            <ismasterclip>TRUE</ismasterclip>
            <duration>672</duration>
            <in>0</in>
            <out>672</out>
            <name>Scene - LJ visemes.445.png</name>
            <rate>
              <timebase>24</timebase>
              <ntsc>FALSE</ntsc>
            </rate>
            <media>
              <video>
                <track>
                  <clipitem frameBlend="FALSE" id="clipitem-448">
                    <name>Scene - LJ visemes.445.png</name>
                    <masterclipid>masterclip-447</masterclipid>
                    <rate>
                      <timebase>24</timebase>
                      <ntsc>FALSE</ntsc>
                    </rate>
                    <alphatype>straight</alphatype>
                    <pixelaspectratio>square</pixelaspectratio>
                    <anamorphic>FALSE</anamorphic>
                    <file id="file-447">
                      <name>Scene - LJ visemes.445.png</name>
                      <pathurl>file://localhost/Users/bot/Documents/CREATE/Character Animator/LJ visemes CH2AE/demo/Scene - LJ visemes/Scene - LJ visemes.445.png</pathurl>
                      <rate>
                        <timebase>24</timebase>
                        <ntsc>FALSE</ntsc>
                      </rate>
                      <duration>672</duration>
                      <timecode>
                        <rate>
                          <timebase>24</timebase>
                          <ntsc>FALSE</ntsc>
                        </rate>
                      </timecode>
                      <media>
                        <video>
                          <duration>1</duration>
                          <samplecharacteristics>
                            <anamorphic>FALSE</anamorphic>
                            <pixelaspectratio>square</pixelaspectratio>
                            <fielddominance>none</fielddominance>
                            <width>1920</width>
                            <height>1080</height>
                          </samplecharacteristics>
                        </video>
                      </media>
                    </file>
                  </clipitem>
                </track>
              </video>
            </media>
          </clip>
          <clip explodedTracks="true" frameBlend="FALSE" id="masterclip-448">
            <uuid>1562651f-6865-413b-bb12-c530902b008d</uuid>
            <masterclipid>masterclip-448</masterclipid>
            <ismasterclip>TRUE</ismasterclip>
            <duration>672</duration>
            <in>0</in>
            <out>672</out>
            <name>Scene - LJ visemes.446.png</name>
            <rate>
              <timebase>24</timebase>
              <ntsc>FALSE</ntsc>
            </rate>
            <media>
              <video>
                <track>
                  <clipitem frameBlend="FALSE" id="clipitem-449">
                    <name>Scene - LJ visemes.446.png</name>
                    <masterclipid>masterclip-448</masterclipid>
                    <rate>
                      <timebase>24</timebase>
                      <ntsc>FALSE</ntsc>
                    </rate>
                    <alphatype>straight</alphatype>
                    <pixelaspectratio>square</pixelaspectratio>
                    <anamorphic>FALSE</anamorphic>
                    <file id="file-448">
                      <name>Scene - LJ visemes.446.png</name>
                      <pathurl>file://localhost/Users/bot/Documents/CREATE/Character Animator/LJ visemes CH2AE/demo/Scene - LJ visemes/Scene - LJ visemes.446.png</pathurl>
                      <rate>
                        <timebase>24</timebase>
                        <ntsc>FALSE</ntsc>
                      </rate>
                      <duration>672</duration>
                      <timecode>
                        <rate>
                          <timebase>24</timebase>
                          <ntsc>FALSE</ntsc>
                        </rate>
                      </timecode>
                      <media>
                        <video>
                          <duration>1</duration>
                          <samplecharacteristics>
                            <anamorphic>FALSE</anamorphic>
                            <pixelaspectratio>square</pixelaspectratio>
                            <fielddominance>none</fielddominance>
                            <width>1920</width>
                            <height>1080</height>
                          </samplecharacteristics>
                        </video>
                      </media>
                    </file>
                  </clipitem>
                </track>
              </video>
            </media>
          </clip>
          <clip explodedTracks="true" frameBlend="FALSE" id="masterclip-449">
            <uuid>9409c8a8-625d-4ba7-b8e9-7b8730d50bf5</uuid>
            <masterclipid>masterclip-449</masterclipid>
            <ismasterclip>TRUE</ismasterclip>
            <duration>672</duration>
            <in>0</in>
            <out>672</out>
            <name>Scene - LJ visemes.447.png</name>
            <rate>
              <timebase>24</timebase>
              <ntsc>FALSE</ntsc>
            </rate>
            <media>
              <video>
                <track>
                  <clipitem frameBlend="FALSE" id="clipitem-450">
                    <name>Scene - LJ visemes.447.png</name>
                    <masterclipid>masterclip-449</masterclipid>
                    <rate>
                      <timebase>24</timebase>
                      <ntsc>FALSE</ntsc>
                    </rate>
                    <alphatype>straight</alphatype>
                    <pixelaspectratio>square</pixelaspectratio>
                    <anamorphic>FALSE</anamorphic>
                    <file id="file-449">
                      <name>Scene - LJ visemes.447.png</name>
                      <pathurl>file://localhost/Users/bot/Documents/CREATE/Character Animator/LJ visemes CH2AE/demo/Scene - LJ visemes/Scene - LJ visemes.447.png</pathurl>
                      <rate>
                        <timebase>24</timebase>
                        <ntsc>FALSE</ntsc>
                      </rate>
                      <duration>672</duration>
                      <timecode>
                        <rate>
                          <timebase>24</timebase>
                          <ntsc>FALSE</ntsc>
                        </rate>
                      </timecode>
                      <media>
                        <video>
                          <duration>1</duration>
                          <samplecharacteristics>
                            <anamorphic>FALSE</anamorphic>
                            <pixelaspectratio>square</pixelaspectratio>
                            <fielddominance>none</fielddominance>
                            <width>1920</width>
                            <height>1080</height>
                          </samplecharacteristics>
                        </video>
                      </media>
                    </file>
                  </clipitem>
                </track>
              </video>
            </media>
          </clip>
          <clip explodedTracks="true" frameBlend="FALSE" id="masterclip-450">
            <uuid>358916f5-d88a-4fc4-b2fd-87cb9e67a8a2</uuid>
            <masterclipid>masterclip-450</masterclipid>
            <ismasterclip>TRUE</ismasterclip>
            <duration>672</duration>
            <in>0</in>
            <out>672</out>
            <name>Scene - LJ visemes.448.png</name>
            <rate>
              <timebase>24</timebase>
              <ntsc>FALSE</ntsc>
            </rate>
            <media>
              <video>
                <track>
                  <clipitem frameBlend="FALSE" id="clipitem-451">
                    <name>Scene - LJ visemes.448.png</name>
                    <masterclipid>masterclip-450</masterclipid>
                    <rate>
                      <timebase>24</timebase>
                      <ntsc>FALSE</ntsc>
                    </rate>
                    <alphatype>straight</alphatype>
                    <pixelaspectratio>square</pixelaspectratio>
                    <anamorphic>FALSE</anamorphic>
                    <file id="file-450">
                      <name>Scene - LJ visemes.448.png</name>
                      <pathurl>file://localhost/Users/bot/Documents/CREATE/Character Animator/LJ visemes CH2AE/demo/Scene - LJ visemes/Scene - LJ visemes.448.png</pathurl>
                      <rate>
                        <timebase>24</timebase>
                        <ntsc>FALSE</ntsc>
                      </rate>
                      <duration>672</duration>
                      <timecode>
                        <rate>
                          <timebase>24</timebase>
                          <ntsc>FALSE</ntsc>
                        </rate>
                      </timecode>
                      <media>
                        <video>
                          <duration>1</duration>
                          <samplecharacteristics>
                            <anamorphic>FALSE</anamorphic>
                            <pixelaspectratio>square</pixelaspectratio>
                            <fielddominance>none</fielddominance>
                            <width>1920</width>
                            <height>1080</height>
                          </samplecharacteristics>
                        </video>
                      </media>
                    </file>
                  </clipitem>
                </track>
              </video>
            </media>
          </clip>
          <clip explodedTracks="true" frameBlend="FALSE" id="masterclip-451">
            <uuid>8897472c-7d4c-4147-8da6-09470650a07e</uuid>
            <masterclipid>masterclip-451</masterclipid>
            <ismasterclip>TRUE</ismasterclip>
            <duration>672</duration>
            <in>0</in>
            <out>672</out>
            <name>Scene - LJ visemes.449.png</name>
            <rate>
              <timebase>24</timebase>
              <ntsc>FALSE</ntsc>
            </rate>
            <media>
              <video>
                <track>
                  <clipitem frameBlend="FALSE" id="clipitem-452">
                    <name>Scene - LJ visemes.449.png</name>
                    <masterclipid>masterclip-451</masterclipid>
                    <rate>
                      <timebase>24</timebase>
                      <ntsc>FALSE</ntsc>
                    </rate>
                    <alphatype>straight</alphatype>
                    <pixelaspectratio>square</pixelaspectratio>
                    <anamorphic>FALSE</anamorphic>
                    <file id="file-451">
                      <name>Scene - LJ visemes.449.png</name>
                      <pathurl>file://localhost/Users/bot/Documents/CREATE/Character Animator/LJ visemes CH2AE/demo/Scene - LJ visemes/Scene - LJ visemes.449.png</pathurl>
                      <rate>
                        <timebase>24</timebase>
                        <ntsc>FALSE</ntsc>
                      </rate>
                      <duration>672</duration>
                      <timecode>
                        <rate>
                          <timebase>24</timebase>
                          <ntsc>FALSE</ntsc>
                        </rate>
                      </timecode>
                      <media>
                        <video>
                          <duration>1</duration>
                          <samplecharacteristics>
                            <anamorphic>FALSE</anamorphic>
                            <pixelaspectratio>square</pixelaspectratio>
                            <fielddominance>none</fielddominance>
                            <width>1920</width>
                            <height>1080</height>
                          </samplecharacteristics>
                        </video>
                      </media>
                    </file>
                  </clipitem>
                </track>
              </video>
            </media>
          </clip>
          <clip explodedTracks="true" frameBlend="FALSE" id="masterclip-452">
            <uuid>ae7fddbf-59ef-4e60-9c26-5b3197f4c573</uuid>
            <masterclipid>masterclip-452</masterclipid>
            <ismasterclip>TRUE</ismasterclip>
            <duration>672</duration>
            <in>0</in>
            <out>672</out>
            <name>Scene - LJ visemes.450.png</name>
            <rate>
              <timebase>24</timebase>
              <ntsc>FALSE</ntsc>
            </rate>
            <media>
              <video>
                <track>
                  <clipitem frameBlend="FALSE" id="clipitem-453">
                    <name>Scene - LJ visemes.450.png</name>
                    <masterclipid>masterclip-452</masterclipid>
                    <rate>
                      <timebase>24</timebase>
                      <ntsc>FALSE</ntsc>
                    </rate>
                    <alphatype>straight</alphatype>
                    <pixelaspectratio>square</pixelaspectratio>
                    <anamorphic>FALSE</anamorphic>
                    <file id="file-452">
                      <name>Scene - LJ visemes.450.png</name>
                      <pathurl>file://localhost/Users/bot/Documents/CREATE/Character Animator/LJ visemes CH2AE/demo/Scene - LJ visemes/Scene - LJ visemes.450.png</pathurl>
                      <rate>
                        <timebase>24</timebase>
                        <ntsc>FALSE</ntsc>
                      </rate>
                      <duration>672</duration>
                      <timecode>
                        <rate>
                          <timebase>24</timebase>
                          <ntsc>FALSE</ntsc>
                        </rate>
                      </timecode>
                      <media>
                        <video>
                          <duration>1</duration>
                          <samplecharacteristics>
                            <anamorphic>FALSE</anamorphic>
                            <pixelaspectratio>square</pixelaspectratio>
                            <fielddominance>none</fielddominance>
                            <width>1920</width>
                            <height>1080</height>
                          </samplecharacteristics>
                        </video>
                      </media>
                    </file>
                  </clipitem>
                </track>
              </video>
            </media>
          </clip>
          <clip explodedTracks="true" frameBlend="FALSE" id="masterclip-453">
            <uuid>99b066a4-f2f8-4d27-831a-385e56acd02d</uuid>
            <masterclipid>masterclip-453</masterclipid>
            <ismasterclip>TRUE</ismasterclip>
            <duration>672</duration>
            <in>0</in>
            <out>672</out>
            <name>Scene - LJ visemes.451.png</name>
            <rate>
              <timebase>24</timebase>
              <ntsc>FALSE</ntsc>
            </rate>
            <media>
              <video>
                <track>
                  <clipitem frameBlend="FALSE" id="clipitem-454">
                    <name>Scene - LJ visemes.451.png</name>
                    <masterclipid>masterclip-453</masterclipid>
                    <rate>
                      <timebase>24</timebase>
                      <ntsc>FALSE</ntsc>
                    </rate>
                    <alphatype>straight</alphatype>
                    <pixelaspectratio>square</pixelaspectratio>
                    <anamorphic>FALSE</anamorphic>
                    <file id="file-453">
                      <name>Scene - LJ visemes.451.png</name>
                      <pathurl>file://localhost/Users/bot/Documents/CREATE/Character Animator/LJ visemes CH2AE/demo/Scene - LJ visemes/Scene - LJ visemes.451.png</pathurl>
                      <rate>
                        <timebase>24</timebase>
                        <ntsc>FALSE</ntsc>
                      </rate>
                      <duration>672</duration>
                      <timecode>
                        <rate>
                          <timebase>24</timebase>
                          <ntsc>FALSE</ntsc>
                        </rate>
                      </timecode>
                      <media>
                        <video>
                          <duration>1</duration>
                          <samplecharacteristics>
                            <anamorphic>FALSE</anamorphic>
                            <pixelaspectratio>square</pixelaspectratio>
                            <fielddominance>none</fielddominance>
                            <width>1920</width>
                            <height>1080</height>
                          </samplecharacteristics>
                        </video>
                      </media>
                    </file>
                  </clipitem>
                </track>
              </video>
            </media>
          </clip>
          <clip explodedTracks="true" frameBlend="FALSE" id="masterclip-454">
            <uuid>ec6461ca-5c7f-4dfd-8f74-bf8116879ff8</uuid>
            <masterclipid>masterclip-454</masterclipid>
            <ismasterclip>TRUE</ismasterclip>
            <duration>672</duration>
            <in>0</in>
            <out>672</out>
            <name>Scene - LJ visemes.452.png</name>
            <rate>
              <timebase>24</timebase>
              <ntsc>FALSE</ntsc>
            </rate>
            <media>
              <video>
                <track>
                  <clipitem frameBlend="FALSE" id="clipitem-455">
                    <name>Scene - LJ visemes.452.png</name>
                    <masterclipid>masterclip-454</masterclipid>
                    <rate>
                      <timebase>24</timebase>
                      <ntsc>FALSE</ntsc>
                    </rate>
                    <alphatype>straight</alphatype>
                    <pixelaspectratio>square</pixelaspectratio>
                    <anamorphic>FALSE</anamorphic>
                    <file id="file-454">
                      <name>Scene - LJ visemes.452.png</name>
                      <pathurl>file://localhost/Users/bot/Documents/CREATE/Character Animator/LJ visemes CH2AE/demo/Scene - LJ visemes/Scene - LJ visemes.452.png</pathurl>
                      <rate>
                        <timebase>24</timebase>
                        <ntsc>FALSE</ntsc>
                      </rate>
                      <duration>672</duration>
                      <timecode>
                        <rate>
                          <timebase>24</timebase>
                          <ntsc>FALSE</ntsc>
                        </rate>
                      </timecode>
                      <media>
                        <video>
                          <duration>1</duration>
                          <samplecharacteristics>
                            <anamorphic>FALSE</anamorphic>
                            <pixelaspectratio>square</pixelaspectratio>
                            <fielddominance>none</fielddominance>
                            <width>1920</width>
                            <height>1080</height>
                          </samplecharacteristics>
                        </video>
                      </media>
                    </file>
                  </clipitem>
                </track>
              </video>
            </media>
          </clip>
          <clip explodedTracks="true" frameBlend="FALSE" id="masterclip-455">
            <uuid>4777eff4-f8b5-4b44-8f5a-f8c0f88e914b</uuid>
            <masterclipid>masterclip-455</masterclipid>
            <ismasterclip>TRUE</ismasterclip>
            <duration>672</duration>
            <in>0</in>
            <out>672</out>
            <name>Scene - LJ visemes.453.png</name>
            <rate>
              <timebase>24</timebase>
              <ntsc>FALSE</ntsc>
            </rate>
            <media>
              <video>
                <track>
                  <clipitem frameBlend="FALSE" id="clipitem-456">
                    <name>Scene - LJ visemes.453.png</name>
                    <masterclipid>masterclip-455</masterclipid>
                    <rate>
                      <timebase>24</timebase>
                      <ntsc>FALSE</ntsc>
                    </rate>
                    <alphatype>straight</alphatype>
                    <pixelaspectratio>square</pixelaspectratio>
                    <anamorphic>FALSE</anamorphic>
                    <file id="file-455">
                      <name>Scene - LJ visemes.453.png</name>
                      <pathurl>file://localhost/Users/bot/Documents/CREATE/Character Animator/LJ visemes CH2AE/demo/Scene - LJ visemes/Scene - LJ visemes.453.png</pathurl>
                      <rate>
                        <timebase>24</timebase>
                        <ntsc>FALSE</ntsc>
                      </rate>
                      <duration>672</duration>
                      <timecode>
                        <rate>
                          <timebase>24</timebase>
                          <ntsc>FALSE</ntsc>
                        </rate>
                      </timecode>
                      <media>
                        <video>
                          <duration>1</duration>
                          <samplecharacteristics>
                            <anamorphic>FALSE</anamorphic>
                            <pixelaspectratio>square</pixelaspectratio>
                            <fielddominance>none</fielddominance>
                            <width>1920</width>
                            <height>1080</height>
                          </samplecharacteristics>
                        </video>
                      </media>
                    </file>
                  </clipitem>
                </track>
              </video>
            </media>
          </clip>
          <clip explodedTracks="true" frameBlend="FALSE" id="masterclip-456">
            <uuid>eb5f0562-7981-4d23-af79-9cfd377768cc</uuid>
            <masterclipid>masterclip-456</masterclipid>
            <ismasterclip>TRUE</ismasterclip>
            <duration>672</duration>
            <in>0</in>
            <out>672</out>
            <name>Scene - LJ visemes.454.png</name>
            <rate>
              <timebase>24</timebase>
              <ntsc>FALSE</ntsc>
            </rate>
            <media>
              <video>
                <track>
                  <clipitem frameBlend="FALSE" id="clipitem-457">
                    <name>Scene - LJ visemes.454.png</name>
                    <masterclipid>masterclip-456</masterclipid>
                    <rate>
                      <timebase>24</timebase>
                      <ntsc>FALSE</ntsc>
                    </rate>
                    <alphatype>straight</alphatype>
                    <pixelaspectratio>square</pixelaspectratio>
                    <anamorphic>FALSE</anamorphic>
                    <file id="file-456">
                      <name>Scene - LJ visemes.454.png</name>
                      <pathurl>file://localhost/Users/bot/Documents/CREATE/Character Animator/LJ visemes CH2AE/demo/Scene - LJ visemes/Scene - LJ visemes.454.png</pathurl>
                      <rate>
                        <timebase>24</timebase>
                        <ntsc>FALSE</ntsc>
                      </rate>
                      <duration>672</duration>
                      <timecode>
                        <rate>
                          <timebase>24</timebase>
                          <ntsc>FALSE</ntsc>
                        </rate>
                      </timecode>
                      <media>
                        <video>
                          <duration>1</duration>
                          <samplecharacteristics>
                            <anamorphic>FALSE</anamorphic>
                            <pixelaspectratio>square</pixelaspectratio>
                            <fielddominance>none</fielddominance>
                            <width>1920</width>
                            <height>1080</height>
                          </samplecharacteristics>
                        </video>
                      </media>
                    </file>
                  </clipitem>
                </track>
              </video>
            </media>
          </clip>
          <clip explodedTracks="true" frameBlend="FALSE" id="masterclip-457">
            <uuid>d86396e9-c33b-4f4f-bb11-3c9cbdd6d660</uuid>
            <masterclipid>masterclip-457</masterclipid>
            <ismasterclip>TRUE</ismasterclip>
            <duration>672</duration>
            <in>0</in>
            <out>672</out>
            <name>Scene - LJ visemes.455.png</name>
            <rate>
              <timebase>24</timebase>
              <ntsc>FALSE</ntsc>
            </rate>
            <media>
              <video>
                <track>
                  <clipitem frameBlend="FALSE" id="clipitem-458">
                    <name>Scene - LJ visemes.455.png</name>
                    <masterclipid>masterclip-457</masterclipid>
                    <rate>
                      <timebase>24</timebase>
                      <ntsc>FALSE</ntsc>
                    </rate>
                    <alphatype>straight</alphatype>
                    <pixelaspectratio>square</pixelaspectratio>
                    <anamorphic>FALSE</anamorphic>
                    <file id="file-457">
                      <name>Scene - LJ visemes.455.png</name>
                      <pathurl>file://localhost/Users/bot/Documents/CREATE/Character Animator/LJ visemes CH2AE/demo/Scene - LJ visemes/Scene - LJ visemes.455.png</pathurl>
                      <rate>
                        <timebase>24</timebase>
                        <ntsc>FALSE</ntsc>
                      </rate>
                      <duration>672</duration>
                      <timecode>
                        <rate>
                          <timebase>24</timebase>
                          <ntsc>FALSE</ntsc>
                        </rate>
                      </timecode>
                      <media>
                        <video>
                          <duration>1</duration>
                          <samplecharacteristics>
                            <anamorphic>FALSE</anamorphic>
                            <pixelaspectratio>square</pixelaspectratio>
                            <fielddominance>none</fielddominance>
                            <width>1920</width>
                            <height>1080</height>
                          </samplecharacteristics>
                        </video>
                      </media>
                    </file>
                  </clipitem>
                </track>
              </video>
            </media>
          </clip>
          <clip explodedTracks="true" frameBlend="FALSE" id="masterclip-458">
            <uuid>b8a1d715-afa7-4f41-8b41-8bba76da5c79</uuid>
            <masterclipid>masterclip-458</masterclipid>
            <ismasterclip>TRUE</ismasterclip>
            <duration>672</duration>
            <in>0</in>
            <out>672</out>
            <name>Scene - LJ visemes.456.png</name>
            <rate>
              <timebase>24</timebase>
              <ntsc>FALSE</ntsc>
            </rate>
            <media>
              <video>
                <track>
                  <clipitem frameBlend="FALSE" id="clipitem-459">
                    <name>Scene - LJ visemes.456.png</name>
                    <masterclipid>masterclip-458</masterclipid>
                    <rate>
                      <timebase>24</timebase>
                      <ntsc>FALSE</ntsc>
                    </rate>
                    <alphatype>straight</alphatype>
                    <pixelaspectratio>square</pixelaspectratio>
                    <anamorphic>FALSE</anamorphic>
                    <file id="file-458">
                      <name>Scene - LJ visemes.456.png</name>
                      <pathurl>file://localhost/Users/bot/Documents/CREATE/Character Animator/LJ visemes CH2AE/demo/Scene - LJ visemes/Scene - LJ visemes.456.png</pathurl>
                      <rate>
                        <timebase>24</timebase>
                        <ntsc>FALSE</ntsc>
                      </rate>
                      <duration>672</duration>
                      <timecode>
                        <rate>
                          <timebase>24</timebase>
                          <ntsc>FALSE</ntsc>
                        </rate>
                      </timecode>
                      <media>
                        <video>
                          <duration>1</duration>
                          <samplecharacteristics>
                            <anamorphic>FALSE</anamorphic>
                            <pixelaspectratio>square</pixelaspectratio>
                            <fielddominance>none</fielddominance>
                            <width>1920</width>
                            <height>1080</height>
                          </samplecharacteristics>
                        </video>
                      </media>
                    </file>
                  </clipitem>
                </track>
              </video>
            </media>
          </clip>
          <clip explodedTracks="true" frameBlend="FALSE" id="masterclip-459">
            <uuid>fb676e34-b68a-40e4-a40d-b8de583bd6d8</uuid>
            <masterclipid>masterclip-459</masterclipid>
            <ismasterclip>TRUE</ismasterclip>
            <duration>672</duration>
            <in>0</in>
            <out>672</out>
            <name>Scene - LJ visemes.457.png</name>
            <rate>
              <timebase>24</timebase>
              <ntsc>FALSE</ntsc>
            </rate>
            <media>
              <video>
                <track>
                  <clipitem frameBlend="FALSE" id="clipitem-460">
                    <name>Scene - LJ visemes.457.png</name>
                    <masterclipid>masterclip-459</masterclipid>
                    <rate>
                      <timebase>24</timebase>
                      <ntsc>FALSE</ntsc>
                    </rate>
                    <alphatype>straight</alphatype>
                    <pixelaspectratio>square</pixelaspectratio>
                    <anamorphic>FALSE</anamorphic>
                    <file id="file-459">
                      <name>Scene - LJ visemes.457.png</name>
                      <pathurl>file://localhost/Users/bot/Documents/CREATE/Character Animator/LJ visemes CH2AE/demo/Scene - LJ visemes/Scene - LJ visemes.457.png</pathurl>
                      <rate>
                        <timebase>24</timebase>
                        <ntsc>FALSE</ntsc>
                      </rate>
                      <duration>672</duration>
                      <timecode>
                        <rate>
                          <timebase>24</timebase>
                          <ntsc>FALSE</ntsc>
                        </rate>
                      </timecode>
                      <media>
                        <video>
                          <duration>1</duration>
                          <samplecharacteristics>
                            <anamorphic>FALSE</anamorphic>
                            <pixelaspectratio>square</pixelaspectratio>
                            <fielddominance>none</fielddominance>
                            <width>1920</width>
                            <height>1080</height>
                          </samplecharacteristics>
                        </video>
                      </media>
                    </file>
                  </clipitem>
                </track>
              </video>
            </media>
          </clip>
          <clip explodedTracks="true" frameBlend="FALSE" id="masterclip-460">
            <uuid>d3bcf394-92b1-430e-8649-a2f9bdac23d0</uuid>
            <masterclipid>masterclip-460</masterclipid>
            <ismasterclip>TRUE</ismasterclip>
            <duration>672</duration>
            <in>0</in>
            <out>672</out>
            <name>Scene - LJ visemes.458.png</name>
            <rate>
              <timebase>24</timebase>
              <ntsc>FALSE</ntsc>
            </rate>
            <media>
              <video>
                <track>
                  <clipitem frameBlend="FALSE" id="clipitem-461">
                    <name>Scene - LJ visemes.458.png</name>
                    <masterclipid>masterclip-460</masterclipid>
                    <rate>
                      <timebase>24</timebase>
                      <ntsc>FALSE</ntsc>
                    </rate>
                    <alphatype>straight</alphatype>
                    <pixelaspectratio>square</pixelaspectratio>
                    <anamorphic>FALSE</anamorphic>
                    <file id="file-460">
                      <name>Scene - LJ visemes.458.png</name>
                      <pathurl>file://localhost/Users/bot/Documents/CREATE/Character Animator/LJ visemes CH2AE/demo/Scene - LJ visemes/Scene - LJ visemes.458.png</pathurl>
                      <rate>
                        <timebase>24</timebase>
                        <ntsc>FALSE</ntsc>
                      </rate>
                      <duration>672</duration>
                      <timecode>
                        <rate>
                          <timebase>24</timebase>
                          <ntsc>FALSE</ntsc>
                        </rate>
                      </timecode>
                      <media>
                        <video>
                          <duration>1</duration>
                          <samplecharacteristics>
                            <anamorphic>FALSE</anamorphic>
                            <pixelaspectratio>square</pixelaspectratio>
                            <fielddominance>none</fielddominance>
                            <width>1920</width>
                            <height>1080</height>
                          </samplecharacteristics>
                        </video>
                      </media>
                    </file>
                  </clipitem>
                </track>
              </video>
            </media>
          </clip>
          <clip explodedTracks="true" frameBlend="FALSE" id="masterclip-461">
            <uuid>16a3d52a-36e1-4866-92f0-05064f22f143</uuid>
            <masterclipid>masterclip-461</masterclipid>
            <ismasterclip>TRUE</ismasterclip>
            <duration>672</duration>
            <in>0</in>
            <out>672</out>
            <name>Scene - LJ visemes.459.png</name>
            <rate>
              <timebase>24</timebase>
              <ntsc>FALSE</ntsc>
            </rate>
            <media>
              <video>
                <track>
                  <clipitem frameBlend="FALSE" id="clipitem-462">
                    <name>Scene - LJ visemes.459.png</name>
                    <masterclipid>masterclip-461</masterclipid>
                    <rate>
                      <timebase>24</timebase>
                      <ntsc>FALSE</ntsc>
                    </rate>
                    <alphatype>straight</alphatype>
                    <pixelaspectratio>square</pixelaspectratio>
                    <anamorphic>FALSE</anamorphic>
                    <file id="file-461">
                      <name>Scene - LJ visemes.459.png</name>
                      <pathurl>file://localhost/Users/bot/Documents/CREATE/Character Animator/LJ visemes CH2AE/demo/Scene - LJ visemes/Scene - LJ visemes.459.png</pathurl>
                      <rate>
                        <timebase>24</timebase>
                        <ntsc>FALSE</ntsc>
                      </rate>
                      <duration>672</duration>
                      <timecode>
                        <rate>
                          <timebase>24</timebase>
                          <ntsc>FALSE</ntsc>
                        </rate>
                      </timecode>
                      <media>
                        <video>
                          <duration>1</duration>
                          <samplecharacteristics>
                            <anamorphic>FALSE</anamorphic>
                            <pixelaspectratio>square</pixelaspectratio>
                            <fielddominance>none</fielddominance>
                            <width>1920</width>
                            <height>1080</height>
                          </samplecharacteristics>
                        </video>
                      </media>
                    </file>
                  </clipitem>
                </track>
              </video>
            </media>
          </clip>
          <clip explodedTracks="true" frameBlend="FALSE" id="masterclip-462">
            <uuid>71f5d5fb-b44c-4993-ad73-04d177c02045</uuid>
            <masterclipid>masterclip-462</masterclipid>
            <ismasterclip>TRUE</ismasterclip>
            <duration>672</duration>
            <in>0</in>
            <out>672</out>
            <name>Scene - LJ visemes.460.png</name>
            <rate>
              <timebase>24</timebase>
              <ntsc>FALSE</ntsc>
            </rate>
            <media>
              <video>
                <track>
                  <clipitem frameBlend="FALSE" id="clipitem-463">
                    <name>Scene - LJ visemes.460.png</name>
                    <masterclipid>masterclip-462</masterclipid>
                    <rate>
                      <timebase>24</timebase>
                      <ntsc>FALSE</ntsc>
                    </rate>
                    <alphatype>straight</alphatype>
                    <pixelaspectratio>square</pixelaspectratio>
                    <anamorphic>FALSE</anamorphic>
                    <file id="file-462">
                      <name>Scene - LJ visemes.460.png</name>
                      <pathurl>file://localhost/Users/bot/Documents/CREATE/Character Animator/LJ visemes CH2AE/demo/Scene - LJ visemes/Scene - LJ visemes.460.png</pathurl>
                      <rate>
                        <timebase>24</timebase>
                        <ntsc>FALSE</ntsc>
                      </rate>
                      <duration>672</duration>
                      <timecode>
                        <rate>
                          <timebase>24</timebase>
                          <ntsc>FALSE</ntsc>
                        </rate>
                      </timecode>
                      <media>
                        <video>
                          <duration>1</duration>
                          <samplecharacteristics>
                            <anamorphic>FALSE</anamorphic>
                            <pixelaspectratio>square</pixelaspectratio>
                            <fielddominance>none</fielddominance>
                            <width>1920</width>
                            <height>1080</height>
                          </samplecharacteristics>
                        </video>
                      </media>
                    </file>
                  </clipitem>
                </track>
              </video>
            </media>
          </clip>
          <clip explodedTracks="true" frameBlend="FALSE" id="masterclip-463">
            <uuid>7ad266df-918b-45d9-b0af-96a18f158abe</uuid>
            <masterclipid>masterclip-463</masterclipid>
            <ismasterclip>TRUE</ismasterclip>
            <duration>672</duration>
            <in>0</in>
            <out>672</out>
            <name>Scene - LJ visemes.461.png</name>
            <rate>
              <timebase>24</timebase>
              <ntsc>FALSE</ntsc>
            </rate>
            <media>
              <video>
                <track>
                  <clipitem frameBlend="FALSE" id="clipitem-464">
                    <name>Scene - LJ visemes.461.png</name>
                    <masterclipid>masterclip-463</masterclipid>
                    <rate>
                      <timebase>24</timebase>
                      <ntsc>FALSE</ntsc>
                    </rate>
                    <alphatype>straight</alphatype>
                    <pixelaspectratio>square</pixelaspectratio>
                    <anamorphic>FALSE</anamorphic>
                    <file id="file-463">
                      <name>Scene - LJ visemes.461.png</name>
                      <pathurl>file://localhost/Users/bot/Documents/CREATE/Character Animator/LJ visemes CH2AE/demo/Scene - LJ visemes/Scene - LJ visemes.461.png</pathurl>
                      <rate>
                        <timebase>24</timebase>
                        <ntsc>FALSE</ntsc>
                      </rate>
                      <duration>672</duration>
                      <timecode>
                        <rate>
                          <timebase>24</timebase>
                          <ntsc>FALSE</ntsc>
                        </rate>
                      </timecode>
                      <media>
                        <video>
                          <duration>1</duration>
                          <samplecharacteristics>
                            <anamorphic>FALSE</anamorphic>
                            <pixelaspectratio>square</pixelaspectratio>
                            <fielddominance>none</fielddominance>
                            <width>1920</width>
                            <height>1080</height>
                          </samplecharacteristics>
                        </video>
                      </media>
                    </file>
                  </clipitem>
                </track>
              </video>
            </media>
          </clip>
          <clip explodedTracks="true" frameBlend="FALSE" id="masterclip-464">
            <uuid>e042c4f8-5240-4ea4-b97d-b82c4df166d2</uuid>
            <masterclipid>masterclip-464</masterclipid>
            <ismasterclip>TRUE</ismasterclip>
            <duration>672</duration>
            <in>0</in>
            <out>672</out>
            <name>Scene - LJ visemes.462.png</name>
            <rate>
              <timebase>24</timebase>
              <ntsc>FALSE</ntsc>
            </rate>
            <media>
              <video>
                <track>
                  <clipitem frameBlend="FALSE" id="clipitem-465">
                    <name>Scene - LJ visemes.462.png</name>
                    <masterclipid>masterclip-464</masterclipid>
                    <rate>
                      <timebase>24</timebase>
                      <ntsc>FALSE</ntsc>
                    </rate>
                    <alphatype>straight</alphatype>
                    <pixelaspectratio>square</pixelaspectratio>
                    <anamorphic>FALSE</anamorphic>
                    <file id="file-464">
                      <name>Scene - LJ visemes.462.png</name>
                      <pathurl>file://localhost/Users/bot/Documents/CREATE/Character Animator/LJ visemes CH2AE/demo/Scene - LJ visemes/Scene - LJ visemes.462.png</pathurl>
                      <rate>
                        <timebase>24</timebase>
                        <ntsc>FALSE</ntsc>
                      </rate>
                      <duration>672</duration>
                      <timecode>
                        <rate>
                          <timebase>24</timebase>
                          <ntsc>FALSE</ntsc>
                        </rate>
                      </timecode>
                      <media>
                        <video>
                          <duration>1</duration>
                          <samplecharacteristics>
                            <anamorphic>FALSE</anamorphic>
                            <pixelaspectratio>square</pixelaspectratio>
                            <fielddominance>none</fielddominance>
                            <width>1920</width>
                            <height>1080</height>
                          </samplecharacteristics>
                        </video>
                      </media>
                    </file>
                  </clipitem>
                </track>
              </video>
            </media>
          </clip>
          <clip explodedTracks="true" frameBlend="FALSE" id="masterclip-465">
            <uuid>eb72696e-f30f-4ddf-bd94-1596aac49782</uuid>
            <masterclipid>masterclip-465</masterclipid>
            <ismasterclip>TRUE</ismasterclip>
            <duration>672</duration>
            <in>0</in>
            <out>672</out>
            <name>Scene - LJ visemes.463.png</name>
            <rate>
              <timebase>24</timebase>
              <ntsc>FALSE</ntsc>
            </rate>
            <media>
              <video>
                <track>
                  <clipitem frameBlend="FALSE" id="clipitem-466">
                    <name>Scene - LJ visemes.463.png</name>
                    <masterclipid>masterclip-465</masterclipid>
                    <rate>
                      <timebase>24</timebase>
                      <ntsc>FALSE</ntsc>
                    </rate>
                    <alphatype>straight</alphatype>
                    <pixelaspectratio>square</pixelaspectratio>
                    <anamorphic>FALSE</anamorphic>
                    <file id="file-465">
                      <name>Scene - LJ visemes.463.png</name>
                      <pathurl>file://localhost/Users/bot/Documents/CREATE/Character Animator/LJ visemes CH2AE/demo/Scene - LJ visemes/Scene - LJ visemes.463.png</pathurl>
                      <rate>
                        <timebase>24</timebase>
                        <ntsc>FALSE</ntsc>
                      </rate>
                      <duration>672</duration>
                      <timecode>
                        <rate>
                          <timebase>24</timebase>
                          <ntsc>FALSE</ntsc>
                        </rate>
                      </timecode>
                      <media>
                        <video>
                          <duration>1</duration>
                          <samplecharacteristics>
                            <anamorphic>FALSE</anamorphic>
                            <pixelaspectratio>square</pixelaspectratio>
                            <fielddominance>none</fielddominance>
                            <width>1920</width>
                            <height>1080</height>
                          </samplecharacteristics>
                        </video>
                      </media>
                    </file>
                  </clipitem>
                </track>
              </video>
            </media>
          </clip>
          <clip explodedTracks="true" frameBlend="FALSE" id="masterclip-466">
            <uuid>5f4a22b9-9a0a-4519-a4c3-9cd2dd90b445</uuid>
            <masterclipid>masterclip-466</masterclipid>
            <ismasterclip>TRUE</ismasterclip>
            <duration>672</duration>
            <in>0</in>
            <out>672</out>
            <name>Scene - LJ visemes.464.png</name>
            <rate>
              <timebase>24</timebase>
              <ntsc>FALSE</ntsc>
            </rate>
            <media>
              <video>
                <track>
                  <clipitem frameBlend="FALSE" id="clipitem-467">
                    <name>Scene - LJ visemes.464.png</name>
                    <masterclipid>masterclip-466</masterclipid>
                    <rate>
                      <timebase>24</timebase>
                      <ntsc>FALSE</ntsc>
                    </rate>
                    <alphatype>straight</alphatype>
                    <pixelaspectratio>square</pixelaspectratio>
                    <anamorphic>FALSE</anamorphic>
                    <file id="file-466">
                      <name>Scene - LJ visemes.464.png</name>
                      <pathurl>file://localhost/Users/bot/Documents/CREATE/Character Animator/LJ visemes CH2AE/demo/Scene - LJ visemes/Scene - LJ visemes.464.png</pathurl>
                      <rate>
                        <timebase>24</timebase>
                        <ntsc>FALSE</ntsc>
                      </rate>
                      <duration>672</duration>
                      <timecode>
                        <rate>
                          <timebase>24</timebase>
                          <ntsc>FALSE</ntsc>
                        </rate>
                      </timecode>
                      <media>
                        <video>
                          <duration>1</duration>
                          <samplecharacteristics>
                            <anamorphic>FALSE</anamorphic>
                            <pixelaspectratio>square</pixelaspectratio>
                            <fielddominance>none</fielddominance>
                            <width>1920</width>
                            <height>1080</height>
                          </samplecharacteristics>
                        </video>
                      </media>
                    </file>
                  </clipitem>
                </track>
              </video>
            </media>
          </clip>
          <clip explodedTracks="true" frameBlend="FALSE" id="masterclip-467">
            <uuid>16a9b562-7957-4a87-a7b7-1c4aeb5e3208</uuid>
            <masterclipid>masterclip-467</masterclipid>
            <ismasterclip>TRUE</ismasterclip>
            <duration>672</duration>
            <in>0</in>
            <out>672</out>
            <name>Scene - LJ visemes.465.png</name>
            <rate>
              <timebase>24</timebase>
              <ntsc>FALSE</ntsc>
            </rate>
            <media>
              <video>
                <track>
                  <clipitem frameBlend="FALSE" id="clipitem-468">
                    <name>Scene - LJ visemes.465.png</name>
                    <masterclipid>masterclip-467</masterclipid>
                    <rate>
                      <timebase>24</timebase>
                      <ntsc>FALSE</ntsc>
                    </rate>
                    <alphatype>straight</alphatype>
                    <pixelaspectratio>square</pixelaspectratio>
                    <anamorphic>FALSE</anamorphic>
                    <file id="file-467">
                      <name>Scene - LJ visemes.465.png</name>
                      <pathurl>file://localhost/Users/bot/Documents/CREATE/Character Animator/LJ visemes CH2AE/demo/Scene - LJ visemes/Scene - LJ visemes.465.png</pathurl>
                      <rate>
                        <timebase>24</timebase>
                        <ntsc>FALSE</ntsc>
                      </rate>
                      <duration>672</duration>
                      <timecode>
                        <rate>
                          <timebase>24</timebase>
                          <ntsc>FALSE</ntsc>
                        </rate>
                      </timecode>
                      <media>
                        <video>
                          <duration>1</duration>
                          <samplecharacteristics>
                            <anamorphic>FALSE</anamorphic>
                            <pixelaspectratio>square</pixelaspectratio>
                            <fielddominance>none</fielddominance>
                            <width>1920</width>
                            <height>1080</height>
                          </samplecharacteristics>
                        </video>
                      </media>
                    </file>
                  </clipitem>
                </track>
              </video>
            </media>
          </clip>
          <clip explodedTracks="true" frameBlend="FALSE" id="masterclip-468">
            <uuid>07f8f597-7074-400c-934a-16e3312d89cf</uuid>
            <masterclipid>masterclip-468</masterclipid>
            <ismasterclip>TRUE</ismasterclip>
            <duration>672</duration>
            <in>0</in>
            <out>672</out>
            <name>Scene - LJ visemes.466.png</name>
            <rate>
              <timebase>24</timebase>
              <ntsc>FALSE</ntsc>
            </rate>
            <media>
              <video>
                <track>
                  <clipitem frameBlend="FALSE" id="clipitem-469">
                    <name>Scene - LJ visemes.466.png</name>
                    <masterclipid>masterclip-468</masterclipid>
                    <rate>
                      <timebase>24</timebase>
                      <ntsc>FALSE</ntsc>
                    </rate>
                    <alphatype>straight</alphatype>
                    <pixelaspectratio>square</pixelaspectratio>
                    <anamorphic>FALSE</anamorphic>
                    <file id="file-468">
                      <name>Scene - LJ visemes.466.png</name>
                      <pathurl>file://localhost/Users/bot/Documents/CREATE/Character Animator/LJ visemes CH2AE/demo/Scene - LJ visemes/Scene - LJ visemes.466.png</pathurl>
                      <rate>
                        <timebase>24</timebase>
                        <ntsc>FALSE</ntsc>
                      </rate>
                      <duration>672</duration>
                      <timecode>
                        <rate>
                          <timebase>24</timebase>
                          <ntsc>FALSE</ntsc>
                        </rate>
                      </timecode>
                      <media>
                        <video>
                          <duration>1</duration>
                          <samplecharacteristics>
                            <anamorphic>FALSE</anamorphic>
                            <pixelaspectratio>square</pixelaspectratio>
                            <fielddominance>none</fielddominance>
                            <width>1920</width>
                            <height>1080</height>
                          </samplecharacteristics>
                        </video>
                      </media>
                    </file>
                  </clipitem>
                </track>
              </video>
            </media>
          </clip>
          <clip explodedTracks="true" frameBlend="FALSE" id="masterclip-469">
            <uuid>84feff86-b055-4896-8831-54bd9fd58c1f</uuid>
            <masterclipid>masterclip-469</masterclipid>
            <ismasterclip>TRUE</ismasterclip>
            <duration>672</duration>
            <in>0</in>
            <out>672</out>
            <name>Scene - LJ visemes.467.png</name>
            <rate>
              <timebase>24</timebase>
              <ntsc>FALSE</ntsc>
            </rate>
            <media>
              <video>
                <track>
                  <clipitem frameBlend="FALSE" id="clipitem-470">
                    <name>Scene - LJ visemes.467.png</name>
                    <masterclipid>masterclip-469</masterclipid>
                    <rate>
                      <timebase>24</timebase>
                      <ntsc>FALSE</ntsc>
                    </rate>
                    <alphatype>straight</alphatype>
                    <pixelaspectratio>square</pixelaspectratio>
                    <anamorphic>FALSE</anamorphic>
                    <file id="file-469">
                      <name>Scene - LJ visemes.467.png</name>
                      <pathurl>file://localhost/Users/bot/Documents/CREATE/Character Animator/LJ visemes CH2AE/demo/Scene - LJ visemes/Scene - LJ visemes.467.png</pathurl>
                      <rate>
                        <timebase>24</timebase>
                        <ntsc>FALSE</ntsc>
                      </rate>
                      <duration>672</duration>
                      <timecode>
                        <rate>
                          <timebase>24</timebase>
                          <ntsc>FALSE</ntsc>
                        </rate>
                      </timecode>
                      <media>
                        <video>
                          <duration>1</duration>
                          <samplecharacteristics>
                            <anamorphic>FALSE</anamorphic>
                            <pixelaspectratio>square</pixelaspectratio>
                            <fielddominance>none</fielddominance>
                            <width>1920</width>
                            <height>1080</height>
                          </samplecharacteristics>
                        </video>
                      </media>
                    </file>
                  </clipitem>
                </track>
              </video>
            </media>
          </clip>
          <clip explodedTracks="true" frameBlend="FALSE" id="masterclip-470">
            <uuid>35b3e7b9-13a9-44ab-b1e8-e884df1183c3</uuid>
            <masterclipid>masterclip-470</masterclipid>
            <ismasterclip>TRUE</ismasterclip>
            <duration>672</duration>
            <in>0</in>
            <out>672</out>
            <name>Scene - LJ visemes.468.png</name>
            <rate>
              <timebase>24</timebase>
              <ntsc>FALSE</ntsc>
            </rate>
            <media>
              <video>
                <track>
                  <clipitem frameBlend="FALSE" id="clipitem-471">
                    <name>Scene - LJ visemes.468.png</name>
                    <masterclipid>masterclip-470</masterclipid>
                    <rate>
                      <timebase>24</timebase>
                      <ntsc>FALSE</ntsc>
                    </rate>
                    <alphatype>straight</alphatype>
                    <pixelaspectratio>square</pixelaspectratio>
                    <anamorphic>FALSE</anamorphic>
                    <file id="file-470">
                      <name>Scene - LJ visemes.468.png</name>
                      <pathurl>file://localhost/Users/bot/Documents/CREATE/Character Animator/LJ visemes CH2AE/demo/Scene - LJ visemes/Scene - LJ visemes.468.png</pathurl>
                      <rate>
                        <timebase>24</timebase>
                        <ntsc>FALSE</ntsc>
                      </rate>
                      <duration>672</duration>
                      <timecode>
                        <rate>
                          <timebase>24</timebase>
                          <ntsc>FALSE</ntsc>
                        </rate>
                      </timecode>
                      <media>
                        <video>
                          <duration>1</duration>
                          <samplecharacteristics>
                            <anamorphic>FALSE</anamorphic>
                            <pixelaspectratio>square</pixelaspectratio>
                            <fielddominance>none</fielddominance>
                            <width>1920</width>
                            <height>1080</height>
                          </samplecharacteristics>
                        </video>
                      </media>
                    </file>
                  </clipitem>
                </track>
              </video>
            </media>
          </clip>
          <clip explodedTracks="true" frameBlend="FALSE" id="masterclip-471">
            <uuid>dc65b36b-cab1-4294-a722-e9e12af28dac</uuid>
            <masterclipid>masterclip-471</masterclipid>
            <ismasterclip>TRUE</ismasterclip>
            <duration>672</duration>
            <in>0</in>
            <out>672</out>
            <name>Scene - LJ visemes.469.png</name>
            <rate>
              <timebase>24</timebase>
              <ntsc>FALSE</ntsc>
            </rate>
            <media>
              <video>
                <track>
                  <clipitem frameBlend="FALSE" id="clipitem-472">
                    <name>Scene - LJ visemes.469.png</name>
                    <masterclipid>masterclip-471</masterclipid>
                    <rate>
                      <timebase>24</timebase>
                      <ntsc>FALSE</ntsc>
                    </rate>
                    <alphatype>straight</alphatype>
                    <pixelaspectratio>square</pixelaspectratio>
                    <anamorphic>FALSE</anamorphic>
                    <file id="file-471">
                      <name>Scene - LJ visemes.469.png</name>
                      <pathurl>file://localhost/Users/bot/Documents/CREATE/Character Animator/LJ visemes CH2AE/demo/Scene - LJ visemes/Scene - LJ visemes.469.png</pathurl>
                      <rate>
                        <timebase>24</timebase>
                        <ntsc>FALSE</ntsc>
                      </rate>
                      <duration>672</duration>
                      <timecode>
                        <rate>
                          <timebase>24</timebase>
                          <ntsc>FALSE</ntsc>
                        </rate>
                      </timecode>
                      <media>
                        <video>
                          <duration>1</duration>
                          <samplecharacteristics>
                            <anamorphic>FALSE</anamorphic>
                            <pixelaspectratio>square</pixelaspectratio>
                            <fielddominance>none</fielddominance>
                            <width>1920</width>
                            <height>1080</height>
                          </samplecharacteristics>
                        </video>
                      </media>
                    </file>
                  </clipitem>
                </track>
              </video>
            </media>
          </clip>
          <clip explodedTracks="true" frameBlend="FALSE" id="masterclip-472">
            <uuid>37310022-dca9-489f-b070-4b4202d7fe80</uuid>
            <masterclipid>masterclip-472</masterclipid>
            <ismasterclip>TRUE</ismasterclip>
            <duration>672</duration>
            <in>0</in>
            <out>672</out>
            <name>Scene - LJ visemes.470.png</name>
            <rate>
              <timebase>24</timebase>
              <ntsc>FALSE</ntsc>
            </rate>
            <media>
              <video>
                <track>
                  <clipitem frameBlend="FALSE" id="clipitem-473">
                    <name>Scene - LJ visemes.470.png</name>
                    <masterclipid>masterclip-472</masterclipid>
                    <rate>
                      <timebase>24</timebase>
                      <ntsc>FALSE</ntsc>
                    </rate>
                    <alphatype>straight</alphatype>
                    <pixelaspectratio>square</pixelaspectratio>
                    <anamorphic>FALSE</anamorphic>
                    <file id="file-472">
                      <name>Scene - LJ visemes.470.png</name>
                      <pathurl>file://localhost/Users/bot/Documents/CREATE/Character Animator/LJ visemes CH2AE/demo/Scene - LJ visemes/Scene - LJ visemes.470.png</pathurl>
                      <rate>
                        <timebase>24</timebase>
                        <ntsc>FALSE</ntsc>
                      </rate>
                      <duration>672</duration>
                      <timecode>
                        <rate>
                          <timebase>24</timebase>
                          <ntsc>FALSE</ntsc>
                        </rate>
                      </timecode>
                      <media>
                        <video>
                          <duration>1</duration>
                          <samplecharacteristics>
                            <anamorphic>FALSE</anamorphic>
                            <pixelaspectratio>square</pixelaspectratio>
                            <fielddominance>none</fielddominance>
                            <width>1920</width>
                            <height>1080</height>
                          </samplecharacteristics>
                        </video>
                      </media>
                    </file>
                  </clipitem>
                </track>
              </video>
            </media>
          </clip>
          <clip explodedTracks="true" frameBlend="FALSE" id="masterclip-473">
            <uuid>08b6770c-47bd-462f-8fd2-86507d3066fe</uuid>
            <masterclipid>masterclip-473</masterclipid>
            <ismasterclip>TRUE</ismasterclip>
            <duration>672</duration>
            <in>0</in>
            <out>672</out>
            <name>Scene - LJ visemes.471.png</name>
            <rate>
              <timebase>24</timebase>
              <ntsc>FALSE</ntsc>
            </rate>
            <media>
              <video>
                <track>
                  <clipitem frameBlend="FALSE" id="clipitem-474">
                    <name>Scene - LJ visemes.471.png</name>
                    <masterclipid>masterclip-473</masterclipid>
                    <rate>
                      <timebase>24</timebase>
                      <ntsc>FALSE</ntsc>
                    </rate>
                    <alphatype>straight</alphatype>
                    <pixelaspectratio>square</pixelaspectratio>
                    <anamorphic>FALSE</anamorphic>
                    <file id="file-473">
                      <name>Scene - LJ visemes.471.png</name>
                      <pathurl>file://localhost/Users/bot/Documents/CREATE/Character Animator/LJ visemes CH2AE/demo/Scene - LJ visemes/Scene - LJ visemes.471.png</pathurl>
                      <rate>
                        <timebase>24</timebase>
                        <ntsc>FALSE</ntsc>
                      </rate>
                      <duration>672</duration>
                      <timecode>
                        <rate>
                          <timebase>24</timebase>
                          <ntsc>FALSE</ntsc>
                        </rate>
                      </timecode>
                      <media>
                        <video>
                          <duration>1</duration>
                          <samplecharacteristics>
                            <anamorphic>FALSE</anamorphic>
                            <pixelaspectratio>square</pixelaspectratio>
                            <fielddominance>none</fielddominance>
                            <width>1920</width>
                            <height>1080</height>
                          </samplecharacteristics>
                        </video>
                      </media>
                    </file>
                  </clipitem>
                </track>
              </video>
            </media>
          </clip>
          <clip explodedTracks="true" frameBlend="FALSE" id="masterclip-474">
            <uuid>91df0eac-ebc8-4830-b0bc-84dc5b2f52ec</uuid>
            <masterclipid>masterclip-474</masterclipid>
            <ismasterclip>TRUE</ismasterclip>
            <duration>672</duration>
            <in>0</in>
            <out>672</out>
            <name>Scene - LJ visemes.472.png</name>
            <rate>
              <timebase>24</timebase>
              <ntsc>FALSE</ntsc>
            </rate>
            <media>
              <video>
                <track>
                  <clipitem frameBlend="FALSE" id="clipitem-475">
                    <name>Scene - LJ visemes.472.png</name>
                    <masterclipid>masterclip-474</masterclipid>
                    <rate>
                      <timebase>24</timebase>
                      <ntsc>FALSE</ntsc>
                    </rate>
                    <alphatype>straight</alphatype>
                    <pixelaspectratio>square</pixelaspectratio>
                    <anamorphic>FALSE</anamorphic>
                    <file id="file-474">
                      <name>Scene - LJ visemes.472.png</name>
                      <pathurl>file://localhost/Users/bot/Documents/CREATE/Character Animator/LJ visemes CH2AE/demo/Scene - LJ visemes/Scene - LJ visemes.472.png</pathurl>
                      <rate>
                        <timebase>24</timebase>
                        <ntsc>FALSE</ntsc>
                      </rate>
                      <duration>672</duration>
                      <timecode>
                        <rate>
                          <timebase>24</timebase>
                          <ntsc>FALSE</ntsc>
                        </rate>
                      </timecode>
                      <media>
                        <video>
                          <duration>1</duration>
                          <samplecharacteristics>
                            <anamorphic>FALSE</anamorphic>
                            <pixelaspectratio>square</pixelaspectratio>
                            <fielddominance>none</fielddominance>
                            <width>1920</width>
                            <height>1080</height>
                          </samplecharacteristics>
                        </video>
                      </media>
                    </file>
                  </clipitem>
                </track>
              </video>
            </media>
          </clip>
          <clip explodedTracks="true" frameBlend="FALSE" id="masterclip-475">
            <uuid>10c0446f-d8f3-4a1a-9dff-991a51df4876</uuid>
            <masterclipid>masterclip-475</masterclipid>
            <ismasterclip>TRUE</ismasterclip>
            <duration>672</duration>
            <in>0</in>
            <out>672</out>
            <name>Scene - LJ visemes.473.png</name>
            <rate>
              <timebase>24</timebase>
              <ntsc>FALSE</ntsc>
            </rate>
            <media>
              <video>
                <track>
                  <clipitem frameBlend="FALSE" id="clipitem-476">
                    <name>Scene - LJ visemes.473.png</name>
                    <masterclipid>masterclip-475</masterclipid>
                    <rate>
                      <timebase>24</timebase>
                      <ntsc>FALSE</ntsc>
                    </rate>
                    <alphatype>straight</alphatype>
                    <pixelaspectratio>square</pixelaspectratio>
                    <anamorphic>FALSE</anamorphic>
                    <file id="file-475">
                      <name>Scene - LJ visemes.473.png</name>
                      <pathurl>file://localhost/Users/bot/Documents/CREATE/Character Animator/LJ visemes CH2AE/demo/Scene - LJ visemes/Scene - LJ visemes.473.png</pathurl>
                      <rate>
                        <timebase>24</timebase>
                        <ntsc>FALSE</ntsc>
                      </rate>
                      <duration>672</duration>
                      <timecode>
                        <rate>
                          <timebase>24</timebase>
                          <ntsc>FALSE</ntsc>
                        </rate>
                      </timecode>
                      <media>
                        <video>
                          <duration>1</duration>
                          <samplecharacteristics>
                            <anamorphic>FALSE</anamorphic>
                            <pixelaspectratio>square</pixelaspectratio>
                            <fielddominance>none</fielddominance>
                            <width>1920</width>
                            <height>1080</height>
                          </samplecharacteristics>
                        </video>
                      </media>
                    </file>
                  </clipitem>
                </track>
              </video>
            </media>
          </clip>
          <clip explodedTracks="true" frameBlend="FALSE" id="masterclip-476">
            <uuid>ddf2378b-e8ac-4809-8dee-e26222d3c635</uuid>
            <masterclipid>masterclip-476</masterclipid>
            <ismasterclip>TRUE</ismasterclip>
            <duration>672</duration>
            <in>0</in>
            <out>672</out>
            <name>Scene - LJ visemes.474.png</name>
            <rate>
              <timebase>24</timebase>
              <ntsc>FALSE</ntsc>
            </rate>
            <media>
              <video>
                <track>
                  <clipitem frameBlend="FALSE" id="clipitem-477">
                    <name>Scene - LJ visemes.474.png</name>
                    <masterclipid>masterclip-476</masterclipid>
                    <rate>
                      <timebase>24</timebase>
                      <ntsc>FALSE</ntsc>
                    </rate>
                    <alphatype>straight</alphatype>
                    <pixelaspectratio>square</pixelaspectratio>
                    <anamorphic>FALSE</anamorphic>
                    <file id="file-476">
                      <name>Scene - LJ visemes.474.png</name>
                      <pathurl>file://localhost/Users/bot/Documents/CREATE/Character Animator/LJ visemes CH2AE/demo/Scene - LJ visemes/Scene - LJ visemes.474.png</pathurl>
                      <rate>
                        <timebase>24</timebase>
                        <ntsc>FALSE</ntsc>
                      </rate>
                      <duration>672</duration>
                      <timecode>
                        <rate>
                          <timebase>24</timebase>
                          <ntsc>FALSE</ntsc>
                        </rate>
                      </timecode>
                      <media>
                        <video>
                          <duration>1</duration>
                          <samplecharacteristics>
                            <anamorphic>FALSE</anamorphic>
                            <pixelaspectratio>square</pixelaspectratio>
                            <fielddominance>none</fielddominance>
                            <width>1920</width>
                            <height>1080</height>
                          </samplecharacteristics>
                        </video>
                      </media>
                    </file>
                  </clipitem>
                </track>
              </video>
            </media>
          </clip>
          <clip explodedTracks="true" frameBlend="FALSE" id="masterclip-477">
            <uuid>c80ece4b-b88b-4c6a-b38d-d634845e8a34</uuid>
            <masterclipid>masterclip-477</masterclipid>
            <ismasterclip>TRUE</ismasterclip>
            <duration>672</duration>
            <in>0</in>
            <out>672</out>
            <name>Scene - LJ visemes.475.png</name>
            <rate>
              <timebase>24</timebase>
              <ntsc>FALSE</ntsc>
            </rate>
            <media>
              <video>
                <track>
                  <clipitem frameBlend="FALSE" id="clipitem-478">
                    <name>Scene - LJ visemes.475.png</name>
                    <masterclipid>masterclip-477</masterclipid>
                    <rate>
                      <timebase>24</timebase>
                      <ntsc>FALSE</ntsc>
                    </rate>
                    <alphatype>straight</alphatype>
                    <pixelaspectratio>square</pixelaspectratio>
                    <anamorphic>FALSE</anamorphic>
                    <file id="file-477">
                      <name>Scene - LJ visemes.475.png</name>
                      <pathurl>file://localhost/Users/bot/Documents/CREATE/Character Animator/LJ visemes CH2AE/demo/Scene - LJ visemes/Scene - LJ visemes.475.png</pathurl>
                      <rate>
                        <timebase>24</timebase>
                        <ntsc>FALSE</ntsc>
                      </rate>
                      <duration>672</duration>
                      <timecode>
                        <rate>
                          <timebase>24</timebase>
                          <ntsc>FALSE</ntsc>
                        </rate>
                      </timecode>
                      <media>
                        <video>
                          <duration>1</duration>
                          <samplecharacteristics>
                            <anamorphic>FALSE</anamorphic>
                            <pixelaspectratio>square</pixelaspectratio>
                            <fielddominance>none</fielddominance>
                            <width>1920</width>
                            <height>1080</height>
                          </samplecharacteristics>
                        </video>
                      </media>
                    </file>
                  </clipitem>
                </track>
              </video>
            </media>
          </clip>
          <clip explodedTracks="true" frameBlend="FALSE" id="masterclip-478">
            <uuid>21352ee4-54f8-40d1-ac7e-56f4797a5b1f</uuid>
            <masterclipid>masterclip-478</masterclipid>
            <ismasterclip>TRUE</ismasterclip>
            <duration>672</duration>
            <in>0</in>
            <out>672</out>
            <name>Scene - LJ visemes.476.png</name>
            <rate>
              <timebase>24</timebase>
              <ntsc>FALSE</ntsc>
            </rate>
            <media>
              <video>
                <track>
                  <clipitem frameBlend="FALSE" id="clipitem-479">
                    <name>Scene - LJ visemes.476.png</name>
                    <masterclipid>masterclip-478</masterclipid>
                    <rate>
                      <timebase>24</timebase>
                      <ntsc>FALSE</ntsc>
                    </rate>
                    <alphatype>straight</alphatype>
                    <pixelaspectratio>square</pixelaspectratio>
                    <anamorphic>FALSE</anamorphic>
                    <file id="file-478">
                      <name>Scene - LJ visemes.476.png</name>
                      <pathurl>file://localhost/Users/bot/Documents/CREATE/Character Animator/LJ visemes CH2AE/demo/Scene - LJ visemes/Scene - LJ visemes.476.png</pathurl>
                      <rate>
                        <timebase>24</timebase>
                        <ntsc>FALSE</ntsc>
                      </rate>
                      <duration>672</duration>
                      <timecode>
                        <rate>
                          <timebase>24</timebase>
                          <ntsc>FALSE</ntsc>
                        </rate>
                      </timecode>
                      <media>
                        <video>
                          <duration>1</duration>
                          <samplecharacteristics>
                            <anamorphic>FALSE</anamorphic>
                            <pixelaspectratio>square</pixelaspectratio>
                            <fielddominance>none</fielddominance>
                            <width>1920</width>
                            <height>1080</height>
                          </samplecharacteristics>
                        </video>
                      </media>
                    </file>
                  </clipitem>
                </track>
              </video>
            </media>
          </clip>
          <clip explodedTracks="true" frameBlend="FALSE" id="masterclip-479">
            <uuid>7b6f543f-4458-4d0a-af14-9fb0c0eaaa2c</uuid>
            <masterclipid>masterclip-479</masterclipid>
            <ismasterclip>TRUE</ismasterclip>
            <duration>672</duration>
            <in>0</in>
            <out>672</out>
            <name>Scene - LJ visemes.477.png</name>
            <rate>
              <timebase>24</timebase>
              <ntsc>FALSE</ntsc>
            </rate>
            <media>
              <video>
                <track>
                  <clipitem frameBlend="FALSE" id="clipitem-480">
                    <name>Scene - LJ visemes.477.png</name>
                    <masterclipid>masterclip-479</masterclipid>
                    <rate>
                      <timebase>24</timebase>
                      <ntsc>FALSE</ntsc>
                    </rate>
                    <alphatype>straight</alphatype>
                    <pixelaspectratio>square</pixelaspectratio>
                    <anamorphic>FALSE</anamorphic>
                    <file id="file-479">
                      <name>Scene - LJ visemes.477.png</name>
                      <pathurl>file://localhost/Users/bot/Documents/CREATE/Character Animator/LJ visemes CH2AE/demo/Scene - LJ visemes/Scene - LJ visemes.477.png</pathurl>
                      <rate>
                        <timebase>24</timebase>
                        <ntsc>FALSE</ntsc>
                      </rate>
                      <duration>672</duration>
                      <timecode>
                        <rate>
                          <timebase>24</timebase>
                          <ntsc>FALSE</ntsc>
                        </rate>
                      </timecode>
                      <media>
                        <video>
                          <duration>1</duration>
                          <samplecharacteristics>
                            <anamorphic>FALSE</anamorphic>
                            <pixelaspectratio>square</pixelaspectratio>
                            <fielddominance>none</fielddominance>
                            <width>1920</width>
                            <height>1080</height>
                          </samplecharacteristics>
                        </video>
                      </media>
                    </file>
                  </clipitem>
                </track>
              </video>
            </media>
          </clip>
          <clip explodedTracks="true" frameBlend="FALSE" id="masterclip-480">
            <uuid>4f0b3f57-246a-4239-ade7-461e802886dc</uuid>
            <masterclipid>masterclip-480</masterclipid>
            <ismasterclip>TRUE</ismasterclip>
            <duration>672</duration>
            <in>0</in>
            <out>672</out>
            <name>Scene - LJ visemes.478.png</name>
            <rate>
              <timebase>24</timebase>
              <ntsc>FALSE</ntsc>
            </rate>
            <media>
              <video>
                <track>
                  <clipitem frameBlend="FALSE" id="clipitem-481">
                    <name>Scene - LJ visemes.478.png</name>
                    <masterclipid>masterclip-480</masterclipid>
                    <rate>
                      <timebase>24</timebase>
                      <ntsc>FALSE</ntsc>
                    </rate>
                    <alphatype>straight</alphatype>
                    <pixelaspectratio>square</pixelaspectratio>
                    <anamorphic>FALSE</anamorphic>
                    <file id="file-480">
                      <name>Scene - LJ visemes.478.png</name>
                      <pathurl>file://localhost/Users/bot/Documents/CREATE/Character Animator/LJ visemes CH2AE/demo/Scene - LJ visemes/Scene - LJ visemes.478.png</pathurl>
                      <rate>
                        <timebase>24</timebase>
                        <ntsc>FALSE</ntsc>
                      </rate>
                      <duration>672</duration>
                      <timecode>
                        <rate>
                          <timebase>24</timebase>
                          <ntsc>FALSE</ntsc>
                        </rate>
                      </timecode>
                      <media>
                        <video>
                          <duration>1</duration>
                          <samplecharacteristics>
                            <anamorphic>FALSE</anamorphic>
                            <pixelaspectratio>square</pixelaspectratio>
                            <fielddominance>none</fielddominance>
                            <width>1920</width>
                            <height>1080</height>
                          </samplecharacteristics>
                        </video>
                      </media>
                    </file>
                  </clipitem>
                </track>
              </video>
            </media>
          </clip>
          <clip explodedTracks="true" frameBlend="FALSE" id="masterclip-481">
            <uuid>facc3851-0977-4798-b5e2-8f5b96b15acc</uuid>
            <masterclipid>masterclip-481</masterclipid>
            <ismasterclip>TRUE</ismasterclip>
            <duration>672</duration>
            <in>0</in>
            <out>672</out>
            <name>Scene - LJ visemes.479.png</name>
            <rate>
              <timebase>24</timebase>
              <ntsc>FALSE</ntsc>
            </rate>
            <media>
              <video>
                <track>
                  <clipitem frameBlend="FALSE" id="clipitem-482">
                    <name>Scene - LJ visemes.479.png</name>
                    <masterclipid>masterclip-481</masterclipid>
                    <rate>
                      <timebase>24</timebase>
                      <ntsc>FALSE</ntsc>
                    </rate>
                    <alphatype>straight</alphatype>
                    <pixelaspectratio>square</pixelaspectratio>
                    <anamorphic>FALSE</anamorphic>
                    <file id="file-481">
                      <name>Scene - LJ visemes.479.png</name>
                      <pathurl>file://localhost/Users/bot/Documents/CREATE/Character Animator/LJ visemes CH2AE/demo/Scene - LJ visemes/Scene - LJ visemes.479.png</pathurl>
                      <rate>
                        <timebase>24</timebase>
                        <ntsc>FALSE</ntsc>
                      </rate>
                      <duration>672</duration>
                      <timecode>
                        <rate>
                          <timebase>24</timebase>
                          <ntsc>FALSE</ntsc>
                        </rate>
                      </timecode>
                      <media>
                        <video>
                          <duration>1</duration>
                          <samplecharacteristics>
                            <anamorphic>FALSE</anamorphic>
                            <pixelaspectratio>square</pixelaspectratio>
                            <fielddominance>none</fielddominance>
                            <width>1920</width>
                            <height>1080</height>
                          </samplecharacteristics>
                        </video>
                      </media>
                    </file>
                  </clipitem>
                </track>
              </video>
            </media>
          </clip>
          <clip explodedTracks="true" frameBlend="FALSE" id="masterclip-482">
            <uuid>4843fa51-f3d6-4c10-8dc1-c30ace2a7ddd</uuid>
            <masterclipid>masterclip-482</masterclipid>
            <ismasterclip>TRUE</ismasterclip>
            <duration>672</duration>
            <in>0</in>
            <out>672</out>
            <name>Scene - LJ visemes.480.png</name>
            <rate>
              <timebase>24</timebase>
              <ntsc>FALSE</ntsc>
            </rate>
            <media>
              <video>
                <track>
                  <clipitem frameBlend="FALSE" id="clipitem-483">
                    <name>Scene - LJ visemes.480.png</name>
                    <masterclipid>masterclip-482</masterclipid>
                    <rate>
                      <timebase>24</timebase>
                      <ntsc>FALSE</ntsc>
                    </rate>
                    <alphatype>straight</alphatype>
                    <pixelaspectratio>square</pixelaspectratio>
                    <anamorphic>FALSE</anamorphic>
                    <file id="file-482">
                      <name>Scene - LJ visemes.480.png</name>
                      <pathurl>file://localhost/Users/bot/Documents/CREATE/Character Animator/LJ visemes CH2AE/demo/Scene - LJ visemes/Scene - LJ visemes.480.png</pathurl>
                      <rate>
                        <timebase>24</timebase>
                        <ntsc>FALSE</ntsc>
                      </rate>
                      <duration>672</duration>
                      <timecode>
                        <rate>
                          <timebase>24</timebase>
                          <ntsc>FALSE</ntsc>
                        </rate>
                      </timecode>
                      <media>
                        <video>
                          <duration>1</duration>
                          <samplecharacteristics>
                            <anamorphic>FALSE</anamorphic>
                            <pixelaspectratio>square</pixelaspectratio>
                            <fielddominance>none</fielddominance>
                            <width>1920</width>
                            <height>1080</height>
                          </samplecharacteristics>
                        </video>
                      </media>
                    </file>
                  </clipitem>
                </track>
              </video>
            </media>
          </clip>
          <clip explodedTracks="true" frameBlend="FALSE" id="masterclip-483">
            <uuid>d5f26443-1dd9-475d-a5b9-a0990b6540e2</uuid>
            <masterclipid>masterclip-483</masterclipid>
            <ismasterclip>TRUE</ismasterclip>
            <duration>672</duration>
            <in>0</in>
            <out>672</out>
            <name>Scene - LJ visemes.481.png</name>
            <rate>
              <timebase>24</timebase>
              <ntsc>FALSE</ntsc>
            </rate>
            <media>
              <video>
                <track>
                  <clipitem frameBlend="FALSE" id="clipitem-484">
                    <name>Scene - LJ visemes.481.png</name>
                    <masterclipid>masterclip-483</masterclipid>
                    <rate>
                      <timebase>24</timebase>
                      <ntsc>FALSE</ntsc>
                    </rate>
                    <alphatype>straight</alphatype>
                    <pixelaspectratio>square</pixelaspectratio>
                    <anamorphic>FALSE</anamorphic>
                    <file id="file-483">
                      <name>Scene - LJ visemes.481.png</name>
                      <pathurl>file://localhost/Users/bot/Documents/CREATE/Character Animator/LJ visemes CH2AE/demo/Scene - LJ visemes/Scene - LJ visemes.481.png</pathurl>
                      <rate>
                        <timebase>24</timebase>
                        <ntsc>FALSE</ntsc>
                      </rate>
                      <duration>672</duration>
                      <timecode>
                        <rate>
                          <timebase>24</timebase>
                          <ntsc>FALSE</ntsc>
                        </rate>
                      </timecode>
                      <media>
                        <video>
                          <duration>1</duration>
                          <samplecharacteristics>
                            <anamorphic>FALSE</anamorphic>
                            <pixelaspectratio>square</pixelaspectratio>
                            <fielddominance>none</fielddominance>
                            <width>1920</width>
                            <height>1080</height>
                          </samplecharacteristics>
                        </video>
                      </media>
                    </file>
                  </clipitem>
                </track>
              </video>
            </media>
          </clip>
          <clip explodedTracks="true" frameBlend="FALSE" id="masterclip-484">
            <uuid>2a61c72e-17dd-4b1c-9851-35b89067a7e9</uuid>
            <masterclipid>masterclip-484</masterclipid>
            <ismasterclip>TRUE</ismasterclip>
            <duration>672</duration>
            <in>0</in>
            <out>672</out>
            <name>Scene - LJ visemes.482.png</name>
            <rate>
              <timebase>24</timebase>
              <ntsc>FALSE</ntsc>
            </rate>
            <media>
              <video>
                <track>
                  <clipitem frameBlend="FALSE" id="clipitem-485">
                    <name>Scene - LJ visemes.482.png</name>
                    <masterclipid>masterclip-484</masterclipid>
                    <rate>
                      <timebase>24</timebase>
                      <ntsc>FALSE</ntsc>
                    </rate>
                    <alphatype>straight</alphatype>
                    <pixelaspectratio>square</pixelaspectratio>
                    <anamorphic>FALSE</anamorphic>
                    <file id="file-484">
                      <name>Scene - LJ visemes.482.png</name>
                      <pathurl>file://localhost/Users/bot/Documents/CREATE/Character Animator/LJ visemes CH2AE/demo/Scene - LJ visemes/Scene - LJ visemes.482.png</pathurl>
                      <rate>
                        <timebase>24</timebase>
                        <ntsc>FALSE</ntsc>
                      </rate>
                      <duration>672</duration>
                      <timecode>
                        <rate>
                          <timebase>24</timebase>
                          <ntsc>FALSE</ntsc>
                        </rate>
                      </timecode>
                      <media>
                        <video>
                          <duration>1</duration>
                          <samplecharacteristics>
                            <anamorphic>FALSE</anamorphic>
                            <pixelaspectratio>square</pixelaspectratio>
                            <fielddominance>none</fielddominance>
                            <width>1920</width>
                            <height>1080</height>
                          </samplecharacteristics>
                        </video>
                      </media>
                    </file>
                  </clipitem>
                </track>
              </video>
            </media>
          </clip>
          <clip explodedTracks="true" frameBlend="FALSE" id="masterclip-485">
            <uuid>4ec9a8fb-9b00-4c91-a69a-e3cc364b6686</uuid>
            <masterclipid>masterclip-485</masterclipid>
            <ismasterclip>TRUE</ismasterclip>
            <duration>672</duration>
            <in>0</in>
            <out>672</out>
            <name>Scene - LJ visemes.483.png</name>
            <rate>
              <timebase>24</timebase>
              <ntsc>FALSE</ntsc>
            </rate>
            <media>
              <video>
                <track>
                  <clipitem frameBlend="FALSE" id="clipitem-486">
                    <name>Scene - LJ visemes.483.png</name>
                    <masterclipid>masterclip-485</masterclipid>
                    <rate>
                      <timebase>24</timebase>
                      <ntsc>FALSE</ntsc>
                    </rate>
                    <alphatype>straight</alphatype>
                    <pixelaspectratio>square</pixelaspectratio>
                    <anamorphic>FALSE</anamorphic>
                    <file id="file-485">
                      <name>Scene - LJ visemes.483.png</name>
                      <pathurl>file://localhost/Users/bot/Documents/CREATE/Character Animator/LJ visemes CH2AE/demo/Scene - LJ visemes/Scene - LJ visemes.483.png</pathurl>
                      <rate>
                        <timebase>24</timebase>
                        <ntsc>FALSE</ntsc>
                      </rate>
                      <duration>672</duration>
                      <timecode>
                        <rate>
                          <timebase>24</timebase>
                          <ntsc>FALSE</ntsc>
                        </rate>
                      </timecode>
                      <media>
                        <video>
                          <duration>1</duration>
                          <samplecharacteristics>
                            <anamorphic>FALSE</anamorphic>
                            <pixelaspectratio>square</pixelaspectratio>
                            <fielddominance>none</fielddominance>
                            <width>1920</width>
                            <height>1080</height>
                          </samplecharacteristics>
                        </video>
                      </media>
                    </file>
                  </clipitem>
                </track>
              </video>
            </media>
          </clip>
          <clip explodedTracks="true" frameBlend="FALSE" id="masterclip-486">
            <uuid>e7322c56-e099-4ea7-a692-db8a7cd8bdf1</uuid>
            <masterclipid>masterclip-486</masterclipid>
            <ismasterclip>TRUE</ismasterclip>
            <duration>672</duration>
            <in>0</in>
            <out>672</out>
            <name>Scene - LJ visemes.484.png</name>
            <rate>
              <timebase>24</timebase>
              <ntsc>FALSE</ntsc>
            </rate>
            <media>
              <video>
                <track>
                  <clipitem frameBlend="FALSE" id="clipitem-487">
                    <name>Scene - LJ visemes.484.png</name>
                    <masterclipid>masterclip-486</masterclipid>
                    <rate>
                      <timebase>24</timebase>
                      <ntsc>FALSE</ntsc>
                    </rate>
                    <alphatype>straight</alphatype>
                    <pixelaspectratio>square</pixelaspectratio>
                    <anamorphic>FALSE</anamorphic>
                    <file id="file-486">
                      <name>Scene - LJ visemes.484.png</name>
                      <pathurl>file://localhost/Users/bot/Documents/CREATE/Character Animator/LJ visemes CH2AE/demo/Scene - LJ visemes/Scene - LJ visemes.484.png</pathurl>
                      <rate>
                        <timebase>24</timebase>
                        <ntsc>FALSE</ntsc>
                      </rate>
                      <duration>672</duration>
                      <timecode>
                        <rate>
                          <timebase>24</timebase>
                          <ntsc>FALSE</ntsc>
                        </rate>
                      </timecode>
                      <media>
                        <video>
                          <duration>1</duration>
                          <samplecharacteristics>
                            <anamorphic>FALSE</anamorphic>
                            <pixelaspectratio>square</pixelaspectratio>
                            <fielddominance>none</fielddominance>
                            <width>1920</width>
                            <height>1080</height>
                          </samplecharacteristics>
                        </video>
                      </media>
                    </file>
                  </clipitem>
                </track>
              </video>
            </media>
          </clip>
          <clip explodedTracks="true" frameBlend="FALSE" id="masterclip-487">
            <uuid>7a6f29b0-c7f1-4a7f-b185-37c3bd6d1b75</uuid>
            <masterclipid>masterclip-487</masterclipid>
            <ismasterclip>TRUE</ismasterclip>
            <duration>672</duration>
            <in>0</in>
            <out>672</out>
            <name>Scene - LJ visemes.485.png</name>
            <rate>
              <timebase>24</timebase>
              <ntsc>FALSE</ntsc>
            </rate>
            <media>
              <video>
                <track>
                  <clipitem frameBlend="FALSE" id="clipitem-488">
                    <name>Scene - LJ visemes.485.png</name>
                    <masterclipid>masterclip-487</masterclipid>
                    <rate>
                      <timebase>24</timebase>
                      <ntsc>FALSE</ntsc>
                    </rate>
                    <alphatype>straight</alphatype>
                    <pixelaspectratio>square</pixelaspectratio>
                    <anamorphic>FALSE</anamorphic>
                    <file id="file-487">
                      <name>Scene - LJ visemes.485.png</name>
                      <pathurl>file://localhost/Users/bot/Documents/CREATE/Character Animator/LJ visemes CH2AE/demo/Scene - LJ visemes/Scene - LJ visemes.485.png</pathurl>
                      <rate>
                        <timebase>24</timebase>
                        <ntsc>FALSE</ntsc>
                      </rate>
                      <duration>672</duration>
                      <timecode>
                        <rate>
                          <timebase>24</timebase>
                          <ntsc>FALSE</ntsc>
                        </rate>
                      </timecode>
                      <media>
                        <video>
                          <duration>1</duration>
                          <samplecharacteristics>
                            <anamorphic>FALSE</anamorphic>
                            <pixelaspectratio>square</pixelaspectratio>
                            <fielddominance>none</fielddominance>
                            <width>1920</width>
                            <height>1080</height>
                          </samplecharacteristics>
                        </video>
                      </media>
                    </file>
                  </clipitem>
                </track>
              </video>
            </media>
          </clip>
          <clip explodedTracks="true" frameBlend="FALSE" id="masterclip-488">
            <uuid>6776cd12-ccc1-4b50-97b8-e2450797bc17</uuid>
            <masterclipid>masterclip-488</masterclipid>
            <ismasterclip>TRUE</ismasterclip>
            <duration>672</duration>
            <in>0</in>
            <out>672</out>
            <name>Scene - LJ visemes.486.png</name>
            <rate>
              <timebase>24</timebase>
              <ntsc>FALSE</ntsc>
            </rate>
            <media>
              <video>
                <track>
                  <clipitem frameBlend="FALSE" id="clipitem-489">
                    <name>Scene - LJ visemes.486.png</name>
                    <masterclipid>masterclip-488</masterclipid>
                    <rate>
                      <timebase>24</timebase>
                      <ntsc>FALSE</ntsc>
                    </rate>
                    <alphatype>straight</alphatype>
                    <pixelaspectratio>square</pixelaspectratio>
                    <anamorphic>FALSE</anamorphic>
                    <file id="file-488">
                      <name>Scene - LJ visemes.486.png</name>
                      <pathurl>file://localhost/Users/bot/Documents/CREATE/Character Animator/LJ visemes CH2AE/demo/Scene - LJ visemes/Scene - LJ visemes.486.png</pathurl>
                      <rate>
                        <timebase>24</timebase>
                        <ntsc>FALSE</ntsc>
                      </rate>
                      <duration>672</duration>
                      <timecode>
                        <rate>
                          <timebase>24</timebase>
                          <ntsc>FALSE</ntsc>
                        </rate>
                      </timecode>
                      <media>
                        <video>
                          <duration>1</duration>
                          <samplecharacteristics>
                            <anamorphic>FALSE</anamorphic>
                            <pixelaspectratio>square</pixelaspectratio>
                            <fielddominance>none</fielddominance>
                            <width>1920</width>
                            <height>1080</height>
                          </samplecharacteristics>
                        </video>
                      </media>
                    </file>
                  </clipitem>
                </track>
              </video>
            </media>
          </clip>
          <clip explodedTracks="true" frameBlend="FALSE" id="masterclip-489">
            <uuid>6ba8d315-4c0b-4a1a-b0b6-a4bba1045961</uuid>
            <masterclipid>masterclip-489</masterclipid>
            <ismasterclip>TRUE</ismasterclip>
            <duration>672</duration>
            <in>0</in>
            <out>672</out>
            <name>Scene - LJ visemes.487.png</name>
            <rate>
              <timebase>24</timebase>
              <ntsc>FALSE</ntsc>
            </rate>
            <media>
              <video>
                <track>
                  <clipitem frameBlend="FALSE" id="clipitem-490">
                    <name>Scene - LJ visemes.487.png</name>
                    <masterclipid>masterclip-489</masterclipid>
                    <rate>
                      <timebase>24</timebase>
                      <ntsc>FALSE</ntsc>
                    </rate>
                    <alphatype>straight</alphatype>
                    <pixelaspectratio>square</pixelaspectratio>
                    <anamorphic>FALSE</anamorphic>
                    <file id="file-489">
                      <name>Scene - LJ visemes.487.png</name>
                      <pathurl>file://localhost/Users/bot/Documents/CREATE/Character Animator/LJ visemes CH2AE/demo/Scene - LJ visemes/Scene - LJ visemes.487.png</pathurl>
                      <rate>
                        <timebase>24</timebase>
                        <ntsc>FALSE</ntsc>
                      </rate>
                      <duration>672</duration>
                      <timecode>
                        <rate>
                          <timebase>24</timebase>
                          <ntsc>FALSE</ntsc>
                        </rate>
                      </timecode>
                      <media>
                        <video>
                          <duration>1</duration>
                          <samplecharacteristics>
                            <anamorphic>FALSE</anamorphic>
                            <pixelaspectratio>square</pixelaspectratio>
                            <fielddominance>none</fielddominance>
                            <width>1920</width>
                            <height>1080</height>
                          </samplecharacteristics>
                        </video>
                      </media>
                    </file>
                  </clipitem>
                </track>
              </video>
            </media>
          </clip>
          <clip explodedTracks="true" frameBlend="FALSE" id="masterclip-490">
            <uuid>5d307788-652d-4127-a00f-d4ba3df6005c</uuid>
            <masterclipid>masterclip-490</masterclipid>
            <ismasterclip>TRUE</ismasterclip>
            <duration>672</duration>
            <in>0</in>
            <out>672</out>
            <name>Scene - LJ visemes.488.png</name>
            <rate>
              <timebase>24</timebase>
              <ntsc>FALSE</ntsc>
            </rate>
            <media>
              <video>
                <track>
                  <clipitem frameBlend="FALSE" id="clipitem-491">
                    <name>Scene - LJ visemes.488.png</name>
                    <masterclipid>masterclip-490</masterclipid>
                    <rate>
                      <timebase>24</timebase>
                      <ntsc>FALSE</ntsc>
                    </rate>
                    <alphatype>straight</alphatype>
                    <pixelaspectratio>square</pixelaspectratio>
                    <anamorphic>FALSE</anamorphic>
                    <file id="file-490">
                      <name>Scene - LJ visemes.488.png</name>
                      <pathurl>file://localhost/Users/bot/Documents/CREATE/Character Animator/LJ visemes CH2AE/demo/Scene - LJ visemes/Scene - LJ visemes.488.png</pathurl>
                      <rate>
                        <timebase>24</timebase>
                        <ntsc>FALSE</ntsc>
                      </rate>
                      <duration>672</duration>
                      <timecode>
                        <rate>
                          <timebase>24</timebase>
                          <ntsc>FALSE</ntsc>
                        </rate>
                      </timecode>
                      <media>
                        <video>
                          <duration>1</duration>
                          <samplecharacteristics>
                            <anamorphic>FALSE</anamorphic>
                            <pixelaspectratio>square</pixelaspectratio>
                            <fielddominance>none</fielddominance>
                            <width>1920</width>
                            <height>1080</height>
                          </samplecharacteristics>
                        </video>
                      </media>
                    </file>
                  </clipitem>
                </track>
              </video>
            </media>
          </clip>
          <clip explodedTracks="true" frameBlend="FALSE" id="masterclip-491">
            <uuid>50ce1c73-58c9-463b-b0d4-cd0b5db60623</uuid>
            <masterclipid>masterclip-491</masterclipid>
            <ismasterclip>TRUE</ismasterclip>
            <duration>672</duration>
            <in>0</in>
            <out>672</out>
            <name>Scene - LJ visemes.489.png</name>
            <rate>
              <timebase>24</timebase>
              <ntsc>FALSE</ntsc>
            </rate>
            <media>
              <video>
                <track>
                  <clipitem frameBlend="FALSE" id="clipitem-492">
                    <name>Scene - LJ visemes.489.png</name>
                    <masterclipid>masterclip-491</masterclipid>
                    <rate>
                      <timebase>24</timebase>
                      <ntsc>FALSE</ntsc>
                    </rate>
                    <alphatype>straight</alphatype>
                    <pixelaspectratio>square</pixelaspectratio>
                    <anamorphic>FALSE</anamorphic>
                    <file id="file-491">
                      <name>Scene - LJ visemes.489.png</name>
                      <pathurl>file://localhost/Users/bot/Documents/CREATE/Character Animator/LJ visemes CH2AE/demo/Scene - LJ visemes/Scene - LJ visemes.489.png</pathurl>
                      <rate>
                        <timebase>24</timebase>
                        <ntsc>FALSE</ntsc>
                      </rate>
                      <duration>672</duration>
                      <timecode>
                        <rate>
                          <timebase>24</timebase>
                          <ntsc>FALSE</ntsc>
                        </rate>
                      </timecode>
                      <media>
                        <video>
                          <duration>1</duration>
                          <samplecharacteristics>
                            <anamorphic>FALSE</anamorphic>
                            <pixelaspectratio>square</pixelaspectratio>
                            <fielddominance>none</fielddominance>
                            <width>1920</width>
                            <height>1080</height>
                          </samplecharacteristics>
                        </video>
                      </media>
                    </file>
                  </clipitem>
                </track>
              </video>
            </media>
          </clip>
          <clip explodedTracks="true" frameBlend="FALSE" id="masterclip-492">
            <uuid>3df3db9d-f94a-4166-b7de-d0f71201fbc6</uuid>
            <masterclipid>masterclip-492</masterclipid>
            <ismasterclip>TRUE</ismasterclip>
            <duration>672</duration>
            <in>0</in>
            <out>672</out>
            <name>Scene - LJ visemes.490.png</name>
            <rate>
              <timebase>24</timebase>
              <ntsc>FALSE</ntsc>
            </rate>
            <media>
              <video>
                <track>
                  <clipitem frameBlend="FALSE" id="clipitem-493">
                    <name>Scene - LJ visemes.490.png</name>
                    <masterclipid>masterclip-492</masterclipid>
                    <rate>
                      <timebase>24</timebase>
                      <ntsc>FALSE</ntsc>
                    </rate>
                    <alphatype>straight</alphatype>
                    <pixelaspectratio>square</pixelaspectratio>
                    <anamorphic>FALSE</anamorphic>
                    <file id="file-492">
                      <name>Scene - LJ visemes.490.png</name>
                      <pathurl>file://localhost/Users/bot/Documents/CREATE/Character Animator/LJ visemes CH2AE/demo/Scene - LJ visemes/Scene - LJ visemes.490.png</pathurl>
                      <rate>
                        <timebase>24</timebase>
                        <ntsc>FALSE</ntsc>
                      </rate>
                      <duration>672</duration>
                      <timecode>
                        <rate>
                          <timebase>24</timebase>
                          <ntsc>FALSE</ntsc>
                        </rate>
                      </timecode>
                      <media>
                        <video>
                          <duration>1</duration>
                          <samplecharacteristics>
                            <anamorphic>FALSE</anamorphic>
                            <pixelaspectratio>square</pixelaspectratio>
                            <fielddominance>none</fielddominance>
                            <width>1920</width>
                            <height>1080</height>
                          </samplecharacteristics>
                        </video>
                      </media>
                    </file>
                  </clipitem>
                </track>
              </video>
            </media>
          </clip>
          <clip explodedTracks="true" frameBlend="FALSE" id="masterclip-493">
            <uuid>070bfe70-4b60-48bd-aa2e-c9a680bd7acc</uuid>
            <masterclipid>masterclip-493</masterclipid>
            <ismasterclip>TRUE</ismasterclip>
            <duration>672</duration>
            <in>0</in>
            <out>672</out>
            <name>Scene - LJ visemes.491.png</name>
            <rate>
              <timebase>24</timebase>
              <ntsc>FALSE</ntsc>
            </rate>
            <media>
              <video>
                <track>
                  <clipitem frameBlend="FALSE" id="clipitem-494">
                    <name>Scene - LJ visemes.491.png</name>
                    <masterclipid>masterclip-493</masterclipid>
                    <rate>
                      <timebase>24</timebase>
                      <ntsc>FALSE</ntsc>
                    </rate>
                    <alphatype>straight</alphatype>
                    <pixelaspectratio>square</pixelaspectratio>
                    <anamorphic>FALSE</anamorphic>
                    <file id="file-493">
                      <name>Scene - LJ visemes.491.png</name>
                      <pathurl>file://localhost/Users/bot/Documents/CREATE/Character Animator/LJ visemes CH2AE/demo/Scene - LJ visemes/Scene - LJ visemes.491.png</pathurl>
                      <rate>
                        <timebase>24</timebase>
                        <ntsc>FALSE</ntsc>
                      </rate>
                      <duration>672</duration>
                      <timecode>
                        <rate>
                          <timebase>24</timebase>
                          <ntsc>FALSE</ntsc>
                        </rate>
                      </timecode>
                      <media>
                        <video>
                          <duration>1</duration>
                          <samplecharacteristics>
                            <anamorphic>FALSE</anamorphic>
                            <pixelaspectratio>square</pixelaspectratio>
                            <fielddominance>none</fielddominance>
                            <width>1920</width>
                            <height>1080</height>
                          </samplecharacteristics>
                        </video>
                      </media>
                    </file>
                  </clipitem>
                </track>
              </video>
            </media>
          </clip>
          <clip explodedTracks="true" frameBlend="FALSE" id="masterclip-494">
            <uuid>32050797-9aa0-4256-9f77-ea834462f693</uuid>
            <masterclipid>masterclip-494</masterclipid>
            <ismasterclip>TRUE</ismasterclip>
            <duration>672</duration>
            <in>0</in>
            <out>672</out>
            <name>Scene - LJ visemes.492.png</name>
            <rate>
              <timebase>24</timebase>
              <ntsc>FALSE</ntsc>
            </rate>
            <media>
              <video>
                <track>
                  <clipitem frameBlend="FALSE" id="clipitem-495">
                    <name>Scene - LJ visemes.492.png</name>
                    <masterclipid>masterclip-494</masterclipid>
                    <rate>
                      <timebase>24</timebase>
                      <ntsc>FALSE</ntsc>
                    </rate>
                    <alphatype>straight</alphatype>
                    <pixelaspectratio>square</pixelaspectratio>
                    <anamorphic>FALSE</anamorphic>
                    <file id="file-494">
                      <name>Scene - LJ visemes.492.png</name>
                      <pathurl>file://localhost/Users/bot/Documents/CREATE/Character Animator/LJ visemes CH2AE/demo/Scene - LJ visemes/Scene - LJ visemes.492.png</pathurl>
                      <rate>
                        <timebase>24</timebase>
                        <ntsc>FALSE</ntsc>
                      </rate>
                      <duration>672</duration>
                      <timecode>
                        <rate>
                          <timebase>24</timebase>
                          <ntsc>FALSE</ntsc>
                        </rate>
                      </timecode>
                      <media>
                        <video>
                          <duration>1</duration>
                          <samplecharacteristics>
                            <anamorphic>FALSE</anamorphic>
                            <pixelaspectratio>square</pixelaspectratio>
                            <fielddominance>none</fielddominance>
                            <width>1920</width>
                            <height>1080</height>
                          </samplecharacteristics>
                        </video>
                      </media>
                    </file>
                  </clipitem>
                </track>
              </video>
            </media>
          </clip>
          <clip explodedTracks="true" frameBlend="FALSE" id="masterclip-495">
            <uuid>fb30d8d7-896e-4f23-94b9-1ae2b1594402</uuid>
            <masterclipid>masterclip-495</masterclipid>
            <ismasterclip>TRUE</ismasterclip>
            <duration>672</duration>
            <in>0</in>
            <out>672</out>
            <name>Scene - LJ visemes.493.png</name>
            <rate>
              <timebase>24</timebase>
              <ntsc>FALSE</ntsc>
            </rate>
            <media>
              <video>
                <track>
                  <clipitem frameBlend="FALSE" id="clipitem-496">
                    <name>Scene - LJ visemes.493.png</name>
                    <masterclipid>masterclip-495</masterclipid>
                    <rate>
                      <timebase>24</timebase>
                      <ntsc>FALSE</ntsc>
                    </rate>
                    <alphatype>straight</alphatype>
                    <pixelaspectratio>square</pixelaspectratio>
                    <anamorphic>FALSE</anamorphic>
                    <file id="file-495">
                      <name>Scene - LJ visemes.493.png</name>
                      <pathurl>file://localhost/Users/bot/Documents/CREATE/Character Animator/LJ visemes CH2AE/demo/Scene - LJ visemes/Scene - LJ visemes.493.png</pathurl>
                      <rate>
                        <timebase>24</timebase>
                        <ntsc>FALSE</ntsc>
                      </rate>
                      <duration>672</duration>
                      <timecode>
                        <rate>
                          <timebase>24</timebase>
                          <ntsc>FALSE</ntsc>
                        </rate>
                      </timecode>
                      <media>
                        <video>
                          <duration>1</duration>
                          <samplecharacteristics>
                            <anamorphic>FALSE</anamorphic>
                            <pixelaspectratio>square</pixelaspectratio>
                            <fielddominance>none</fielddominance>
                            <width>1920</width>
                            <height>1080</height>
                          </samplecharacteristics>
                        </video>
                      </media>
                    </file>
                  </clipitem>
                </track>
              </video>
            </media>
          </clip>
          <clip explodedTracks="true" frameBlend="FALSE" id="masterclip-496">
            <uuid>a9fd721c-3022-4e8b-b151-f387b24dc913</uuid>
            <masterclipid>masterclip-496</masterclipid>
            <ismasterclip>TRUE</ismasterclip>
            <duration>672</duration>
            <in>0</in>
            <out>672</out>
            <name>Scene - LJ visemes.494.png</name>
            <rate>
              <timebase>24</timebase>
              <ntsc>FALSE</ntsc>
            </rate>
            <media>
              <video>
                <track>
                  <clipitem frameBlend="FALSE" id="clipitem-497">
                    <name>Scene - LJ visemes.494.png</name>
                    <masterclipid>masterclip-496</masterclipid>
                    <rate>
                      <timebase>24</timebase>
                      <ntsc>FALSE</ntsc>
                    </rate>
                    <alphatype>straight</alphatype>
                    <pixelaspectratio>square</pixelaspectratio>
                    <anamorphic>FALSE</anamorphic>
                    <file id="file-496">
                      <name>Scene - LJ visemes.494.png</name>
                      <pathurl>file://localhost/Users/bot/Documents/CREATE/Character Animator/LJ visemes CH2AE/demo/Scene - LJ visemes/Scene - LJ visemes.494.png</pathurl>
                      <rate>
                        <timebase>24</timebase>
                        <ntsc>FALSE</ntsc>
                      </rate>
                      <duration>672</duration>
                      <timecode>
                        <rate>
                          <timebase>24</timebase>
                          <ntsc>FALSE</ntsc>
                        </rate>
                      </timecode>
                      <media>
                        <video>
                          <duration>1</duration>
                          <samplecharacteristics>
                            <anamorphic>FALSE</anamorphic>
                            <pixelaspectratio>square</pixelaspectratio>
                            <fielddominance>none</fielddominance>
                            <width>1920</width>
                            <height>1080</height>
                          </samplecharacteristics>
                        </video>
                      </media>
                    </file>
                  </clipitem>
                </track>
              </video>
            </media>
          </clip>
          <clip explodedTracks="true" frameBlend="FALSE" id="masterclip-497">
            <uuid>2fe175ea-c51f-4f5a-ae9b-026255cef5e3</uuid>
            <masterclipid>masterclip-497</masterclipid>
            <ismasterclip>TRUE</ismasterclip>
            <duration>672</duration>
            <in>0</in>
            <out>672</out>
            <name>Scene - LJ visemes.495.png</name>
            <rate>
              <timebase>24</timebase>
              <ntsc>FALSE</ntsc>
            </rate>
            <media>
              <video>
                <track>
                  <clipitem frameBlend="FALSE" id="clipitem-498">
                    <name>Scene - LJ visemes.495.png</name>
                    <masterclipid>masterclip-497</masterclipid>
                    <rate>
                      <timebase>24</timebase>
                      <ntsc>FALSE</ntsc>
                    </rate>
                    <alphatype>straight</alphatype>
                    <pixelaspectratio>square</pixelaspectratio>
                    <anamorphic>FALSE</anamorphic>
                    <file id="file-497">
                      <name>Scene - LJ visemes.495.png</name>
                      <pathurl>file://localhost/Users/bot/Documents/CREATE/Character Animator/LJ visemes CH2AE/demo/Scene - LJ visemes/Scene - LJ visemes.495.png</pathurl>
                      <rate>
                        <timebase>24</timebase>
                        <ntsc>FALSE</ntsc>
                      </rate>
                      <duration>672</duration>
                      <timecode>
                        <rate>
                          <timebase>24</timebase>
                          <ntsc>FALSE</ntsc>
                        </rate>
                      </timecode>
                      <media>
                        <video>
                          <duration>1</duration>
                          <samplecharacteristics>
                            <anamorphic>FALSE</anamorphic>
                            <pixelaspectratio>square</pixelaspectratio>
                            <fielddominance>none</fielddominance>
                            <width>1920</width>
                            <height>1080</height>
                          </samplecharacteristics>
                        </video>
                      </media>
                    </file>
                  </clipitem>
                </track>
              </video>
            </media>
          </clip>
          <clip explodedTracks="true" frameBlend="FALSE" id="masterclip-498">
            <uuid>3c4a48f7-c68e-418f-a69b-dd8cfbde4eef</uuid>
            <masterclipid>masterclip-498</masterclipid>
            <ismasterclip>TRUE</ismasterclip>
            <duration>672</duration>
            <in>0</in>
            <out>672</out>
            <name>Scene - LJ visemes.496.png</name>
            <rate>
              <timebase>24</timebase>
              <ntsc>FALSE</ntsc>
            </rate>
            <media>
              <video>
                <track>
                  <clipitem frameBlend="FALSE" id="clipitem-499">
                    <name>Scene - LJ visemes.496.png</name>
                    <masterclipid>masterclip-498</masterclipid>
                    <rate>
                      <timebase>24</timebase>
                      <ntsc>FALSE</ntsc>
                    </rate>
                    <alphatype>straight</alphatype>
                    <pixelaspectratio>square</pixelaspectratio>
                    <anamorphic>FALSE</anamorphic>
                    <file id="file-498">
                      <name>Scene - LJ visemes.496.png</name>
                      <pathurl>file://localhost/Users/bot/Documents/CREATE/Character Animator/LJ visemes CH2AE/demo/Scene - LJ visemes/Scene - LJ visemes.496.png</pathurl>
                      <rate>
                        <timebase>24</timebase>
                        <ntsc>FALSE</ntsc>
                      </rate>
                      <duration>672</duration>
                      <timecode>
                        <rate>
                          <timebase>24</timebase>
                          <ntsc>FALSE</ntsc>
                        </rate>
                      </timecode>
                      <media>
                        <video>
                          <duration>1</duration>
                          <samplecharacteristics>
                            <anamorphic>FALSE</anamorphic>
                            <pixelaspectratio>square</pixelaspectratio>
                            <fielddominance>none</fielddominance>
                            <width>1920</width>
                            <height>1080</height>
                          </samplecharacteristics>
                        </video>
                      </media>
                    </file>
                  </clipitem>
                </track>
              </video>
            </media>
          </clip>
          <clip explodedTracks="true" frameBlend="FALSE" id="masterclip-499">
            <uuid>8f95fe8c-c533-4692-a6f9-3e75ea48bcad</uuid>
            <masterclipid>masterclip-499</masterclipid>
            <ismasterclip>TRUE</ismasterclip>
            <duration>672</duration>
            <in>0</in>
            <out>672</out>
            <name>Scene - LJ visemes.497.png</name>
            <rate>
              <timebase>24</timebase>
              <ntsc>FALSE</ntsc>
            </rate>
            <media>
              <video>
                <track>
                  <clipitem frameBlend="FALSE" id="clipitem-500">
                    <name>Scene - LJ visemes.497.png</name>
                    <masterclipid>masterclip-499</masterclipid>
                    <rate>
                      <timebase>24</timebase>
                      <ntsc>FALSE</ntsc>
                    </rate>
                    <alphatype>straight</alphatype>
                    <pixelaspectratio>square</pixelaspectratio>
                    <anamorphic>FALSE</anamorphic>
                    <file id="file-499">
                      <name>Scene - LJ visemes.497.png</name>
                      <pathurl>file://localhost/Users/bot/Documents/CREATE/Character Animator/LJ visemes CH2AE/demo/Scene - LJ visemes/Scene - LJ visemes.497.png</pathurl>
                      <rate>
                        <timebase>24</timebase>
                        <ntsc>FALSE</ntsc>
                      </rate>
                      <duration>672</duration>
                      <timecode>
                        <rate>
                          <timebase>24</timebase>
                          <ntsc>FALSE</ntsc>
                        </rate>
                      </timecode>
                      <media>
                        <video>
                          <duration>1</duration>
                          <samplecharacteristics>
                            <anamorphic>FALSE</anamorphic>
                            <pixelaspectratio>square</pixelaspectratio>
                            <fielddominance>none</fielddominance>
                            <width>1920</width>
                            <height>1080</height>
                          </samplecharacteristics>
                        </video>
                      </media>
                    </file>
                  </clipitem>
                </track>
              </video>
            </media>
          </clip>
          <clip explodedTracks="true" frameBlend="FALSE" id="masterclip-500">
            <uuid>334f4b38-8ad9-4e6e-9652-5e9351eb7e23</uuid>
            <masterclipid>masterclip-500</masterclipid>
            <ismasterclip>TRUE</ismasterclip>
            <duration>672</duration>
            <in>0</in>
            <out>672</out>
            <name>Scene - LJ visemes.498.png</name>
            <rate>
              <timebase>24</timebase>
              <ntsc>FALSE</ntsc>
            </rate>
            <media>
              <video>
                <track>
                  <clipitem frameBlend="FALSE" id="clipitem-501">
                    <name>Scene - LJ visemes.498.png</name>
                    <masterclipid>masterclip-500</masterclipid>
                    <rate>
                      <timebase>24</timebase>
                      <ntsc>FALSE</ntsc>
                    </rate>
                    <alphatype>straight</alphatype>
                    <pixelaspectratio>square</pixelaspectratio>
                    <anamorphic>FALSE</anamorphic>
                    <file id="file-500">
                      <name>Scene - LJ visemes.498.png</name>
                      <pathurl>file://localhost/Users/bot/Documents/CREATE/Character Animator/LJ visemes CH2AE/demo/Scene - LJ visemes/Scene - LJ visemes.498.png</pathurl>
                      <rate>
                        <timebase>24</timebase>
                        <ntsc>FALSE</ntsc>
                      </rate>
                      <duration>672</duration>
                      <timecode>
                        <rate>
                          <timebase>24</timebase>
                          <ntsc>FALSE</ntsc>
                        </rate>
                      </timecode>
                      <media>
                        <video>
                          <duration>1</duration>
                          <samplecharacteristics>
                            <anamorphic>FALSE</anamorphic>
                            <pixelaspectratio>square</pixelaspectratio>
                            <fielddominance>none</fielddominance>
                            <width>1920</width>
                            <height>1080</height>
                          </samplecharacteristics>
                        </video>
                      </media>
                    </file>
                  </clipitem>
                </track>
              </video>
            </media>
          </clip>
          <clip explodedTracks="true" frameBlend="FALSE" id="masterclip-501">
            <uuid>315b02fc-6a13-4f2f-83cc-0312ab4021a5</uuid>
            <masterclipid>masterclip-501</masterclipid>
            <ismasterclip>TRUE</ismasterclip>
            <duration>672</duration>
            <in>0</in>
            <out>672</out>
            <name>Scene - LJ visemes.499.png</name>
            <rate>
              <timebase>24</timebase>
              <ntsc>FALSE</ntsc>
            </rate>
            <media>
              <video>
                <track>
                  <clipitem frameBlend="FALSE" id="clipitem-502">
                    <name>Scene - LJ visemes.499.png</name>
                    <masterclipid>masterclip-501</masterclipid>
                    <rate>
                      <timebase>24</timebase>
                      <ntsc>FALSE</ntsc>
                    </rate>
                    <alphatype>straight</alphatype>
                    <pixelaspectratio>square</pixelaspectratio>
                    <anamorphic>FALSE</anamorphic>
                    <file id="file-501">
                      <name>Scene - LJ visemes.499.png</name>
                      <pathurl>file://localhost/Users/bot/Documents/CREATE/Character Animator/LJ visemes CH2AE/demo/Scene - LJ visemes/Scene - LJ visemes.499.png</pathurl>
                      <rate>
                        <timebase>24</timebase>
                        <ntsc>FALSE</ntsc>
                      </rate>
                      <duration>672</duration>
                      <timecode>
                        <rate>
                          <timebase>24</timebase>
                          <ntsc>FALSE</ntsc>
                        </rate>
                      </timecode>
                      <media>
                        <video>
                          <duration>1</duration>
                          <samplecharacteristics>
                            <anamorphic>FALSE</anamorphic>
                            <pixelaspectratio>square</pixelaspectratio>
                            <fielddominance>none</fielddominance>
                            <width>1920</width>
                            <height>1080</height>
                          </samplecharacteristics>
                        </video>
                      </media>
                    </file>
                  </clipitem>
                </track>
              </video>
            </media>
          </clip>
          <clip explodedTracks="true" frameBlend="FALSE" id="masterclip-502">
            <uuid>ae93cbaf-d6da-4b02-920e-299c15ceeb98</uuid>
            <masterclipid>masterclip-502</masterclipid>
            <ismasterclip>TRUE</ismasterclip>
            <duration>672</duration>
            <in>0</in>
            <out>672</out>
            <name>Scene - LJ visemes.500.png</name>
            <rate>
              <timebase>24</timebase>
              <ntsc>FALSE</ntsc>
            </rate>
            <media>
              <video>
                <track>
                  <clipitem frameBlend="FALSE" id="clipitem-503">
                    <name>Scene - LJ visemes.500.png</name>
                    <masterclipid>masterclip-502</masterclipid>
                    <rate>
                      <timebase>24</timebase>
                      <ntsc>FALSE</ntsc>
                    </rate>
                    <alphatype>straight</alphatype>
                    <pixelaspectratio>square</pixelaspectratio>
                    <anamorphic>FALSE</anamorphic>
                    <file id="file-502">
                      <name>Scene - LJ visemes.500.png</name>
                      <pathurl>file://localhost/Users/bot/Documents/CREATE/Character Animator/LJ visemes CH2AE/demo/Scene - LJ visemes/Scene - LJ visemes.500.png</pathurl>
                      <rate>
                        <timebase>24</timebase>
                        <ntsc>FALSE</ntsc>
                      </rate>
                      <duration>672</duration>
                      <timecode>
                        <rate>
                          <timebase>24</timebase>
                          <ntsc>FALSE</ntsc>
                        </rate>
                      </timecode>
                      <media>
                        <video>
                          <duration>1</duration>
                          <samplecharacteristics>
                            <anamorphic>FALSE</anamorphic>
                            <pixelaspectratio>square</pixelaspectratio>
                            <fielddominance>none</fielddominance>
                            <width>1920</width>
                            <height>1080</height>
                          </samplecharacteristics>
                        </video>
                      </media>
                    </file>
                  </clipitem>
                </track>
              </video>
            </media>
          </clip>
          <clip explodedTracks="true" frameBlend="FALSE" id="masterclip-503">
            <uuid>ca367dbc-8dc3-4c74-8291-06c0576b5bbb</uuid>
            <masterclipid>masterclip-503</masterclipid>
            <ismasterclip>TRUE</ismasterclip>
            <duration>672</duration>
            <in>0</in>
            <out>672</out>
            <name>Scene - LJ visemes.501.png</name>
            <rate>
              <timebase>24</timebase>
              <ntsc>FALSE</ntsc>
            </rate>
            <media>
              <video>
                <track>
                  <clipitem frameBlend="FALSE" id="clipitem-504">
                    <name>Scene - LJ visemes.501.png</name>
                    <masterclipid>masterclip-503</masterclipid>
                    <rate>
                      <timebase>24</timebase>
                      <ntsc>FALSE</ntsc>
                    </rate>
                    <alphatype>straight</alphatype>
                    <pixelaspectratio>square</pixelaspectratio>
                    <anamorphic>FALSE</anamorphic>
                    <file id="file-503">
                      <name>Scene - LJ visemes.501.png</name>
                      <pathurl>file://localhost/Users/bot/Documents/CREATE/Character Animator/LJ visemes CH2AE/demo/Scene - LJ visemes/Scene - LJ visemes.501.png</pathurl>
                      <rate>
                        <timebase>24</timebase>
                        <ntsc>FALSE</ntsc>
                      </rate>
                      <duration>672</duration>
                      <timecode>
                        <rate>
                          <timebase>24</timebase>
                          <ntsc>FALSE</ntsc>
                        </rate>
                      </timecode>
                      <media>
                        <video>
                          <duration>1</duration>
                          <samplecharacteristics>
                            <anamorphic>FALSE</anamorphic>
                            <pixelaspectratio>square</pixelaspectratio>
                            <fielddominance>none</fielddominance>
                            <width>1920</width>
                            <height>1080</height>
                          </samplecharacteristics>
                        </video>
                      </media>
                    </file>
                  </clipitem>
                </track>
              </video>
            </media>
          </clip>
          <clip explodedTracks="true" frameBlend="FALSE" id="masterclip-504">
            <uuid>0bd54a7e-96b4-43bd-aaf6-34873c039d60</uuid>
            <masterclipid>masterclip-504</masterclipid>
            <ismasterclip>TRUE</ismasterclip>
            <duration>672</duration>
            <in>0</in>
            <out>672</out>
            <name>Scene - LJ visemes.502.png</name>
            <rate>
              <timebase>24</timebase>
              <ntsc>FALSE</ntsc>
            </rate>
            <media>
              <video>
                <track>
                  <clipitem frameBlend="FALSE" id="clipitem-505">
                    <name>Scene - LJ visemes.502.png</name>
                    <masterclipid>masterclip-504</masterclipid>
                    <rate>
                      <timebase>24</timebase>
                      <ntsc>FALSE</ntsc>
                    </rate>
                    <alphatype>straight</alphatype>
                    <pixelaspectratio>square</pixelaspectratio>
                    <anamorphic>FALSE</anamorphic>
                    <file id="file-504">
                      <name>Scene - LJ visemes.502.png</name>
                      <pathurl>file://localhost/Users/bot/Documents/CREATE/Character Animator/LJ visemes CH2AE/demo/Scene - LJ visemes/Scene - LJ visemes.502.png</pathurl>
                      <rate>
                        <timebase>24</timebase>
                        <ntsc>FALSE</ntsc>
                      </rate>
                      <duration>672</duration>
                      <timecode>
                        <rate>
                          <timebase>24</timebase>
                          <ntsc>FALSE</ntsc>
                        </rate>
                      </timecode>
                      <media>
                        <video>
                          <duration>1</duration>
                          <samplecharacteristics>
                            <anamorphic>FALSE</anamorphic>
                            <pixelaspectratio>square</pixelaspectratio>
                            <fielddominance>none</fielddominance>
                            <width>1920</width>
                            <height>1080</height>
                          </samplecharacteristics>
                        </video>
                      </media>
                    </file>
                  </clipitem>
                </track>
              </video>
            </media>
          </clip>
          <clip explodedTracks="true" frameBlend="FALSE" id="masterclip-505">
            <uuid>a9aae658-5614-4b72-9131-a79bcaf589ed</uuid>
            <masterclipid>masterclip-505</masterclipid>
            <ismasterclip>TRUE</ismasterclip>
            <duration>672</duration>
            <in>0</in>
            <out>672</out>
            <name>Scene - LJ visemes.503.png</name>
            <rate>
              <timebase>24</timebase>
              <ntsc>FALSE</ntsc>
            </rate>
            <media>
              <video>
                <track>
                  <clipitem frameBlend="FALSE" id="clipitem-506">
                    <name>Scene - LJ visemes.503.png</name>
                    <masterclipid>masterclip-505</masterclipid>
                    <rate>
                      <timebase>24</timebase>
                      <ntsc>FALSE</ntsc>
                    </rate>
                    <alphatype>straight</alphatype>
                    <pixelaspectratio>square</pixelaspectratio>
                    <anamorphic>FALSE</anamorphic>
                    <file id="file-505">
                      <name>Scene - LJ visemes.503.png</name>
                      <pathurl>file://localhost/Users/bot/Documents/CREATE/Character Animator/LJ visemes CH2AE/demo/Scene - LJ visemes/Scene - LJ visemes.503.png</pathurl>
                      <rate>
                        <timebase>24</timebase>
                        <ntsc>FALSE</ntsc>
                      </rate>
                      <duration>672</duration>
                      <timecode>
                        <rate>
                          <timebase>24</timebase>
                          <ntsc>FALSE</ntsc>
                        </rate>
                      </timecode>
                      <media>
                        <video>
                          <duration>1</duration>
                          <samplecharacteristics>
                            <anamorphic>FALSE</anamorphic>
                            <pixelaspectratio>square</pixelaspectratio>
                            <fielddominance>none</fielddominance>
                            <width>1920</width>
                            <height>1080</height>
                          </samplecharacteristics>
                        </video>
                      </media>
                    </file>
                  </clipitem>
                </track>
              </video>
            </media>
          </clip>
          <clip explodedTracks="true" frameBlend="FALSE" id="masterclip-506">
            <uuid>23e61e98-1939-40c8-a4a0-1c0695df4efe</uuid>
            <masterclipid>masterclip-506</masterclipid>
            <ismasterclip>TRUE</ismasterclip>
            <duration>672</duration>
            <in>0</in>
            <out>672</out>
            <name>Scene - LJ visemes.504.png</name>
            <rate>
              <timebase>24</timebase>
              <ntsc>FALSE</ntsc>
            </rate>
            <media>
              <video>
                <track>
                  <clipitem frameBlend="FALSE" id="clipitem-507">
                    <name>Scene - LJ visemes.504.png</name>
                    <masterclipid>masterclip-506</masterclipid>
                    <rate>
                      <timebase>24</timebase>
                      <ntsc>FALSE</ntsc>
                    </rate>
                    <alphatype>straight</alphatype>
                    <pixelaspectratio>square</pixelaspectratio>
                    <anamorphic>FALSE</anamorphic>
                    <file id="file-506">
                      <name>Scene - LJ visemes.504.png</name>
                      <pathurl>file://localhost/Users/bot/Documents/CREATE/Character Animator/LJ visemes CH2AE/demo/Scene - LJ visemes/Scene - LJ visemes.504.png</pathurl>
                      <rate>
                        <timebase>24</timebase>
                        <ntsc>FALSE</ntsc>
                      </rate>
                      <duration>672</duration>
                      <timecode>
                        <rate>
                          <timebase>24</timebase>
                          <ntsc>FALSE</ntsc>
                        </rate>
                      </timecode>
                      <media>
                        <video>
                          <duration>1</duration>
                          <samplecharacteristics>
                            <anamorphic>FALSE</anamorphic>
                            <pixelaspectratio>square</pixelaspectratio>
                            <fielddominance>none</fielddominance>
                            <width>1920</width>
                            <height>1080</height>
                          </samplecharacteristics>
                        </video>
                      </media>
                    </file>
                  </clipitem>
                </track>
              </video>
            </media>
          </clip>
          <clip explodedTracks="true" frameBlend="FALSE" id="masterclip-507">
            <uuid>06163495-1cb0-4464-8dfc-d2acd8d66d11</uuid>
            <masterclipid>masterclip-507</masterclipid>
            <ismasterclip>TRUE</ismasterclip>
            <duration>672</duration>
            <in>0</in>
            <out>672</out>
            <name>Scene - LJ visemes.505.png</name>
            <rate>
              <timebase>24</timebase>
              <ntsc>FALSE</ntsc>
            </rate>
            <media>
              <video>
                <track>
                  <clipitem frameBlend="FALSE" id="clipitem-508">
                    <name>Scene - LJ visemes.505.png</name>
                    <masterclipid>masterclip-507</masterclipid>
                    <rate>
                      <timebase>24</timebase>
                      <ntsc>FALSE</ntsc>
                    </rate>
                    <alphatype>straight</alphatype>
                    <pixelaspectratio>square</pixelaspectratio>
                    <anamorphic>FALSE</anamorphic>
                    <file id="file-507">
                      <name>Scene - LJ visemes.505.png</name>
                      <pathurl>file://localhost/Users/bot/Documents/CREATE/Character Animator/LJ visemes CH2AE/demo/Scene - LJ visemes/Scene - LJ visemes.505.png</pathurl>
                      <rate>
                        <timebase>24</timebase>
                        <ntsc>FALSE</ntsc>
                      </rate>
                      <duration>672</duration>
                      <timecode>
                        <rate>
                          <timebase>24</timebase>
                          <ntsc>FALSE</ntsc>
                        </rate>
                      </timecode>
                      <media>
                        <video>
                          <duration>1</duration>
                          <samplecharacteristics>
                            <anamorphic>FALSE</anamorphic>
                            <pixelaspectratio>square</pixelaspectratio>
                            <fielddominance>none</fielddominance>
                            <width>1920</width>
                            <height>1080</height>
                          </samplecharacteristics>
                        </video>
                      </media>
                    </file>
                  </clipitem>
                </track>
              </video>
            </media>
          </clip>
          <clip explodedTracks="true" frameBlend="FALSE" id="masterclip-508">
            <uuid>4ef1ed5a-0329-42c5-afc9-bfe57df2c800</uuid>
            <masterclipid>masterclip-508</masterclipid>
            <ismasterclip>TRUE</ismasterclip>
            <duration>672</duration>
            <in>0</in>
            <out>672</out>
            <name>Scene - LJ visemes.506.png</name>
            <rate>
              <timebase>24</timebase>
              <ntsc>FALSE</ntsc>
            </rate>
            <media>
              <video>
                <track>
                  <clipitem frameBlend="FALSE" id="clipitem-509">
                    <name>Scene - LJ visemes.506.png</name>
                    <masterclipid>masterclip-508</masterclipid>
                    <rate>
                      <timebase>24</timebase>
                      <ntsc>FALSE</ntsc>
                    </rate>
                    <alphatype>straight</alphatype>
                    <pixelaspectratio>square</pixelaspectratio>
                    <anamorphic>FALSE</anamorphic>
                    <file id="file-508">
                      <name>Scene - LJ visemes.506.png</name>
                      <pathurl>file://localhost/Users/bot/Documents/CREATE/Character Animator/LJ visemes CH2AE/demo/Scene - LJ visemes/Scene - LJ visemes.506.png</pathurl>
                      <rate>
                        <timebase>24</timebase>
                        <ntsc>FALSE</ntsc>
                      </rate>
                      <duration>672</duration>
                      <timecode>
                        <rate>
                          <timebase>24</timebase>
                          <ntsc>FALSE</ntsc>
                        </rate>
                      </timecode>
                      <media>
                        <video>
                          <duration>1</duration>
                          <samplecharacteristics>
                            <anamorphic>FALSE</anamorphic>
                            <pixelaspectratio>square</pixelaspectratio>
                            <fielddominance>none</fielddominance>
                            <width>1920</width>
                            <height>1080</height>
                          </samplecharacteristics>
                        </video>
                      </media>
                    </file>
                  </clipitem>
                </track>
              </video>
            </media>
          </clip>
          <clip explodedTracks="true" frameBlend="FALSE" id="masterclip-509">
            <uuid>e3514291-ad34-49ea-9ac8-4a5f5a27f618</uuid>
            <masterclipid>masterclip-509</masterclipid>
            <ismasterclip>TRUE</ismasterclip>
            <duration>672</duration>
            <in>0</in>
            <out>672</out>
            <name>Scene - LJ visemes.507.png</name>
            <rate>
              <timebase>24</timebase>
              <ntsc>FALSE</ntsc>
            </rate>
            <media>
              <video>
                <track>
                  <clipitem frameBlend="FALSE" id="clipitem-510">
                    <name>Scene - LJ visemes.507.png</name>
                    <masterclipid>masterclip-509</masterclipid>
                    <rate>
                      <timebase>24</timebase>
                      <ntsc>FALSE</ntsc>
                    </rate>
                    <alphatype>straight</alphatype>
                    <pixelaspectratio>square</pixelaspectratio>
                    <anamorphic>FALSE</anamorphic>
                    <file id="file-509">
                      <name>Scene - LJ visemes.507.png</name>
                      <pathurl>file://localhost/Users/bot/Documents/CREATE/Character Animator/LJ visemes CH2AE/demo/Scene - LJ visemes/Scene - LJ visemes.507.png</pathurl>
                      <rate>
                        <timebase>24</timebase>
                        <ntsc>FALSE</ntsc>
                      </rate>
                      <duration>672</duration>
                      <timecode>
                        <rate>
                          <timebase>24</timebase>
                          <ntsc>FALSE</ntsc>
                        </rate>
                      </timecode>
                      <media>
                        <video>
                          <duration>1</duration>
                          <samplecharacteristics>
                            <anamorphic>FALSE</anamorphic>
                            <pixelaspectratio>square</pixelaspectratio>
                            <fielddominance>none</fielddominance>
                            <width>1920</width>
                            <height>1080</height>
                          </samplecharacteristics>
                        </video>
                      </media>
                    </file>
                  </clipitem>
                </track>
              </video>
            </media>
          </clip>
          <clip explodedTracks="true" frameBlend="FALSE" id="masterclip-510">
            <uuid>b415f92b-1acc-4ecf-b374-54e9f3762fa1</uuid>
            <masterclipid>masterclip-510</masterclipid>
            <ismasterclip>TRUE</ismasterclip>
            <duration>672</duration>
            <in>0</in>
            <out>672</out>
            <name>Scene - LJ visemes.508.png</name>
            <rate>
              <timebase>24</timebase>
              <ntsc>FALSE</ntsc>
            </rate>
            <media>
              <video>
                <track>
                  <clipitem frameBlend="FALSE" id="clipitem-511">
                    <name>Scene - LJ visemes.508.png</name>
                    <masterclipid>masterclip-510</masterclipid>
                    <rate>
                      <timebase>24</timebase>
                      <ntsc>FALSE</ntsc>
                    </rate>
                    <alphatype>straight</alphatype>
                    <pixelaspectratio>square</pixelaspectratio>
                    <anamorphic>FALSE</anamorphic>
                    <file id="file-510">
                      <name>Scene - LJ visemes.508.png</name>
                      <pathurl>file://localhost/Users/bot/Documents/CREATE/Character Animator/LJ visemes CH2AE/demo/Scene - LJ visemes/Scene - LJ visemes.508.png</pathurl>
                      <rate>
                        <timebase>24</timebase>
                        <ntsc>FALSE</ntsc>
                      </rate>
                      <duration>672</duration>
                      <timecode>
                        <rate>
                          <timebase>24</timebase>
                          <ntsc>FALSE</ntsc>
                        </rate>
                      </timecode>
                      <media>
                        <video>
                          <duration>1</duration>
                          <samplecharacteristics>
                            <anamorphic>FALSE</anamorphic>
                            <pixelaspectratio>square</pixelaspectratio>
                            <fielddominance>none</fielddominance>
                            <width>1920</width>
                            <height>1080</height>
                          </samplecharacteristics>
                        </video>
                      </media>
                    </file>
                  </clipitem>
                </track>
              </video>
            </media>
          </clip>
          <clip explodedTracks="true" frameBlend="FALSE" id="masterclip-511">
            <uuid>7f55de90-5335-478d-af44-8f547cc78e1f</uuid>
            <masterclipid>masterclip-511</masterclipid>
            <ismasterclip>TRUE</ismasterclip>
            <duration>672</duration>
            <in>0</in>
            <out>672</out>
            <name>Scene - LJ visemes.509.png</name>
            <rate>
              <timebase>24</timebase>
              <ntsc>FALSE</ntsc>
            </rate>
            <media>
              <video>
                <track>
                  <clipitem frameBlend="FALSE" id="clipitem-512">
                    <name>Scene - LJ visemes.509.png</name>
                    <masterclipid>masterclip-511</masterclipid>
                    <rate>
                      <timebase>24</timebase>
                      <ntsc>FALSE</ntsc>
                    </rate>
                    <alphatype>straight</alphatype>
                    <pixelaspectratio>square</pixelaspectratio>
                    <anamorphic>FALSE</anamorphic>
                    <file id="file-511">
                      <name>Scene - LJ visemes.509.png</name>
                      <pathurl>file://localhost/Users/bot/Documents/CREATE/Character Animator/LJ visemes CH2AE/demo/Scene - LJ visemes/Scene - LJ visemes.509.png</pathurl>
                      <rate>
                        <timebase>24</timebase>
                        <ntsc>FALSE</ntsc>
                      </rate>
                      <duration>672</duration>
                      <timecode>
                        <rate>
                          <timebase>24</timebase>
                          <ntsc>FALSE</ntsc>
                        </rate>
                      </timecode>
                      <media>
                        <video>
                          <duration>1</duration>
                          <samplecharacteristics>
                            <anamorphic>FALSE</anamorphic>
                            <pixelaspectratio>square</pixelaspectratio>
                            <fielddominance>none</fielddominance>
                            <width>1920</width>
                            <height>1080</height>
                          </samplecharacteristics>
                        </video>
                      </media>
                    </file>
                  </clipitem>
                </track>
              </video>
            </media>
          </clip>
          <clip explodedTracks="true" frameBlend="FALSE" id="masterclip-512">
            <uuid>fbd2b993-9ba4-45d1-bf92-451814e5c7aa</uuid>
            <masterclipid>masterclip-512</masterclipid>
            <ismasterclip>TRUE</ismasterclip>
            <duration>672</duration>
            <in>0</in>
            <out>672</out>
            <name>Scene - LJ visemes.510.png</name>
            <rate>
              <timebase>24</timebase>
              <ntsc>FALSE</ntsc>
            </rate>
            <media>
              <video>
                <track>
                  <clipitem frameBlend="FALSE" id="clipitem-513">
                    <name>Scene - LJ visemes.510.png</name>
                    <masterclipid>masterclip-512</masterclipid>
                    <rate>
                      <timebase>24</timebase>
                      <ntsc>FALSE</ntsc>
                    </rate>
                    <alphatype>straight</alphatype>
                    <pixelaspectratio>square</pixelaspectratio>
                    <anamorphic>FALSE</anamorphic>
                    <file id="file-512">
                      <name>Scene - LJ visemes.510.png</name>
                      <pathurl>file://localhost/Users/bot/Documents/CREATE/Character Animator/LJ visemes CH2AE/demo/Scene - LJ visemes/Scene - LJ visemes.510.png</pathurl>
                      <rate>
                        <timebase>24</timebase>
                        <ntsc>FALSE</ntsc>
                      </rate>
                      <duration>672</duration>
                      <timecode>
                        <rate>
                          <timebase>24</timebase>
                          <ntsc>FALSE</ntsc>
                        </rate>
                      </timecode>
                      <media>
                        <video>
                          <duration>1</duration>
                          <samplecharacteristics>
                            <anamorphic>FALSE</anamorphic>
                            <pixelaspectratio>square</pixelaspectratio>
                            <fielddominance>none</fielddominance>
                            <width>1920</width>
                            <height>1080</height>
                          </samplecharacteristics>
                        </video>
                      </media>
                    </file>
                  </clipitem>
                </track>
              </video>
            </media>
          </clip>
          <clip explodedTracks="true" frameBlend="FALSE" id="masterclip-513">
            <uuid>9ffda5d5-00c6-4579-ba31-ffb30ae7e68e</uuid>
            <masterclipid>masterclip-513</masterclipid>
            <ismasterclip>TRUE</ismasterclip>
            <duration>672</duration>
            <in>0</in>
            <out>672</out>
            <name>Scene - LJ visemes.511.png</name>
            <rate>
              <timebase>24</timebase>
              <ntsc>FALSE</ntsc>
            </rate>
            <media>
              <video>
                <track>
                  <clipitem frameBlend="FALSE" id="clipitem-514">
                    <name>Scene - LJ visemes.511.png</name>
                    <masterclipid>masterclip-513</masterclipid>
                    <rate>
                      <timebase>24</timebase>
                      <ntsc>FALSE</ntsc>
                    </rate>
                    <alphatype>straight</alphatype>
                    <pixelaspectratio>square</pixelaspectratio>
                    <anamorphic>FALSE</anamorphic>
                    <file id="file-513">
                      <name>Scene - LJ visemes.511.png</name>
                      <pathurl>file://localhost/Users/bot/Documents/CREATE/Character Animator/LJ visemes CH2AE/demo/Scene - LJ visemes/Scene - LJ visemes.511.png</pathurl>
                      <rate>
                        <timebase>24</timebase>
                        <ntsc>FALSE</ntsc>
                      </rate>
                      <duration>672</duration>
                      <timecode>
                        <rate>
                          <timebase>24</timebase>
                          <ntsc>FALSE</ntsc>
                        </rate>
                      </timecode>
                      <media>
                        <video>
                          <duration>1</duration>
                          <samplecharacteristics>
                            <anamorphic>FALSE</anamorphic>
                            <pixelaspectratio>square</pixelaspectratio>
                            <fielddominance>none</fielddominance>
                            <width>1920</width>
                            <height>1080</height>
                          </samplecharacteristics>
                        </video>
                      </media>
                    </file>
                  </clipitem>
                </track>
              </video>
            </media>
          </clip>
          <clip explodedTracks="true" frameBlend="FALSE" id="masterclip-514">
            <uuid>00b9167a-c53a-4694-92cd-a8fdcb987bc4</uuid>
            <masterclipid>masterclip-514</masterclipid>
            <ismasterclip>TRUE</ismasterclip>
            <duration>672</duration>
            <in>0</in>
            <out>672</out>
            <name>Scene - LJ visemes.512.png</name>
            <rate>
              <timebase>24</timebase>
              <ntsc>FALSE</ntsc>
            </rate>
            <media>
              <video>
                <track>
                  <clipitem frameBlend="FALSE" id="clipitem-515">
                    <name>Scene - LJ visemes.512.png</name>
                    <masterclipid>masterclip-514</masterclipid>
                    <rate>
                      <timebase>24</timebase>
                      <ntsc>FALSE</ntsc>
                    </rate>
                    <alphatype>straight</alphatype>
                    <pixelaspectratio>square</pixelaspectratio>
                    <anamorphic>FALSE</anamorphic>
                    <file id="file-514">
                      <name>Scene - LJ visemes.512.png</name>
                      <pathurl>file://localhost/Users/bot/Documents/CREATE/Character Animator/LJ visemes CH2AE/demo/Scene - LJ visemes/Scene - LJ visemes.512.png</pathurl>
                      <rate>
                        <timebase>24</timebase>
                        <ntsc>FALSE</ntsc>
                      </rate>
                      <duration>672</duration>
                      <timecode>
                        <rate>
                          <timebase>24</timebase>
                          <ntsc>FALSE</ntsc>
                        </rate>
                      </timecode>
                      <media>
                        <video>
                          <duration>1</duration>
                          <samplecharacteristics>
                            <anamorphic>FALSE</anamorphic>
                            <pixelaspectratio>square</pixelaspectratio>
                            <fielddominance>none</fielddominance>
                            <width>1920</width>
                            <height>1080</height>
                          </samplecharacteristics>
                        </video>
                      </media>
                    </file>
                  </clipitem>
                </track>
              </video>
            </media>
          </clip>
          <clip explodedTracks="true" frameBlend="FALSE" id="masterclip-515">
            <uuid>d20424fe-fb95-4f9b-8e52-2b679592606e</uuid>
            <masterclipid>masterclip-515</masterclipid>
            <ismasterclip>TRUE</ismasterclip>
            <duration>672</duration>
            <in>0</in>
            <out>672</out>
            <name>Scene - LJ visemes.513.png</name>
            <rate>
              <timebase>24</timebase>
              <ntsc>FALSE</ntsc>
            </rate>
            <media>
              <video>
                <track>
                  <clipitem frameBlend="FALSE" id="clipitem-516">
                    <name>Scene - LJ visemes.513.png</name>
                    <masterclipid>masterclip-515</masterclipid>
                    <rate>
                      <timebase>24</timebase>
                      <ntsc>FALSE</ntsc>
                    </rate>
                    <alphatype>straight</alphatype>
                    <pixelaspectratio>square</pixelaspectratio>
                    <anamorphic>FALSE</anamorphic>
                    <file id="file-515">
                      <name>Scene - LJ visemes.513.png</name>
                      <pathurl>file://localhost/Users/bot/Documents/CREATE/Character Animator/LJ visemes CH2AE/demo/Scene - LJ visemes/Scene - LJ visemes.513.png</pathurl>
                      <rate>
                        <timebase>24</timebase>
                        <ntsc>FALSE</ntsc>
                      </rate>
                      <duration>672</duration>
                      <timecode>
                        <rate>
                          <timebase>24</timebase>
                          <ntsc>FALSE</ntsc>
                        </rate>
                      </timecode>
                      <media>
                        <video>
                          <duration>1</duration>
                          <samplecharacteristics>
                            <anamorphic>FALSE</anamorphic>
                            <pixelaspectratio>square</pixelaspectratio>
                            <fielddominance>none</fielddominance>
                            <width>1920</width>
                            <height>1080</height>
                          </samplecharacteristics>
                        </video>
                      </media>
                    </file>
                  </clipitem>
                </track>
              </video>
            </media>
          </clip>
          <clip explodedTracks="true" frameBlend="FALSE" id="masterclip-516">
            <uuid>5d91eb0b-db8b-4e5d-8627-47883bf36600</uuid>
            <masterclipid>masterclip-516</masterclipid>
            <ismasterclip>TRUE</ismasterclip>
            <duration>672</duration>
            <in>0</in>
            <out>672</out>
            <name>Scene - LJ visemes.514.png</name>
            <rate>
              <timebase>24</timebase>
              <ntsc>FALSE</ntsc>
            </rate>
            <media>
              <video>
                <track>
                  <clipitem frameBlend="FALSE" id="clipitem-517">
                    <name>Scene - LJ visemes.514.png</name>
                    <masterclipid>masterclip-516</masterclipid>
                    <rate>
                      <timebase>24</timebase>
                      <ntsc>FALSE</ntsc>
                    </rate>
                    <alphatype>straight</alphatype>
                    <pixelaspectratio>square</pixelaspectratio>
                    <anamorphic>FALSE</anamorphic>
                    <file id="file-516">
                      <name>Scene - LJ visemes.514.png</name>
                      <pathurl>file://localhost/Users/bot/Documents/CREATE/Character Animator/LJ visemes CH2AE/demo/Scene - LJ visemes/Scene - LJ visemes.514.png</pathurl>
                      <rate>
                        <timebase>24</timebase>
                        <ntsc>FALSE</ntsc>
                      </rate>
                      <duration>672</duration>
                      <timecode>
                        <rate>
                          <timebase>24</timebase>
                          <ntsc>FALSE</ntsc>
                        </rate>
                      </timecode>
                      <media>
                        <video>
                          <duration>1</duration>
                          <samplecharacteristics>
                            <anamorphic>FALSE</anamorphic>
                            <pixelaspectratio>square</pixelaspectratio>
                            <fielddominance>none</fielddominance>
                            <width>1920</width>
                            <height>1080</height>
                          </samplecharacteristics>
                        </video>
                      </media>
                    </file>
                  </clipitem>
                </track>
              </video>
            </media>
          </clip>
          <clip explodedTracks="true" frameBlend="FALSE" id="masterclip-517">
            <uuid>1ab085be-69c6-4f2e-871d-0665f8fd42a1</uuid>
            <masterclipid>masterclip-517</masterclipid>
            <ismasterclip>TRUE</ismasterclip>
            <duration>672</duration>
            <in>0</in>
            <out>672</out>
            <name>Scene - LJ visemes.515.png</name>
            <rate>
              <timebase>24</timebase>
              <ntsc>FALSE</ntsc>
            </rate>
            <media>
              <video>
                <track>
                  <clipitem frameBlend="FALSE" id="clipitem-518">
                    <name>Scene - LJ visemes.515.png</name>
                    <masterclipid>masterclip-517</masterclipid>
                    <rate>
                      <timebase>24</timebase>
                      <ntsc>FALSE</ntsc>
                    </rate>
                    <alphatype>straight</alphatype>
                    <pixelaspectratio>square</pixelaspectratio>
                    <anamorphic>FALSE</anamorphic>
                    <file id="file-517">
                      <name>Scene - LJ visemes.515.png</name>
                      <pathurl>file://localhost/Users/bot/Documents/CREATE/Character Animator/LJ visemes CH2AE/demo/Scene - LJ visemes/Scene - LJ visemes.515.png</pathurl>
                      <rate>
                        <timebase>24</timebase>
                        <ntsc>FALSE</ntsc>
                      </rate>
                      <duration>672</duration>
                      <timecode>
                        <rate>
                          <timebase>24</timebase>
                          <ntsc>FALSE</ntsc>
                        </rate>
                      </timecode>
                      <media>
                        <video>
                          <duration>1</duration>
                          <samplecharacteristics>
                            <anamorphic>FALSE</anamorphic>
                            <pixelaspectratio>square</pixelaspectratio>
                            <fielddominance>none</fielddominance>
                            <width>1920</width>
                            <height>1080</height>
                          </samplecharacteristics>
                        </video>
                      </media>
                    </file>
                  </clipitem>
                </track>
              </video>
            </media>
          </clip>
          <clip explodedTracks="true" frameBlend="FALSE" id="masterclip-518">
            <uuid>f0d244df-3188-4c19-abf1-63d0c50c81fa</uuid>
            <masterclipid>masterclip-518</masterclipid>
            <ismasterclip>TRUE</ismasterclip>
            <duration>672</duration>
            <in>0</in>
            <out>672</out>
            <name>Scene - LJ visemes.516.png</name>
            <rate>
              <timebase>24</timebase>
              <ntsc>FALSE</ntsc>
            </rate>
            <media>
              <video>
                <track>
                  <clipitem frameBlend="FALSE" id="clipitem-519">
                    <name>Scene - LJ visemes.516.png</name>
                    <masterclipid>masterclip-518</masterclipid>
                    <rate>
                      <timebase>24</timebase>
                      <ntsc>FALSE</ntsc>
                    </rate>
                    <alphatype>straight</alphatype>
                    <pixelaspectratio>square</pixelaspectratio>
                    <anamorphic>FALSE</anamorphic>
                    <file id="file-518">
                      <name>Scene - LJ visemes.516.png</name>
                      <pathurl>file://localhost/Users/bot/Documents/CREATE/Character Animator/LJ visemes CH2AE/demo/Scene - LJ visemes/Scene - LJ visemes.516.png</pathurl>
                      <rate>
                        <timebase>24</timebase>
                        <ntsc>FALSE</ntsc>
                      </rate>
                      <duration>672</duration>
                      <timecode>
                        <rate>
                          <timebase>24</timebase>
                          <ntsc>FALSE</ntsc>
                        </rate>
                      </timecode>
                      <media>
                        <video>
                          <duration>1</duration>
                          <samplecharacteristics>
                            <anamorphic>FALSE</anamorphic>
                            <pixelaspectratio>square</pixelaspectratio>
                            <fielddominance>none</fielddominance>
                            <width>1920</width>
                            <height>1080</height>
                          </samplecharacteristics>
                        </video>
                      </media>
                    </file>
                  </clipitem>
                </track>
              </video>
            </media>
          </clip>
          <clip explodedTracks="true" frameBlend="FALSE" id="masterclip-519">
            <uuid>134475a6-46b0-4218-b2d8-ed7d7c254da0</uuid>
            <masterclipid>masterclip-519</masterclipid>
            <ismasterclip>TRUE</ismasterclip>
            <duration>672</duration>
            <in>0</in>
            <out>672</out>
            <name>Scene - LJ visemes.517.png</name>
            <rate>
              <timebase>24</timebase>
              <ntsc>FALSE</ntsc>
            </rate>
            <media>
              <video>
                <track>
                  <clipitem frameBlend="FALSE" id="clipitem-520">
                    <name>Scene - LJ visemes.517.png</name>
                    <masterclipid>masterclip-519</masterclipid>
                    <rate>
                      <timebase>24</timebase>
                      <ntsc>FALSE</ntsc>
                    </rate>
                    <alphatype>straight</alphatype>
                    <pixelaspectratio>square</pixelaspectratio>
                    <anamorphic>FALSE</anamorphic>
                    <file id="file-519">
                      <name>Scene - LJ visemes.517.png</name>
                      <pathurl>file://localhost/Users/bot/Documents/CREATE/Character Animator/LJ visemes CH2AE/demo/Scene - LJ visemes/Scene - LJ visemes.517.png</pathurl>
                      <rate>
                        <timebase>24</timebase>
                        <ntsc>FALSE</ntsc>
                      </rate>
                      <duration>672</duration>
                      <timecode>
                        <rate>
                          <timebase>24</timebase>
                          <ntsc>FALSE</ntsc>
                        </rate>
                      </timecode>
                      <media>
                        <video>
                          <duration>1</duration>
                          <samplecharacteristics>
                            <anamorphic>FALSE</anamorphic>
                            <pixelaspectratio>square</pixelaspectratio>
                            <fielddominance>none</fielddominance>
                            <width>1920</width>
                            <height>1080</height>
                          </samplecharacteristics>
                        </video>
                      </media>
                    </file>
                  </clipitem>
                </track>
              </video>
            </media>
          </clip>
          <clip explodedTracks="true" frameBlend="FALSE" id="masterclip-520">
            <uuid>69637a08-8ab4-48e5-825d-f0304b8670fc</uuid>
            <masterclipid>masterclip-520</masterclipid>
            <ismasterclip>TRUE</ismasterclip>
            <duration>672</duration>
            <in>0</in>
            <out>672</out>
            <name>Scene - LJ visemes.518.png</name>
            <rate>
              <timebase>24</timebase>
              <ntsc>FALSE</ntsc>
            </rate>
            <media>
              <video>
                <track>
                  <clipitem frameBlend="FALSE" id="clipitem-521">
                    <name>Scene - LJ visemes.518.png</name>
                    <masterclipid>masterclip-520</masterclipid>
                    <rate>
                      <timebase>24</timebase>
                      <ntsc>FALSE</ntsc>
                    </rate>
                    <alphatype>straight</alphatype>
                    <pixelaspectratio>square</pixelaspectratio>
                    <anamorphic>FALSE</anamorphic>
                    <file id="file-520">
                      <name>Scene - LJ visemes.518.png</name>
                      <pathurl>file://localhost/Users/bot/Documents/CREATE/Character Animator/LJ visemes CH2AE/demo/Scene - LJ visemes/Scene - LJ visemes.518.png</pathurl>
                      <rate>
                        <timebase>24</timebase>
                        <ntsc>FALSE</ntsc>
                      </rate>
                      <duration>672</duration>
                      <timecode>
                        <rate>
                          <timebase>24</timebase>
                          <ntsc>FALSE</ntsc>
                        </rate>
                      </timecode>
                      <media>
                        <video>
                          <duration>1</duration>
                          <samplecharacteristics>
                            <anamorphic>FALSE</anamorphic>
                            <pixelaspectratio>square</pixelaspectratio>
                            <fielddominance>none</fielddominance>
                            <width>1920</width>
                            <height>1080</height>
                          </samplecharacteristics>
                        </video>
                      </media>
                    </file>
                  </clipitem>
                </track>
              </video>
            </media>
          </clip>
          <clip explodedTracks="true" frameBlend="FALSE" id="masterclip-521">
            <uuid>772dc9c7-7ed3-4bd8-b5f5-da4900c43e92</uuid>
            <masterclipid>masterclip-521</masterclipid>
            <ismasterclip>TRUE</ismasterclip>
            <duration>672</duration>
            <in>0</in>
            <out>672</out>
            <name>Scene - LJ visemes.519.png</name>
            <rate>
              <timebase>24</timebase>
              <ntsc>FALSE</ntsc>
            </rate>
            <media>
              <video>
                <track>
                  <clipitem frameBlend="FALSE" id="clipitem-522">
                    <name>Scene - LJ visemes.519.png</name>
                    <masterclipid>masterclip-521</masterclipid>
                    <rate>
                      <timebase>24</timebase>
                      <ntsc>FALSE</ntsc>
                    </rate>
                    <alphatype>straight</alphatype>
                    <pixelaspectratio>square</pixelaspectratio>
                    <anamorphic>FALSE</anamorphic>
                    <file id="file-521">
                      <name>Scene - LJ visemes.519.png</name>
                      <pathurl>file://localhost/Users/bot/Documents/CREATE/Character Animator/LJ visemes CH2AE/demo/Scene - LJ visemes/Scene - LJ visemes.519.png</pathurl>
                      <rate>
                        <timebase>24</timebase>
                        <ntsc>FALSE</ntsc>
                      </rate>
                      <duration>672</duration>
                      <timecode>
                        <rate>
                          <timebase>24</timebase>
                          <ntsc>FALSE</ntsc>
                        </rate>
                      </timecode>
                      <media>
                        <video>
                          <duration>1</duration>
                          <samplecharacteristics>
                            <anamorphic>FALSE</anamorphic>
                            <pixelaspectratio>square</pixelaspectratio>
                            <fielddominance>none</fielddominance>
                            <width>1920</width>
                            <height>1080</height>
                          </samplecharacteristics>
                        </video>
                      </media>
                    </file>
                  </clipitem>
                </track>
              </video>
            </media>
          </clip>
          <clip explodedTracks="true" frameBlend="FALSE" id="masterclip-522">
            <uuid>2c03ded0-209e-46b3-9984-7a7254bce4eb</uuid>
            <masterclipid>masterclip-522</masterclipid>
            <ismasterclip>TRUE</ismasterclip>
            <duration>672</duration>
            <in>0</in>
            <out>672</out>
            <name>Scene - LJ visemes.520.png</name>
            <rate>
              <timebase>24</timebase>
              <ntsc>FALSE</ntsc>
            </rate>
            <media>
              <video>
                <track>
                  <clipitem frameBlend="FALSE" id="clipitem-523">
                    <name>Scene - LJ visemes.520.png</name>
                    <masterclipid>masterclip-522</masterclipid>
                    <rate>
                      <timebase>24</timebase>
                      <ntsc>FALSE</ntsc>
                    </rate>
                    <alphatype>straight</alphatype>
                    <pixelaspectratio>square</pixelaspectratio>
                    <anamorphic>FALSE</anamorphic>
                    <file id="file-522">
                      <name>Scene - LJ visemes.520.png</name>
                      <pathurl>file://localhost/Users/bot/Documents/CREATE/Character Animator/LJ visemes CH2AE/demo/Scene - LJ visemes/Scene - LJ visemes.520.png</pathurl>
                      <rate>
                        <timebase>24</timebase>
                        <ntsc>FALSE</ntsc>
                      </rate>
                      <duration>672</duration>
                      <timecode>
                        <rate>
                          <timebase>24</timebase>
                          <ntsc>FALSE</ntsc>
                        </rate>
                      </timecode>
                      <media>
                        <video>
                          <duration>1</duration>
                          <samplecharacteristics>
                            <anamorphic>FALSE</anamorphic>
                            <pixelaspectratio>square</pixelaspectratio>
                            <fielddominance>none</fielddominance>
                            <width>1920</width>
                            <height>1080</height>
                          </samplecharacteristics>
                        </video>
                      </media>
                    </file>
                  </clipitem>
                </track>
              </video>
            </media>
          </clip>
          <clip explodedTracks="true" frameBlend="FALSE" id="masterclip-523">
            <uuid>d49b2b22-265f-4a34-8506-ceb23b3083b9</uuid>
            <masterclipid>masterclip-523</masterclipid>
            <ismasterclip>TRUE</ismasterclip>
            <duration>672</duration>
            <in>0</in>
            <out>672</out>
            <name>Scene - LJ visemes.521.png</name>
            <rate>
              <timebase>24</timebase>
              <ntsc>FALSE</ntsc>
            </rate>
            <media>
              <video>
                <track>
                  <clipitem frameBlend="FALSE" id="clipitem-524">
                    <name>Scene - LJ visemes.521.png</name>
                    <masterclipid>masterclip-523</masterclipid>
                    <rate>
                      <timebase>24</timebase>
                      <ntsc>FALSE</ntsc>
                    </rate>
                    <alphatype>straight</alphatype>
                    <pixelaspectratio>square</pixelaspectratio>
                    <anamorphic>FALSE</anamorphic>
                    <file id="file-523">
                      <name>Scene - LJ visemes.521.png</name>
                      <pathurl>file://localhost/Users/bot/Documents/CREATE/Character Animator/LJ visemes CH2AE/demo/Scene - LJ visemes/Scene - LJ visemes.521.png</pathurl>
                      <rate>
                        <timebase>24</timebase>
                        <ntsc>FALSE</ntsc>
                      </rate>
                      <duration>672</duration>
                      <timecode>
                        <rate>
                          <timebase>24</timebase>
                          <ntsc>FALSE</ntsc>
                        </rate>
                      </timecode>
                      <media>
                        <video>
                          <duration>1</duration>
                          <samplecharacteristics>
                            <anamorphic>FALSE</anamorphic>
                            <pixelaspectratio>square</pixelaspectratio>
                            <fielddominance>none</fielddominance>
                            <width>1920</width>
                            <height>1080</height>
                          </samplecharacteristics>
                        </video>
                      </media>
                    </file>
                  </clipitem>
                </track>
              </video>
            </media>
          </clip>
          <clip explodedTracks="true" frameBlend="FALSE" id="masterclip-524">
            <uuid>1b7f2107-2fb7-4052-8be3-ee699fd5ab60</uuid>
            <masterclipid>masterclip-524</masterclipid>
            <ismasterclip>TRUE</ismasterclip>
            <duration>672</duration>
            <in>0</in>
            <out>672</out>
            <name>Scene - LJ visemes.522.png</name>
            <rate>
              <timebase>24</timebase>
              <ntsc>FALSE</ntsc>
            </rate>
            <media>
              <video>
                <track>
                  <clipitem frameBlend="FALSE" id="clipitem-525">
                    <name>Scene - LJ visemes.522.png</name>
                    <masterclipid>masterclip-524</masterclipid>
                    <rate>
                      <timebase>24</timebase>
                      <ntsc>FALSE</ntsc>
                    </rate>
                    <alphatype>straight</alphatype>
                    <pixelaspectratio>square</pixelaspectratio>
                    <anamorphic>FALSE</anamorphic>
                    <file id="file-524">
                      <name>Scene - LJ visemes.522.png</name>
                      <pathurl>file://localhost/Users/bot/Documents/CREATE/Character Animator/LJ visemes CH2AE/demo/Scene - LJ visemes/Scene - LJ visemes.522.png</pathurl>
                      <rate>
                        <timebase>24</timebase>
                        <ntsc>FALSE</ntsc>
                      </rate>
                      <duration>672</duration>
                      <timecode>
                        <rate>
                          <timebase>24</timebase>
                          <ntsc>FALSE</ntsc>
                        </rate>
                      </timecode>
                      <media>
                        <video>
                          <duration>1</duration>
                          <samplecharacteristics>
                            <anamorphic>FALSE</anamorphic>
                            <pixelaspectratio>square</pixelaspectratio>
                            <fielddominance>none</fielddominance>
                            <width>1920</width>
                            <height>1080</height>
                          </samplecharacteristics>
                        </video>
                      </media>
                    </file>
                  </clipitem>
                </track>
              </video>
            </media>
          </clip>
          <clip explodedTracks="true" frameBlend="FALSE" id="masterclip-525">
            <uuid>5b1b62b1-3552-4d8e-aa17-b9910f744933</uuid>
            <masterclipid>masterclip-525</masterclipid>
            <ismasterclip>TRUE</ismasterclip>
            <duration>672</duration>
            <in>0</in>
            <out>672</out>
            <name>Scene - LJ visemes.523.png</name>
            <rate>
              <timebase>24</timebase>
              <ntsc>FALSE</ntsc>
            </rate>
            <media>
              <video>
                <track>
                  <clipitem frameBlend="FALSE" id="clipitem-526">
                    <name>Scene - LJ visemes.523.png</name>
                    <masterclipid>masterclip-525</masterclipid>
                    <rate>
                      <timebase>24</timebase>
                      <ntsc>FALSE</ntsc>
                    </rate>
                    <alphatype>straight</alphatype>
                    <pixelaspectratio>square</pixelaspectratio>
                    <anamorphic>FALSE</anamorphic>
                    <file id="file-525">
                      <name>Scene - LJ visemes.523.png</name>
                      <pathurl>file://localhost/Users/bot/Documents/CREATE/Character Animator/LJ visemes CH2AE/demo/Scene - LJ visemes/Scene - LJ visemes.523.png</pathurl>
                      <rate>
                        <timebase>24</timebase>
                        <ntsc>FALSE</ntsc>
                      </rate>
                      <duration>672</duration>
                      <timecode>
                        <rate>
                          <timebase>24</timebase>
                          <ntsc>FALSE</ntsc>
                        </rate>
                      </timecode>
                      <media>
                        <video>
                          <duration>1</duration>
                          <samplecharacteristics>
                            <anamorphic>FALSE</anamorphic>
                            <pixelaspectratio>square</pixelaspectratio>
                            <fielddominance>none</fielddominance>
                            <width>1920</width>
                            <height>1080</height>
                          </samplecharacteristics>
                        </video>
                      </media>
                    </file>
                  </clipitem>
                </track>
              </video>
            </media>
          </clip>
          <clip explodedTracks="true" frameBlend="FALSE" id="masterclip-526">
            <uuid>e12b40e6-db40-4770-8d49-2e48c13dc745</uuid>
            <masterclipid>masterclip-526</masterclipid>
            <ismasterclip>TRUE</ismasterclip>
            <duration>672</duration>
            <in>0</in>
            <out>672</out>
            <name>Scene - LJ visemes.524.png</name>
            <rate>
              <timebase>24</timebase>
              <ntsc>FALSE</ntsc>
            </rate>
            <media>
              <video>
                <track>
                  <clipitem frameBlend="FALSE" id="clipitem-527">
                    <name>Scene - LJ visemes.524.png</name>
                    <masterclipid>masterclip-526</masterclipid>
                    <rate>
                      <timebase>24</timebase>
                      <ntsc>FALSE</ntsc>
                    </rate>
                    <alphatype>straight</alphatype>
                    <pixelaspectratio>square</pixelaspectratio>
                    <anamorphic>FALSE</anamorphic>
                    <file id="file-526">
                      <name>Scene - LJ visemes.524.png</name>
                      <pathurl>file://localhost/Users/bot/Documents/CREATE/Character Animator/LJ visemes CH2AE/demo/Scene - LJ visemes/Scene - LJ visemes.524.png</pathurl>
                      <rate>
                        <timebase>24</timebase>
                        <ntsc>FALSE</ntsc>
                      </rate>
                      <duration>672</duration>
                      <timecode>
                        <rate>
                          <timebase>24</timebase>
                          <ntsc>FALSE</ntsc>
                        </rate>
                      </timecode>
                      <media>
                        <video>
                          <duration>1</duration>
                          <samplecharacteristics>
                            <anamorphic>FALSE</anamorphic>
                            <pixelaspectratio>square</pixelaspectratio>
                            <fielddominance>none</fielddominance>
                            <width>1920</width>
                            <height>1080</height>
                          </samplecharacteristics>
                        </video>
                      </media>
                    </file>
                  </clipitem>
                </track>
              </video>
            </media>
          </clip>
          <clip explodedTracks="true" frameBlend="FALSE" id="masterclip-527">
            <uuid>e3f0551a-d51d-4339-9a55-c1ec71ef2199</uuid>
            <masterclipid>masterclip-527</masterclipid>
            <ismasterclip>TRUE</ismasterclip>
            <duration>672</duration>
            <in>0</in>
            <out>672</out>
            <name>Scene - LJ visemes.525.png</name>
            <rate>
              <timebase>24</timebase>
              <ntsc>FALSE</ntsc>
            </rate>
            <media>
              <video>
                <track>
                  <clipitem frameBlend="FALSE" id="clipitem-528">
                    <name>Scene - LJ visemes.525.png</name>
                    <masterclipid>masterclip-527</masterclipid>
                    <rate>
                      <timebase>24</timebase>
                      <ntsc>FALSE</ntsc>
                    </rate>
                    <alphatype>straight</alphatype>
                    <pixelaspectratio>square</pixelaspectratio>
                    <anamorphic>FALSE</anamorphic>
                    <file id="file-527">
                      <name>Scene - LJ visemes.525.png</name>
                      <pathurl>file://localhost/Users/bot/Documents/CREATE/Character Animator/LJ visemes CH2AE/demo/Scene - LJ visemes/Scene - LJ visemes.525.png</pathurl>
                      <rate>
                        <timebase>24</timebase>
                        <ntsc>FALSE</ntsc>
                      </rate>
                      <duration>672</duration>
                      <timecode>
                        <rate>
                          <timebase>24</timebase>
                          <ntsc>FALSE</ntsc>
                        </rate>
                      </timecode>
                      <media>
                        <video>
                          <duration>1</duration>
                          <samplecharacteristics>
                            <anamorphic>FALSE</anamorphic>
                            <pixelaspectratio>square</pixelaspectratio>
                            <fielddominance>none</fielddominance>
                            <width>1920</width>
                            <height>1080</height>
                          </samplecharacteristics>
                        </video>
                      </media>
                    </file>
                  </clipitem>
                </track>
              </video>
            </media>
          </clip>
          <clip explodedTracks="true" frameBlend="FALSE" id="masterclip-528">
            <uuid>07469d69-c4e0-4cf5-a3fb-8607f32c8063</uuid>
            <masterclipid>masterclip-528</masterclipid>
            <ismasterclip>TRUE</ismasterclip>
            <duration>672</duration>
            <in>0</in>
            <out>672</out>
            <name>Scene - LJ visemes.526.png</name>
            <rate>
              <timebase>24</timebase>
              <ntsc>FALSE</ntsc>
            </rate>
            <media>
              <video>
                <track>
                  <clipitem frameBlend="FALSE" id="clipitem-529">
                    <name>Scene - LJ visemes.526.png</name>
                    <masterclipid>masterclip-528</masterclipid>
                    <rate>
                      <timebase>24</timebase>
                      <ntsc>FALSE</ntsc>
                    </rate>
                    <alphatype>straight</alphatype>
                    <pixelaspectratio>square</pixelaspectratio>
                    <anamorphic>FALSE</anamorphic>
                    <file id="file-528">
                      <name>Scene - LJ visemes.526.png</name>
                      <pathurl>file://localhost/Users/bot/Documents/CREATE/Character Animator/LJ visemes CH2AE/demo/Scene - LJ visemes/Scene - LJ visemes.526.png</pathurl>
                      <rate>
                        <timebase>24</timebase>
                        <ntsc>FALSE</ntsc>
                      </rate>
                      <duration>672</duration>
                      <timecode>
                        <rate>
                          <timebase>24</timebase>
                          <ntsc>FALSE</ntsc>
                        </rate>
                      </timecode>
                      <media>
                        <video>
                          <duration>1</duration>
                          <samplecharacteristics>
                            <anamorphic>FALSE</anamorphic>
                            <pixelaspectratio>square</pixelaspectratio>
                            <fielddominance>none</fielddominance>
                            <width>1920</width>
                            <height>1080</height>
                          </samplecharacteristics>
                        </video>
                      </media>
                    </file>
                  </clipitem>
                </track>
              </video>
            </media>
          </clip>
          <clip explodedTracks="true" frameBlend="FALSE" id="masterclip-529">
            <uuid>cd35b988-716a-42ac-9e48-02c67dc726d8</uuid>
            <masterclipid>masterclip-529</masterclipid>
            <ismasterclip>TRUE</ismasterclip>
            <duration>672</duration>
            <in>0</in>
            <out>672</out>
            <name>Scene - LJ visemes.527.png</name>
            <rate>
              <timebase>24</timebase>
              <ntsc>FALSE</ntsc>
            </rate>
            <media>
              <video>
                <track>
                  <clipitem frameBlend="FALSE" id="clipitem-530">
                    <name>Scene - LJ visemes.527.png</name>
                    <masterclipid>masterclip-529</masterclipid>
                    <rate>
                      <timebase>24</timebase>
                      <ntsc>FALSE</ntsc>
                    </rate>
                    <alphatype>straight</alphatype>
                    <pixelaspectratio>square</pixelaspectratio>
                    <anamorphic>FALSE</anamorphic>
                    <file id="file-529">
                      <name>Scene - LJ visemes.527.png</name>
                      <pathurl>file://localhost/Users/bot/Documents/CREATE/Character Animator/LJ visemes CH2AE/demo/Scene - LJ visemes/Scene - LJ visemes.527.png</pathurl>
                      <rate>
                        <timebase>24</timebase>
                        <ntsc>FALSE</ntsc>
                      </rate>
                      <duration>672</duration>
                      <timecode>
                        <rate>
                          <timebase>24</timebase>
                          <ntsc>FALSE</ntsc>
                        </rate>
                      </timecode>
                      <media>
                        <video>
                          <duration>1</duration>
                          <samplecharacteristics>
                            <anamorphic>FALSE</anamorphic>
                            <pixelaspectratio>square</pixelaspectratio>
                            <fielddominance>none</fielddominance>
                            <width>1920</width>
                            <height>1080</height>
                          </samplecharacteristics>
                        </video>
                      </media>
                    </file>
                  </clipitem>
                </track>
              </video>
            </media>
          </clip>
          <clip explodedTracks="true" frameBlend="FALSE" id="masterclip-530">
            <uuid>71402248-082a-4332-b1b5-58522f367d6a</uuid>
            <masterclipid>masterclip-530</masterclipid>
            <ismasterclip>TRUE</ismasterclip>
            <duration>672</duration>
            <in>0</in>
            <out>672</out>
            <name>Scene - LJ visemes.528.png</name>
            <rate>
              <timebase>24</timebase>
              <ntsc>FALSE</ntsc>
            </rate>
            <media>
              <video>
                <track>
                  <clipitem frameBlend="FALSE" id="clipitem-531">
                    <name>Scene - LJ visemes.528.png</name>
                    <masterclipid>masterclip-530</masterclipid>
                    <rate>
                      <timebase>24</timebase>
                      <ntsc>FALSE</ntsc>
                    </rate>
                    <alphatype>straight</alphatype>
                    <pixelaspectratio>square</pixelaspectratio>
                    <anamorphic>FALSE</anamorphic>
                    <file id="file-530">
                      <name>Scene - LJ visemes.528.png</name>
                      <pathurl>file://localhost/Users/bot/Documents/CREATE/Character Animator/LJ visemes CH2AE/demo/Scene - LJ visemes/Scene - LJ visemes.528.png</pathurl>
                      <rate>
                        <timebase>24</timebase>
                        <ntsc>FALSE</ntsc>
                      </rate>
                      <duration>672</duration>
                      <timecode>
                        <rate>
                          <timebase>24</timebase>
                          <ntsc>FALSE</ntsc>
                        </rate>
                      </timecode>
                      <media>
                        <video>
                          <duration>1</duration>
                          <samplecharacteristics>
                            <anamorphic>FALSE</anamorphic>
                            <pixelaspectratio>square</pixelaspectratio>
                            <fielddominance>none</fielddominance>
                            <width>1920</width>
                            <height>1080</height>
                          </samplecharacteristics>
                        </video>
                      </media>
                    </file>
                  </clipitem>
                </track>
              </video>
            </media>
          </clip>
          <clip explodedTracks="true" frameBlend="FALSE" id="masterclip-531">
            <uuid>db0d21eb-8588-4c98-9d7b-0c19c81fd1de</uuid>
            <masterclipid>masterclip-531</masterclipid>
            <ismasterclip>TRUE</ismasterclip>
            <duration>672</duration>
            <in>0</in>
            <out>672</out>
            <name>Scene - LJ visemes.529.png</name>
            <rate>
              <timebase>24</timebase>
              <ntsc>FALSE</ntsc>
            </rate>
            <media>
              <video>
                <track>
                  <clipitem frameBlend="FALSE" id="clipitem-532">
                    <name>Scene - LJ visemes.529.png</name>
                    <masterclipid>masterclip-531</masterclipid>
                    <rate>
                      <timebase>24</timebase>
                      <ntsc>FALSE</ntsc>
                    </rate>
                    <alphatype>straight</alphatype>
                    <pixelaspectratio>square</pixelaspectratio>
                    <anamorphic>FALSE</anamorphic>
                    <file id="file-531">
                      <name>Scene - LJ visemes.529.png</name>
                      <pathurl>file://localhost/Users/bot/Documents/CREATE/Character Animator/LJ visemes CH2AE/demo/Scene - LJ visemes/Scene - LJ visemes.529.png</pathurl>
                      <rate>
                        <timebase>24</timebase>
                        <ntsc>FALSE</ntsc>
                      </rate>
                      <duration>672</duration>
                      <timecode>
                        <rate>
                          <timebase>24</timebase>
                          <ntsc>FALSE</ntsc>
                        </rate>
                      </timecode>
                      <media>
                        <video>
                          <duration>1</duration>
                          <samplecharacteristics>
                            <anamorphic>FALSE</anamorphic>
                            <pixelaspectratio>square</pixelaspectratio>
                            <fielddominance>none</fielddominance>
                            <width>1920</width>
                            <height>1080</height>
                          </samplecharacteristics>
                        </video>
                      </media>
                    </file>
                  </clipitem>
                </track>
              </video>
            </media>
          </clip>
          <clip explodedTracks="true" frameBlend="FALSE" id="masterclip-532">
            <uuid>5b295e03-6eda-45a9-a465-d69a9567ef50</uuid>
            <masterclipid>masterclip-532</masterclipid>
            <ismasterclip>TRUE</ismasterclip>
            <duration>672</duration>
            <in>0</in>
            <out>672</out>
            <name>Scene - LJ visemes.530.png</name>
            <rate>
              <timebase>24</timebase>
              <ntsc>FALSE</ntsc>
            </rate>
            <media>
              <video>
                <track>
                  <clipitem frameBlend="FALSE" id="clipitem-533">
                    <name>Scene - LJ visemes.530.png</name>
                    <masterclipid>masterclip-532</masterclipid>
                    <rate>
                      <timebase>24</timebase>
                      <ntsc>FALSE</ntsc>
                    </rate>
                    <alphatype>straight</alphatype>
                    <pixelaspectratio>square</pixelaspectratio>
                    <anamorphic>FALSE</anamorphic>
                    <file id="file-532">
                      <name>Scene - LJ visemes.530.png</name>
                      <pathurl>file://localhost/Users/bot/Documents/CREATE/Character Animator/LJ visemes CH2AE/demo/Scene - LJ visemes/Scene - LJ visemes.530.png</pathurl>
                      <rate>
                        <timebase>24</timebase>
                        <ntsc>FALSE</ntsc>
                      </rate>
                      <duration>672</duration>
                      <timecode>
                        <rate>
                          <timebase>24</timebase>
                          <ntsc>FALSE</ntsc>
                        </rate>
                      </timecode>
                      <media>
                        <video>
                          <duration>1</duration>
                          <samplecharacteristics>
                            <anamorphic>FALSE</anamorphic>
                            <pixelaspectratio>square</pixelaspectratio>
                            <fielddominance>none</fielddominance>
                            <width>1920</width>
                            <height>1080</height>
                          </samplecharacteristics>
                        </video>
                      </media>
                    </file>
                  </clipitem>
                </track>
              </video>
            </media>
          </clip>
          <clip explodedTracks="true" frameBlend="FALSE" id="masterclip-533">
            <uuid>5fd2e78d-5beb-4a77-bf3c-b7f6fcada615</uuid>
            <masterclipid>masterclip-533</masterclipid>
            <ismasterclip>TRUE</ismasterclip>
            <duration>672</duration>
            <in>0</in>
            <out>672</out>
            <name>Scene - LJ visemes.531.png</name>
            <rate>
              <timebase>24</timebase>
              <ntsc>FALSE</ntsc>
            </rate>
            <media>
              <video>
                <track>
                  <clipitem frameBlend="FALSE" id="clipitem-534">
                    <name>Scene - LJ visemes.531.png</name>
                    <masterclipid>masterclip-533</masterclipid>
                    <rate>
                      <timebase>24</timebase>
                      <ntsc>FALSE</ntsc>
                    </rate>
                    <alphatype>straight</alphatype>
                    <pixelaspectratio>square</pixelaspectratio>
                    <anamorphic>FALSE</anamorphic>
                    <file id="file-533">
                      <name>Scene - LJ visemes.531.png</name>
                      <pathurl>file://localhost/Users/bot/Documents/CREATE/Character Animator/LJ visemes CH2AE/demo/Scene - LJ visemes/Scene - LJ visemes.531.png</pathurl>
                      <rate>
                        <timebase>24</timebase>
                        <ntsc>FALSE</ntsc>
                      </rate>
                      <duration>672</duration>
                      <timecode>
                        <rate>
                          <timebase>24</timebase>
                          <ntsc>FALSE</ntsc>
                        </rate>
                      </timecode>
                      <media>
                        <video>
                          <duration>1</duration>
                          <samplecharacteristics>
                            <anamorphic>FALSE</anamorphic>
                            <pixelaspectratio>square</pixelaspectratio>
                            <fielddominance>none</fielddominance>
                            <width>1920</width>
                            <height>1080</height>
                          </samplecharacteristics>
                        </video>
                      </media>
                    </file>
                  </clipitem>
                </track>
              </video>
            </media>
          </clip>
          <clip explodedTracks="true" frameBlend="FALSE" id="masterclip-534">
            <uuid>5d23f9a0-85fd-4a94-9340-a25a09f8a430</uuid>
            <masterclipid>masterclip-534</masterclipid>
            <ismasterclip>TRUE</ismasterclip>
            <duration>672</duration>
            <in>0</in>
            <out>672</out>
            <name>Scene - LJ visemes.532.png</name>
            <rate>
              <timebase>24</timebase>
              <ntsc>FALSE</ntsc>
            </rate>
            <media>
              <video>
                <track>
                  <clipitem frameBlend="FALSE" id="clipitem-535">
                    <name>Scene - LJ visemes.532.png</name>
                    <masterclipid>masterclip-534</masterclipid>
                    <rate>
                      <timebase>24</timebase>
                      <ntsc>FALSE</ntsc>
                    </rate>
                    <alphatype>straight</alphatype>
                    <pixelaspectratio>square</pixelaspectratio>
                    <anamorphic>FALSE</anamorphic>
                    <file id="file-534">
                      <name>Scene - LJ visemes.532.png</name>
                      <pathurl>file://localhost/Users/bot/Documents/CREATE/Character Animator/LJ visemes CH2AE/demo/Scene - LJ visemes/Scene - LJ visemes.532.png</pathurl>
                      <rate>
                        <timebase>24</timebase>
                        <ntsc>FALSE</ntsc>
                      </rate>
                      <duration>672</duration>
                      <timecode>
                        <rate>
                          <timebase>24</timebase>
                          <ntsc>FALSE</ntsc>
                        </rate>
                      </timecode>
                      <media>
                        <video>
                          <duration>1</duration>
                          <samplecharacteristics>
                            <anamorphic>FALSE</anamorphic>
                            <pixelaspectratio>square</pixelaspectratio>
                            <fielddominance>none</fielddominance>
                            <width>1920</width>
                            <height>1080</height>
                          </samplecharacteristics>
                        </video>
                      </media>
                    </file>
                  </clipitem>
                </track>
              </video>
            </media>
          </clip>
          <clip explodedTracks="true" frameBlend="FALSE" id="masterclip-535">
            <uuid>eba6ae2d-daee-4db0-83c4-b7f73d1108c9</uuid>
            <masterclipid>masterclip-535</masterclipid>
            <ismasterclip>TRUE</ismasterclip>
            <duration>672</duration>
            <in>0</in>
            <out>672</out>
            <name>Scene - LJ visemes.533.png</name>
            <rate>
              <timebase>24</timebase>
              <ntsc>FALSE</ntsc>
            </rate>
            <media>
              <video>
                <track>
                  <clipitem frameBlend="FALSE" id="clipitem-536">
                    <name>Scene - LJ visemes.533.png</name>
                    <masterclipid>masterclip-535</masterclipid>
                    <rate>
                      <timebase>24</timebase>
                      <ntsc>FALSE</ntsc>
                    </rate>
                    <alphatype>straight</alphatype>
                    <pixelaspectratio>square</pixelaspectratio>
                    <anamorphic>FALSE</anamorphic>
                    <file id="file-535">
                      <name>Scene - LJ visemes.533.png</name>
                      <pathurl>file://localhost/Users/bot/Documents/CREATE/Character Animator/LJ visemes CH2AE/demo/Scene - LJ visemes/Scene - LJ visemes.533.png</pathurl>
                      <rate>
                        <timebase>24</timebase>
                        <ntsc>FALSE</ntsc>
                      </rate>
                      <duration>672</duration>
                      <timecode>
                        <rate>
                          <timebase>24</timebase>
                          <ntsc>FALSE</ntsc>
                        </rate>
                      </timecode>
                      <media>
                        <video>
                          <duration>1</duration>
                          <samplecharacteristics>
                            <anamorphic>FALSE</anamorphic>
                            <pixelaspectratio>square</pixelaspectratio>
                            <fielddominance>none</fielddominance>
                            <width>1920</width>
                            <height>1080</height>
                          </samplecharacteristics>
                        </video>
                      </media>
                    </file>
                  </clipitem>
                </track>
              </video>
            </media>
          </clip>
          <clip explodedTracks="true" frameBlend="FALSE" id="masterclip-536">
            <uuid>7010beaf-7d93-428c-a763-c821bfe1ac89</uuid>
            <masterclipid>masterclip-536</masterclipid>
            <ismasterclip>TRUE</ismasterclip>
            <duration>672</duration>
            <in>0</in>
            <out>672</out>
            <name>Scene - LJ visemes.534.png</name>
            <rate>
              <timebase>24</timebase>
              <ntsc>FALSE</ntsc>
            </rate>
            <media>
              <video>
                <track>
                  <clipitem frameBlend="FALSE" id="clipitem-537">
                    <name>Scene - LJ visemes.534.png</name>
                    <masterclipid>masterclip-536</masterclipid>
                    <rate>
                      <timebase>24</timebase>
                      <ntsc>FALSE</ntsc>
                    </rate>
                    <alphatype>straight</alphatype>
                    <pixelaspectratio>square</pixelaspectratio>
                    <anamorphic>FALSE</anamorphic>
                    <file id="file-536">
                      <name>Scene - LJ visemes.534.png</name>
                      <pathurl>file://localhost/Users/bot/Documents/CREATE/Character Animator/LJ visemes CH2AE/demo/Scene - LJ visemes/Scene - LJ visemes.534.png</pathurl>
                      <rate>
                        <timebase>24</timebase>
                        <ntsc>FALSE</ntsc>
                      </rate>
                      <duration>672</duration>
                      <timecode>
                        <rate>
                          <timebase>24</timebase>
                          <ntsc>FALSE</ntsc>
                        </rate>
                      </timecode>
                      <media>
                        <video>
                          <duration>1</duration>
                          <samplecharacteristics>
                            <anamorphic>FALSE</anamorphic>
                            <pixelaspectratio>square</pixelaspectratio>
                            <fielddominance>none</fielddominance>
                            <width>1920</width>
                            <height>1080</height>
                          </samplecharacteristics>
                        </video>
                      </media>
                    </file>
                  </clipitem>
                </track>
              </video>
            </media>
          </clip>
          <clip explodedTracks="true" frameBlend="FALSE" id="masterclip-537">
            <uuid>38fbbcd9-31d6-4537-9be5-fa8a07f25c69</uuid>
            <masterclipid>masterclip-537</masterclipid>
            <ismasterclip>TRUE</ismasterclip>
            <duration>672</duration>
            <in>0</in>
            <out>672</out>
            <name>Scene - LJ visemes.535.png</name>
            <rate>
              <timebase>24</timebase>
              <ntsc>FALSE</ntsc>
            </rate>
            <media>
              <video>
                <track>
                  <clipitem frameBlend="FALSE" id="clipitem-538">
                    <name>Scene - LJ visemes.535.png</name>
                    <masterclipid>masterclip-537</masterclipid>
                    <rate>
                      <timebase>24</timebase>
                      <ntsc>FALSE</ntsc>
                    </rate>
                    <alphatype>straight</alphatype>
                    <pixelaspectratio>square</pixelaspectratio>
                    <anamorphic>FALSE</anamorphic>
                    <file id="file-537">
                      <name>Scene - LJ visemes.535.png</name>
                      <pathurl>file://localhost/Users/bot/Documents/CREATE/Character Animator/LJ visemes CH2AE/demo/Scene - LJ visemes/Scene - LJ visemes.535.png</pathurl>
                      <rate>
                        <timebase>24</timebase>
                        <ntsc>FALSE</ntsc>
                      </rate>
                      <duration>672</duration>
                      <timecode>
                        <rate>
                          <timebase>24</timebase>
                          <ntsc>FALSE</ntsc>
                        </rate>
                      </timecode>
                      <media>
                        <video>
                          <duration>1</duration>
                          <samplecharacteristics>
                            <anamorphic>FALSE</anamorphic>
                            <pixelaspectratio>square</pixelaspectratio>
                            <fielddominance>none</fielddominance>
                            <width>1920</width>
                            <height>1080</height>
                          </samplecharacteristics>
                        </video>
                      </media>
                    </file>
                  </clipitem>
                </track>
              </video>
            </media>
          </clip>
          <clip explodedTracks="true" frameBlend="FALSE" id="masterclip-538">
            <uuid>27596ced-8f77-4a45-be90-17794067d497</uuid>
            <masterclipid>masterclip-538</masterclipid>
            <ismasterclip>TRUE</ismasterclip>
            <duration>672</duration>
            <in>0</in>
            <out>672</out>
            <name>Scene - LJ visemes.536.png</name>
            <rate>
              <timebase>24</timebase>
              <ntsc>FALSE</ntsc>
            </rate>
            <media>
              <video>
                <track>
                  <clipitem frameBlend="FALSE" id="clipitem-539">
                    <name>Scene - LJ visemes.536.png</name>
                    <masterclipid>masterclip-538</masterclipid>
                    <rate>
                      <timebase>24</timebase>
                      <ntsc>FALSE</ntsc>
                    </rate>
                    <alphatype>straight</alphatype>
                    <pixelaspectratio>square</pixelaspectratio>
                    <anamorphic>FALSE</anamorphic>
                    <file id="file-538">
                      <name>Scene - LJ visemes.536.png</name>
                      <pathurl>file://localhost/Users/bot/Documents/CREATE/Character Animator/LJ visemes CH2AE/demo/Scene - LJ visemes/Scene - LJ visemes.536.png</pathurl>
                      <rate>
                        <timebase>24</timebase>
                        <ntsc>FALSE</ntsc>
                      </rate>
                      <duration>672</duration>
                      <timecode>
                        <rate>
                          <timebase>24</timebase>
                          <ntsc>FALSE</ntsc>
                        </rate>
                      </timecode>
                      <media>
                        <video>
                          <duration>1</duration>
                          <samplecharacteristics>
                            <anamorphic>FALSE</anamorphic>
                            <pixelaspectratio>square</pixelaspectratio>
                            <fielddominance>none</fielddominance>
                            <width>1920</width>
                            <height>1080</height>
                          </samplecharacteristics>
                        </video>
                      </media>
                    </file>
                  </clipitem>
                </track>
              </video>
            </media>
          </clip>
          <clip explodedTracks="true" frameBlend="FALSE" id="masterclip-539">
            <uuid>c63391d8-c67d-444f-8c2d-e5ff9e3adf59</uuid>
            <masterclipid>masterclip-539</masterclipid>
            <ismasterclip>TRUE</ismasterclip>
            <duration>672</duration>
            <in>0</in>
            <out>672</out>
            <name>Scene - LJ visemes.537.png</name>
            <rate>
              <timebase>24</timebase>
              <ntsc>FALSE</ntsc>
            </rate>
            <media>
              <video>
                <track>
                  <clipitem frameBlend="FALSE" id="clipitem-540">
                    <name>Scene - LJ visemes.537.png</name>
                    <masterclipid>masterclip-539</masterclipid>
                    <rate>
                      <timebase>24</timebase>
                      <ntsc>FALSE</ntsc>
                    </rate>
                    <alphatype>straight</alphatype>
                    <pixelaspectratio>square</pixelaspectratio>
                    <anamorphic>FALSE</anamorphic>
                    <file id="file-539">
                      <name>Scene - LJ visemes.537.png</name>
                      <pathurl>file://localhost/Users/bot/Documents/CREATE/Character Animator/LJ visemes CH2AE/demo/Scene - LJ visemes/Scene - LJ visemes.537.png</pathurl>
                      <rate>
                        <timebase>24</timebase>
                        <ntsc>FALSE</ntsc>
                      </rate>
                      <duration>672</duration>
                      <timecode>
                        <rate>
                          <timebase>24</timebase>
                          <ntsc>FALSE</ntsc>
                        </rate>
                      </timecode>
                      <media>
                        <video>
                          <duration>1</duration>
                          <samplecharacteristics>
                            <anamorphic>FALSE</anamorphic>
                            <pixelaspectratio>square</pixelaspectratio>
                            <fielddominance>none</fielddominance>
                            <width>1920</width>
                            <height>1080</height>
                          </samplecharacteristics>
                        </video>
                      </media>
                    </file>
                  </clipitem>
                </track>
              </video>
            </media>
          </clip>
          <clip explodedTracks="true" frameBlend="FALSE" id="masterclip-540">
            <uuid>92d09035-a151-4887-8034-3fed2fe811b7</uuid>
            <masterclipid>masterclip-540</masterclipid>
            <ismasterclip>TRUE</ismasterclip>
            <duration>672</duration>
            <in>0</in>
            <out>672</out>
            <name>Scene - LJ visemes.538.png</name>
            <rate>
              <timebase>24</timebase>
              <ntsc>FALSE</ntsc>
            </rate>
            <media>
              <video>
                <track>
                  <clipitem frameBlend="FALSE" id="clipitem-541">
                    <name>Scene - LJ visemes.538.png</name>
                    <masterclipid>masterclip-540</masterclipid>
                    <rate>
                      <timebase>24</timebase>
                      <ntsc>FALSE</ntsc>
                    </rate>
                    <alphatype>straight</alphatype>
                    <pixelaspectratio>square</pixelaspectratio>
                    <anamorphic>FALSE</anamorphic>
                    <file id="file-540">
                      <name>Scene - LJ visemes.538.png</name>
                      <pathurl>file://localhost/Users/bot/Documents/CREATE/Character Animator/LJ visemes CH2AE/demo/Scene - LJ visemes/Scene - LJ visemes.538.png</pathurl>
                      <rate>
                        <timebase>24</timebase>
                        <ntsc>FALSE</ntsc>
                      </rate>
                      <duration>672</duration>
                      <timecode>
                        <rate>
                          <timebase>24</timebase>
                          <ntsc>FALSE</ntsc>
                        </rate>
                      </timecode>
                      <media>
                        <video>
                          <duration>1</duration>
                          <samplecharacteristics>
                            <anamorphic>FALSE</anamorphic>
                            <pixelaspectratio>square</pixelaspectratio>
                            <fielddominance>none</fielddominance>
                            <width>1920</width>
                            <height>1080</height>
                          </samplecharacteristics>
                        </video>
                      </media>
                    </file>
                  </clipitem>
                </track>
              </video>
            </media>
          </clip>
          <clip explodedTracks="true" frameBlend="FALSE" id="masterclip-541">
            <uuid>299413c6-2c41-4764-8f8b-9d3279479b90</uuid>
            <masterclipid>masterclip-541</masterclipid>
            <ismasterclip>TRUE</ismasterclip>
            <duration>672</duration>
            <in>0</in>
            <out>672</out>
            <name>Scene - LJ visemes.539.png</name>
            <rate>
              <timebase>24</timebase>
              <ntsc>FALSE</ntsc>
            </rate>
            <media>
              <video>
                <track>
                  <clipitem frameBlend="FALSE" id="clipitem-542">
                    <name>Scene - LJ visemes.539.png</name>
                    <masterclipid>masterclip-541</masterclipid>
                    <rate>
                      <timebase>24</timebase>
                      <ntsc>FALSE</ntsc>
                    </rate>
                    <alphatype>straight</alphatype>
                    <pixelaspectratio>square</pixelaspectratio>
                    <anamorphic>FALSE</anamorphic>
                    <file id="file-541">
                      <name>Scene - LJ visemes.539.png</name>
                      <pathurl>file://localhost/Users/bot/Documents/CREATE/Character Animator/LJ visemes CH2AE/demo/Scene - LJ visemes/Scene - LJ visemes.539.png</pathurl>
                      <rate>
                        <timebase>24</timebase>
                        <ntsc>FALSE</ntsc>
                      </rate>
                      <duration>672</duration>
                      <timecode>
                        <rate>
                          <timebase>24</timebase>
                          <ntsc>FALSE</ntsc>
                        </rate>
                      </timecode>
                      <media>
                        <video>
                          <duration>1</duration>
                          <samplecharacteristics>
                            <anamorphic>FALSE</anamorphic>
                            <pixelaspectratio>square</pixelaspectratio>
                            <fielddominance>none</fielddominance>
                            <width>1920</width>
                            <height>1080</height>
                          </samplecharacteristics>
                        </video>
                      </media>
                    </file>
                  </clipitem>
                </track>
              </video>
            </media>
          </clip>
          <clip explodedTracks="true" frameBlend="FALSE" id="masterclip-542">
            <uuid>730fb4b2-5b9a-4b08-966d-7beac35ddd91</uuid>
            <masterclipid>masterclip-542</masterclipid>
            <ismasterclip>TRUE</ismasterclip>
            <duration>672</duration>
            <in>0</in>
            <out>672</out>
            <name>Scene - LJ visemes.540.png</name>
            <rate>
              <timebase>24</timebase>
              <ntsc>FALSE</ntsc>
            </rate>
            <media>
              <video>
                <track>
                  <clipitem frameBlend="FALSE" id="clipitem-543">
                    <name>Scene - LJ visemes.540.png</name>
                    <masterclipid>masterclip-542</masterclipid>
                    <rate>
                      <timebase>24</timebase>
                      <ntsc>FALSE</ntsc>
                    </rate>
                    <alphatype>straight</alphatype>
                    <pixelaspectratio>square</pixelaspectratio>
                    <anamorphic>FALSE</anamorphic>
                    <file id="file-542">
                      <name>Scene - LJ visemes.540.png</name>
                      <pathurl>file://localhost/Users/bot/Documents/CREATE/Character Animator/LJ visemes CH2AE/demo/Scene - LJ visemes/Scene - LJ visemes.540.png</pathurl>
                      <rate>
                        <timebase>24</timebase>
                        <ntsc>FALSE</ntsc>
                      </rate>
                      <duration>672</duration>
                      <timecode>
                        <rate>
                          <timebase>24</timebase>
                          <ntsc>FALSE</ntsc>
                        </rate>
                      </timecode>
                      <media>
                        <video>
                          <duration>1</duration>
                          <samplecharacteristics>
                            <anamorphic>FALSE</anamorphic>
                            <pixelaspectratio>square</pixelaspectratio>
                            <fielddominance>none</fielddominance>
                            <width>1920</width>
                            <height>1080</height>
                          </samplecharacteristics>
                        </video>
                      </media>
                    </file>
                  </clipitem>
                </track>
              </video>
            </media>
          </clip>
          <clip explodedTracks="true" frameBlend="FALSE" id="masterclip-543">
            <uuid>962ab983-ad34-4c66-be31-11f889a83091</uuid>
            <masterclipid>masterclip-543</masterclipid>
            <ismasterclip>TRUE</ismasterclip>
            <duration>672</duration>
            <in>0</in>
            <out>672</out>
            <name>Scene - LJ visemes.541.png</name>
            <rate>
              <timebase>24</timebase>
              <ntsc>FALSE</ntsc>
            </rate>
            <media>
              <video>
                <track>
                  <clipitem frameBlend="FALSE" id="clipitem-544">
                    <name>Scene - LJ visemes.541.png</name>
                    <masterclipid>masterclip-543</masterclipid>
                    <rate>
                      <timebase>24</timebase>
                      <ntsc>FALSE</ntsc>
                    </rate>
                    <alphatype>straight</alphatype>
                    <pixelaspectratio>square</pixelaspectratio>
                    <anamorphic>FALSE</anamorphic>
                    <file id="file-543">
                      <name>Scene - LJ visemes.541.png</name>
                      <pathurl>file://localhost/Users/bot/Documents/CREATE/Character Animator/LJ visemes CH2AE/demo/Scene - LJ visemes/Scene - LJ visemes.541.png</pathurl>
                      <rate>
                        <timebase>24</timebase>
                        <ntsc>FALSE</ntsc>
                      </rate>
                      <duration>672</duration>
                      <timecode>
                        <rate>
                          <timebase>24</timebase>
                          <ntsc>FALSE</ntsc>
                        </rate>
                      </timecode>
                      <media>
                        <video>
                          <duration>1</duration>
                          <samplecharacteristics>
                            <anamorphic>FALSE</anamorphic>
                            <pixelaspectratio>square</pixelaspectratio>
                            <fielddominance>none</fielddominance>
                            <width>1920</width>
                            <height>1080</height>
                          </samplecharacteristics>
                        </video>
                      </media>
                    </file>
                  </clipitem>
                </track>
              </video>
            </media>
          </clip>
          <clip explodedTracks="true" frameBlend="FALSE" id="masterclip-544">
            <uuid>03e7fc21-0974-4f62-9f1f-333215a8aa44</uuid>
            <masterclipid>masterclip-544</masterclipid>
            <ismasterclip>TRUE</ismasterclip>
            <duration>672</duration>
            <in>0</in>
            <out>672</out>
            <name>Scene - LJ visemes.542.png</name>
            <rate>
              <timebase>24</timebase>
              <ntsc>FALSE</ntsc>
            </rate>
            <media>
              <video>
                <track>
                  <clipitem frameBlend="FALSE" id="clipitem-545">
                    <name>Scene - LJ visemes.542.png</name>
                    <masterclipid>masterclip-544</masterclipid>
                    <rate>
                      <timebase>24</timebase>
                      <ntsc>FALSE</ntsc>
                    </rate>
                    <alphatype>straight</alphatype>
                    <pixelaspectratio>square</pixelaspectratio>
                    <anamorphic>FALSE</anamorphic>
                    <file id="file-544">
                      <name>Scene - LJ visemes.542.png</name>
                      <pathurl>file://localhost/Users/bot/Documents/CREATE/Character Animator/LJ visemes CH2AE/demo/Scene - LJ visemes/Scene - LJ visemes.542.png</pathurl>
                      <rate>
                        <timebase>24</timebase>
                        <ntsc>FALSE</ntsc>
                      </rate>
                      <duration>672</duration>
                      <timecode>
                        <rate>
                          <timebase>24</timebase>
                          <ntsc>FALSE</ntsc>
                        </rate>
                      </timecode>
                      <media>
                        <video>
                          <duration>1</duration>
                          <samplecharacteristics>
                            <anamorphic>FALSE</anamorphic>
                            <pixelaspectratio>square</pixelaspectratio>
                            <fielddominance>none</fielddominance>
                            <width>1920</width>
                            <height>1080</height>
                          </samplecharacteristics>
                        </video>
                      </media>
                    </file>
                  </clipitem>
                </track>
              </video>
            </media>
          </clip>
          <clip explodedTracks="true" frameBlend="FALSE" id="masterclip-545">
            <uuid>a61b02ae-1815-48ba-bbbf-0c4c27d2b116</uuid>
            <masterclipid>masterclip-545</masterclipid>
            <ismasterclip>TRUE</ismasterclip>
            <duration>672</duration>
            <in>0</in>
            <out>672</out>
            <name>Scene - LJ visemes.543.png</name>
            <rate>
              <timebase>24</timebase>
              <ntsc>FALSE</ntsc>
            </rate>
            <media>
              <video>
                <track>
                  <clipitem frameBlend="FALSE" id="clipitem-546">
                    <name>Scene - LJ visemes.543.png</name>
                    <masterclipid>masterclip-545</masterclipid>
                    <rate>
                      <timebase>24</timebase>
                      <ntsc>FALSE</ntsc>
                    </rate>
                    <alphatype>straight</alphatype>
                    <pixelaspectratio>square</pixelaspectratio>
                    <anamorphic>FALSE</anamorphic>
                    <file id="file-545">
                      <name>Scene - LJ visemes.543.png</name>
                      <pathurl>file://localhost/Users/bot/Documents/CREATE/Character Animator/LJ visemes CH2AE/demo/Scene - LJ visemes/Scene - LJ visemes.543.png</pathurl>
                      <rate>
                        <timebase>24</timebase>
                        <ntsc>FALSE</ntsc>
                      </rate>
                      <duration>672</duration>
                      <timecode>
                        <rate>
                          <timebase>24</timebase>
                          <ntsc>FALSE</ntsc>
                        </rate>
                      </timecode>
                      <media>
                        <video>
                          <duration>1</duration>
                          <samplecharacteristics>
                            <anamorphic>FALSE</anamorphic>
                            <pixelaspectratio>square</pixelaspectratio>
                            <fielddominance>none</fielddominance>
                            <width>1920</width>
                            <height>1080</height>
                          </samplecharacteristics>
                        </video>
                      </media>
                    </file>
                  </clipitem>
                </track>
              </video>
            </media>
          </clip>
          <clip explodedTracks="true" frameBlend="FALSE" id="masterclip-546">
            <uuid>e51a1013-a33a-4042-9e7e-62ab97e9f435</uuid>
            <masterclipid>masterclip-546</masterclipid>
            <ismasterclip>TRUE</ismasterclip>
            <duration>672</duration>
            <in>0</in>
            <out>672</out>
            <name>Scene - LJ visemes.544.png</name>
            <rate>
              <timebase>24</timebase>
              <ntsc>FALSE</ntsc>
            </rate>
            <media>
              <video>
                <track>
                  <clipitem frameBlend="FALSE" id="clipitem-547">
                    <name>Scene - LJ visemes.544.png</name>
                    <masterclipid>masterclip-546</masterclipid>
                    <rate>
                      <timebase>24</timebase>
                      <ntsc>FALSE</ntsc>
                    </rate>
                    <alphatype>straight</alphatype>
                    <pixelaspectratio>square</pixelaspectratio>
                    <anamorphic>FALSE</anamorphic>
                    <file id="file-546">
                      <name>Scene - LJ visemes.544.png</name>
                      <pathurl>file://localhost/Users/bot/Documents/CREATE/Character Animator/LJ visemes CH2AE/demo/Scene - LJ visemes/Scene - LJ visemes.544.png</pathurl>
                      <rate>
                        <timebase>24</timebase>
                        <ntsc>FALSE</ntsc>
                      </rate>
                      <duration>672</duration>
                      <timecode>
                        <rate>
                          <timebase>24</timebase>
                          <ntsc>FALSE</ntsc>
                        </rate>
                      </timecode>
                      <media>
                        <video>
                          <duration>1</duration>
                          <samplecharacteristics>
                            <anamorphic>FALSE</anamorphic>
                            <pixelaspectratio>square</pixelaspectratio>
                            <fielddominance>none</fielddominance>
                            <width>1920</width>
                            <height>1080</height>
                          </samplecharacteristics>
                        </video>
                      </media>
                    </file>
                  </clipitem>
                </track>
              </video>
            </media>
          </clip>
          <clip explodedTracks="true" frameBlend="FALSE" id="masterclip-547">
            <uuid>16f71a22-5704-480f-ac87-5dd8db61327c</uuid>
            <masterclipid>masterclip-547</masterclipid>
            <ismasterclip>TRUE</ismasterclip>
            <duration>672</duration>
            <in>0</in>
            <out>672</out>
            <name>Scene - LJ visemes.545.png</name>
            <rate>
              <timebase>24</timebase>
              <ntsc>FALSE</ntsc>
            </rate>
            <media>
              <video>
                <track>
                  <clipitem frameBlend="FALSE" id="clipitem-548">
                    <name>Scene - LJ visemes.545.png</name>
                    <masterclipid>masterclip-547</masterclipid>
                    <rate>
                      <timebase>24</timebase>
                      <ntsc>FALSE</ntsc>
                    </rate>
                    <alphatype>straight</alphatype>
                    <pixelaspectratio>square</pixelaspectratio>
                    <anamorphic>FALSE</anamorphic>
                    <file id="file-547">
                      <name>Scene - LJ visemes.545.png</name>
                      <pathurl>file://localhost/Users/bot/Documents/CREATE/Character Animator/LJ visemes CH2AE/demo/Scene - LJ visemes/Scene - LJ visemes.545.png</pathurl>
                      <rate>
                        <timebase>24</timebase>
                        <ntsc>FALSE</ntsc>
                      </rate>
                      <duration>672</duration>
                      <timecode>
                        <rate>
                          <timebase>24</timebase>
                          <ntsc>FALSE</ntsc>
                        </rate>
                      </timecode>
                      <media>
                        <video>
                          <duration>1</duration>
                          <samplecharacteristics>
                            <anamorphic>FALSE</anamorphic>
                            <pixelaspectratio>square</pixelaspectratio>
                            <fielddominance>none</fielddominance>
                            <width>1920</width>
                            <height>1080</height>
                          </samplecharacteristics>
                        </video>
                      </media>
                    </file>
                  </clipitem>
                </track>
              </video>
            </media>
          </clip>
          <clip explodedTracks="true" frameBlend="FALSE" id="masterclip-548">
            <uuid>35ba9ac8-48db-49d7-b440-04ac657ddac5</uuid>
            <masterclipid>masterclip-548</masterclipid>
            <ismasterclip>TRUE</ismasterclip>
            <duration>672</duration>
            <in>0</in>
            <out>672</out>
            <name>Scene - LJ visemes.546.png</name>
            <rate>
              <timebase>24</timebase>
              <ntsc>FALSE</ntsc>
            </rate>
            <media>
              <video>
                <track>
                  <clipitem frameBlend="FALSE" id="clipitem-549">
                    <name>Scene - LJ visemes.546.png</name>
                    <masterclipid>masterclip-548</masterclipid>
                    <rate>
                      <timebase>24</timebase>
                      <ntsc>FALSE</ntsc>
                    </rate>
                    <alphatype>straight</alphatype>
                    <pixelaspectratio>square</pixelaspectratio>
                    <anamorphic>FALSE</anamorphic>
                    <file id="file-548">
                      <name>Scene - LJ visemes.546.png</name>
                      <pathurl>file://localhost/Users/bot/Documents/CREATE/Character Animator/LJ visemes CH2AE/demo/Scene - LJ visemes/Scene - LJ visemes.546.png</pathurl>
                      <rate>
                        <timebase>24</timebase>
                        <ntsc>FALSE</ntsc>
                      </rate>
                      <duration>672</duration>
                      <timecode>
                        <rate>
                          <timebase>24</timebase>
                          <ntsc>FALSE</ntsc>
                        </rate>
                      </timecode>
                      <media>
                        <video>
                          <duration>1</duration>
                          <samplecharacteristics>
                            <anamorphic>FALSE</anamorphic>
                            <pixelaspectratio>square</pixelaspectratio>
                            <fielddominance>none</fielddominance>
                            <width>1920</width>
                            <height>1080</height>
                          </samplecharacteristics>
                        </video>
                      </media>
                    </file>
                  </clipitem>
                </track>
              </video>
            </media>
          </clip>
          <clip explodedTracks="true" frameBlend="FALSE" id="masterclip-549">
            <uuid>884d5db9-a0d8-42a9-bf0a-25f45be7402d</uuid>
            <masterclipid>masterclip-549</masterclipid>
            <ismasterclip>TRUE</ismasterclip>
            <duration>672</duration>
            <in>0</in>
            <out>672</out>
            <name>Scene - LJ visemes.547.png</name>
            <rate>
              <timebase>24</timebase>
              <ntsc>FALSE</ntsc>
            </rate>
            <media>
              <video>
                <track>
                  <clipitem frameBlend="FALSE" id="clipitem-550">
                    <name>Scene - LJ visemes.547.png</name>
                    <masterclipid>masterclip-549</masterclipid>
                    <rate>
                      <timebase>24</timebase>
                      <ntsc>FALSE</ntsc>
                    </rate>
                    <alphatype>straight</alphatype>
                    <pixelaspectratio>square</pixelaspectratio>
                    <anamorphic>FALSE</anamorphic>
                    <file id="file-549">
                      <name>Scene - LJ visemes.547.png</name>
                      <pathurl>file://localhost/Users/bot/Documents/CREATE/Character Animator/LJ visemes CH2AE/demo/Scene - LJ visemes/Scene - LJ visemes.547.png</pathurl>
                      <rate>
                        <timebase>24</timebase>
                        <ntsc>FALSE</ntsc>
                      </rate>
                      <duration>672</duration>
                      <timecode>
                        <rate>
                          <timebase>24</timebase>
                          <ntsc>FALSE</ntsc>
                        </rate>
                      </timecode>
                      <media>
                        <video>
                          <duration>1</duration>
                          <samplecharacteristics>
                            <anamorphic>FALSE</anamorphic>
                            <pixelaspectratio>square</pixelaspectratio>
                            <fielddominance>none</fielddominance>
                            <width>1920</width>
                            <height>1080</height>
                          </samplecharacteristics>
                        </video>
                      </media>
                    </file>
                  </clipitem>
                </track>
              </video>
            </media>
          </clip>
          <clip explodedTracks="true" frameBlend="FALSE" id="masterclip-550">
            <uuid>51489d00-dd7c-4544-b830-0af9c2545462</uuid>
            <masterclipid>masterclip-550</masterclipid>
            <ismasterclip>TRUE</ismasterclip>
            <duration>672</duration>
            <in>0</in>
            <out>672</out>
            <name>Scene - LJ visemes.548.png</name>
            <rate>
              <timebase>24</timebase>
              <ntsc>FALSE</ntsc>
            </rate>
            <media>
              <video>
                <track>
                  <clipitem frameBlend="FALSE" id="clipitem-551">
                    <name>Scene - LJ visemes.548.png</name>
                    <masterclipid>masterclip-550</masterclipid>
                    <rate>
                      <timebase>24</timebase>
                      <ntsc>FALSE</ntsc>
                    </rate>
                    <alphatype>straight</alphatype>
                    <pixelaspectratio>square</pixelaspectratio>
                    <anamorphic>FALSE</anamorphic>
                    <file id="file-550">
                      <name>Scene - LJ visemes.548.png</name>
                      <pathurl>file://localhost/Users/bot/Documents/CREATE/Character Animator/LJ visemes CH2AE/demo/Scene - LJ visemes/Scene - LJ visemes.548.png</pathurl>
                      <rate>
                        <timebase>24</timebase>
                        <ntsc>FALSE</ntsc>
                      </rate>
                      <duration>672</duration>
                      <timecode>
                        <rate>
                          <timebase>24</timebase>
                          <ntsc>FALSE</ntsc>
                        </rate>
                      </timecode>
                      <media>
                        <video>
                          <duration>1</duration>
                          <samplecharacteristics>
                            <anamorphic>FALSE</anamorphic>
                            <pixelaspectratio>square</pixelaspectratio>
                            <fielddominance>none</fielddominance>
                            <width>1920</width>
                            <height>1080</height>
                          </samplecharacteristics>
                        </video>
                      </media>
                    </file>
                  </clipitem>
                </track>
              </video>
            </media>
          </clip>
          <clip explodedTracks="true" frameBlend="FALSE" id="masterclip-551">
            <uuid>a9bb37de-1a59-4ae1-8553-03849cfcc3d1</uuid>
            <masterclipid>masterclip-551</masterclipid>
            <ismasterclip>TRUE</ismasterclip>
            <duration>672</duration>
            <in>0</in>
            <out>672</out>
            <name>Scene - LJ visemes.549.png</name>
            <rate>
              <timebase>24</timebase>
              <ntsc>FALSE</ntsc>
            </rate>
            <media>
              <video>
                <track>
                  <clipitem frameBlend="FALSE" id="clipitem-552">
                    <name>Scene - LJ visemes.549.png</name>
                    <masterclipid>masterclip-551</masterclipid>
                    <rate>
                      <timebase>24</timebase>
                      <ntsc>FALSE</ntsc>
                    </rate>
                    <alphatype>straight</alphatype>
                    <pixelaspectratio>square</pixelaspectratio>
                    <anamorphic>FALSE</anamorphic>
                    <file id="file-551">
                      <name>Scene - LJ visemes.549.png</name>
                      <pathurl>file://localhost/Users/bot/Documents/CREATE/Character Animator/LJ visemes CH2AE/demo/Scene - LJ visemes/Scene - LJ visemes.549.png</pathurl>
                      <rate>
                        <timebase>24</timebase>
                        <ntsc>FALSE</ntsc>
                      </rate>
                      <duration>672</duration>
                      <timecode>
                        <rate>
                          <timebase>24</timebase>
                          <ntsc>FALSE</ntsc>
                        </rate>
                      </timecode>
                      <media>
                        <video>
                          <duration>1</duration>
                          <samplecharacteristics>
                            <anamorphic>FALSE</anamorphic>
                            <pixelaspectratio>square</pixelaspectratio>
                            <fielddominance>none</fielddominance>
                            <width>1920</width>
                            <height>1080</height>
                          </samplecharacteristics>
                        </video>
                      </media>
                    </file>
                  </clipitem>
                </track>
              </video>
            </media>
          </clip>
          <clip explodedTracks="true" frameBlend="FALSE" id="masterclip-552">
            <uuid>79896abd-73c0-4015-8573-875fb67ac2b1</uuid>
            <masterclipid>masterclip-552</masterclipid>
            <ismasterclip>TRUE</ismasterclip>
            <duration>672</duration>
            <in>0</in>
            <out>672</out>
            <name>Scene - LJ visemes.550.png</name>
            <rate>
              <timebase>24</timebase>
              <ntsc>FALSE</ntsc>
            </rate>
            <media>
              <video>
                <track>
                  <clipitem frameBlend="FALSE" id="clipitem-553">
                    <name>Scene - LJ visemes.550.png</name>
                    <masterclipid>masterclip-552</masterclipid>
                    <rate>
                      <timebase>24</timebase>
                      <ntsc>FALSE</ntsc>
                    </rate>
                    <alphatype>straight</alphatype>
                    <pixelaspectratio>square</pixelaspectratio>
                    <anamorphic>FALSE</anamorphic>
                    <file id="file-552">
                      <name>Scene - LJ visemes.550.png</name>
                      <pathurl>file://localhost/Users/bot/Documents/CREATE/Character Animator/LJ visemes CH2AE/demo/Scene - LJ visemes/Scene - LJ visemes.550.png</pathurl>
                      <rate>
                        <timebase>24</timebase>
                        <ntsc>FALSE</ntsc>
                      </rate>
                      <duration>672</duration>
                      <timecode>
                        <rate>
                          <timebase>24</timebase>
                          <ntsc>FALSE</ntsc>
                        </rate>
                      </timecode>
                      <media>
                        <video>
                          <duration>1</duration>
                          <samplecharacteristics>
                            <anamorphic>FALSE</anamorphic>
                            <pixelaspectratio>square</pixelaspectratio>
                            <fielddominance>none</fielddominance>
                            <width>1920</width>
                            <height>1080</height>
                          </samplecharacteristics>
                        </video>
                      </media>
                    </file>
                  </clipitem>
                </track>
              </video>
            </media>
          </clip>
          <clip explodedTracks="true" frameBlend="FALSE" id="masterclip-553">
            <uuid>209b60d9-7b09-4d30-97b6-4cfac9f0a53f</uuid>
            <masterclipid>masterclip-553</masterclipid>
            <ismasterclip>TRUE</ismasterclip>
            <duration>672</duration>
            <in>0</in>
            <out>672</out>
            <name>Scene - LJ visemes.551.png</name>
            <rate>
              <timebase>24</timebase>
              <ntsc>FALSE</ntsc>
            </rate>
            <media>
              <video>
                <track>
                  <clipitem frameBlend="FALSE" id="clipitem-554">
                    <name>Scene - LJ visemes.551.png</name>
                    <masterclipid>masterclip-553</masterclipid>
                    <rate>
                      <timebase>24</timebase>
                      <ntsc>FALSE</ntsc>
                    </rate>
                    <alphatype>straight</alphatype>
                    <pixelaspectratio>square</pixelaspectratio>
                    <anamorphic>FALSE</anamorphic>
                    <file id="file-553">
                      <name>Scene - LJ visemes.551.png</name>
                      <pathurl>file://localhost/Users/bot/Documents/CREATE/Character Animator/LJ visemes CH2AE/demo/Scene - LJ visemes/Scene - LJ visemes.551.png</pathurl>
                      <rate>
                        <timebase>24</timebase>
                        <ntsc>FALSE</ntsc>
                      </rate>
                      <duration>672</duration>
                      <timecode>
                        <rate>
                          <timebase>24</timebase>
                          <ntsc>FALSE</ntsc>
                        </rate>
                      </timecode>
                      <media>
                        <video>
                          <duration>1</duration>
                          <samplecharacteristics>
                            <anamorphic>FALSE</anamorphic>
                            <pixelaspectratio>square</pixelaspectratio>
                            <fielddominance>none</fielddominance>
                            <width>1920</width>
                            <height>1080</height>
                          </samplecharacteristics>
                        </video>
                      </media>
                    </file>
                  </clipitem>
                </track>
              </video>
            </media>
          </clip>
          <clip explodedTracks="true" frameBlend="FALSE" id="masterclip-554">
            <uuid>7c085af0-e551-4c94-9615-d757fcab880e</uuid>
            <masterclipid>masterclip-554</masterclipid>
            <ismasterclip>TRUE</ismasterclip>
            <duration>672</duration>
            <in>0</in>
            <out>672</out>
            <name>Scene - LJ visemes.552.png</name>
            <rate>
              <timebase>24</timebase>
              <ntsc>FALSE</ntsc>
            </rate>
            <media>
              <video>
                <track>
                  <clipitem frameBlend="FALSE" id="clipitem-555">
                    <name>Scene - LJ visemes.552.png</name>
                    <masterclipid>masterclip-554</masterclipid>
                    <rate>
                      <timebase>24</timebase>
                      <ntsc>FALSE</ntsc>
                    </rate>
                    <alphatype>straight</alphatype>
                    <pixelaspectratio>square</pixelaspectratio>
                    <anamorphic>FALSE</anamorphic>
                    <file id="file-554">
                      <name>Scene - LJ visemes.552.png</name>
                      <pathurl>file://localhost/Users/bot/Documents/CREATE/Character Animator/LJ visemes CH2AE/demo/Scene - LJ visemes/Scene - LJ visemes.552.png</pathurl>
                      <rate>
                        <timebase>24</timebase>
                        <ntsc>FALSE</ntsc>
                      </rate>
                      <duration>672</duration>
                      <timecode>
                        <rate>
                          <timebase>24</timebase>
                          <ntsc>FALSE</ntsc>
                        </rate>
                      </timecode>
                      <media>
                        <video>
                          <duration>1</duration>
                          <samplecharacteristics>
                            <anamorphic>FALSE</anamorphic>
                            <pixelaspectratio>square</pixelaspectratio>
                            <fielddominance>none</fielddominance>
                            <width>1920</width>
                            <height>1080</height>
                          </samplecharacteristics>
                        </video>
                      </media>
                    </file>
                  </clipitem>
                </track>
              </video>
            </media>
          </clip>
          <clip explodedTracks="true" frameBlend="FALSE" id="masterclip-555">
            <uuid>822af977-3d5b-4ab4-b312-5a9732b28345</uuid>
            <masterclipid>masterclip-555</masterclipid>
            <ismasterclip>TRUE</ismasterclip>
            <duration>672</duration>
            <in>0</in>
            <out>672</out>
            <name>Scene - LJ visemes.553.png</name>
            <rate>
              <timebase>24</timebase>
              <ntsc>FALSE</ntsc>
            </rate>
            <media>
              <video>
                <track>
                  <clipitem frameBlend="FALSE" id="clipitem-556">
                    <name>Scene - LJ visemes.553.png</name>
                    <masterclipid>masterclip-555</masterclipid>
                    <rate>
                      <timebase>24</timebase>
                      <ntsc>FALSE</ntsc>
                    </rate>
                    <alphatype>straight</alphatype>
                    <pixelaspectratio>square</pixelaspectratio>
                    <anamorphic>FALSE</anamorphic>
                    <file id="file-555">
                      <name>Scene - LJ visemes.553.png</name>
                      <pathurl>file://localhost/Users/bot/Documents/CREATE/Character Animator/LJ visemes CH2AE/demo/Scene - LJ visemes/Scene - LJ visemes.553.png</pathurl>
                      <rate>
                        <timebase>24</timebase>
                        <ntsc>FALSE</ntsc>
                      </rate>
                      <duration>672</duration>
                      <timecode>
                        <rate>
                          <timebase>24</timebase>
                          <ntsc>FALSE</ntsc>
                        </rate>
                      </timecode>
                      <media>
                        <video>
                          <duration>1</duration>
                          <samplecharacteristics>
                            <anamorphic>FALSE</anamorphic>
                            <pixelaspectratio>square</pixelaspectratio>
                            <fielddominance>none</fielddominance>
                            <width>1920</width>
                            <height>1080</height>
                          </samplecharacteristics>
                        </video>
                      </media>
                    </file>
                  </clipitem>
                </track>
              </video>
            </media>
          </clip>
          <clip explodedTracks="true" frameBlend="FALSE" id="masterclip-556">
            <uuid>c340ad50-796e-4feb-905c-c12dbc4c5250</uuid>
            <masterclipid>masterclip-556</masterclipid>
            <ismasterclip>TRUE</ismasterclip>
            <duration>672</duration>
            <in>0</in>
            <out>672</out>
            <name>Scene - LJ visemes.554.png</name>
            <rate>
              <timebase>24</timebase>
              <ntsc>FALSE</ntsc>
            </rate>
            <media>
              <video>
                <track>
                  <clipitem frameBlend="FALSE" id="clipitem-557">
                    <name>Scene - LJ visemes.554.png</name>
                    <masterclipid>masterclip-556</masterclipid>
                    <rate>
                      <timebase>24</timebase>
                      <ntsc>FALSE</ntsc>
                    </rate>
                    <alphatype>straight</alphatype>
                    <pixelaspectratio>square</pixelaspectratio>
                    <anamorphic>FALSE</anamorphic>
                    <file id="file-556">
                      <name>Scene - LJ visemes.554.png</name>
                      <pathurl>file://localhost/Users/bot/Documents/CREATE/Character Animator/LJ visemes CH2AE/demo/Scene - LJ visemes/Scene - LJ visemes.554.png</pathurl>
                      <rate>
                        <timebase>24</timebase>
                        <ntsc>FALSE</ntsc>
                      </rate>
                      <duration>672</duration>
                      <timecode>
                        <rate>
                          <timebase>24</timebase>
                          <ntsc>FALSE</ntsc>
                        </rate>
                      </timecode>
                      <media>
                        <video>
                          <duration>1</duration>
                          <samplecharacteristics>
                            <anamorphic>FALSE</anamorphic>
                            <pixelaspectratio>square</pixelaspectratio>
                            <fielddominance>none</fielddominance>
                            <width>1920</width>
                            <height>1080</height>
                          </samplecharacteristics>
                        </video>
                      </media>
                    </file>
                  </clipitem>
                </track>
              </video>
            </media>
          </clip>
          <clip explodedTracks="true" frameBlend="FALSE" id="masterclip-557">
            <uuid>fe77eae0-1df6-46ea-8f73-f85c55571947</uuid>
            <masterclipid>masterclip-557</masterclipid>
            <ismasterclip>TRUE</ismasterclip>
            <duration>672</duration>
            <in>0</in>
            <out>672</out>
            <name>Scene - LJ visemes.555.png</name>
            <rate>
              <timebase>24</timebase>
              <ntsc>FALSE</ntsc>
            </rate>
            <media>
              <video>
                <track>
                  <clipitem frameBlend="FALSE" id="clipitem-558">
                    <name>Scene - LJ visemes.555.png</name>
                    <masterclipid>masterclip-557</masterclipid>
                    <rate>
                      <timebase>24</timebase>
                      <ntsc>FALSE</ntsc>
                    </rate>
                    <alphatype>straight</alphatype>
                    <pixelaspectratio>square</pixelaspectratio>
                    <anamorphic>FALSE</anamorphic>
                    <file id="file-557">
                      <name>Scene - LJ visemes.555.png</name>
                      <pathurl>file://localhost/Users/bot/Documents/CREATE/Character Animator/LJ visemes CH2AE/demo/Scene - LJ visemes/Scene - LJ visemes.555.png</pathurl>
                      <rate>
                        <timebase>24</timebase>
                        <ntsc>FALSE</ntsc>
                      </rate>
                      <duration>672</duration>
                      <timecode>
                        <rate>
                          <timebase>24</timebase>
                          <ntsc>FALSE</ntsc>
                        </rate>
                      </timecode>
                      <media>
                        <video>
                          <duration>1</duration>
                          <samplecharacteristics>
                            <anamorphic>FALSE</anamorphic>
                            <pixelaspectratio>square</pixelaspectratio>
                            <fielddominance>none</fielddominance>
                            <width>1920</width>
                            <height>1080</height>
                          </samplecharacteristics>
                        </video>
                      </media>
                    </file>
                  </clipitem>
                </track>
              </video>
            </media>
          </clip>
          <clip explodedTracks="true" frameBlend="FALSE" id="masterclip-558">
            <uuid>2cddddf0-d5bb-4f4b-a0d7-ba49b5622882</uuid>
            <masterclipid>masterclip-558</masterclipid>
            <ismasterclip>TRUE</ismasterclip>
            <duration>672</duration>
            <in>0</in>
            <out>672</out>
            <name>Scene - LJ visemes.556.png</name>
            <rate>
              <timebase>24</timebase>
              <ntsc>FALSE</ntsc>
            </rate>
            <media>
              <video>
                <track>
                  <clipitem frameBlend="FALSE" id="clipitem-559">
                    <name>Scene - LJ visemes.556.png</name>
                    <masterclipid>masterclip-558</masterclipid>
                    <rate>
                      <timebase>24</timebase>
                      <ntsc>FALSE</ntsc>
                    </rate>
                    <alphatype>straight</alphatype>
                    <pixelaspectratio>square</pixelaspectratio>
                    <anamorphic>FALSE</anamorphic>
                    <file id="file-558">
                      <name>Scene - LJ visemes.556.png</name>
                      <pathurl>file://localhost/Users/bot/Documents/CREATE/Character Animator/LJ visemes CH2AE/demo/Scene - LJ visemes/Scene - LJ visemes.556.png</pathurl>
                      <rate>
                        <timebase>24</timebase>
                        <ntsc>FALSE</ntsc>
                      </rate>
                      <duration>672</duration>
                      <timecode>
                        <rate>
                          <timebase>24</timebase>
                          <ntsc>FALSE</ntsc>
                        </rate>
                      </timecode>
                      <media>
                        <video>
                          <duration>1</duration>
                          <samplecharacteristics>
                            <anamorphic>FALSE</anamorphic>
                            <pixelaspectratio>square</pixelaspectratio>
                            <fielddominance>none</fielddominance>
                            <width>1920</width>
                            <height>1080</height>
                          </samplecharacteristics>
                        </video>
                      </media>
                    </file>
                  </clipitem>
                </track>
              </video>
            </media>
          </clip>
          <clip explodedTracks="true" frameBlend="FALSE" id="masterclip-559">
            <uuid>3787dd59-3bd4-4229-80ab-661dd9c2381a</uuid>
            <masterclipid>masterclip-559</masterclipid>
            <ismasterclip>TRUE</ismasterclip>
            <duration>672</duration>
            <in>0</in>
            <out>672</out>
            <name>Scene - LJ visemes.557.png</name>
            <rate>
              <timebase>24</timebase>
              <ntsc>FALSE</ntsc>
            </rate>
            <media>
              <video>
                <track>
                  <clipitem frameBlend="FALSE" id="clipitem-560">
                    <name>Scene - LJ visemes.557.png</name>
                    <masterclipid>masterclip-559</masterclipid>
                    <rate>
                      <timebase>24</timebase>
                      <ntsc>FALSE</ntsc>
                    </rate>
                    <alphatype>straight</alphatype>
                    <pixelaspectratio>square</pixelaspectratio>
                    <anamorphic>FALSE</anamorphic>
                    <file id="file-559">
                      <name>Scene - LJ visemes.557.png</name>
                      <pathurl>file://localhost/Users/bot/Documents/CREATE/Character Animator/LJ visemes CH2AE/demo/Scene - LJ visemes/Scene - LJ visemes.557.png</pathurl>
                      <rate>
                        <timebase>24</timebase>
                        <ntsc>FALSE</ntsc>
                      </rate>
                      <duration>672</duration>
                      <timecode>
                        <rate>
                          <timebase>24</timebase>
                          <ntsc>FALSE</ntsc>
                        </rate>
                      </timecode>
                      <media>
                        <video>
                          <duration>1</duration>
                          <samplecharacteristics>
                            <anamorphic>FALSE</anamorphic>
                            <pixelaspectratio>square</pixelaspectratio>
                            <fielddominance>none</fielddominance>
                            <width>1920</width>
                            <height>1080</height>
                          </samplecharacteristics>
                        </video>
                      </media>
                    </file>
                  </clipitem>
                </track>
              </video>
            </media>
          </clip>
          <clip explodedTracks="true" frameBlend="FALSE" id="masterclip-560">
            <uuid>a552c491-2b00-43f0-9b37-f3bad73d5434</uuid>
            <masterclipid>masterclip-560</masterclipid>
            <ismasterclip>TRUE</ismasterclip>
            <duration>672</duration>
            <in>0</in>
            <out>672</out>
            <name>Scene - LJ visemes.558.png</name>
            <rate>
              <timebase>24</timebase>
              <ntsc>FALSE</ntsc>
            </rate>
            <media>
              <video>
                <track>
                  <clipitem frameBlend="FALSE" id="clipitem-561">
                    <name>Scene - LJ visemes.558.png</name>
                    <masterclipid>masterclip-560</masterclipid>
                    <rate>
                      <timebase>24</timebase>
                      <ntsc>FALSE</ntsc>
                    </rate>
                    <alphatype>straight</alphatype>
                    <pixelaspectratio>square</pixelaspectratio>
                    <anamorphic>FALSE</anamorphic>
                    <file id="file-560">
                      <name>Scene - LJ visemes.558.png</name>
                      <pathurl>file://localhost/Users/bot/Documents/CREATE/Character Animator/LJ visemes CH2AE/demo/Scene - LJ visemes/Scene - LJ visemes.558.png</pathurl>
                      <rate>
                        <timebase>24</timebase>
                        <ntsc>FALSE</ntsc>
                      </rate>
                      <duration>672</duration>
                      <timecode>
                        <rate>
                          <timebase>24</timebase>
                          <ntsc>FALSE</ntsc>
                        </rate>
                      </timecode>
                      <media>
                        <video>
                          <duration>1</duration>
                          <samplecharacteristics>
                            <anamorphic>FALSE</anamorphic>
                            <pixelaspectratio>square</pixelaspectratio>
                            <fielddominance>none</fielddominance>
                            <width>1920</width>
                            <height>1080</height>
                          </samplecharacteristics>
                        </video>
                      </media>
                    </file>
                  </clipitem>
                </track>
              </video>
            </media>
          </clip>
          <clip explodedTracks="true" frameBlend="FALSE" id="masterclip-561">
            <uuid>639d0287-c571-4f8f-b4ba-38bec25814b2</uuid>
            <masterclipid>masterclip-561</masterclipid>
            <ismasterclip>TRUE</ismasterclip>
            <duration>672</duration>
            <in>0</in>
            <out>672</out>
            <name>Scene - LJ visemes.559.png</name>
            <rate>
              <timebase>24</timebase>
              <ntsc>FALSE</ntsc>
            </rate>
            <media>
              <video>
                <track>
                  <clipitem frameBlend="FALSE" id="clipitem-562">
                    <name>Scene - LJ visemes.559.png</name>
                    <masterclipid>masterclip-561</masterclipid>
                    <rate>
                      <timebase>24</timebase>
                      <ntsc>FALSE</ntsc>
                    </rate>
                    <alphatype>straight</alphatype>
                    <pixelaspectratio>square</pixelaspectratio>
                    <anamorphic>FALSE</anamorphic>
                    <file id="file-561">
                      <name>Scene - LJ visemes.559.png</name>
                      <pathurl>file://localhost/Users/bot/Documents/CREATE/Character Animator/LJ visemes CH2AE/demo/Scene - LJ visemes/Scene - LJ visemes.559.png</pathurl>
                      <rate>
                        <timebase>24</timebase>
                        <ntsc>FALSE</ntsc>
                      </rate>
                      <duration>672</duration>
                      <timecode>
                        <rate>
                          <timebase>24</timebase>
                          <ntsc>FALSE</ntsc>
                        </rate>
                      </timecode>
                      <media>
                        <video>
                          <duration>1</duration>
                          <samplecharacteristics>
                            <anamorphic>FALSE</anamorphic>
                            <pixelaspectratio>square</pixelaspectratio>
                            <fielddominance>none</fielddominance>
                            <width>1920</width>
                            <height>1080</height>
                          </samplecharacteristics>
                        </video>
                      </media>
                    </file>
                  </clipitem>
                </track>
              </video>
            </media>
          </clip>
          <clip explodedTracks="true" frameBlend="FALSE" id="masterclip-562">
            <uuid>3e08a0e8-1608-4e37-8cec-6b23c18116f5</uuid>
            <masterclipid>masterclip-562</masterclipid>
            <ismasterclip>TRUE</ismasterclip>
            <duration>672</duration>
            <in>0</in>
            <out>672</out>
            <name>Scene - LJ visemes.560.png</name>
            <rate>
              <timebase>24</timebase>
              <ntsc>FALSE</ntsc>
            </rate>
            <media>
              <video>
                <track>
                  <clipitem frameBlend="FALSE" id="clipitem-563">
                    <name>Scene - LJ visemes.560.png</name>
                    <masterclipid>masterclip-562</masterclipid>
                    <rate>
                      <timebase>24</timebase>
                      <ntsc>FALSE</ntsc>
                    </rate>
                    <alphatype>straight</alphatype>
                    <pixelaspectratio>square</pixelaspectratio>
                    <anamorphic>FALSE</anamorphic>
                    <file id="file-562">
                      <name>Scene - LJ visemes.560.png</name>
                      <pathurl>file://localhost/Users/bot/Documents/CREATE/Character Animator/LJ visemes CH2AE/demo/Scene - LJ visemes/Scene - LJ visemes.560.png</pathurl>
                      <rate>
                        <timebase>24</timebase>
                        <ntsc>FALSE</ntsc>
                      </rate>
                      <duration>672</duration>
                      <timecode>
                        <rate>
                          <timebase>24</timebase>
                          <ntsc>FALSE</ntsc>
                        </rate>
                      </timecode>
                      <media>
                        <video>
                          <duration>1</duration>
                          <samplecharacteristics>
                            <anamorphic>FALSE</anamorphic>
                            <pixelaspectratio>square</pixelaspectratio>
                            <fielddominance>none</fielddominance>
                            <width>1920</width>
                            <height>1080</height>
                          </samplecharacteristics>
                        </video>
                      </media>
                    </file>
                  </clipitem>
                </track>
              </video>
            </media>
          </clip>
          <clip explodedTracks="true" frameBlend="FALSE" id="masterclip-563">
            <uuid>413ba064-ea32-4f11-863e-a538cb03942a</uuid>
            <masterclipid>masterclip-563</masterclipid>
            <ismasterclip>TRUE</ismasterclip>
            <duration>672</duration>
            <in>0</in>
            <out>672</out>
            <name>Scene - LJ visemes.561.png</name>
            <rate>
              <timebase>24</timebase>
              <ntsc>FALSE</ntsc>
            </rate>
            <media>
              <video>
                <track>
                  <clipitem frameBlend="FALSE" id="clipitem-564">
                    <name>Scene - LJ visemes.561.png</name>
                    <masterclipid>masterclip-563</masterclipid>
                    <rate>
                      <timebase>24</timebase>
                      <ntsc>FALSE</ntsc>
                    </rate>
                    <alphatype>straight</alphatype>
                    <pixelaspectratio>square</pixelaspectratio>
                    <anamorphic>FALSE</anamorphic>
                    <file id="file-563">
                      <name>Scene - LJ visemes.561.png</name>
                      <pathurl>file://localhost/Users/bot/Documents/CREATE/Character Animator/LJ visemes CH2AE/demo/Scene - LJ visemes/Scene - LJ visemes.561.png</pathurl>
                      <rate>
                        <timebase>24</timebase>
                        <ntsc>FALSE</ntsc>
                      </rate>
                      <duration>672</duration>
                      <timecode>
                        <rate>
                          <timebase>24</timebase>
                          <ntsc>FALSE</ntsc>
                        </rate>
                      </timecode>
                      <media>
                        <video>
                          <duration>1</duration>
                          <samplecharacteristics>
                            <anamorphic>FALSE</anamorphic>
                            <pixelaspectratio>square</pixelaspectratio>
                            <fielddominance>none</fielddominance>
                            <width>1920</width>
                            <height>1080</height>
                          </samplecharacteristics>
                        </video>
                      </media>
                    </file>
                  </clipitem>
                </track>
              </video>
            </media>
          </clip>
          <clip explodedTracks="true" frameBlend="FALSE" id="masterclip-564">
            <uuid>1da2543c-0d7b-4bb0-bb42-50ffcd25fe0d</uuid>
            <masterclipid>masterclip-564</masterclipid>
            <ismasterclip>TRUE</ismasterclip>
            <duration>672</duration>
            <in>0</in>
            <out>672</out>
            <name>Scene - LJ visemes.562.png</name>
            <rate>
              <timebase>24</timebase>
              <ntsc>FALSE</ntsc>
            </rate>
            <media>
              <video>
                <track>
                  <clipitem frameBlend="FALSE" id="clipitem-565">
                    <name>Scene - LJ visemes.562.png</name>
                    <masterclipid>masterclip-564</masterclipid>
                    <rate>
                      <timebase>24</timebase>
                      <ntsc>FALSE</ntsc>
                    </rate>
                    <alphatype>straight</alphatype>
                    <pixelaspectratio>square</pixelaspectratio>
                    <anamorphic>FALSE</anamorphic>
                    <file id="file-564">
                      <name>Scene - LJ visemes.562.png</name>
                      <pathurl>file://localhost/Users/bot/Documents/CREATE/Character Animator/LJ visemes CH2AE/demo/Scene - LJ visemes/Scene - LJ visemes.562.png</pathurl>
                      <rate>
                        <timebase>24</timebase>
                        <ntsc>FALSE</ntsc>
                      </rate>
                      <duration>672</duration>
                      <timecode>
                        <rate>
                          <timebase>24</timebase>
                          <ntsc>FALSE</ntsc>
                        </rate>
                      </timecode>
                      <media>
                        <video>
                          <duration>1</duration>
                          <samplecharacteristics>
                            <anamorphic>FALSE</anamorphic>
                            <pixelaspectratio>square</pixelaspectratio>
                            <fielddominance>none</fielddominance>
                            <width>1920</width>
                            <height>1080</height>
                          </samplecharacteristics>
                        </video>
                      </media>
                    </file>
                  </clipitem>
                </track>
              </video>
            </media>
          </clip>
          <clip explodedTracks="true" frameBlend="FALSE" id="masterclip-565">
            <uuid>b944f077-0f57-414e-b807-a21cc89d1961</uuid>
            <masterclipid>masterclip-565</masterclipid>
            <ismasterclip>TRUE</ismasterclip>
            <duration>672</duration>
            <in>0</in>
            <out>672</out>
            <name>Scene - LJ visemes.563.png</name>
            <rate>
              <timebase>24</timebase>
              <ntsc>FALSE</ntsc>
            </rate>
            <media>
              <video>
                <track>
                  <clipitem frameBlend="FALSE" id="clipitem-566">
                    <name>Scene - LJ visemes.563.png</name>
                    <masterclipid>masterclip-565</masterclipid>
                    <rate>
                      <timebase>24</timebase>
                      <ntsc>FALSE</ntsc>
                    </rate>
                    <alphatype>straight</alphatype>
                    <pixelaspectratio>square</pixelaspectratio>
                    <anamorphic>FALSE</anamorphic>
                    <file id="file-565">
                      <name>Scene - LJ visemes.563.png</name>
                      <pathurl>file://localhost/Users/bot/Documents/CREATE/Character Animator/LJ visemes CH2AE/demo/Scene - LJ visemes/Scene - LJ visemes.563.png</pathurl>
                      <rate>
                        <timebase>24</timebase>
                        <ntsc>FALSE</ntsc>
                      </rate>
                      <duration>672</duration>
                      <timecode>
                        <rate>
                          <timebase>24</timebase>
                          <ntsc>FALSE</ntsc>
                        </rate>
                      </timecode>
                      <media>
                        <video>
                          <duration>1</duration>
                          <samplecharacteristics>
                            <anamorphic>FALSE</anamorphic>
                            <pixelaspectratio>square</pixelaspectratio>
                            <fielddominance>none</fielddominance>
                            <width>1920</width>
                            <height>1080</height>
                          </samplecharacteristics>
                        </video>
                      </media>
                    </file>
                  </clipitem>
                </track>
              </video>
            </media>
          </clip>
          <clip explodedTracks="true" frameBlend="FALSE" id="masterclip-566">
            <uuid>f87938ca-227c-40eb-b8a6-4cc42d14a5f5</uuid>
            <masterclipid>masterclip-566</masterclipid>
            <ismasterclip>TRUE</ismasterclip>
            <duration>672</duration>
            <in>0</in>
            <out>672</out>
            <name>Scene - LJ visemes.564.png</name>
            <rate>
              <timebase>24</timebase>
              <ntsc>FALSE</ntsc>
            </rate>
            <media>
              <video>
                <track>
                  <clipitem frameBlend="FALSE" id="clipitem-567">
                    <name>Scene - LJ visemes.564.png</name>
                    <masterclipid>masterclip-566</masterclipid>
                    <rate>
                      <timebase>24</timebase>
                      <ntsc>FALSE</ntsc>
                    </rate>
                    <alphatype>straight</alphatype>
                    <pixelaspectratio>square</pixelaspectratio>
                    <anamorphic>FALSE</anamorphic>
                    <file id="file-566">
                      <name>Scene - LJ visemes.564.png</name>
                      <pathurl>file://localhost/Users/bot/Documents/CREATE/Character Animator/LJ visemes CH2AE/demo/Scene - LJ visemes/Scene - LJ visemes.564.png</pathurl>
                      <rate>
                        <timebase>24</timebase>
                        <ntsc>FALSE</ntsc>
                      </rate>
                      <duration>672</duration>
                      <timecode>
                        <rate>
                          <timebase>24</timebase>
                          <ntsc>FALSE</ntsc>
                        </rate>
                      </timecode>
                      <media>
                        <video>
                          <duration>1</duration>
                          <samplecharacteristics>
                            <anamorphic>FALSE</anamorphic>
                            <pixelaspectratio>square</pixelaspectratio>
                            <fielddominance>none</fielddominance>
                            <width>1920</width>
                            <height>1080</height>
                          </samplecharacteristics>
                        </video>
                      </media>
                    </file>
                  </clipitem>
                </track>
              </video>
            </media>
          </clip>
          <clip explodedTracks="true" frameBlend="FALSE" id="masterclip-567">
            <uuid>04b1efbb-8d11-4f50-8c13-47472209de02</uuid>
            <masterclipid>masterclip-567</masterclipid>
            <ismasterclip>TRUE</ismasterclip>
            <duration>672</duration>
            <in>0</in>
            <out>672</out>
            <name>Scene - LJ visemes.565.png</name>
            <rate>
              <timebase>24</timebase>
              <ntsc>FALSE</ntsc>
            </rate>
            <media>
              <video>
                <track>
                  <clipitem frameBlend="FALSE" id="clipitem-568">
                    <name>Scene - LJ visemes.565.png</name>
                    <masterclipid>masterclip-567</masterclipid>
                    <rate>
                      <timebase>24</timebase>
                      <ntsc>FALSE</ntsc>
                    </rate>
                    <alphatype>straight</alphatype>
                    <pixelaspectratio>square</pixelaspectratio>
                    <anamorphic>FALSE</anamorphic>
                    <file id="file-567">
                      <name>Scene - LJ visemes.565.png</name>
                      <pathurl>file://localhost/Users/bot/Documents/CREATE/Character Animator/LJ visemes CH2AE/demo/Scene - LJ visemes/Scene - LJ visemes.565.png</pathurl>
                      <rate>
                        <timebase>24</timebase>
                        <ntsc>FALSE</ntsc>
                      </rate>
                      <duration>672</duration>
                      <timecode>
                        <rate>
                          <timebase>24</timebase>
                          <ntsc>FALSE</ntsc>
                        </rate>
                      </timecode>
                      <media>
                        <video>
                          <duration>1</duration>
                          <samplecharacteristics>
                            <anamorphic>FALSE</anamorphic>
                            <pixelaspectratio>square</pixelaspectratio>
                            <fielddominance>none</fielddominance>
                            <width>1920</width>
                            <height>1080</height>
                          </samplecharacteristics>
                        </video>
                      </media>
                    </file>
                  </clipitem>
                </track>
              </video>
            </media>
          </clip>
          <clip explodedTracks="true" frameBlend="FALSE" id="masterclip-568">
            <uuid>86031e57-b705-4f4e-9a90-0cfdd7c8ff89</uuid>
            <masterclipid>masterclip-568</masterclipid>
            <ismasterclip>TRUE</ismasterclip>
            <duration>672</duration>
            <in>0</in>
            <out>672</out>
            <name>Scene - LJ visemes.566.png</name>
            <rate>
              <timebase>24</timebase>
              <ntsc>FALSE</ntsc>
            </rate>
            <media>
              <video>
                <track>
                  <clipitem frameBlend="FALSE" id="clipitem-569">
                    <name>Scene - LJ visemes.566.png</name>
                    <masterclipid>masterclip-568</masterclipid>
                    <rate>
                      <timebase>24</timebase>
                      <ntsc>FALSE</ntsc>
                    </rate>
                    <alphatype>straight</alphatype>
                    <pixelaspectratio>square</pixelaspectratio>
                    <anamorphic>FALSE</anamorphic>
                    <file id="file-568">
                      <name>Scene - LJ visemes.566.png</name>
                      <pathurl>file://localhost/Users/bot/Documents/CREATE/Character Animator/LJ visemes CH2AE/demo/Scene - LJ visemes/Scene - LJ visemes.566.png</pathurl>
                      <rate>
                        <timebase>24</timebase>
                        <ntsc>FALSE</ntsc>
                      </rate>
                      <duration>672</duration>
                      <timecode>
                        <rate>
                          <timebase>24</timebase>
                          <ntsc>FALSE</ntsc>
                        </rate>
                      </timecode>
                      <media>
                        <video>
                          <duration>1</duration>
                          <samplecharacteristics>
                            <anamorphic>FALSE</anamorphic>
                            <pixelaspectratio>square</pixelaspectratio>
                            <fielddominance>none</fielddominance>
                            <width>1920</width>
                            <height>1080</height>
                          </samplecharacteristics>
                        </video>
                      </media>
                    </file>
                  </clipitem>
                </track>
              </video>
            </media>
          </clip>
          <clip explodedTracks="true" frameBlend="FALSE" id="masterclip-569">
            <uuid>fad72228-a4c1-407a-9b54-0d6e6adf9dae</uuid>
            <masterclipid>masterclip-569</masterclipid>
            <ismasterclip>TRUE</ismasterclip>
            <duration>672</duration>
            <in>0</in>
            <out>672</out>
            <name>Scene - LJ visemes.567.png</name>
            <rate>
              <timebase>24</timebase>
              <ntsc>FALSE</ntsc>
            </rate>
            <media>
              <video>
                <track>
                  <clipitem frameBlend="FALSE" id="clipitem-570">
                    <name>Scene - LJ visemes.567.png</name>
                    <masterclipid>masterclip-569</masterclipid>
                    <rate>
                      <timebase>24</timebase>
                      <ntsc>FALSE</ntsc>
                    </rate>
                    <alphatype>straight</alphatype>
                    <pixelaspectratio>square</pixelaspectratio>
                    <anamorphic>FALSE</anamorphic>
                    <file id="file-569">
                      <name>Scene - LJ visemes.567.png</name>
                      <pathurl>file://localhost/Users/bot/Documents/CREATE/Character Animator/LJ visemes CH2AE/demo/Scene - LJ visemes/Scene - LJ visemes.567.png</pathurl>
                      <rate>
                        <timebase>24</timebase>
                        <ntsc>FALSE</ntsc>
                      </rate>
                      <duration>672</duration>
                      <timecode>
                        <rate>
                          <timebase>24</timebase>
                          <ntsc>FALSE</ntsc>
                        </rate>
                      </timecode>
                      <media>
                        <video>
                          <duration>1</duration>
                          <samplecharacteristics>
                            <anamorphic>FALSE</anamorphic>
                            <pixelaspectratio>square</pixelaspectratio>
                            <fielddominance>none</fielddominance>
                            <width>1920</width>
                            <height>1080</height>
                          </samplecharacteristics>
                        </video>
                      </media>
                    </file>
                  </clipitem>
                </track>
              </video>
            </media>
          </clip>
          <clip explodedTracks="true" frameBlend="FALSE" id="masterclip-570">
            <uuid>675a7867-c982-46f9-9918-cbc80945f867</uuid>
            <masterclipid>masterclip-570</masterclipid>
            <ismasterclip>TRUE</ismasterclip>
            <duration>672</duration>
            <in>0</in>
            <out>672</out>
            <name>Scene - LJ visemes.568.png</name>
            <rate>
              <timebase>24</timebase>
              <ntsc>FALSE</ntsc>
            </rate>
            <media>
              <video>
                <track>
                  <clipitem frameBlend="FALSE" id="clipitem-571">
                    <name>Scene - LJ visemes.568.png</name>
                    <masterclipid>masterclip-570</masterclipid>
                    <rate>
                      <timebase>24</timebase>
                      <ntsc>FALSE</ntsc>
                    </rate>
                    <alphatype>straight</alphatype>
                    <pixelaspectratio>square</pixelaspectratio>
                    <anamorphic>FALSE</anamorphic>
                    <file id="file-570">
                      <name>Scene - LJ visemes.568.png</name>
                      <pathurl>file://localhost/Users/bot/Documents/CREATE/Character Animator/LJ visemes CH2AE/demo/Scene - LJ visemes/Scene - LJ visemes.568.png</pathurl>
                      <rate>
                        <timebase>24</timebase>
                        <ntsc>FALSE</ntsc>
                      </rate>
                      <duration>672</duration>
                      <timecode>
                        <rate>
                          <timebase>24</timebase>
                          <ntsc>FALSE</ntsc>
                        </rate>
                      </timecode>
                      <media>
                        <video>
                          <duration>1</duration>
                          <samplecharacteristics>
                            <anamorphic>FALSE</anamorphic>
                            <pixelaspectratio>square</pixelaspectratio>
                            <fielddominance>none</fielddominance>
                            <width>1920</width>
                            <height>1080</height>
                          </samplecharacteristics>
                        </video>
                      </media>
                    </file>
                  </clipitem>
                </track>
              </video>
            </media>
          </clip>
          <clip explodedTracks="true" frameBlend="FALSE" id="masterclip-571">
            <uuid>cdcfe291-e704-4118-a8b4-0f5fb595be08</uuid>
            <masterclipid>masterclip-571</masterclipid>
            <ismasterclip>TRUE</ismasterclip>
            <duration>672</duration>
            <in>0</in>
            <out>672</out>
            <name>Scene - LJ visemes.569.png</name>
            <rate>
              <timebase>24</timebase>
              <ntsc>FALSE</ntsc>
            </rate>
            <media>
              <video>
                <track>
                  <clipitem frameBlend="FALSE" id="clipitem-572">
                    <name>Scene - LJ visemes.569.png</name>
                    <masterclipid>masterclip-571</masterclipid>
                    <rate>
                      <timebase>24</timebase>
                      <ntsc>FALSE</ntsc>
                    </rate>
                    <alphatype>straight</alphatype>
                    <pixelaspectratio>square</pixelaspectratio>
                    <anamorphic>FALSE</anamorphic>
                    <file id="file-571">
                      <name>Scene - LJ visemes.569.png</name>
                      <pathurl>file://localhost/Users/bot/Documents/CREATE/Character Animator/LJ visemes CH2AE/demo/Scene - LJ visemes/Scene - LJ visemes.569.png</pathurl>
                      <rate>
                        <timebase>24</timebase>
                        <ntsc>FALSE</ntsc>
                      </rate>
                      <duration>672</duration>
                      <timecode>
                        <rate>
                          <timebase>24</timebase>
                          <ntsc>FALSE</ntsc>
                        </rate>
                      </timecode>
                      <media>
                        <video>
                          <duration>1</duration>
                          <samplecharacteristics>
                            <anamorphic>FALSE</anamorphic>
                            <pixelaspectratio>square</pixelaspectratio>
                            <fielddominance>none</fielddominance>
                            <width>1920</width>
                            <height>1080</height>
                          </samplecharacteristics>
                        </video>
                      </media>
                    </file>
                  </clipitem>
                </track>
              </video>
            </media>
          </clip>
          <clip explodedTracks="true" frameBlend="FALSE" id="masterclip-572">
            <uuid>837b442e-4ebd-4ccc-a3ac-b8d2c240beb8</uuid>
            <masterclipid>masterclip-572</masterclipid>
            <ismasterclip>TRUE</ismasterclip>
            <duration>672</duration>
            <in>0</in>
            <out>672</out>
            <name>Scene - LJ visemes.570.png</name>
            <rate>
              <timebase>24</timebase>
              <ntsc>FALSE</ntsc>
            </rate>
            <media>
              <video>
                <track>
                  <clipitem frameBlend="FALSE" id="clipitem-573">
                    <name>Scene - LJ visemes.570.png</name>
                    <masterclipid>masterclip-572</masterclipid>
                    <rate>
                      <timebase>24</timebase>
                      <ntsc>FALSE</ntsc>
                    </rate>
                    <alphatype>straight</alphatype>
                    <pixelaspectratio>square</pixelaspectratio>
                    <anamorphic>FALSE</anamorphic>
                    <file id="file-572">
                      <name>Scene - LJ visemes.570.png</name>
                      <pathurl>file://localhost/Users/bot/Documents/CREATE/Character Animator/LJ visemes CH2AE/demo/Scene - LJ visemes/Scene - LJ visemes.570.png</pathurl>
                      <rate>
                        <timebase>24</timebase>
                        <ntsc>FALSE</ntsc>
                      </rate>
                      <duration>672</duration>
                      <timecode>
                        <rate>
                          <timebase>24</timebase>
                          <ntsc>FALSE</ntsc>
                        </rate>
                      </timecode>
                      <media>
                        <video>
                          <duration>1</duration>
                          <samplecharacteristics>
                            <anamorphic>FALSE</anamorphic>
                            <pixelaspectratio>square</pixelaspectratio>
                            <fielddominance>none</fielddominance>
                            <width>1920</width>
                            <height>1080</height>
                          </samplecharacteristics>
                        </video>
                      </media>
                    </file>
                  </clipitem>
                </track>
              </video>
            </media>
          </clip>
          <clip explodedTracks="true" frameBlend="FALSE" id="masterclip-573">
            <uuid>45abdfcc-04f6-4249-84eb-c6d97044cf4c</uuid>
            <masterclipid>masterclip-573</masterclipid>
            <ismasterclip>TRUE</ismasterclip>
            <duration>672</duration>
            <in>0</in>
            <out>672</out>
            <name>Scene - LJ visemes.571.png</name>
            <rate>
              <timebase>24</timebase>
              <ntsc>FALSE</ntsc>
            </rate>
            <media>
              <video>
                <track>
                  <clipitem frameBlend="FALSE" id="clipitem-574">
                    <name>Scene - LJ visemes.571.png</name>
                    <masterclipid>masterclip-573</masterclipid>
                    <rate>
                      <timebase>24</timebase>
                      <ntsc>FALSE</ntsc>
                    </rate>
                    <alphatype>straight</alphatype>
                    <pixelaspectratio>square</pixelaspectratio>
                    <anamorphic>FALSE</anamorphic>
                    <file id="file-573">
                      <name>Scene - LJ visemes.571.png</name>
                      <pathurl>file://localhost/Users/bot/Documents/CREATE/Character Animator/LJ visemes CH2AE/demo/Scene - LJ visemes/Scene - LJ visemes.571.png</pathurl>
                      <rate>
                        <timebase>24</timebase>
                        <ntsc>FALSE</ntsc>
                      </rate>
                      <duration>672</duration>
                      <timecode>
                        <rate>
                          <timebase>24</timebase>
                          <ntsc>FALSE</ntsc>
                        </rate>
                      </timecode>
                      <media>
                        <video>
                          <duration>1</duration>
                          <samplecharacteristics>
                            <anamorphic>FALSE</anamorphic>
                            <pixelaspectratio>square</pixelaspectratio>
                            <fielddominance>none</fielddominance>
                            <width>1920</width>
                            <height>1080</height>
                          </samplecharacteristics>
                        </video>
                      </media>
                    </file>
                  </clipitem>
                </track>
              </video>
            </media>
          </clip>
          <clip explodedTracks="true" frameBlend="FALSE" id="masterclip-574">
            <uuid>786b05b7-c24c-452a-b9e0-5072e7277195</uuid>
            <masterclipid>masterclip-574</masterclipid>
            <ismasterclip>TRUE</ismasterclip>
            <duration>672</duration>
            <in>0</in>
            <out>672</out>
            <name>Scene - LJ visemes.572.png</name>
            <rate>
              <timebase>24</timebase>
              <ntsc>FALSE</ntsc>
            </rate>
            <media>
              <video>
                <track>
                  <clipitem frameBlend="FALSE" id="clipitem-575">
                    <name>Scene - LJ visemes.572.png</name>
                    <masterclipid>masterclip-574</masterclipid>
                    <rate>
                      <timebase>24</timebase>
                      <ntsc>FALSE</ntsc>
                    </rate>
                    <alphatype>straight</alphatype>
                    <pixelaspectratio>square</pixelaspectratio>
                    <anamorphic>FALSE</anamorphic>
                    <file id="file-574">
                      <name>Scene - LJ visemes.572.png</name>
                      <pathurl>file://localhost/Users/bot/Documents/CREATE/Character Animator/LJ visemes CH2AE/demo/Scene - LJ visemes/Scene - LJ visemes.572.png</pathurl>
                      <rate>
                        <timebase>24</timebase>
                        <ntsc>FALSE</ntsc>
                      </rate>
                      <duration>672</duration>
                      <timecode>
                        <rate>
                          <timebase>24</timebase>
                          <ntsc>FALSE</ntsc>
                        </rate>
                      </timecode>
                      <media>
                        <video>
                          <duration>1</duration>
                          <samplecharacteristics>
                            <anamorphic>FALSE</anamorphic>
                            <pixelaspectratio>square</pixelaspectratio>
                            <fielddominance>none</fielddominance>
                            <width>1920</width>
                            <height>1080</height>
                          </samplecharacteristics>
                        </video>
                      </media>
                    </file>
                  </clipitem>
                </track>
              </video>
            </media>
          </clip>
          <clip explodedTracks="true" frameBlend="FALSE" id="masterclip-575">
            <uuid>dd071f8f-3f3e-4231-81d2-4b222211deba</uuid>
            <masterclipid>masterclip-575</masterclipid>
            <ismasterclip>TRUE</ismasterclip>
            <duration>672</duration>
            <in>0</in>
            <out>672</out>
            <name>Scene - LJ visemes.573.png</name>
            <rate>
              <timebase>24</timebase>
              <ntsc>FALSE</ntsc>
            </rate>
            <media>
              <video>
                <track>
                  <clipitem frameBlend="FALSE" id="clipitem-576">
                    <name>Scene - LJ visemes.573.png</name>
                    <masterclipid>masterclip-575</masterclipid>
                    <rate>
                      <timebase>24</timebase>
                      <ntsc>FALSE</ntsc>
                    </rate>
                    <alphatype>straight</alphatype>
                    <pixelaspectratio>square</pixelaspectratio>
                    <anamorphic>FALSE</anamorphic>
                    <file id="file-575">
                      <name>Scene - LJ visemes.573.png</name>
                      <pathurl>file://localhost/Users/bot/Documents/CREATE/Character Animator/LJ visemes CH2AE/demo/Scene - LJ visemes/Scene - LJ visemes.573.png</pathurl>
                      <rate>
                        <timebase>24</timebase>
                        <ntsc>FALSE</ntsc>
                      </rate>
                      <duration>672</duration>
                      <timecode>
                        <rate>
                          <timebase>24</timebase>
                          <ntsc>FALSE</ntsc>
                        </rate>
                      </timecode>
                      <media>
                        <video>
                          <duration>1</duration>
                          <samplecharacteristics>
                            <anamorphic>FALSE</anamorphic>
                            <pixelaspectratio>square</pixelaspectratio>
                            <fielddominance>none</fielddominance>
                            <width>1920</width>
                            <height>1080</height>
                          </samplecharacteristics>
                        </video>
                      </media>
                    </file>
                  </clipitem>
                </track>
              </video>
            </media>
          </clip>
          <clip explodedTracks="true" frameBlend="FALSE" id="masterclip-576">
            <uuid>229bf6e5-f327-415f-bcb5-0db596e88851</uuid>
            <masterclipid>masterclip-576</masterclipid>
            <ismasterclip>TRUE</ismasterclip>
            <duration>672</duration>
            <in>0</in>
            <out>672</out>
            <name>Scene - LJ visemes.574.png</name>
            <rate>
              <timebase>24</timebase>
              <ntsc>FALSE</ntsc>
            </rate>
            <media>
              <video>
                <track>
                  <clipitem frameBlend="FALSE" id="clipitem-577">
                    <name>Scene - LJ visemes.574.png</name>
                    <masterclipid>masterclip-576</masterclipid>
                    <rate>
                      <timebase>24</timebase>
                      <ntsc>FALSE</ntsc>
                    </rate>
                    <alphatype>straight</alphatype>
                    <pixelaspectratio>square</pixelaspectratio>
                    <anamorphic>FALSE</anamorphic>
                    <file id="file-576">
                      <name>Scene - LJ visemes.574.png</name>
                      <pathurl>file://localhost/Users/bot/Documents/CREATE/Character Animator/LJ visemes CH2AE/demo/Scene - LJ visemes/Scene - LJ visemes.574.png</pathurl>
                      <rate>
                        <timebase>24</timebase>
                        <ntsc>FALSE</ntsc>
                      </rate>
                      <duration>672</duration>
                      <timecode>
                        <rate>
                          <timebase>24</timebase>
                          <ntsc>FALSE</ntsc>
                        </rate>
                      </timecode>
                      <media>
                        <video>
                          <duration>1</duration>
                          <samplecharacteristics>
                            <anamorphic>FALSE</anamorphic>
                            <pixelaspectratio>square</pixelaspectratio>
                            <fielddominance>none</fielddominance>
                            <width>1920</width>
                            <height>1080</height>
                          </samplecharacteristics>
                        </video>
                      </media>
                    </file>
                  </clipitem>
                </track>
              </video>
            </media>
          </clip>
          <clip explodedTracks="true" frameBlend="FALSE" id="masterclip-577">
            <uuid>cb97b61a-0af1-4b62-ad17-c54cbc3daa15</uuid>
            <masterclipid>masterclip-577</masterclipid>
            <ismasterclip>TRUE</ismasterclip>
            <duration>672</duration>
            <in>0</in>
            <out>672</out>
            <name>Scene - LJ visemes.575.png</name>
            <rate>
              <timebase>24</timebase>
              <ntsc>FALSE</ntsc>
            </rate>
            <media>
              <video>
                <track>
                  <clipitem frameBlend="FALSE" id="clipitem-578">
                    <name>Scene - LJ visemes.575.png</name>
                    <masterclipid>masterclip-577</masterclipid>
                    <rate>
                      <timebase>24</timebase>
                      <ntsc>FALSE</ntsc>
                    </rate>
                    <alphatype>straight</alphatype>
                    <pixelaspectratio>square</pixelaspectratio>
                    <anamorphic>FALSE</anamorphic>
                    <file id="file-577">
                      <name>Scene - LJ visemes.575.png</name>
                      <pathurl>file://localhost/Users/bot/Documents/CREATE/Character Animator/LJ visemes CH2AE/demo/Scene - LJ visemes/Scene - LJ visemes.575.png</pathurl>
                      <rate>
                        <timebase>24</timebase>
                        <ntsc>FALSE</ntsc>
                      </rate>
                      <duration>672</duration>
                      <timecode>
                        <rate>
                          <timebase>24</timebase>
                          <ntsc>FALSE</ntsc>
                        </rate>
                      </timecode>
                      <media>
                        <video>
                          <duration>1</duration>
                          <samplecharacteristics>
                            <anamorphic>FALSE</anamorphic>
                            <pixelaspectratio>square</pixelaspectratio>
                            <fielddominance>none</fielddominance>
                            <width>1920</width>
                            <height>1080</height>
                          </samplecharacteristics>
                        </video>
                      </media>
                    </file>
                  </clipitem>
                </track>
              </video>
            </media>
          </clip>
          <clip explodedTracks="true" frameBlend="FALSE" id="masterclip-578">
            <uuid>9299551e-87ff-4e38-bbef-84f87e9fab13</uuid>
            <masterclipid>masterclip-578</masterclipid>
            <ismasterclip>TRUE</ismasterclip>
            <duration>672</duration>
            <in>0</in>
            <out>672</out>
            <name>Scene - LJ visemes.576.png</name>
            <rate>
              <timebase>24</timebase>
              <ntsc>FALSE</ntsc>
            </rate>
            <media>
              <video>
                <track>
                  <clipitem frameBlend="FALSE" id="clipitem-579">
                    <name>Scene - LJ visemes.576.png</name>
                    <masterclipid>masterclip-578</masterclipid>
                    <rate>
                      <timebase>24</timebase>
                      <ntsc>FALSE</ntsc>
                    </rate>
                    <alphatype>straight</alphatype>
                    <pixelaspectratio>square</pixelaspectratio>
                    <anamorphic>FALSE</anamorphic>
                    <file id="file-578">
                      <name>Scene - LJ visemes.576.png</name>
                      <pathurl>file://localhost/Users/bot/Documents/CREATE/Character Animator/LJ visemes CH2AE/demo/Scene - LJ visemes/Scene - LJ visemes.576.png</pathurl>
                      <rate>
                        <timebase>24</timebase>
                        <ntsc>FALSE</ntsc>
                      </rate>
                      <duration>672</duration>
                      <timecode>
                        <rate>
                          <timebase>24</timebase>
                          <ntsc>FALSE</ntsc>
                        </rate>
                      </timecode>
                      <media>
                        <video>
                          <duration>1</duration>
                          <samplecharacteristics>
                            <anamorphic>FALSE</anamorphic>
                            <pixelaspectratio>square</pixelaspectratio>
                            <fielddominance>none</fielddominance>
                            <width>1920</width>
                            <height>1080</height>
                          </samplecharacteristics>
                        </video>
                      </media>
                    </file>
                  </clipitem>
                </track>
              </video>
            </media>
          </clip>
          <clip explodedTracks="true" frameBlend="FALSE" id="masterclip-579">
            <uuid>1b390c20-a56d-4bb5-ac59-39f235cbc374</uuid>
            <masterclipid>masterclip-579</masterclipid>
            <ismasterclip>TRUE</ismasterclip>
            <duration>672</duration>
            <in>0</in>
            <out>672</out>
            <name>Scene - LJ visemes.577.png</name>
            <rate>
              <timebase>24</timebase>
              <ntsc>FALSE</ntsc>
            </rate>
            <media>
              <video>
                <track>
                  <clipitem frameBlend="FALSE" id="clipitem-580">
                    <name>Scene - LJ visemes.577.png</name>
                    <masterclipid>masterclip-579</masterclipid>
                    <rate>
                      <timebase>24</timebase>
                      <ntsc>FALSE</ntsc>
                    </rate>
                    <alphatype>straight</alphatype>
                    <pixelaspectratio>square</pixelaspectratio>
                    <anamorphic>FALSE</anamorphic>
                    <file id="file-579">
                      <name>Scene - LJ visemes.577.png</name>
                      <pathurl>file://localhost/Users/bot/Documents/CREATE/Character Animator/LJ visemes CH2AE/demo/Scene - LJ visemes/Scene - LJ visemes.577.png</pathurl>
                      <rate>
                        <timebase>24</timebase>
                        <ntsc>FALSE</ntsc>
                      </rate>
                      <duration>672</duration>
                      <timecode>
                        <rate>
                          <timebase>24</timebase>
                          <ntsc>FALSE</ntsc>
                        </rate>
                      </timecode>
                      <media>
                        <video>
                          <duration>1</duration>
                          <samplecharacteristics>
                            <anamorphic>FALSE</anamorphic>
                            <pixelaspectratio>square</pixelaspectratio>
                            <fielddominance>none</fielddominance>
                            <width>1920</width>
                            <height>1080</height>
                          </samplecharacteristics>
                        </video>
                      </media>
                    </file>
                  </clipitem>
                </track>
              </video>
            </media>
          </clip>
          <clip explodedTracks="true" frameBlend="FALSE" id="masterclip-580">
            <uuid>045e25aa-510d-44da-8534-6d553773878a</uuid>
            <masterclipid>masterclip-580</masterclipid>
            <ismasterclip>TRUE</ismasterclip>
            <duration>672</duration>
            <in>0</in>
            <out>672</out>
            <name>Scene - LJ visemes.578.png</name>
            <rate>
              <timebase>24</timebase>
              <ntsc>FALSE</ntsc>
            </rate>
            <media>
              <video>
                <track>
                  <clipitem frameBlend="FALSE" id="clipitem-581">
                    <name>Scene - LJ visemes.578.png</name>
                    <masterclipid>masterclip-580</masterclipid>
                    <rate>
                      <timebase>24</timebase>
                      <ntsc>FALSE</ntsc>
                    </rate>
                    <alphatype>straight</alphatype>
                    <pixelaspectratio>square</pixelaspectratio>
                    <anamorphic>FALSE</anamorphic>
                    <file id="file-580">
                      <name>Scene - LJ visemes.578.png</name>
                      <pathurl>file://localhost/Users/bot/Documents/CREATE/Character Animator/LJ visemes CH2AE/demo/Scene - LJ visemes/Scene - LJ visemes.578.png</pathurl>
                      <rate>
                        <timebase>24</timebase>
                        <ntsc>FALSE</ntsc>
                      </rate>
                      <duration>672</duration>
                      <timecode>
                        <rate>
                          <timebase>24</timebase>
                          <ntsc>FALSE</ntsc>
                        </rate>
                      </timecode>
                      <media>
                        <video>
                          <duration>1</duration>
                          <samplecharacteristics>
                            <anamorphic>FALSE</anamorphic>
                            <pixelaspectratio>square</pixelaspectratio>
                            <fielddominance>none</fielddominance>
                            <width>1920</width>
                            <height>1080</height>
                          </samplecharacteristics>
                        </video>
                      </media>
                    </file>
                  </clipitem>
                </track>
              </video>
            </media>
          </clip>
          <clip explodedTracks="true" frameBlend="FALSE" id="masterclip-581">
            <uuid>5e435b2c-3487-41cd-b4fb-b1d7007939cf</uuid>
            <masterclipid>masterclip-581</masterclipid>
            <ismasterclip>TRUE</ismasterclip>
            <duration>672</duration>
            <in>0</in>
            <out>672</out>
            <name>Scene - LJ visemes.579.png</name>
            <rate>
              <timebase>24</timebase>
              <ntsc>FALSE</ntsc>
            </rate>
            <media>
              <video>
                <track>
                  <clipitem frameBlend="FALSE" id="clipitem-582">
                    <name>Scene - LJ visemes.579.png</name>
                    <masterclipid>masterclip-581</masterclipid>
                    <rate>
                      <timebase>24</timebase>
                      <ntsc>FALSE</ntsc>
                    </rate>
                    <alphatype>straight</alphatype>
                    <pixelaspectratio>square</pixelaspectratio>
                    <anamorphic>FALSE</anamorphic>
                    <file id="file-581">
                      <name>Scene - LJ visemes.579.png</name>
                      <pathurl>file://localhost/Users/bot/Documents/CREATE/Character Animator/LJ visemes CH2AE/demo/Scene - LJ visemes/Scene - LJ visemes.579.png</pathurl>
                      <rate>
                        <timebase>24</timebase>
                        <ntsc>FALSE</ntsc>
                      </rate>
                      <duration>672</duration>
                      <timecode>
                        <rate>
                          <timebase>24</timebase>
                          <ntsc>FALSE</ntsc>
                        </rate>
                      </timecode>
                      <media>
                        <video>
                          <duration>1</duration>
                          <samplecharacteristics>
                            <anamorphic>FALSE</anamorphic>
                            <pixelaspectratio>square</pixelaspectratio>
                            <fielddominance>none</fielddominance>
                            <width>1920</width>
                            <height>1080</height>
                          </samplecharacteristics>
                        </video>
                      </media>
                    </file>
                  </clipitem>
                </track>
              </video>
            </media>
          </clip>
          <clip explodedTracks="true" frameBlend="FALSE" id="masterclip-582">
            <uuid>317d1479-afd2-4d80-af65-481ce19fc3e6</uuid>
            <masterclipid>masterclip-582</masterclipid>
            <ismasterclip>TRUE</ismasterclip>
            <duration>672</duration>
            <in>0</in>
            <out>672</out>
            <name>Scene - LJ visemes.580.png</name>
            <rate>
              <timebase>24</timebase>
              <ntsc>FALSE</ntsc>
            </rate>
            <media>
              <video>
                <track>
                  <clipitem frameBlend="FALSE" id="clipitem-583">
                    <name>Scene - LJ visemes.580.png</name>
                    <masterclipid>masterclip-582</masterclipid>
                    <rate>
                      <timebase>24</timebase>
                      <ntsc>FALSE</ntsc>
                    </rate>
                    <alphatype>straight</alphatype>
                    <pixelaspectratio>square</pixelaspectratio>
                    <anamorphic>FALSE</anamorphic>
                    <file id="file-582">
                      <name>Scene - LJ visemes.580.png</name>
                      <pathurl>file://localhost/Users/bot/Documents/CREATE/Character Animator/LJ visemes CH2AE/demo/Scene - LJ visemes/Scene - LJ visemes.580.png</pathurl>
                      <rate>
                        <timebase>24</timebase>
                        <ntsc>FALSE</ntsc>
                      </rate>
                      <duration>672</duration>
                      <timecode>
                        <rate>
                          <timebase>24</timebase>
                          <ntsc>FALSE</ntsc>
                        </rate>
                      </timecode>
                      <media>
                        <video>
                          <duration>1</duration>
                          <samplecharacteristics>
                            <anamorphic>FALSE</anamorphic>
                            <pixelaspectratio>square</pixelaspectratio>
                            <fielddominance>none</fielddominance>
                            <width>1920</width>
                            <height>1080</height>
                          </samplecharacteristics>
                        </video>
                      </media>
                    </file>
                  </clipitem>
                </track>
              </video>
            </media>
          </clip>
          <clip explodedTracks="true" frameBlend="FALSE" id="masterclip-583">
            <uuid>a784f8d5-5e4a-49e0-a48a-fe592a4ababd</uuid>
            <masterclipid>masterclip-583</masterclipid>
            <ismasterclip>TRUE</ismasterclip>
            <duration>672</duration>
            <in>0</in>
            <out>672</out>
            <name>Scene - LJ visemes.581.png</name>
            <rate>
              <timebase>24</timebase>
              <ntsc>FALSE</ntsc>
            </rate>
            <media>
              <video>
                <track>
                  <clipitem frameBlend="FALSE" id="clipitem-584">
                    <name>Scene - LJ visemes.581.png</name>
                    <masterclipid>masterclip-583</masterclipid>
                    <rate>
                      <timebase>24</timebase>
                      <ntsc>FALSE</ntsc>
                    </rate>
                    <alphatype>straight</alphatype>
                    <pixelaspectratio>square</pixelaspectratio>
                    <anamorphic>FALSE</anamorphic>
                    <file id="file-583">
                      <name>Scene - LJ visemes.581.png</name>
                      <pathurl>file://localhost/Users/bot/Documents/CREATE/Character Animator/LJ visemes CH2AE/demo/Scene - LJ visemes/Scene - LJ visemes.581.png</pathurl>
                      <rate>
                        <timebase>24</timebase>
                        <ntsc>FALSE</ntsc>
                      </rate>
                      <duration>672</duration>
                      <timecode>
                        <rate>
                          <timebase>24</timebase>
                          <ntsc>FALSE</ntsc>
                        </rate>
                      </timecode>
                      <media>
                        <video>
                          <duration>1</duration>
                          <samplecharacteristics>
                            <anamorphic>FALSE</anamorphic>
                            <pixelaspectratio>square</pixelaspectratio>
                            <fielddominance>none</fielddominance>
                            <width>1920</width>
                            <height>1080</height>
                          </samplecharacteristics>
                        </video>
                      </media>
                    </file>
                  </clipitem>
                </track>
              </video>
            </media>
          </clip>
          <clip explodedTracks="true" frameBlend="FALSE" id="masterclip-584">
            <uuid>ba235376-4f97-4cc2-9623-20699025e121</uuid>
            <masterclipid>masterclip-584</masterclipid>
            <ismasterclip>TRUE</ismasterclip>
            <duration>672</duration>
            <in>0</in>
            <out>672</out>
            <name>Scene - LJ visemes.582.png</name>
            <rate>
              <timebase>24</timebase>
              <ntsc>FALSE</ntsc>
            </rate>
            <media>
              <video>
                <track>
                  <clipitem frameBlend="FALSE" id="clipitem-585">
                    <name>Scene - LJ visemes.582.png</name>
                    <masterclipid>masterclip-584</masterclipid>
                    <rate>
                      <timebase>24</timebase>
                      <ntsc>FALSE</ntsc>
                    </rate>
                    <alphatype>straight</alphatype>
                    <pixelaspectratio>square</pixelaspectratio>
                    <anamorphic>FALSE</anamorphic>
                    <file id="file-584">
                      <name>Scene - LJ visemes.582.png</name>
                      <pathurl>file://localhost/Users/bot/Documents/CREATE/Character Animator/LJ visemes CH2AE/demo/Scene - LJ visemes/Scene - LJ visemes.582.png</pathurl>
                      <rate>
                        <timebase>24</timebase>
                        <ntsc>FALSE</ntsc>
                      </rate>
                      <duration>672</duration>
                      <timecode>
                        <rate>
                          <timebase>24</timebase>
                          <ntsc>FALSE</ntsc>
                        </rate>
                      </timecode>
                      <media>
                        <video>
                          <duration>1</duration>
                          <samplecharacteristics>
                            <anamorphic>FALSE</anamorphic>
                            <pixelaspectratio>square</pixelaspectratio>
                            <fielddominance>none</fielddominance>
                            <width>1920</width>
                            <height>1080</height>
                          </samplecharacteristics>
                        </video>
                      </media>
                    </file>
                  </clipitem>
                </track>
              </video>
            </media>
          </clip>
          <clip explodedTracks="true" frameBlend="FALSE" id="masterclip-585">
            <uuid>53dba69c-894f-4068-9ac8-5a21fd84aaf5</uuid>
            <masterclipid>masterclip-585</masterclipid>
            <ismasterclip>TRUE</ismasterclip>
            <duration>672</duration>
            <in>0</in>
            <out>672</out>
            <name>Scene - LJ visemes.583.png</name>
            <rate>
              <timebase>24</timebase>
              <ntsc>FALSE</ntsc>
            </rate>
            <media>
              <video>
                <track>
                  <clipitem frameBlend="FALSE" id="clipitem-586">
                    <name>Scene - LJ visemes.583.png</name>
                    <masterclipid>masterclip-585</masterclipid>
                    <rate>
                      <timebase>24</timebase>
                      <ntsc>FALSE</ntsc>
                    </rate>
                    <alphatype>straight</alphatype>
                    <pixelaspectratio>square</pixelaspectratio>
                    <anamorphic>FALSE</anamorphic>
                    <file id="file-585">
                      <name>Scene - LJ visemes.583.png</name>
                      <pathurl>file://localhost/Users/bot/Documents/CREATE/Character Animator/LJ visemes CH2AE/demo/Scene - LJ visemes/Scene - LJ visemes.583.png</pathurl>
                      <rate>
                        <timebase>24</timebase>
                        <ntsc>FALSE</ntsc>
                      </rate>
                      <duration>672</duration>
                      <timecode>
                        <rate>
                          <timebase>24</timebase>
                          <ntsc>FALSE</ntsc>
                        </rate>
                      </timecode>
                      <media>
                        <video>
                          <duration>1</duration>
                          <samplecharacteristics>
                            <anamorphic>FALSE</anamorphic>
                            <pixelaspectratio>square</pixelaspectratio>
                            <fielddominance>none</fielddominance>
                            <width>1920</width>
                            <height>1080</height>
                          </samplecharacteristics>
                        </video>
                      </media>
                    </file>
                  </clipitem>
                </track>
              </video>
            </media>
          </clip>
          <clip explodedTracks="true" frameBlend="FALSE" id="masterclip-586">
            <uuid>3436c7b9-bbd1-4506-9a1b-097291fb1dc6</uuid>
            <masterclipid>masterclip-586</masterclipid>
            <ismasterclip>TRUE</ismasterclip>
            <duration>672</duration>
            <in>0</in>
            <out>672</out>
            <name>Scene - LJ visemes.584.png</name>
            <rate>
              <timebase>24</timebase>
              <ntsc>FALSE</ntsc>
            </rate>
            <media>
              <video>
                <track>
                  <clipitem frameBlend="FALSE" id="clipitem-587">
                    <name>Scene - LJ visemes.584.png</name>
                    <masterclipid>masterclip-586</masterclipid>
                    <rate>
                      <timebase>24</timebase>
                      <ntsc>FALSE</ntsc>
                    </rate>
                    <alphatype>straight</alphatype>
                    <pixelaspectratio>square</pixelaspectratio>
                    <anamorphic>FALSE</anamorphic>
                    <file id="file-586">
                      <name>Scene - LJ visemes.584.png</name>
                      <pathurl>file://localhost/Users/bot/Documents/CREATE/Character Animator/LJ visemes CH2AE/demo/Scene - LJ visemes/Scene - LJ visemes.584.png</pathurl>
                      <rate>
                        <timebase>24</timebase>
                        <ntsc>FALSE</ntsc>
                      </rate>
                      <duration>672</duration>
                      <timecode>
                        <rate>
                          <timebase>24</timebase>
                          <ntsc>FALSE</ntsc>
                        </rate>
                      </timecode>
                      <media>
                        <video>
                          <duration>1</duration>
                          <samplecharacteristics>
                            <anamorphic>FALSE</anamorphic>
                            <pixelaspectratio>square</pixelaspectratio>
                            <fielddominance>none</fielddominance>
                            <width>1920</width>
                            <height>1080</height>
                          </samplecharacteristics>
                        </video>
                      </media>
                    </file>
                  </clipitem>
                </track>
              </video>
            </media>
          </clip>
          <clip explodedTracks="true" frameBlend="FALSE" id="masterclip-587">
            <uuid>692f3113-a5b4-4a7e-991e-5c7606e18b4d</uuid>
            <masterclipid>masterclip-587</masterclipid>
            <ismasterclip>TRUE</ismasterclip>
            <duration>672</duration>
            <in>0</in>
            <out>672</out>
            <name>Scene - LJ visemes.585.png</name>
            <rate>
              <timebase>24</timebase>
              <ntsc>FALSE</ntsc>
            </rate>
            <media>
              <video>
                <track>
                  <clipitem frameBlend="FALSE" id="clipitem-588">
                    <name>Scene - LJ visemes.585.png</name>
                    <masterclipid>masterclip-587</masterclipid>
                    <rate>
                      <timebase>24</timebase>
                      <ntsc>FALSE</ntsc>
                    </rate>
                    <alphatype>straight</alphatype>
                    <pixelaspectratio>square</pixelaspectratio>
                    <anamorphic>FALSE</anamorphic>
                    <file id="file-587">
                      <name>Scene - LJ visemes.585.png</name>
                      <pathurl>file://localhost/Users/bot/Documents/CREATE/Character Animator/LJ visemes CH2AE/demo/Scene - LJ visemes/Scene - LJ visemes.585.png</pathurl>
                      <rate>
                        <timebase>24</timebase>
                        <ntsc>FALSE</ntsc>
                      </rate>
                      <duration>672</duration>
                      <timecode>
                        <rate>
                          <timebase>24</timebase>
                          <ntsc>FALSE</ntsc>
                        </rate>
                      </timecode>
                      <media>
                        <video>
                          <duration>1</duration>
                          <samplecharacteristics>
                            <anamorphic>FALSE</anamorphic>
                            <pixelaspectratio>square</pixelaspectratio>
                            <fielddominance>none</fielddominance>
                            <width>1920</width>
                            <height>1080</height>
                          </samplecharacteristics>
                        </video>
                      </media>
                    </file>
                  </clipitem>
                </track>
              </video>
            </media>
          </clip>
          <clip explodedTracks="true" frameBlend="FALSE" id="masterclip-588">
            <uuid>1ff22989-720a-41ec-accf-150cbddd5801</uuid>
            <masterclipid>masterclip-588</masterclipid>
            <ismasterclip>TRUE</ismasterclip>
            <duration>672</duration>
            <in>0</in>
            <out>672</out>
            <name>Scene - LJ visemes.586.png</name>
            <rate>
              <timebase>24</timebase>
              <ntsc>FALSE</ntsc>
            </rate>
            <media>
              <video>
                <track>
                  <clipitem frameBlend="FALSE" id="clipitem-589">
                    <name>Scene - LJ visemes.586.png</name>
                    <masterclipid>masterclip-588</masterclipid>
                    <rate>
                      <timebase>24</timebase>
                      <ntsc>FALSE</ntsc>
                    </rate>
                    <alphatype>straight</alphatype>
                    <pixelaspectratio>square</pixelaspectratio>
                    <anamorphic>FALSE</anamorphic>
                    <file id="file-588">
                      <name>Scene - LJ visemes.586.png</name>
                      <pathurl>file://localhost/Users/bot/Documents/CREATE/Character Animator/LJ visemes CH2AE/demo/Scene - LJ visemes/Scene - LJ visemes.586.png</pathurl>
                      <rate>
                        <timebase>24</timebase>
                        <ntsc>FALSE</ntsc>
                      </rate>
                      <duration>672</duration>
                      <timecode>
                        <rate>
                          <timebase>24</timebase>
                          <ntsc>FALSE</ntsc>
                        </rate>
                      </timecode>
                      <media>
                        <video>
                          <duration>1</duration>
                          <samplecharacteristics>
                            <anamorphic>FALSE</anamorphic>
                            <pixelaspectratio>square</pixelaspectratio>
                            <fielddominance>none</fielddominance>
                            <width>1920</width>
                            <height>1080</height>
                          </samplecharacteristics>
                        </video>
                      </media>
                    </file>
                  </clipitem>
                </track>
              </video>
            </media>
          </clip>
          <clip explodedTracks="true" frameBlend="FALSE" id="masterclip-589">
            <uuid>59fe233d-3b81-4738-a2b1-b7b9eb282c31</uuid>
            <masterclipid>masterclip-589</masterclipid>
            <ismasterclip>TRUE</ismasterclip>
            <duration>672</duration>
            <in>0</in>
            <out>672</out>
            <name>Scene - LJ visemes.587.png</name>
            <rate>
              <timebase>24</timebase>
              <ntsc>FALSE</ntsc>
            </rate>
            <media>
              <video>
                <track>
                  <clipitem frameBlend="FALSE" id="clipitem-590">
                    <name>Scene - LJ visemes.587.png</name>
                    <masterclipid>masterclip-589</masterclipid>
                    <rate>
                      <timebase>24</timebase>
                      <ntsc>FALSE</ntsc>
                    </rate>
                    <alphatype>straight</alphatype>
                    <pixelaspectratio>square</pixelaspectratio>
                    <anamorphic>FALSE</anamorphic>
                    <file id="file-589">
                      <name>Scene - LJ visemes.587.png</name>
                      <pathurl>file://localhost/Users/bot/Documents/CREATE/Character Animator/LJ visemes CH2AE/demo/Scene - LJ visemes/Scene - LJ visemes.587.png</pathurl>
                      <rate>
                        <timebase>24</timebase>
                        <ntsc>FALSE</ntsc>
                      </rate>
                      <duration>672</duration>
                      <timecode>
                        <rate>
                          <timebase>24</timebase>
                          <ntsc>FALSE</ntsc>
                        </rate>
                      </timecode>
                      <media>
                        <video>
                          <duration>1</duration>
                          <samplecharacteristics>
                            <anamorphic>FALSE</anamorphic>
                            <pixelaspectratio>square</pixelaspectratio>
                            <fielddominance>none</fielddominance>
                            <width>1920</width>
                            <height>1080</height>
                          </samplecharacteristics>
                        </video>
                      </media>
                    </file>
                  </clipitem>
                </track>
              </video>
            </media>
          </clip>
          <clip explodedTracks="true" frameBlend="FALSE" id="masterclip-590">
            <uuid>49ad4b5e-0d6a-4c4d-a19b-eac3a43ea623</uuid>
            <masterclipid>masterclip-590</masterclipid>
            <ismasterclip>TRUE</ismasterclip>
            <duration>672</duration>
            <in>0</in>
            <out>672</out>
            <name>Scene - LJ visemes.588.png</name>
            <rate>
              <timebase>24</timebase>
              <ntsc>FALSE</ntsc>
            </rate>
            <media>
              <video>
                <track>
                  <clipitem frameBlend="FALSE" id="clipitem-591">
                    <name>Scene - LJ visemes.588.png</name>
                    <masterclipid>masterclip-590</masterclipid>
                    <rate>
                      <timebase>24</timebase>
                      <ntsc>FALSE</ntsc>
                    </rate>
                    <alphatype>straight</alphatype>
                    <pixelaspectratio>square</pixelaspectratio>
                    <anamorphic>FALSE</anamorphic>
                    <file id="file-590">
                      <name>Scene - LJ visemes.588.png</name>
                      <pathurl>file://localhost/Users/bot/Documents/CREATE/Character Animator/LJ visemes CH2AE/demo/Scene - LJ visemes/Scene - LJ visemes.588.png</pathurl>
                      <rate>
                        <timebase>24</timebase>
                        <ntsc>FALSE</ntsc>
                      </rate>
                      <duration>672</duration>
                      <timecode>
                        <rate>
                          <timebase>24</timebase>
                          <ntsc>FALSE</ntsc>
                        </rate>
                      </timecode>
                      <media>
                        <video>
                          <duration>1</duration>
                          <samplecharacteristics>
                            <anamorphic>FALSE</anamorphic>
                            <pixelaspectratio>square</pixelaspectratio>
                            <fielddominance>none</fielddominance>
                            <width>1920</width>
                            <height>1080</height>
                          </samplecharacteristics>
                        </video>
                      </media>
                    </file>
                  </clipitem>
                </track>
              </video>
            </media>
          </clip>
          <clip explodedTracks="true" frameBlend="FALSE" id="masterclip-591">
            <uuid>992ee581-f8f9-4053-9f82-bcda7408dfc7</uuid>
            <masterclipid>masterclip-591</masterclipid>
            <ismasterclip>TRUE</ismasterclip>
            <duration>672</duration>
            <in>0</in>
            <out>672</out>
            <name>Scene - LJ visemes.589.png</name>
            <rate>
              <timebase>24</timebase>
              <ntsc>FALSE</ntsc>
            </rate>
            <media>
              <video>
                <track>
                  <clipitem frameBlend="FALSE" id="clipitem-592">
                    <name>Scene - LJ visemes.589.png</name>
                    <masterclipid>masterclip-591</masterclipid>
                    <rate>
                      <timebase>24</timebase>
                      <ntsc>FALSE</ntsc>
                    </rate>
                    <alphatype>straight</alphatype>
                    <pixelaspectratio>square</pixelaspectratio>
                    <anamorphic>FALSE</anamorphic>
                    <file id="file-591">
                      <name>Scene - LJ visemes.589.png</name>
                      <pathurl>file://localhost/Users/bot/Documents/CREATE/Character Animator/LJ visemes CH2AE/demo/Scene - LJ visemes/Scene - LJ visemes.589.png</pathurl>
                      <rate>
                        <timebase>24</timebase>
                        <ntsc>FALSE</ntsc>
                      </rate>
                      <duration>672</duration>
                      <timecode>
                        <rate>
                          <timebase>24</timebase>
                          <ntsc>FALSE</ntsc>
                        </rate>
                      </timecode>
                      <media>
                        <video>
                          <duration>1</duration>
                          <samplecharacteristics>
                            <anamorphic>FALSE</anamorphic>
                            <pixelaspectratio>square</pixelaspectratio>
                            <fielddominance>none</fielddominance>
                            <width>1920</width>
                            <height>1080</height>
                          </samplecharacteristics>
                        </video>
                      </media>
                    </file>
                  </clipitem>
                </track>
              </video>
            </media>
          </clip>
          <clip explodedTracks="true" frameBlend="FALSE" id="masterclip-592">
            <uuid>36741e6c-6354-49b5-a55a-ee02ea2fca35</uuid>
            <masterclipid>masterclip-592</masterclipid>
            <ismasterclip>TRUE</ismasterclip>
            <duration>672</duration>
            <in>0</in>
            <out>672</out>
            <name>Scene - LJ visemes.590.png</name>
            <rate>
              <timebase>24</timebase>
              <ntsc>FALSE</ntsc>
            </rate>
            <media>
              <video>
                <track>
                  <clipitem frameBlend="FALSE" id="clipitem-593">
                    <name>Scene - LJ visemes.590.png</name>
                    <masterclipid>masterclip-592</masterclipid>
                    <rate>
                      <timebase>24</timebase>
                      <ntsc>FALSE</ntsc>
                    </rate>
                    <alphatype>straight</alphatype>
                    <pixelaspectratio>square</pixelaspectratio>
                    <anamorphic>FALSE</anamorphic>
                    <file id="file-592">
                      <name>Scene - LJ visemes.590.png</name>
                      <pathurl>file://localhost/Users/bot/Documents/CREATE/Character Animator/LJ visemes CH2AE/demo/Scene - LJ visemes/Scene - LJ visemes.590.png</pathurl>
                      <rate>
                        <timebase>24</timebase>
                        <ntsc>FALSE</ntsc>
                      </rate>
                      <duration>672</duration>
                      <timecode>
                        <rate>
                          <timebase>24</timebase>
                          <ntsc>FALSE</ntsc>
                        </rate>
                      </timecode>
                      <media>
                        <video>
                          <duration>1</duration>
                          <samplecharacteristics>
                            <anamorphic>FALSE</anamorphic>
                            <pixelaspectratio>square</pixelaspectratio>
                            <fielddominance>none</fielddominance>
                            <width>1920</width>
                            <height>1080</height>
                          </samplecharacteristics>
                        </video>
                      </media>
                    </file>
                  </clipitem>
                </track>
              </video>
            </media>
          </clip>
          <clip explodedTracks="true" frameBlend="FALSE" id="masterclip-593">
            <uuid>c0ba386b-5193-4599-b75e-870dd38e8f03</uuid>
            <masterclipid>masterclip-593</masterclipid>
            <ismasterclip>TRUE</ismasterclip>
            <duration>672</duration>
            <in>0</in>
            <out>672</out>
            <name>Scene - LJ visemes.591.png</name>
            <rate>
              <timebase>24</timebase>
              <ntsc>FALSE</ntsc>
            </rate>
            <media>
              <video>
                <track>
                  <clipitem frameBlend="FALSE" id="clipitem-594">
                    <name>Scene - LJ visemes.591.png</name>
                    <masterclipid>masterclip-593</masterclipid>
                    <rate>
                      <timebase>24</timebase>
                      <ntsc>FALSE</ntsc>
                    </rate>
                    <alphatype>straight</alphatype>
                    <pixelaspectratio>square</pixelaspectratio>
                    <anamorphic>FALSE</anamorphic>
                    <file id="file-593">
                      <name>Scene - LJ visemes.591.png</name>
                      <pathurl>file://localhost/Users/bot/Documents/CREATE/Character Animator/LJ visemes CH2AE/demo/Scene - LJ visemes/Scene - LJ visemes.591.png</pathurl>
                      <rate>
                        <timebase>24</timebase>
                        <ntsc>FALSE</ntsc>
                      </rate>
                      <duration>672</duration>
                      <timecode>
                        <rate>
                          <timebase>24</timebase>
                          <ntsc>FALSE</ntsc>
                        </rate>
                      </timecode>
                      <media>
                        <video>
                          <duration>1</duration>
                          <samplecharacteristics>
                            <anamorphic>FALSE</anamorphic>
                            <pixelaspectratio>square</pixelaspectratio>
                            <fielddominance>none</fielddominance>
                            <width>1920</width>
                            <height>1080</height>
                          </samplecharacteristics>
                        </video>
                      </media>
                    </file>
                  </clipitem>
                </track>
              </video>
            </media>
          </clip>
          <clip explodedTracks="true" frameBlend="FALSE" id="masterclip-594">
            <uuid>0a3448df-7169-4e2f-9498-d5998b845ecc</uuid>
            <masterclipid>masterclip-594</masterclipid>
            <ismasterclip>TRUE</ismasterclip>
            <duration>672</duration>
            <in>0</in>
            <out>672</out>
            <name>Scene - LJ visemes.592.png</name>
            <rate>
              <timebase>24</timebase>
              <ntsc>FALSE</ntsc>
            </rate>
            <media>
              <video>
                <track>
                  <clipitem frameBlend="FALSE" id="clipitem-595">
                    <name>Scene - LJ visemes.592.png</name>
                    <masterclipid>masterclip-594</masterclipid>
                    <rate>
                      <timebase>24</timebase>
                      <ntsc>FALSE</ntsc>
                    </rate>
                    <alphatype>straight</alphatype>
                    <pixelaspectratio>square</pixelaspectratio>
                    <anamorphic>FALSE</anamorphic>
                    <file id="file-594">
                      <name>Scene - LJ visemes.592.png</name>
                      <pathurl>file://localhost/Users/bot/Documents/CREATE/Character Animator/LJ visemes CH2AE/demo/Scene - LJ visemes/Scene - LJ visemes.592.png</pathurl>
                      <rate>
                        <timebase>24</timebase>
                        <ntsc>FALSE</ntsc>
                      </rate>
                      <duration>672</duration>
                      <timecode>
                        <rate>
                          <timebase>24</timebase>
                          <ntsc>FALSE</ntsc>
                        </rate>
                      </timecode>
                      <media>
                        <video>
                          <duration>1</duration>
                          <samplecharacteristics>
                            <anamorphic>FALSE</anamorphic>
                            <pixelaspectratio>square</pixelaspectratio>
                            <fielddominance>none</fielddominance>
                            <width>1920</width>
                            <height>1080</height>
                          </samplecharacteristics>
                        </video>
                      </media>
                    </file>
                  </clipitem>
                </track>
              </video>
            </media>
          </clip>
          <clip explodedTracks="true" frameBlend="FALSE" id="masterclip-595">
            <uuid>13c78933-7163-4cb6-abcb-1da34b1ef37c</uuid>
            <masterclipid>masterclip-595</masterclipid>
            <ismasterclip>TRUE</ismasterclip>
            <duration>672</duration>
            <in>0</in>
            <out>672</out>
            <name>Scene - LJ visemes.593.png</name>
            <rate>
              <timebase>24</timebase>
              <ntsc>FALSE</ntsc>
            </rate>
            <media>
              <video>
                <track>
                  <clipitem frameBlend="FALSE" id="clipitem-596">
                    <name>Scene - LJ visemes.593.png</name>
                    <masterclipid>masterclip-595</masterclipid>
                    <rate>
                      <timebase>24</timebase>
                      <ntsc>FALSE</ntsc>
                    </rate>
                    <alphatype>straight</alphatype>
                    <pixelaspectratio>square</pixelaspectratio>
                    <anamorphic>FALSE</anamorphic>
                    <file id="file-595">
                      <name>Scene - LJ visemes.593.png</name>
                      <pathurl>file://localhost/Users/bot/Documents/CREATE/Character Animator/LJ visemes CH2AE/demo/Scene - LJ visemes/Scene - LJ visemes.593.png</pathurl>
                      <rate>
                        <timebase>24</timebase>
                        <ntsc>FALSE</ntsc>
                      </rate>
                      <duration>672</duration>
                      <timecode>
                        <rate>
                          <timebase>24</timebase>
                          <ntsc>FALSE</ntsc>
                        </rate>
                      </timecode>
                      <media>
                        <video>
                          <duration>1</duration>
                          <samplecharacteristics>
                            <anamorphic>FALSE</anamorphic>
                            <pixelaspectratio>square</pixelaspectratio>
                            <fielddominance>none</fielddominance>
                            <width>1920</width>
                            <height>1080</height>
                          </samplecharacteristics>
                        </video>
                      </media>
                    </file>
                  </clipitem>
                </track>
              </video>
            </media>
          </clip>
          <clip explodedTracks="true" frameBlend="FALSE" id="masterclip-596">
            <uuid>d985e6ce-68b1-4f41-a2b1-0bc8f7065923</uuid>
            <masterclipid>masterclip-596</masterclipid>
            <ismasterclip>TRUE</ismasterclip>
            <duration>672</duration>
            <in>0</in>
            <out>672</out>
            <name>Scene - LJ visemes.594.png</name>
            <rate>
              <timebase>24</timebase>
              <ntsc>FALSE</ntsc>
            </rate>
            <media>
              <video>
                <track>
                  <clipitem frameBlend="FALSE" id="clipitem-597">
                    <name>Scene - LJ visemes.594.png</name>
                    <masterclipid>masterclip-596</masterclipid>
                    <rate>
                      <timebase>24</timebase>
                      <ntsc>FALSE</ntsc>
                    </rate>
                    <alphatype>straight</alphatype>
                    <pixelaspectratio>square</pixelaspectratio>
                    <anamorphic>FALSE</anamorphic>
                    <file id="file-596">
                      <name>Scene - LJ visemes.594.png</name>
                      <pathurl>file://localhost/Users/bot/Documents/CREATE/Character Animator/LJ visemes CH2AE/demo/Scene - LJ visemes/Scene - LJ visemes.594.png</pathurl>
                      <rate>
                        <timebase>24</timebase>
                        <ntsc>FALSE</ntsc>
                      </rate>
                      <duration>672</duration>
                      <timecode>
                        <rate>
                          <timebase>24</timebase>
                          <ntsc>FALSE</ntsc>
                        </rate>
                      </timecode>
                      <media>
                        <video>
                          <duration>1</duration>
                          <samplecharacteristics>
                            <anamorphic>FALSE</anamorphic>
                            <pixelaspectratio>square</pixelaspectratio>
                            <fielddominance>none</fielddominance>
                            <width>1920</width>
                            <height>1080</height>
                          </samplecharacteristics>
                        </video>
                      </media>
                    </file>
                  </clipitem>
                </track>
              </video>
            </media>
          </clip>
          <clip explodedTracks="true" frameBlend="FALSE" id="masterclip-597">
            <uuid>4b4707d9-08dc-4446-b2af-321d8850785e</uuid>
            <masterclipid>masterclip-597</masterclipid>
            <ismasterclip>TRUE</ismasterclip>
            <duration>672</duration>
            <in>0</in>
            <out>672</out>
            <name>Scene - LJ visemes.595.png</name>
            <rate>
              <timebase>24</timebase>
              <ntsc>FALSE</ntsc>
            </rate>
            <media>
              <video>
                <track>
                  <clipitem frameBlend="FALSE" id="clipitem-598">
                    <name>Scene - LJ visemes.595.png</name>
                    <masterclipid>masterclip-597</masterclipid>
                    <rate>
                      <timebase>24</timebase>
                      <ntsc>FALSE</ntsc>
                    </rate>
                    <alphatype>straight</alphatype>
                    <pixelaspectratio>square</pixelaspectratio>
                    <anamorphic>FALSE</anamorphic>
                    <file id="file-597">
                      <name>Scene - LJ visemes.595.png</name>
                      <pathurl>file://localhost/Users/bot/Documents/CREATE/Character Animator/LJ visemes CH2AE/demo/Scene - LJ visemes/Scene - LJ visemes.595.png</pathurl>
                      <rate>
                        <timebase>24</timebase>
                        <ntsc>FALSE</ntsc>
                      </rate>
                      <duration>672</duration>
                      <timecode>
                        <rate>
                          <timebase>24</timebase>
                          <ntsc>FALSE</ntsc>
                        </rate>
                      </timecode>
                      <media>
                        <video>
                          <duration>1</duration>
                          <samplecharacteristics>
                            <anamorphic>FALSE</anamorphic>
                            <pixelaspectratio>square</pixelaspectratio>
                            <fielddominance>none</fielddominance>
                            <width>1920</width>
                            <height>1080</height>
                          </samplecharacteristics>
                        </video>
                      </media>
                    </file>
                  </clipitem>
                </track>
              </video>
            </media>
          </clip>
          <clip explodedTracks="true" frameBlend="FALSE" id="masterclip-598">
            <uuid>55a2fe4c-a9f1-4708-9b34-203dc51fcfba</uuid>
            <masterclipid>masterclip-598</masterclipid>
            <ismasterclip>TRUE</ismasterclip>
            <duration>672</duration>
            <in>0</in>
            <out>672</out>
            <name>Scene - LJ visemes.596.png</name>
            <rate>
              <timebase>24</timebase>
              <ntsc>FALSE</ntsc>
            </rate>
            <media>
              <video>
                <track>
                  <clipitem frameBlend="FALSE" id="clipitem-599">
                    <name>Scene - LJ visemes.596.png</name>
                    <masterclipid>masterclip-598</masterclipid>
                    <rate>
                      <timebase>24</timebase>
                      <ntsc>FALSE</ntsc>
                    </rate>
                    <alphatype>straight</alphatype>
                    <pixelaspectratio>square</pixelaspectratio>
                    <anamorphic>FALSE</anamorphic>
                    <file id="file-598">
                      <name>Scene - LJ visemes.596.png</name>
                      <pathurl>file://localhost/Users/bot/Documents/CREATE/Character Animator/LJ visemes CH2AE/demo/Scene - LJ visemes/Scene - LJ visemes.596.png</pathurl>
                      <rate>
                        <timebase>24</timebase>
                        <ntsc>FALSE</ntsc>
                      </rate>
                      <duration>672</duration>
                      <timecode>
                        <rate>
                          <timebase>24</timebase>
                          <ntsc>FALSE</ntsc>
                        </rate>
                      </timecode>
                      <media>
                        <video>
                          <duration>1</duration>
                          <samplecharacteristics>
                            <anamorphic>FALSE</anamorphic>
                            <pixelaspectratio>square</pixelaspectratio>
                            <fielddominance>none</fielddominance>
                            <width>1920</width>
                            <height>1080</height>
                          </samplecharacteristics>
                        </video>
                      </media>
                    </file>
                  </clipitem>
                </track>
              </video>
            </media>
          </clip>
          <clip explodedTracks="true" frameBlend="FALSE" id="masterclip-599">
            <uuid>b1c2e921-a5e0-4a3b-a29f-8fb87467b9cc</uuid>
            <masterclipid>masterclip-599</masterclipid>
            <ismasterclip>TRUE</ismasterclip>
            <duration>672</duration>
            <in>0</in>
            <out>672</out>
            <name>Scene - LJ visemes.597.png</name>
            <rate>
              <timebase>24</timebase>
              <ntsc>FALSE</ntsc>
            </rate>
            <media>
              <video>
                <track>
                  <clipitem frameBlend="FALSE" id="clipitem-600">
                    <name>Scene - LJ visemes.597.png</name>
                    <masterclipid>masterclip-599</masterclipid>
                    <rate>
                      <timebase>24</timebase>
                      <ntsc>FALSE</ntsc>
                    </rate>
                    <alphatype>straight</alphatype>
                    <pixelaspectratio>square</pixelaspectratio>
                    <anamorphic>FALSE</anamorphic>
                    <file id="file-599">
                      <name>Scene - LJ visemes.597.png</name>
                      <pathurl>file://localhost/Users/bot/Documents/CREATE/Character Animator/LJ visemes CH2AE/demo/Scene - LJ visemes/Scene - LJ visemes.597.png</pathurl>
                      <rate>
                        <timebase>24</timebase>
                        <ntsc>FALSE</ntsc>
                      </rate>
                      <duration>672</duration>
                      <timecode>
                        <rate>
                          <timebase>24</timebase>
                          <ntsc>FALSE</ntsc>
                        </rate>
                      </timecode>
                      <media>
                        <video>
                          <duration>1</duration>
                          <samplecharacteristics>
                            <anamorphic>FALSE</anamorphic>
                            <pixelaspectratio>square</pixelaspectratio>
                            <fielddominance>none</fielddominance>
                            <width>1920</width>
                            <height>1080</height>
                          </samplecharacteristics>
                        </video>
                      </media>
                    </file>
                  </clipitem>
                </track>
              </video>
            </media>
          </clip>
          <clip explodedTracks="true" frameBlend="FALSE" id="masterclip-600">
            <uuid>296e346a-ef98-4a77-b1c5-8f4171a4453b</uuid>
            <masterclipid>masterclip-600</masterclipid>
            <ismasterclip>TRUE</ismasterclip>
            <duration>672</duration>
            <in>0</in>
            <out>672</out>
            <name>Scene - LJ visemes.598.png</name>
            <rate>
              <timebase>24</timebase>
              <ntsc>FALSE</ntsc>
            </rate>
            <media>
              <video>
                <track>
                  <clipitem frameBlend="FALSE" id="clipitem-601">
                    <name>Scene - LJ visemes.598.png</name>
                    <masterclipid>masterclip-600</masterclipid>
                    <rate>
                      <timebase>24</timebase>
                      <ntsc>FALSE</ntsc>
                    </rate>
                    <alphatype>straight</alphatype>
                    <pixelaspectratio>square</pixelaspectratio>
                    <anamorphic>FALSE</anamorphic>
                    <file id="file-600">
                      <name>Scene - LJ visemes.598.png</name>
                      <pathurl>file://localhost/Users/bot/Documents/CREATE/Character Animator/LJ visemes CH2AE/demo/Scene - LJ visemes/Scene - LJ visemes.598.png</pathurl>
                      <rate>
                        <timebase>24</timebase>
                        <ntsc>FALSE</ntsc>
                      </rate>
                      <duration>672</duration>
                      <timecode>
                        <rate>
                          <timebase>24</timebase>
                          <ntsc>FALSE</ntsc>
                        </rate>
                      </timecode>
                      <media>
                        <video>
                          <duration>1</duration>
                          <samplecharacteristics>
                            <anamorphic>FALSE</anamorphic>
                            <pixelaspectratio>square</pixelaspectratio>
                            <fielddominance>none</fielddominance>
                            <width>1920</width>
                            <height>1080</height>
                          </samplecharacteristics>
                        </video>
                      </media>
                    </file>
                  </clipitem>
                </track>
              </video>
            </media>
          </clip>
          <clip explodedTracks="true" frameBlend="FALSE" id="masterclip-601">
            <uuid>9ab9b990-4c29-4c47-b1eb-893851b84a69</uuid>
            <masterclipid>masterclip-601</masterclipid>
            <ismasterclip>TRUE</ismasterclip>
            <duration>672</duration>
            <in>0</in>
            <out>672</out>
            <name>Scene - LJ visemes.599.png</name>
            <rate>
              <timebase>24</timebase>
              <ntsc>FALSE</ntsc>
            </rate>
            <media>
              <video>
                <track>
                  <clipitem frameBlend="FALSE" id="clipitem-602">
                    <name>Scene - LJ visemes.599.png</name>
                    <masterclipid>masterclip-601</masterclipid>
                    <rate>
                      <timebase>24</timebase>
                      <ntsc>FALSE</ntsc>
                    </rate>
                    <alphatype>straight</alphatype>
                    <pixelaspectratio>square</pixelaspectratio>
                    <anamorphic>FALSE</anamorphic>
                    <file id="file-601">
                      <name>Scene - LJ visemes.599.png</name>
                      <pathurl>file://localhost/Users/bot/Documents/CREATE/Character Animator/LJ visemes CH2AE/demo/Scene - LJ visemes/Scene - LJ visemes.599.png</pathurl>
                      <rate>
                        <timebase>24</timebase>
                        <ntsc>FALSE</ntsc>
                      </rate>
                      <duration>672</duration>
                      <timecode>
                        <rate>
                          <timebase>24</timebase>
                          <ntsc>FALSE</ntsc>
                        </rate>
                      </timecode>
                      <media>
                        <video>
                          <duration>1</duration>
                          <samplecharacteristics>
                            <anamorphic>FALSE</anamorphic>
                            <pixelaspectratio>square</pixelaspectratio>
                            <fielddominance>none</fielddominance>
                            <width>1920</width>
                            <height>1080</height>
                          </samplecharacteristics>
                        </video>
                      </media>
                    </file>
                  </clipitem>
                </track>
              </video>
            </media>
          </clip>
          <clip explodedTracks="true" frameBlend="FALSE" id="masterclip-602">
            <uuid>e4e96bd4-f6fd-4cce-b07e-609942f90d63</uuid>
            <masterclipid>masterclip-602</masterclipid>
            <ismasterclip>TRUE</ismasterclip>
            <duration>672</duration>
            <in>0</in>
            <out>672</out>
            <name>Scene - LJ visemes.600.png</name>
            <rate>
              <timebase>24</timebase>
              <ntsc>FALSE</ntsc>
            </rate>
            <media>
              <video>
                <track>
                  <clipitem frameBlend="FALSE" id="clipitem-603">
                    <name>Scene - LJ visemes.600.png</name>
                    <masterclipid>masterclip-602</masterclipid>
                    <rate>
                      <timebase>24</timebase>
                      <ntsc>FALSE</ntsc>
                    </rate>
                    <alphatype>straight</alphatype>
                    <pixelaspectratio>square</pixelaspectratio>
                    <anamorphic>FALSE</anamorphic>
                    <file id="file-602">
                      <name>Scene - LJ visemes.600.png</name>
                      <pathurl>file://localhost/Users/bot/Documents/CREATE/Character Animator/LJ visemes CH2AE/demo/Scene - LJ visemes/Scene - LJ visemes.600.png</pathurl>
                      <rate>
                        <timebase>24</timebase>
                        <ntsc>FALSE</ntsc>
                      </rate>
                      <duration>672</duration>
                      <timecode>
                        <rate>
                          <timebase>24</timebase>
                          <ntsc>FALSE</ntsc>
                        </rate>
                      </timecode>
                      <media>
                        <video>
                          <duration>1</duration>
                          <samplecharacteristics>
                            <anamorphic>FALSE</anamorphic>
                            <pixelaspectratio>square</pixelaspectratio>
                            <fielddominance>none</fielddominance>
                            <width>1920</width>
                            <height>1080</height>
                          </samplecharacteristics>
                        </video>
                      </media>
                    </file>
                  </clipitem>
                </track>
              </video>
            </media>
          </clip>
          <clip explodedTracks="true" frameBlend="FALSE" id="masterclip-603">
            <uuid>ce32a389-ddb8-49d9-ad0d-fd9c710a64ba</uuid>
            <masterclipid>masterclip-603</masterclipid>
            <ismasterclip>TRUE</ismasterclip>
            <duration>672</duration>
            <in>0</in>
            <out>672</out>
            <name>Scene - LJ visemes.601.png</name>
            <rate>
              <timebase>24</timebase>
              <ntsc>FALSE</ntsc>
            </rate>
            <media>
              <video>
                <track>
                  <clipitem frameBlend="FALSE" id="clipitem-604">
                    <name>Scene - LJ visemes.601.png</name>
                    <masterclipid>masterclip-603</masterclipid>
                    <rate>
                      <timebase>24</timebase>
                      <ntsc>FALSE</ntsc>
                    </rate>
                    <alphatype>straight</alphatype>
                    <pixelaspectratio>square</pixelaspectratio>
                    <anamorphic>FALSE</anamorphic>
                    <file id="file-603">
                      <name>Scene - LJ visemes.601.png</name>
                      <pathurl>file://localhost/Users/bot/Documents/CREATE/Character Animator/LJ visemes CH2AE/demo/Scene - LJ visemes/Scene - LJ visemes.601.png</pathurl>
                      <rate>
                        <timebase>24</timebase>
                        <ntsc>FALSE</ntsc>
                      </rate>
                      <duration>672</duration>
                      <timecode>
                        <rate>
                          <timebase>24</timebase>
                          <ntsc>FALSE</ntsc>
                        </rate>
                      </timecode>
                      <media>
                        <video>
                          <duration>1</duration>
                          <samplecharacteristics>
                            <anamorphic>FALSE</anamorphic>
                            <pixelaspectratio>square</pixelaspectratio>
                            <fielddominance>none</fielddominance>
                            <width>1920</width>
                            <height>1080</height>
                          </samplecharacteristics>
                        </video>
                      </media>
                    </file>
                  </clipitem>
                </track>
              </video>
            </media>
          </clip>
          <clip explodedTracks="true" frameBlend="FALSE" id="masterclip-604">
            <uuid>bf550c75-aee3-4d8f-b2a1-80d8d94a4c81</uuid>
            <masterclipid>masterclip-604</masterclipid>
            <ismasterclip>TRUE</ismasterclip>
            <duration>672</duration>
            <in>0</in>
            <out>672</out>
            <name>Scene - LJ visemes.602.png</name>
            <rate>
              <timebase>24</timebase>
              <ntsc>FALSE</ntsc>
            </rate>
            <media>
              <video>
                <track>
                  <clipitem frameBlend="FALSE" id="clipitem-605">
                    <name>Scene - LJ visemes.602.png</name>
                    <masterclipid>masterclip-604</masterclipid>
                    <rate>
                      <timebase>24</timebase>
                      <ntsc>FALSE</ntsc>
                    </rate>
                    <alphatype>straight</alphatype>
                    <pixelaspectratio>square</pixelaspectratio>
                    <anamorphic>FALSE</anamorphic>
                    <file id="file-604">
                      <name>Scene - LJ visemes.602.png</name>
                      <pathurl>file://localhost/Users/bot/Documents/CREATE/Character Animator/LJ visemes CH2AE/demo/Scene - LJ visemes/Scene - LJ visemes.602.png</pathurl>
                      <rate>
                        <timebase>24</timebase>
                        <ntsc>FALSE</ntsc>
                      </rate>
                      <duration>672</duration>
                      <timecode>
                        <rate>
                          <timebase>24</timebase>
                          <ntsc>FALSE</ntsc>
                        </rate>
                      </timecode>
                      <media>
                        <video>
                          <duration>1</duration>
                          <samplecharacteristics>
                            <anamorphic>FALSE</anamorphic>
                            <pixelaspectratio>square</pixelaspectratio>
                            <fielddominance>none</fielddominance>
                            <width>1920</width>
                            <height>1080</height>
                          </samplecharacteristics>
                        </video>
                      </media>
                    </file>
                  </clipitem>
                </track>
              </video>
            </media>
          </clip>
          <clip explodedTracks="true" frameBlend="FALSE" id="masterclip-605">
            <uuid>756154f7-63ca-4653-ad05-8a579b545bd5</uuid>
            <masterclipid>masterclip-605</masterclipid>
            <ismasterclip>TRUE</ismasterclip>
            <duration>672</duration>
            <in>0</in>
            <out>672</out>
            <name>Scene - LJ visemes.603.png</name>
            <rate>
              <timebase>24</timebase>
              <ntsc>FALSE</ntsc>
            </rate>
            <media>
              <video>
                <track>
                  <clipitem frameBlend="FALSE" id="clipitem-606">
                    <name>Scene - LJ visemes.603.png</name>
                    <masterclipid>masterclip-605</masterclipid>
                    <rate>
                      <timebase>24</timebase>
                      <ntsc>FALSE</ntsc>
                    </rate>
                    <alphatype>straight</alphatype>
                    <pixelaspectratio>square</pixelaspectratio>
                    <anamorphic>FALSE</anamorphic>
                    <file id="file-605">
                      <name>Scene - LJ visemes.603.png</name>
                      <pathurl>file://localhost/Users/bot/Documents/CREATE/Character Animator/LJ visemes CH2AE/demo/Scene - LJ visemes/Scene - LJ visemes.603.png</pathurl>
                      <rate>
                        <timebase>24</timebase>
                        <ntsc>FALSE</ntsc>
                      </rate>
                      <duration>672</duration>
                      <timecode>
                        <rate>
                          <timebase>24</timebase>
                          <ntsc>FALSE</ntsc>
                        </rate>
                      </timecode>
                      <media>
                        <video>
                          <duration>1</duration>
                          <samplecharacteristics>
                            <anamorphic>FALSE</anamorphic>
                            <pixelaspectratio>square</pixelaspectratio>
                            <fielddominance>none</fielddominance>
                            <width>1920</width>
                            <height>1080</height>
                          </samplecharacteristics>
                        </video>
                      </media>
                    </file>
                  </clipitem>
                </track>
              </video>
            </media>
          </clip>
          <clip explodedTracks="true" frameBlend="FALSE" id="masterclip-606">
            <uuid>7b536c2f-b0eb-4218-9161-d3e753074c12</uuid>
            <masterclipid>masterclip-606</masterclipid>
            <ismasterclip>TRUE</ismasterclip>
            <duration>672</duration>
            <in>0</in>
            <out>672</out>
            <name>Scene - LJ visemes.604.png</name>
            <rate>
              <timebase>24</timebase>
              <ntsc>FALSE</ntsc>
            </rate>
            <media>
              <video>
                <track>
                  <clipitem frameBlend="FALSE" id="clipitem-607">
                    <name>Scene - LJ visemes.604.png</name>
                    <masterclipid>masterclip-606</masterclipid>
                    <rate>
                      <timebase>24</timebase>
                      <ntsc>FALSE</ntsc>
                    </rate>
                    <alphatype>straight</alphatype>
                    <pixelaspectratio>square</pixelaspectratio>
                    <anamorphic>FALSE</anamorphic>
                    <file id="file-606">
                      <name>Scene - LJ visemes.604.png</name>
                      <pathurl>file://localhost/Users/bot/Documents/CREATE/Character Animator/LJ visemes CH2AE/demo/Scene - LJ visemes/Scene - LJ visemes.604.png</pathurl>
                      <rate>
                        <timebase>24</timebase>
                        <ntsc>FALSE</ntsc>
                      </rate>
                      <duration>672</duration>
                      <timecode>
                        <rate>
                          <timebase>24</timebase>
                          <ntsc>FALSE</ntsc>
                        </rate>
                      </timecode>
                      <media>
                        <video>
                          <duration>1</duration>
                          <samplecharacteristics>
                            <anamorphic>FALSE</anamorphic>
                            <pixelaspectratio>square</pixelaspectratio>
                            <fielddominance>none</fielddominance>
                            <width>1920</width>
                            <height>1080</height>
                          </samplecharacteristics>
                        </video>
                      </media>
                    </file>
                  </clipitem>
                </track>
              </video>
            </media>
          </clip>
          <clip explodedTracks="true" frameBlend="FALSE" id="masterclip-607">
            <uuid>c4f20b73-dbaa-44f6-b565-0f943e0a8408</uuid>
            <masterclipid>masterclip-607</masterclipid>
            <ismasterclip>TRUE</ismasterclip>
            <duration>672</duration>
            <in>0</in>
            <out>672</out>
            <name>Scene - LJ visemes.605.png</name>
            <rate>
              <timebase>24</timebase>
              <ntsc>FALSE</ntsc>
            </rate>
            <media>
              <video>
                <track>
                  <clipitem frameBlend="FALSE" id="clipitem-608">
                    <name>Scene - LJ visemes.605.png</name>
                    <masterclipid>masterclip-607</masterclipid>
                    <rate>
                      <timebase>24</timebase>
                      <ntsc>FALSE</ntsc>
                    </rate>
                    <alphatype>straight</alphatype>
                    <pixelaspectratio>square</pixelaspectratio>
                    <anamorphic>FALSE</anamorphic>
                    <file id="file-607">
                      <name>Scene - LJ visemes.605.png</name>
                      <pathurl>file://localhost/Users/bot/Documents/CREATE/Character Animator/LJ visemes CH2AE/demo/Scene - LJ visemes/Scene - LJ visemes.605.png</pathurl>
                      <rate>
                        <timebase>24</timebase>
                        <ntsc>FALSE</ntsc>
                      </rate>
                      <duration>672</duration>
                      <timecode>
                        <rate>
                          <timebase>24</timebase>
                          <ntsc>FALSE</ntsc>
                        </rate>
                      </timecode>
                      <media>
                        <video>
                          <duration>1</duration>
                          <samplecharacteristics>
                            <anamorphic>FALSE</anamorphic>
                            <pixelaspectratio>square</pixelaspectratio>
                            <fielddominance>none</fielddominance>
                            <width>1920</width>
                            <height>1080</height>
                          </samplecharacteristics>
                        </video>
                      </media>
                    </file>
                  </clipitem>
                </track>
              </video>
            </media>
          </clip>
          <clip explodedTracks="true" frameBlend="FALSE" id="masterclip-608">
            <uuid>9957ea45-8393-42d9-8281-697db9275cf6</uuid>
            <masterclipid>masterclip-608</masterclipid>
            <ismasterclip>TRUE</ismasterclip>
            <duration>672</duration>
            <in>0</in>
            <out>672</out>
            <name>Scene - LJ visemes.606.png</name>
            <rate>
              <timebase>24</timebase>
              <ntsc>FALSE</ntsc>
            </rate>
            <media>
              <video>
                <track>
                  <clipitem frameBlend="FALSE" id="clipitem-609">
                    <name>Scene - LJ visemes.606.png</name>
                    <masterclipid>masterclip-608</masterclipid>
                    <rate>
                      <timebase>24</timebase>
                      <ntsc>FALSE</ntsc>
                    </rate>
                    <alphatype>straight</alphatype>
                    <pixelaspectratio>square</pixelaspectratio>
                    <anamorphic>FALSE</anamorphic>
                    <file id="file-608">
                      <name>Scene - LJ visemes.606.png</name>
                      <pathurl>file://localhost/Users/bot/Documents/CREATE/Character Animator/LJ visemes CH2AE/demo/Scene - LJ visemes/Scene - LJ visemes.606.png</pathurl>
                      <rate>
                        <timebase>24</timebase>
                        <ntsc>FALSE</ntsc>
                      </rate>
                      <duration>672</duration>
                      <timecode>
                        <rate>
                          <timebase>24</timebase>
                          <ntsc>FALSE</ntsc>
                        </rate>
                      </timecode>
                      <media>
                        <video>
                          <duration>1</duration>
                          <samplecharacteristics>
                            <anamorphic>FALSE</anamorphic>
                            <pixelaspectratio>square</pixelaspectratio>
                            <fielddominance>none</fielddominance>
                            <width>1920</width>
                            <height>1080</height>
                          </samplecharacteristics>
                        </video>
                      </media>
                    </file>
                  </clipitem>
                </track>
              </video>
            </media>
          </clip>
          <clip explodedTracks="true" frameBlend="FALSE" id="masterclip-609">
            <uuid>75721a79-23e7-49dc-9573-ba9da45f5b4d</uuid>
            <masterclipid>masterclip-609</masterclipid>
            <ismasterclip>TRUE</ismasterclip>
            <duration>672</duration>
            <in>0</in>
            <out>672</out>
            <name>Scene - LJ visemes.607.png</name>
            <rate>
              <timebase>24</timebase>
              <ntsc>FALSE</ntsc>
            </rate>
            <media>
              <video>
                <track>
                  <clipitem frameBlend="FALSE" id="clipitem-610">
                    <name>Scene - LJ visemes.607.png</name>
                    <masterclipid>masterclip-609</masterclipid>
                    <rate>
                      <timebase>24</timebase>
                      <ntsc>FALSE</ntsc>
                    </rate>
                    <alphatype>straight</alphatype>
                    <pixelaspectratio>square</pixelaspectratio>
                    <anamorphic>FALSE</anamorphic>
                    <file id="file-609">
                      <name>Scene - LJ visemes.607.png</name>
                      <pathurl>file://localhost/Users/bot/Documents/CREATE/Character Animator/LJ visemes CH2AE/demo/Scene - LJ visemes/Scene - LJ visemes.607.png</pathurl>
                      <rate>
                        <timebase>24</timebase>
                        <ntsc>FALSE</ntsc>
                      </rate>
                      <duration>672</duration>
                      <timecode>
                        <rate>
                          <timebase>24</timebase>
                          <ntsc>FALSE</ntsc>
                        </rate>
                      </timecode>
                      <media>
                        <video>
                          <duration>1</duration>
                          <samplecharacteristics>
                            <anamorphic>FALSE</anamorphic>
                            <pixelaspectratio>square</pixelaspectratio>
                            <fielddominance>none</fielddominance>
                            <width>1920</width>
                            <height>1080</height>
                          </samplecharacteristics>
                        </video>
                      </media>
                    </file>
                  </clipitem>
                </track>
              </video>
            </media>
          </clip>
          <clip explodedTracks="true" frameBlend="FALSE" id="masterclip-610">
            <uuid>81a1f4ca-9c70-4c96-aed0-3079ee807909</uuid>
            <masterclipid>masterclip-610</masterclipid>
            <ismasterclip>TRUE</ismasterclip>
            <duration>672</duration>
            <in>0</in>
            <out>672</out>
            <name>Scene - LJ visemes.608.png</name>
            <rate>
              <timebase>24</timebase>
              <ntsc>FALSE</ntsc>
            </rate>
            <media>
              <video>
                <track>
                  <clipitem frameBlend="FALSE" id="clipitem-611">
                    <name>Scene - LJ visemes.608.png</name>
                    <masterclipid>masterclip-610</masterclipid>
                    <rate>
                      <timebase>24</timebase>
                      <ntsc>FALSE</ntsc>
                    </rate>
                    <alphatype>straight</alphatype>
                    <pixelaspectratio>square</pixelaspectratio>
                    <anamorphic>FALSE</anamorphic>
                    <file id="file-610">
                      <name>Scene - LJ visemes.608.png</name>
                      <pathurl>file://localhost/Users/bot/Documents/CREATE/Character Animator/LJ visemes CH2AE/demo/Scene - LJ visemes/Scene - LJ visemes.608.png</pathurl>
                      <rate>
                        <timebase>24</timebase>
                        <ntsc>FALSE</ntsc>
                      </rate>
                      <duration>672</duration>
                      <timecode>
                        <rate>
                          <timebase>24</timebase>
                          <ntsc>FALSE</ntsc>
                        </rate>
                      </timecode>
                      <media>
                        <video>
                          <duration>1</duration>
                          <samplecharacteristics>
                            <anamorphic>FALSE</anamorphic>
                            <pixelaspectratio>square</pixelaspectratio>
                            <fielddominance>none</fielddominance>
                            <width>1920</width>
                            <height>1080</height>
                          </samplecharacteristics>
                        </video>
                      </media>
                    </file>
                  </clipitem>
                </track>
              </video>
            </media>
          </clip>
          <clip explodedTracks="true" frameBlend="FALSE" id="masterclip-611">
            <uuid>ea4033e4-fab9-473e-ae42-12702f295b76</uuid>
            <masterclipid>masterclip-611</masterclipid>
            <ismasterclip>TRUE</ismasterclip>
            <duration>672</duration>
            <in>0</in>
            <out>672</out>
            <name>Scene - LJ visemes.609.png</name>
            <rate>
              <timebase>24</timebase>
              <ntsc>FALSE</ntsc>
            </rate>
            <media>
              <video>
                <track>
                  <clipitem frameBlend="FALSE" id="clipitem-612">
                    <name>Scene - LJ visemes.609.png</name>
                    <masterclipid>masterclip-611</masterclipid>
                    <rate>
                      <timebase>24</timebase>
                      <ntsc>FALSE</ntsc>
                    </rate>
                    <alphatype>straight</alphatype>
                    <pixelaspectratio>square</pixelaspectratio>
                    <anamorphic>FALSE</anamorphic>
                    <file id="file-611">
                      <name>Scene - LJ visemes.609.png</name>
                      <pathurl>file://localhost/Users/bot/Documents/CREATE/Character Animator/LJ visemes CH2AE/demo/Scene - LJ visemes/Scene - LJ visemes.609.png</pathurl>
                      <rate>
                        <timebase>24</timebase>
                        <ntsc>FALSE</ntsc>
                      </rate>
                      <duration>672</duration>
                      <timecode>
                        <rate>
                          <timebase>24</timebase>
                          <ntsc>FALSE</ntsc>
                        </rate>
                      </timecode>
                      <media>
                        <video>
                          <duration>1</duration>
                          <samplecharacteristics>
                            <anamorphic>FALSE</anamorphic>
                            <pixelaspectratio>square</pixelaspectratio>
                            <fielddominance>none</fielddominance>
                            <width>1920</width>
                            <height>1080</height>
                          </samplecharacteristics>
                        </video>
                      </media>
                    </file>
                  </clipitem>
                </track>
              </video>
            </media>
          </clip>
          <clip explodedTracks="true" frameBlend="FALSE" id="masterclip-612">
            <uuid>af1f0965-3ef4-492c-a814-a2df028186b7</uuid>
            <masterclipid>masterclip-612</masterclipid>
            <ismasterclip>TRUE</ismasterclip>
            <duration>672</duration>
            <in>0</in>
            <out>672</out>
            <name>Scene - LJ visemes.610.png</name>
            <rate>
              <timebase>24</timebase>
              <ntsc>FALSE</ntsc>
            </rate>
            <media>
              <video>
                <track>
                  <clipitem frameBlend="FALSE" id="clipitem-613">
                    <name>Scene - LJ visemes.610.png</name>
                    <masterclipid>masterclip-612</masterclipid>
                    <rate>
                      <timebase>24</timebase>
                      <ntsc>FALSE</ntsc>
                    </rate>
                    <alphatype>straight</alphatype>
                    <pixelaspectratio>square</pixelaspectratio>
                    <anamorphic>FALSE</anamorphic>
                    <file id="file-612">
                      <name>Scene - LJ visemes.610.png</name>
                      <pathurl>file://localhost/Users/bot/Documents/CREATE/Character Animator/LJ visemes CH2AE/demo/Scene - LJ visemes/Scene - LJ visemes.610.png</pathurl>
                      <rate>
                        <timebase>24</timebase>
                        <ntsc>FALSE</ntsc>
                      </rate>
                      <duration>672</duration>
                      <timecode>
                        <rate>
                          <timebase>24</timebase>
                          <ntsc>FALSE</ntsc>
                        </rate>
                      </timecode>
                      <media>
                        <video>
                          <duration>1</duration>
                          <samplecharacteristics>
                            <anamorphic>FALSE</anamorphic>
                            <pixelaspectratio>square</pixelaspectratio>
                            <fielddominance>none</fielddominance>
                            <width>1920</width>
                            <height>1080</height>
                          </samplecharacteristics>
                        </video>
                      </media>
                    </file>
                  </clipitem>
                </track>
              </video>
            </media>
          </clip>
          <clip explodedTracks="true" frameBlend="FALSE" id="masterclip-613">
            <uuid>109758c3-7a98-4e30-9e07-8c72fbc72542</uuid>
            <masterclipid>masterclip-613</masterclipid>
            <ismasterclip>TRUE</ismasterclip>
            <duration>672</duration>
            <in>0</in>
            <out>672</out>
            <name>Scene - LJ visemes.611.png</name>
            <rate>
              <timebase>24</timebase>
              <ntsc>FALSE</ntsc>
            </rate>
            <media>
              <video>
                <track>
                  <clipitem frameBlend="FALSE" id="clipitem-614">
                    <name>Scene - LJ visemes.611.png</name>
                    <masterclipid>masterclip-613</masterclipid>
                    <rate>
                      <timebase>24</timebase>
                      <ntsc>FALSE</ntsc>
                    </rate>
                    <alphatype>straight</alphatype>
                    <pixelaspectratio>square</pixelaspectratio>
                    <anamorphic>FALSE</anamorphic>
                    <file id="file-613">
                      <name>Scene - LJ visemes.611.png</name>
                      <pathurl>file://localhost/Users/bot/Documents/CREATE/Character Animator/LJ visemes CH2AE/demo/Scene - LJ visemes/Scene - LJ visemes.611.png</pathurl>
                      <rate>
                        <timebase>24</timebase>
                        <ntsc>FALSE</ntsc>
                      </rate>
                      <duration>672</duration>
                      <timecode>
                        <rate>
                          <timebase>24</timebase>
                          <ntsc>FALSE</ntsc>
                        </rate>
                      </timecode>
                      <media>
                        <video>
                          <duration>1</duration>
                          <samplecharacteristics>
                            <anamorphic>FALSE</anamorphic>
                            <pixelaspectratio>square</pixelaspectratio>
                            <fielddominance>none</fielddominance>
                            <width>1920</width>
                            <height>1080</height>
                          </samplecharacteristics>
                        </video>
                      </media>
                    </file>
                  </clipitem>
                </track>
              </video>
            </media>
          </clip>
          <clip explodedTracks="true" frameBlend="FALSE" id="masterclip-614">
            <uuid>8a81754e-3b70-4c04-b8b0-b32b98b20bc6</uuid>
            <masterclipid>masterclip-614</masterclipid>
            <ismasterclip>TRUE</ismasterclip>
            <duration>672</duration>
            <in>0</in>
            <out>672</out>
            <name>Scene - LJ visemes.612.png</name>
            <rate>
              <timebase>24</timebase>
              <ntsc>FALSE</ntsc>
            </rate>
            <media>
              <video>
                <track>
                  <clipitem frameBlend="FALSE" id="clipitem-615">
                    <name>Scene - LJ visemes.612.png</name>
                    <masterclipid>masterclip-614</masterclipid>
                    <rate>
                      <timebase>24</timebase>
                      <ntsc>FALSE</ntsc>
                    </rate>
                    <alphatype>straight</alphatype>
                    <pixelaspectratio>square</pixelaspectratio>
                    <anamorphic>FALSE</anamorphic>
                    <file id="file-614">
                      <name>Scene - LJ visemes.612.png</name>
                      <pathurl>file://localhost/Users/bot/Documents/CREATE/Character Animator/LJ visemes CH2AE/demo/Scene - LJ visemes/Scene - LJ visemes.612.png</pathurl>
                      <rate>
                        <timebase>24</timebase>
                        <ntsc>FALSE</ntsc>
                      </rate>
                      <duration>672</duration>
                      <timecode>
                        <rate>
                          <timebase>24</timebase>
                          <ntsc>FALSE</ntsc>
                        </rate>
                      </timecode>
                      <media>
                        <video>
                          <duration>1</duration>
                          <samplecharacteristics>
                            <anamorphic>FALSE</anamorphic>
                            <pixelaspectratio>square</pixelaspectratio>
                            <fielddominance>none</fielddominance>
                            <width>1920</width>
                            <height>1080</height>
                          </samplecharacteristics>
                        </video>
                      </media>
                    </file>
                  </clipitem>
                </track>
              </video>
            </media>
          </clip>
          <clip explodedTracks="true" frameBlend="FALSE" id="masterclip-615">
            <uuid>435887d8-81db-4b2e-a6ff-ddecb9aefa87</uuid>
            <masterclipid>masterclip-615</masterclipid>
            <ismasterclip>TRUE</ismasterclip>
            <duration>672</duration>
            <in>0</in>
            <out>672</out>
            <name>Scene - LJ visemes.613.png</name>
            <rate>
              <timebase>24</timebase>
              <ntsc>FALSE</ntsc>
            </rate>
            <media>
              <video>
                <track>
                  <clipitem frameBlend="FALSE" id="clipitem-616">
                    <name>Scene - LJ visemes.613.png</name>
                    <masterclipid>masterclip-615</masterclipid>
                    <rate>
                      <timebase>24</timebase>
                      <ntsc>FALSE</ntsc>
                    </rate>
                    <alphatype>straight</alphatype>
                    <pixelaspectratio>square</pixelaspectratio>
                    <anamorphic>FALSE</anamorphic>
                    <file id="file-615">
                      <name>Scene - LJ visemes.613.png</name>
                      <pathurl>file://localhost/Users/bot/Documents/CREATE/Character Animator/LJ visemes CH2AE/demo/Scene - LJ visemes/Scene - LJ visemes.613.png</pathurl>
                      <rate>
                        <timebase>24</timebase>
                        <ntsc>FALSE</ntsc>
                      </rate>
                      <duration>672</duration>
                      <timecode>
                        <rate>
                          <timebase>24</timebase>
                          <ntsc>FALSE</ntsc>
                        </rate>
                      </timecode>
                      <media>
                        <video>
                          <duration>1</duration>
                          <samplecharacteristics>
                            <anamorphic>FALSE</anamorphic>
                            <pixelaspectratio>square</pixelaspectratio>
                            <fielddominance>none</fielddominance>
                            <width>1920</width>
                            <height>1080</height>
                          </samplecharacteristics>
                        </video>
                      </media>
                    </file>
                  </clipitem>
                </track>
              </video>
            </media>
          </clip>
          <clip explodedTracks="true" frameBlend="FALSE" id="masterclip-616">
            <uuid>ec5bd27d-53d4-441d-9bda-2839f012c7df</uuid>
            <masterclipid>masterclip-616</masterclipid>
            <ismasterclip>TRUE</ismasterclip>
            <duration>672</duration>
            <in>0</in>
            <out>672</out>
            <name>Scene - LJ visemes.614.png</name>
            <rate>
              <timebase>24</timebase>
              <ntsc>FALSE</ntsc>
            </rate>
            <media>
              <video>
                <track>
                  <clipitem frameBlend="FALSE" id="clipitem-617">
                    <name>Scene - LJ visemes.614.png</name>
                    <masterclipid>masterclip-616</masterclipid>
                    <rate>
                      <timebase>24</timebase>
                      <ntsc>FALSE</ntsc>
                    </rate>
                    <alphatype>straight</alphatype>
                    <pixelaspectratio>square</pixelaspectratio>
                    <anamorphic>FALSE</anamorphic>
                    <file id="file-616">
                      <name>Scene - LJ visemes.614.png</name>
                      <pathurl>file://localhost/Users/bot/Documents/CREATE/Character Animator/LJ visemes CH2AE/demo/Scene - LJ visemes/Scene - LJ visemes.614.png</pathurl>
                      <rate>
                        <timebase>24</timebase>
                        <ntsc>FALSE</ntsc>
                      </rate>
                      <duration>672</duration>
                      <timecode>
                        <rate>
                          <timebase>24</timebase>
                          <ntsc>FALSE</ntsc>
                        </rate>
                      </timecode>
                      <media>
                        <video>
                          <duration>1</duration>
                          <samplecharacteristics>
                            <anamorphic>FALSE</anamorphic>
                            <pixelaspectratio>square</pixelaspectratio>
                            <fielddominance>none</fielddominance>
                            <width>1920</width>
                            <height>1080</height>
                          </samplecharacteristics>
                        </video>
                      </media>
                    </file>
                  </clipitem>
                </track>
              </video>
            </media>
          </clip>
          <clip explodedTracks="true" frameBlend="FALSE" id="masterclip-617">
            <uuid>193b4ccf-c526-431a-b0eb-ad34c8b035f0</uuid>
            <masterclipid>masterclip-617</masterclipid>
            <ismasterclip>TRUE</ismasterclip>
            <duration>672</duration>
            <in>0</in>
            <out>672</out>
            <name>Scene - LJ visemes.615.png</name>
            <rate>
              <timebase>24</timebase>
              <ntsc>FALSE</ntsc>
            </rate>
            <media>
              <video>
                <track>
                  <clipitem frameBlend="FALSE" id="clipitem-618">
                    <name>Scene - LJ visemes.615.png</name>
                    <masterclipid>masterclip-617</masterclipid>
                    <rate>
                      <timebase>24</timebase>
                      <ntsc>FALSE</ntsc>
                    </rate>
                    <alphatype>straight</alphatype>
                    <pixelaspectratio>square</pixelaspectratio>
                    <anamorphic>FALSE</anamorphic>
                    <file id="file-617">
                      <name>Scene - LJ visemes.615.png</name>
                      <pathurl>file://localhost/Users/bot/Documents/CREATE/Character Animator/LJ visemes CH2AE/demo/Scene - LJ visemes/Scene - LJ visemes.615.png</pathurl>
                      <rate>
                        <timebase>24</timebase>
                        <ntsc>FALSE</ntsc>
                      </rate>
                      <duration>672</duration>
                      <timecode>
                        <rate>
                          <timebase>24</timebase>
                          <ntsc>FALSE</ntsc>
                        </rate>
                      </timecode>
                      <media>
                        <video>
                          <duration>1</duration>
                          <samplecharacteristics>
                            <anamorphic>FALSE</anamorphic>
                            <pixelaspectratio>square</pixelaspectratio>
                            <fielddominance>none</fielddominance>
                            <width>1920</width>
                            <height>1080</height>
                          </samplecharacteristics>
                        </video>
                      </media>
                    </file>
                  </clipitem>
                </track>
              </video>
            </media>
          </clip>
          <clip explodedTracks="true" frameBlend="FALSE" id="masterclip-618">
            <uuid>678b7153-74ee-486a-84d7-c01b9fa1a29c</uuid>
            <masterclipid>masterclip-618</masterclipid>
            <ismasterclip>TRUE</ismasterclip>
            <duration>672</duration>
            <in>0</in>
            <out>672</out>
            <name>Scene - LJ visemes.616.png</name>
            <rate>
              <timebase>24</timebase>
              <ntsc>FALSE</ntsc>
            </rate>
            <media>
              <video>
                <track>
                  <clipitem frameBlend="FALSE" id="clipitem-619">
                    <name>Scene - LJ visemes.616.png</name>
                    <masterclipid>masterclip-618</masterclipid>
                    <rate>
                      <timebase>24</timebase>
                      <ntsc>FALSE</ntsc>
                    </rate>
                    <alphatype>straight</alphatype>
                    <pixelaspectratio>square</pixelaspectratio>
                    <anamorphic>FALSE</anamorphic>
                    <file id="file-618">
                      <name>Scene - LJ visemes.616.png</name>
                      <pathurl>file://localhost/Users/bot/Documents/CREATE/Character Animator/LJ visemes CH2AE/demo/Scene - LJ visemes/Scene - LJ visemes.616.png</pathurl>
                      <rate>
                        <timebase>24</timebase>
                        <ntsc>FALSE</ntsc>
                      </rate>
                      <duration>672</duration>
                      <timecode>
                        <rate>
                          <timebase>24</timebase>
                          <ntsc>FALSE</ntsc>
                        </rate>
                      </timecode>
                      <media>
                        <video>
                          <duration>1</duration>
                          <samplecharacteristics>
                            <anamorphic>FALSE</anamorphic>
                            <pixelaspectratio>square</pixelaspectratio>
                            <fielddominance>none</fielddominance>
                            <width>1920</width>
                            <height>1080</height>
                          </samplecharacteristics>
                        </video>
                      </media>
                    </file>
                  </clipitem>
                </track>
              </video>
            </media>
          </clip>
          <clip explodedTracks="true" frameBlend="FALSE" id="masterclip-619">
            <uuid>134b2423-947c-4e8d-b4f7-76d0b75ffb3b</uuid>
            <masterclipid>masterclip-619</masterclipid>
            <ismasterclip>TRUE</ismasterclip>
            <duration>672</duration>
            <in>0</in>
            <out>672</out>
            <name>Scene - LJ visemes.617.png</name>
            <rate>
              <timebase>24</timebase>
              <ntsc>FALSE</ntsc>
            </rate>
            <media>
              <video>
                <track>
                  <clipitem frameBlend="FALSE" id="clipitem-620">
                    <name>Scene - LJ visemes.617.png</name>
                    <masterclipid>masterclip-619</masterclipid>
                    <rate>
                      <timebase>24</timebase>
                      <ntsc>FALSE</ntsc>
                    </rate>
                    <alphatype>straight</alphatype>
                    <pixelaspectratio>square</pixelaspectratio>
                    <anamorphic>FALSE</anamorphic>
                    <file id="file-619">
                      <name>Scene - LJ visemes.617.png</name>
                      <pathurl>file://localhost/Users/bot/Documents/CREATE/Character Animator/LJ visemes CH2AE/demo/Scene - LJ visemes/Scene - LJ visemes.617.png</pathurl>
                      <rate>
                        <timebase>24</timebase>
                        <ntsc>FALSE</ntsc>
                      </rate>
                      <duration>672</duration>
                      <timecode>
                        <rate>
                          <timebase>24</timebase>
                          <ntsc>FALSE</ntsc>
                        </rate>
                      </timecode>
                      <media>
                        <video>
                          <duration>1</duration>
                          <samplecharacteristics>
                            <anamorphic>FALSE</anamorphic>
                            <pixelaspectratio>square</pixelaspectratio>
                            <fielddominance>none</fielddominance>
                            <width>1920</width>
                            <height>1080</height>
                          </samplecharacteristics>
                        </video>
                      </media>
                    </file>
                  </clipitem>
                </track>
              </video>
            </media>
          </clip>
          <clip explodedTracks="true" frameBlend="FALSE" id="masterclip-620">
            <uuid>b3353d09-1d32-406d-8a5e-9182d8e551f0</uuid>
            <masterclipid>masterclip-620</masterclipid>
            <ismasterclip>TRUE</ismasterclip>
            <duration>672</duration>
            <in>0</in>
            <out>672</out>
            <name>Scene - LJ visemes.618.png</name>
            <rate>
              <timebase>24</timebase>
              <ntsc>FALSE</ntsc>
            </rate>
            <media>
              <video>
                <track>
                  <clipitem frameBlend="FALSE" id="clipitem-621">
                    <name>Scene - LJ visemes.618.png</name>
                    <masterclipid>masterclip-620</masterclipid>
                    <rate>
                      <timebase>24</timebase>
                      <ntsc>FALSE</ntsc>
                    </rate>
                    <alphatype>straight</alphatype>
                    <pixelaspectratio>square</pixelaspectratio>
                    <anamorphic>FALSE</anamorphic>
                    <file id="file-620">
                      <name>Scene - LJ visemes.618.png</name>
                      <pathurl>file://localhost/Users/bot/Documents/CREATE/Character Animator/LJ visemes CH2AE/demo/Scene - LJ visemes/Scene - LJ visemes.618.png</pathurl>
                      <rate>
                        <timebase>24</timebase>
                        <ntsc>FALSE</ntsc>
                      </rate>
                      <duration>672</duration>
                      <timecode>
                        <rate>
                          <timebase>24</timebase>
                          <ntsc>FALSE</ntsc>
                        </rate>
                      </timecode>
                      <media>
                        <video>
                          <duration>1</duration>
                          <samplecharacteristics>
                            <anamorphic>FALSE</anamorphic>
                            <pixelaspectratio>square</pixelaspectratio>
                            <fielddominance>none</fielddominance>
                            <width>1920</width>
                            <height>1080</height>
                          </samplecharacteristics>
                        </video>
                      </media>
                    </file>
                  </clipitem>
                </track>
              </video>
            </media>
          </clip>
          <clip explodedTracks="true" frameBlend="FALSE" id="masterclip-621">
            <uuid>219e6e8c-e57d-40a3-965a-acbe3873b29e</uuid>
            <masterclipid>masterclip-621</masterclipid>
            <ismasterclip>TRUE</ismasterclip>
            <duration>672</duration>
            <in>0</in>
            <out>672</out>
            <name>Scene - LJ visemes.619.png</name>
            <rate>
              <timebase>24</timebase>
              <ntsc>FALSE</ntsc>
            </rate>
            <media>
              <video>
                <track>
                  <clipitem frameBlend="FALSE" id="clipitem-622">
                    <name>Scene - LJ visemes.619.png</name>
                    <masterclipid>masterclip-621</masterclipid>
                    <rate>
                      <timebase>24</timebase>
                      <ntsc>FALSE</ntsc>
                    </rate>
                    <alphatype>straight</alphatype>
                    <pixelaspectratio>square</pixelaspectratio>
                    <anamorphic>FALSE</anamorphic>
                    <file id="file-621">
                      <name>Scene - LJ visemes.619.png</name>
                      <pathurl>file://localhost/Users/bot/Documents/CREATE/Character Animator/LJ visemes CH2AE/demo/Scene - LJ visemes/Scene - LJ visemes.619.png</pathurl>
                      <rate>
                        <timebase>24</timebase>
                        <ntsc>FALSE</ntsc>
                      </rate>
                      <duration>672</duration>
                      <timecode>
                        <rate>
                          <timebase>24</timebase>
                          <ntsc>FALSE</ntsc>
                        </rate>
                      </timecode>
                      <media>
                        <video>
                          <duration>1</duration>
                          <samplecharacteristics>
                            <anamorphic>FALSE</anamorphic>
                            <pixelaspectratio>square</pixelaspectratio>
                            <fielddominance>none</fielddominance>
                            <width>1920</width>
                            <height>1080</height>
                          </samplecharacteristics>
                        </video>
                      </media>
                    </file>
                  </clipitem>
                </track>
              </video>
            </media>
          </clip>
          <clip explodedTracks="true" frameBlend="FALSE" id="masterclip-622">
            <uuid>dcd3dff0-7a46-448d-a549-190b562ef7db</uuid>
            <masterclipid>masterclip-622</masterclipid>
            <ismasterclip>TRUE</ismasterclip>
            <duration>672</duration>
            <in>0</in>
            <out>672</out>
            <name>Scene - LJ visemes.620.png</name>
            <rate>
              <timebase>24</timebase>
              <ntsc>FALSE</ntsc>
            </rate>
            <media>
              <video>
                <track>
                  <clipitem frameBlend="FALSE" id="clipitem-623">
                    <name>Scene - LJ visemes.620.png</name>
                    <masterclipid>masterclip-622</masterclipid>
                    <rate>
                      <timebase>24</timebase>
                      <ntsc>FALSE</ntsc>
                    </rate>
                    <alphatype>straight</alphatype>
                    <pixelaspectratio>square</pixelaspectratio>
                    <anamorphic>FALSE</anamorphic>
                    <file id="file-622">
                      <name>Scene - LJ visemes.620.png</name>
                      <pathurl>file://localhost/Users/bot/Documents/CREATE/Character Animator/LJ visemes CH2AE/demo/Scene - LJ visemes/Scene - LJ visemes.620.png</pathurl>
                      <rate>
                        <timebase>24</timebase>
                        <ntsc>FALSE</ntsc>
                      </rate>
                      <duration>672</duration>
                      <timecode>
                        <rate>
                          <timebase>24</timebase>
                          <ntsc>FALSE</ntsc>
                        </rate>
                      </timecode>
                      <media>
                        <video>
                          <duration>1</duration>
                          <samplecharacteristics>
                            <anamorphic>FALSE</anamorphic>
                            <pixelaspectratio>square</pixelaspectratio>
                            <fielddominance>none</fielddominance>
                            <width>1920</width>
                            <height>1080</height>
                          </samplecharacteristics>
                        </video>
                      </media>
                    </file>
                  </clipitem>
                </track>
              </video>
            </media>
          </clip>
          <clip explodedTracks="true" frameBlend="FALSE" id="masterclip-623">
            <uuid>9462d81b-eeb7-4345-bbe7-1a8908d40f9b</uuid>
            <masterclipid>masterclip-623</masterclipid>
            <ismasterclip>TRUE</ismasterclip>
            <duration>672</duration>
            <in>0</in>
            <out>672</out>
            <name>Scene - LJ visemes.621.png</name>
            <rate>
              <timebase>24</timebase>
              <ntsc>FALSE</ntsc>
            </rate>
            <media>
              <video>
                <track>
                  <clipitem frameBlend="FALSE" id="clipitem-624">
                    <name>Scene - LJ visemes.621.png</name>
                    <masterclipid>masterclip-623</masterclipid>
                    <rate>
                      <timebase>24</timebase>
                      <ntsc>FALSE</ntsc>
                    </rate>
                    <alphatype>straight</alphatype>
                    <pixelaspectratio>square</pixelaspectratio>
                    <anamorphic>FALSE</anamorphic>
                    <file id="file-623">
                      <name>Scene - LJ visemes.621.png</name>
                      <pathurl>file://localhost/Users/bot/Documents/CREATE/Character Animator/LJ visemes CH2AE/demo/Scene - LJ visemes/Scene - LJ visemes.621.png</pathurl>
                      <rate>
                        <timebase>24</timebase>
                        <ntsc>FALSE</ntsc>
                      </rate>
                      <duration>672</duration>
                      <timecode>
                        <rate>
                          <timebase>24</timebase>
                          <ntsc>FALSE</ntsc>
                        </rate>
                      </timecode>
                      <media>
                        <video>
                          <duration>1</duration>
                          <samplecharacteristics>
                            <anamorphic>FALSE</anamorphic>
                            <pixelaspectratio>square</pixelaspectratio>
                            <fielddominance>none</fielddominance>
                            <width>1920</width>
                            <height>1080</height>
                          </samplecharacteristics>
                        </video>
                      </media>
                    </file>
                  </clipitem>
                </track>
              </video>
            </media>
          </clip>
          <clip explodedTracks="true" frameBlend="FALSE" id="masterclip-624">
            <uuid>756d8126-e2f0-44d0-8b57-3fd4aff6de58</uuid>
            <masterclipid>masterclip-624</masterclipid>
            <ismasterclip>TRUE</ismasterclip>
            <duration>672</duration>
            <in>0</in>
            <out>672</out>
            <name>Scene - LJ visemes.622.png</name>
            <rate>
              <timebase>24</timebase>
              <ntsc>FALSE</ntsc>
            </rate>
            <media>
              <video>
                <track>
                  <clipitem frameBlend="FALSE" id="clipitem-625">
                    <name>Scene - LJ visemes.622.png</name>
                    <masterclipid>masterclip-624</masterclipid>
                    <rate>
                      <timebase>24</timebase>
                      <ntsc>FALSE</ntsc>
                    </rate>
                    <alphatype>straight</alphatype>
                    <pixelaspectratio>square</pixelaspectratio>
                    <anamorphic>FALSE</anamorphic>
                    <file id="file-624">
                      <name>Scene - LJ visemes.622.png</name>
                      <pathurl>file://localhost/Users/bot/Documents/CREATE/Character Animator/LJ visemes CH2AE/demo/Scene - LJ visemes/Scene - LJ visemes.622.png</pathurl>
                      <rate>
                        <timebase>24</timebase>
                        <ntsc>FALSE</ntsc>
                      </rate>
                      <duration>672</duration>
                      <timecode>
                        <rate>
                          <timebase>24</timebase>
                          <ntsc>FALSE</ntsc>
                        </rate>
                      </timecode>
                      <media>
                        <video>
                          <duration>1</duration>
                          <samplecharacteristics>
                            <anamorphic>FALSE</anamorphic>
                            <pixelaspectratio>square</pixelaspectratio>
                            <fielddominance>none</fielddominance>
                            <width>1920</width>
                            <height>1080</height>
                          </samplecharacteristics>
                        </video>
                      </media>
                    </file>
                  </clipitem>
                </track>
              </video>
            </media>
          </clip>
          <clip explodedTracks="true" frameBlend="FALSE" id="masterclip-625">
            <uuid>2d7dee85-66e1-4b4d-8d20-e858336bbb9b</uuid>
            <masterclipid>masterclip-625</masterclipid>
            <ismasterclip>TRUE</ismasterclip>
            <duration>672</duration>
            <in>0</in>
            <out>672</out>
            <name>Scene - LJ visemes.623.png</name>
            <rate>
              <timebase>24</timebase>
              <ntsc>FALSE</ntsc>
            </rate>
            <media>
              <video>
                <track>
                  <clipitem frameBlend="FALSE" id="clipitem-626">
                    <name>Scene - LJ visemes.623.png</name>
                    <masterclipid>masterclip-625</masterclipid>
                    <rate>
                      <timebase>24</timebase>
                      <ntsc>FALSE</ntsc>
                    </rate>
                    <alphatype>straight</alphatype>
                    <pixelaspectratio>square</pixelaspectratio>
                    <anamorphic>FALSE</anamorphic>
                    <file id="file-625">
                      <name>Scene - LJ visemes.623.png</name>
                      <pathurl>file://localhost/Users/bot/Documents/CREATE/Character Animator/LJ visemes CH2AE/demo/Scene - LJ visemes/Scene - LJ visemes.623.png</pathurl>
                      <rate>
                        <timebase>24</timebase>
                        <ntsc>FALSE</ntsc>
                      </rate>
                      <duration>672</duration>
                      <timecode>
                        <rate>
                          <timebase>24</timebase>
                          <ntsc>FALSE</ntsc>
                        </rate>
                      </timecode>
                      <media>
                        <video>
                          <duration>1</duration>
                          <samplecharacteristics>
                            <anamorphic>FALSE</anamorphic>
                            <pixelaspectratio>square</pixelaspectratio>
                            <fielddominance>none</fielddominance>
                            <width>1920</width>
                            <height>1080</height>
                          </samplecharacteristics>
                        </video>
                      </media>
                    </file>
                  </clipitem>
                </track>
              </video>
            </media>
          </clip>
          <clip explodedTracks="true" frameBlend="FALSE" id="masterclip-626">
            <uuid>891465d7-c7d9-4e98-b244-0c602ff44372</uuid>
            <masterclipid>masterclip-626</masterclipid>
            <ismasterclip>TRUE</ismasterclip>
            <duration>672</duration>
            <in>0</in>
            <out>672</out>
            <name>Scene - LJ visemes.624.png</name>
            <rate>
              <timebase>24</timebase>
              <ntsc>FALSE</ntsc>
            </rate>
            <media>
              <video>
                <track>
                  <clipitem frameBlend="FALSE" id="clipitem-627">
                    <name>Scene - LJ visemes.624.png</name>
                    <masterclipid>masterclip-626</masterclipid>
                    <rate>
                      <timebase>24</timebase>
                      <ntsc>FALSE</ntsc>
                    </rate>
                    <alphatype>straight</alphatype>
                    <pixelaspectratio>square</pixelaspectratio>
                    <anamorphic>FALSE</anamorphic>
                    <file id="file-626">
                      <name>Scene - LJ visemes.624.png</name>
                      <pathurl>file://localhost/Users/bot/Documents/CREATE/Character Animator/LJ visemes CH2AE/demo/Scene - LJ visemes/Scene - LJ visemes.624.png</pathurl>
                      <rate>
                        <timebase>24</timebase>
                        <ntsc>FALSE</ntsc>
                      </rate>
                      <duration>672</duration>
                      <timecode>
                        <rate>
                          <timebase>24</timebase>
                          <ntsc>FALSE</ntsc>
                        </rate>
                      </timecode>
                      <media>
                        <video>
                          <duration>1</duration>
                          <samplecharacteristics>
                            <anamorphic>FALSE</anamorphic>
                            <pixelaspectratio>square</pixelaspectratio>
                            <fielddominance>none</fielddominance>
                            <width>1920</width>
                            <height>1080</height>
                          </samplecharacteristics>
                        </video>
                      </media>
                    </file>
                  </clipitem>
                </track>
              </video>
            </media>
          </clip>
          <clip explodedTracks="true" frameBlend="FALSE" id="masterclip-627">
            <uuid>d914a6c9-a7be-4fce-9d7a-a0ad4e761b6c</uuid>
            <masterclipid>masterclip-627</masterclipid>
            <ismasterclip>TRUE</ismasterclip>
            <duration>672</duration>
            <in>0</in>
            <out>672</out>
            <name>Scene - LJ visemes.625.png</name>
            <rate>
              <timebase>24</timebase>
              <ntsc>FALSE</ntsc>
            </rate>
            <media>
              <video>
                <track>
                  <clipitem frameBlend="FALSE" id="clipitem-628">
                    <name>Scene - LJ visemes.625.png</name>
                    <masterclipid>masterclip-627</masterclipid>
                    <rate>
                      <timebase>24</timebase>
                      <ntsc>FALSE</ntsc>
                    </rate>
                    <alphatype>straight</alphatype>
                    <pixelaspectratio>square</pixelaspectratio>
                    <anamorphic>FALSE</anamorphic>
                    <file id="file-627">
                      <name>Scene - LJ visemes.625.png</name>
                      <pathurl>file://localhost/Users/bot/Documents/CREATE/Character Animator/LJ visemes CH2AE/demo/Scene - LJ visemes/Scene - LJ visemes.625.png</pathurl>
                      <rate>
                        <timebase>24</timebase>
                        <ntsc>FALSE</ntsc>
                      </rate>
                      <duration>672</duration>
                      <timecode>
                        <rate>
                          <timebase>24</timebase>
                          <ntsc>FALSE</ntsc>
                        </rate>
                      </timecode>
                      <media>
                        <video>
                          <duration>1</duration>
                          <samplecharacteristics>
                            <anamorphic>FALSE</anamorphic>
                            <pixelaspectratio>square</pixelaspectratio>
                            <fielddominance>none</fielddominance>
                            <width>1920</width>
                            <height>1080</height>
                          </samplecharacteristics>
                        </video>
                      </media>
                    </file>
                  </clipitem>
                </track>
              </video>
            </media>
          </clip>
          <clip explodedTracks="true" frameBlend="FALSE" id="masterclip-628">
            <uuid>bf8ddd09-acd9-4744-b55b-e1b3d9ca0eb1</uuid>
            <masterclipid>masterclip-628</masterclipid>
            <ismasterclip>TRUE</ismasterclip>
            <duration>672</duration>
            <in>0</in>
            <out>672</out>
            <name>Scene - LJ visemes.626.png</name>
            <rate>
              <timebase>24</timebase>
              <ntsc>FALSE</ntsc>
            </rate>
            <media>
              <video>
                <track>
                  <clipitem frameBlend="FALSE" id="clipitem-629">
                    <name>Scene - LJ visemes.626.png</name>
                    <masterclipid>masterclip-628</masterclipid>
                    <rate>
                      <timebase>24</timebase>
                      <ntsc>FALSE</ntsc>
                    </rate>
                    <alphatype>straight</alphatype>
                    <pixelaspectratio>square</pixelaspectratio>
                    <anamorphic>FALSE</anamorphic>
                    <file id="file-628">
                      <name>Scene - LJ visemes.626.png</name>
                      <pathurl>file://localhost/Users/bot/Documents/CREATE/Character Animator/LJ visemes CH2AE/demo/Scene - LJ visemes/Scene - LJ visemes.626.png</pathurl>
                      <rate>
                        <timebase>24</timebase>
                        <ntsc>FALSE</ntsc>
                      </rate>
                      <duration>672</duration>
                      <timecode>
                        <rate>
                          <timebase>24</timebase>
                          <ntsc>FALSE</ntsc>
                        </rate>
                      </timecode>
                      <media>
                        <video>
                          <duration>1</duration>
                          <samplecharacteristics>
                            <anamorphic>FALSE</anamorphic>
                            <pixelaspectratio>square</pixelaspectratio>
                            <fielddominance>none</fielddominance>
                            <width>1920</width>
                            <height>1080</height>
                          </samplecharacteristics>
                        </video>
                      </media>
                    </file>
                  </clipitem>
                </track>
              </video>
            </media>
          </clip>
          <clip explodedTracks="true" frameBlend="FALSE" id="masterclip-629">
            <uuid>484dd7dd-a16e-4f02-917c-33f6a77f451f</uuid>
            <masterclipid>masterclip-629</masterclipid>
            <ismasterclip>TRUE</ismasterclip>
            <duration>672</duration>
            <in>0</in>
            <out>672</out>
            <name>Scene - LJ visemes.627.png</name>
            <rate>
              <timebase>24</timebase>
              <ntsc>FALSE</ntsc>
            </rate>
            <media>
              <video>
                <track>
                  <clipitem frameBlend="FALSE" id="clipitem-630">
                    <name>Scene - LJ visemes.627.png</name>
                    <masterclipid>masterclip-629</masterclipid>
                    <rate>
                      <timebase>24</timebase>
                      <ntsc>FALSE</ntsc>
                    </rate>
                    <alphatype>straight</alphatype>
                    <pixelaspectratio>square</pixelaspectratio>
                    <anamorphic>FALSE</anamorphic>
                    <file id="file-629">
                      <name>Scene - LJ visemes.627.png</name>
                      <pathurl>file://localhost/Users/bot/Documents/CREATE/Character Animator/LJ visemes CH2AE/demo/Scene - LJ visemes/Scene - LJ visemes.627.png</pathurl>
                      <rate>
                        <timebase>24</timebase>
                        <ntsc>FALSE</ntsc>
                      </rate>
                      <duration>672</duration>
                      <timecode>
                        <rate>
                          <timebase>24</timebase>
                          <ntsc>FALSE</ntsc>
                        </rate>
                      </timecode>
                      <media>
                        <video>
                          <duration>1</duration>
                          <samplecharacteristics>
                            <anamorphic>FALSE</anamorphic>
                            <pixelaspectratio>square</pixelaspectratio>
                            <fielddominance>none</fielddominance>
                            <width>1920</width>
                            <height>1080</height>
                          </samplecharacteristics>
                        </video>
                      </media>
                    </file>
                  </clipitem>
                </track>
              </video>
            </media>
          </clip>
          <clip explodedTracks="true" frameBlend="FALSE" id="masterclip-630">
            <uuid>99fd0472-9f83-4c7e-90ba-b9550c65fa0e</uuid>
            <masterclipid>masterclip-630</masterclipid>
            <ismasterclip>TRUE</ismasterclip>
            <duration>672</duration>
            <in>0</in>
            <out>672</out>
            <name>Scene - LJ visemes.628.png</name>
            <rate>
              <timebase>24</timebase>
              <ntsc>FALSE</ntsc>
            </rate>
            <media>
              <video>
                <track>
                  <clipitem frameBlend="FALSE" id="clipitem-631">
                    <name>Scene - LJ visemes.628.png</name>
                    <masterclipid>masterclip-630</masterclipid>
                    <rate>
                      <timebase>24</timebase>
                      <ntsc>FALSE</ntsc>
                    </rate>
                    <alphatype>straight</alphatype>
                    <pixelaspectratio>square</pixelaspectratio>
                    <anamorphic>FALSE</anamorphic>
                    <file id="file-630">
                      <name>Scene - LJ visemes.628.png</name>
                      <pathurl>file://localhost/Users/bot/Documents/CREATE/Character Animator/LJ visemes CH2AE/demo/Scene - LJ visemes/Scene - LJ visemes.628.png</pathurl>
                      <rate>
                        <timebase>24</timebase>
                        <ntsc>FALSE</ntsc>
                      </rate>
                      <duration>672</duration>
                      <timecode>
                        <rate>
                          <timebase>24</timebase>
                          <ntsc>FALSE</ntsc>
                        </rate>
                      </timecode>
                      <media>
                        <video>
                          <duration>1</duration>
                          <samplecharacteristics>
                            <anamorphic>FALSE</anamorphic>
                            <pixelaspectratio>square</pixelaspectratio>
                            <fielddominance>none</fielddominance>
                            <width>1920</width>
                            <height>1080</height>
                          </samplecharacteristics>
                        </video>
                      </media>
                    </file>
                  </clipitem>
                </track>
              </video>
            </media>
          </clip>
          <clip explodedTracks="true" frameBlend="FALSE" id="masterclip-631">
            <uuid>bc1aa2e8-8fc9-4f01-9c38-5620232abb41</uuid>
            <masterclipid>masterclip-631</masterclipid>
            <ismasterclip>TRUE</ismasterclip>
            <duration>672</duration>
            <in>0</in>
            <out>672</out>
            <name>Scene - LJ visemes.629.png</name>
            <rate>
              <timebase>24</timebase>
              <ntsc>FALSE</ntsc>
            </rate>
            <media>
              <video>
                <track>
                  <clipitem frameBlend="FALSE" id="clipitem-632">
                    <name>Scene - LJ visemes.629.png</name>
                    <masterclipid>masterclip-631</masterclipid>
                    <rate>
                      <timebase>24</timebase>
                      <ntsc>FALSE</ntsc>
                    </rate>
                    <alphatype>straight</alphatype>
                    <pixelaspectratio>square</pixelaspectratio>
                    <anamorphic>FALSE</anamorphic>
                    <file id="file-631">
                      <name>Scene - LJ visemes.629.png</name>
                      <pathurl>file://localhost/Users/bot/Documents/CREATE/Character Animator/LJ visemes CH2AE/demo/Scene - LJ visemes/Scene - LJ visemes.629.png</pathurl>
                      <rate>
                        <timebase>24</timebase>
                        <ntsc>FALSE</ntsc>
                      </rate>
                      <duration>672</duration>
                      <timecode>
                        <rate>
                          <timebase>24</timebase>
                          <ntsc>FALSE</ntsc>
                        </rate>
                      </timecode>
                      <media>
                        <video>
                          <duration>1</duration>
                          <samplecharacteristics>
                            <anamorphic>FALSE</anamorphic>
                            <pixelaspectratio>square</pixelaspectratio>
                            <fielddominance>none</fielddominance>
                            <width>1920</width>
                            <height>1080</height>
                          </samplecharacteristics>
                        </video>
                      </media>
                    </file>
                  </clipitem>
                </track>
              </video>
            </media>
          </clip>
          <clip explodedTracks="true" frameBlend="FALSE" id="masterclip-632">
            <uuid>3fada2ca-4c34-4bc8-9ada-fbdf731993c7</uuid>
            <masterclipid>masterclip-632</masterclipid>
            <ismasterclip>TRUE</ismasterclip>
            <duration>672</duration>
            <in>0</in>
            <out>672</out>
            <name>Scene - LJ visemes.630.png</name>
            <rate>
              <timebase>24</timebase>
              <ntsc>FALSE</ntsc>
            </rate>
            <media>
              <video>
                <track>
                  <clipitem frameBlend="FALSE" id="clipitem-633">
                    <name>Scene - LJ visemes.630.png</name>
                    <masterclipid>masterclip-632</masterclipid>
                    <rate>
                      <timebase>24</timebase>
                      <ntsc>FALSE</ntsc>
                    </rate>
                    <alphatype>straight</alphatype>
                    <pixelaspectratio>square</pixelaspectratio>
                    <anamorphic>FALSE</anamorphic>
                    <file id="file-632">
                      <name>Scene - LJ visemes.630.png</name>
                      <pathurl>file://localhost/Users/bot/Documents/CREATE/Character Animator/LJ visemes CH2AE/demo/Scene - LJ visemes/Scene - LJ visemes.630.png</pathurl>
                      <rate>
                        <timebase>24</timebase>
                        <ntsc>FALSE</ntsc>
                      </rate>
                      <duration>672</duration>
                      <timecode>
                        <rate>
                          <timebase>24</timebase>
                          <ntsc>FALSE</ntsc>
                        </rate>
                      </timecode>
                      <media>
                        <video>
                          <duration>1</duration>
                          <samplecharacteristics>
                            <anamorphic>FALSE</anamorphic>
                            <pixelaspectratio>square</pixelaspectratio>
                            <fielddominance>none</fielddominance>
                            <width>1920</width>
                            <height>1080</height>
                          </samplecharacteristics>
                        </video>
                      </media>
                    </file>
                  </clipitem>
                </track>
              </video>
            </media>
          </clip>
          <clip explodedTracks="true" frameBlend="FALSE" id="masterclip-633">
            <uuid>7064d5ce-1fe7-4fed-992f-05cb3af38640</uuid>
            <masterclipid>masterclip-633</masterclipid>
            <ismasterclip>TRUE</ismasterclip>
            <duration>672</duration>
            <in>0</in>
            <out>672</out>
            <name>Scene - LJ visemes.631.png</name>
            <rate>
              <timebase>24</timebase>
              <ntsc>FALSE</ntsc>
            </rate>
            <media>
              <video>
                <track>
                  <clipitem frameBlend="FALSE" id="clipitem-634">
                    <name>Scene - LJ visemes.631.png</name>
                    <masterclipid>masterclip-633</masterclipid>
                    <rate>
                      <timebase>24</timebase>
                      <ntsc>FALSE</ntsc>
                    </rate>
                    <alphatype>straight</alphatype>
                    <pixelaspectratio>square</pixelaspectratio>
                    <anamorphic>FALSE</anamorphic>
                    <file id="file-633">
                      <name>Scene - LJ visemes.631.png</name>
                      <pathurl>file://localhost/Users/bot/Documents/CREATE/Character Animator/LJ visemes CH2AE/demo/Scene - LJ visemes/Scene - LJ visemes.631.png</pathurl>
                      <rate>
                        <timebase>24</timebase>
                        <ntsc>FALSE</ntsc>
                      </rate>
                      <duration>672</duration>
                      <timecode>
                        <rate>
                          <timebase>24</timebase>
                          <ntsc>FALSE</ntsc>
                        </rate>
                      </timecode>
                      <media>
                        <video>
                          <duration>1</duration>
                          <samplecharacteristics>
                            <anamorphic>FALSE</anamorphic>
                            <pixelaspectratio>square</pixelaspectratio>
                            <fielddominance>none</fielddominance>
                            <width>1920</width>
                            <height>1080</height>
                          </samplecharacteristics>
                        </video>
                      </media>
                    </file>
                  </clipitem>
                </track>
              </video>
            </media>
          </clip>
          <clip explodedTracks="true" frameBlend="FALSE" id="masterclip-634">
            <uuid>9adbd8fe-8cc3-4130-9692-055df949674a</uuid>
            <masterclipid>masterclip-634</masterclipid>
            <ismasterclip>TRUE</ismasterclip>
            <duration>672</duration>
            <in>0</in>
            <out>672</out>
            <name>Scene - LJ visemes.632.png</name>
            <rate>
              <timebase>24</timebase>
              <ntsc>FALSE</ntsc>
            </rate>
            <media>
              <video>
                <track>
                  <clipitem frameBlend="FALSE" id="clipitem-635">
                    <name>Scene - LJ visemes.632.png</name>
                    <masterclipid>masterclip-634</masterclipid>
                    <rate>
                      <timebase>24</timebase>
                      <ntsc>FALSE</ntsc>
                    </rate>
                    <alphatype>straight</alphatype>
                    <pixelaspectratio>square</pixelaspectratio>
                    <anamorphic>FALSE</anamorphic>
                    <file id="file-634">
                      <name>Scene - LJ visemes.632.png</name>
                      <pathurl>file://localhost/Users/bot/Documents/CREATE/Character Animator/LJ visemes CH2AE/demo/Scene - LJ visemes/Scene - LJ visemes.632.png</pathurl>
                      <rate>
                        <timebase>24</timebase>
                        <ntsc>FALSE</ntsc>
                      </rate>
                      <duration>672</duration>
                      <timecode>
                        <rate>
                          <timebase>24</timebase>
                          <ntsc>FALSE</ntsc>
                        </rate>
                      </timecode>
                      <media>
                        <video>
                          <duration>1</duration>
                          <samplecharacteristics>
                            <anamorphic>FALSE</anamorphic>
                            <pixelaspectratio>square</pixelaspectratio>
                            <fielddominance>none</fielddominance>
                            <width>1920</width>
                            <height>1080</height>
                          </samplecharacteristics>
                        </video>
                      </media>
                    </file>
                  </clipitem>
                </track>
              </video>
            </media>
          </clip>
          <clip explodedTracks="true" frameBlend="FALSE" id="masterclip-635">
            <uuid>575cc45a-d820-48f7-a83b-6b534e946a9c</uuid>
            <masterclipid>masterclip-635</masterclipid>
            <ismasterclip>TRUE</ismasterclip>
            <duration>672</duration>
            <in>0</in>
            <out>672</out>
            <name>Scene - LJ visemes.633.png</name>
            <rate>
              <timebase>24</timebase>
              <ntsc>FALSE</ntsc>
            </rate>
            <media>
              <video>
                <track>
                  <clipitem frameBlend="FALSE" id="clipitem-636">
                    <name>Scene - LJ visemes.633.png</name>
                    <masterclipid>masterclip-635</masterclipid>
                    <rate>
                      <timebase>24</timebase>
                      <ntsc>FALSE</ntsc>
                    </rate>
                    <alphatype>straight</alphatype>
                    <pixelaspectratio>square</pixelaspectratio>
                    <anamorphic>FALSE</anamorphic>
                    <file id="file-635">
                      <name>Scene - LJ visemes.633.png</name>
                      <pathurl>file://localhost/Users/bot/Documents/CREATE/Character Animator/LJ visemes CH2AE/demo/Scene - LJ visemes/Scene - LJ visemes.633.png</pathurl>
                      <rate>
                        <timebase>24</timebase>
                        <ntsc>FALSE</ntsc>
                      </rate>
                      <duration>672</duration>
                      <timecode>
                        <rate>
                          <timebase>24</timebase>
                          <ntsc>FALSE</ntsc>
                        </rate>
                      </timecode>
                      <media>
                        <video>
                          <duration>1</duration>
                          <samplecharacteristics>
                            <anamorphic>FALSE</anamorphic>
                            <pixelaspectratio>square</pixelaspectratio>
                            <fielddominance>none</fielddominance>
                            <width>1920</width>
                            <height>1080</height>
                          </samplecharacteristics>
                        </video>
                      </media>
                    </file>
                  </clipitem>
                </track>
              </video>
            </media>
          </clip>
          <clip explodedTracks="true" frameBlend="FALSE" id="masterclip-636">
            <uuid>36ff83ff-70e4-4f1a-bd0e-d9128164258f</uuid>
            <masterclipid>masterclip-636</masterclipid>
            <ismasterclip>TRUE</ismasterclip>
            <duration>672</duration>
            <in>0</in>
            <out>672</out>
            <name>Scene - LJ visemes.634.png</name>
            <rate>
              <timebase>24</timebase>
              <ntsc>FALSE</ntsc>
            </rate>
            <media>
              <video>
                <track>
                  <clipitem frameBlend="FALSE" id="clipitem-637">
                    <name>Scene - LJ visemes.634.png</name>
                    <masterclipid>masterclip-636</masterclipid>
                    <rate>
                      <timebase>24</timebase>
                      <ntsc>FALSE</ntsc>
                    </rate>
                    <alphatype>straight</alphatype>
                    <pixelaspectratio>square</pixelaspectratio>
                    <anamorphic>FALSE</anamorphic>
                    <file id="file-636">
                      <name>Scene - LJ visemes.634.png</name>
                      <pathurl>file://localhost/Users/bot/Documents/CREATE/Character Animator/LJ visemes CH2AE/demo/Scene - LJ visemes/Scene - LJ visemes.634.png</pathurl>
                      <rate>
                        <timebase>24</timebase>
                        <ntsc>FALSE</ntsc>
                      </rate>
                      <duration>672</duration>
                      <timecode>
                        <rate>
                          <timebase>24</timebase>
                          <ntsc>FALSE</ntsc>
                        </rate>
                      </timecode>
                      <media>
                        <video>
                          <duration>1</duration>
                          <samplecharacteristics>
                            <anamorphic>FALSE</anamorphic>
                            <pixelaspectratio>square</pixelaspectratio>
                            <fielddominance>none</fielddominance>
                            <width>1920</width>
                            <height>1080</height>
                          </samplecharacteristics>
                        </video>
                      </media>
                    </file>
                  </clipitem>
                </track>
              </video>
            </media>
          </clip>
          <clip explodedTracks="true" frameBlend="FALSE" id="masterclip-637">
            <uuid>cbdddc04-8942-4d98-9ea5-94fb66a6c7c1</uuid>
            <masterclipid>masterclip-637</masterclipid>
            <ismasterclip>TRUE</ismasterclip>
            <duration>672</duration>
            <in>0</in>
            <out>672</out>
            <name>Scene - LJ visemes.635.png</name>
            <rate>
              <timebase>24</timebase>
              <ntsc>FALSE</ntsc>
            </rate>
            <media>
              <video>
                <track>
                  <clipitem frameBlend="FALSE" id="clipitem-638">
                    <name>Scene - LJ visemes.635.png</name>
                    <masterclipid>masterclip-637</masterclipid>
                    <rate>
                      <timebase>24</timebase>
                      <ntsc>FALSE</ntsc>
                    </rate>
                    <alphatype>straight</alphatype>
                    <pixelaspectratio>square</pixelaspectratio>
                    <anamorphic>FALSE</anamorphic>
                    <file id="file-637">
                      <name>Scene - LJ visemes.635.png</name>
                      <pathurl>file://localhost/Users/bot/Documents/CREATE/Character Animator/LJ visemes CH2AE/demo/Scene - LJ visemes/Scene - LJ visemes.635.png</pathurl>
                      <rate>
                        <timebase>24</timebase>
                        <ntsc>FALSE</ntsc>
                      </rate>
                      <duration>672</duration>
                      <timecode>
                        <rate>
                          <timebase>24</timebase>
                          <ntsc>FALSE</ntsc>
                        </rate>
                      </timecode>
                      <media>
                        <video>
                          <duration>1</duration>
                          <samplecharacteristics>
                            <anamorphic>FALSE</anamorphic>
                            <pixelaspectratio>square</pixelaspectratio>
                            <fielddominance>none</fielddominance>
                            <width>1920</width>
                            <height>1080</height>
                          </samplecharacteristics>
                        </video>
                      </media>
                    </file>
                  </clipitem>
                </track>
              </video>
            </media>
          </clip>
          <clip explodedTracks="true" frameBlend="FALSE" id="masterclip-638">
            <uuid>347368bb-c437-405b-a316-7dfb996daa56</uuid>
            <masterclipid>masterclip-638</masterclipid>
            <ismasterclip>TRUE</ismasterclip>
            <duration>672</duration>
            <in>0</in>
            <out>672</out>
            <name>Scene - LJ visemes.636.png</name>
            <rate>
              <timebase>24</timebase>
              <ntsc>FALSE</ntsc>
            </rate>
            <media>
              <video>
                <track>
                  <clipitem frameBlend="FALSE" id="clipitem-639">
                    <name>Scene - LJ visemes.636.png</name>
                    <masterclipid>masterclip-638</masterclipid>
                    <rate>
                      <timebase>24</timebase>
                      <ntsc>FALSE</ntsc>
                    </rate>
                    <alphatype>straight</alphatype>
                    <pixelaspectratio>square</pixelaspectratio>
                    <anamorphic>FALSE</anamorphic>
                    <file id="file-638">
                      <name>Scene - LJ visemes.636.png</name>
                      <pathurl>file://localhost/Users/bot/Documents/CREATE/Character Animator/LJ visemes CH2AE/demo/Scene - LJ visemes/Scene - LJ visemes.636.png</pathurl>
                      <rate>
                        <timebase>24</timebase>
                        <ntsc>FALSE</ntsc>
                      </rate>
                      <duration>672</duration>
                      <timecode>
                        <rate>
                          <timebase>24</timebase>
                          <ntsc>FALSE</ntsc>
                        </rate>
                      </timecode>
                      <media>
                        <video>
                          <duration>1</duration>
                          <samplecharacteristics>
                            <anamorphic>FALSE</anamorphic>
                            <pixelaspectratio>square</pixelaspectratio>
                            <fielddominance>none</fielddominance>
                            <width>1920</width>
                            <height>1080</height>
                          </samplecharacteristics>
                        </video>
                      </media>
                    </file>
                  </clipitem>
                </track>
              </video>
            </media>
          </clip>
          <clip explodedTracks="true" frameBlend="FALSE" id="masterclip-639">
            <uuid>0237d46e-43d4-4119-b00d-06a78e49ffa4</uuid>
            <masterclipid>masterclip-639</masterclipid>
            <ismasterclip>TRUE</ismasterclip>
            <duration>672</duration>
            <in>0</in>
            <out>672</out>
            <name>Scene - LJ visemes.637.png</name>
            <rate>
              <timebase>24</timebase>
              <ntsc>FALSE</ntsc>
            </rate>
            <media>
              <video>
                <track>
                  <clipitem frameBlend="FALSE" id="clipitem-640">
                    <name>Scene - LJ visemes.637.png</name>
                    <masterclipid>masterclip-639</masterclipid>
                    <rate>
                      <timebase>24</timebase>
                      <ntsc>FALSE</ntsc>
                    </rate>
                    <alphatype>straight</alphatype>
                    <pixelaspectratio>square</pixelaspectratio>
                    <anamorphic>FALSE</anamorphic>
                    <file id="file-639">
                      <name>Scene - LJ visemes.637.png</name>
                      <pathurl>file://localhost/Users/bot/Documents/CREATE/Character Animator/LJ visemes CH2AE/demo/Scene - LJ visemes/Scene - LJ visemes.637.png</pathurl>
                      <rate>
                        <timebase>24</timebase>
                        <ntsc>FALSE</ntsc>
                      </rate>
                      <duration>672</duration>
                      <timecode>
                        <rate>
                          <timebase>24</timebase>
                          <ntsc>FALSE</ntsc>
                        </rate>
                      </timecode>
                      <media>
                        <video>
                          <duration>1</duration>
                          <samplecharacteristics>
                            <anamorphic>FALSE</anamorphic>
                            <pixelaspectratio>square</pixelaspectratio>
                            <fielddominance>none</fielddominance>
                            <width>1920</width>
                            <height>1080</height>
                          </samplecharacteristics>
                        </video>
                      </media>
                    </file>
                  </clipitem>
                </track>
              </video>
            </media>
          </clip>
          <clip explodedTracks="true" frameBlend="FALSE" id="masterclip-640">
            <uuid>70832237-35e9-4230-9e89-7b01757f64c5</uuid>
            <masterclipid>masterclip-640</masterclipid>
            <ismasterclip>TRUE</ismasterclip>
            <duration>672</duration>
            <in>0</in>
            <out>672</out>
            <name>Scene - LJ visemes.638.png</name>
            <rate>
              <timebase>24</timebase>
              <ntsc>FALSE</ntsc>
            </rate>
            <media>
              <video>
                <track>
                  <clipitem frameBlend="FALSE" id="clipitem-641">
                    <name>Scene - LJ visemes.638.png</name>
                    <masterclipid>masterclip-640</masterclipid>
                    <rate>
                      <timebase>24</timebase>
                      <ntsc>FALSE</ntsc>
                    </rate>
                    <alphatype>straight</alphatype>
                    <pixelaspectratio>square</pixelaspectratio>
                    <anamorphic>FALSE</anamorphic>
                    <file id="file-640">
                      <name>Scene - LJ visemes.638.png</name>
                      <pathurl>file://localhost/Users/bot/Documents/CREATE/Character Animator/LJ visemes CH2AE/demo/Scene - LJ visemes/Scene - LJ visemes.638.png</pathurl>
                      <rate>
                        <timebase>24</timebase>
                        <ntsc>FALSE</ntsc>
                      </rate>
                      <duration>672</duration>
                      <timecode>
                        <rate>
                          <timebase>24</timebase>
                          <ntsc>FALSE</ntsc>
                        </rate>
                      </timecode>
                      <media>
                        <video>
                          <duration>1</duration>
                          <samplecharacteristics>
                            <anamorphic>FALSE</anamorphic>
                            <pixelaspectratio>square</pixelaspectratio>
                            <fielddominance>none</fielddominance>
                            <width>1920</width>
                            <height>1080</height>
                          </samplecharacteristics>
                        </video>
                      </media>
                    </file>
                  </clipitem>
                </track>
              </video>
            </media>
          </clip>
          <clip explodedTracks="true" frameBlend="FALSE" id="masterclip-641">
            <uuid>53e5523e-4193-4576-8428-158a7edc08e6</uuid>
            <masterclipid>masterclip-641</masterclipid>
            <ismasterclip>TRUE</ismasterclip>
            <duration>672</duration>
            <in>0</in>
            <out>672</out>
            <name>Scene - LJ visemes.639.png</name>
            <rate>
              <timebase>24</timebase>
              <ntsc>FALSE</ntsc>
            </rate>
            <media>
              <video>
                <track>
                  <clipitem frameBlend="FALSE" id="clipitem-642">
                    <name>Scene - LJ visemes.639.png</name>
                    <masterclipid>masterclip-641</masterclipid>
                    <rate>
                      <timebase>24</timebase>
                      <ntsc>FALSE</ntsc>
                    </rate>
                    <alphatype>straight</alphatype>
                    <pixelaspectratio>square</pixelaspectratio>
                    <anamorphic>FALSE</anamorphic>
                    <file id="file-641">
                      <name>Scene - LJ visemes.639.png</name>
                      <pathurl>file://localhost/Users/bot/Documents/CREATE/Character Animator/LJ visemes CH2AE/demo/Scene - LJ visemes/Scene - LJ visemes.639.png</pathurl>
                      <rate>
                        <timebase>24</timebase>
                        <ntsc>FALSE</ntsc>
                      </rate>
                      <duration>672</duration>
                      <timecode>
                        <rate>
                          <timebase>24</timebase>
                          <ntsc>FALSE</ntsc>
                        </rate>
                      </timecode>
                      <media>
                        <video>
                          <duration>1</duration>
                          <samplecharacteristics>
                            <anamorphic>FALSE</anamorphic>
                            <pixelaspectratio>square</pixelaspectratio>
                            <fielddominance>none</fielddominance>
                            <width>1920</width>
                            <height>1080</height>
                          </samplecharacteristics>
                        </video>
                      </media>
                    </file>
                  </clipitem>
                </track>
              </video>
            </media>
          </clip>
          <clip explodedTracks="true" frameBlend="FALSE" id="masterclip-642">
            <uuid>655d1db8-e690-4ac8-a77b-697fc12a84a3</uuid>
            <masterclipid>masterclip-642</masterclipid>
            <ismasterclip>TRUE</ismasterclip>
            <duration>672</duration>
            <in>0</in>
            <out>672</out>
            <name>Scene - LJ visemes.640.png</name>
            <rate>
              <timebase>24</timebase>
              <ntsc>FALSE</ntsc>
            </rate>
            <media>
              <video>
                <track>
                  <clipitem frameBlend="FALSE" id="clipitem-643">
                    <name>Scene - LJ visemes.640.png</name>
                    <masterclipid>masterclip-642</masterclipid>
                    <rate>
                      <timebase>24</timebase>
                      <ntsc>FALSE</ntsc>
                    </rate>
                    <alphatype>straight</alphatype>
                    <pixelaspectratio>square</pixelaspectratio>
                    <anamorphic>FALSE</anamorphic>
                    <file id="file-642">
                      <name>Scene - LJ visemes.640.png</name>
                      <pathurl>file://localhost/Users/bot/Documents/CREATE/Character Animator/LJ visemes CH2AE/demo/Scene - LJ visemes/Scene - LJ visemes.640.png</pathurl>
                      <rate>
                        <timebase>24</timebase>
                        <ntsc>FALSE</ntsc>
                      </rate>
                      <duration>672</duration>
                      <timecode>
                        <rate>
                          <timebase>24</timebase>
                          <ntsc>FALSE</ntsc>
                        </rate>
                      </timecode>
                      <media>
                        <video>
                          <duration>1</duration>
                          <samplecharacteristics>
                            <anamorphic>FALSE</anamorphic>
                            <pixelaspectratio>square</pixelaspectratio>
                            <fielddominance>none</fielddominance>
                            <width>1920</width>
                            <height>1080</height>
                          </samplecharacteristics>
                        </video>
                      </media>
                    </file>
                  </clipitem>
                </track>
              </video>
            </media>
          </clip>
          <clip explodedTracks="true" frameBlend="FALSE" id="masterclip-643">
            <uuid>46dc813a-4587-4117-9faf-a05065080c3e</uuid>
            <masterclipid>masterclip-643</masterclipid>
            <ismasterclip>TRUE</ismasterclip>
            <duration>672</duration>
            <in>0</in>
            <out>672</out>
            <name>Scene - LJ visemes.641.png</name>
            <rate>
              <timebase>24</timebase>
              <ntsc>FALSE</ntsc>
            </rate>
            <media>
              <video>
                <track>
                  <clipitem frameBlend="FALSE" id="clipitem-644">
                    <name>Scene - LJ visemes.641.png</name>
                    <masterclipid>masterclip-643</masterclipid>
                    <rate>
                      <timebase>24</timebase>
                      <ntsc>FALSE</ntsc>
                    </rate>
                    <alphatype>straight</alphatype>
                    <pixelaspectratio>square</pixelaspectratio>
                    <anamorphic>FALSE</anamorphic>
                    <file id="file-643">
                      <name>Scene - LJ visemes.641.png</name>
                      <pathurl>file://localhost/Users/bot/Documents/CREATE/Character Animator/LJ visemes CH2AE/demo/Scene - LJ visemes/Scene - LJ visemes.641.png</pathurl>
                      <rate>
                        <timebase>24</timebase>
                        <ntsc>FALSE</ntsc>
                      </rate>
                      <duration>672</duration>
                      <timecode>
                        <rate>
                          <timebase>24</timebase>
                          <ntsc>FALSE</ntsc>
                        </rate>
                      </timecode>
                      <media>
                        <video>
                          <duration>1</duration>
                          <samplecharacteristics>
                            <anamorphic>FALSE</anamorphic>
                            <pixelaspectratio>square</pixelaspectratio>
                            <fielddominance>none</fielddominance>
                            <width>1920</width>
                            <height>1080</height>
                          </samplecharacteristics>
                        </video>
                      </media>
                    </file>
                  </clipitem>
                </track>
              </video>
            </media>
          </clip>
          <clip explodedTracks="true" frameBlend="FALSE" id="masterclip-644">
            <uuid>f1f8a8cd-370d-42c8-8f15-ab2d72d48188</uuid>
            <masterclipid>masterclip-644</masterclipid>
            <ismasterclip>TRUE</ismasterclip>
            <duration>672</duration>
            <in>0</in>
            <out>672</out>
            <name>Scene - LJ visemes.642.png</name>
            <rate>
              <timebase>24</timebase>
              <ntsc>FALSE</ntsc>
            </rate>
            <media>
              <video>
                <track>
                  <clipitem frameBlend="FALSE" id="clipitem-645">
                    <name>Scene - LJ visemes.642.png</name>
                    <masterclipid>masterclip-644</masterclipid>
                    <rate>
                      <timebase>24</timebase>
                      <ntsc>FALSE</ntsc>
                    </rate>
                    <alphatype>straight</alphatype>
                    <pixelaspectratio>square</pixelaspectratio>
                    <anamorphic>FALSE</anamorphic>
                    <file id="file-644">
                      <name>Scene - LJ visemes.642.png</name>
                      <pathurl>file://localhost/Users/bot/Documents/CREATE/Character Animator/LJ visemes CH2AE/demo/Scene - LJ visemes/Scene - LJ visemes.642.png</pathurl>
                      <rate>
                        <timebase>24</timebase>
                        <ntsc>FALSE</ntsc>
                      </rate>
                      <duration>672</duration>
                      <timecode>
                        <rate>
                          <timebase>24</timebase>
                          <ntsc>FALSE</ntsc>
                        </rate>
                      </timecode>
                      <media>
                        <video>
                          <duration>1</duration>
                          <samplecharacteristics>
                            <anamorphic>FALSE</anamorphic>
                            <pixelaspectratio>square</pixelaspectratio>
                            <fielddominance>none</fielddominance>
                            <width>1920</width>
                            <height>1080</height>
                          </samplecharacteristics>
                        </video>
                      </media>
                    </file>
                  </clipitem>
                </track>
              </video>
            </media>
          </clip>
          <clip explodedTracks="true" frameBlend="FALSE" id="masterclip-645">
            <uuid>f59c2f92-b871-4018-9d4e-3aebb64c384c</uuid>
            <masterclipid>masterclip-645</masterclipid>
            <ismasterclip>TRUE</ismasterclip>
            <duration>672</duration>
            <in>0</in>
            <out>672</out>
            <name>Scene - LJ visemes.643.png</name>
            <rate>
              <timebase>24</timebase>
              <ntsc>FALSE</ntsc>
            </rate>
            <media>
              <video>
                <track>
                  <clipitem frameBlend="FALSE" id="clipitem-646">
                    <name>Scene - LJ visemes.643.png</name>
                    <masterclipid>masterclip-645</masterclipid>
                    <rate>
                      <timebase>24</timebase>
                      <ntsc>FALSE</ntsc>
                    </rate>
                    <alphatype>straight</alphatype>
                    <pixelaspectratio>square</pixelaspectratio>
                    <anamorphic>FALSE</anamorphic>
                    <file id="file-645">
                      <name>Scene - LJ visemes.643.png</name>
                      <pathurl>file://localhost/Users/bot/Documents/CREATE/Character Animator/LJ visemes CH2AE/demo/Scene - LJ visemes/Scene - LJ visemes.643.png</pathurl>
                      <rate>
                        <timebase>24</timebase>
                        <ntsc>FALSE</ntsc>
                      </rate>
                      <duration>672</duration>
                      <timecode>
                        <rate>
                          <timebase>24</timebase>
                          <ntsc>FALSE</ntsc>
                        </rate>
                      </timecode>
                      <media>
                        <video>
                          <duration>1</duration>
                          <samplecharacteristics>
                            <anamorphic>FALSE</anamorphic>
                            <pixelaspectratio>square</pixelaspectratio>
                            <fielddominance>none</fielddominance>
                            <width>1920</width>
                            <height>1080</height>
                          </samplecharacteristics>
                        </video>
                      </media>
                    </file>
                  </clipitem>
                </track>
              </video>
            </media>
          </clip>
          <clip explodedTracks="true" frameBlend="FALSE" id="masterclip-646">
            <uuid>ea54fd83-f8ba-457b-9e3c-d2b4624d8b84</uuid>
            <masterclipid>masterclip-646</masterclipid>
            <ismasterclip>TRUE</ismasterclip>
            <duration>672</duration>
            <in>0</in>
            <out>672</out>
            <name>Scene - LJ visemes.644.png</name>
            <rate>
              <timebase>24</timebase>
              <ntsc>FALSE</ntsc>
            </rate>
            <media>
              <video>
                <track>
                  <clipitem frameBlend="FALSE" id="clipitem-647">
                    <name>Scene - LJ visemes.644.png</name>
                    <masterclipid>masterclip-646</masterclipid>
                    <rate>
                      <timebase>24</timebase>
                      <ntsc>FALSE</ntsc>
                    </rate>
                    <alphatype>straight</alphatype>
                    <pixelaspectratio>square</pixelaspectratio>
                    <anamorphic>FALSE</anamorphic>
                    <file id="file-646">
                      <name>Scene - LJ visemes.644.png</name>
                      <pathurl>file://localhost/Users/bot/Documents/CREATE/Character Animator/LJ visemes CH2AE/demo/Scene - LJ visemes/Scene - LJ visemes.644.png</pathurl>
                      <rate>
                        <timebase>24</timebase>
                        <ntsc>FALSE</ntsc>
                      </rate>
                      <duration>672</duration>
                      <timecode>
                        <rate>
                          <timebase>24</timebase>
                          <ntsc>FALSE</ntsc>
                        </rate>
                      </timecode>
                      <media>
                        <video>
                          <duration>1</duration>
                          <samplecharacteristics>
                            <anamorphic>FALSE</anamorphic>
                            <pixelaspectratio>square</pixelaspectratio>
                            <fielddominance>none</fielddominance>
                            <width>1920</width>
                            <height>1080</height>
                          </samplecharacteristics>
                        </video>
                      </media>
                    </file>
                  </clipitem>
                </track>
              </video>
            </media>
          </clip>
          <clip explodedTracks="true" frameBlend="FALSE" id="masterclip-647">
            <uuid>ae2c1710-f426-402f-af8c-1c759e320be2</uuid>
            <masterclipid>masterclip-647</masterclipid>
            <ismasterclip>TRUE</ismasterclip>
            <duration>672</duration>
            <in>0</in>
            <out>672</out>
            <name>Scene - LJ visemes.645.png</name>
            <rate>
              <timebase>24</timebase>
              <ntsc>FALSE</ntsc>
            </rate>
            <media>
              <video>
                <track>
                  <clipitem frameBlend="FALSE" id="clipitem-648">
                    <name>Scene - LJ visemes.645.png</name>
                    <masterclipid>masterclip-647</masterclipid>
                    <rate>
                      <timebase>24</timebase>
                      <ntsc>FALSE</ntsc>
                    </rate>
                    <alphatype>straight</alphatype>
                    <pixelaspectratio>square</pixelaspectratio>
                    <anamorphic>FALSE</anamorphic>
                    <file id="file-647">
                      <name>Scene - LJ visemes.645.png</name>
                      <pathurl>file://localhost/Users/bot/Documents/CREATE/Character Animator/LJ visemes CH2AE/demo/Scene - LJ visemes/Scene - LJ visemes.645.png</pathurl>
                      <rate>
                        <timebase>24</timebase>
                        <ntsc>FALSE</ntsc>
                      </rate>
                      <duration>672</duration>
                      <timecode>
                        <rate>
                          <timebase>24</timebase>
                          <ntsc>FALSE</ntsc>
                        </rate>
                      </timecode>
                      <media>
                        <video>
                          <duration>1</duration>
                          <samplecharacteristics>
                            <anamorphic>FALSE</anamorphic>
                            <pixelaspectratio>square</pixelaspectratio>
                            <fielddominance>none</fielddominance>
                            <width>1920</width>
                            <height>1080</height>
                          </samplecharacteristics>
                        </video>
                      </media>
                    </file>
                  </clipitem>
                </track>
              </video>
            </media>
          </clip>
          <clip explodedTracks="true" frameBlend="FALSE" id="masterclip-648">
            <uuid>4d114c17-8505-456d-acb3-ad53b54b71aa</uuid>
            <masterclipid>masterclip-648</masterclipid>
            <ismasterclip>TRUE</ismasterclip>
            <duration>672</duration>
            <in>0</in>
            <out>672</out>
            <name>Scene - LJ visemes.646.png</name>
            <rate>
              <timebase>24</timebase>
              <ntsc>FALSE</ntsc>
            </rate>
            <media>
              <video>
                <track>
                  <clipitem frameBlend="FALSE" id="clipitem-649">
                    <name>Scene - LJ visemes.646.png</name>
                    <masterclipid>masterclip-648</masterclipid>
                    <rate>
                      <timebase>24</timebase>
                      <ntsc>FALSE</ntsc>
                    </rate>
                    <alphatype>straight</alphatype>
                    <pixelaspectratio>square</pixelaspectratio>
                    <anamorphic>FALSE</anamorphic>
                    <file id="file-648">
                      <name>Scene - LJ visemes.646.png</name>
                      <pathurl>file://localhost/Users/bot/Documents/CREATE/Character Animator/LJ visemes CH2AE/demo/Scene - LJ visemes/Scene - LJ visemes.646.png</pathurl>
                      <rate>
                        <timebase>24</timebase>
                        <ntsc>FALSE</ntsc>
                      </rate>
                      <duration>672</duration>
                      <timecode>
                        <rate>
                          <timebase>24</timebase>
                          <ntsc>FALSE</ntsc>
                        </rate>
                      </timecode>
                      <media>
                        <video>
                          <duration>1</duration>
                          <samplecharacteristics>
                            <anamorphic>FALSE</anamorphic>
                            <pixelaspectratio>square</pixelaspectratio>
                            <fielddominance>none</fielddominance>
                            <width>1920</width>
                            <height>1080</height>
                          </samplecharacteristics>
                        </video>
                      </media>
                    </file>
                  </clipitem>
                </track>
              </video>
            </media>
          </clip>
          <clip explodedTracks="true" frameBlend="FALSE" id="masterclip-649">
            <uuid>e7be7d1c-5978-473b-92d7-621303a76574</uuid>
            <masterclipid>masterclip-649</masterclipid>
            <ismasterclip>TRUE</ismasterclip>
            <duration>672</duration>
            <in>0</in>
            <out>672</out>
            <name>Scene - LJ visemes.647.png</name>
            <rate>
              <timebase>24</timebase>
              <ntsc>FALSE</ntsc>
            </rate>
            <media>
              <video>
                <track>
                  <clipitem frameBlend="FALSE" id="clipitem-650">
                    <name>Scene - LJ visemes.647.png</name>
                    <masterclipid>masterclip-649</masterclipid>
                    <rate>
                      <timebase>24</timebase>
                      <ntsc>FALSE</ntsc>
                    </rate>
                    <alphatype>straight</alphatype>
                    <pixelaspectratio>square</pixelaspectratio>
                    <anamorphic>FALSE</anamorphic>
                    <file id="file-649">
                      <name>Scene - LJ visemes.647.png</name>
                      <pathurl>file://localhost/Users/bot/Documents/CREATE/Character Animator/LJ visemes CH2AE/demo/Scene - LJ visemes/Scene - LJ visemes.647.png</pathurl>
                      <rate>
                        <timebase>24</timebase>
                        <ntsc>FALSE</ntsc>
                      </rate>
                      <duration>672</duration>
                      <timecode>
                        <rate>
                          <timebase>24</timebase>
                          <ntsc>FALSE</ntsc>
                        </rate>
                      </timecode>
                      <media>
                        <video>
                          <duration>1</duration>
                          <samplecharacteristics>
                            <anamorphic>FALSE</anamorphic>
                            <pixelaspectratio>square</pixelaspectratio>
                            <fielddominance>none</fielddominance>
                            <width>1920</width>
                            <height>1080</height>
                          </samplecharacteristics>
                        </video>
                      </media>
                    </file>
                  </clipitem>
                </track>
              </video>
            </media>
          </clip>
          <clip explodedTracks="true" frameBlend="FALSE" id="masterclip-650">
            <uuid>62bb6f27-1c5b-4a05-aec2-ad1b3731bd13</uuid>
            <masterclipid>masterclip-650</masterclipid>
            <ismasterclip>TRUE</ismasterclip>
            <duration>672</duration>
            <in>0</in>
            <out>672</out>
            <name>Scene - LJ visemes.648.png</name>
            <rate>
              <timebase>24</timebase>
              <ntsc>FALSE</ntsc>
            </rate>
            <media>
              <video>
                <track>
                  <clipitem frameBlend="FALSE" id="clipitem-651">
                    <name>Scene - LJ visemes.648.png</name>
                    <masterclipid>masterclip-650</masterclipid>
                    <rate>
                      <timebase>24</timebase>
                      <ntsc>FALSE</ntsc>
                    </rate>
                    <alphatype>straight</alphatype>
                    <pixelaspectratio>square</pixelaspectratio>
                    <anamorphic>FALSE</anamorphic>
                    <file id="file-650">
                      <name>Scene - LJ visemes.648.png</name>
                      <pathurl>file://localhost/Users/bot/Documents/CREATE/Character Animator/LJ visemes CH2AE/demo/Scene - LJ visemes/Scene - LJ visemes.648.png</pathurl>
                      <rate>
                        <timebase>24</timebase>
                        <ntsc>FALSE</ntsc>
                      </rate>
                      <duration>672</duration>
                      <timecode>
                        <rate>
                          <timebase>24</timebase>
                          <ntsc>FALSE</ntsc>
                        </rate>
                      </timecode>
                      <media>
                        <video>
                          <duration>1</duration>
                          <samplecharacteristics>
                            <anamorphic>FALSE</anamorphic>
                            <pixelaspectratio>square</pixelaspectratio>
                            <fielddominance>none</fielddominance>
                            <width>1920</width>
                            <height>1080</height>
                          </samplecharacteristics>
                        </video>
                      </media>
                    </file>
                  </clipitem>
                </track>
              </video>
            </media>
          </clip>
          <clip explodedTracks="true" frameBlend="FALSE" id="masterclip-651">
            <uuid>e4e94f91-971d-4212-87ca-025064b8ca6f</uuid>
            <masterclipid>masterclip-651</masterclipid>
            <ismasterclip>TRUE</ismasterclip>
            <duration>672</duration>
            <in>0</in>
            <out>672</out>
            <name>Scene - LJ visemes.649.png</name>
            <rate>
              <timebase>24</timebase>
              <ntsc>FALSE</ntsc>
            </rate>
            <media>
              <video>
                <track>
                  <clipitem frameBlend="FALSE" id="clipitem-652">
                    <name>Scene - LJ visemes.649.png</name>
                    <masterclipid>masterclip-651</masterclipid>
                    <rate>
                      <timebase>24</timebase>
                      <ntsc>FALSE</ntsc>
                    </rate>
                    <alphatype>straight</alphatype>
                    <pixelaspectratio>square</pixelaspectratio>
                    <anamorphic>FALSE</anamorphic>
                    <file id="file-651">
                      <name>Scene - LJ visemes.649.png</name>
                      <pathurl>file://localhost/Users/bot/Documents/CREATE/Character Animator/LJ visemes CH2AE/demo/Scene - LJ visemes/Scene - LJ visemes.649.png</pathurl>
                      <rate>
                        <timebase>24</timebase>
                        <ntsc>FALSE</ntsc>
                      </rate>
                      <duration>672</duration>
                      <timecode>
                        <rate>
                          <timebase>24</timebase>
                          <ntsc>FALSE</ntsc>
                        </rate>
                      </timecode>
                      <media>
                        <video>
                          <duration>1</duration>
                          <samplecharacteristics>
                            <anamorphic>FALSE</anamorphic>
                            <pixelaspectratio>square</pixelaspectratio>
                            <fielddominance>none</fielddominance>
                            <width>1920</width>
                            <height>1080</height>
                          </samplecharacteristics>
                        </video>
                      </media>
                    </file>
                  </clipitem>
                </track>
              </video>
            </media>
          </clip>
          <clip explodedTracks="true" frameBlend="FALSE" id="masterclip-652">
            <uuid>a9096aad-a879-4b0d-bf7d-9f0439fe2b63</uuid>
            <masterclipid>masterclip-652</masterclipid>
            <ismasterclip>TRUE</ismasterclip>
            <duration>672</duration>
            <in>0</in>
            <out>672</out>
            <name>Scene - LJ visemes.650.png</name>
            <rate>
              <timebase>24</timebase>
              <ntsc>FALSE</ntsc>
            </rate>
            <media>
              <video>
                <track>
                  <clipitem frameBlend="FALSE" id="clipitem-653">
                    <name>Scene - LJ visemes.650.png</name>
                    <masterclipid>masterclip-652</masterclipid>
                    <rate>
                      <timebase>24</timebase>
                      <ntsc>FALSE</ntsc>
                    </rate>
                    <alphatype>straight</alphatype>
                    <pixelaspectratio>square</pixelaspectratio>
                    <anamorphic>FALSE</anamorphic>
                    <file id="file-652">
                      <name>Scene - LJ visemes.650.png</name>
                      <pathurl>file://localhost/Users/bot/Documents/CREATE/Character Animator/LJ visemes CH2AE/demo/Scene - LJ visemes/Scene - LJ visemes.650.png</pathurl>
                      <rate>
                        <timebase>24</timebase>
                        <ntsc>FALSE</ntsc>
                      </rate>
                      <duration>672</duration>
                      <timecode>
                        <rate>
                          <timebase>24</timebase>
                          <ntsc>FALSE</ntsc>
                        </rate>
                      </timecode>
                      <media>
                        <video>
                          <duration>1</duration>
                          <samplecharacteristics>
                            <anamorphic>FALSE</anamorphic>
                            <pixelaspectratio>square</pixelaspectratio>
                            <fielddominance>none</fielddominance>
                            <width>1920</width>
                            <height>1080</height>
                          </samplecharacteristics>
                        </video>
                      </media>
                    </file>
                  </clipitem>
                </track>
              </video>
            </media>
          </clip>
          <clip explodedTracks="true" frameBlend="FALSE" id="masterclip-653">
            <uuid>e33530c2-1601-4aad-a2ae-58549e5abcdc</uuid>
            <masterclipid>masterclip-653</masterclipid>
            <ismasterclip>TRUE</ismasterclip>
            <duration>672</duration>
            <in>0</in>
            <out>672</out>
            <name>Scene - LJ visemes.651.png</name>
            <rate>
              <timebase>24</timebase>
              <ntsc>FALSE</ntsc>
            </rate>
            <media>
              <video>
                <track>
                  <clipitem frameBlend="FALSE" id="clipitem-654">
                    <name>Scene - LJ visemes.651.png</name>
                    <masterclipid>masterclip-653</masterclipid>
                    <rate>
                      <timebase>24</timebase>
                      <ntsc>FALSE</ntsc>
                    </rate>
                    <alphatype>straight</alphatype>
                    <pixelaspectratio>square</pixelaspectratio>
                    <anamorphic>FALSE</anamorphic>
                    <file id="file-653">
                      <name>Scene - LJ visemes.651.png</name>
                      <pathurl>file://localhost/Users/bot/Documents/CREATE/Character Animator/LJ visemes CH2AE/demo/Scene - LJ visemes/Scene - LJ visemes.651.png</pathurl>
                      <rate>
                        <timebase>24</timebase>
                        <ntsc>FALSE</ntsc>
                      </rate>
                      <duration>672</duration>
                      <timecode>
                        <rate>
                          <timebase>24</timebase>
                          <ntsc>FALSE</ntsc>
                        </rate>
                      </timecode>
                      <media>
                        <video>
                          <duration>1</duration>
                          <samplecharacteristics>
                            <anamorphic>FALSE</anamorphic>
                            <pixelaspectratio>square</pixelaspectratio>
                            <fielddominance>none</fielddominance>
                            <width>1920</width>
                            <height>1080</height>
                          </samplecharacteristics>
                        </video>
                      </media>
                    </file>
                  </clipitem>
                </track>
              </video>
            </media>
          </clip>
          <clip explodedTracks="true" frameBlend="FALSE" id="masterclip-654">
            <uuid>8ac7e085-8b9e-4eaa-8b3e-d369bbce5bc5</uuid>
            <masterclipid>masterclip-654</masterclipid>
            <ismasterclip>TRUE</ismasterclip>
            <duration>672</duration>
            <in>0</in>
            <out>672</out>
            <name>Scene - LJ visemes.652.png</name>
            <rate>
              <timebase>24</timebase>
              <ntsc>FALSE</ntsc>
            </rate>
            <media>
              <video>
                <track>
                  <clipitem frameBlend="FALSE" id="clipitem-655">
                    <name>Scene - LJ visemes.652.png</name>
                    <masterclipid>masterclip-654</masterclipid>
                    <rate>
                      <timebase>24</timebase>
                      <ntsc>FALSE</ntsc>
                    </rate>
                    <alphatype>straight</alphatype>
                    <pixelaspectratio>square</pixelaspectratio>
                    <anamorphic>FALSE</anamorphic>
                    <file id="file-654">
                      <name>Scene - LJ visemes.652.png</name>
                      <pathurl>file://localhost/Users/bot/Documents/CREATE/Character Animator/LJ visemes CH2AE/demo/Scene - LJ visemes/Scene - LJ visemes.652.png</pathurl>
                      <rate>
                        <timebase>24</timebase>
                        <ntsc>FALSE</ntsc>
                      </rate>
                      <duration>672</duration>
                      <timecode>
                        <rate>
                          <timebase>24</timebase>
                          <ntsc>FALSE</ntsc>
                        </rate>
                      </timecode>
                      <media>
                        <video>
                          <duration>1</duration>
                          <samplecharacteristics>
                            <anamorphic>FALSE</anamorphic>
                            <pixelaspectratio>square</pixelaspectratio>
                            <fielddominance>none</fielddominance>
                            <width>1920</width>
                            <height>1080</height>
                          </samplecharacteristics>
                        </video>
                      </media>
                    </file>
                  </clipitem>
                </track>
              </video>
            </media>
          </clip>
          <clip explodedTracks="true" frameBlend="FALSE" id="masterclip-655">
            <uuid>1a7941a1-d132-4cea-ae50-34ffc6fc9f5e</uuid>
            <masterclipid>masterclip-655</masterclipid>
            <ismasterclip>TRUE</ismasterclip>
            <duration>672</duration>
            <in>0</in>
            <out>672</out>
            <name>Scene - LJ visemes.653.png</name>
            <rate>
              <timebase>24</timebase>
              <ntsc>FALSE</ntsc>
            </rate>
            <media>
              <video>
                <track>
                  <clipitem frameBlend="FALSE" id="clipitem-656">
                    <name>Scene - LJ visemes.653.png</name>
                    <masterclipid>masterclip-655</masterclipid>
                    <rate>
                      <timebase>24</timebase>
                      <ntsc>FALSE</ntsc>
                    </rate>
                    <alphatype>straight</alphatype>
                    <pixelaspectratio>square</pixelaspectratio>
                    <anamorphic>FALSE</anamorphic>
                    <file id="file-655">
                      <name>Scene - LJ visemes.653.png</name>
                      <pathurl>file://localhost/Users/bot/Documents/CREATE/Character Animator/LJ visemes CH2AE/demo/Scene - LJ visemes/Scene - LJ visemes.653.png</pathurl>
                      <rate>
                        <timebase>24</timebase>
                        <ntsc>FALSE</ntsc>
                      </rate>
                      <duration>672</duration>
                      <timecode>
                        <rate>
                          <timebase>24</timebase>
                          <ntsc>FALSE</ntsc>
                        </rate>
                      </timecode>
                      <media>
                        <video>
                          <duration>1</duration>
                          <samplecharacteristics>
                            <anamorphic>FALSE</anamorphic>
                            <pixelaspectratio>square</pixelaspectratio>
                            <fielddominance>none</fielddominance>
                            <width>1920</width>
                            <height>1080</height>
                          </samplecharacteristics>
                        </video>
                      </media>
                    </file>
                  </clipitem>
                </track>
              </video>
            </media>
          </clip>
          <clip explodedTracks="true" frameBlend="FALSE" id="masterclip-656">
            <uuid>dc3b77f0-fb49-4d7f-811a-ac34396d7a19</uuid>
            <masterclipid>masterclip-656</masterclipid>
            <ismasterclip>TRUE</ismasterclip>
            <duration>672</duration>
            <in>0</in>
            <out>672</out>
            <name>Scene - LJ visemes.654.png</name>
            <rate>
              <timebase>24</timebase>
              <ntsc>FALSE</ntsc>
            </rate>
            <media>
              <video>
                <track>
                  <clipitem frameBlend="FALSE" id="clipitem-657">
                    <name>Scene - LJ visemes.654.png</name>
                    <masterclipid>masterclip-656</masterclipid>
                    <rate>
                      <timebase>24</timebase>
                      <ntsc>FALSE</ntsc>
                    </rate>
                    <alphatype>straight</alphatype>
                    <pixelaspectratio>square</pixelaspectratio>
                    <anamorphic>FALSE</anamorphic>
                    <file id="file-656">
                      <name>Scene - LJ visemes.654.png</name>
                      <pathurl>file://localhost/Users/bot/Documents/CREATE/Character Animator/LJ visemes CH2AE/demo/Scene - LJ visemes/Scene - LJ visemes.654.png</pathurl>
                      <rate>
                        <timebase>24</timebase>
                        <ntsc>FALSE</ntsc>
                      </rate>
                      <duration>672</duration>
                      <timecode>
                        <rate>
                          <timebase>24</timebase>
                          <ntsc>FALSE</ntsc>
                        </rate>
                      </timecode>
                      <media>
                        <video>
                          <duration>1</duration>
                          <samplecharacteristics>
                            <anamorphic>FALSE</anamorphic>
                            <pixelaspectratio>square</pixelaspectratio>
                            <fielddominance>none</fielddominance>
                            <width>1920</width>
                            <height>1080</height>
                          </samplecharacteristics>
                        </video>
                      </media>
                    </file>
                  </clipitem>
                </track>
              </video>
            </media>
          </clip>
          <clip explodedTracks="true" frameBlend="FALSE" id="masterclip-657">
            <uuid>660ede93-5531-4578-908b-4429d2270074</uuid>
            <masterclipid>masterclip-657</masterclipid>
            <ismasterclip>TRUE</ismasterclip>
            <duration>672</duration>
            <in>0</in>
            <out>672</out>
            <name>Scene - LJ visemes.655.png</name>
            <rate>
              <timebase>24</timebase>
              <ntsc>FALSE</ntsc>
            </rate>
            <media>
              <video>
                <track>
                  <clipitem frameBlend="FALSE" id="clipitem-658">
                    <name>Scene - LJ visemes.655.png</name>
                    <masterclipid>masterclip-657</masterclipid>
                    <rate>
                      <timebase>24</timebase>
                      <ntsc>FALSE</ntsc>
                    </rate>
                    <alphatype>straight</alphatype>
                    <pixelaspectratio>square</pixelaspectratio>
                    <anamorphic>FALSE</anamorphic>
                    <file id="file-657">
                      <name>Scene - LJ visemes.655.png</name>
                      <pathurl>file://localhost/Users/bot/Documents/CREATE/Character Animator/LJ visemes CH2AE/demo/Scene - LJ visemes/Scene - LJ visemes.655.png</pathurl>
                      <rate>
                        <timebase>24</timebase>
                        <ntsc>FALSE</ntsc>
                      </rate>
                      <duration>672</duration>
                      <timecode>
                        <rate>
                          <timebase>24</timebase>
                          <ntsc>FALSE</ntsc>
                        </rate>
                      </timecode>
                      <media>
                        <video>
                          <duration>1</duration>
                          <samplecharacteristics>
                            <anamorphic>FALSE</anamorphic>
                            <pixelaspectratio>square</pixelaspectratio>
                            <fielddominance>none</fielddominance>
                            <width>1920</width>
                            <height>1080</height>
                          </samplecharacteristics>
                        </video>
                      </media>
                    </file>
                  </clipitem>
                </track>
              </video>
            </media>
          </clip>
          <clip explodedTracks="true" frameBlend="FALSE" id="masterclip-658">
            <uuid>731021d9-b084-4cd6-802f-2efd681582ee</uuid>
            <masterclipid>masterclip-658</masterclipid>
            <ismasterclip>TRUE</ismasterclip>
            <duration>672</duration>
            <in>0</in>
            <out>672</out>
            <name>Scene - LJ visemes.656.png</name>
            <rate>
              <timebase>24</timebase>
              <ntsc>FALSE</ntsc>
            </rate>
            <media>
              <video>
                <track>
                  <clipitem frameBlend="FALSE" id="clipitem-659">
                    <name>Scene - LJ visemes.656.png</name>
                    <masterclipid>masterclip-658</masterclipid>
                    <rate>
                      <timebase>24</timebase>
                      <ntsc>FALSE</ntsc>
                    </rate>
                    <alphatype>straight</alphatype>
                    <pixelaspectratio>square</pixelaspectratio>
                    <anamorphic>FALSE</anamorphic>
                    <file id="file-658">
                      <name>Scene - LJ visemes.656.png</name>
                      <pathurl>file://localhost/Users/bot/Documents/CREATE/Character Animator/LJ visemes CH2AE/demo/Scene - LJ visemes/Scene - LJ visemes.656.png</pathurl>
                      <rate>
                        <timebase>24</timebase>
                        <ntsc>FALSE</ntsc>
                      </rate>
                      <duration>672</duration>
                      <timecode>
                        <rate>
                          <timebase>24</timebase>
                          <ntsc>FALSE</ntsc>
                        </rate>
                      </timecode>
                      <media>
                        <video>
                          <duration>1</duration>
                          <samplecharacteristics>
                            <anamorphic>FALSE</anamorphic>
                            <pixelaspectratio>square</pixelaspectratio>
                            <fielddominance>none</fielddominance>
                            <width>1920</width>
                            <height>1080</height>
                          </samplecharacteristics>
                        </video>
                      </media>
                    </file>
                  </clipitem>
                </track>
              </video>
            </media>
          </clip>
          <clip explodedTracks="true" frameBlend="FALSE" id="masterclip-659">
            <uuid>283b9712-e207-40a1-a75b-ad68fa9cce79</uuid>
            <masterclipid>masterclip-659</masterclipid>
            <ismasterclip>TRUE</ismasterclip>
            <duration>672</duration>
            <in>0</in>
            <out>672</out>
            <name>Scene - LJ visemes.657.png</name>
            <rate>
              <timebase>24</timebase>
              <ntsc>FALSE</ntsc>
            </rate>
            <media>
              <video>
                <track>
                  <clipitem frameBlend="FALSE" id="clipitem-660">
                    <name>Scene - LJ visemes.657.png</name>
                    <masterclipid>masterclip-659</masterclipid>
                    <rate>
                      <timebase>24</timebase>
                      <ntsc>FALSE</ntsc>
                    </rate>
                    <alphatype>straight</alphatype>
                    <pixelaspectratio>square</pixelaspectratio>
                    <anamorphic>FALSE</anamorphic>
                    <file id="file-659">
                      <name>Scene - LJ visemes.657.png</name>
                      <pathurl>file://localhost/Users/bot/Documents/CREATE/Character Animator/LJ visemes CH2AE/demo/Scene - LJ visemes/Scene - LJ visemes.657.png</pathurl>
                      <rate>
                        <timebase>24</timebase>
                        <ntsc>FALSE</ntsc>
                      </rate>
                      <duration>672</duration>
                      <timecode>
                        <rate>
                          <timebase>24</timebase>
                          <ntsc>FALSE</ntsc>
                        </rate>
                      </timecode>
                      <media>
                        <video>
                          <duration>1</duration>
                          <samplecharacteristics>
                            <anamorphic>FALSE</anamorphic>
                            <pixelaspectratio>square</pixelaspectratio>
                            <fielddominance>none</fielddominance>
                            <width>1920</width>
                            <height>1080</height>
                          </samplecharacteristics>
                        </video>
                      </media>
                    </file>
                  </clipitem>
                </track>
              </video>
            </media>
          </clip>
          <clip explodedTracks="true" frameBlend="FALSE" id="masterclip-660">
            <uuid>acf8cb39-1cd1-44c9-a6a0-2c618e3db718</uuid>
            <masterclipid>masterclip-660</masterclipid>
            <ismasterclip>TRUE</ismasterclip>
            <duration>672</duration>
            <in>0</in>
            <out>672</out>
            <name>Scene - LJ visemes.658.png</name>
            <rate>
              <timebase>24</timebase>
              <ntsc>FALSE</ntsc>
            </rate>
            <media>
              <video>
                <track>
                  <clipitem frameBlend="FALSE" id="clipitem-661">
                    <name>Scene - LJ visemes.658.png</name>
                    <masterclipid>masterclip-660</masterclipid>
                    <rate>
                      <timebase>24</timebase>
                      <ntsc>FALSE</ntsc>
                    </rate>
                    <alphatype>straight</alphatype>
                    <pixelaspectratio>square</pixelaspectratio>
                    <anamorphic>FALSE</anamorphic>
                    <file id="file-660">
                      <name>Scene - LJ visemes.658.png</name>
                      <pathurl>file://localhost/Users/bot/Documents/CREATE/Character Animator/LJ visemes CH2AE/demo/Scene - LJ visemes/Scene - LJ visemes.658.png</pathurl>
                      <rate>
                        <timebase>24</timebase>
                        <ntsc>FALSE</ntsc>
                      </rate>
                      <duration>672</duration>
                      <timecode>
                        <rate>
                          <timebase>24</timebase>
                          <ntsc>FALSE</ntsc>
                        </rate>
                      </timecode>
                      <media>
                        <video>
                          <duration>1</duration>
                          <samplecharacteristics>
                            <anamorphic>FALSE</anamorphic>
                            <pixelaspectratio>square</pixelaspectratio>
                            <fielddominance>none</fielddominance>
                            <width>1920</width>
                            <height>1080</height>
                          </samplecharacteristics>
                        </video>
                      </media>
                    </file>
                  </clipitem>
                </track>
              </video>
            </media>
          </clip>
          <clip explodedTracks="true" frameBlend="FALSE" id="masterclip-661">
            <uuid>739bba04-74e9-49ab-9221-e754709aed15</uuid>
            <masterclipid>masterclip-661</masterclipid>
            <ismasterclip>TRUE</ismasterclip>
            <duration>672</duration>
            <in>0</in>
            <out>672</out>
            <name>Scene - LJ visemes.659.png</name>
            <rate>
              <timebase>24</timebase>
              <ntsc>FALSE</ntsc>
            </rate>
            <media>
              <video>
                <track>
                  <clipitem frameBlend="FALSE" id="clipitem-662">
                    <name>Scene - LJ visemes.659.png</name>
                    <masterclipid>masterclip-661</masterclipid>
                    <rate>
                      <timebase>24</timebase>
                      <ntsc>FALSE</ntsc>
                    </rate>
                    <alphatype>straight</alphatype>
                    <pixelaspectratio>square</pixelaspectratio>
                    <anamorphic>FALSE</anamorphic>
                    <file id="file-661">
                      <name>Scene - LJ visemes.659.png</name>
                      <pathurl>file://localhost/Users/bot/Documents/CREATE/Character Animator/LJ visemes CH2AE/demo/Scene - LJ visemes/Scene - LJ visemes.659.png</pathurl>
                      <rate>
                        <timebase>24</timebase>
                        <ntsc>FALSE</ntsc>
                      </rate>
                      <duration>672</duration>
                      <timecode>
                        <rate>
                          <timebase>24</timebase>
                          <ntsc>FALSE</ntsc>
                        </rate>
                      </timecode>
                      <media>
                        <video>
                          <duration>1</duration>
                          <samplecharacteristics>
                            <anamorphic>FALSE</anamorphic>
                            <pixelaspectratio>square</pixelaspectratio>
                            <fielddominance>none</fielddominance>
                            <width>1920</width>
                            <height>1080</height>
                          </samplecharacteristics>
                        </video>
                      </media>
                    </file>
                  </clipitem>
                </track>
              </video>
            </media>
          </clip>
          <clip explodedTracks="true" frameBlend="FALSE" id="masterclip-662">
            <uuid>f0d7ece5-6271-4422-9af7-0072b610bd33</uuid>
            <masterclipid>masterclip-662</masterclipid>
            <ismasterclip>TRUE</ismasterclip>
            <duration>672</duration>
            <in>0</in>
            <out>672</out>
            <name>Scene - LJ visemes.660.png</name>
            <rate>
              <timebase>24</timebase>
              <ntsc>FALSE</ntsc>
            </rate>
            <media>
              <video>
                <track>
                  <clipitem frameBlend="FALSE" id="clipitem-663">
                    <name>Scene - LJ visemes.660.png</name>
                    <masterclipid>masterclip-662</masterclipid>
                    <rate>
                      <timebase>24</timebase>
                      <ntsc>FALSE</ntsc>
                    </rate>
                    <alphatype>straight</alphatype>
                    <pixelaspectratio>square</pixelaspectratio>
                    <anamorphic>FALSE</anamorphic>
                    <file id="file-662">
                      <name>Scene - LJ visemes.660.png</name>
                      <pathurl>file://localhost/Users/bot/Documents/CREATE/Character Animator/LJ visemes CH2AE/demo/Scene - LJ visemes/Scene - LJ visemes.660.png</pathurl>
                      <rate>
                        <timebase>24</timebase>
                        <ntsc>FALSE</ntsc>
                      </rate>
                      <duration>672</duration>
                      <timecode>
                        <rate>
                          <timebase>24</timebase>
                          <ntsc>FALSE</ntsc>
                        </rate>
                      </timecode>
                      <media>
                        <video>
                          <duration>1</duration>
                          <samplecharacteristics>
                            <anamorphic>FALSE</anamorphic>
                            <pixelaspectratio>square</pixelaspectratio>
                            <fielddominance>none</fielddominance>
                            <width>1920</width>
                            <height>1080</height>
                          </samplecharacteristics>
                        </video>
                      </media>
                    </file>
                  </clipitem>
                </track>
              </video>
            </media>
          </clip>
          <clip explodedTracks="true" frameBlend="FALSE" id="masterclip-663">
            <uuid>8d0534a4-7095-40bb-983b-7ea8cb2f550f</uuid>
            <masterclipid>masterclip-663</masterclipid>
            <ismasterclip>TRUE</ismasterclip>
            <duration>672</duration>
            <in>0</in>
            <out>672</out>
            <name>Scene - LJ visemes.661.png</name>
            <rate>
              <timebase>24</timebase>
              <ntsc>FALSE</ntsc>
            </rate>
            <media>
              <video>
                <track>
                  <clipitem frameBlend="FALSE" id="clipitem-664">
                    <name>Scene - LJ visemes.661.png</name>
                    <masterclipid>masterclip-663</masterclipid>
                    <rate>
                      <timebase>24</timebase>
                      <ntsc>FALSE</ntsc>
                    </rate>
                    <alphatype>straight</alphatype>
                    <pixelaspectratio>square</pixelaspectratio>
                    <anamorphic>FALSE</anamorphic>
                    <file id="file-663">
                      <name>Scene - LJ visemes.661.png</name>
                      <pathurl>file://localhost/Users/bot/Documents/CREATE/Character Animator/LJ visemes CH2AE/demo/Scene - LJ visemes/Scene - LJ visemes.661.png</pathurl>
                      <rate>
                        <timebase>24</timebase>
                        <ntsc>FALSE</ntsc>
                      </rate>
                      <duration>672</duration>
                      <timecode>
                        <rate>
                          <timebase>24</timebase>
                          <ntsc>FALSE</ntsc>
                        </rate>
                      </timecode>
                      <media>
                        <video>
                          <duration>1</duration>
                          <samplecharacteristics>
                            <anamorphic>FALSE</anamorphic>
                            <pixelaspectratio>square</pixelaspectratio>
                            <fielddominance>none</fielddominance>
                            <width>1920</width>
                            <height>1080</height>
                          </samplecharacteristics>
                        </video>
                      </media>
                    </file>
                  </clipitem>
                </track>
              </video>
            </media>
          </clip>
          <clip explodedTracks="true" frameBlend="FALSE" id="masterclip-664">
            <uuid>51f7e65f-f808-4032-ab1a-84c9dbe1071d</uuid>
            <masterclipid>masterclip-664</masterclipid>
            <ismasterclip>TRUE</ismasterclip>
            <duration>672</duration>
            <in>0</in>
            <out>672</out>
            <name>Scene - LJ visemes.662.png</name>
            <rate>
              <timebase>24</timebase>
              <ntsc>FALSE</ntsc>
            </rate>
            <media>
              <video>
                <track>
                  <clipitem frameBlend="FALSE" id="clipitem-665">
                    <name>Scene - LJ visemes.662.png</name>
                    <masterclipid>masterclip-664</masterclipid>
                    <rate>
                      <timebase>24</timebase>
                      <ntsc>FALSE</ntsc>
                    </rate>
                    <alphatype>straight</alphatype>
                    <pixelaspectratio>square</pixelaspectratio>
                    <anamorphic>FALSE</anamorphic>
                    <file id="file-664">
                      <name>Scene - LJ visemes.662.png</name>
                      <pathurl>file://localhost/Users/bot/Documents/CREATE/Character Animator/LJ visemes CH2AE/demo/Scene - LJ visemes/Scene - LJ visemes.662.png</pathurl>
                      <rate>
                        <timebase>24</timebase>
                        <ntsc>FALSE</ntsc>
                      </rate>
                      <duration>672</duration>
                      <timecode>
                        <rate>
                          <timebase>24</timebase>
                          <ntsc>FALSE</ntsc>
                        </rate>
                      </timecode>
                      <media>
                        <video>
                          <duration>1</duration>
                          <samplecharacteristics>
                            <anamorphic>FALSE</anamorphic>
                            <pixelaspectratio>square</pixelaspectratio>
                            <fielddominance>none</fielddominance>
                            <width>1920</width>
                            <height>1080</height>
                          </samplecharacteristics>
                        </video>
                      </media>
                    </file>
                  </clipitem>
                </track>
              </video>
            </media>
          </clip>
          <clip explodedTracks="true" frameBlend="FALSE" id="masterclip-665">
            <uuid>b19a0227-6525-4d3a-839d-e334ff9a482f</uuid>
            <masterclipid>masterclip-665</masterclipid>
            <ismasterclip>TRUE</ismasterclip>
            <duration>672</duration>
            <in>0</in>
            <out>672</out>
            <name>Scene - LJ visemes.663.png</name>
            <rate>
              <timebase>24</timebase>
              <ntsc>FALSE</ntsc>
            </rate>
            <media>
              <video>
                <track>
                  <clipitem frameBlend="FALSE" id="clipitem-666">
                    <name>Scene - LJ visemes.663.png</name>
                    <masterclipid>masterclip-665</masterclipid>
                    <rate>
                      <timebase>24</timebase>
                      <ntsc>FALSE</ntsc>
                    </rate>
                    <alphatype>straight</alphatype>
                    <pixelaspectratio>square</pixelaspectratio>
                    <anamorphic>FALSE</anamorphic>
                    <file id="file-665">
                      <name>Scene - LJ visemes.663.png</name>
                      <pathurl>file://localhost/Users/bot/Documents/CREATE/Character Animator/LJ visemes CH2AE/demo/Scene - LJ visemes/Scene - LJ visemes.663.png</pathurl>
                      <rate>
                        <timebase>24</timebase>
                        <ntsc>FALSE</ntsc>
                      </rate>
                      <duration>672</duration>
                      <timecode>
                        <rate>
                          <timebase>24</timebase>
                          <ntsc>FALSE</ntsc>
                        </rate>
                      </timecode>
                      <media>
                        <video>
                          <duration>1</duration>
                          <samplecharacteristics>
                            <anamorphic>FALSE</anamorphic>
                            <pixelaspectratio>square</pixelaspectratio>
                            <fielddominance>none</fielddominance>
                            <width>1920</width>
                            <height>1080</height>
                          </samplecharacteristics>
                        </video>
                      </media>
                    </file>
                  </clipitem>
                </track>
              </video>
            </media>
          </clip>
          <clip explodedTracks="true" frameBlend="FALSE" id="masterclip-666">
            <uuid>be704f5d-674e-4922-a686-f7ba15b53f9b</uuid>
            <masterclipid>masterclip-666</masterclipid>
            <ismasterclip>TRUE</ismasterclip>
            <duration>672</duration>
            <in>0</in>
            <out>672</out>
            <name>Scene - LJ visemes.664.png</name>
            <rate>
              <timebase>24</timebase>
              <ntsc>FALSE</ntsc>
            </rate>
            <media>
              <video>
                <track>
                  <clipitem frameBlend="FALSE" id="clipitem-667">
                    <name>Scene - LJ visemes.664.png</name>
                    <masterclipid>masterclip-666</masterclipid>
                    <rate>
                      <timebase>24</timebase>
                      <ntsc>FALSE</ntsc>
                    </rate>
                    <alphatype>straight</alphatype>
                    <pixelaspectratio>square</pixelaspectratio>
                    <anamorphic>FALSE</anamorphic>
                    <file id="file-666">
                      <name>Scene - LJ visemes.664.png</name>
                      <pathurl>file://localhost/Users/bot/Documents/CREATE/Character Animator/LJ visemes CH2AE/demo/Scene - LJ visemes/Scene - LJ visemes.664.png</pathurl>
                      <rate>
                        <timebase>24</timebase>
                        <ntsc>FALSE</ntsc>
                      </rate>
                      <duration>672</duration>
                      <timecode>
                        <rate>
                          <timebase>24</timebase>
                          <ntsc>FALSE</ntsc>
                        </rate>
                      </timecode>
                      <media>
                        <video>
                          <duration>1</duration>
                          <samplecharacteristics>
                            <anamorphic>FALSE</anamorphic>
                            <pixelaspectratio>square</pixelaspectratio>
                            <fielddominance>none</fielddominance>
                            <width>1920</width>
                            <height>1080</height>
                          </samplecharacteristics>
                        </video>
                      </media>
                    </file>
                  </clipitem>
                </track>
              </video>
            </media>
          </clip>
          <clip explodedTracks="true" frameBlend="FALSE" id="masterclip-667">
            <uuid>0a2ef22f-cf5c-4001-a327-fe0db86c834d</uuid>
            <masterclipid>masterclip-667</masterclipid>
            <ismasterclip>TRUE</ismasterclip>
            <duration>672</duration>
            <in>0</in>
            <out>672</out>
            <name>Scene - LJ visemes.665.png</name>
            <rate>
              <timebase>24</timebase>
              <ntsc>FALSE</ntsc>
            </rate>
            <media>
              <video>
                <track>
                  <clipitem frameBlend="FALSE" id="clipitem-668">
                    <name>Scene - LJ visemes.665.png</name>
                    <masterclipid>masterclip-667</masterclipid>
                    <rate>
                      <timebase>24</timebase>
                      <ntsc>FALSE</ntsc>
                    </rate>
                    <alphatype>straight</alphatype>
                    <pixelaspectratio>square</pixelaspectratio>
                    <anamorphic>FALSE</anamorphic>
                    <file id="file-667">
                      <name>Scene - LJ visemes.665.png</name>
                      <pathurl>file://localhost/Users/bot/Documents/CREATE/Character Animator/LJ visemes CH2AE/demo/Scene - LJ visemes/Scene - LJ visemes.665.png</pathurl>
                      <rate>
                        <timebase>24</timebase>
                        <ntsc>FALSE</ntsc>
                      </rate>
                      <duration>672</duration>
                      <timecode>
                        <rate>
                          <timebase>24</timebase>
                          <ntsc>FALSE</ntsc>
                        </rate>
                      </timecode>
                      <media>
                        <video>
                          <duration>1</duration>
                          <samplecharacteristics>
                            <anamorphic>FALSE</anamorphic>
                            <pixelaspectratio>square</pixelaspectratio>
                            <fielddominance>none</fielddominance>
                            <width>1920</width>
                            <height>1080</height>
                          </samplecharacteristics>
                        </video>
                      </media>
                    </file>
                  </clipitem>
                </track>
              </video>
            </media>
          </clip>
          <clip explodedTracks="true" frameBlend="FALSE" id="masterclip-668">
            <uuid>682cc62e-82e8-46e7-95f4-8175ef622725</uuid>
            <masterclipid>masterclip-668</masterclipid>
            <ismasterclip>TRUE</ismasterclip>
            <duration>672</duration>
            <in>0</in>
            <out>672</out>
            <name>Scene - LJ visemes.666.png</name>
            <rate>
              <timebase>24</timebase>
              <ntsc>FALSE</ntsc>
            </rate>
            <media>
              <video>
                <track>
                  <clipitem frameBlend="FALSE" id="clipitem-669">
                    <name>Scene - LJ visemes.666.png</name>
                    <masterclipid>masterclip-668</masterclipid>
                    <rate>
                      <timebase>24</timebase>
                      <ntsc>FALSE</ntsc>
                    </rate>
                    <alphatype>straight</alphatype>
                    <pixelaspectratio>square</pixelaspectratio>
                    <anamorphic>FALSE</anamorphic>
                    <file id="file-668">
                      <name>Scene - LJ visemes.666.png</name>
                      <pathurl>file://localhost/Users/bot/Documents/CREATE/Character Animator/LJ visemes CH2AE/demo/Scene - LJ visemes/Scene - LJ visemes.666.png</pathurl>
                      <rate>
                        <timebase>24</timebase>
                        <ntsc>FALSE</ntsc>
                      </rate>
                      <duration>672</duration>
                      <timecode>
                        <rate>
                          <timebase>24</timebase>
                          <ntsc>FALSE</ntsc>
                        </rate>
                      </timecode>
                      <media>
                        <video>
                          <duration>1</duration>
                          <samplecharacteristics>
                            <anamorphic>FALSE</anamorphic>
                            <pixelaspectratio>square</pixelaspectratio>
                            <fielddominance>none</fielddominance>
                            <width>1920</width>
                            <height>1080</height>
                          </samplecharacteristics>
                        </video>
                      </media>
                    </file>
                  </clipitem>
                </track>
              </video>
            </media>
          </clip>
          <clip explodedTracks="true" frameBlend="FALSE" id="masterclip-669">
            <uuid>bbddafaa-6fa6-4274-86ad-c23aa2d0c74b</uuid>
            <masterclipid>masterclip-669</masterclipid>
            <ismasterclip>TRUE</ismasterclip>
            <duration>672</duration>
            <in>0</in>
            <out>672</out>
            <name>Scene - LJ visemes.667.png</name>
            <rate>
              <timebase>24</timebase>
              <ntsc>FALSE</ntsc>
            </rate>
            <media>
              <video>
                <track>
                  <clipitem frameBlend="FALSE" id="clipitem-670">
                    <name>Scene - LJ visemes.667.png</name>
                    <masterclipid>masterclip-669</masterclipid>
                    <rate>
                      <timebase>24</timebase>
                      <ntsc>FALSE</ntsc>
                    </rate>
                    <alphatype>straight</alphatype>
                    <pixelaspectratio>square</pixelaspectratio>
                    <anamorphic>FALSE</anamorphic>
                    <file id="file-669">
                      <name>Scene - LJ visemes.667.png</name>
                      <pathurl>file://localhost/Users/bot/Documents/CREATE/Character Animator/LJ visemes CH2AE/demo/Scene - LJ visemes/Scene - LJ visemes.667.png</pathurl>
                      <rate>
                        <timebase>24</timebase>
                        <ntsc>FALSE</ntsc>
                      </rate>
                      <duration>672</duration>
                      <timecode>
                        <rate>
                          <timebase>24</timebase>
                          <ntsc>FALSE</ntsc>
                        </rate>
                      </timecode>
                      <media>
                        <video>
                          <duration>1</duration>
                          <samplecharacteristics>
                            <anamorphic>FALSE</anamorphic>
                            <pixelaspectratio>square</pixelaspectratio>
                            <fielddominance>none</fielddominance>
                            <width>1920</width>
                            <height>1080</height>
                          </samplecharacteristics>
                        </video>
                      </media>
                    </file>
                  </clipitem>
                </track>
              </video>
            </media>
          </clip>
          <clip explodedTracks="true" frameBlend="FALSE" id="masterclip-670">
            <uuid>8289c800-c746-4bca-b1fd-702c7686b5c2</uuid>
            <masterclipid>masterclip-670</masterclipid>
            <ismasterclip>TRUE</ismasterclip>
            <duration>672</duration>
            <in>0</in>
            <out>672</out>
            <name>Scene - LJ visemes.668.png</name>
            <rate>
              <timebase>24</timebase>
              <ntsc>FALSE</ntsc>
            </rate>
            <media>
              <video>
                <track>
                  <clipitem frameBlend="FALSE" id="clipitem-671">
                    <name>Scene - LJ visemes.668.png</name>
                    <masterclipid>masterclip-670</masterclipid>
                    <rate>
                      <timebase>24</timebase>
                      <ntsc>FALSE</ntsc>
                    </rate>
                    <alphatype>straight</alphatype>
                    <pixelaspectratio>square</pixelaspectratio>
                    <anamorphic>FALSE</anamorphic>
                    <file id="file-670">
                      <name>Scene - LJ visemes.668.png</name>
                      <pathurl>file://localhost/Users/bot/Documents/CREATE/Character Animator/LJ visemes CH2AE/demo/Scene - LJ visemes/Scene - LJ visemes.668.png</pathurl>
                      <rate>
                        <timebase>24</timebase>
                        <ntsc>FALSE</ntsc>
                      </rate>
                      <duration>672</duration>
                      <timecode>
                        <rate>
                          <timebase>24</timebase>
                          <ntsc>FALSE</ntsc>
                        </rate>
                      </timecode>
                      <media>
                        <video>
                          <duration>1</duration>
                          <samplecharacteristics>
                            <anamorphic>FALSE</anamorphic>
                            <pixelaspectratio>square</pixelaspectratio>
                            <fielddominance>none</fielddominance>
                            <width>1920</width>
                            <height>1080</height>
                          </samplecharacteristics>
                        </video>
                      </media>
                    </file>
                  </clipitem>
                </track>
              </video>
            </media>
          </clip>
          <clip explodedTracks="true" frameBlend="FALSE" id="masterclip-671">
            <uuid>321a29ca-93c8-4ddc-8c4f-7dd9ccf8c771</uuid>
            <masterclipid>masterclip-671</masterclipid>
            <ismasterclip>TRUE</ismasterclip>
            <duration>672</duration>
            <in>0</in>
            <out>672</out>
            <name>Scene - LJ visemes.669.png</name>
            <rate>
              <timebase>24</timebase>
              <ntsc>FALSE</ntsc>
            </rate>
            <media>
              <video>
                <track>
                  <clipitem frameBlend="FALSE" id="clipitem-672">
                    <name>Scene - LJ visemes.669.png</name>
                    <masterclipid>masterclip-671</masterclipid>
                    <rate>
                      <timebase>24</timebase>
                      <ntsc>FALSE</ntsc>
                    </rate>
                    <alphatype>straight</alphatype>
                    <pixelaspectratio>square</pixelaspectratio>
                    <anamorphic>FALSE</anamorphic>
                    <file id="file-671">
                      <name>Scene - LJ visemes.669.png</name>
                      <pathurl>file://localhost/Users/bot/Documents/CREATE/Character Animator/LJ visemes CH2AE/demo/Scene - LJ visemes/Scene - LJ visemes.669.png</pathurl>
                      <rate>
                        <timebase>24</timebase>
                        <ntsc>FALSE</ntsc>
                      </rate>
                      <duration>672</duration>
                      <timecode>
                        <rate>
                          <timebase>24</timebase>
                          <ntsc>FALSE</ntsc>
                        </rate>
                      </timecode>
                      <media>
                        <video>
                          <duration>1</duration>
                          <samplecharacteristics>
                            <anamorphic>FALSE</anamorphic>
                            <pixelaspectratio>square</pixelaspectratio>
                            <fielddominance>none</fielddominance>
                            <width>1920</width>
                            <height>1080</height>
                          </samplecharacteristics>
                        </video>
                      </media>
                    </file>
                  </clipitem>
                </track>
              </video>
            </media>
          </clip>
          <clip explodedTracks="true" frameBlend="FALSE" id="masterclip-672">
            <uuid>2d759697-55eb-49a1-bc86-dab6d147e90c</uuid>
            <masterclipid>masterclip-672</masterclipid>
            <ismasterclip>TRUE</ismasterclip>
            <duration>672</duration>
            <in>0</in>
            <out>672</out>
            <name>Scene - LJ visemes.670.png</name>
            <rate>
              <timebase>24</timebase>
              <ntsc>FALSE</ntsc>
            </rate>
            <media>
              <video>
                <track>
                  <clipitem frameBlend="FALSE" id="clipitem-673">
                    <name>Scene - LJ visemes.670.png</name>
                    <masterclipid>masterclip-672</masterclipid>
                    <rate>
                      <timebase>24</timebase>
                      <ntsc>FALSE</ntsc>
                    </rate>
                    <alphatype>straight</alphatype>
                    <pixelaspectratio>square</pixelaspectratio>
                    <anamorphic>FALSE</anamorphic>
                    <file id="file-672">
                      <name>Scene - LJ visemes.670.png</name>
                      <pathurl>file://localhost/Users/bot/Documents/CREATE/Character Animator/LJ visemes CH2AE/demo/Scene - LJ visemes/Scene - LJ visemes.670.png</pathurl>
                      <rate>
                        <timebase>24</timebase>
                        <ntsc>FALSE</ntsc>
                      </rate>
                      <duration>672</duration>
                      <timecode>
                        <rate>
                          <timebase>24</timebase>
                          <ntsc>FALSE</ntsc>
                        </rate>
                      </timecode>
                      <media>
                        <video>
                          <duration>1</duration>
                          <samplecharacteristics>
                            <anamorphic>FALSE</anamorphic>
                            <pixelaspectratio>square</pixelaspectratio>
                            <fielddominance>none</fielddominance>
                            <width>1920</width>
                            <height>1080</height>
                          </samplecharacteristics>
                        </video>
                      </media>
                    </file>
                  </clipitem>
                </track>
              </video>
            </media>
          </clip>
          <clip explodedTracks="true" frameBlend="FALSE" id="masterclip-673">
            <uuid>3e8bcda6-b750-487e-9303-f5c5dce2da49</uuid>
            <masterclipid>masterclip-673</masterclipid>
            <ismasterclip>TRUE</ismasterclip>
            <duration>672</duration>
            <in>0</in>
            <out>672</out>
            <name>Scene - LJ visemes.671.png</name>
            <rate>
              <timebase>24</timebase>
              <ntsc>FALSE</ntsc>
            </rate>
            <media>
              <video>
                <track>
                  <clipitem frameBlend="FALSE" id="clipitem-674">
                    <name>Scene - LJ visemes.671.png</name>
                    <masterclipid>masterclip-673</masterclipid>
                    <rate>
                      <timebase>24</timebase>
                      <ntsc>FALSE</ntsc>
                    </rate>
                    <alphatype>straight</alphatype>
                    <pixelaspectratio>square</pixelaspectratio>
                    <anamorphic>FALSE</anamorphic>
                    <file id="file-673">
                      <name>Scene - LJ visemes.671.png</name>
                      <pathurl>file://localhost/Users/bot/Documents/CREATE/Character Animator/LJ visemes CH2AE/demo/Scene - LJ visemes/Scene - LJ visemes.671.png</pathurl>
                      <rate>
                        <timebase>24</timebase>
                        <ntsc>FALSE</ntsc>
                      </rate>
                      <duration>672</duration>
                      <timecode>
                        <rate>
                          <timebase>24</timebase>
                          <ntsc>FALSE</ntsc>
                        </rate>
                      </timecode>
                      <media>
                        <video>
                          <duration>1</duration>
                          <samplecharacteristics>
                            <anamorphic>FALSE</anamorphic>
                            <pixelaspectratio>square</pixelaspectratio>
                            <fielddominance>none</fielddominance>
                            <width>1920</width>
                            <height>1080</height>
                          </samplecharacteristics>
                        </video>
                      </media>
                    </file>
                  </clipitem>
                </track>
              </video>
            </media>
          </clip>
        </children>
      </bin>
    </children>
  </project>

</xmeml>
