<svg viewBox="0 0 123 151" fill="none" xmlns="http://www.w3.org/2000/svg"><path fill-rule="evenodd" clip-rule="evenodd" d="M61.3925 0.861328C95.3018 0.861328 122.769 28.329 122.769 62.2383V123.615C122.769 138.443 110.859 150.354 96.031 150.354H26.7541C11.9264 150.354 0.015625 138.443 0.015625 123.615V62.2383C0.015625 28.329 27.4833 0.861328 61.3925 0.861328Z" fill="#DB8E73"/><path fill-rule="evenodd" clip-rule="evenodd" d="M83.6342 37.3229C92.9926 37.3229 100.528 44.8583 100.528 54.2167V67.0998C100.528 76.4583 92.9926 83.9936 83.6342 83.9936C74.2757 83.9936 66.7403 76.4583 66.7403 67.0998V54.2167C66.8619 44.8583 74.3973 37.3229 83.6342 37.3229Z" fill="white"/><path fill-rule="evenodd" clip-rule="evenodd" d="M80.3525 49.4767H80.1095C76.2202 49.4767 72.9387 52.6367 72.9387 56.6475V65.3983C72.9387 69.2875 76.0987 72.569 80.1095 72.569H80.3525C84.2418 72.569 87.5233 69.409 87.5233 65.3983V56.6475C87.5233 52.6367 84.3633 49.4767 80.3525 49.4767Z" fill="#4C4B4C"/><path d="M72.2095 90.0706L65.6464 71.4752C77.8002 67.0998 90.3187 63.8182 102.837 61.6306L106.24 81.0767C94.8156 83.0213 83.391 86.0598 72.2095 90.0706Z" fill="#DB8E73"/><path fill-rule="evenodd" clip-rule="evenodd" d="M38.7864 37.3229C29.4279 37.3229 21.8925 44.8583 21.8925 54.2167V67.0998C21.8925 76.4583 29.4279 83.9936 38.7864 83.9936C48.1449 83.9936 55.6802 76.4583 55.6802 67.0998V54.2167C55.5587 44.8583 48.0233 37.3229 38.7864 37.3229Z" fill="white"/><path fill-rule="evenodd" clip-rule="evenodd" d="M41.4602 49.4767H41.2172C37.3279 49.4767 34.0464 52.6367 34.0464 56.6475V65.3983C34.0464 69.2875 37.2064 72.569 41.2172 72.569H41.4602C45.3495 72.569 48.631 69.409 48.631 65.3983V56.6475C48.631 52.6367 45.471 49.4767 41.4602 49.4767Z" fill="#4C4B4C"/><path fill-rule="evenodd" clip-rule="evenodd" d="M18.0035 46.1953C34.7758 44.2506 46.6866 40.9691 53.7358 36.3506C60.6635 31.7322 59.8127 28.2076 51.0619 25.6553L31.0081 32.3399L18.0035 46.1953Z" fill="#DB8E73"/><path d="M65.1602 113.771C63.7017 113.771 62.7294 112.555 62.7294 111.218C62.8509 107.329 63.7017 103.318 65.2817 99.3075C65.7678 98.0921 67.2263 97.4844 68.4417 97.9705C69.6571 98.4567 70.2648 99.9151 69.7786 101.131C68.4417 104.655 67.5909 108.18 67.4694 111.583C67.5909 112.798 66.4971 113.771 65.1602 113.771Z" fill="#C4765A"/><path d="M56.0449 111.947C55.6803 111.947 55.3157 111.826 54.951 111.704C53.7357 111.097 53.2495 109.638 53.7357 108.423C55.4372 104.898 57.7464 101.495 60.7849 98.4566C61.7572 97.4842 63.2157 97.4842 64.188 98.4566C65.1603 99.4289 65.1603 100.887 64.188 101.86C61.5141 104.655 59.448 107.572 57.9895 110.489C57.868 111.461 56.8957 111.947 56.0449 111.947Z" fill="#C4765A"/><path d="M54.3433 103.197C48.7525 103.197 42.9186 102.346 36.9633 100.766C35.5048 100.401 34.654 98.8214 35.0186 97.3629C35.3833 95.9045 36.9633 95.0537 38.4217 95.4183C57.6248 100.766 74.2756 96.9983 89.3463 83.8722C90.5617 82.8998 92.2633 83.0214 93.2356 84.1152C94.2079 85.3306 94.0863 87.0321 92.9925 88.0045C81.3248 98.0922 68.4417 103.197 54.3433 103.197Z" fill="#B4654A"/></svg>