<svg viewBox="0 0 127 157" fill="none" xmlns="http://www.w3.org/2000/svg"><path fill-rule="evenodd" clip-rule="evenodd" d="M63.4993 0C98.3457 0 126.682 28.3366 126.682 63.1829V128.919C126.682 144.491 114.173 157 98.601 157H28.3977C12.8253 157 0.316406 144.491 0.316406 128.919V63.1829C0.316406 28.3366 28.653 0 63.4993 0Z" fill="#DB8E73"/><path fill-rule="evenodd" clip-rule="evenodd" d="M80.9862 52.3333C90.5594 52.3333 98.3456 60.1194 98.3456 69.6926V81.691C98.3456 91.2641 90.5594 99.0503 80.9862 99.0503C71.413 99.0503 63.6269 91.2641 63.6269 81.691V69.6926C63.6269 60.1194 71.413 52.3333 80.9862 52.3333Z" fill="white"/><path fill-rule="evenodd" clip-rule="evenodd" d="M48.3099 52.3333C38.7367 52.3333 30.9506 60.1194 30.9506 69.6926V81.691C30.9506 91.2641 38.7367 99.0503 48.3099 99.0503C57.8831 99.0503 65.7969 91.2641 65.7969 81.691V69.6926C65.7969 60.1194 58.0107 52.3333 48.3099 52.3333Z" fill="white"/><path fill-rule="evenodd" clip-rule="evenodd" d="M51.5012 64.2041C47.4166 64.2041 44.0979 67.5228 44.0979 71.6074V79.9041C44.0979 83.9887 47.4166 87.3074 51.5012 87.3074C55.5857 87.3074 58.9044 83.9887 58.9044 79.9041V71.6074C58.7768 67.5228 55.4581 64.2041 51.5012 64.2041Z" fill="#4C4B4C"/><path fill-rule="evenodd" clip-rule="evenodd" d="M77.1572 64.2041C73.0726 64.2041 69.7539 67.5228 69.7539 71.6074V79.9041C69.7539 83.9887 73.0726 87.3074 77.1572 87.3074C81.2417 87.3074 84.5604 83.9887 84.5604 79.9041V71.6074C84.4328 67.5228 81.2417 64.2041 77.1572 64.2041Z" fill="#4C4B4C"/><path d="M69.2432 86.7969H61.5847V95.7318H69.2432V86.7969Z" fill="white"/><path fill-rule="evenodd" clip-rule="evenodd" d="M47.2887 111.432L56.3513 102.369C60.3082 98.4121 66.8179 98.4121 70.7748 102.369C74.7317 106.326 74.7317 112.836 70.7748 116.793L61.7122 125.855C57.7553 129.812 51.2456 129.812 47.2887 125.855C43.3317 121.898 43.3317 115.389 47.2887 111.432Z" fill="#8C432A"/><path fill-rule="evenodd" clip-rule="evenodd" d="M81.497 111.432L74.2214 104.156C70.2645 100.199 63.7547 100.199 59.7978 104.156C55.8409 108.113 55.8409 114.623 59.7978 118.58L67.0734 125.855C71.0303 129.812 77.5401 129.812 81.497 125.855C85.4539 121.898 85.4539 115.389 81.497 111.432Z" fill="#8C432A"/><path fill-rule="evenodd" clip-rule="evenodd" d="M63.4993 90.626H64.7757C69.3709 90.626 73.0725 94.3276 73.0725 98.9227C73.0725 103.518 69.3709 107.219 64.7757 107.219H63.4993C58.9042 107.219 55.2026 103.518 55.2026 98.9227C55.2026 94.3276 58.9042 90.626 63.4993 90.626Z" fill="#DB8E73"/></svg>