<svg viewBox="0 0 123 151" fill="none" xmlns="http://www.w3.org/2000/svg"><path fill-rule="evenodd" clip-rule="evenodd" d="M61.3925 0.861328C95.3018 0.861328 122.769 28.329 122.769 62.2383V123.615C122.769 138.443 110.859 150.354 96.031 150.354H26.7541C11.9264 150.354 0.015625 138.443 0.015625 123.615V62.2383C0.015625 28.329 27.4833 0.861328 61.3925 0.861328Z" fill="#DB8E73"/><path fill-rule="evenodd" clip-rule="evenodd" d="M84.8496 39.7536C94.208 39.7536 101.743 47.289 101.743 56.6475V69.5306C101.743 78.889 94.208 86.4244 84.8496 86.4244C75.4911 86.4244 67.9557 78.889 67.9557 69.5306V56.6475C68.0772 47.289 75.6126 39.7536 84.8496 39.7536Z" fill="white"/><path fill-rule="evenodd" clip-rule="evenodd" d="M38.7864 39.7536C29.4279 39.7536 21.8925 47.289 21.8925 56.6475V69.5306C21.8925 78.889 29.4279 86.4244 38.7864 86.4244C48.1449 86.4244 55.6802 78.889 55.6802 69.5306V56.6475C55.5587 47.289 48.0233 39.7536 38.7864 39.7536Z" fill="white"/><path fill-rule="evenodd" clip-rule="evenodd" d="M41.7034 51.5427C37.8142 51.5427 34.5326 54.7027 34.5326 58.7135V67.3427C34.5326 71.2319 37.6926 74.5135 41.7034 74.5135C45.5926 74.5135 48.8742 71.3535 48.8742 67.3427V58.7135C48.8742 54.7027 45.7142 51.5427 41.7034 51.5427Z" fill="#4C4B4C"/><path fill-rule="evenodd" clip-rule="evenodd" d="M81.2034 51.5427C77.3142 51.5427 74.0326 54.7027 74.0326 58.7135V67.3427C74.0326 71.2319 77.1926 74.5135 81.2034 74.5135C85.0926 74.5135 88.3742 71.3535 88.3742 67.3427V58.7135C88.2526 54.7027 85.0926 51.5427 81.2034 51.5427Z" fill="#4C4B4C"/><path d="M70.9941 97.3629L64.431 78.7675C76.5849 74.3921 89.1033 71.1106 101.622 68.9229L105.025 88.369C93.6003 90.3136 82.1756 93.3521 70.9941 97.3629Z" fill="#DB8E73"/><path d="M48.9958 104.655C37.8143 100.644 26.3896 97.6059 14.965 95.6613L18.3681 76.2152C30.8866 78.4029 43.405 81.6844 55.5589 86.0598L48.9958 104.655Z" fill="#DB8E73"/><path d="M50.576 107.086C60.5421 104.898 67.7129 102.71 72.2098 100.644C76.7067 98.5782 82.6621 94.4459 90.1975 88.4905L90.6836 89.5843C95.7883 100.523 91.0483 113.527 80.1098 118.632C69.1713 123.737 56.1667 118.997 51.0621 108.058L50.576 107.086Z" fill="white"/><path d="M70.9943 122.886C62.0004 122.886 53.3712 117.781 49.3604 109.152L48.8743 108.058C48.6312 107.451 48.6312 106.843 48.8743 106.357C49.1173 105.749 49.6035 105.384 50.2112 105.263C59.9343 103.075 67.105 101.009 71.4804 98.9429C75.8558 96.8767 81.6897 92.8659 89.1035 87.0321C89.5897 86.6675 90.1973 86.5459 90.805 86.6675C91.4127 86.789 91.8989 87.2752 92.142 87.7613L92.6281 88.8552C98.2189 100.766 92.9927 115.107 81.082 120.698C77.8004 122.157 74.2758 122.886 70.9943 122.886ZM53.6143 108.544C58.5973 117.66 69.9004 121.427 79.3804 116.931C88.8604 112.434 93.2358 101.495 89.5896 91.7721C83.0266 96.8767 77.4358 100.523 73.3035 102.467C68.8066 104.534 62.365 106.478 53.6143 108.544Z" fill="white"/></svg>