<svg viewBox="0 0 127 158" fill="none" xmlns="http://www.w3.org/2000/svg"><path fill-rule="evenodd" clip-rule="evenodd" d="M63.5 0C98.5212 0 127 28.4788 127 63.5V129.566C127 145.216 114.428 157.788 98.7778 157.788H28.2222C12.5717 157.788 0 145.216 0 129.566V63.5C0 28.4788 28.4788 0 63.5 0Z" fill="#DB8E73"/><path fill-rule="evenodd" clip-rule="evenodd" d="M87.2322 37.2019C97.11 37.2019 105.064 45.1554 105.064 55.0332V69.1443C105.064 79.0221 97.11 86.9756 87.2322 86.9756C77.3544 86.9756 69.4009 79.0221 69.4009 69.1443V55.0332C69.4009 45.1554 77.3544 37.2019 87.2322 37.2019Z" fill="white"/><path fill-rule="evenodd" clip-rule="evenodd" d="M39.6394 37.2019C29.7616 37.2019 21.8081 45.1554 21.8081 55.0332V69.1443C21.8081 79.0221 29.7616 86.9756 39.6394 86.9756C49.5172 86.9756 57.4707 79.0221 57.4707 69.1443V55.0332C57.4707 45.1554 49.5172 37.2019 39.6394 37.2019Z" fill="white"/><path fill-rule="evenodd" clip-rule="evenodd" d="M51.8263 49.9021C47.7212 49.9021 44.2576 53.2375 44.2576 57.4708V66.9637C44.2576 71.0688 47.5929 74.5324 51.8263 74.5324C55.9313 74.5324 59.3949 71.1971 59.3949 66.9637V57.4708C59.3949 53.2375 55.9313 49.9021 51.8263 49.9021Z" fill="#4C4B4C"/><path fill-rule="evenodd" clip-rule="evenodd" d="M97.3667 49.9021C93.2616 49.9021 89.798 53.2375 89.798 57.4708V66.9637C89.798 71.0688 93.1333 74.5324 97.3667 74.5324C101.472 74.5324 104.935 71.1971 104.935 66.9637V57.4708C104.935 53.2375 101.6 49.9021 97.3667 49.9021Z" fill="#4C4B4C"/><path d="M109.04 67.99H16.6768V94.9294H109.04V67.99Z" fill="#DB8E73"/><path fill-rule="evenodd" clip-rule="evenodd" d="M16.6768 37.5868L63.3717 30.7878L109.04 37.5868V59.0101H16.6768V37.5868Z" fill="#DB8E73"/></svg>