<?xml version="1.0" encoding="UTF-8"?><svg xmlns="http://www.w3.org/2000/svg" width="902.1" height="1451.07" viewBox="0 0 902.1 1451.07"><defs><style>.cls-1{stroke:#0a1616;}.cls-1,.cls-2{fill:#ca3a21;}.cls-1,.cls-2,.cls-3,.cls-4,.cls-5{stroke-width:1.96px;}.cls-1,.cls-2,.cls-3,.cls-4,.cls-5,.cls-6{stroke-miterlimit:10;}.cls-2,.cls-3,.cls-4,.cls-5,.cls-6{stroke:#000;}.cls-7{fill:#fff;}.cls-3{fill:#29abe2;}.cls-4{fill:#2e3192;}.cls-5{fill:#28302e;}.cls-6{fill:none;stroke-width:2.94px;}</style></defs><g id="legs-group"><g id="shoes"><path id="left-foot" class="cls-2" d="M262.27,1449.16l62.6-48.51,18.68-41.95,53.75,11.8s-14.95,55.06-13.37,66.86-87.57,14.42-121.66,11.8Z"/><path id="right-foot" class="cls-2" d="M525.45,1370.5s3.61,58.99,0,68.17c0,0,157.21,9.18,169.01,6.12l-96.14-47.63-30.15-44.57-42.71,17.92Z"/></g><g id="tail"><path class="cls-1" d="M207.16,1167.78s90.09-44.17,112.88-63.1l57.91-43.12,100.55-85.56,46.95,20.01s-77.46,186.5-255.19,308.5c0,0,35.76-65.2,33.65-72.57,0,0-105.17,73.5-142.8,71.63,0,0,114.28-136.25,120.83-139.76,0,0-61.7,3.04-74.79,3.97Z"/></g><g id="pants"><path d="M355.09,1141.04l-36.45,247.82s77.35,9.18,85.65,1.31l65.28-321.36s7.29,3.96,15.48-.3l33.95,321.66s65.77,2.62,76.26-10.49l-26.22-382.81s-160.77,8.38-193.8-6.25l-20.16,150.42Z"/></g></g><g id="arms-group"><g id="hands"><g id="right-hand"><path class="cls-2" d="M778.01,898.9s11.93,19.09,49.29,12.32c0,0,54.08-4.7,49.82,0,0,0-15.73,17.15-35.07,27.64,0,0,2.95,10.16,17.37,20.98,3.93,2.95,40.97,36.71,41.62,47.2,0,0-25.24-2.95-46.87-26.88,0,0-10.82-1.97.98,11.8,0,0,33.76,44.57,34.09,54.08,0,0-7.54,6.88-52.77-39.66,0,0-20.39-18.85-14.98-1.34.16.52.35,1.08.56,1.67,7.21,20.32,26.22,35.72,27.2,54.73,0,0-45.56-21.3-98.98-125.2l27.73-37.33Z"/><path d="M798.79,965.08c7.53-9.39,22.44-16.08,34.09-11.03-12.1.67-23.22,6.17-34.09,11.03h0Z"/></g><g id="left-hand"><path class="cls-2" d="M124.09,898.9s-11.93,19.09-49.29,12.32c0,0-54.08-4.7-49.82,0,0,0,15.73,17.15,35.07,27.64,0,0-2.95,10.16-17.37,20.98-3.93,2.95-40.97,36.71-41.62,47.2,0,0,25.24-2.95,46.87-26.88,0,0,10.82-1.97-.98,11.8,0,0-33.76,44.57-34.09,54.08,0,0,7.54,6.88,52.77-39.66,0,0,20.39-18.85,14.98-1.34-.16.52-.35,1.08-.56,1.67-7.21,20.32-26.22,35.72-27.2,54.73,0,0,45.56-21.3,98.98-125.2l-27.73-37.33Z"/><path d="M103.31,965.08c-10.88-4.87-21.98-10.36-34.09-11.03,11.65-5.04,26.56,1.64,34.09,11.03h0Z"/></g></g><g id="right_sleeve"><g id="left-sleeve"><path d="M111.5,909.03s11.36,28.84,31.46,40.2l33.65-26.22-32.56-48.94-32.56,34.96Z"/><path class="cls-5" d="M132.04,869.27s-5.24,6.7,1.75,13.4c0,0,30.69,28.48,36.27,36.85,6.99,10.49,2.91,17.92,2.91,17.92,0,0-1.6,7.87,14.13-6.12,0,0,183.54-119.74,194.03-134.6l-37.58-99.2s-62.31,12.23-114.63,82.01c-6.14,8.19-13.02,15.78-20.69,22.55l-76.19,67.18Z"/></g><g id="right-sleeve"><path d="M743.84,868.39l50.48,41.59s-33,35.76-33.87,44.06c0,0-37.58-27.09-45.88-31.03l29.28-54.62Z"/><path class="cls-5" d="M584.87,711.36l182.03,162.2c2.3,2.05,2.68,5.5.88,7.99l-41.41,57.78c-1.88,2.61-5.46,3.28-8.15,1.52-28.25-18.45-170.91-114.89-177.86-151.07-.24-1.27-.08-2.58.47-3.75l34.62-72.78c1.72-3.62,6.43-4.57,9.42-1.9Z"/></g></g></g><g id="neck-group"><polygon id="neck" class="cls-2" points="407.39 598.9 397.3 671.74 472.46 778.59 501.74 707.8 490.6 591.99 407.39 598.9"/></g><g id="shirt-group"><g id="collared-shirt"><path class="cls-4" d="M421.33,704.08s46.76,32.77,51.13,52.88l32.34-59.43,29.32,312.41-101.67-5.04-11.12-300.81Z"/></g><g id="vest"><path class="cls-3" d="M524.47,1038.39c26.66,6.99,65.55-6.55,65.55-6.55l-.87-30.15c-2.18-3.93,16.17-16.61,16.17-16.61.44-90.9-26.42-144.21-26.42-144.21-9.82-57.25,9.82-126.73,9.82-126.73,0,0-3.06,8.74,2.18,0,5.24-8.74-61.62-31.46-61.62-31.46l-34.09,33.21,29.28,322.51Z"/><path class="cls-3" d="M439.41,718s28.69,233.5,19.95,322.39c0,0-54.19,9.36-106.19-3.32l2.18-34.52s-14.86-10.05-18.79-18.35c0,0,.47-80.05,4.37-127.82,1.85-22.7.46-46.74-2.64-61.08-7.03-32.58.89-68.06-31.45-83.79l65.99-28.84,27.09,42.83"/></g><g id="collar"><path class="cls-4" d="M492.13,639.84l35.86,41.34c.85.98,1.51,2.11,1.95,3.34l15.95,44.91s-26.88-17.26-53.75-8.74c0,0,13.11-64.68,0-80.84Z"/><path class="cls-4" d="M436.09,726.01c-11.58-.32-43.6,4.29-43.6,4.29-6.12-2.62-21.41-48.07-21.41-48.07l29.97-37.55s28.59,69.01,43.45,78.19l1.94,1.15c-2.25,2.03-7.32,2.07-10.35,1.99Z"/></g></g><g id="face-group"><path id="face-main-shape" class="cls-2" d="M308.81,502.3l-5.9-11.8,2.95-220.25,122.91,161.25,46.21-.98,84.56-160.27,25.56,216.31,10.82,11.8-5.9,12.78,36.38,20.65-42.28,30.48,48.18,15.73s-86.53,49.16-93.41,52.11c0,0-30.48,33.43-110.12,4.92l-196.65-65.88,70.39-16.16-70.39-27.11,76.69-23.6Z"/><g id="mouth"><path class="cls-6" d="M472.46,628.92s16.61,3.93,29.28,0"/></g><g id="nose"><path d="M499.49,593.08l44.65,23.16s10.05-3.5,19.66-23.16c0,0-17.04-18.35-25.78-8.74,0,0-39.04-6.99-38.53,8.74Z"/></g><g id="ears"><path id="left-ear" d="M353.05,471.49s30.81-29.83,44.25-31.46l-72.43-126.51,28.19,157.98Z"/><path id="right-ear" d="M508.73,440.02l42.28-126.51,5.31,148.14s-30.88-19.34-47.59-21.63Z"/></g><g id="middle-brow"><path d="M477.77,533.87c-2.22-15.09-7.41-28.31-19.84-37.84-1.66-1.32-3.41-2.55-5.29-3.68,2.19.32,4.27,1.13,6.3,2.04,14.51,6.72,22.08,24.1,18.83,39.48h0Z"/><path d="M500.55,534.47c-3.78-16.76,6.31-35.95,24.91-35.83-3.81,1.41-7.21,3.32-10.22,5.63-9.53,7.08-12.79,18.99-14.68,30.21h0Z"/></g><g id="eyes-white"><path class="cls-7" d="M477.87,532.39c-10.45,36.99-57.85,30.98-57.85,30.98-30.17-1.08-45.29-46.76-49.72-62.97l35.64,10.29,46.7,13.48,21.18,6.11,4,1.17.05.95Z"/><path class="cls-7" d="M578.89,507.14c-14.96,64.32-47.86,52.73-47.86,52.73-22.28-6.73-29.15-14.46-29.68-21.12-.11-1.44.07-2.82.45-4.13l4.32-1.54,44.45-15.84,28.33-10.1Z"/></g><g id="eye-brows"><path d="M350.89,494.29c11.24.44,22.14,2.47,33.02,4.94,10.8,2.39,21.05,6.66,31.52,10.12,20.38,6.74,42.53,14.32,62.63,21.65.26.09.4.38.31.63-.09.23-.33.36-.56.31-20.91-4.54-43.71-9.89-64.54-15.07-5.36-1.33-10.76-2.48-16.15-3.7-10.81-2.43-21.2-6.19-31.41-10.51-5.1-2.2-10.16-4.56-15.07-7.44-.43-.24-.25-.98.27-.94h0Z"/><path d="M500.37,534.61c16.26-7.34,34.23-14.98,50.8-21.75,4.26-1.74,8.46-3.65,12.68-5.51,8.47-3.73,17.37-6.12,26.44-7.95,4.57-.88,9.19-1.61,13.99-1.83.28-.01.52.21.53.49,0,.18-.08.34-.21.43-3.86,2.86-7.9,5.22-11.99,7.43-4.1,2.18-8.27,4.17-12.51,5.98-8.43,3.76-17.51,5.65-26.3,8.34-6.57,2.03-19.86,5.98-26.47,7.88-8.86,2.52-17.72,5.05-26.63,7.41-.26.07-.53-.08-.6-.35-.06-.23.06-.48.27-.57h0Z"/></g><g id="eyes-pupils"><path d="M452.64,524.17c-1.35,14.19-11.62,25.22-24.09,25.22-13.4,0-24.26-12.72-24.26-28.41,0-3.63.58-7.1,1.65-10.29l46.7,13.48Z"/><path d="M556.33,518.48c0,18.83-11.97,34.08-26.74,34.08-9.52,0-17.88-6.33-22.61-15.87-.11-1.44.07-2.82.45-4.13l4.32-1.54,44.45-15.84c.09,1.09.13,2.18.13,3.3Z"/></g></g></svg>