<svg viewBox="0 0 123 151" fill="none" xmlns="http://www.w3.org/2000/svg"><path fill-rule="evenodd" clip-rule="evenodd" d="M61.3925 0.861328C95.3018 0.861328 122.769 28.329 122.769 62.2383V123.615C122.769 138.443 110.859 150.354 96.031 150.354H26.7541C11.9264 150.354 0.015625 138.443 0.015625 123.615V62.2383C0.015625 28.329 27.4833 0.861328 61.3925 0.861328Z" fill="#DB8E73"/><path fill-rule="evenodd" clip-rule="evenodd" d="M83.6342 39.7536C92.9926 39.7536 100.528 47.289 100.528 56.6475V69.5306C100.528 78.889 92.9926 86.4244 83.6342 86.4244C74.2757 86.4244 66.7403 78.889 66.7403 69.5306V56.6475C66.8619 47.289 74.3973 39.7536 83.6342 39.7536Z" fill="white"/><path fill-rule="evenodd" clip-rule="evenodd" d="M38.7864 39.7536C29.4279 39.7536 21.8925 47.289 21.8925 56.6475V69.5306C21.8925 78.889 29.4279 86.4244 38.7864 86.4244C48.1449 86.4244 55.6802 78.889 55.6802 69.5306V56.6475C55.5587 47.289 48.0233 39.7536 38.7864 39.7536Z" fill="white"/><path fill-rule="evenodd" clip-rule="evenodd" d="M41.7034 51.5427C37.8142 51.5427 34.5326 54.7027 34.5326 58.7135V67.3427C34.5326 71.2319 37.6926 74.5135 41.7034 74.5135C45.5926 74.5135 48.8742 71.3535 48.8742 67.3427V58.7135C48.8742 54.7027 45.7142 51.5427 41.7034 51.5427Z" fill="#4C4B4C"/><path fill-rule="evenodd" clip-rule="evenodd" d="M79.988 51.5427C76.0988 51.5427 72.8173 54.7027 72.8173 58.7135V67.3427C72.8173 71.2319 75.9773 74.5135 79.988 74.5135C83.8773 74.5135 87.1588 71.3535 87.1588 67.3427V58.7135C87.0372 54.7027 83.8773 51.5427 79.988 51.5427Z" fill="#4C4B4C"/><path d="M50.4541 104.412C39.2725 100.401 27.8479 97.363 16.4233 95.4184L19.8264 75.9723C32.3448 78.2815 44.9848 81.563 57.1387 85.9384L50.4541 104.412Z" fill="#DB8E73"/><path d="M42.311 96.9982C38.9079 91.8936 32.1017 90.6782 27.1187 94.0813C22.1356 97.4844 20.7987 104.412 24.2017 109.395C32.9525 122.4 45.471 128.72 60.1771 127.14C66.1325 126.532 70.5079 121.063 69.9002 114.986C69.2925 108.909 63.8233 104.534 57.8679 105.141C51.4263 105.749 46.6863 103.44 42.311 96.9982Z" fill="white"/><path d="M42.311 96.9982C38.9079 91.8936 32.1017 90.6782 27.1187 94.0813C22.1356 97.4844 20.7987 104.412 24.2017 109.395C32.9525 122.4 45.471 128.72 60.1771 127.14C66.1325 126.532 70.5079 121.063 69.9002 114.986C69.2925 108.909 63.8233 104.534 57.8679 105.141C51.4263 105.749 46.6863 103.44 42.311 96.9982Z" fill="white"/><path fill-rule="evenodd" clip-rule="evenodd" d="M42.311 96.9982C38.9079 91.8936 32.1017 90.6782 27.1187 94.0813C22.1356 97.4844 20.7987 104.412 24.2017 109.395C32.9525 122.4 45.471 128.72 60.1771 127.14C66.1325 126.532 70.5079 121.063 69.9002 114.986C69.2925 108.909 63.8233 104.534 57.8679 105.141C51.4263 105.749 46.6863 103.44 42.311 96.9982Z" fill="white"/></svg>