<svg viewBox="0 0 123 158" fill="none" xmlns="http://www.w3.org/2000/svg"><path fill-rule="evenodd" clip-rule="evenodd" d="M61.3925 0C95.3018 0 122.769 27.4677 122.769 61.3769V122.754C122.769 137.582 110.859 149.492 96.031 149.492H26.7541C11.9264 149.492 0.015625 137.582 0.015625 122.754V61.3769C0.015625 27.4677 27.4833 0 61.3925 0Z" fill="#DB8E73"/><path fill-rule="evenodd" clip-rule="evenodd" d="M84.8496 38.8923C94.208 38.8923 101.743 46.4277 101.743 55.7862V68.6692C101.743 78.0277 94.208 85.5631 84.8496 85.5631C75.4911 85.5631 67.9557 78.0277 67.9557 68.6692V55.7862C68.0772 46.4277 75.6126 38.8923 84.8496 38.8923Z" fill="white"/><path fill-rule="evenodd" clip-rule="evenodd" d="M38.7864 38.8923C29.4279 38.8923 21.8925 46.4277 21.8925 55.7862V68.6692C21.8925 78.0277 29.4279 85.5631 38.7864 85.5631C48.1449 85.5631 55.6802 78.0277 55.6802 68.6692V55.7862C55.5587 46.4277 48.0233 38.8923 38.7864 38.8923Z" fill="white"/><path fill-rule="evenodd" clip-rule="evenodd" d="M41.7034 50.6814C37.8142 50.6814 34.5326 53.8414 34.5326 57.8521V66.4814C34.5326 70.3706 37.6926 73.6521 41.7034 73.6521C45.5926 73.6521 48.8742 70.4921 48.8742 66.4814V57.8521C48.8742 53.8414 45.7142 50.6814 41.7034 50.6814Z" fill="#4C4B4C"/><path fill-rule="evenodd" clip-rule="evenodd" d="M81.2034 50.6814C77.3142 50.6814 74.0326 53.8414 74.0326 57.8521V66.4814C74.0326 70.3706 77.1926 73.6521 81.2034 73.6521C85.0926 73.6521 88.3742 70.4921 88.3742 66.4814V57.8521C88.2526 53.8414 85.0926 50.6814 81.2034 50.6814Z" fill="#4C4B4C"/><path fill-rule="evenodd" clip-rule="evenodd" d="M27.3618 140.985C27.3618 137.46 28.8202 134.3 31.1295 131.991C33.4387 129.682 36.5987 128.223 40.1233 128.223C43.6479 128.223 46.8079 129.682 49.1172 131.991C51.4264 134.3 52.8849 137.46 52.8849 140.985C52.8849 144.509 51.4264 147.669 49.1172 149.978C46.8079 152.288 43.6479 153.746 40.1233 153.746C36.5987 153.746 33.4387 152.288 31.1295 149.978C28.8202 147.669 27.3618 144.509 27.3618 140.985Z" fill="#AD3B3B"/><path d="M40.1233 131.262C45.471 131.262 49.8464 135.637 49.8464 140.985C49.8464 146.332 45.471 150.708 40.1233 150.708C34.7756 150.708 30.4002 146.332 30.4002 140.985C30.4002 135.637 34.7756 131.262 40.1233 131.262ZM40.1233 123.969C30.7649 123.969 23.1079 131.626 23.1079 140.985C23.1079 150.343 30.7649 158 40.1233 158C49.4818 158 57.1387 150.343 57.1387 140.985C57.1387 131.626 49.4818 123.969 40.1233 123.969Z" fill="#DB8E73"/></svg>