<svg viewBox="0 0 123 151" fill="none" xmlns="http://www.w3.org/2000/svg"><path fill-rule="evenodd" clip-rule="evenodd" d="M61.3925 0.861328C95.3018 0.861328 122.769 28.329 122.769 62.2383V123.615C122.769 138.443 110.859 150.354 96.031 150.354H26.7541C11.9264 150.354 0.015625 138.443 0.015625 123.615V62.2383C0.015625 28.329 27.4833 0.861328 61.3925 0.861328Z" fill="#DB8E73"/><path fill-rule="evenodd" clip-rule="evenodd" d="M83.7556 42.1844C93.1141 42.1844 100.649 49.7198 100.649 59.0782V72.2044C100.649 81.5628 93.1141 89.0982 83.7556 89.0982C74.3972 89.0982 66.8618 81.5628 66.8618 72.2044V59.0782C66.9833 49.7198 74.5187 42.1844 83.7556 42.1844Z" fill="white"/><path fill-rule="evenodd" clip-rule="evenodd" d="M38.7864 42.1844C29.4279 42.1844 21.8925 49.7198 21.8925 59.0782V72.2044C21.8925 81.5628 29.4279 89.0982 38.7864 89.0982C48.1449 89.0982 55.6802 81.5628 55.6802 72.2044V59.0782C55.6802 49.7198 48.1449 42.1844 38.7864 42.1844Z" fill="white"/><path fill-rule="evenodd" clip-rule="evenodd" d="M41.8249 54.0953C37.9356 54.0953 34.6541 57.2553 34.6541 61.2661V70.1384C34.6541 74.0276 37.8141 77.3092 41.8249 77.3092C45.7141 77.3092 48.9956 74.1492 48.9956 70.1384V61.2661C48.8741 57.2553 45.7141 54.0953 41.8249 54.0953Z" fill="#4C4B4C"/><path fill-rule="evenodd" clip-rule="evenodd" d="M80.1095 54.0953C76.2202 54.0953 72.9387 57.2553 72.9387 61.2661V70.1384C72.9387 74.0276 76.0987 77.3092 80.1095 77.3092C84.1202 77.3092 87.2802 74.1492 87.2802 70.1384V61.2661C87.1587 57.2553 83.9987 54.0953 80.1095 54.0953Z" fill="#4C4B4C"/><path d="M70.9941 96.1475L64.431 77.5521C76.5849 73.1767 89.1033 69.8952 101.622 67.7075L105.025 87.1536C93.6002 89.0982 82.1756 92.1367 70.9941 96.1475Z" fill="#DB8E73"/><path d="M48.9958 107.086C37.8143 103.075 26.3896 100.037 14.965 98.0921L18.3681 78.6459C30.8866 80.8336 43.405 84.1152 55.5589 88.4905L48.9958 107.086Z" fill="#DB8E73"/><path d="M74.3972 92.0151L89.3464 85.4521C95.3018 82.8998 102.108 85.4521 104.782 91.4075C105.389 92.8659 105.754 94.4459 105.754 96.1475V118.511C105.754 123.251 101.986 127.018 97.2464 127.018H72.9387V94.2028C72.9387 93.2305 73.5464 92.3798 74.3972 92.0151Z" fill="#AD3B3B"/><path d="M74.3972 92.0151L89.3464 85.4521C95.3018 82.8998 102.108 85.4521 104.782 91.4075C105.389 92.8659 105.754 94.4459 105.754 96.1475V118.511C105.754 123.251 101.986 127.018 97.2464 127.018H72.9387V94.2028C72.9387 93.2305 73.5464 92.3798 74.3972 92.0151Z" fill="#AD3B3B"/><path fill-rule="evenodd" clip-rule="evenodd" d="M74.3972 92.0151L89.3464 85.4521C95.3018 82.8998 102.108 85.4521 104.782 91.4075C105.389 92.8659 105.754 94.4459 105.754 96.1475V118.511C105.754 123.251 101.986 127.018 97.2464 127.018H72.9387V94.2028C72.9387 93.2305 73.5464 92.3798 74.3972 92.0151Z" fill="#AD3B3B"/><path fill-rule="evenodd" clip-rule="evenodd" d="M92.3849 119.969C92.3849 109.881 84.2418 101.738 74.1541 101.738C73.7895 101.738 73.3033 101.738 72.9387 101.738V126.897H90.9264C91.8987 124.831 92.3849 122.4 92.3849 119.969Z" fill="#F05656"/><path fill-rule="evenodd" clip-rule="evenodd" d="M105.754 115.837C105.025 115.472 104.174 115.107 103.323 115.107H72.9387V127.018H97.2464C101.986 127.018 105.754 123.251 105.754 118.511V115.837Z" fill="white"/><path fill-rule="evenodd" clip-rule="evenodd" d="M46.2002 23.9536H57.1387V50.6921H19.4618C19.4618 35.8644 31.3725 23.9536 46.2002 23.9536Z" fill="#DB8E73"/></svg>