<svg viewBox="0 0 123 151" fill="none" xmlns="http://www.w3.org/2000/svg"><path fill-rule="evenodd" clip-rule="evenodd" d="M61.3925 0.861328C95.3018 0.861328 122.769 28.329 122.769 62.2383V123.615C122.769 138.443 110.859 150.354 96.031 150.354H26.7541C11.9264 150.354 0.015625 138.443 0.015625 123.615V62.2383C0.015625 28.329 27.4833 0.861328 61.3925 0.861328Z" fill="#DB8E73"/><path fill-rule="evenodd" clip-rule="evenodd" d="M84.8496 53.1229C94.208 53.1229 101.743 60.6583 101.743 70.0167V82.8998C101.743 92.2582 94.208 99.7936 84.8496 99.7936C75.4911 99.7936 67.9557 92.2582 67.9557 82.8998V70.0167C68.0772 60.6583 75.6126 53.1229 84.8496 53.1229Z" fill="white"/><path fill-rule="evenodd" clip-rule="evenodd" d="M40.0018 53.1229C30.6433 53.1229 23.1079 60.6583 23.1079 70.0167V82.8998C23.1079 92.2582 30.6433 99.7936 40.0018 99.7936C49.3602 99.7936 56.8956 92.2582 56.8956 82.8998V70.0167C56.7741 60.6583 49.2387 53.1229 40.0018 53.1229Z" fill="white"/><path fill-rule="evenodd" clip-rule="evenodd" d="M42.5542 64.7905H42.3111C38.4219 64.7905 35.1403 67.9505 35.1403 71.9612V80.712C35.1403 84.6012 38.3003 87.8828 42.3111 87.8828H42.5542C46.4434 87.8828 49.7249 84.7228 49.7249 80.712V71.9612C49.7249 68.072 46.5649 64.7905 42.5542 64.7905Z" fill="#4C4B4C"/><path fill-rule="evenodd" clip-rule="evenodd" d="M82.6619 64.7905H82.4188C78.5296 64.7905 75.248 67.9505 75.248 71.9612V80.712C75.248 84.6012 78.408 87.8828 82.4188 87.8828H82.6619C86.5511 87.8828 89.8326 84.7228 89.8326 80.712V71.9612C89.8326 68.072 86.6726 64.7905 82.6619 64.7905Z" fill="#4C4B4C"/><path fill-rule="evenodd" clip-rule="evenodd" d="M21.8925 81.0767L62.4864 85.9383L104.539 81.0767V100.523H21.8925V81.0767Z" fill="#DB8E73"/><path d="M43.4049 97.2413C50.3326 103.44 56.531 106.6 62.1218 106.6C68.8064 106.6 76.3418 105.992 84.8495 104.412C89.4679 103.561 93.8433 106.721 94.6941 111.34C94.8156 111.826 94.8156 112.312 94.8156 112.798V118.875C94.8156 123.615 91.0479 127.383 86.3079 127.383C85.5787 127.383 84.8495 127.261 84.1202 127.14C76.5849 125.074 69.0495 123.98 61.6356 123.98C54.3433 123.98 47.1726 124.952 40.0018 127.018C35.5049 128.234 30.7649 125.56 29.5495 121.063C29.3064 120.334 29.1849 119.604 29.1849 118.754V103.561C29.1849 98.8213 32.9525 95.0536 37.6925 95.0536C39.7587 95.0536 41.8249 95.9044 43.4049 97.2413Z" fill="white"/><path fill-rule="evenodd" clip-rule="evenodd" d="M42.6756 36.1075H92.2633C97.7325 36.1075 102.108 40.4829 102.108 45.9521L63.9449 87.1536L19.4618 59.3213C19.4618 46.5598 29.9141 36.1075 42.6756 36.1075Z" fill="#DB8E73"/></svg>