<svg viewBox="0 0 127 158" fill="none" xmlns="http://www.w3.org/2000/svg"><path fill-rule="evenodd" clip-rule="evenodd" d="M63.5 0C98.5212 0 127 28.4788 127 63.5V129.566C127 145.216 114.428 157.788 98.7778 157.788H28.2222C12.5717 157.788 0 145.216 0 129.566V63.5C0 28.4788 28.4788 0 63.5 0Z" fill="#DB8E73"/><path fill-rule="evenodd" clip-rule="evenodd" d="M87.2322 41.0505C97.11 41.0505 105.064 49.0041 105.064 58.8819V72.993C105.064 82.8707 97.11 90.8243 87.2322 90.8243C77.3544 90.8243 69.4009 82.8707 69.4009 72.993V58.8819C69.4009 49.0041 77.3544 41.0505 87.2322 41.0505Z" fill="white"/><path fill-rule="evenodd" clip-rule="evenodd" d="M39.6394 41.0505C29.7616 41.0505 21.8081 49.0041 21.8081 58.8819V72.993C21.8081 82.8707 29.7616 90.8243 39.6394 90.8243C49.5172 90.8243 57.4707 82.8707 57.4707 72.993V58.8819C57.4707 49.0041 49.5172 41.0505 39.6394 41.0505Z" fill="white"/><path fill-rule="evenodd" clip-rule="evenodd" d="M42.8465 53.7507C38.7414 53.7507 35.2778 57.0861 35.2778 61.3194V70.8123C35.2778 74.9174 38.6131 78.381 42.8465 78.381C46.9515 78.381 50.4151 75.0457 50.4151 70.8123V61.3194C50.4151 57.0861 46.9515 53.7507 42.8465 53.7507Z" fill="#4C4B4C"/><path fill-rule="evenodd" clip-rule="evenodd" d="M83.2556 53.7507C79.1505 53.7507 75.6869 57.0861 75.6869 61.3194V70.8123C75.6869 74.9174 79.0222 78.381 83.2556 78.381C87.3606 78.381 90.8242 75.0457 90.8242 70.8123V61.3194C90.8242 57.0861 87.4889 53.7507 83.2556 53.7507Z" fill="#4C4B4C"/><path d="M109.04 39.7676H16.6768V66.707H109.04V39.7676Z" fill="#DB8E73"/></svg>