<svg viewBox="0 0 127 158" fill="none" xmlns="http://www.w3.org/2000/svg"><path fill-rule="evenodd" clip-rule="evenodd" d="M63.5 0C98.5212 0 127 28.4788 127 63.5V129.566C127 145.216 114.428 157.788 98.7778 157.788H28.2222C12.5717 157.788 0 145.216 0 129.566V63.5C0 28.4788 28.4788 0 63.5 0Z" fill="#DB8E73"/><path fill-rule="evenodd" clip-rule="evenodd" d="M87.104 43.6162C96.9818 43.6162 104.935 51.5697 104.935 61.4475V75.3021C104.935 85.1798 96.9818 93.1334 87.104 93.1334C77.2263 93.1334 69.2727 85.1798 69.2727 75.3021V61.4475C69.401 51.5697 77.3545 43.6162 87.104 43.6162Z" fill="white"/><path fill-rule="evenodd" clip-rule="evenodd" d="M39.6394 43.6162C29.7616 43.6162 21.8081 51.5697 21.8081 61.4475V75.3021C21.8081 85.1798 29.7616 93.1334 39.6394 93.1334C49.5172 93.1334 57.4707 85.1798 57.4707 75.3021V61.4475C57.4707 51.5697 49.5172 43.6162 39.6394 43.6162Z" fill="white"/><path fill-rule="evenodd" clip-rule="evenodd" d="M42.8465 56.188C38.7414 56.188 35.2778 59.5233 35.2778 63.7567V73.1213C35.2778 77.2264 38.6131 80.69 42.8465 80.69C46.9515 80.69 50.4151 77.3547 50.4151 73.1213V63.7567C50.2869 59.5233 46.9515 56.188 42.8465 56.188Z" fill="#4C4B4C"/><path fill-rule="evenodd" clip-rule="evenodd" d="M83.2556 56.188C79.1505 56.188 75.6869 59.5233 75.6869 63.7567V73.1213C75.6869 77.2264 79.0222 80.69 83.2556 80.69C87.4889 80.69 90.8242 77.3547 90.8242 73.1213V63.7567C90.696 59.5233 87.3606 56.188 83.2556 56.188Z" fill="#4C4B4C"/><path d="M110.323 85.9497H69.2727V106.475H110.323V85.9497Z" fill="#DB8E73"/><path fill-rule="evenodd" clip-rule="evenodd" d="M70.684 34.7648L109.81 45.7971C110.323 45.9254 110.708 46.4385 110.708 46.9516L108.527 71.3254C108.527 71.9668 107.886 72.4799 107.245 72.3516L68.1183 68.888C67.4769 68.888 66.9638 68.2466 67.0921 67.6052L69.2729 35.6628C69.2729 35.0213 69.9143 34.5082 70.5557 34.6365C70.5557 34.7648 70.5557 34.7648 70.684 34.7648Z" fill="#DB8E73"/><path fill-rule="evenodd" clip-rule="evenodd" d="M23.8606 42.3335H55.6748C58.2404 42.3335 60.2929 44.386 60.2929 46.9517V58.2406C60.2929 60.8062 58.2404 62.8587 55.6748 62.8587H23.8606C21.2949 62.8587 19.2424 60.8062 19.2424 58.2406V46.9517C19.2424 44.386 21.2949 42.3335 23.8606 42.3335Z" fill="#DB8E73"/><path opacity="0.3692" d="M39.7676 103.524C38.7414 103.524 37.7151 103.396 36.5605 103.268C35.0212 103.011 33.8666 101.6 33.9949 100.06C34.2515 98.5211 35.6626 97.3665 37.202 97.4948C41.5636 98.008 44.7706 97.2383 46.8232 95.1857C47.9777 94.0312 49.7737 94.0312 50.9282 95.1857C52.0828 96.3403 52.0828 98.1362 50.9282 99.2908C48.2343 102.113 44.3858 103.524 39.7676 103.524Z" fill="#B4654A"/><path opacity="0.3692" d="M87.617 103.524C82.9988 103.524 79.1503 102.113 76.3281 99.2908C75.1735 98.1362 75.1735 96.3403 76.3281 95.1857C77.4826 94.0312 79.2786 94.0312 80.4331 95.1857C82.6139 97.3665 85.6927 98.1362 90.0543 97.4948C91.5937 97.2383 93.1331 98.3928 93.2614 100.06C93.3897 101.728 92.3634 103.139 90.6957 103.268C89.6695 103.396 88.6432 103.524 87.617 103.524Z" fill="#B4654A"/></svg>