<svg viewBox="0 0 127 158" fill="none" xmlns="http://www.w3.org/2000/svg"><path fill-rule="evenodd" clip-rule="evenodd" d="M63.5 0C98.5212 0 127 28.4788 127 63.5V129.566C127 145.216 114.428 157.788 98.7778 157.788H28.2222C12.5717 157.788 0 145.216 0 129.566V63.5C0 28.4788 28.4788 0 63.5 0Z" fill="#DB8E73"/><path fill-rule="evenodd" clip-rule="evenodd" d="M84.6666 38.4849C94.5443 38.4849 102.498 46.4384 102.498 56.3162V70.4273C102.498 80.3051 94.5443 88.2586 84.6666 88.2586C74.7888 88.2586 66.8352 80.3051 66.8352 70.4273V56.3162C66.8352 46.4384 74.7888 38.4849 84.6666 38.4849Z" fill="white"/><path fill-rule="evenodd" clip-rule="evenodd" d="M42.205 38.4849C32.3273 38.4849 24.3737 46.4384 24.3737 56.3162V70.4273C24.3737 80.3051 32.3273 88.2586 42.205 88.2586C52.0828 88.2586 60.0364 80.3051 60.0364 70.4273V56.3162C60.0364 46.4384 52.0828 38.4849 42.205 38.4849Z" fill="white"/><path fill-rule="evenodd" clip-rule="evenodd" d="M52.2113 55.0332C50.4154 53.2373 47.4649 53.2373 45.6689 55.0332L34.1235 66.5787C32.3275 68.3747 32.3275 71.3252 34.1235 73.1211C35.9194 74.9171 38.8699 74.9171 40.6659 73.1211L52.2113 61.5757C54.0073 59.7797 54.0073 56.8292 52.2113 55.0332Z" fill="#4C4B4C"/><path fill-rule="evenodd" clip-rule="evenodd" d="M33.9947 55.0332C35.7907 53.2373 38.7412 53.2373 40.5372 55.0332L52.0826 66.5787C53.8786 68.3747 53.8786 71.3252 52.0826 73.1211C50.2866 74.9171 47.3361 74.9171 45.5402 73.1211L33.9947 61.5757C32.1988 59.7797 32.1988 56.8292 33.9947 55.0332Z" fill="#4C4B4C"/><path fill-rule="evenodd" clip-rule="evenodd" d="M91.979 55.0332C90.1831 53.2373 87.2325 53.2373 85.4366 55.0332L73.8911 66.5787C72.0952 68.3747 72.0952 71.3252 73.8911 73.1211C75.6871 74.9171 78.6376 74.9171 80.4336 73.1211L91.979 61.5757C93.775 59.7797 93.775 56.8292 91.979 55.0332Z" fill="#4C4B4C"/><path fill-rule="evenodd" clip-rule="evenodd" d="M73.7624 55.0332C75.5584 53.2373 78.5089 53.2373 80.3048 55.0332L91.8503 66.5787C93.6462 68.3747 93.6462 71.3252 91.8503 73.1211C90.0543 74.9171 87.1038 74.9171 85.3079 73.1211L73.7624 61.5757C71.9664 59.7797 71.9664 56.8292 73.7624 55.0332Z" fill="#4C4B4C"/></svg>