<svg viewBox="0 0 123 151" fill="none" xmlns="http://www.w3.org/2000/svg"><path fill-rule="evenodd" clip-rule="evenodd" d="M61.3925 0.861328C95.3018 0.861328 122.769 28.329 122.769 62.2383V123.615C122.769 138.443 110.859 150.354 96.031 150.354H26.7541C11.9264 150.354 0.015625 138.443 0.015625 123.615V62.2383C0.015625 28.329 27.4833 0.861328 61.3925 0.861328Z" fill="#DB8E73"/><path fill-rule="evenodd" clip-rule="evenodd" d="M83.6342 37.3229C92.9926 37.3229 100.528 44.8583 100.528 54.2167V67.0998C100.528 76.4583 92.9926 83.9936 83.6342 83.9936C74.2757 83.9936 66.7403 76.4583 66.7403 67.0998V54.2167C66.8619 44.8583 74.3973 37.3229 83.6342 37.3229Z" fill="white"/><path fill-rule="evenodd" clip-rule="evenodd" d="M80.3525 49.4767H80.1095C76.2202 49.4767 72.9387 52.6367 72.9387 56.6475V65.3983C72.9387 69.2875 76.0987 72.569 80.1095 72.569H80.3525C84.2418 72.569 87.5233 69.409 87.5233 65.3983V56.6475C87.5233 52.6367 84.3633 49.4767 80.3525 49.4767Z" fill="#4C4B4C"/><path fill-rule="evenodd" clip-rule="evenodd" d="M38.7864 37.3229C29.4279 37.3229 21.8925 44.8583 21.8925 54.2167V67.0998C21.8925 76.4583 29.4279 83.9936 38.7864 83.9936C48.1449 83.9936 55.6802 76.4583 55.6802 67.0998V54.2167C55.5587 44.8583 48.0233 37.3229 38.7864 37.3229Z" fill="white"/><path fill-rule="evenodd" clip-rule="evenodd" d="M41.4602 49.4767H41.2172C37.3279 49.4767 34.0464 52.6367 34.0464 56.6475V65.3983C34.0464 69.2875 37.2064 72.569 41.2172 72.569H41.4602C45.3495 72.569 48.631 69.409 48.631 65.3983V56.6475C48.631 52.6367 45.471 49.4767 41.4602 49.4767Z" fill="#4C4B4C"/><path fill-rule="evenodd" clip-rule="evenodd" d="M18.0035 47.4106C34.7758 45.466 46.6866 42.1845 53.7358 37.566C60.6635 32.9476 59.8127 29.4229 51.0619 26.8706L31.0081 33.5553L18.0035 47.4106Z" fill="#DB8E73"/><path d="M48.9958 99.7936C37.8143 95.7829 26.3896 92.7444 14.965 90.7998L18.3681 71.3536C30.8866 73.5413 43.405 76.8229 55.5589 81.1983L48.9958 99.7936Z" fill="#DB8E73"/><path d="M43.7693 126.654C42.4324 126.654 41.217 125.803 40.8524 124.466L39.3939 119.604L35.2616 125.438C34.2893 126.775 32.3447 127.14 31.0078 126.167C29.6708 125.195 29.3062 123.251 30.2785 121.914L37.9355 110.975C38.6647 110.003 39.7585 109.517 40.8524 109.76C41.9462 110.003 42.9185 110.732 43.2831 111.947L46.5647 122.886C47.0508 124.466 46.0785 126.167 44.4985 126.654C44.377 126.654 44.0124 126.654 43.7693 126.654Z" fill="#C4765A"/><path fill-rule="evenodd" clip-rule="evenodd" d="M57.3818 103.197L74.1541 116.323H21.8925C24.3233 104.291 36.1125 96.5121 48.1449 98.9428C51.5479 99.6721 54.7079 101.131 57.3818 103.197Z" fill="white"/></svg>