<svg viewBox="0 0 123 151" fill="none" xmlns="http://www.w3.org/2000/svg"><path fill-rule="evenodd" clip-rule="evenodd" d="M61.3925 0.861328C95.3018 0.861328 122.769 28.329 122.769 62.2383V123.615C122.769 138.443 110.859 150.354 96.031 150.354H26.7541C11.9264 150.354 0.015625 138.443 0.015625 123.615V62.2383C0.015625 28.329 27.4833 0.861328 61.3925 0.861328Z" fill="#DB8E73"/><path d="M88.7389 73.1765C88.3743 73.1765 88.1312 73.1765 87.7666 73.055L61.0281 64.3042C59.9343 63.9396 59.0835 62.9673 58.962 61.7519C58.8405 60.5365 59.4481 59.4427 60.4205 58.835L87.1589 43.2781C88.6174 42.4273 90.4405 42.9135 91.2912 44.3719C92.142 45.8304 91.6558 47.6535 90.1974 48.5042L69.2928 60.6581L89.5897 67.3427C91.1697 67.8288 92.0205 69.5304 91.5343 71.2319C91.1697 72.3258 90.0758 73.1765 88.7389 73.1765Z" fill="#B4654A"/><path d="M36.4771 73.1766C35.1401 73.1766 34.0463 72.3258 33.5601 71.1105C33.074 69.5305 33.9248 67.8289 35.5048 67.2212L55.8017 60.5366L34.8971 48.3828C33.4386 47.532 32.9524 45.7089 33.8032 44.2505C34.654 42.792 36.4771 42.3058 37.9355 43.1566L64.674 58.7135C65.7678 59.3212 66.254 60.4151 66.1325 61.6305C66.0109 62.8458 65.1601 63.8181 64.0663 64.1828L37.3278 72.9335C37.0848 73.1766 36.8417 73.1766 36.4771 73.1766Z" fill="#B4654A"/><path d="M9.73884 121.185C8.88807 121.185 8.15884 121.063 7.42961 120.698C5.24192 119.848 3.78345 117.782 3.66192 115.351L2.56807 95.1753C2.20345 88.7338 4.39115 82.4138 8.76653 77.5523C13.1419 72.6907 19.0973 69.8953 25.5388 69.5307C32.345 69.1661 39.1512 71.7184 44.0127 76.58L75.8558 108.058C78.7727 110.975 78.7727 115.594 75.8558 118.389C74.2758 120.091 71.845 120.82 69.5358 120.455C49.3604 117.417 35.2619 115.958 27.8481 115.958C21.285 115.958 16.4235 117.174 13.8711 119.483C12.6558 120.698 11.1973 121.185 9.73884 121.185ZM27.8481 103.805C33.925 103.805 43.405 104.655 56.6527 106.357L35.3835 85.3307C32.9527 82.9 29.6711 81.6846 26.1465 81.8061C22.865 81.9277 19.9481 83.3861 17.7604 85.8169C15.5727 88.2477 14.4788 91.2861 14.7219 94.5677L15.3296 105.385C18.9758 104.412 23.1081 103.805 27.8481 103.805Z" fill="#DB8E73"/><path d="M9.73884 121.185C8.88807 121.185 8.15884 121.063 7.42961 120.698C5.24192 119.848 3.78345 117.782 3.66192 115.351L2.56807 95.1753C2.20345 88.7338 4.39115 82.4138 8.76653 77.5523C13.1419 72.6907 19.0973 69.8953 25.5388 69.5307C32.345 69.1661 39.1512 71.7184 44.0127 76.58L75.8558 108.058C78.7727 110.975 78.7727 115.594 75.8558 118.389C74.2758 120.091 71.845 120.82 69.5358 120.455C49.3604 117.417 35.2619 115.958 27.8481 115.958C21.285 115.958 16.4235 117.174 13.8711 119.483C12.6558 120.698 11.1973 121.185 9.73884 121.185ZM27.8481 103.805C33.925 103.805 43.405 104.655 56.6527 106.357L35.3835 85.3307C32.9527 82.9 29.6711 81.6846 26.1465 81.8061C22.865 81.9277 19.9481 83.3861 17.7604 85.8169C15.5727 88.2477 14.4788 91.2861 14.7219 94.5677L15.3296 105.385C18.9758 104.412 23.1081 103.805 27.8481 103.805Z" fill="#DB8E73"/><path fill-rule="evenodd" clip-rule="evenodd" d="M39.6372 80.9552L71.4803 112.434C71.9664 112.92 71.9664 113.649 71.4803 114.135C71.2372 114.378 70.8726 114.5 70.3864 114.5C49.7249 111.461 35.6264 109.881 27.7264 109.881C19.4618 109.881 13.3849 111.583 9.61719 114.986L8.64488 94.9322C8.15872 84.8445 15.8156 76.2152 25.9033 75.7291C31.008 75.3645 35.991 77.3091 39.6372 80.9552Z" fill="#AC3B3B"/><path fill-rule="evenodd" clip-rule="evenodd" d="M53.2495 94.446L39.6372 80.9552C35.991 77.3091 31.0079 75.3645 25.7818 75.7291C25.2956 75.7291 24.8095 75.8506 24.4449 75.8506C24.3233 76.3368 24.3233 76.9445 24.3233 77.4306V85.9383C24.3233 90.6783 28.091 94.446 32.831 94.446H53.2495Z" fill="white"/><path fill-rule="evenodd" clip-rule="evenodd" d="M21.8925 101.738V110.246C21.8925 110.246 21.8925 110.246 21.8925 110.368C23.7156 110.124 25.6602 110.003 27.8479 110.003C35.6264 110.003 49.8464 111.583 70.5079 114.621C70.8725 114.621 71.2372 114.5 71.6018 114.257C72.0879 113.771 72.0879 113.041 71.6018 112.555L52.0341 93.2306H30.4002C25.6602 93.2306 21.8925 96.9983 21.8925 101.738Z" fill="white"/></svg>