<svg viewBox="0 0 127 158" fill="none" xmlns="http://www.w3.org/2000/svg"><path fill-rule="evenodd" clip-rule="evenodd" d="M63.5 0C98.5212 0 127 28.4788 127 63.5V129.566C127 145.216 114.428 157.788 98.7778 157.788H28.2222C12.5717 157.788 0 145.216 0 129.566V63.5C0 28.4788 28.4788 0 63.5 0Z" fill="#DB8E73"/><path fill-rule="evenodd" clip-rule="evenodd" d="M87.2322 41.0503C97.11 41.0503 105.064 49.0038 105.064 58.8816V72.9927C105.064 82.8705 97.11 90.824 87.2322 90.824C77.3544 90.824 69.4009 82.8705 69.4009 72.9927V58.8816C69.4009 49.0038 77.3544 41.0503 87.2322 41.0503Z" fill="white"/><path fill-rule="evenodd" clip-rule="evenodd" d="M39.6394 41.0503C29.7616 41.0503 21.8081 49.0038 21.8081 58.8816V72.9927C21.8081 82.8705 29.7616 90.824 39.6394 90.824C49.5172 90.824 57.4707 82.8705 57.4707 72.9927V58.8816C57.4707 49.0038 49.5172 41.0503 39.6394 41.0503Z" fill="white"/><path fill-rule="evenodd" clip-rule="evenodd" d="M42.8467 57.8555C40.281 57.8555 38.2285 59.908 38.2285 62.4737V69.5292C38.2285 72.0949 40.281 74.1474 42.8467 74.1474C45.4123 74.1474 47.4649 72.0949 47.4649 69.5292V62.4737C47.4649 59.908 45.4123 57.8555 42.8467 57.8555Z" fill="#4C4B4C"/><path fill-rule="evenodd" clip-rule="evenodd" d="M82.7425 57.8555C80.1769 57.8555 78.1244 59.908 78.1244 62.4737V69.5292C78.1244 72.0949 80.1769 74.1474 82.7425 74.1474C85.3082 74.1474 87.3607 72.0949 87.3607 69.5292V62.4737C87.3607 59.908 85.3082 57.8555 82.7425 57.8555Z" fill="#4C4B4C"/></svg>