<svg viewBox="0 0 127 158" fill="none" xmlns="http://www.w3.org/2000/svg"><path fill-rule="evenodd" clip-rule="evenodd" d="M63.5 0C98.5212 0 127 28.4788 127 63.5V129.566C127 145.216 114.428 157.788 98.7778 157.788H28.2222C12.5717 157.788 0 145.216 0 129.566V63.5C0 28.4788 28.4788 0 63.5 0Z" fill="#DB8E73"/><path fill-rule="evenodd" clip-rule="evenodd" d="M87.104 46.1816C96.9818 46.1816 104.935 54.1352 104.935 64.013V77.7392C104.935 87.617 96.9818 95.5705 87.104 95.5705C77.2263 95.5705 69.2727 87.617 69.2727 77.7392V64.013C69.2727 54.1352 77.2263 46.1816 87.104 46.1816Z" fill="white"/><path fill-rule="evenodd" clip-rule="evenodd" d="M39.6394 46.1816C29.7616 46.1816 21.8081 54.1352 21.8081 64.013V77.7392C21.8081 87.617 29.7616 95.5705 39.6394 95.5705C49.5172 95.5705 57.4707 87.617 57.4707 77.7392V64.013C57.4707 54.1352 49.3889 46.1816 39.6394 46.1816Z" fill="white"/><path d="M94.9293 73.7624C91.0808 73.7624 87.8738 70.5553 87.8738 66.7069C87.8738 66.4503 87.8738 64.526 87.8738 64.526C84.1536 63.3715 81.9728 59.523 83.1273 55.8028C84.2818 52.0826 88.1303 49.9018 91.8505 51.0564C95.699 52.2109 102.113 56.7008 102.113 66.8351C101.985 70.5553 98.7778 73.7624 94.9293 73.7624Z" fill="#4C4B4C"/><path fill-rule="evenodd" clip-rule="evenodd" d="M84.9233 61.0628C85.8212 62.3457 87.1041 64.6548 88.5152 67.9901L91.0808 62.2174C85.9495 60.1649 83.897 59.78 84.9233 61.0628Z" fill="#4C4B4C"/><path d="M47.4647 73.7624C43.6162 73.7624 40.4091 70.5553 40.4091 66.7069C40.4091 66.4503 40.4091 64.526 40.4091 64.526C36.6889 63.3715 34.5081 59.523 35.6626 55.8028C36.8172 52.0826 40.6657 49.9018 44.3859 51.0564C48.2344 52.2109 54.6485 56.7008 54.6485 66.8351C54.5202 70.5553 51.3131 73.7624 47.4647 73.7624Z" fill="#4C4B4C"/><path fill-rule="evenodd" clip-rule="evenodd" d="M37.4586 61.0628C38.3566 62.3457 39.6394 64.6548 41.0505 67.9901L43.6162 62.2174C38.4849 60.1649 36.4323 59.78 37.4586 61.0628Z" fill="#4C4B4C"/></svg>