<?xml version="1.0" encoding="UTF-8"?><svg xmlns="http://www.w3.org/2000/svg" width="902.85" height="1258.06" viewBox="0 0 902.85 1258.06"><defs><style>.cls-1{fill:#28302e;}.cls-1,.cls-2,.cls-3,.cls-4,.cls-5,.cls-6{stroke-miterlimit:10;}.cls-1,.cls-3,.cls-4,.cls-5,.cls-6{stroke:#000;stroke-width:2.65px;}.cls-2{fill:none;stroke:#051419;stroke-width:7.96px;}.cls-3{fill:#0f2228;}.cls-7{fill:#051419;}.cls-4{fill:#f3ab32;}.cls-5,.cls-8{fill:#0f2229;}.cls-9{fill:#fff;}.cls-10{fill:#f4aa31;}.cls-6{fill:#662d91;}</style></defs><g id="Layer_10"><path class="cls-4" d="M173.5,1232.68l56.58-18.99c5.46-1.83,10.97-3.51,16.53-5.02l81.97-22.31,7.7-52.11h39.08l-6.51,55.37s21.32,16.88,12.73,20.43c0,0-26.65,25.17-76.39,46.19l-4.44-16.28-66.03,9.77,11.25-15.99-72.47-1.06Z"/><path class="cls-4" d="M728.49,1232.68l-56.58-18.99c-5.46-1.83-10.97-3.51-16.53-5.02l-81.97-22.31-7.7-52.11h-39.08s6.51,55.37,6.51,55.37c0,0-21.32,16.88-12.73,20.43,0,0,26.65,25.17,76.39,46.19l4.44-16.28,66.03,9.77-11.25-15.99,72.47-1.06Z"/></g><g id="Layer_6"><g id="left-hand"><path class="cls-5" d="M128.7,682.11s-12.34,19.75-50.99,12.74c0,0-55.94-4.86-51.54,0,0,0,16.27,17.74,36.28,28.59,0,0-3.05,10.51-17.97,21.7-4.07,3.05-42.38,37.97-43.06,48.82,0,0,26.11-3.05,48.48-27.8,0,0,11.19-2.03-1.02,12.21,0,0-34.92,46.11-35.26,55.94,0,0,7.8,7.12,54.59-41.03,0,0,21.1-19.5,15.49-1.39-.17.54-.36,1.12-.58,1.73-7.46,21.02-27.12,36.96-28.14,56.62,0,0,47.13-22.04,102.39-129.52l-28.68-38.62Z"/><path class="cls-8" d="M107.21,750.57s-17.97-14.81-35.26-11.41"/><path d="M107.21,750.57c-11-5.95-22.46-11.67-35.26-11.41,12.32-4.16,26.69,2.45,35.26,11.41h0Z"/></g><g id="left-sleeve"><path d="M115.68,692.59s11.75,29.84,32.55,41.59l34.81-27.12-33.68-50.63-33.68,36.17Z"/><path class="cls-1" d="M136.93,651.45s-5.42,6.93,1.81,13.86c0,0,31.75,29.47,37.52,38.12,7.23,10.85,3.01,18.53,3.01,18.53,0,0-1.66,8.14,14.62-6.33,0,0,153.97-133.59,153.97-122.93l9.44-102.36s-62.18-.04-120.15,68.27c-6.85,8.07-13.47,16.33-21.41,23.33l-78.81,69.49Z"/></g><g id="right-hand"><path class="cls-5" d="M774.14,692.4s12.34,19.75,50.99,12.74c0,0,55.94-4.86,51.54,0,0,0-16.27,17.74-36.28,28.59,0,0,3.05,10.51,17.97,21.7,4.07,3.05,42.38,37.97,43.06,48.82,0,0-26.11-3.05-48.48-27.8,0,0-11.19-2.03,1.02,12.21,0,0,34.92,46.11,35.26,55.94,0,0-7.8,7.12-54.59-41.03,0,0-21.1-19.5-15.49-1.39.17.54.36,1.12.58,1.73,7.46,21.02,27.12,36.96,28.14,56.62,0,0-47.13-22.04-102.39-129.52l28.68-38.62Z"/><path d="M795.64,760.86c7.1-10.38,23.44-17.57,35.26-11.42-12.69,1.64-23.37,7.08-35.26,11.42h0Z"/></g><g id="right-sleeve"><path d="M738.79,660.84l52.22,43.02s-34.13,36.99-35.04,45.58c0,0-38.88-28.03-47.47-32.1l30.29-56.51Z"/><path class="cls-1" d="M574.34,498.4l188.3,167.8c2.38,2.12,2.77,5.69.91,8.27l-42.84,59.78c-1.94,2.7-5.65,3.39-8.43,1.58-29.22-19.08-176.8-118.86-183.99-156.28-.25-1.31-.08-2.67.49-3.88l35.81-75.29c1.78-3.74,6.65-4.72,9.74-1.97Z"/></g></g><g id="pants-group"><g id="leg-cuffs"><path id="left-leg-cuff" class="cls-7" d="M336.28,1134.26l-4.15,24.28s31.38,5.33,40.27,0l2.96-24.28h-39.08Z"/><path id="right-leg-cuff" class="cls-7" d="M526.37,1134.26l3.55,26.65s33.16,3.55,38.49-4.15v-26.65l-42.04,4.15Z"/></g><path id="pants-actual" class="cls-3" d="M316.46,1082.51l-15.12,35.17,32.87,27.54h39.85l26.48-17.77,48.24-153.67s51.52,137.68,50.64,153.67c0,0,20.16,16.88,31.4,17.77,0,0,55.66,1.78,69.87-23.98l-10.44-32.87s31.76-30.2,23.76-52.41l-72.48-294.9-190.45-6.22-63.95,306.45,29.33,41.22Z"/><g id="pants-shadows"><line id="belt-shadow" class="cls-2" x1="399.64" y1="805.01" x2="497.35" y2="807.38"/><g id="front-left-rise-shadow"><path class="cls-7" d="M440.56,806c2.84,48.99,2.06,98.18-2.43,147.05-2.87-48.99-2.03-98.18,2.43-147.05h0Z"/></g><g id="front-right-rise-2"><path class="cls-7" d="M474.84,936.29c-2.66-21.5-3.7-43.08-4.34-64.7-.5-21.62-.59-43.23.97-64.84,2.68,21.5,3.72,43.08,4.34,64.7.49,21.62.58,43.23-.97,64.84h0Z"/></g><g id="ankle-shadows"><g id="left-ankle-shadow"><path class="cls-7" d="M325.62,1086.29c11.48,2.4,22.22,6.62,32.86,11.29,10.61,4.74,20.7,10.16,30.5,16.54-19.2-2.43-47.95-16-63.36-27.83h0Z"/></g><g id="right-ankle-shadow"><path class="cls-7" d="M523.44,1100.21c15.78.53,31-1.94,46.03-6.27,3.62-.95,7.03-2.09,10.78-2.91-.9.9-1.86,1.72-2.84,2.54-14,11.69-37.83,16.36-53.98,6.64h0Z"/></g></g><g id="crotch-shadows"><g id="crotch-shadow-1"><path class="cls-7" d="M351.68,1042.47c19.3-21.17,41.19-39.21,63.81-56.51,22.82-17.04,46.14-33.18,71.8-45.93-19.28,21.2-41.18,39.23-63.81,56.51-22.83,17.02-46.16,33.15-71.8,45.93h0Z"/></g><path id="crotch-shadow-2" class="cls-7" d="M422.17,989.21l-33.19,107.55,14.21,25.65s40.84-137.58,51.86-158.04l-32.88,24.84Z"/></g><g id="pants-pockets"><g id="left-pocket-shadow"><path class="cls-7" d="M380.69,785.47c5.43,42.1-1.59,116.9-44.43,137.96-6.75,3.12-14.14,4.53-21.3,4.16,7.03-1.4,13.69-3.79,19.41-7.58,35.94-23.63,41.89-94.49,46.32-134.54h0Z"/></g><g id="right-pocket-shadow"><path class="cls-7" d="M523.47,785.47c4.61,40.76,11.12,116.28,46.75,141.06,5.83,4.11,12.7,6.76,20.02,8.16-7.45.38-15.12-1.32-22.02-4.8-42.76-22.94-49.79-101.09-44.76-144.43h0Z"/></g></g><g id="jacket-shadows"><path id="left-jacket-shadow" class="cls-7" d="M341.02,827.51s65.14,7.11,71.65,2.96c6.51-4.15,0-25.46,0-25.46l-67.79-2.15-3.86,24.66Z"/><path id="right-jacket-shadow" class="cls-7" d="M479.59,835.21l-4.74-26.06,81.13-13.03,5.92,31.98s-37.31,7.11-82.31,7.11Z"/></g></g></g><g id="shirt-center"><path class="cls-1" d="M463.9,553.19l.84-.92,50.68-55.93c-2.27-3.99-4.42-7.62-6.46-10.91-22.7-36.68-31.3-32.28-31.3-32.28,2.79,27.67-28.88,94.26-28.88,94.26-25.78-45.31-26.55-93.72-26.55-93.72-14.38,2.32-29.23,25.37-35.78,36.76-2.18,3.81-3.44,6.31-3.44,6.31l45.35,51.08-25.75,227.39,20.48,1.03,46.86,2.37,8.21.41-12.92-204.65-1.34-21.23Z"/></g><g id="vest"><path id="left-vest" class="cls-6" d="M428.36,547.86l-5.27,228.42-.86,37.61-93.34-13.32,9.76-28.43c-7.11-1.78-21.32-16.88-21.32-16.88-12.43-10.65,9.78-134.13,9.78-134.13,3.56-31.08-21.32-127.47-21.32-127.47,2.36-3.94,66.32-3.38,80.66-3.21-2.18,3.81-3.44,6.31-3.44,6.31l45.35,51.08Z"/><path id="right-vest" class="cls-6" d="M588.15,747.58s-12.05,21.32-19.16,23.08l4.8,31.51-102.98,14.69-.86-37.61v-.58s-4.72-204.24-4.72-204.24l-.5-22.14,50.68-55.93c-2.27-3.99-4.42-7.62-6.46-10.91,21.29,1.11,76.19,7.64,78.31,11.2,0,0-22.12,53.45-12.93,119.4,0,0,22.81,109.04,13.82,131.54Z"/></g><g id="neck"><polygon id="neck-2" class="cls-5" points="400.54 417.33 400.53 468.79 448.77 553.19 498.79 472.36 501.2 428.39 400.54 417.33"/></g><g id="head-group"><path id="head-actual" class="cls-5" d="M614.01,350.18l-134.98,107-125.93-53.5-73.25-42.8s31.83-59.26,48.29-75.72c0,0-21.95-10.97-63.1-15.91,0,0,52.68-32.92,63.1-29.63l-80.11-54.87,85.05,11.52s-80.66-89.44-102.61-109.2l144.86,44.99-57.07-84.5,103.98,53.23-7.41-94.38,58.71,113.04-6.04-89.99s40.06,75.17,35.67,91.64c0,0,53.77-66.39,87.25-83.95,0,0-24.69,65.85-55.42,116.88,0,0,47.19-45.54,68.59-50.48,0,0-21.4,52.13-46.64,89.44,0,0,37.31-20.85,47.19-20.3,0,0-21.4,25.24-35.67,61.46,0,0,25.24-3.29,30.18,1.1,0,0-13.17,21.95-25.79,37.31,0,0,19.75,37.72,18.52,44.31,0,0,11.52,25.52,22.63,33.33Z"/><g id="eye-group"><path id="left-eye-white" class="cls-9" d="M479.04,302.23c-1.23,4.32-2.87,8.38-4.87,12.1-7.32,13.68-19.44,22.61-33.11,22.61-22.38,0-40.52-23.87-40.52-53.32,0-.49,0-.97.01-1.46.11-5.28.8-10.36,1.99-15.15,13.64,5.61,26.57,11.25,38.29,16.61,7.95,3.64,15.31,7.12,21.97,10.4,6.05,2.96,11.5,5.73,16.24,8.21Z"/><path id="right-eye-white" class="cls-9" d="M532.61,325.66c-7.2,3.37-17.1-1.21-26.36-10.96-2.33-2.45-4.63-5.24-6.83-8.32.72-.52,1.46-.99,2.22-1.45,2.03-1.21,5.24-3.16,9.21-5.55,4.32-2.61,9.54-5.76,15.06-9.07,3.89-2.33,7.92-4.75,11.91-7.12,1.5,4.72,2.53,9.33,3.12,13.65,1.96,14.1-.82,25.31-8.32,28.82Z"/><path id="left-pupil" d="M463.9,302.12c0,3.49-.57,6.78-1.59,9.7-2.47,7.15-7.6,12.06-13.53,12.06-8.36,0-15.12-9.74-15.12-21.76v-.46c.12-7.63,2.96-14.27,7.18-18.04,7.95,3.64,15.31,7.12,21.97,10.4.72,2.51,1.1,5.24,1.1,8.11Z"/><path id="right-pupil" d="M533.24,304.92c0,8.68-5.19,15.69-11.58,15.69-4.25,0-7.96-3.09-9.96-7.72-1.02-2.33-1.61-5.07-1.61-7.97,0-1.95.27-3.81.74-5.53,4.32-2.61,9.54-5.76,15.06-9.07,3.73,1.98,6.51,6.51,7.19,12.01.11.84.16,1.71.16,2.6Z"/><path id="left-eye-brow" d="M497.53,313.77c-.07.01-.12.01-.17.01-.07.03-.13.03-.2.03-.11,0-.2,0-.31-.01-.03.01-.05.01-.08,0h-.01c-.54,0-1.09-.01-1.63-.04h-.01c-7.23-.2-14.22-.93-20.95-2.08-4.06-.68-8-1.53-11.86-2.51-10.28-2.6-19.86-6.13-28.66-10.16-12.8-5.86-23.93-12.82-33.1-19.5-12.7-9.27-21.64-18.11-26.08-23.03-1.09-1.21.19-3.14,1.71-2.56,8.98,3.41,17.8,6.93,26.36,10.44,13.64,5.61,26.57,11.25,38.29,16.61,7.95,3.64,15.31,7.12,21.97,10.4,6.05,2.96,11.5,5.73,16.24,8.21,6.5,3.44,11.66,6.37,15.15,8.58,1.8,1.15,3.17,2.11,4.05,2.85,1.03.89.53,2.51-.7,2.76Z"/><path id="right-eye-brow" d="M569.16,267.16c-1.02,1.37-4.82,5.31-7,7.55-4.43,4.54-11.41,12.07-21.23,19.48-2.44,1.86-5.05,3.7-7.84,5.48-6.22,3.95-13.33,7.67-21.39,10.57-1.76.65-3.58,1.25-5.45,1.8-1.23.38-2.49.74-3.78,1.07-.04,0-.08.01-.12.03-.38.08-2.56.5-4.82.62-.07.01-.12.01-.17.01-.17.01-.33.01-.5.01-.03.01-.05.01-.08,0h-.01c-.56.03-1.11.01-1.63-.04h-.01c-2.87-.25-4.68-1.54-.93-5.6.32-.33.68-.7,1.07-1.09,1.3-1.23,2.68-2.35,4.15-3.34.72-.52,1.46-.99,2.22-1.45,2.03-1.21,5.24-3.16,9.21-5.55,4.32-2.61,9.54-5.76,15.06-9.07,3.89-2.33,7.92-4.75,11.91-7.12,11.62-6.9,22.88-13.43,28.85-16.38,1.9-.94,3.75,1.3,2.49,3.01Z"/></g><g id="mouth-group"><path id="top-beak" class="cls-10" d="M416.5,362.83c10.78-3.09,39.99-19.46,84.7-46.36,0,0,16.58,33.16,100.52,51.96,6.63,1.48,58.77,14.8,66.77,25.61,4.19,5.66-20.73,4.59-49.74,9.31-12.31,2-37.02,15.87-55.66,13.79,0,0-75.97-21.78-114.99-30.49-34.53-7.71-90.15,3.3-52.5-15.72,6.69-3.38,13.7-6.04,20.91-8.1Z"/><ellipse id="bottom-beak" class="cls-10" cx="507.25" cy="385.57" rx="21.02" ry="124.27" transform="translate(101.21 876.58) rotate(-87.65)"/><g id="top-beak-lip"><path d="M400.53,381.61c24.64.08,49.23,3.46,73.36,8.36,30.85,6.16,60.71,16.05,91.11,23.24,11.13,1.29,21-2.45,31.56-6.35,4.21-1.52,8.99-3.06,13.34-4.27,17.17-4.98,35.24-7.05,53.09-5.99,0,0,1.14.06,1.14.06h.25c.86.01,1.86-.26,2.64-.49,6.08-1.48-10.04-9.68-11.68-10.59,4.12,1.48,21.94,7.74,12.6,12.88-1.16.49-2.26.86-3.48.98-.19.01-1.27.05-1.49.06-15.9.59-31.69,3.08-46.87,7.88-5.62,1.76-11.63,3.88-17.1,6.03-5.28,2.02-12.25,5.07-17.81,6.31-6.5,1.43-13.36,2.18-19.88.78-29.99-7.11-59.1-16.96-88.82-24.5-23.71-6.04-47.68-11.01-71.96-14.38h0Z"/></g><path id="nose" d="M497.65,333.79s-5.77,9.77-2.66,12.44l9.33,5.33-6.66-17.77Z"/></g></g></svg>